999
dxfrw 0.6.3
  0
SECTION
  2
HEADER
  9
$ACADVER
  1
AC1021
  9
$DWGCODEPAGE
  3
ANSI_1252
  9
$INSBASE
 10
0
 20
0
 30
0
  9
$EXTMIN
 10
-93.125
 20
-36.25
 30
0
  9
$EXTMAX
 10
96.7916674380976
 20
53.125
 30
0
  9
$LIMMIN
 10
0
 20
0
  9
$LIMMAX
 10
420
 20
297
  9
$ORTHOMODE
 70
    0
  9
$REGENMODE
 70
    1
  9
$FILLMODE
 70
    1
  9
$QTEXTMODE
 70
    0
  9
$MIRRTEXT
 70
    0
  9
$LTSCALE
 40
1
  9
$ATTMODE
 70
    0
  9
$TEXTSIZE
 40
2.5
  9
$TRACEWID
 40
15.68
  9
$TEXTSTYLE
  7
STANDARD
  9
$CLAYER
  8
Dimensions
  9
$CELTYPE
  6
BYLAYER
  9
$CECOLOR
 62
  256
  9
$CELTSCALE
 40
1
  9
$DISPSILH
 70
    0
  9
$DIMSCALE
 40
1
  9
$DIMASZ
 40
1
  9
$DIMEXO
 40
0.625
  9
$DIMDLI
 40
3.75
  9
$DIMRND
 40
0
  9
$DIMDLE
 40
0
  9
$DIMEXE
 40
1.25
  9
$DIMTP
 40
0
  9
$DIMTM
 40
0
  9
$DIMTXT
 40
2.5
  9
$DIMCEN
 40
2.5
  9
$DIMTSZ
 40
0
  9
$DIMTOL
 70
    0
  9
$DIMLIM
 70
    0
  9
$DIMTIH
 70
    0
  9
$DIMTOH
 70
    0
  9
$DIMSE1
 70
    0
  9
$DIMSE2
 70
    0
  9
$DIMTAD
 70
    1
  9
$DIMZIN
 70
    1
  9
$DIMBLK
  1

  9
$DIMASO
 70
    1
  9
$DIMSHO
 70
    1
  9
$DIMPOST
  1

  9
$DIMAPOST
  1

  9
$DIMALT
 70
    0
  9
$DIMALTD
 70
    3
  9
$DIMALTF
 40
0.03937
  9
$DIMLFAC
 40
1
  9
$DIMTOFL
 70
    1
  9
$DIMTVP
 40
0
  9
$DIMTIX
 70
    0
  9
$DIMSOXD
 70
    0
  9
$DIMSAH
 70
    0
  9
$DIMBLK1
  1

  9
$DIMBLK2
  1

  9
$DIMSTYLE
  2
STANDARD
  9
$DIMCLRD
 70
    5
  9
$DIMCLRE
 70
    5
  9
$DIMCLRT
 70
    5
  9
$DIMTFAC
 40
1
  9
$DIMGAP
 40
0.625
  9
$DIMJUST
 70
    0
  9
$DIMSD1
 70
    0
  9
$DIMSD2
 70
    0
  9
$DIMTOLJ
 70
    0
  9
$DIMTZIN
 70
    8
  9
$DIMALTZ
 70
    0
  9
$DIMALTTZ
 70
    0
  9
$DIMUPT
 70
    0
  9
$DIMDEC
 70
    2
  9
$DIMTDEC
 70
    2
  9
$DIMALTU
 70
    2
  9
$DIMALTTD
 70
    3
  9
$DIMTXSTY
  7
standard
  9
$DIMAUNIT
 70
    0
  9
$DIMADEC
 70
    2
  9
$DIMALTRND
 40
0
  9
$DIMAZIN
 70
    0
  9
$DIMDSEP
 70
    0
  9
$DIMATFIT
 70
    3
  9
$DIMFRAC
 70
    0
  9
$DIMLDRBLK
  1
STANDARD
  9
$DIMLUNIT
 70
    2
  9
$DIMLWD
 70
   -2
  9
$DIMLWE
 70
   -2
  9
$DIMTMOVE
 70
    0
  9
$DIMFXL
 40
1
  9
$DIMFXLON
 70
    0
  9
$DIMJOGANG
 40
0.7854
  9
$DIMTFILL
 70
    0
  9
$DIMTFILLCLR
 70
    0
  9
$DIMARCSYM
 70
    0
  9
$DIMLTYPE
  6

  9
$DIMLTEX1
  6

  9
$DIMLTEX2
  6

  9
$LUNITS
 70
    2
  9
$LUPREC
 70
    2
  9
$SKETCHINC
 40
1
  9
$FILLETRAD
 40
0
  9
$AUNITS
 70
    0
  9
$AUPREC
 70
    2
  9
$MENU
  1
.
  9
$ELEVATION
 40
0
  9
$PELEVATION
 40
0
  9
$THICKNESS
 40
0
  9
$LIMCHECK
 70
    0
  9
$CHAMFERA
 40
0
  9
$CHAMFERB
 40
0
  9
$CHAMFERC
 40
0
  9
$CHAMFERD
 40
0
  9
$SKPOLY
 70
    0
  9
$USRTIMER
 70
    1
  9
$ANGBASE
 50
0
  9
$ANGDIR
 70
    0
  9
$PDMODE
 70
   34
  9
$PDSIZE
 40
0
  9
$PLINEWID
 40
0
  9
$SPLFRAME
 70
    0
  9
$SPLINETYPE
 70
    2
  9
$SPLINESEGS
 70
    8
  9
$HANDSEED
  5
20000
  9
$SURFTAB1
 70
    6
  9
$SURFTAB2
 70
    6
  9
$SURFTYPE
 70
    6
  9
$SURFU
 70
    6
  9
$SURFV
 70
    6
  9
$UCSBASE
  2

  9
$UCSNAME
  2

  9
$UCSORG
 10
0
 20
0
 30
0
  9
$UCSXDIR
 10
1
 20
0
 30
0
  9
$UCSYDIR
 10
0
 20
1
 30
0
  9
$UCSORTHOREF
  2

  9
$UCSORTHOVIEW
 70
    0
  9
$UCSORGTOP
 10
0
 20
0
 30
0
  9
$UCSORGBOTTOM
 10
0
 20
0
 30
0
  9
$UCSORGLEFT
 10
0
 20
0
 30
0
  9
$UCSORGRIGHT
 10
0
 20
0
 30
0
  9
$UCSORGFRONT
 10
0
 20
0
 30
0
  9
$UCSORGBACK
 10
0
 20
0
 30
0
  9
$PUCSBASE
  2

  9
$PUCSNAME
  2

  9
$PUCSORG
 10
0
 20
0
 30
0
  9
$PUCSXDIR
 10
1
 20
0
 30
0
  9
$PUCSYDIR
 10
0
 20
1
 30
0
  9
$PUCSORTHOREF
  2

  9
$PUCSORTHOVIEW
 70
    0
  9
$PUCSORGTOP
 10
0
 20
0
 30
0
  9
$PUCSORGBOTTOM
 10
0
 20
0
 30
0
  9
$PUCSORGLEFT
 10
0
 20
0
 30
0
  9
$PUCSORGRIGHT
 10
0
 20
0
 30
0
  9
$PUCSORGFRONT
 10
0
 20
0
 30
0
  9
$PUCSORGBACK
 10
0
 20
0
 30
0
  9
$USERI1
 70
    0
  9
$USERI2
 70
    0
  9
$USERI3
 70
    0
  9
$USERI4
 70
    0
  9
$USERI5
 70
    0
  9
$USERR1
 40
0
  9
$USERR2
 40
0
  9
$USERR3
 40
0
  9
$USERR4
 40
0
  9
$USERR5
 40
0
  9
$WORLDVIEW
 70
    1
  9
$SHADEDGE
 70
    3
  9
$SHADEDIF
 70
   70
  9
$TILEMODE
 70
    1
  9
$MAXACTVP
 70
   64
  9
$PINSBASE
 10
153.204459600567
 20
92.46508966904452
 30
0
  9
$PLIMCHECK
 70
    0
  9
$PEXTMIN
 10
0
 20
0
 30
0
  9
$PEXTMAX
 10
0
 20
0
 30
0
  9
$GRIDMODE
 70
    1
  9
$SNAPSTYLE
 70
    0
  9
$GRIDUNIT
 10
0.05
 20
0.05
  9
$PLIMMIN
 10
0
 20
0
  9
$PLIMMAX
 10
297
 20
210
  9
$UNITMODE
 70
    0
  9
$VISRETAIN
 70
    1
  9
$PLINEGEN
 70
    0
  9
$PSLTSCALE
 70
    1
  9
$TREEDEPTH
 70
 3020
  9
$CMLSTYLE
  2
Standard
  9
$CMLJUST
 70
    0
  9
$CMLSCALE
 40
20
  9
$PROXYGRAPHICS
 70
    1
  9
$MEASUREMENT
 70
    1
  9
$CELWEIGHT
370
   -1
  9
$ENDCAPS
280
    0
  9
$JOINSTYLE
280
    0
  9
$LWDISPLAY
290
    0
  9
$INSUNITS
 70
    4
  9
$HYPERLINKBASE
  1

  9
$STYLESHEET
  1

  9
$XEDIT
290
    1
  9
$CEPSNTYPE
380
    0
  9
$PSTYLEMODE
290
    1
  9
$EXTNAMES
290
    1
  9
$PSVPSCALE
 40
1.485619002187316
  9
$OLESTARTUP
290
    0
  9
$SORTENTS
280
  127
  9
$INDEXCTL
280
    0
  9
$HIDETEXT
280
    1
  9
$XCLIPFRAME
290
    0
  9
$HALOGAP
280
    0
  9
$OBSCOLOR
 70
  257
  9
$OBSLTYPE
280
    0
  9
$INTERSECTIONDISPLAY
280
    0
  9
$INTERSECTIONCOLOR
 70
  257
  9
$DIMASSOC
280
    1
  9
$PROJECTNAME
  1

  9
$CAMERADISPLAY
290
    0
  9
$LENSLENGTH
 40
50
  9
$CAMERAHEIGHT
 40
0
  9
$STEPSPERSEC
 40
2
  9
$STEPSIZE
 40
50
  9
$3DDWFPREC
 40
2
  9
$PSOLWIDTH
 40
5
  9
$PSOLHEIGHT
 40
80
  9
$LOFTANG1
 40
1.570796326794897
  9
$LOFTANG2
 40
1.570796326794897
  9
$LOFTMAG1
 40
0
  9
$LOFTMAG2
 40
0
  9
$LOFTPARAM
 70
    7
  9
$LOFTNORMALS
280
    1
  9
$LATITUDE
 40
1
  9
$LONGITUDE
 40
1
  9
$NORTHDIRECTION
 40
0
  9
$TIMEZONE
 70
-8000
  9
$LIGHTGLYPHDISPLAY
280
    1
  9
$TILEMODELIGHTSYNCH
280
    1
  9
$SOLIDHIST
280
    1
  9
$SHOWHIST
280
    1
  9
$DWFFRAME
280
    2
  9
$DGNFRAME
280
    0
  9
$REALWORLDSCALE
290
    1
  9
$INTERFERECOLOR
 62
    1
  9
$CSHADOW
280
    0
  9
$SHADOWPLANELOCATION
 40
0
  0
ENDSEC
  0
SECTION
  2
CLASSES
  0
ENDSEC
  0
SECTION
  2
TABLES
  0
TABLE
  2
VPORT
  5
8
330
0
100
AcDbSymbolTable
 70
    1
  0
VPORT
  5
31
330
2
100
AcDbSymbolTableRecord
100
AcDbViewportTableRecord
  2
*ACTIVE
 70
    0
 10
0
 20
0
 11
1
 21
1
 12
49.0557420042851
 22
30.31875278385977
 13
0
 23
0
 14
10
 24
10
 15
0.05
 25
0.05
 16
0
 26
0
 36
1
 17
0
 27
0
 37
0
 40
104.1752345653422
 41
1.846332945285215
 42
50
 43
0
 44
0
 50
0
 51
0
 71
    0
 72
  100
 73
    1
 74
    3
 75
    0
 76
    1
 77
    0
 78
    0
281
    0
 65
    1
110
0
120
0
130
0
111
1
121
0
131
0
112
0
122
1
132
0
 79
    0
146
0
348
10020
 60
    3
 61
    5
292
1
282
    1
141
0
142
0
 63
  250
421
3358443
  0
ENDTAB
  0
TABLE
  2
LTYPE
  5
5
330
0
100
AcDbSymbolTable
 70
    4
  0
LTYPE
  5
14
330
5
100
AcDbSymbolTableRecord
100
AcDbLinetypeTableRecord
  2
ByBlock
 70
    0
  3

 72
   65
 73
    0
 40
0
  0
LTYPE
  5
15
330
5
100
AcDbSymbolTableRecord
100
AcDbLinetypeTableRecord
  2
ByLayer
 70
    0
  3

 72
   65
 73
    0
 40
0
  0
LTYPE
  5
16
330
5
100
AcDbSymbolTableRecord
100
AcDbLinetypeTableRecord
  2
Continuous
 70
    0
  3
Solid line
 72
   65
 73
    0
 40
0
  0
LTYPE
  5
32
330
5
100
AcDbSymbolTableRecord
100
AcDbLinetypeTableRecord
  2
DOT
 70
    0
  3
Dot . . . . . . . . . . . . . . . . . . . . . .
 72
   65
 73
    2
 40
6.35
 49
0
 74
    0
 49
-6.35
 74
    0
  0
LTYPE
  5
33
330
5
100
AcDbSymbolTableRecord
100
AcDbLinetypeTableRecord
  2
DOTTINY
 70
    0
  3
Dot (.15x) .....................................
 72
   65
 73
    2
 40
0.9525
 49
0
 74
    0
 49
-0.9525
 74
    0
  0
LTYPE
  5
34
330
5
100
AcDbSymbolTableRecord
100
AcDbLinetypeTableRecord
  2
DOT2
 70
    0
  3
Dot (.5x) .....................................
 72
   65
 73
    2
 40
3.175
 49
0
 74
    0
 49
-3.175
 74
    0
  0
LTYPE
  5
35
330
5
100
AcDbSymbolTableRecord
100
AcDbLinetypeTableRecord
  2
DOTX2
 70
    0
  3
Dot (2x) .  .  .  .  .  .  .  .  .  .  .  .  .
 72
   65
 73
    2
 40
12.7
 49
0
 74
    0
 49
-12.7
 74
    0
  0
LTYPE
  5
36
330
5
100
AcDbSymbolTableRecord
100
AcDbLinetypeTableRecord
  2
DASHED
 70
    0
  3
Dashed _ _ _ _ _ _ _ _ _ _ _ _ _ _ _ _ _
 72
   65
 73
    2
 40
19.05
 49
12.7
 74
    0
 49
-6.35
 74
    0
  0
LTYPE
  5
37
330
5
100
AcDbSymbolTableRecord
100
AcDbLinetypeTableRecord
  2
DASHEDTINY
 70
    0
  3
Dashed (.15x) _ _ _ _ _ _ _ _ _ _ _ _ _ _ _ _ _
 72
   65
 73
    2
 40
2.8575
 49
1.905
 74
    0
 49
-0.9525
 74
    0
  0
LTYPE
  5
38
330
5
100
AcDbSymbolTableRecord
100
AcDbLinetypeTableRecord
  2
DASHED2
 70
    0
  3
Dashed (.5x) _ _ _ _ _ _ _ _ _ _ _ _ _ _ _ _ _
 72
   65
 73
    2
 40
9.524999999999999
 49
6.35
 74
    0
 49
-3.175
 74
    0
  0
LTYPE
  5
39
330
5
100
AcDbSymbolTableRecord
100
AcDbLinetypeTableRecord
  2
DASHEDX2
 70
    0
  3
Dashed (2x) ____  ____  ____  ____  ____  ___
 72
   65
 73
    2
 40
38.09999999999999
 49
25.4
 74
    0
 49
-12.7
 74
    0
  0
LTYPE
  5
3A
330
5
100
AcDbSymbolTableRecord
100
AcDbLinetypeTableRecord
  2
DASHDOT
 70
    0
  3
Dash dot __ . __ . __ . __ . __ . __ . __ . __
 72
   65
 73
    4
 40
25.4
 49
12.7
 74
    0
 49
-6.35
 74
    0
 49
0
 74
    0
 49
-6.35
 74
    0
  0
LTYPE
  5
3B
330
5
100
AcDbSymbolTableRecord
100
AcDbLinetypeTableRecord
  2
DASHDOTTINY
 70
    0
  3
Dash dot (.15x) _._._._._._._._._._._._._._._.
 72
   65
 73
    4
 40
3.81
 49
1.905
 74
    0
 49
-0.9525
 74
    0
 49
0
 74
    0
 49
-0.9525
 74
    0
  0
LTYPE
  5
3C
330
5
100
AcDbSymbolTableRecord
100
AcDbLinetypeTableRecord
  2
DASHDOT2
 70
    0
  3
Dash dot (.5x) _._._._._._._._._._._._._._._.
 72
   65
 73
    4
 40
12.7
 49
6.35
 74
    0
 49
-3.175
 74
    0
 49
0
 74
    0
 49
-3.175
 74
    0
  0
LTYPE
  5
3D
330
5
100
AcDbSymbolTableRecord
100
AcDbLinetypeTableRecord
  2
DASHDOTX2
 70
    0
  3
Dash dot (2x) ____  .  ____  .  ____  .  ___
 72
   65
 73
    4
 40
50.8
 49
25.4
 74
    0
 49
-12.7
 74
    0
 49
0
 74
    0
 49
-12.7
 74
    0
  0
LTYPE
  5
3E
330
5
100
AcDbSymbolTableRecord
100
AcDbLinetypeTableRecord
  2
DIVIDE
 70
    0
  3
Divide ____ . . ____ . . ____ . . ____ . . ____
 72
   65
 73
    6
 40
31.75
 49
12.7
 74
    0
 49
-6.35
 74
    0
 49
0
 74
    0
 49
-6.35
 74
    0
 49
0
 74
    0
 49
-6.35
 74
    0
  0
LTYPE
  5
3F
330
5
100
AcDbSymbolTableRecord
100
AcDbLinetypeTableRecord
  2
DIVIDETINY
 70
    0
  3
Divide (.15x) __..__..__..__..__..__..__..__.._
 72
   65
 73
    6
 40
4.7625
 49
1.905
 74
    0
 49
-0.9525
 74
    0
 49
0
 74
    0
 49
-0.9525
 74
    0
 49
0
 74
    0
 49
-0.9525
 74
    0
  0
LTYPE
  5
40
330
5
100
AcDbSymbolTableRecord
100
AcDbLinetypeTableRecord
  2
DIVIDE2
 70
    0
  3
Divide (.5x) __..__..__..__..__..__..__..__.._
 72
   65
 73
    6
 40
15.875
 49
6.35
 74
    0
 49
-3.175
 74
    0
 49
0
 74
    0
 49
-3.175
 74
    0
 49
0
 74
    0
 49
-3.175
 74
    0
  0
LTYPE
  5
41
330
5
100
AcDbSymbolTableRecord
100
AcDbLinetypeTableRecord
  2
DIVIDEX2
 70
    0
  3
Divide (2x) ________  .  .  ________  .  .  _
 72
   65
 73
    6
 40
63.5
 49
25.4
 74
    0
 49
-12.7
 74
    0
 49
0
 74
    0
 49
-12.7
 74
    0
 49
0
 74
    0
 49
-12.7
 74
    0
  0
LTYPE
  5
42
330
5
100
AcDbSymbolTableRecord
100
AcDbLinetypeTableRecord
  2
BORDER
 70
    0
  3
Border __ __ . __ __ . __ __ . __ __ . __ __ .
 72
   65
 73
    6
 40
44.45
 49
12.7
 74
    0
 49
-6.35
 74
    0
 49
12.7
 74
    0
 49
-6.35
 74
    0
 49
0
 74
    0
 49
-6.35
 74
    0
  0
LTYPE
  5
43
330
5
100
AcDbSymbolTableRecord
100
AcDbLinetypeTableRecord
  2
BORDERTINY
 70
    0
  3
Border (.15x) __.__.__.__.__.__.__.__.__.__.__.
 72
   65
 73
    6
 40
6.6675
 49
1.905
 74
    0
 49
-0.9525
 74
    0
 49
1.905
 74
    0
 49
-0.9525
 74
    0
 49
0
 74
    0
 49
-0.9525
 74
    0
  0
LTYPE
  5
44
330
5
100
AcDbSymbolTableRecord
100
AcDbLinetypeTableRecord
  2
BORDER2
 70
    0
  3
Border (.5x) __.__.__.__.__.__.__.__.__.__.__.
 72
   65
 73
    6
 40
22.225
 49
6.35
 74
    0
 49
-3.175
 74
    0
 49
6.35
 74
    0
 49
-3.175
 74
    0
 49
0
 74
    0
 49
-3.175
 74
    0
  0
LTYPE
  5
45
330
5
100
AcDbSymbolTableRecord
100
AcDbLinetypeTableRecord
  2
BORDERX2
 70
    0
  3
Border (2x) ____  ____  .  ____  ____  .  ___
 72
   65
 73
    6
 40
88.89999999999999
 49
25.4
 74
    0
 49
-12.7
 74
    0
 49
25.4
 74
    0
 49
-12.7
 74
    0
 49
0
 74
    0
 49
-12.7
 74
    0
  0
LTYPE
  5
46
330
5
100
AcDbSymbolTableRecord
100
AcDbLinetypeTableRecord
  2
CENTER
 70
    0
  3
Center ____ _ ____ _ ____ _ ____ _ ____ _ ____
 72
   65
 73
    4
 40
50.8
 49
31.75
 74
    0
 49
-6.35
 74
    0
 49
6.35
 74
    0
 49
-6.35
 74
    0
  0
LTYPE
  5
47
330
5
100
AcDbSymbolTableRecord
100
AcDbLinetypeTableRecord
  2
CENTERTINY
 70
    0
  3
Center (.15x) ___ _ ___ _ ___ _ ___ _ ___ _ ___
 72
   65
 73
    4
 40
7.62
 49
4.7625
 74
    0
 49
-0.9525
 74
    0
 49
0.9525
 74
    0
 49
-0.9525
 74
    0
  0
LTYPE
  5
48
330
5
100
AcDbSymbolTableRecord
100
AcDbLinetypeTableRecord
  2
CENTER2
 70
    0
  3
Center (.5x) ___ _ ___ _ ___ _ ___ _ ___ _ ___
 72
   65
 73
    4
 40
28.575
 49
19.05
 74
    0
 49
-3.175
 74
    0
 49
3.175
 74
    0
 49
-3.175
 74
    0
  0
LTYPE
  5
49
330
5
100
AcDbSymbolTableRecord
100
AcDbLinetypeTableRecord
  2
CENTERX2
 70
    0
  3
Center (2x) ________  __  ________  __  _____
 72
   65
 73
    4
 40
101.6
 49
63.5
 74
    0
 49
-12.7
 74
    0
 49
12.7
 74
    0
 49
-12.7
 74
    0
  0
ENDTAB
  0
TABLE
  2
LAYER
  5
2
330
0
100
AcDbSymbolTable
 70
    1
  0
LAYER
  5
10
330
2
100
AcDbSymbolTableRecord
100
AcDbLayerTableRecord
  2
0
 70
    0
 62
    7
  6
CONTINUOUS
370
    0
390
F
  0
LAYER
  5
4A
330
2
100
AcDbSymbolTableRecord
100
AcDbLayerTableRecord
  2
Dimensions
 70
    0
 62
    5
  6
CONTINUOUS
370
    0
390
F
  0
ENDTAB
  0
TABLE
  2
STYLE
  5
3
330
0
100
AcDbSymbolTable
 70
    3
  0
STYLE
  5
4B
330
2
100
AcDbSymbolTableRecord
100
AcDbTextStyleTableRecord
  2
STANDARD
 70
    0
 40
0
 41
1
 50
0
 71
    0
 42
1
  3
STANDARD
  4

  0
ENDTAB
  0
TABLE
  2
VIEW
  5
6
330
0
100
AcDbSymbolTable
 70
    0
  0
ENDTAB
  0
TABLE
  2
UCS
  5
7
330
0
100
AcDbSymbolTable
 70
    0
  0
ENDTAB
  0
TABLE
  2
APPID
  5
9
330
0
100
AcDbSymbolTable
 70
    1
  0
APPID
  5
12
330
9
100
AcDbSymbolTableRecord
100
AcDbRegAppTableRecord
  2
ACAD
 70
    0
  0
APPID
  5
4C
330
9
100
AcDbSymbolTableRecord
100
AcDbRegAppTableRecord
  2
LibreCad
 70
    0
  0
ENDTAB
  0
TABLE
  2
DIMSTYLE
  5
A
330
0
100
AcDbSymbolTable
 70
    1
100
AcDbDimStyleTable
 71
    1
  0
DIMSTYLE
105
4D
330
A
100
AcDbSymbolTableRecord
100
AcDbDimStyleTableRecord
  2
Standard
 70
    0
 40
1
 41
1
 42
0.625
 43
0.38
 44
1.25
 45
0
 46
0
 47
0
 48
0
 49
1
140
2.5
141
0.09
142
0
143
25.4
144
1
145
0
146
1
147
0.625
148
0
 71
    0
 72
    0
 73
    0
 74
    1
 75
    0
 76
    0
 77
    0
 78
    1
 79
    0
170
    0
171
    2
172
    0
173
    0
174
    0
175
    0
176
    5
177
    5
178
    5
179
    2
271
    2
272
    4
273
    2
274
    2
275
    0
276
    0
277
    2
278
    0
279
    0
280
    0
281
    0
282
    0
283
    1
284
    0
285
    0
286
    0
288
    0
289
    3
340
standard
341

371
   -2
372
   -2
  0
ENDTAB
  0
TABLE
  2
BLOCK_RECORD
  5
1
330
0
100
AcDbSymbolTable
 70
    2
  0
BLOCK_RECORD
  5
1F
330
1
100
AcDbSymbolTableRecord
100
AcDbBlockTableRecord
  2
*Model_Space
 70
    0
280
    1
281
    0
  0
BLOCK_RECORD
  5
1E
330
1
100
AcDbSymbolTableRecord
100
AcDbBlockTableRecord
  2
*Paper_Space
 70
    0
280
    1
281
    0
  0
BLOCK_RECORD
  5
4E
330
1
100
AcDbSymbolTableRecord
100
AcDbBlockTableRecord
  2
*D14
 70
    0
280
    1
281
    0
  0
BLOCK_RECORD
  5
51
330
1
100
AcDbSymbolTableRecord
100
AcDbBlockTableRecord
  2
*D5
 70
    0
280
    1
281
    0
  0
BLOCK_RECORD
  5
54
330
1
100
AcDbSymbolTableRecord
100
AcDbBlockTableRecord
  2
*D13
 70
    0
280
    1
281
    0
  0
BLOCK_RECORD
  5
57
330
1
100
AcDbSymbolTableRecord
100
AcDbBlockTableRecord
  2
*D22
 70
    0
280
    1
281
    0
  0
BLOCK_RECORD
  5
5A
330
1
100
AcDbSymbolTableRecord
100
AcDbBlockTableRecord
  2
*D20
 70
    0
280
    1
281
    0
  0
BLOCK_RECORD
  5
5D
330
1
100
AcDbSymbolTableRecord
100
AcDbBlockTableRecord
  2
*D7
 70
    0
280
    1
281
    0
  0
BLOCK_RECORD
  5
60
330
1
100
AcDbSymbolTableRecord
100
AcDbBlockTableRecord
  2
*D21
 70
    0
280
    1
281
    0
  0
BLOCK_RECORD
  5
63
330
1
100
AcDbSymbolTableRecord
100
AcDbBlockTableRecord
  2
*D23
 70
    0
280
    1
281
    0
  0
BLOCK_RECORD
  5
66
330
1
100
AcDbSymbolTableRecord
100
AcDbBlockTableRecord
  2
*D1
 70
    0
280
    1
281
    0
  0
BLOCK_RECORD
  5
69
330
1
100
AcDbSymbolTableRecord
100
AcDbBlockTableRecord
  2
*D6
 70
    0
280
    1
281
    0
  0
BLOCK_RECORD
  5
6C
330
1
100
AcDbSymbolTableRecord
100
AcDbBlockTableRecord
  2
*D31
 70
    0
280
    1
281
    0
  0
BLOCK_RECORD
  5
6F
330
1
100
AcDbSymbolTableRecord
100
AcDbBlockTableRecord
  2
*D9
 70
    0
280
    1
281
    0
  0
BLOCK_RECORD
  5
72
330
1
100
AcDbSymbolTableRecord
100
AcDbBlockTableRecord
  2
*D8
 70
    0
280
    1
281
    0
  0
BLOCK_RECORD
  5
75
330
1
100
AcDbSymbolTableRecord
100
AcDbBlockTableRecord
  2
*D12
 70
    0
280
    1
281
    0
  0
BLOCK_RECORD
  5
78
330
1
100
AcDbSymbolTableRecord
100
AcDbBlockTableRecord
  2
*D28
 70
    0
280
    1
281
    0
  0
BLOCK_RECORD
  5
7B
330
1
100
AcDbSymbolTableRecord
100
AcDbBlockTableRecord
  2
*D2
 70
    0
280
    1
281
    0
  0
BLOCK_RECORD
  5
7E
330
1
100
AcDbSymbolTableRecord
100
AcDbBlockTableRecord
  2
*D29
 70
    0
280
    1
281
    0
  0
BLOCK_RECORD
  5
81
330
1
100
AcDbSymbolTableRecord
100
AcDbBlockTableRecord
  2
*D24
 70
    0
280
    1
281
    0
  0
BLOCK_RECORD
  5
84
330
1
100
AcDbSymbolTableRecord
100
AcDbBlockTableRecord
  2
*D27
 70
    0
280
    1
281
    0
  0
BLOCK_RECORD
  5
87
330
1
100
AcDbSymbolTableRecord
100
AcDbBlockTableRecord
  2
*D18
 70
    0
280
    1
281
    0
  0
BLOCK_RECORD
  5
8A
330
1
100
AcDbSymbolTableRecord
100
AcDbBlockTableRecord
  2
*D10
 70
    0
280
    1
281
    0
  0
BLOCK_RECORD
  5
8D
330
1
100
AcDbSymbolTableRecord
100
AcDbBlockTableRecord
  2
*D16
 70
    0
280
    1
281
    0
  0
BLOCK_RECORD
  5
90
330
1
100
AcDbSymbolTableRecord
100
AcDbBlockTableRecord
  2
*D11
 70
    0
280
    1
281
    0
  0
BLOCK_RECORD
  5
93
330
1
100
AcDbSymbolTableRecord
100
AcDbBlockTableRecord
  2
*D17
 70
    0
280
    1
281
    0
  0
BLOCK_RECORD
  5
96
330
1
100
AcDbSymbolTableRecord
100
AcDbBlockTableRecord
  2
*D4
 70
    0
280
    1
281
    0
  0
BLOCK_RECORD
  5
99
330
1
100
AcDbSymbolTableRecord
100
AcDbBlockTableRecord
  2
*D3
 70
    0
280
    1
281
    0
  0
BLOCK_RECORD
  5
9C
330
1
100
AcDbSymbolTableRecord
100
AcDbBlockTableRecord
  2
*D15
 70
    0
280
    1
281
    0
  0
BLOCK_RECORD
  5
9F
330
1
100
AcDbSymbolTableRecord
100
AcDbBlockTableRecord
  2
*D26
 70
    0
280
    1
281
    0
  0
BLOCK_RECORD
  5
A2
330
1
100
AcDbSymbolTableRecord
100
AcDbBlockTableRecord
  2
*D30
 70
    0
280
    1
281
    0
  0
BLOCK_RECORD
  5
A5
330
1
100
AcDbSymbolTableRecord
100
AcDbBlockTableRecord
  2
*D19
 70
    0
280
    1
281
    0
  0
BLOCK_RECORD
  5
A8
330
1
100
AcDbSymbolTableRecord
100
AcDbBlockTableRecord
  2
*D25
 70
    0
280
    1
281
    0
  0
ENDTAB
  0
ENDSEC
  0
SECTION
  2
BLOCKS
  0
BLOCK
  5
20
330
1F
100
AcDbEntity
  8
0
100
AcDbBlockBegin
  2
*Model_Space
 70
    0
 10
0
 20
0
 30
0
  3
*Model_Space
  1

  0
ENDBLK
  5
21
330
1F
100
AcDbEntity
  8
0
100
AcDbBlockEnd
  0
BLOCK
  5
1C
330
1B
100
AcDbEntity
  8
0
100
AcDbBlockBegin
  2
*Paper_Space
 70
    0
 10
0
 20
0
 30
0
  3
*Paper_Space
  1

  0
ENDBLK
  5
1D
330
1F
100
AcDbEntity
  8
0
100
AcDbBlockEnd
  0
BLOCK
  5
4F
330
4E
100
AcDbEntity
  8
0
100
AcDbBlockBegin
  2
*D14
 70
    1
 10
0
 20
0
  3
*D14
  1

  0
LINE
  5
AB
100
AcDbEntity
  8
Dimensions
  6
ByBlock
 62
    5
370
   -2
100
AcDbLine
 10
74.11628332945082
 20
38.06667405284446
 11
76.98371667054917
 21
36.43332594715554
  0
MTEXT
  5
AC
100
AcDbEntity
  8
Dimensions
  6
CONTINUOUS
 62
    5
370
   -2
100
AcDbMText
 10
83.04079227759813
 20
35.14094613288982
 30
0
 40
2.5
 41
10.55555555555587
 71
    5
 72
    1
  1
4-%%C3.3
  7
standard
210
0
220
0
230
1
 50
330.3332847930537
 73
    2
 44
1
  0
SOLID
  5
AD
100
AcDbEntity
  8
Dimensions
  6
ByBlock
 62
    5
370
   -2
100
AcDbTrace
 10
74.11628332945082
 20
38.06667405284446
 30
0
 11
75.06761922156555
 21
37.71640717319152
 31
0
 12
74.90278582588054
 22
37.42703298965563
 32
0
 13
74.90278582588054
 23
37.42703298965563
 33
0
  0
SOLID
  5
AE
100
AcDbEntity
  8
Dimensions
  6
ByBlock
 62
    5
370
   -2
100
AcDbTrace
 10
76.98371667054917
 20
36.43332594715554
 30
0
 11
76.03238077843444
 21
36.78359282680848
 31
0
 12
76.19721417411945
 22
37.07296701034437
 32
0
 13
76.19721417411945
 23
37.07296701034437
 33
0
  0
ENDBLK
  5
50
330
4E
100
AcDbEntity
  8
0
100
AcDbBlockEnd
  0
BLOCK
  5
52
330
51
100
AcDbEntity
  8
0
100
AcDbBlockBegin
  2
*D5
 70
    1
 10
0
 20
0
  3
*D5
  1

  0
LINE
  5
AF
100
AcDbEntity
  8
Dimensions
  6
ByBlock
 62
    5
370
   -2
100
AcDbLine
 10
-8.9
 20
41
 11
-2.77555756156289e-17
 21
41
  0
MTEXT
  5
B0
100
AcDbEntity
  8
Dimensions
  6
CONTINUOUS
 62
    5
370
   -2
100
AcDbMText
 10
-4.45
 20
42.875
 30
0
 40
2.5
 41
5.833333333333334
 71
    5
 72
    1
  1
8.90
  7
standard
210
0
220
0
230
1
 50
0
 73
    2
 44
1
  0
SOLID
  5
B1
100
AcDbEntity
  8
Dimensions
  6
ByBlock
 62
    5
370
   -2
100
AcDbTrace
 10
-8.9
 20
41
 30
0
 11
-7.9
 21
41.16651386310914
 31
0
 12
-7.9
 22
40.83348613689086
 32
0
 13
-7.9
 23
40.83348613689086
 33
0
  0
SOLID
  5
B2
100
AcDbEntity
  8
Dimensions
  6
ByBlock
 62
    5
370
   -2
100
AcDbTrace
 10
-2.77555756156289e-17
 20
41
 30
0
 11
-1
 21
40.83348613689086
 31
0
 12
-1
 22
41.16651386310914
 32
0
 13
-1
 23
41.16651386310914
 33
0
  0
LINE
  5
B3
100
AcDbEntity
  8
Dimensions
  6
ByBlock
 62
    5
370
   -2
100
AcDbLine
 10
-8.9
 20
28.025
 11
-8.9
 21
42.25
  0
LINE
  5
B4
100
AcDbEntity
  8
Dimensions
  6
ByBlock
 62
    5
370
   -2
100
AcDbLine
 10
1.051337294132038e-17
 20
40.925
 11
4.878232149826968e-17
 21
42.25
  0
ENDBLK
  5
53
330
51
100
AcDbEntity
  8
0
100
AcDbBlockEnd
  0
BLOCK
  5
55
330
54
100
AcDbEntity
  8
0
100
AcDbBlockBegin
  2
*D13
 70
    1
 10
0
 20
0
  3
*D13
  1

  0
LINE
  5
B5
100
AcDbEntity
  8
Dimensions
  6
ByBlock
 62
    5
370
   -2
100
AcDbLine
 10
-75.55000000000001
 20
-25
 11
75.55000000000001
 21
-25
  0
MTEXT
  5
B6
100
AcDbEntity
  8
Dimensions
  6
CONTINUOUS
 62
    5
370
   -2
100
AcDbMText
 10
1.148068456708479e-16
 20
-23.125
 30
0
 40
2.5
 41
16.52777777777793
 71
    5
 72
    1
  1
151.1 %%P 0.2
  7
standard
210
0
220
0
230
1
 50
0
 73
    2
 44
1
  0
SOLID
  5
B7
100
AcDbEntity
  8
Dimensions
  6
ByBlock
 62
    5
370
   -2
100
AcDbTrace
 10
-75.55000000000001
 20
-25
 30
0
 11
-74.55000000000001
 21
-24.83348613689087
 31
0
 12
-74.55000000000001
 22
-25.16651386310914
 32
0
 13
-74.55000000000001
 23
-25.16651386310914
 33
0
  0
SOLID
  5
B8
100
AcDbEntity
  8
Dimensions
  6
ByBlock
 62
    5
370
   -2
100
AcDbTrace
 10
75.55000000000001
 20
-25
 30
0
 11
74.55000000000001
 21
-25.16651386310913
 31
0
 12
74.55000000000001
 22
-24.83348613689087
 32
0
 13
74.55000000000001
 23
-24.83348613689087
 33
0
  0
LINE
  5
B9
100
AcDbEntity
  8
Dimensions
  6
ByBlock
 62
    5
370
   -2
100
AcDbLine
 10
-75.55
 20
3.125
 11
-75.55000000000001
 21
-26.25
  0
LINE
  5
BA
100
AcDbEntity
  8
Dimensions
  6
ByBlock
 62
    5
370
   -2
100
AcDbLine
 10
75.55000000000001
 20
3.125
 11
75.55000000000001
 21
-26.25
  0
ENDBLK
  5
56
330
54
100
AcDbEntity
  8
0
100
AcDbBlockEnd
  0
BLOCK
  5
58
330
57
100
AcDbEntity
  8
0
100
AcDbBlockBegin
  2
*D22
 70
    1
 10
0
 20
0
  3
*D22
  1

  0
LINE
  5
BB
100
AcDbEntity
  8
Dimensions
  6
ByBlock
 62
    5
370
   -2
100
AcDbLine
 10
25.4
 20
-15
 11
0
 21
-15
  0
MTEXT
  5
BC
100
AcDbEntity
  8
Dimensions
  6
CONTINUOUS
 62
    5
370
   -2
100
AcDbMText
 10
12.7
 20
-13.125
 30
0
 40
2.5
 41
8.055555555555712
 71
    5
 72
    1
  1
25.40
  7
standard
210
0
220
0
230
1
 50
0
 73
    2
 44
1
  0
SOLID
  5
BD
100
AcDbEntity
  8
Dimensions
  6
ByBlock
 62
    5
370
   -2
100
AcDbTrace
 10
25.4
 20
-15
 30
0
 11
24.4
 21
-15.16651386310913
 31
0
 12
24.4
 22
-14.83348613689086
 32
0
 13
24.4
 23
-14.83348613689086
 33
0
  0
SOLID
  5
BE
100
AcDbEntity
  8
Dimensions
  6
ByBlock
 62
    5
370
   -2
100
AcDbTrace
 10
0
 20
-15
 30
0
 11
1
 21
-14.83348613689086
 31
0
 12
1
 22
-15.16651386310913
 32
0
 13
1
 23
-15.16651386310913
 33
0
  0
LINE
  5
BF
100
AcDbEntity
  8
Dimensions
  6
ByBlock
 62
    5
370
   -2
100
AcDbLine
 10
25.4
 20
11.425
 11
25.4
 21
-16.25
  0
LINE
  5
C0
100
AcDbEntity
  8
Dimensions
  6
ByBlock
 62
    5
370
   -2
100
AcDbLine
 10
-1.148068456708479e-16
 20
-15.625
 11
-2.296136913416957e-16
 21
-16.25
  0
ENDBLK
  5
59
330
57
100
AcDbEntity
  8
0
100
AcDbBlockEnd
  0
BLOCK
  5
5B
330
5A
100
AcDbEntity
  8
0
100
AcDbBlockBegin
  2
*D20
 70
    1
 10
0
 20
0
  3
*D20
  1

  0
LINE
  5
C1
100
AcDbEntity
  8
Dimensions
  6
ByBlock
 62
    5
370
   -2
100
AcDbLine
 10
85
 20
7.1
 11
85
 21
12.1
  0
MTEXT
  5
C2
100
AcDbEntity
  8
Dimensions
  6
CONTINUOUS
 62
    5
370
   -2
100
AcDbMText
 10
83.125
 20
15.64166666666674
 30
0
 40
2.5
 41
5.833333333333488
 71
    5
 72
    1
  1
5.00
  7
standard
210
0
220
0
230
1
 50
90
 73
    2
 44
1
  0
SOLID
  5
C3
100
AcDbEntity
  8
Dimensions
  6
ByBlock
 62
    5
370
   -2
100
AcDbTrace
 10
85
 20
7.1
 30
0
 11
84.83348613689087
 21
8.1
 31
0
 12
85.16651386310913
 22
8.1
 32
0
 13
85.16651386310913
 23
8.1
 33
0
  0
SOLID
  5
C4
100
AcDbEntity
  8
Dimensions
  6
ByBlock
 62
    5
370
   -2
100
AcDbTrace
 10
85
 20
12.1
 30
0
 11
85.16651386310913
 21
11.1
 31
0
 12
84.83348613689087
 22
11.1
 32
0
 13
84.83348613689087
 23
11.1
 33
0
  0
LINE
  5
C5
100
AcDbEntity
  8
Dimensions
  6
ByBlock
 62
    5
370
   -2
100
AcDbLine
 10
68.52500000000001
 20
7.1
 11
86.25
 21
7.1
  0
LINE
  5
C6
100
AcDbEntity
  8
Dimensions
  6
ByBlock
 62
    5
370
   -2
100
AcDbLine
 10
68.52500000000001
 20
12.1
 11
86.25
 21
12.1
  0
ENDBLK
  5
5C
330
5A
100
AcDbEntity
  8
0
100
AcDbBlockEnd
  0
BLOCK
  5
5E
330
5D
100
AcDbEntity
  8
0
100
AcDbBlockBegin
  2
*D7
 70
    1
 10
0
 20
0
  3
*D7
  1

  0
LINE
  5
C7
100
AcDbEntity
  8
Dimensions
  6
ByBlock
 62
    5
370
   -2
100
AcDbLine
 10
15
 20
28.45
 11
15
 21
10.65
  0
MTEXT
  5
C8
100
AcDbEntity
  8
Dimensions
  6
CONTINUOUS
 62
    5
370
   -2
100
AcDbMText
 10
13.125
 20
19.55
 30
0
 40
2.5
 41
7.222222222222222
 71
    5
 72
    1
  1
17.80
  7
standard
210
0
220
0
230
1
 50
90
 73
    2
 44
1
  0
SOLID
  5
C9
100
AcDbEntity
  8
Dimensions
  6
ByBlock
 62
    5
370
   -2
100
AcDbTrace
 10
15
 20
28.45
 30
0
 11
15.16651386310914
 21
27.45
 31
0
 12
14.83348613689087
 22
27.45
 32
0
 13
14.83348613689087
 23
27.45
 33
0
  0
SOLID
  5
CA
100
AcDbEntity
  8
Dimensions
  6
ByBlock
 62
    5
370
   -2
100
AcDbTrace
 10
15
 20
10.65
 30
0
 11
14.83348613689086
 21
11.65
 31
0
 12
15.16651386310914
 22
11.65
 32
0
 13
15.16651386310914
 23
11.65
 33
0
  0
LINE
  5
CB
100
AcDbEntity
  8
Dimensions
  6
ByBlock
 62
    5
370
   -2
100
AcDbLine
 10
8.525
 20
28.45
 11
16.25
 21
28.45
  0
LINE
  5
CC
100
AcDbEntity
  8
Dimensions
  6
ByBlock
 62
    5
370
   -2
100
AcDbLine
 10
8.525
 20
10.65
 11
16.25
 21
10.65
  0
ENDBLK
  5
5F
330
5D
100
AcDbEntity
  8
0
100
AcDbBlockEnd
  0
BLOCK
  5
61
330
60
100
AcDbEntity
  8
0
100
AcDbBlockBegin
  2
*D21
 70
    1
 10
0
 20
0
  3
*D21
  1

  0
LINE
  5
CD
100
AcDbEntity
  8
Dimensions
  6
ByBlock
 62
    5
370
   -2
100
AcDbLine
 10
85
 20
7.100000000000001
 11
85
 21
0
  0
MTEXT
  5
CE
100
AcDbEntity
  8
Dimensions
  6
CONTINUOUS
 62
    5
370
   -2
100
AcDbMText
 10
83.125
 20
3.550000000000001
 30
0
 40
2.5
 41
5.277777777777779
 71
    5
 72
    1
  1
7.10
  7
standard
210
0
220
0
230
1
 50
90
 73
    2
 44
1
  0
SOLID
  5
CF
100
AcDbEntity
  8
Dimensions
  6
ByBlock
 62
    5
370
   -2
100
AcDbTrace
 10
85
 20
7.100000000000001
 30
0
 11
85.16651386310913
 21
6.100000000000001
 31
0
 12
84.83348613689087
 22
6.100000000000001
 32
0
 13
84.83348613689087
 23
6.100000000000001
 33
0
  0
SOLID
  5
D0
100
AcDbEntity
  8
Dimensions
  6
ByBlock
 62
    5
370
   -2
100
AcDbTrace
 10
85
 20
0
 30
0
 11
84.83348613689087
 21
1
 31
0
 12
85.16651386310913
 22
1
 32
0
 13
85.16651386310913
 23
1
 33
0
  0
LINE
  5
D1
100
AcDbEntity
  8
Dimensions
  6
ByBlock
 62
    5
370
   -2
100
AcDbLine
 10
68.52500000000001
 20
7.100000000000001
 11
86.25
 21
7.100000000000001
  0
LINE
  5
D2
100
AcDbEntity
  8
Dimensions
  6
ByBlock
 62
    5
370
   -2
100
AcDbLine
 10
76.175
 20
0
 11
86.25
 21
0
  0
ENDBLK
  5
62
330
60
100
AcDbEntity
  8
0
100
AcDbBlockEnd
  0
BLOCK
  5
64
330
63
100
AcDbEntity
  8
0
100
AcDbBlockBegin
  2
*D23
 70
    1
 10
0
 20
0
  3
*D23
  1

  0
LINE
  5
D3
100
AcDbEntity
  8
Dimensions
  6
ByBlock
 62
    5
370
   -2
100
AcDbLine
 10
25.4
 20
-15
 11
50.8
 21
-15
  0
MTEXT
  5
D4
100
AcDbEntity
  8
Dimensions
  6
CONTINUOUS
 62
    5
370
   -2
100
AcDbMText
 10
38.1
 20
-13.125
 30
0
 40
2.5
 41
8.055555555555712
 71
    5
 72
    1
  1
25.40
  7
standard
210
0
220
0
230
1
 50
0
 73
    2
 44
1
  0
SOLID
  5
D5
100
AcDbEntity
  8
Dimensions
  6
ByBlock
 62
    5
370
   -2
100
AcDbTrace
 10
25.4
 20
-15
 30
0
 11
26.4
 21
-14.83348613689086
 31
0
 12
26.4
 22
-15.16651386310914
 32
0
 13
26.4
 23
-15.16651386310914
 33
0
  0
SOLID
  5
D6
100
AcDbEntity
  8
Dimensions
  6
ByBlock
 62
    5
370
   -2
100
AcDbTrace
 10
50.8
 20
-15
 30
0
 11
49.8
 21
-15.16651386310914
 31
0
 12
49.8
 22
-14.83348613689086
 32
0
 13
49.8
 23
-14.83348613689086
 33
0
  0
LINE
  5
D7
100
AcDbEntity
  8
Dimensions
  6
ByBlock
 62
    5
370
   -2
100
AcDbLine
 10
25.4
 20
11.425
 11
25.4
 21
-16.25
  0
LINE
  5
D8
100
AcDbEntity
  8
Dimensions
  6
ByBlock
 62
    5
370
   -2
100
AcDbLine
 10
50.8
 20
11.425
 11
50.8
 21
-16.25
  0
ENDBLK
  5
65
330
63
100
AcDbEntity
  8
0
100
AcDbBlockEnd
  0
BLOCK
  5
67
330
66
100
AcDbEntity
  8
0
100
AcDbBlockBegin
  2
*D1
 70
    1
 10
0
 20
0
  3
*D1
  1

  0
LINE
  5
D9
100
AcDbEntity
  8
Dimensions
  6
ByBlock
 62
    5
370
   -2
100
AcDbLine
 10
79.30000000000003
 20
-35
 11
-79.3
 21
-35
  0
MTEXT
  5
DA
100
AcDbEntity
  8
Dimensions
  6
CONTINUOUS
 62
    5
370
   -2
100
AcDbMText
 10
1.432566156087285e-14
 20
-33.125
 30
0
 40
2.5
 41
9.166666666666977
 71
    5
 72
    1
  1
158.60
  7
standard
210
0
220
0
230
1
 50
0
 73
    2
 44
1
  0
SOLID
  5
DB
100
AcDbEntity
  8
Dimensions
  6
ByBlock
 62
    5
370
   -2
100
AcDbTrace
 10
79.30000000000003
 20
-35
 30
0
 11
78.30000000000003
 21
-35.16651386310914
 31
0
 12
78.30000000000003
 22
-34.83348613689086
 32
0
 13
78.30000000000003
 23
-34.83348613689086
 33
0
  0
SOLID
  5
DC
100
AcDbEntity
  8
Dimensions
  6
ByBlock
 62
    5
370
   -2
100
AcDbTrace
 10
-79.3
 20
-35
 30
0
 11
-78.3
 21
-34.83348613689086
 31
0
 12
-78.3
 22
-35.16651386310914
 32
0
 13
-78.3
 23
-35.16651386310914
 33
0
  0
LINE
  5
DD
100
AcDbEntity
  8
Dimensions
  6
ByBlock
 62
    5
370
   -2
100
AcDbLine
 10
79.30000000000001
 20
2.875
 11
79.30000000000003
 21
-36.25
  0
LINE
  5
DE
100
AcDbEntity
  8
Dimensions
  6
ByBlock
 62
    5
370
   -2
100
AcDbLine
 10
-79.3
 20
2.875
 11
-79.3
 21
-36.25
  0
ENDBLK
  5
68
330
66
100
AcDbEntity
  8
0
100
AcDbBlockEnd
  0
BLOCK
  5
6A
330
69
100
AcDbEntity
  8
0
100
AcDbBlockBegin
  2
*D6
 70
    1
 10
0
 20
0
  3
*D6
  1

  0
LINE
  5
DF
100
AcDbEntity
  8
Dimensions
  6
ByBlock
 62
    5
370
   -2
100
AcDbLine
 10
8.9
 20
41
 11
-1.387778780781446e-17
 21
41
  0
MTEXT
  5
E0
100
AcDbEntity
  8
Dimensions
  6
CONTINUOUS
 62
    5
370
   -2
100
AcDbMText
 10
4.45
 20
42.875
 30
0
 40
2.5
 41
5.833333333333334
 71
    5
 72
    1
  1
8.90
  7
standard
210
0
220
0
230
1
 50
0
 73
    2
 44
1
  0
SOLID
  5
E1
100
AcDbEntity
  8
Dimensions
  6
ByBlock
 62
    5
370
   -2
100
AcDbTrace
 10
8.9
 20
41
 30
0
 11
7.9
 21
40.83348613689086
 31
0
 12
7.9
 22
41.16651386310914
 32
0
 13
7.9
 23
41.16651386310914
 33
0
  0
SOLID
  5
E2
100
AcDbEntity
  8
Dimensions
  6
ByBlock
 62
    5
370
   -2
100
AcDbTrace
 10
-1.387778780781446e-17
 20
41
 30
0
 11
1
 21
41.16651386310914
 31
0
 12
1
 22
40.83348613689086
 32
0
 13
1
 23
40.83348613689086
 33
0
  0
LINE
  5
E3
100
AcDbEntity
  8
Dimensions
  6
ByBlock
 62
    5
370
   -2
100
AcDbLine
 10
8.9
 20
28.025
 11
8.9
 21
42.25
  0
LINE
  5
E4
100
AcDbEntity
  8
Dimensions
  6
ByBlock
 62
    5
370
   -2
100
AcDbLine
 10
2.439116074913483e-17
 20
40.925
 11
6.266010930608412e-17
 21
42.25
  0
ENDBLK
  5
6B
330
69
100
AcDbEntity
  8
0
100
AcDbBlockEnd
  0
BLOCK
  5
6D
330
6C
100
AcDbEntity
  8
0
100
AcDbBlockBegin
  2
*D31
 70
    1
 10
0
 20
0
  3
*D31
  1

  0
LINE
  5
E5
100
AcDbEntity
  8
Dimensions
  6
ByBlock
 62
    5
370
   -2
100
AcDbLine
 10
-81
 20
3.75
 11
-81
 21
0
  0
MTEXT
  5
E6
100
AcDbEntity
  8
Dimensions
  6
CONTINUOUS
 62
    5
370
   -2
100
AcDbMText
 10
-82.875
 20
7.291666666666822
 30
0
 40
2.5
 41
5.833333333333643
 71
    5
 72
    1
  1
3.75
  7
standard
210
0
220
0
230
1
 50
90
 73
    2
 44
1
  0
SOLID
  5
E7
100
AcDbEntity
  8
Dimensions
  6
ByBlock
 62
    5
370
   -2
100
AcDbTrace
 10
-81
 20
3.75
 30
0
 11
-80.83348613689087
 21
2.75
 31
0
 12
-81.16651386310913
 22
2.75
 32
0
 13
-81.16651386310913
 23
2.75
 33
0
  0
SOLID
  5
E8
100
AcDbEntity
  8
Dimensions
  6
ByBlock
 62
    5
370
   -2
100
AcDbTrace
 10
-81
 20
0
 30
0
 11
-81.16651386310913
 21
1
 31
0
 12
-80.83348613689087
 22
1
 32
0
 13
-80.83348613689087
 23
1
 33
0
  0
LINE
  5
E9
100
AcDbEntity
  8
Dimensions
  6
ByBlock
 62
    5
370
   -2
100
AcDbLine
 10
-76.175
 20
3.75
 11
-82.25
 21
3.75
  0
LINE
  5
EA
100
AcDbEntity
  8
Dimensions
  6
ByBlock
 62
    5
370
   -2
100
AcDbLine
 10
-76.175
 20
7.653789711389858e-17
 11
-82.25
 21
1.530757942277972e-16
  0
ENDBLK
  5
6E
330
6C
100
AcDbEntity
  8
0
100
AcDbBlockEnd
  0
BLOCK
  5
70
330
6F
100
AcDbEntity
  8
0
100
AcDbBlockBegin
  2
*D9
 70
    1
 10
0
 20
0
  3
*D9
  1

  0
LINE
  5
EB
100
AcDbEntity
  8
Dimensions
  6
ByBlock
 62
    5
370
   -2
100
AcDbLine
 10
32.7
 20
-5
 11
43.50000000000001
 21
-5
  0
MTEXT
  5
EC
100
AcDbEntity
  8
Dimensions
  6
CONTINUOUS
 62
    5
370
   -2
100
AcDbMText
 10
38.10000000000001
 20
-3.125
 30
0
 40
2.5
 41
7.222222222222222
 71
    5
 72
    1
  1
10.80
  7
standard
210
0
220
0
230
1
 50
0
 73
    2
 44
1
  0
SOLID
  5
ED
100
AcDbEntity
  8
Dimensions
  6
ByBlock
 62
    5
370
   -2
100
AcDbTrace
 10
32.7
 20
-5
 30
0
 11
33.7
 21
-4.833486136890864
 31
0
 12
33.7
 22
-5.166513863109136
 32
0
 13
33.7
 23
-5.166513863109136
 33
0
  0
SOLID
  5
EE
100
AcDbEntity
  8
Dimensions
  6
ByBlock
 62
    5
370
   -2
100
AcDbTrace
 10
43.50000000000001
 20
-5
 30
0
 11
42.50000000000001
 21
-5.166513863109136
 31
0
 12
42.50000000000001
 22
-4.833486136890864
 32
0
 13
42.50000000000001
 23
-4.833486136890864
 33
0
  0
LINE
  5
EF
100
AcDbEntity
  8
Dimensions
  6
ByBlock
 62
    5
370
   -2
100
AcDbLine
 10
32.7
 20
8.725
 11
32.7
 21
-6.25
  0
LINE
  5
F0
100
AcDbEntity
  8
Dimensions
  6
ByBlock
 62
    5
370
   -2
100
AcDbLine
 10
43.50000000000001
 20
8.725
 11
43.50000000000001
 21
-6.25
  0
ENDBLK
  5
71
330
6F
100
AcDbEntity
  8
0
100
AcDbBlockEnd
  0
BLOCK
  5
73
330
72
100
AcDbEntity
  8
0
100
AcDbBlockBegin
  2
*D8
 70
    1
 10
0
 20
0
  3
*D8
  1

  0
LINE
  5
F1
100
AcDbEntity
  8
Dimensions
  6
ByBlock
 62
    5
370
   -2
100
AcDbLine
 10
15
 20
10.65
 11
15
 21
-7.993605777301126e-16
  0
MTEXT
  5
F2
100
AcDbEntity
  8
Dimensions
  6
CONTINUOUS
 62
    5
370
   -2
100
AcDbMText
 10
13.125
 20
5.325
 30
0
 40
2.5
 41
7.222222222222532
 71
    5
 72
    1
  1
10.65
  7
standard
210
0
220
0
230
1
 50
90
 73
    2
 44
1
  0
SOLID
  5
F3
100
AcDbEntity
  8
Dimensions
  6
ByBlock
 62
    5
370
   -2
100
AcDbTrace
 10
15
 20
10.65
 30
0
 11
15.16651386310914
 21
9.65
 31
0
 12
14.83348613689086
 22
9.65
 32
0
 13
14.83348613689086
 23
9.65
 33
0
  0
SOLID
  5
F4
100
AcDbEntity
  8
Dimensions
  6
ByBlock
 62
    5
370
   -2
100
AcDbTrace
 10
15
 20
-7.993605777301126e-16
 30
0
 11
14.83348613689086
 21
0.9999999999999992
 31
0
 12
15.16651386310914
 22
0.9999999999999992
 32
0
 13
15.16651386310914
 23
0.9999999999999992
 33
0
  0
LINE
  5
F5
100
AcDbEntity
  8
Dimensions
  6
ByBlock
 62
    5
370
   -2
100
AcDbLine
 10
8.525
 20
10.65
 11
16.25
 21
10.65
  0
LINE
  5
F6
100
AcDbEntity
  8
Dimensions
  6
ByBlock
 62
    5
370
   -2
100
AcDbLine
 10
0.625
 20
0
 11
16.25
 21
-7.993605777301126e-16
  0
ENDBLK
  5
74
330
72
100
AcDbEntity
  8
0
100
AcDbBlockEnd
  0
BLOCK
  5
76
330
75
100
AcDbEntity
  8
0
100
AcDbBlockBegin
  2
*D12
 70
    1
 10
0
 20
0
  3
*D12
  1

  0
LINE
  5
F7
100
AcDbEntity
  8
Dimensions
  6
ByBlock
 62
    5
370
   -2
100
AcDbLine
 10
-85
 20
3.75
 11
-85
 21
37.25
  0
MTEXT
  5
F8
100
AcDbEntity
  8
Dimensions
  6
CONTINUOUS
 62
    5
370
   -2
100
AcDbMText
 10
-86.875
 20
20.5
 30
0
 40
2.5
 41
15.69444444444491
 71
    5
 72
    1
  1
33.5 %%P 0.1
  7
standard
210
0
220
0
230
1
 50
90
 73
    2
 44
1
  0
SOLID
  5
F9
100
AcDbEntity
  8
Dimensions
  6
ByBlock
 62
    5
370
   -2
100
AcDbTrace
 10
-85
 20
3.75
 30
0
 11
-85.16651386310913
 21
4.75
 31
0
 12
-84.83348613689087
 22
4.75
 32
0
 13
-84.83348613689087
 23
4.75
 33
0
  0
SOLID
  5
FA
100
AcDbEntity
  8
Dimensions
  6
ByBlock
 62
    5
370
   -2
100
AcDbTrace
 10
-85
 20
37.25
 30
0
 11
-84.83348613689087
 21
36.25
 31
0
 12
-85.16651386310913
 22
36.25
 32
0
 13
-85.16651386310913
 23
36.25
 33
0
  0
LINE
  5
FB
100
AcDbEntity
  8
Dimensions
  6
ByBlock
 62
    5
370
   -2
100
AcDbLine
 10
-76.175
 20
3.75
 11
-86.25
 21
3.75
  0
LINE
  5
FC
100
AcDbEntity
  8
Dimensions
  6
ByBlock
 62
    5
370
   -2
100
AcDbLine
 10
-76.175
 20
37.25
 11
-86.25
 21
37.25
  0
ENDBLK
  5
77
330
75
100
AcDbEntity
  8
0
100
AcDbBlockEnd
  0
BLOCK
  5
79
330
78
100
AcDbEntity
  8
0
100
AcDbBlockBegin
  2
*D28
 70
    1
 10
0
 20
0
  3
*D28
  1

  0
LINE
  5
FD
100
AcDbEntity
  8
Dimensions
  6
ByBlock
 62
    5
370
   -2
100
AcDbLine
 10
-25
 20
7.000000000000001
 11
-25
 21
-4.263256414560601e-16
  0
MTEXT
  5
FE
100
AcDbEntity
  8
Dimensions
  6
CONTINUOUS
 62
    5
370
   -2
100
AcDbMText
 10
-26.875
 20
3.500000000000001
 30
0
 40
2.5
 41
5.833333333333334
 71
    5
 72
    1
  1
7.00
  7
standard
210
0
220
0
230
1
 50
90
 73
    2
 44
1
  0
SOLID
  5
FF
100
AcDbEntity
  8
Dimensions
  6
ByBlock
 62
    5
370
   -2
100
AcDbTrace
 10
-25
 20
7.000000000000001
 30
0
 11
-24.83348613689087
 21
6.000000000000001
 31
0
 12
-25.16651386310913
 22
6.000000000000001
 32
0
 13
-25.16651386310913
 23
6.000000000000001
 33
0
  0
SOLID
  5
100
100
AcDbEntity
  8
Dimensions
  6
ByBlock
 62
    5
370
   -2
100
AcDbTrace
 10
-25
 20
-4.263256414560601e-16
 30
0
 11
-25.16651386310913
 21
0.9999999999999996
 31
0
 12
-24.83348613689086
 22
0.9999999999999996
 32
0
 13
-24.83348613689086
 23
0.9999999999999996
 33
0
  0
LINE
  5
101
100
AcDbEntity
  8
Dimensions
  6
ByBlock
 62
    5
370
   -2
100
AcDbLine
 10
-30.375
 20
7.000000000000001
 11
-23.75
 21
7.000000000000001
  0
LINE
  5
102
100
AcDbEntity
  8
Dimensions
  6
ByBlock
 62
    5
370
   -2
100
AcDbLine
 10
-30.375
 20
0
 11
-23.75
 21
-4.263256414560601e-16
  0
ENDBLK
  5
7A
330
78
100
AcDbEntity
  8
0
100
AcDbBlockEnd
  0
BLOCK
  5
7C
330
7B
100
AcDbEntity
  8
0
100
AcDbBlockBegin
  2
*D2
 70
    1
 10
0
 20
0
  3
*D2
  1

  0
LINE
  5
103
100
AcDbEntity
  8
Dimensions
  6
ByBlock
 62
    5
370
   -2
100
AcDbLine
 10
-63.5
 20
-15
 11
0
 21
-15
  0
MTEXT
  5
104
100
AcDbEntity
  8
Dimensions
  6
CONTINUOUS
 62
    5
370
   -2
100
AcDbMText
 10
-31.75
 20
-13.125
 30
0
 40
2.5
 41
7.777777777778243
 71
    5
 72
    1
  1
63.50
  7
standard
210
0
220
0
230
1
 50
0
 73
    2
 44
1
  0
SOLID
  5
105
100
AcDbEntity
  8
Dimensions
  6
ByBlock
 62
    5
370
   -2
100
AcDbTrace
 10
-63.5
 20
-15
 30
0
 11
-62.5
 21
-14.83348613689086
 31
0
 12
-62.5
 22
-15.16651386310914
 32
0
 13
-62.5
 23
-15.16651386310914
 33
0
  0
SOLID
  5
106
100
AcDbEntity
  8
Dimensions
  6
ByBlock
 62
    5
370
   -2
100
AcDbTrace
 10
0
 20
-15
 30
0
 11
-1
 21
-15.16651386310914
 31
0
 12
-1
 22
-14.83348613689086
 32
0
 13
-1
 23
-14.83348613689086
 33
0
  0
LINE
  5
107
100
AcDbEntity
  8
Dimensions
  6
ByBlock
 62
    5
370
   -2
100
AcDbLine
 10
-63.5
 20
8.125
 11
-63.5
 21
-16.25
  0
LINE
  5
108
100
AcDbEntity
  8
Dimensions
  6
ByBlock
 62
    5
370
   -2
100
AcDbLine
 10
-1.148068456708479e-16
 20
-0.625
 11
-2.296136913416957e-16
 21
-16.25
  0
ENDBLK
  5
7D
330
7B
100
AcDbEntity
  8
0
100
AcDbBlockEnd
  0
BLOCK
  5
7F
330
7E
100
AcDbEntity
  8
0
100
AcDbBlockBegin
  2
*D29
 70
    1
 10
0
 20
0
  3
*D29
  1

  0
LINE
  5
109
100
AcDbEntity
  8
Dimensions
  6
ByBlock
 62
    5
370
   -2
100
AcDbLine
 10
-25
 20
7
 11
-25
 21
10.9
  0
MTEXT
  5
10A
100
AcDbEntity
  8
Dimensions
  6
CONTINUOUS
 62
    5
370
   -2
100
AcDbMText
 10
-26.875
 20
14.44166666666674
 30
0
 40
2.5
 41
5.833333333333488
 71
    5
 72
    1
  1
3.90
  7
standard
210
0
220
0
230
1
 50
90
 73
    2
 44
1
  0
SOLID
  5
10B
100
AcDbEntity
  8
Dimensions
  6
ByBlock
 62
    5
370
   -2
100
AcDbTrace
 10
-25
 20
7
 30
0
 11
-25.16651386310913
 21
8
 31
0
 12
-24.83348613689086
 22
8
 32
0
 13
-24.83348613689086
 23
8
 33
0
  0
SOLID
  5
10C
100
AcDbEntity
  8
Dimensions
  6
ByBlock
 62
    5
370
   -2
100
AcDbTrace
 10
-25
 20
10.9
 30
0
 11
-24.83348613689087
 21
9.9
 31
0
 12
-25.16651386310913
 22
9.9
 32
0
 13
-25.16651386310913
 23
9.9
 33
0
  0
LINE
  5
10D
100
AcDbEntity
  8
Dimensions
  6
ByBlock
 62
    5
370
   -2
100
AcDbLine
 10
-30.375
 20
7
 11
-23.75
 21
7
  0
LINE
  5
10E
100
AcDbEntity
  8
Dimensions
  6
ByBlock
 62
    5
370
   -2
100
AcDbLine
 10
-30.375
 20
10.9
 11
-23.75
 21
10.9
  0
ENDBLK
  5
80
330
7E
100
AcDbEntity
  8
0
100
AcDbBlockEnd
  0
BLOCK
  5
82
330
81
100
AcDbEntity
  8
0
100
AcDbBlockBegin
  2
*D24
 70
    1
 10
0
 20
0
  3
*D24
  1

  0
LINE
  5
10F
100
AcDbEntity
  8
Dimensions
  6
ByBlock
 62
    5
370
   -2
100
AcDbLine
 10
48.99970582265338
 20
10.7855076611494
 11
52.60029417734662
 21
13.3144923388506
  0
MTEXT
  5
110
100
AcDbEntity
  8
Dimensions
  6
CONTINUOUS
 62
    5
370
   -2
100
AcDbMText
 10
56.46659153467584
 20
18.32139815540239
 30
0
 40
2.5
 41
10.83333333333333
 71
    5
 72
    1
  1
2-%%C4.4
  7
standard
210
0
220
0
230
1
 50
35.08347387909267
 73
    2
 44
1
  0
SOLID
  5
111
100
AcDbEntity
  8
Dimensions
  6
ByBlock
 62
    5
370
   -2
100
AcDbTrace
 10
48.99970582265338
 20
10.7855076611494
 30
0
 11
49.72231431044096
 21
11.4965377870828
 31
0
 12
49.91372840518089
 22
11.22401602508019
 32
0
 13
49.91372840518089
 23
11.22401602508019
 33
0
  0
SOLID
  5
112
100
AcDbEntity
  8
Dimensions
  6
ByBlock
 62
    5
370
   -2
100
AcDbTrace
 10
52.60029417734662
 20
13.3144923388506
 30
0
 11
51.87768568955903
 21
12.60346221291721
 31
0
 12
51.6862715948191
 22
12.87598397491981
 32
0
 13
51.6862715948191
 23
12.87598397491981
 33
0
  0
ENDBLK
  5
83
330
81
100
AcDbEntity
  8
0
100
AcDbBlockEnd
  0
BLOCK
  5
85
330
84
100
AcDbEntity
  8
0
100
AcDbBlockBegin
  2
*D27
 70
    1
 10
0
 20
0
  3
*D27
  1

  0
LINE
  5
113
100
AcDbEntity
  8
Dimensions
  6
ByBlock
 62
    5
370
   -2
100
AcDbLine
 10
-29.74999999999999
 20
-10
 11
-46.45
 21
-10
  0
MTEXT
  5
114
100
AcDbEntity
  8
Dimensions
  6
CONTINUOUS
 62
    5
370
   -2
100
AcDbMText
 10
-38.09999999999999
 20
-8.125
 30
0
 40
2.5
 41
7.222222222222378
 71
    5
 72
    1
  1
16.70
  7
standard
210
0
220
0
230
1
 50
0
 73
    2
 44
1
  0
SOLID
  5
115
100
AcDbEntity
  8
Dimensions
  6
ByBlock
 62
    5
370
   -2
100
AcDbTrace
 10
-29.74999999999999
 20
-10
 30
0
 11
-30.74999999999999
 21
-10.16651386310914
 31
0
 12
-30.74999999999999
 22
-9.833486136890864
 32
0
 13
-30.74999999999999
 23
-9.833486136890864
 33
0
  0
SOLID
  5
116
100
AcDbEntity
  8
Dimensions
  6
ByBlock
 62
    5
370
   -2
100
AcDbTrace
 10
-46.45
 20
-10
 30
0
 11
-45.45
 21
-9.833486136890864
 31
0
 12
-45.45
 22
-10.16651386310914
 32
0
 13
-45.45
 23
-10.16651386310914
 33
0
  0
LINE
  5
117
100
AcDbEntity
  8
Dimensions
  6
ByBlock
 62
    5
370
   -2
100
AcDbLine
 10
-29.74999999999999
 20
7.375
 11
-29.74999999999999
 21
-11.25
  0
LINE
  5
118
100
AcDbEntity
  8
Dimensions
  6
ByBlock
 62
    5
370
   -2
100
AcDbLine
 10
-46.45
 20
7.375
 11
-46.45
 21
-11.25
  0
ENDBLK
  5
86
330
84
100
AcDbEntity
  8
0
100
AcDbBlockEnd
  0
BLOCK
  5
88
330
87
100
AcDbEntity
  8
0
100
AcDbBlockBegin
  2
*D18
 70
    1
 10
0
 20
0
  3
*D18
  1

  0
LINE
  5
119
100
AcDbEntity
  8
Dimensions
  6
ByBlock
 62
    5
370
   -2
100
AcDbLine
 10
-63.5
 20
8
 11
-63.5
 21
14
  0
MTEXT
  5
11A
100
AcDbEntity
  8
Dimensions
  6
CONTINUOUS
 62
    5
370
   -2
100
AcDbMText
 10
-65.375
 20
11
 30
0
 40
2.5
 41
5.833333333333488
 71
    5
 72
    1
  1
6.00
  7
standard
210
0
220
0
230
1
 50
90
 73
    2
 44
1
  0
SOLID
  5
11B
100
AcDbEntity
  8
Dimensions
  6
ByBlock
 62
    5
370
   -2
100
AcDbTrace
 10
-63.5
 20
8
 30
0
 11
-63.66651386310914
 21
9
 31
0
 12
-63.33348613689086
 22
9
 32
0
 13
-63.33348613689086
 23
9
 33
0
  0
SOLID
  5
11C
100
AcDbEntity
  8
Dimensions
  6
ByBlock
 62
    5
370
   -2
100
AcDbTrace
 10
-63.5
 20
14
 30
0
 11
-63.33348613689086
 21
13
 31
0
 12
-63.66651386310914
 22
13
 32
0
 13
-63.66651386310914
 23
13
 33
0
  0
ENDBLK
  5
89
330
87
100
AcDbEntity
  8
0
100
AcDbBlockEnd
  0
BLOCK
  5
8B
330
8A
100
AcDbEntity
  8
0
100
AcDbBlockBegin
  2
*D10
 70
    1
 10
0
 20
0
  3
*D10
  1

  0
LINE
  5
11D
100
AcDbEntity
  8
Dimensions
  6
ByBlock
 62
    5
370
   -2
100
AcDbLine
 10
0
 20
-5.000000000000002
 11
32.7
 21
-5.000000000000002
  0
MTEXT
  5
11E
100
AcDbEntity
  8
Dimensions
  6
CONTINUOUS
 62
    5
370
   -2
100
AcDbMText
 10
16.35
 20
-3.125000000000002
 30
0
 40
2.5
 41
7.777777777777933
 71
    5
 72
    1
  1
32.70
  7
standard
210
0
220
0
230
1
 50
0
 73
    2
 44
1
  0
SOLID
  5
11F
100
AcDbEntity
  8
Dimensions
  6
ByBlock
 62
    5
370
   -2
100
AcDbTrace
 10
0
 20
-5.000000000000002
 30
0
 11
1
 21
-4.833486136890865
 31
0
 12
1
 22
-5.166513863109138
 32
0
 13
1
 23
-5.166513863109138
 33
0
  0
SOLID
  5
120
100
AcDbEntity
  8
Dimensions
  6
ByBlock
 62
    5
370
   -2
100
AcDbTrace
 10
32.7
 20
-5.000000000000002
 30
0
 11
31.7
 21
-5.166513863109138
 31
0
 12
31.7
 22
-4.833486136890865
 32
0
 13
31.7
 23
-4.833486136890865
 33
0
  0
LINE
  5
121
100
AcDbEntity
  8
Dimensions
  6
ByBlock
 62
    5
370
   -2
100
AcDbLine
 10
-1.980735725177346e-16
 20
-0.625
 11
-2.296136913416957e-16
 21
-6.250000000000002
  0
LINE
  5
122
100
AcDbEntity
  8
Dimensions
  6
ByBlock
 62
    5
370
   -2
100
AcDbLine
 10
32.7
 20
8.725000000000001
 11
32.7
 21
-6.250000000000002
  0
ENDBLK
  5
8C
330
8A
100
AcDbEntity
  8
0
100
AcDbBlockEnd
  0
BLOCK
  5
8E
330
8D
100
AcDbEntity
  8
0
100
AcDbBlockBegin
  2
*D16
 70
    1
 10
0
 20
0
  3
*D16
  1

  0
LINE
  5
123
100
AcDbEntity
  8
Dimensions
  6
ByBlock
 62
    5
370
   -2
100
AcDbLine
 10
-75.55
 20
50
 11
75.55
 21
50
  0
MTEXT
  5
124
100
AcDbEntity
  8
Dimensions
  6
CONTINUOUS
 62
    5
370
   -2
100
AcDbMText
 10
1.148068456708479e-16
 20
51.875
 30
0
 40
2.5
 41
16.52777777777793
 71
    5
 72
    1
  1
151.1 %%P 0.2
  7
standard
210
0
220
0
230
1
 50
0
 73
    2
 44
1
  0
SOLID
  5
125
100
AcDbEntity
  8
Dimensions
  6
ByBlock
 62
    5
370
   -2
100
AcDbTrace
 10
-75.55
 20
50
 30
0
 11
-74.55
 21
50.16651386310914
 31
0
 12
-74.55
 22
49.83348613689086
 32
0
 13
-74.55
 23
49.83348613689086
 33
0
  0
SOLID
  5
126
100
AcDbEntity
  8
Dimensions
  6
ByBlock
 62
    5
370
   -2
100
AcDbTrace
 10
75.55
 20
50
 30
0
 11
74.55
 21
49.83348613689086
 31
0
 12
74.55
 22
50.16651386310914
 32
0
 13
74.55
 23
50.16651386310914
 33
0
  0
LINE
  5
127
100
AcDbEntity
  8
Dimensions
  6
ByBlock
 62
    5
370
   -2
100
AcDbLine
 10
-75.55
 20
37.875
 11
-75.55
 21
51.25
  0
LINE
  5
128
100
AcDbEntity
  8
Dimensions
  6
ByBlock
 62
    5
370
   -2
100
AcDbLine
 10
75.55
 20
37.875
 11
75.55
 21
51.25
  0
ENDBLK
  5
8F
330
8D
100
AcDbEntity
  8
0
100
AcDbBlockEnd
  0
BLOCK
  5
91
330
90
100
AcDbEntity
  8
0
100
AcDbBlockBegin
  2
*D11
 70
    1
 10
0
 20
0
  3
*D11
  1

  0
LINE
  5
129
100
AcDbEntity
  8
Dimensions
  6
ByBlock
 62
    5
370
   -2
100
AcDbLine
 10
-90
 20
-7.105427357601002e-15
 11
-90
 21
41.00000000000001
  0
MTEXT
  5
12A
100
AcDbEntity
  8
Dimensions
  6
CONTINUOUS
 62
    5
370
   -2
100
AcDbMText
 10
-91.875
 20
20.5
 30
0
 40
2.5
 41
7.5
 71
    5
 72
    1
  1
41.00
  7
standard
210
0
220
0
230
1
 50
90
 73
    2
 44
1
  0
SOLID
  5
12B
100
AcDbEntity
  8
Dimensions
  6
ByBlock
 62
    5
370
   -2
100
AcDbTrace
 10
-90
 20
-7.105427357601002e-15
 30
0
 11
-90.16651386310913
 21
0.9999999999999929
 31
0
 12
-89.83348613689087
 22
0.9999999999999929
 32
0
 13
-89.83348613689087
 23
0.9999999999999929
 33
0
  0
SOLID
  5
12C
100
AcDbEntity
  8
Dimensions
  6
ByBlock
 62
    5
370
   -2
100
AcDbTrace
 10
-90
 20
41.00000000000001
 30
0
 11
-89.83348613689087
 21
40.00000000000001
 31
0
 12
-90.16651386310913
 22
40.00000000000001
 32
0
 13
-90.16651386310913
 23
40.00000000000001
 33
0
  0
LINE
  5
12D
100
AcDbEntity
  8
Dimensions
  6
ByBlock
 62
    5
370
   -2
100
AcDbLine
 10
-76.175
 20
4.878232149826967e-17
 11
-91.25
 21
-6.952351563373205e-15
  0
LINE
  5
12E
100
AcDbEntity
  8
Dimensions
  6
ByBlock
 62
    5
370
   -2
100
AcDbLine
 10
-76.175
 20
41.00000000000001
 11
-91.25
 21
41.00000000000001
  0
ENDBLK
  5
92
330
90
100
AcDbEntity
  8
0
100
AcDbBlockEnd
  0
BLOCK
  5
94
330
93
100
AcDbEntity
  8
0
100
AcDbBlockBegin
  2
*D17
 70
    1
 10
0
 20
0
  3
*D17
  1

  0
LINE
  5
12F
100
AcDbEntity
  8
Dimensions
  6
ByBlock
 62
    5
370
   -2
100
AcDbLine
 10
-55
 20
11
 11
-55
 21
-6.039613253960851e-16
  0
MTEXT
  5
130
100
AcDbEntity
  8
Dimensions
  6
CONTINUOUS
 62
    5
370
   -2
100
AcDbMText
 10
-56.875
 20
5.500000000000001
 30
0
 40
2.5
 41
6.666666666666667
 71
    5
 72
    1
  1
11.00
  7
standard
210
0
220
0
230
1
 50
90
 73
    2
 44
1
  0
SOLID
  5
131
100
AcDbEntity
  8
Dimensions
  6
ByBlock
 62
    5
370
   -2
100
AcDbTrace
 10
-55
 20
11
 30
0
 11
-54.83348613689086
 21
10
 31
0
 12
-55.16651386310914
 22
10
 32
0
 13
-55.16651386310914
 23
10
 33
0
  0
SOLID
  5
132
100
AcDbEntity
  8
Dimensions
  6
ByBlock
 62
    5
370
   -2
100
AcDbTrace
 10
-55
 20
-6.039613253960851e-16
 30
0
 11
-55.16651386310914
 21
0.9999999999999993
 31
0
 12
-54.83348613689086
 22
0.9999999999999994
 32
0
 13
-54.83348613689086
 23
0.9999999999999994
 33
0
  0
LINE
  5
133
100
AcDbEntity
  8
Dimensions
  6
ByBlock
 62
    5
370
   -2
100
AcDbLine
 10
-62.87499999999999
 20
11
 11
-53.75
 21
11
  0
LINE
  5
134
100
AcDbEntity
  8
Dimensions
  6
ByBlock
 62
    5
370
   -2
100
AcDbLine
 10
-62.875
 20
0
 11
-53.75
 21
-6.039613253960851e-16
  0
ENDBLK
  5
95
330
93
100
AcDbEntity
  8
0
100
AcDbBlockEnd
  0
BLOCK
  5
97
330
96
100
AcDbEntity
  8
0
100
AcDbBlockBegin
  2
*D4
 70
    1
 10
0
 20
0
  3
*D4
  1

  0
LINE
  5
135
100
AcDbEntity
  8
Dimensions
  6
ByBlock
 62
    5
370
   -2
100
AcDbLine
 10
58.10000000000001
 20
-10
 11
68.90000000000001
 21
-10
  0
MTEXT
  5
136
100
AcDbEntity
  8
Dimensions
  6
CONTINUOUS
 62
    5
370
   -2
100
AcDbMText
 10
63.50000000000001
 20
-8.125
 30
0
 40
2.5
 41
7.222222222222222
 71
    5
 72
    1
  1
10.80
  7
standard
210
0
220
0
230
1
 50
0
 73
    2
 44
1
  0
SOLID
  5
137
100
AcDbEntity
  8
Dimensions
  6
ByBlock
 62
    5
370
   -2
100
AcDbTrace
 10
58.10000000000001
 20
-10
 30
0
 11
59.10000000000001
 21
-9.833486136890864
 31
0
 12
59.10000000000001
 22
-10.16651386310914
 32
0
 13
59.10000000000001
 23
-10.16651386310914
 33
0
  0
SOLID
  5
138
100
AcDbEntity
  8
Dimensions
  6
ByBlock
 62
    5
370
   -2
100
AcDbTrace
 10
68.90000000000001
 20
-10
 30
0
 11
67.90000000000001
 21
-10.16651386310914
 31
0
 12
67.90000000000001
 22
-9.833486136890864
 32
0
 13
67.90000000000001
 23
-9.833486136890864
 33
0
  0
LINE
  5
139
100
AcDbEntity
  8
Dimensions
  6
ByBlock
 62
    5
370
   -2
100
AcDbLine
 10
58.10000000000001
 20
8.725
 11
58.10000000000001
 21
-11.25
  0
LINE
  5
13A
100
AcDbEntity
  8
Dimensions
  6
ByBlock
 62
    5
370
   -2
100
AcDbLine
 10
68.90000000000001
 20
8.725
 11
68.90000000000001
 21
-11.25
  0
ENDBLK
  5
98
330
96
100
AcDbEntity
  8
0
100
AcDbBlockEnd
  0
BLOCK
  5
9A
330
99
100
AcDbEntity
  8
0
100
AcDbBlockBegin
  2
*D3
 70
    1
 10
0
 20
0
  3
*D3
  1

  0
LINE
  5
13B
100
AcDbEntity
  8
Dimensions
  6
ByBlock
 62
    5
370
   -2
100
AcDbLine
 10
7.105427357601002e-15
 20
-10
 11
58.10000000000001
 21
-10
  0
MTEXT
  5
13C
100
AcDbEntity
  8
Dimensions
  6
CONTINUOUS
 62
    5
370
   -2
100
AcDbMText
 10
29.05000000000001
 20
-8.125
 30
0
 40
2.5
 41
7.222222222222378
 71
    5
 72
    1
  1
58.10
  7
standard
210
0
220
0
230
1
 50
0
 73
    2
 44
1
  0
SOLID
  5
13D
100
AcDbEntity
  8
Dimensions
  6
ByBlock
 62
    5
370
   -2
100
AcDbTrace
 10
7.105427357601002e-15
 20
-10
 30
0
 11
1.000000000000007
 21
-9.833486136890864
 31
0
 12
1.000000000000007
 22
-10.16651386310914
 32
0
 13
1.000000000000007
 23
-10.16651386310914
 33
0
  0
SOLID
  5
13E
100
AcDbEntity
  8
Dimensions
  6
ByBlock
 62
    5
370
   -2
100
AcDbTrace
 10
58.10000000000001
 20
-10
 30
0
 11
57.10000000000001
 21
-10.16651386310914
 31
0
 12
57.10000000000001
 22
-9.833486136890864
 32
0
 13
57.10000000000001
 23
-9.833486136890864
 33
0
  0
LINE
  5
13F
100
AcDbEntity
  8
Dimensions
  6
ByBlock
 62
    5
370
   -2
100
AcDbLine
 10
6.901048471823906e-16
 20
-0.6250000000000001
 11
7.986036690884463e-15
 21
-11.25
  0
LINE
  5
140
100
AcDbEntity
  8
Dimensions
  6
ByBlock
 62
    5
370
   -2
100
AcDbLine
 10
58.10000000000001
 20
8.725000000000001
 11
58.10000000000001
 21
-11.25
  0
ENDBLK
  5
9B
330
99
100
AcDbEntity
  8
0
100
AcDbBlockEnd
  0
BLOCK
  5
9D
330
9C
100
AcDbEntity
  8
0
100
AcDbBlockBegin
  2
*D15
 70
    1
 10
0
 20
0
  3
*D15
  1

  0
SOLID
  5
141
100
AcDbEntity
  8
Dimensions
  6
ByBlock
 62
    5
370
   -2
100
AcDbTrace
 10
78.26189142670944
 20
39.84000866595845
 30
0
 11
78.87005651424398
 21
40.65109564829242
 31
0
 12
79.10006843341992
 22
40.41025963880232
 32
0
 13
79.10006843341992
 23
40.41025963880232
 33
0
  0
LINE
  5
142
100
AcDbEntity
  8
Dimensions
  6
ByBlock
 62
    5
370
   -2
100
AcDbLine
 10
75.55
 20
37.25
 11
88.54699076356323
 21
49.66285634722329
  0
MTEXT
  5
143
100
AcDbEntity
  8
Dimensions
  6
CONTINUOUS
 62
    5
370
   -2
100
AcDbMText
 10
82.10943676215712
 20
46.10737821994559
 30
0
 40
2.5
 41
12.22222222222253
 71
    5
 72
    1
  1
4-R3.75
  7
standard
210
0
220
0
230
1
 50
43.68308759420667
 73
    2
 44
1
  0
ENDBLK
  5
9E
330
9C
100
AcDbEntity
  8
0
100
AcDbBlockEnd
  0
BLOCK
  5
A0
330
9F
100
AcDbEntity
  8
0
100
AcDbBlockBegin
  2
*D26
 70
    1
 10
0
 20
0
  3
*D26
  1

  0
LINE
  5
144
100
AcDbEntity
  8
Dimensions
  6
ByBlock
 62
    5
370
   -2
100
AcDbLine
 10
-29.74999999999999
 20
-10
 11
9.860761315262648e-32
 21
-10
  0
MTEXT
  5
145
100
AcDbEntity
  8
Dimensions
  6
CONTINUOUS
 62
    5
370
   -2
100
AcDbMText
 10
-14.87499999999999
 20
-8.125000000000002
 30
0
 40
2.5
 41
7.777777777777933
 71
    5
 72
    1
  1
29.75
  7
standard
210
0
220
0
230
1
 50
0
 73
    2
 44
1
  0
SOLID
  5
146
100
AcDbEntity
  8
Dimensions
  6
ByBlock
 62
    5
370
   -2
100
AcDbTrace
 10
-29.74999999999999
 20
-10
 30
0
 11
-28.74999999999999
 21
-9.833486136890865
 31
0
 12
-28.74999999999999
 22
-10.16651386310914
 32
0
 13
-28.74999999999999
 23
-10.16651386310914
 33
0
  0
SOLID
  5
147
100
AcDbEntity
  8
Dimensions
  6
ByBlock
 62
    5
370
   -2
100
AcDbTrace
 10
9.860761315262648e-32
 20
-10
 30
0
 11
-1
 21
-10.16651386310914
 31
0
 12
-1
 22
-9.833486136890865
 32
0
 13
-1
 23
-9.833486136890865
 33
0
  0
LINE
  5
148
100
AcDbEntity
  8
Dimensions
  6
ByBlock
 62
    5
370
   -2
100
AcDbLine
 10
-29.74999999999999
 20
7.375
 11
-29.74999999999999
 21
-11.25
  0
LINE
  5
149
100
AcDbEntity
  8
Dimensions
  6
ByBlock
 62
    5
370
   -2
100
AcDbLine
 10
-1.148068456708479e-16
 20
-0.625
 11
-2.296136913416956e-16
 21
-11.25
  0
ENDBLK
  5
A1
330
9F
100
AcDbEntity
  8
0
100
AcDbBlockEnd
  0
BLOCK
  5
A3
330
A2
100
AcDbEntity
  8
0
100
AcDbBlockBegin
  2
*D30
 70
    1
 10
0
 20
0
  3
*D30
  1

  0
SOLID
  5
14A
100
AcDbEntity
  8
Dimensions
  6
ByBlock
 62
    5
370
   -2
100
AcDbTrace
 10
-46.04385229683712
 20
10.70457407958577
 30
0
 11
-46.77167733182353
 21
11.41026351910896
 31
0
 12
-46.50373185552493
 22
11.60803279923412
 32
0
 13
-46.50373185552493
 23
11.60803279923412
 33
0
  0
LINE
  5
14B
100
AcDbEntity
  8
Dimensions
  6
ByBlock
 62
    5
370
   -2
100
AcDbLine
 10
-45.45
 20
9.9
 11
-53.00512088753883
 21
20.13597023473005
  0
MTEXT
  5
14C
100
AcDbEntity
  8
Dimensions
  6
CONTINUOUS
 62
    5
370
   -2
100
AcDbMText
 10
-48.01591019296465
 20
16.53374521372749
 30
0
 40
2.5
 41
9.722222222222221
 71
    5
 72
    1
  1
4-R1.0
  7
standard
210
0
220
0
230
1
 50
306.4308581201623
 73
    2
 44
1
  0
ENDBLK
  5
A4
330
A2
100
AcDbEntity
  8
0
100
AcDbBlockEnd
  0
BLOCK
  5
A6
330
A5
100
AcDbEntity
  8
0
100
AcDbBlockBegin
  2
*D19
 70
    1
 10
0
 20
0
  3
*D19
  1

  0
SOLID
  5
14D
100
AcDbEntity
  8
Dimensions
  6
ByBlock
 62
    5
370
   -2
100
AcDbTrace
 10
32.95259068131634
 20
11.76436383882992
 30
0
 11
32.09455557331909
 21
12.30427366468206
 31
0
 12
32.31580715194627
 22
12.55318169063762
 32
0
 13
32.31580715194627
 23
12.55318169063762
 33
0
  0
LINE
  5
14E
100
AcDbEntity
  8
Dimensions
  6
ByBlock
 62
    5
370
   -2
100
AcDbLine
 10
33.7
 20
11.1
 11
24.19129255674678
 21
19.55218439400288
  0
MTEXT
  5
14F
100
AcDbEntity
  8
Dimensions
  6
CONTINUOUS
 62
    5
370
   -2
100
AcDbMText
 10
29.81762381683766
 20
17.05966658894826
 30
0
 40
2.5
 41
9.722222222222221
 71
    5
 72
    1
  1
4-R1.0
  7
standard
210
0
220
0
230
1
 50
318.3664606634297
 73
    2
 44
1
  0
ENDBLK
  5
A7
330
A5
100
AcDbEntity
  8
0
100
AcDbBlockEnd
  0
BLOCK
  5
A9
330
A8
100
AcDbEntity
  8
0
100
AcDbBlockBegin
  2
*D25
 70
    1
 10
0
 20
0
  3
*D25
  1

  0
SOLID
  5
150
100
AcDbEntity
  8
Dimensions
  6
ByBlock
 62
    5
370
   -2
100
AcDbTrace
 10
68.64153577912377
 20
11.77091332396913
 30
0
 11
69.27135518886205
 21
12.5653026351538
 31
0
 12
69.49478792763303
 22
12.31835066072271
 32
0
 13
69.49478792763303
 23
12.31835066072271
 33
0
  0
LINE
  5
151
100
AcDbEntity
  8
Dimensions
  6
ByBlock
 62
    5
370
   -2
100
AcDbLine
 10
67.90000000000001
 20
11.1
 11
77.33398296774128
 21
19.63550839938504
  0
MTEXT
  5
152
100
AcDbEntity
  8
Dimensions
  6
CONTINUOUS
 62
    5
370
   -2
100
AcDbMText
 10
71.7297968909904
 20
17.09359044753414
 30
0
 40
2.5
 41
9.722222222222221
 71
    5
 72
    1
  1
4-R1.0
  7
standard
210
0
220
0
230
1
 50
42.13759477388852
 73
    2
 44
1
  0
ENDBLK
  5
AA
330
A8
100
AcDbEntity
  8
0
100
AcDbBlockEnd
  0
ENDSEC
  0
SECTION
  2
ENTITIES
  0
MTEXT
  5
153
100
AcDbEntity
  8
0
  6
ByLayer
 62
    5
370
   -1
100
AcDbMText
 10
80.5
 20
32
 30
0
 40
1.5
 41
16.29166743809769
 71
    1
 72
    1
  1
Countersunk for\PM3 screw
  7
STANDARD
210
0
220
0
230
1
 50
0
 73
    2
 44
1
  0
LINE
  5
154
100
AcDbEntity
  8
0
  6
ByLayer
 62
  256
370
   -1
100
AcDbLine
 10
0
 20
28.45
 11
7.9
 21
28.45
  0
ARC
  5
155
100
AcDbEntity
  8
0
  6
ByLayer
 62
  256
370
   -1
100
AcDbCircle
 10
7.9
 20
27.45
 40
1
100
AcDbArc
 50
0
 51
90
  0
LINE
  5
156
100
AcDbEntity
  8
0
  6
ByLayer
 62
  256
370
   -1
100
AcDbLine
 10
8.9
 20
27.45
 11
8.9
 21
11.65
  0
ARC
  5
157
100
AcDbEntity
  8
0
  6
ByLayer
 62
  256
370
   -1
100
AcDbCircle
 10
7.9
 20
11.65
 40
1
100
AcDbArc
 50
270
 51
0
  0
LINE
  5
158
100
AcDbEntity
  8
0
  6
ByLayer
 62
  256
370
   -1
100
AcDbLine
 10
7.9
 20
10.65
 11
-7.900000000000001
 21
10.65
  0
ARC
  5
159
100
AcDbEntity
  8
0
  6
ByLayer
 62
  256
370
   -1
100
AcDbCircle
 10
-7.900000000000001
 20
11.65
 40
1
100
AcDbArc
 50
180
 51
270
  0
LINE
  5
15A
100
AcDbEntity
  8
0
  6
ByLayer
 62
  256
370
   -1
100
AcDbLine
 10
-8.900000000000002
 20
11.65
 11
-8.900000000000002
 21
27.45
  0
ARC
  5
15B
100
AcDbEntity
  8
0
  6
ByLayer
 62
  256
370
   -1
100
AcDbCircle
 10
-7.900000000000002
 20
27.45
 40
1
100
AcDbArc
 50
90
 51
180
  0
LINE
  5
15C
100
AcDbEntity
  8
0
  6
ByLayer
 62
  256
370
   -1
100
AcDbLine
 10
-7.900000000000002
 20
28.45
 11
1.249000902703301e-16
 21
28.45
  0
DIMENSION
  5
15D
100
AcDbEntity
  8
Dimensions
  6
ByLayer
 62
  256
370
   -1
100
AcDbDimension
  2
*D1
 10
-79.3
 20
-35
 30
0
 11
1.432566156087285e-14
 21
-33.125
 31
0
 70
   32
 71
    5
 72
    0
  3
Standard
 53
0
210
0
220
0
230
1
100
AcDbAlignedDimension
 13
79.30000000000001
 23
3.5
 33
0
 14
-79.3
 24
3.5
 34
0
100
AcDbRotatedDimension
  0
DIMENSION
  5
15E
100
AcDbEntity
  8
Dimensions
  6
ByLayer
 62
  256
370
   -1
100
AcDbDimension
  2
*D2
 10
-9.184547653667829e-16
 20
-15
 30
0
 11
-31.75
 21
-13.125
 31
0
 70
   32
 71
    5
 72
    0
  3
Standard
 53
0
210
0
220
0
230
1
100
AcDbAlignedDimension
 13
-63.5
 23
8.75
 33
0
 14
0
 24
0
 34
0
100
AcDbRotatedDimension
  0
LINE
  5
15F
100
AcDbEntity
  8
Dimensions
  6
DASHDOTX2
 62
    1
370
   -1
100
AcDbLine
 10
0
 20
45
 11
0
 21
-20
  0
DIMENSION
  5
160
100
AcDbEntity
  8
Dimensions
  6
ByLayer
 62
  256
370
   -1
100
AcDbDimension
  2
*D3
 10
58.10000000000001
 20
-10
 30
0
 11
29.05000000000001
 21
-8.125
 31
0
 70
   32
 71
    5
 72
    0
  3
Standard
 53
0
210
0
220
0
230
1
100
AcDbAlignedDimension
 13
2.498001805406602e-16
 23
-6.938893903907228e-17
 33
0
 14
58.10000000000001
 24
9.350000000000001
 34
0
100
AcDbRotatedDimension
  0
DIMENSION
  5
161
100
AcDbEntity
  8
Dimensions
  6
ByLayer
 62
  256
370
   -1
100
AcDbDimension
  2
*D4
 10
68.90000000000001
 20
-10
 30
0
 11
63.50000000000001
 21
-8.125
 31
0
 70
   32
 71
    5
 72
    0
  3
Standard
 53
0
210
0
220
0
230
1
100
AcDbAlignedDimension
 13
58.10000000000001
 23
9.35
 33
0
 14
68.90000000000001
 24
9.35
 34
0
100
AcDbRotatedDimension
  0
DIMENSION
  5
162
100
AcDbEntity
  8
Dimensions
  6
ByLayer
 62
  256
370
   -1
100
AcDbDimension
  2
*D5
 10
1.510564676815402e-17
 20
41
 30
0
 11
-4.45
 21
42.875
 31
0
 70
   32
 71
    5
 72
    0
  3
Standard
 53
0
210
0
220
0
230
1
100
AcDbAlignedDimension
 13
-8.9
 23
27.4
 33
0
 14
-2.775557561562891e-17
 24
40.3
 34
0
100
AcDbRotatedDimension
  0
DIMENSION
  5
163
100
AcDbEntity
  8
Dimensions
  6
ByLayer
 62
  256
370
   -1
100
AcDbDimension
  2
*D6
 10
2.898343457596849e-17
 20
41
 30
0
 11
4.45
 21
42.875
 31
0
 70
   32
 71
    5
 72
    0
  3
Standard
 53
0
210
0
220
0
230
1
100
AcDbAlignedDimension
 13
8.9
 23
27.4
 33
0
 14
-1.387778780781446e-17
 24
40.3
 34
0
100
AcDbRotatedDimension
  0
DIMENSION
  5
164
100
AcDbEntity
  8
Dimensions
  6
ByLayer
 62
  256
370
   -1
100
AcDbDimension
  2
*D7
 10
15
 20
10.65
 30
0
 11
13.125
 21
19.55
 31
0
 70
   32
 71
    5
 72
    0
  3
Standard
 53
0
210
0
220
0
230
1
100
AcDbAlignedDimension
 13
7.9
 23
28.45
 33
0
 14
7.9
 24
10.65
 34
0
 50
90
100
AcDbRotatedDimension
  0
DIMENSION
  5
165
100
AcDbEntity
  8
Dimensions
  6
ByLayer
 62
  256
370
   -1
100
AcDbDimension
  2
*D8
 10
15
 20
-1.836909530733566e-15
 30
0
 11
13.125
 21
5.325
 31
0
 70
   32
 71
    5
 72
    0
  3
Standard
 53
0
210
0
220
0
230
1
100
AcDbAlignedDimension
 13
7.9
 23
10.65
 33
0
 14
0
 24
0
 34
0
 50
90
100
AcDbRotatedDimension
  0
DIMENSION
  5
166
100
AcDbEntity
  8
Dimensions
  6
ByLayer
 62
  256
370
   -1
100
AcDbDimension
  2
*D9
 10
43.50000000000001
 20
-5
 30
0
 11
38.10000000000001
 21
-3.125
 31
0
 70
   32
 71
    5
 72
    0
  3
Standard
 53
0
210
0
220
0
230
1
100
AcDbAlignedDimension
 13
32.7
 23
9.35
 33
0
 14
43.50000000000001
 24
9.35
 34
0
100
AcDbRotatedDimension
  0
DIMENSION
  5
167
100
AcDbEntity
  8
Dimensions
  6
ByLayer
 62
  256
370
   -1
100
AcDbDimension
  2
*D10
 10
32.7
 20
-5.000000000000002
 30
0
 11
16.35
 21
-3.125000000000002
 31
0
 70
   32
 71
    5
 72
    0
  3
Standard
 53
0
210
0
220
0
230
1
100
AcDbAlignedDimension
 13
-8.326672684688674e-17
 23
2.775557561562891e-17
 33
0
 14
32.7
 24
9.350000000000001
 34
0
100
AcDbRotatedDimension
  0
MTEXT
  5
168
100
AcDbEntity
  8
0
  6
ByLayer
 62
    5
370
   -1
100
AcDbMText
 10
-70
 20
41.5
 30
0
 40
1.5
 41
22.7500015428621
 71
    7
 72
    1
  1
Panel thickness: 1.5mm
  7
STANDARD
210
0
220
0
230
1
 50
0
 73
    2
 44
1
  0
CIRCLE
  5
169
100
AcDbEntity
  8
0
  6
ByLayer
 62
  256
370
   -1
100
AcDbCircle
 10
-75.55
 20
3.75
 40
1.65
  0
CIRCLE
  5
16A
100
AcDbEntity
  8
0
  6
DASHEDX2
 62
  256
370
   -1
100
AcDbCircle
 10
-75.55
 20
3.75
 40
2.8
  0
ARC
  5
16B
100
AcDbEntity
  8
0
  6
ByLayer
 62
  256
370
   -1
100
AcDbCircle
 10
-75.55
 20
3.75
 40
3.75
100
AcDbArc
 50
180
 51
270
  0
CIRCLE
  5
16C
100
AcDbEntity
  8
0
  6
ByLayer
 62
  256
370
   -1
100
AcDbCircle
 10
75.55
 20
3.75
 40
1.65
  0
CIRCLE
  5
16D
100
AcDbEntity
  8
0
  6
DASHEDX2
 62
  256
370
   -1
100
AcDbCircle
 10
75.55
 20
3.75
 40
2.8
  0
ARC
  5
16E
100
AcDbEntity
  8
0
  6
ByLayer
 62
  256
370
   -1
100
AcDbCircle
 10
75.55
 20
3.75
 40
3.75
100
AcDbArc
 50
270
 51
0
  0
LINE
  5
16F
100
AcDbEntity
  8
0
  6
ByLayer
 62
  256
370
   -1
100
AcDbLine
 10
75.55
 20
6.938890000000001e-17
 11
-75.55
 21
6.938890000000001e-17
  0
LINE
  5
170
100
AcDbEntity
  8
0
  6
ByLayer
 62
  256
370
   -1
100
AcDbLine
 10
79.3
 20
37.25
 11
79.3
 21
3.75
  0
LINE
  5
171
100
AcDbEntity
  8
0
  6
ByLayer
 62
  256
370
   -1
100
AcDbLine
 10
75.55
 20
41
 11
-75.55
 21
41
  0
CIRCLE
  5
172
100
AcDbEntity
  8
0
  6
ByLayer
 62
  256
370
   -1
100
AcDbCircle
 10
75.55
 20
37.25
 40
1.65
  0
CIRCLE
  5
173
100
AcDbEntity
  8
0
  6
DASHEDX2
 62
  256
370
   -1
100
AcDbCircle
 10
75.55
 20
37.25
 40
2.8
  0
ARC
  5
174
100
AcDbEntity
  8
0
  6
ByLayer
 62
  256
370
   -1
100
AcDbCircle
 10
75.55
 20
37.25
 40
3.75
100
AcDbArc
 50
360
 51
90
  0
ARC
  5
175
100
AcDbEntity
  8
0
  6
ByLayer
 62
  256
370
   -1
100
AcDbCircle
 10
-75.55
 20
37.25
 40
3.75
100
AcDbArc
 50
90
 51
180
  0
LINE
  5
176
100
AcDbEntity
  8
0
  6
ByLayer
 62
  256
370
   -1
100
AcDbLine
 10
-79.3
 20
37.25
 11
-79.3
 21
3.75
  0
CIRCLE
  5
177
100
AcDbEntity
  8
0
  6
DASHEDX2
 62
  256
370
   -1
100
AcDbCircle
 10
-75.55
 20
37.25
 40
2.8
  0
CIRCLE
  5
178
100
AcDbEntity
  8
0
  6
ByLayer
 62
  256
370
   -1
100
AcDbCircle
 10
-75.55
 20
37.25
 40
1.65
  0
DIMENSION
  5
179
100
AcDbEntity
  8
Dimensions
  6
ByLayer
 62
  256
370
   -1
100
AcDbDimension
  2
*D11
 10
-90
 20
41.00000000000001
 30
0
 11
-91.875
 21
20.5
 31
0
 70
   32
 71
    5
  3
Standard
 53
0
210
0
220
0
230
1
100
AcDbAlignedDimension
 13
-75.55
 23
-2.775557561562891e-17
 33
0
 14
-75.55
 24
41.00000000000001
 34
0
 50
90
100
AcDbRotatedDimension
  0
DIMENSION
  5
17A
100
AcDbEntity
  8
Dimensions
  6
ByLayer
 62
  256
370
   -1
100
AcDbDimension
  2
*D12
 10
-85
 20
37.25
 30
0
 11
-86.875
 21
20.5
 31
0
 70
   32
  1
33.5 %%P 0.1
 71
    5
  3
Standard
 53
0
210
0
220
0
230
1
100
AcDbAlignedDimension
 13
-75.55
 23
3.75
 33
0
 14
-75.55
 24
37.25
 34
0
 50
90
100
AcDbRotatedDimension
  0
DIMENSION
  5
17B
100
AcDbEntity
  8
Dimensions
  6
ByLayer
 62
  256
370
   -1
100
AcDbDimension
  2
*D13
 10
75.55000000000001
 20
-25
 30
0
 11
1.148068456708479e-16
 21
-23.125
 31
0
 70
   32
  1
151.1 %%P 0.2
 71
    5
  3
Standard
 53
0
210
0
220
0
230
1
100
AcDbAlignedDimension
 13
-75.55
 23
3.75
 33
0
 14
75.55000000000001
 24
3.75
 34
0
100
AcDbRotatedDimension
  0
DIMENSION
  5
17C
100
AcDbEntity
  8
Dimensions
  6
ByLayer
 62
  256
370
   -1
100
AcDbDimension
  2
*D14
 10
74.11628332945082
 20
38.06667405284446
 30
0
 11
76.47803869641416
 21
38.87922348926043
 31
0
 70
   35
  1
4-%%C3.3
 71
    5
  3
Standard
 53
0
210
0
220
0
230
1
100
AcDbDiametricDimension
 15
76.98371667054917
 25
36.43332594715554
 35
0
 40
0
  0
DIMENSION
  5
17D
100
AcDbEntity
  8
Dimensions
  6
ByLayer
 62
  256
370
   -1
100
AcDbDimension
  2
*D15
 10
75.55
 20
37.25
 30
0
 11
82.10943676215712
 21
46.10737821994559
 31
0
 70
   36
  1
4-R3.75
 71
    5
  3
Standard
 53
0
210
0
220
0
230
1
100
AcDbRadialDimension
 15
78.26189142670944
 25
39.84000866595845
 35
0
 40
0
  0
DIMENSION
  5
17E
100
AcDbEntity
  8
Dimensions
  6
ByLayer
 62
  256
370
   -1
100
AcDbDimension
  2
*D16
 10
75.55
 20
50
 30
0
 11
1.148068456708479e-16
 21
51.875
 31
0
 70
   32
  1
151.1 %%P 0.2
 71
    5
  3
Standard
 53
0
210
0
220
0
230
1
100
AcDbAlignedDimension
 13
-75.55
 23
37.25
 33
0
 14
75.55
 24
37.25
 34
0
100
AcDbRotatedDimension
  0
DIMENSION
  5
17F
100
AcDbEntity
  8
Dimensions
  6
ByLayer
 62
  256
370
   -1
100
AcDbDimension
  2
*D17
 10
-55
 20
-1.040915400749021e-15
 30
0
 11
-56.875
 21
5.500000000000001
 31
0
 70
   32
 71
    5
  3
Standard
 53
0
210
0
220
0
230
1
100
AcDbAlignedDimension
 13
-63.49999999999999
 23
11
 33
0
 14
-63.5
 24
0
 34
0
 50
90
100
AcDbRotatedDimension
  0
CIRCLE
  5
180
100
AcDbEntity
  8
0
  6
ByLayer
 62
  256
370
   -1
100
AcDbCircle
 10
-63.5
 20
11
 40
3
  0
DIMENSION
  5
181
100
AcDbEntity
  8
Dimensions
  6
ByLayer
 62
  256
370
   -1
100
AcDbDimension
  2
*D18
 10
-63.5
 20
8
 30
0
 11
-65.375
 21
11
 31
0
 70
   35
 71
    5
  3
Standard
 53
0
210
0
220
0
230
1
100
AcDbDiametricDimension
 15
-63.5
 25
14
 35
0
 40
0
  0
CIRCLE
  5
182
100
AcDbEntity
  8
0
  6
ByLayer
 62
  256
370
   -1
100
AcDbCircle
 10
25.4
 20
12.05
 40
2.2
  0
CIRCLE
  5
183
100
AcDbEntity
  8
0
  6
ByLayer
 62
  256
370
   -1
100
AcDbCircle
 10
50.8
 20
12.05
 40
2.2
  0
LINE
  5
184
100
AcDbEntity
  8
0
  6
ByLayer
 62
  256
370
   -1
100
AcDbLine
 10
42.5
 20
7.1
 11
33.7
 21
7.1
  0
LINE
  5
185
100
AcDbEntity
  8
0
  6
ByLayer
 62
  256
370
   -1
100
AcDbLine
 10
38.09999999999999
 20
12.1
 11
42.5
 21
12.1
  0
ARC
  5
186
100
AcDbEntity
  8
0
  6
ByLayer
 62
  256
370
   -1
100
AcDbCircle
 10
42.5
 20
11.1
 40
1
100
AcDbArc
 50
0
 51
90
  0
LINE
  5
187
100
AcDbEntity
  8
0
  6
ByLayer
 62
  256
370
   -1
100
AcDbLine
 10
43.5
 20
11.1
 11
43.5
 21
8.099999999999998
  0
ARC
  5
188
100
AcDbEntity
  8
0
  6
ByLayer
 62
  256
370
   -1
100
AcDbCircle
 10
42.5
 20
8.100000000000001
 40
1
100
AcDbArc
 50
270
 51
0
  0
ARC
  5
189
100
AcDbEntity
  8
0
  6
ByLayer
 62
  256
370
   -1
100
AcDbCircle
 10
33.7
 20
8.100000000000001
 40
1
100
AcDbArc
 50
180
 51
270
  0
ARC
  5
18A
100
AcDbEntity
  8
0
  6
ByLayer
 62
  256
370
   -1
100
AcDbCircle
 10
33.7
 20
11.1
 40
1
100
AcDbArc
 50
90
 51
180
  0
LINE
  5
18B
100
AcDbEntity
  8
0
  6
ByLayer
 62
  256
370
   -1
100
AcDbLine
 10
33.7
 20
12.1
 11
38.1
 21
12.1
  0
LINE
  5
18C
100
AcDbEntity
  8
0
  6
ByLayer
 62
  256
370
   -1
100
AcDbLine
 10
32.7
 20
8.099999999999998
 11
32.7
 21
11.1
  0
DIMENSION
  5
18D
100
AcDbEntity
  8
Dimensions
  6
ByLayer
 62
  256
370
   -1
100
AcDbDimension
  2
*D19
 10
33.7
 20
11.1
 30
0
 11
29.81762381683766
 21
17.05966658894826
 31
0
 70
   36
  1
4-R1.0
 71
    5
  3
Standard
 53
0
210
0
220
0
230
1
100
AcDbRadialDimension
 15
32.95259068131634
 25
11.76436383882992
 35
0
 40
0
  0
LINE
  5
18E
100
AcDbEntity
  8
0
  6
ByLayer
 62
  256
370
   -1
100
AcDbLine
 10
67.90000000000001
 20
7.1
 11
59.1
 21
7.1
  0
LINE
  5
18F
100
AcDbEntity
  8
0
  6
ByLayer
 62
  256
370
   -1
100
AcDbLine
 10
63.5
 20
12.1
 11
67.90000000000001
 21
12.1
  0
ARC
  5
190
100
AcDbEntity
  8
0
  6
ByLayer
 62
  256
370
   -1
100
AcDbCircle
 10
67.90000000000001
 20
11.1
 40
1
100
AcDbArc
 50
0
 51
90
  0
LINE
  5
191
100
AcDbEntity
  8
0
  6
ByLayer
 62
  256
370
   -1
100
AcDbLine
 10
68.90000000000001
 20
11.1
 11
68.90000000000001
 21
8.099999999999998
  0
ARC
  5
192
100
AcDbEntity
  8
0
  6
ByLayer
 62
  256
370
   -1
100
AcDbCircle
 10
67.90000000000001
 20
8.1
 40
1
100
AcDbArc
 50
270
 51
0
  0
ARC
  5
193
100
AcDbEntity
  8
0
  6
ByLayer
 62
  256
370
   -1
100
AcDbCircle
 10
59.1
 20
8.1
 40
1
100
AcDbArc
 50
180
 51
270
  0
LINE
  5
194
100
AcDbEntity
  8
0
  6
ByLayer
 62
  256
370
   -1
100
AcDbLine
 10
58.1
 20
8.1
 11
58.1
 21
11.1
  0
ARC
  5
195
100
AcDbEntity
  8
0
  6
ByLayer
 62
  256
370
   -1
100
AcDbCircle
 10
59.1
 20
11.1
 40
1
100
AcDbArc
 50
90
 51
180
  0
LINE
  5
196
100
AcDbEntity
  8
0
  6
ByLayer
 62
  256
370
   -1
100
AcDbLine
 10
59.1
 20
12.1
 11
63.50000000000001
 21
12.1
  0
DIMENSION
  5
197
100
AcDbEntity
  8
Dimensions
  6
ByLayer
 62
  256
370
   -1
100
AcDbDimension
  2
*D20
 10
85
 20
12.1
 30
0
 11
83.125
 21
9.599999999999998
 31
0
 70
   32
 71
    5
  3
Standard
 53
0
210
0
220
0
230
1
100
AcDbAlignedDimension
 13
67.90000000000001
 23
7.1
 33
0
 14
67.90000000000001
 24
12.1
 34
0
 50
90
100
AcDbRotatedDimension
  0
DIMENSION
  5
198
100
AcDbEntity
  8
Dimensions
  6
ByLayer
 62
  256
370
   -1
100
AcDbDimension
  2
*D21
 10
85
 20
-1.157253004362147e-15
 30
0
 11
83.125
 21
3.550000000000001
 31
0
 70
   32
 71
    5
  3
Standard
 53
0
210
0
220
0
230
1
100
AcDbAlignedDimension
 13
67.90000000000001
 23
7.100000000000001
 33
0
 14
75.55
 24
0
 34
0
 50
90
100
AcDbRotatedDimension
  0
DIMENSION
  5
199
100
AcDbEntity
  8
Dimensions
  6
ByLayer
 62
  256
370
   -1
100
AcDbDimension
  2
*D22
 10
7.498303609110687e-32
 20
-15
 30
0
 11
12.7
 21
-13.125
 31
0
 70
   32
 71
    5
  3
Standard
 53
0
210
0
220
0
230
1
100
AcDbAlignedDimension
 13
25.4
 23
12.05
 33
0
 14
0
 24
-15
 34
0
100
AcDbRotatedDimension
  0
DIMENSION
  5
19A
100
AcDbEntity
  8
Dimensions
  6
ByLayer
 62
  256
370
   -1
100
AcDbDimension
  2
*D23
 10
50.8
 20
-15
 30
0
 11
38.1
 21
-13.125
 31
0
 70
   32
 71
    5
  3
Standard
 53
0
210
0
220
0
230
1
100
AcDbAlignedDimension
 13
25.4
 23
12.05
 33
0
 14
50.8
 24
12.05
 34
0
100
AcDbRotatedDimension
  0
DIMENSION
  5
19B
100
AcDbEntity
  8
Dimensions
  6
ByLayer
 62
  256
370
   -1
100
AcDbDimension
  2
*D24
 10
48.99970582265338
 20
10.7855076611494
 30
0
 11
49.72230766575233
 21
13.58434162842041
 31
0
 70
   35
  1
2-%%C4.4
 71
    5
  3
Standard
 53
0
210
0
220
0
230
1
100
AcDbDiametricDimension
 15
52.60029417734662
 25
13.3144923388506
 35
0
 40
0
  0
DIMENSION
  5
19C
100
AcDbEntity
  8
Dimensions
  6
ByLayer
 62
  256
370
   -1
100
AcDbDimension
  2
*D25
 10
67.90000000000001
 20
11.1
 30
0
 11
71.7297968909904
 21
17.09359044753414
 31
0
 70
   36
  1
4-R1.0
 71
    5
  3
Standard
 53
0
210
0
220
0
230
1
100
AcDbRadialDimension
 15
68.64153577912377
 25
11.77091332396913
 35
0
 40
0
  0
LINE
  5
19D
100
AcDbEntity
  8
0
  6
ByLayer
 62
  256
370
   -1
100
AcDbLine
 10
-38.1
 20
7
 11
-30.75
 21
7
  0
ARC
  5
19E
100
AcDbEntity
  8
0
  6
ByLayer
 62
  256
370
   -1
100
AcDbCircle
 10
-30.74999999999999
 20
8
 40
0.9999999999999991
100
AcDbArc
 50
270
 51
0
  0
ARC
  5
19F
100
AcDbEntity
  8
0
  6
ByLayer
 62
  256
370
   -1
100
AcDbCircle
 10
-30.74999999999999
 20
9.9
 40
1
100
AcDbArc
 50
0
 51
90
  0
LINE
  5
1A0
100
AcDbEntity
  8
0
  6
ByLayer
 62
  256
370
   -1
100
AcDbLine
 10
-45.45
 20
7
 11
-38.1
 21
7
  0
LINE
  5
1A1
100
AcDbEntity
  8
0
  6
ByLayer
 62
  256
370
   -1
100
AcDbLine
 10
-30.75
 20
10.9
 11
-45.45
 21
10.9
  0
ARC
  5
1A2
100
AcDbEntity
  8
0
  6
ByLayer
 62
  256
370
   -1
100
AcDbCircle
 10
-45.45
 20
9.9
 40
1
100
AcDbArc
 50
90
 51
180
  0
ARC
  5
1A3
100
AcDbEntity
  8
0
  6
ByLayer
 62
  256
370
   -1
100
AcDbCircle
 10
-45.45
 20
8
 40
1
100
AcDbArc
 50
180
 51
270
  0
LINE
  5
1A4
100
AcDbEntity
  8
0
  6
ByLayer
 62
  256
370
   -1
100
AcDbLine
 10
-46.45
 20
9.9
 11
-46.45
 21
8
  0
LINE
  5
1A5
100
AcDbEntity
  8
0
  6
ByLayer
 62
  256
370
   -1
100
AcDbLine
 10
-29.75
 20
8
 11
-29.75
 21
9.9
  0
DIMENSION
  5
1A6
100
AcDbEntity
  8
Dimensions
  6
ByLayer
 62
  256
370
   -1
100
AcDbDimension
  2
*D26
 10
-6.123031769111887e-16
 20
-10
 30
0
 11
-14.87499999999999
 21
-8.125000000000002
 31
0
 70
   32
 71
    5
  3
Standard
 53
0
210
0
220
0
230
1
100
AcDbAlignedDimension
 13
-29.74999999999999
 23
8
 33
0
 14
0
 24
0
 34
0
100
AcDbRotatedDimension
  0
DIMENSION
  5
1A7
100
AcDbEntity
  8
Dimensions
  6
ByLayer
 62
  256
370
   -1
100
AcDbDimension
  2
*D27
 10
-46.45
 20
-10
 30
0
 11
-38.09999999999999
 21
-8.125
 31
0
 70
   32
 71
    5
  3
Standard
 53
0
210
0
220
0
230
1
100
AcDbAlignedDimension
 13
-29.74999999999999
 23
8
 33
0
 14
-46.45
 24
8
 34
0
100
AcDbRotatedDimension
  0
DIMENSION
  5
1A8
100
AcDbEntity
  8
Dimensions
  6
ByLayer
 62
  256
370
   -1
100
AcDbDimension
  2
*D28
 10
-25
 20
-7.347638122934264e-16
 30
0
 11
-26.875
 21
3.500000000000001
 31
0
 70
   32
 71
    5
  3
Standard
 53
0
210
0
220
0
230
1
100
AcDbAlignedDimension
 13
-31
 23
7.000000000000001
 33
0
 14
-31
 24
0
 34
0
 50
90
100
AcDbRotatedDimension
  0
DIMENSION
  5
1A9
100
AcDbEntity
  8
Dimensions
  6
ByLayer
 62
  256
370
   -1
100
AcDbDimension
  2
*D29
 10
-25
 20
10.9
 30
0
 11
-26.875
 21
8.949999999999999
 31
0
 70
   32
 71
    5
  3
Standard
 53
0
210
0
220
0
230
1
100
AcDbAlignedDimension
 13
-31
 23
7
 33
0
 14
-31
 24
10.9
 34
0
 50
90
100
AcDbRotatedDimension
  0
DIMENSION
  5
1AA
100
AcDbEntity
  8
Dimensions
  6
ByLayer
 62
  256
370
   -1
100
AcDbDimension
  2
*D30
 10
-45.45
 20
9.9
 30
0
 11
-48.01591019296465
 21
16.53374521372749
 31
0
 70
   36
  1
4-R1.0
 71
    5
  3
Standard
 53
0
210
0
220
0
230
1
100
AcDbRadialDimension
 15
-46.04385229683712
 25
10.70457407958577
 35
0
 40
0
  0
DIMENSION
  5
1AB
100
AcDbEntity
  8
Dimensions
  6
ByLayer
 62
  256
370
   -1
100
AcDbDimension
  2
*D31
 10
-81
 20
6.674104628331958e-16
 30
0
 11
-82.875
 21
1.875
 31
0
 70
   32
 71
    5
  3
Standard
 53
0
210
0
220
0
230
1
100
AcDbAlignedDimension
 13
-75.55
 23
3.75
 33
0
 14
-75.55
 24
0
 34
0
 50
90
100
AcDbRotatedDimension
  0
ENDSEC
  0
SECTION
  2
OBJECTS
  0
DICTIONARY
  5
C
330
0
100
AcDbDictionary
281
    1
  3
ACAD_GROUP
350
D
  0
DICTIONARY
  5
D
330
C
100
AcDbDictionary
281
    1
  0
PLOTSETTINGS
  5
1AC
100
AcDbPlotSettings
  6
1x1
 40
0
 41
0
 42
0
 43
0
  0
ENDSEC
  0
EOF
