999
dxfrw 0.6.3
  0
SECTION
  2
HEADER
  9
$ACADVER
  1
AC1021
  9
$DWGCODEPAGE
  3
ANSI_1252
  9
$INSBASE
 10
0
 20
0
 30
0
  9
$EXTMIN
 10
-103.125
 20
-36.25
 30
0
  9
$EXTMAX
 10
96.7916674380976
 20
53.125
 30
0
  9
$LIMMIN
 10
0
 20
0
  9
$LIMMAX
 10
420
 20
297
  9
$ORTHOMODE
 70
    0
  9
$REGENMODE
 70
    1
  9
$FILLMODE
 70
    1
  9
$QTEXTMODE
 70
    0
  9
$MIRRTEXT
 70
    0
  9
$LTSCALE
 40
1
  9
$ATTMODE
 70
    0
  9
$TEXTSIZE
 40
2.5
  9
$TRACEWID
 40
15.68
  9
$TEXTSTYLE
  7
STANDARD
  9
$CLAYER
  8
Dimensions
  9
$CELTYPE
  6
BYLAYER
  9
$CECOLOR
 62
  256
  9
$CELTSCALE
 40
1
  9
$DISPSILH
 70
    0
  9
$DIMSCALE
 40
1
  9
$DIMASZ
 40
1
  9
$DIMEXO
 40
0.625
  9
$DIMDLI
 40
3.75
  9
$DIMRND
 40
0
  9
$DIMDLE
 40
0
  9
$DIMEXE
 40
1.25
  9
$DIMTP
 40
0
  9
$DIMTM
 40
0
  9
$DIMTXT
 40
2.5
  9
$DIMCEN
 40
2.5
  9
$DIMTSZ
 40
0
  9
$DIMTOL
 70
    0
  9
$DIMLIM
 70
    0
  9
$DIMTIH
 70
    0
  9
$DIMTOH
 70
    0
  9
$DIMSE1
 70
    0
  9
$DIMSE2
 70
    0
  9
$DIMTAD
 70
    1
  9
$DIMZIN
 70
    1
  9
$DIMBLK
  1

  9
$DIMASO
 70
    1
  9
$DIMSHO
 70
    1
  9
$DIMPOST
  1

  9
$DIMAPOST
  1

  9
$DIMALT
 70
    0
  9
$DIMALTD
 70
    3
  9
$DIMALTF
 40
0.03937
  9
$DIMLFAC
 40
1
  9
$DIMTOFL
 70
    1
  9
$DIMTVP
 40
0
  9
$DIMTIX
 70
    0
  9
$DIMSOXD
 70
    0
  9
$DIMSAH
 70
    0
  9
$DIMBLK1
  1

  9
$DIMBLK2
  1

  9
$DIMSTYLE
  2
STANDARD
  9
$DIMCLRD
 70
    5
  9
$DIMCLRE
 70
    5
  9
$DIMCLRT
 70
    5
  9
$DIMTFAC
 40
1
  9
$DIMGAP
 40
0.625
  9
$DIMJUST
 70
    0
  9
$DIMSD1
 70
    0
  9
$DIMSD2
 70
    0
  9
$DIMTOLJ
 70
    0
  9
$DIMTZIN
 70
    8
  9
$DIMALTZ
 70
    0
  9
$DIMALTTZ
 70
    0
  9
$DIMUPT
 70
    0
  9
$DIMDEC
 70
    2
  9
$DIMTDEC
 70
    2
  9
$DIMALTU
 70
    2
  9
$DIMALTTD
 70
    3
  9
$DIMTXSTY
  7
standard
  9
$DIMAUNIT
 70
    0
  9
$DIMADEC
 70
    2
  9
$DIMALTRND
 40
0
  9
$DIMAZIN
 70
    0
  9
$DIMDSEP
 70
    0
  9
$DIMATFIT
 70
    3
  9
$DIMFRAC
 70
    0
  9
$DIMLDRBLK
  1
STANDARD
  9
$DIMLUNIT
 70
    2
  9
$DIMLWD
 70
   -2
  9
$DIMLWE
 70
   -2
  9
$DIMTMOVE
 70
    0
  9
$DIMFXL
 40
1
  9
$DIMFXLON
 70
    0
  9
$DIMJOGANG
 40
0.7854
  9
$DIMTFILL
 70
    0
  9
$DIMTFILLCLR
 70
    0
  9
$DIMARCSYM
 70
    0
  9
$DIMLTYPE
  6

  9
$DIMLTEX1
  6

  9
$DIMLTEX2
  6

  9
$LUNITS
 70
    2
  9
$LUPREC
 70
    2
  9
$SKETCHINC
 40
1
  9
$FILLETRAD
 40
0
  9
$AUNITS
 70
    0
  9
$AUPREC
 70
    2
  9
$MENU
  1
.
  9
$ELEVATION
 40
0
  9
$PELEVATION
 40
0
  9
$THICKNESS
 40
0
  9
$LIMCHECK
 70
    0
  9
$CHAMFERA
 40
0
  9
$CHAMFERB
 40
0
  9
$CHAMFERC
 40
0
  9
$CHAMFERD
 40
0
  9
$SKPOLY
 70
    0
  9
$USRTIMER
 70
    1
  9
$ANGBASE
 50
0
  9
$ANGDIR
 70
    0
  9
$PDMODE
 70
   34
  9
$PDSIZE
 40
0
  9
$PLINEWID
 40
0
  9
$SPLFRAME
 70
    0
  9
$SPLINETYPE
 70
    2
  9
$SPLINESEGS
 70
    8
  9
$HANDSEED
  5
20000
  9
$SURFTAB1
 70
    6
  9
$SURFTAB2
 70
    6
  9
$SURFTYPE
 70
    6
  9
$SURFU
 70
    6
  9
$SURFV
 70
    6
  9
$UCSBASE
  2

  9
$UCSNAME
  2

  9
$UCSORG
 10
0
 20
0
 30
0
  9
$UCSXDIR
 10
1
 20
0
 30
0
  9
$UCSYDIR
 10
0
 20
1
 30
0
  9
$UCSORTHOREF
  2

  9
$UCSORTHOVIEW
 70
    0
  9
$UCSORGTOP
 10
0
 20
0
 30
0
  9
$UCSORGBOTTOM
 10
0
 20
0
 30
0
  9
$UCSORGLEFT
 10
0
 20
0
 30
0
  9
$UCSORGRIGHT
 10
0
 20
0
 30
0
  9
$UCSORGFRONT
 10
0
 20
0
 30
0
  9
$UCSORGBACK
 10
0
 20
0
 30
0
  9
$PUCSBASE
  2

  9
$PUCSNAME
  2

  9
$PUCSORG
 10
0
 20
0
 30
0
  9
$PUCSXDIR
 10
1
 20
0
 30
0
  9
$PUCSYDIR
 10
0
 20
1
 30
0
  9
$PUCSORTHOREF
  2

  9
$PUCSORTHOVIEW
 70
    0
  9
$PUCSORGTOP
 10
0
 20
0
 30
0
  9
$PUCSORGBOTTOM
 10
0
 20
0
 30
0
  9
$PUCSORGLEFT
 10
0
 20
0
 30
0
  9
$PUCSORGRIGHT
 10
0
 20
0
 30
0
  9
$PUCSORGFRONT
 10
0
 20
0
 30
0
  9
$PUCSORGBACK
 10
0
 20
0
 30
0
  9
$USERI1
 70
    0
  9
$USERI2
 70
    0
  9
$USERI3
 70
    0
  9
$USERI4
 70
    0
  9
$USERI5
 70
    0
  9
$USERR1
 40
0
  9
$USERR2
 40
0
  9
$USERR3
 40
0
  9
$USERR4
 40
0
  9
$USERR5
 40
0
  9
$WORLDVIEW
 70
    1
  9
$SHADEDGE
 70
    3
  9
$SHADEDIF
 70
   70
  9
$TILEMODE
 70
    1
  9
$MAXACTVP
 70
   64
  9
$PINSBASE
 10
153.204459600567
 20
92.46508966904452
 30
0
  9
$PLIMCHECK
 70
    0
  9
$PEXTMIN
 10
0
 20
0
 30
0
  9
$PEXTMAX
 10
0
 20
0
 30
0
  9
$GRIDMODE
 70
    1
  9
$SNAPSTYLE
 70
    0
  9
$GRIDUNIT
 10
0.05
 20
0.05
  9
$PLIMMIN
 10
0
 20
0
  9
$PLIMMAX
 10
297
 20
210
  9
$UNITMODE
 70
    0
  9
$VISRETAIN
 70
    1
  9
$PLINEGEN
 70
    0
  9
$PSLTSCALE
 70
    1
  9
$TREEDEPTH
 70
 3020
  9
$CMLSTYLE
  2
Standard
  9
$CMLJUST
 70
    0
  9
$CMLSCALE
 40
20
  9
$PROXYGRAPHICS
 70
    1
  9
$MEASUREMENT
 70
    1
  9
$CELWEIGHT
370
   -1
  9
$ENDCAPS
280
    0
  9
$JOINSTYLE
280
    0
  9
$LWDISPLAY
290
    0
  9
$INSUNITS
 70
    4
  9
$HYPERLINKBASE
  1

  9
$STYLESHEET
  1

  9
$XEDIT
290
    1
  9
$CEPSNTYPE
380
    0
  9
$PSTYLEMODE
290
    1
  9
$EXTNAMES
290
    1
  9
$PSVPSCALE
 40
1.485619002187316
  9
$OLESTARTUP
290
    0
  9
$SORTENTS
280
  127
  9
$INDEXCTL
280
    0
  9
$HIDETEXT
280
    1
  9
$XCLIPFRAME
290
    0
  9
$HALOGAP
280
    0
  9
$OBSCOLOR
 70
  257
  9
$OBSLTYPE
280
    0
  9
$INTERSECTIONDISPLAY
280
    0
  9
$INTERSECTIONCOLOR
 70
  257
  9
$DIMASSOC
280
    1
  9
$PROJECTNAME
  1

  9
$CAMERADISPLAY
290
    0
  9
$LENSLENGTH
 40
50
  9
$CAMERAHEIGHT
 40
0
  9
$STEPSPERSEC
 40
2
  9
$STEPSIZE
 40
50
  9
$3DDWFPREC
 40
2
  9
$PSOLWIDTH
 40
5
  9
$PSOLHEIGHT
 40
80
  9
$LOFTANG1
 40
1.570796326794897
  9
$LOFTANG2
 40
1.570796326794897
  9
$LOFTMAG1
 40
0
  9
$LOFTMAG2
 40
0
  9
$LOFTPARAM
 70
    7
  9
$LOFTNORMALS
280
    1
  9
$LATITUDE
 40
1
  9
$LONGITUDE
 40
1
  9
$NORTHDIRECTION
 40
0
  9
$TIMEZONE
 70
-8000
  9
$LIGHTGLYPHDISPLAY
280
    1
  9
$TILEMODELIGHTSYNCH
280
    1
  9
$SOLIDHIST
280
    1
  9
$SHOWHIST
280
    1
  9
$DWFFRAME
280
    2
  9
$DGNFRAME
280
    0
  9
$REALWORLDSCALE
290
    1
  9
$INTERFERECOLOR
 62
    1
  9
$CSHADOW
280
    0
  9
$SHADOWPLANELOCATION
 40
0
  0
ENDSEC
  0
SECTION
  2
CLASSES
  0
ENDSEC
  0
SECTION
  2
TABLES
  0
TABLE
  2
VPORT
  5
8
330
0
100
AcDbSymbolTable
 70
    1
  0
VPORT
  5
31
330
2
100
AcDbSymbolTableRecord
100
AcDbViewportTableRecord
  2
*ACTIVE
 70
    0
 10
0
 20
0
 11
1
 21
1
 12
49.08554190929024
 22
31.65985537972427
 13
0
 23
0
 14
10
 24
10
 15
0.05
 25
0.05
 16
0
 26
0
 36
1
 17
0
 27
0
 37
0
 40
109.6605474644482
 41
1.846332945285215
 42
50
 43
0
 44
0
 50
0
 51
0
 71
    0
 72
  100
 73
    1
 74
    3
 75
    0
 76
    1
 77
    0
 78
    0
281
    0
 65
    1
110
0
120
0
130
0
111
1
121
0
131
0
112
0
122
1
132
0
 79
    0
146
0
348
10020
 60
    3
 61
    5
292
1
282
    1
141
0
142
0
 63
  250
421
3358443
  0
ENDTAB
  0
TABLE
  2
LTYPE
  5
5
330
0
100
AcDbSymbolTable
 70
    4
  0
LTYPE
  5
14
330
5
100
AcDbSymbolTableRecord
100
AcDbLinetypeTableRecord
  2
ByBlock
 70
    0
  3

 72
   65
 73
    0
 40
0
  0
LTYPE
  5
15
330
5
100
AcDbSymbolTableRecord
100
AcDbLinetypeTableRecord
  2
ByLayer
 70
    0
  3

 72
   65
 73
    0
 40
0
  0
LTYPE
  5
16
330
5
100
AcDbSymbolTableRecord
100
AcDbLinetypeTableRecord
  2
Continuous
 70
    0
  3
Solid line
 72
   65
 73
    0
 40
0
  0
LTYPE
  5
32
330
5
100
AcDbSymbolTableRecord
100
AcDbLinetypeTableRecord
  2
DOT
 70
    0
  3
Dot . . . . . . . . . . . . . . . . . . . . . .
 72
   65
 73
    2
 40
6.35
 49
0
 74
    0
 49
-6.35
 74
    0
  0
LTYPE
  5
33
330
5
100
AcDbSymbolTableRecord
100
AcDbLinetypeTableRecord
  2
DOTTINY
 70
    0
  3
Dot (.15x) .....................................
 72
   65
 73
    2
 40
0.9525
 49
0
 74
    0
 49
-0.9525
 74
    0
  0
LTYPE
  5
34
330
5
100
AcDbSymbolTableRecord
100
AcDbLinetypeTableRecord
  2
DOT2
 70
    0
  3
Dot (.5x) .....................................
 72
   65
 73
    2
 40
3.175
 49
0
 74
    0
 49
-3.175
 74
    0
  0
LTYPE
  5
35
330
5
100
AcDbSymbolTableRecord
100
AcDbLinetypeTableRecord
  2
DOTX2
 70
    0
  3
Dot (2x) .  .  .  .  .  .  .  .  .  .  .  .  .
 72
   65
 73
    2
 40
12.7
 49
0
 74
    0
 49
-12.7
 74
    0
  0
LTYPE
  5
36
330
5
100
AcDbSymbolTableRecord
100
AcDbLinetypeTableRecord
  2
DASHED
 70
    0
  3
Dashed _ _ _ _ _ _ _ _ _ _ _ _ _ _ _ _ _
 72
   65
 73
    2
 40
19.05
 49
12.7
 74
    0
 49
-6.35
 74
    0
  0
LTYPE
  5
37
330
5
100
AcDbSymbolTableRecord
100
AcDbLinetypeTableRecord
  2
DASHEDTINY
 70
    0
  3
Dashed (.15x) _ _ _ _ _ _ _ _ _ _ _ _ _ _ _ _ _
 72
   65
 73
    2
 40
2.8575
 49
1.905
 74
    0
 49
-0.9525
 74
    0
  0
LTYPE
  5
38
330
5
100
AcDbSymbolTableRecord
100
AcDbLinetypeTableRecord
  2
DASHED2
 70
    0
  3
Dashed (.5x) _ _ _ _ _ _ _ _ _ _ _ _ _ _ _ _ _
 72
   65
 73
    2
 40
9.524999999999999
 49
6.35
 74
    0
 49
-3.175
 74
    0
  0
LTYPE
  5
39
330
5
100
AcDbSymbolTableRecord
100
AcDbLinetypeTableRecord
  2
DASHEDX2
 70
    0
  3
Dashed (2x) ____  ____  ____  ____  ____  ___
 72
   65
 73
    2
 40
38.09999999999999
 49
25.4
 74
    0
 49
-12.7
 74
    0
  0
LTYPE
  5
3A
330
5
100
AcDbSymbolTableRecord
100
AcDbLinetypeTableRecord
  2
DASHDOT
 70
    0
  3
Dash dot __ . __ . __ . __ . __ . __ . __ . __
 72
   65
 73
    4
 40
25.4
 49
12.7
 74
    0
 49
-6.35
 74
    0
 49
0
 74
    0
 49
-6.35
 74
    0
  0
LTYPE
  5
3B
330
5
100
AcDbSymbolTableRecord
100
AcDbLinetypeTableRecord
  2
DASHDOTTINY
 70
    0
  3
Dash dot (.15x) _._._._._._._._._._._._._._._.
 72
   65
 73
    4
 40
3.81
 49
1.905
 74
    0
 49
-0.9525
 74
    0
 49
0
 74
    0
 49
-0.9525
 74
    0
  0
LTYPE
  5
3C
330
5
100
AcDbSymbolTableRecord
100
AcDbLinetypeTableRecord
  2
DASHDOT2
 70
    0
  3
Dash dot (.5x) _._._._._._._._._._._._._._._.
 72
   65
 73
    4
 40
12.7
 49
6.35
 74
    0
 49
-3.175
 74
    0
 49
0
 74
    0
 49
-3.175
 74
    0
  0
LTYPE
  5
3D
330
5
100
AcDbSymbolTableRecord
100
AcDbLinetypeTableRecord
  2
DASHDOTX2
 70
    0
  3
Dash dot (2x) ____  .  ____  .  ____  .  ___
 72
   65
 73
    4
 40
50.8
 49
25.4
 74
    0
 49
-12.7
 74
    0
 49
0
 74
    0
 49
-12.7
 74
    0
  0
LTYPE
  5
3E
330
5
100
AcDbSymbolTableRecord
100
AcDbLinetypeTableRecord
  2
DIVIDE
 70
    0
  3
Divide ____ . . ____ . . ____ . . ____ . . ____
 72
   65
 73
    6
 40
31.75
 49
12.7
 74
    0
 49
-6.35
 74
    0
 49
0
 74
    0
 49
-6.35
 74
    0
 49
0
 74
    0
 49
-6.35
 74
    0
  0
LTYPE
  5
3F
330
5
100
AcDbSymbolTableRecord
100
AcDbLinetypeTableRecord
  2
DIVIDETINY
 70
    0
  3
Divide (.15x) __..__..__..__..__..__..__..__.._
 72
   65
 73
    6
 40
4.7625
 49
1.905
 74
    0
 49
-0.9525
 74
    0
 49
0
 74
    0
 49
-0.9525
 74
    0
 49
0
 74
    0
 49
-0.9525
 74
    0
  0
LTYPE
  5
40
330
5
100
AcDbSymbolTableRecord
100
AcDbLinetypeTableRecord
  2
DIVIDE2
 70
    0
  3
Divide (.5x) __..__..__..__..__..__..__..__.._
 72
   65
 73
    6
 40
15.875
 49
6.35
 74
    0
 49
-3.175
 74
    0
 49
0
 74
    0
 49
-3.175
 74
    0
 49
0
 74
    0
 49
-3.175
 74
    0
  0
LTYPE
  5
41
330
5
100
AcDbSymbolTableRecord
100
AcDbLinetypeTableRecord
  2
DIVIDEX2
 70
    0
  3
Divide (2x) ________  .  .  ________  .  .  _
 72
   65
 73
    6
 40
63.5
 49
25.4
 74
    0
 49
-12.7
 74
    0
 49
0
 74
    0
 49
-12.7
 74
    0
 49
0
 74
    0
 49
-12.7
 74
    0
  0
LTYPE
  5
42
330
5
100
AcDbSymbolTableRecord
100
AcDbLinetypeTableRecord
  2
BORDER
 70
    0
  3
Border __ __ . __ __ . __ __ . __ __ . __ __ .
 72
   65
 73
    6
 40
44.45
 49
12.7
 74
    0
 49
-6.35
 74
    0
 49
12.7
 74
    0
 49
-6.35
 74
    0
 49
0
 74
    0
 49
-6.35
 74
    0
  0
LTYPE
  5
43
330
5
100
AcDbSymbolTableRecord
100
AcDbLinetypeTableRecord
  2
BORDERTINY
 70
    0
  3
Border (.15x) __.__.__.__.__.__.__.__.__.__.__.
 72
   65
 73
    6
 40
6.6675
 49
1.905
 74
    0
 49
-0.9525
 74
    0
 49
1.905
 74
    0
 49
-0.9525
 74
    0
 49
0
 74
    0
 49
-0.9525
 74
    0
  0
LTYPE
  5
44
330
5
100
AcDbSymbolTableRecord
100
AcDbLinetypeTableRecord
  2
BORDER2
 70
    0
  3
Border (.5x) __.__.__.__.__.__.__.__.__.__.__.
 72
   65
 73
    6
 40
22.225
 49
6.35
 74
    0
 49
-3.175
 74
    0
 49
6.35
 74
    0
 49
-3.175
 74
    0
 49
0
 74
    0
 49
-3.175
 74
    0
  0
LTYPE
  5
45
330
5
100
AcDbSymbolTableRecord
100
AcDbLinetypeTableRecord
  2
BORDERX2
 70
    0
  3
Border (2x) ____  ____  .  ____  ____  .  ___
 72
   65
 73
    6
 40
88.89999999999999
 49
25.4
 74
    0
 49
-12.7
 74
    0
 49
25.4
 74
    0
 49
-12.7
 74
    0
 49
0
 74
    0
 49
-12.7
 74
    0
  0
LTYPE
  5
46
330
5
100
AcDbSymbolTableRecord
100
AcDbLinetypeTableRecord
  2
CENTER
 70
    0
  3
Center ____ _ ____ _ ____ _ ____ _ ____ _ ____
 72
   65
 73
    4
 40
50.8
 49
31.75
 74
    0
 49
-6.35
 74
    0
 49
6.35
 74
    0
 49
-6.35
 74
    0
  0
LTYPE
  5
47
330
5
100
AcDbSymbolTableRecord
100
AcDbLinetypeTableRecord
  2
CENTERTINY
 70
    0
  3
Center (.15x) ___ _ ___ _ ___ _ ___ _ ___ _ ___
 72
   65
 73
    4
 40
7.62
 49
4.7625
 74
    0
 49
-0.9525
 74
    0
 49
0.9525
 74
    0
 49
-0.9525
 74
    0
  0
LTYPE
  5
48
330
5
100
AcDbSymbolTableRecord
100
AcDbLinetypeTableRecord
  2
CENTER2
 70
    0
  3
Center (.5x) ___ _ ___ _ ___ _ ___ _ ___ _ ___
 72
   65
 73
    4
 40
28.575
 49
19.05
 74
    0
 49
-3.175
 74
    0
 49
3.175
 74
    0
 49
-3.175
 74
    0
  0
LTYPE
  5
49
330
5
100
AcDbSymbolTableRecord
100
AcDbLinetypeTableRecord
  2
CENTERX2
 70
    0
  3
Center (2x) ________  __  ________  __  _____
 72
   65
 73
    4
 40
101.6
 49
63.5
 74
    0
 49
-12.7
 74
    0
 49
12.7
 74
    0
 49
-12.7
 74
    0
  0
ENDTAB
  0
TABLE
  2
LAYER
  5
2
330
0
100
AcDbSymbolTable
 70
    1
  0
LAYER
  5
10
330
2
100
AcDbSymbolTableRecord
100
AcDbLayerTableRecord
  2
0
 70
    0
 62
    7
  6
CONTINUOUS
370
    0
390
F
  0
LAYER
  5
4A
330
2
100
AcDbSymbolTableRecord
100
AcDbLayerTableRecord
  2
Dimensions
 70
    0
 62
    5
  6
CONTINUOUS
370
    0
390
F
  0
ENDTAB
  0
TABLE
  2
STYLE
  5
3
330
0
100
AcDbSymbolTable
 70
    3
  0
STYLE
  5
4B
330
2
100
AcDbSymbolTableRecord
100
AcDbTextStyleTableRecord
  2
STANDARD
 70
    0
 40
0
 41
1
 50
0
 71
    0
 42
1
  3
STANDARD
  4

  0
ENDTAB
  0
TABLE
  2
VIEW
  5
6
330
0
100
AcDbSymbolTable
 70
    0
  0
ENDTAB
  0
TABLE
  2
UCS
  5
7
330
0
100
AcDbSymbolTable
 70
    0
  0
ENDTAB
  0
TABLE
  2
APPID
  5
9
330
0
100
AcDbSymbolTable
 70
    1
  0
APPID
  5
12
330
9
100
AcDbSymbolTableRecord
100
AcDbRegAppTableRecord
  2
ACAD
 70
    0
  0
APPID
  5
4C
330
9
100
AcDbSymbolTableRecord
100
AcDbRegAppTableRecord
  2
LibreCad
 70
    0
  0
ENDTAB
  0
TABLE
  2
DIMSTYLE
  5
A
330
0
100
AcDbSymbolTable
 70
    1
100
AcDbDimStyleTable
 71
    1
  0
DIMSTYLE
105
4D
330
A
100
AcDbSymbolTableRecord
100
AcDbDimStyleTableRecord
  2
Standard
 70
    0
 40
1
 41
1
 42
0.625
 43
0.38
 44
1.25
 45
0
 46
0
 47
0
 48
0
 49
1
140
2.5
141
0.09
142
0
143
25.4
144
1
145
0
146
1
147
0.625
148
0
 71
    0
 72
    0
 73
    0
 74
    1
 75
    0
 76
    0
 77
    0
 78
    1
 79
    0
170
    0
171
    2
172
    0
173
    0
174
    0
175
    0
176
    5
177
    5
178
    5
179
    2
271
    2
272
    4
273
    2
274
    2
275
    0
276
    0
277
    2
278
    0
279
    0
280
    0
281
    0
282
    0
283
    1
284
    0
285
    0
286
    0
288
    0
289
    3
340
standard
341

371
   -2
372
   -2
  0
ENDTAB
  0
TABLE
  2
BLOCK_RECORD
  5
1
330
0
100
AcDbSymbolTable
 70
    2
  0
BLOCK_RECORD
  5
1F
330
1
100
AcDbSymbolTableRecord
100
AcDbBlockTableRecord
  2
*Model_Space
 70
    0
280
    1
281
    0
  0
BLOCK_RECORD
  5
1E
330
1
100
AcDbSymbolTableRecord
100
AcDbBlockTableRecord
  2
*Paper_Space
 70
    0
280
    1
281
    0
  0
BLOCK_RECORD
  5
4E
330
1
100
AcDbSymbolTableRecord
100
AcDbBlockTableRecord
  2
*D16
 70
    0
280
    1
281
    0
  0
BLOCK_RECORD
  5
51
330
1
100
AcDbSymbolTableRecord
100
AcDbBlockTableRecord
  2
*D1
 70
    0
280
    1
281
    0
  0
BLOCK_RECORD
  5
54
330
1
100
AcDbSymbolTableRecord
100
AcDbBlockTableRecord
  2
*D8
 70
    0
280
    1
281
    0
  0
BLOCK_RECORD
  5
57
330
1
100
AcDbSymbolTableRecord
100
AcDbBlockTableRecord
  2
*D27
 70
    0
280
    1
281
    0
  0
BLOCK_RECORD
  5
5A
330
1
100
AcDbSymbolTableRecord
100
AcDbBlockTableRecord
  2
*D28
 70
    0
280
    1
281
    0
  0
BLOCK_RECORD
  5
5D
330
1
100
AcDbSymbolTableRecord
100
AcDbBlockTableRecord
  2
*D31
 70
    0
280
    1
281
    0
  0
BLOCK_RECORD
  5
60
330
1
100
AcDbSymbolTableRecord
100
AcDbBlockTableRecord
  2
*D14
 70
    0
280
    1
281
    0
  0
BLOCK_RECORD
  5
63
330
1
100
AcDbSymbolTableRecord
100
AcDbBlockTableRecord
  2
*D19
 70
    0
280
    1
281
    0
  0
BLOCK_RECORD
  5
66
330
1
100
AcDbSymbolTableRecord
100
AcDbBlockTableRecord
  2
*D32
 70
    0
280
    1
281
    0
  0
BLOCK_RECORD
  5
69
330
1
100
AcDbSymbolTableRecord
100
AcDbBlockTableRecord
  2
*D3
 70
    0
280
    1
281
    0
  0
BLOCK_RECORD
  5
6C
330
1
100
AcDbSymbolTableRecord
100
AcDbBlockTableRecord
  2
*D9
 70
    0
280
    1
281
    0
  0
BLOCK_RECORD
  5
6F
330
1
100
AcDbSymbolTableRecord
100
AcDbBlockTableRecord
  2
*D18
 70
    0
280
    1
281
    0
  0
BLOCK_RECORD
  5
72
330
1
100
AcDbSymbolTableRecord
100
AcDbBlockTableRecord
  2
*D25
 70
    0
280
    1
281
    0
  0
BLOCK_RECORD
  5
75
330
1
100
AcDbSymbolTableRecord
100
AcDbBlockTableRecord
  2
*D34
 70
    0
280
    1
281
    0
  0
BLOCK_RECORD
  5
78
330
1
100
AcDbSymbolTableRecord
100
AcDbBlockTableRecord
  2
*D30
 70
    0
280
    1
281
    0
  0
BLOCK_RECORD
  5
7B
330
1
100
AcDbSymbolTableRecord
100
AcDbBlockTableRecord
  2
*D7
 70
    0
280
    1
281
    0
  0
BLOCK_RECORD
  5
7E
330
1
100
AcDbSymbolTableRecord
100
AcDbBlockTableRecord
  2
*D6
 70
    0
280
    1
281
    0
  0
BLOCK_RECORD
  5
81
330
1
100
AcDbSymbolTableRecord
100
AcDbBlockTableRecord
  2
*D24
 70
    0
280
    1
281
    0
  0
BLOCK_RECORD
  5
84
330
1
100
AcDbSymbolTableRecord
100
AcDbBlockTableRecord
  2
*D12
 70
    0
280
    1
281
    0
  0
BLOCK_RECORD
  5
87
330
1
100
AcDbSymbolTableRecord
100
AcDbBlockTableRecord
  2
*D17
 70
    0
280
    1
281
    0
  0
BLOCK_RECORD
  5
8A
330
1
100
AcDbSymbolTableRecord
100
AcDbBlockTableRecord
  2
*D11
 70
    0
280
    1
281
    0
  0
BLOCK_RECORD
  5
8D
330
1
100
AcDbSymbolTableRecord
100
AcDbBlockTableRecord
  2
*D21
 70
    0
280
    1
281
    0
  0
BLOCK_RECORD
  5
90
330
1
100
AcDbSymbolTableRecord
100
AcDbBlockTableRecord
  2
*D20
 70
    0
280
    1
281
    0
  0
BLOCK_RECORD
  5
93
330
1
100
AcDbSymbolTableRecord
100
AcDbBlockTableRecord
  2
*D35
 70
    0
280
    1
281
    0
  0
BLOCK_RECORD
  5
96
330
1
100
AcDbSymbolTableRecord
100
AcDbBlockTableRecord
  2
*D4
 70
    0
280
    1
281
    0
  0
BLOCK_RECORD
  5
99
330
1
100
AcDbSymbolTableRecord
100
AcDbBlockTableRecord
  2
*D36
 70
    0
280
    1
281
    0
  0
BLOCK_RECORD
  5
9C
330
1
100
AcDbSymbolTableRecord
100
AcDbBlockTableRecord
  2
*D22
 70
    0
280
    1
281
    0
  0
BLOCK_RECORD
  5
9F
330
1
100
AcDbSymbolTableRecord
100
AcDbBlockTableRecord
  2
*D29
 70
    0
280
    1
281
    0
  0
BLOCK_RECORD
  5
A2
330
1
100
AcDbSymbolTableRecord
100
AcDbBlockTableRecord
  2
*D23
 70
    0
280
    1
281
    0
  0
BLOCK_RECORD
  5
A5
330
1
100
AcDbSymbolTableRecord
100
AcDbBlockTableRecord
  2
*D2
 70
    0
280
    1
281
    0
  0
BLOCK_RECORD
  5
A8
330
1
100
AcDbSymbolTableRecord
100
AcDbBlockTableRecord
  2
*D5
 70
    0
280
    1
281
    0
  0
BLOCK_RECORD
  5
AB
330
1
100
AcDbSymbolTableRecord
100
AcDbBlockTableRecord
  2
*D10
 70
    0
280
    1
281
    0
  0
BLOCK_RECORD
  5
AE
330
1
100
AcDbSymbolTableRecord
100
AcDbBlockTableRecord
  2
*D13
 70
    0
280
    1
281
    0
  0
BLOCK_RECORD
  5
B1
330
1
100
AcDbSymbolTableRecord
100
AcDbBlockTableRecord
  2
*D33
 70
    0
280
    1
281
    0
  0
BLOCK_RECORD
  5
B4
330
1
100
AcDbSymbolTableRecord
100
AcDbBlockTableRecord
  2
*D15
 70
    0
280
    1
281
    0
  0
BLOCK_RECORD
  5
B7
330
1
100
AcDbSymbolTableRecord
100
AcDbBlockTableRecord
  2
*D26
 70
    0
280
    1
281
    0
  0
ENDTAB
  0
ENDSEC
  0
SECTION
  2
BLOCKS
  0
BLOCK
  5
20
330
1F
100
AcDbEntity
  8
0
100
AcDbBlockBegin
  2
*Model_Space
 70
    0
 10
0
 20
0
 30
0
  3
*Model_Space
  1

  0
ENDBLK
  5
21
330
1F
100
AcDbEntity
  8
0
100
AcDbBlockEnd
  0
BLOCK
  5
1C
330
1B
100
AcDbEntity
  8
0
100
AcDbBlockBegin
  2
*Paper_Space
 70
    0
 10
0
 20
0
 30
0
  3
*Paper_Space
  1

  0
ENDBLK
  5
1D
330
1F
100
AcDbEntity
  8
0
100
AcDbBlockEnd
  0
BLOCK
  5
4F
330
4E
100
AcDbEntity
  8
0
100
AcDbBlockBegin
  2
*D16
 70
    1
 10
0
 20
0
  3
*D16
  1

  0
LINE
  5
BA
100
AcDbEntity
  8
Dimensions
  6
ByBlock
 62
    5
370
   -2
100
AcDbLine
 10
-75.8
 20
50
 11
75.8
 21
50
  0
MTEXT
  5
BB
100
AcDbEntity
  8
Dimensions
  6
CONTINUOUS
 62
    5
370
   -2
100
AcDbMText
 10
1.148068456708479e-16
 20
51.875
 30
0
 40
2.5
 41
17.08333333333364
 71
    5
 72
    1
  1
151.6 %%P 0.2
  7
standard
210
0
220
0
230
1
 50
0
 73
    2
 44
1
  0
SOLID
  5
BC
100
AcDbEntity
  8
Dimensions
  6
ByBlock
 62
    5
370
   -2
100
AcDbTrace
 10
-75.8
 20
50
 30
0
 11
-74.8
 21
50.16651386310914
 31
0
 12
-74.8
 22
49.83348613689086
 32
0
 13
-74.8
 23
49.83348613689086
 33
0
  0
SOLID
  5
BD
100
AcDbEntity
  8
Dimensions
  6
ByBlock
 62
    5
370
   -2
100
AcDbTrace
 10
75.8
 20
50
 30
0
 11
74.8
 21
49.83348613689086
 31
0
 12
74.8
 22
50.16651386310914
 32
0
 13
74.8
 23
50.16651386310914
 33
0
  0
LINE
  5
BE
100
AcDbEntity
  8
Dimensions
  6
ByBlock
 62
    5
370
   -2
100
AcDbLine
 10
-75.8
 20
37.425
 11
-75.8
 21
51.25
  0
LINE
  5
BF
100
AcDbEntity
  8
Dimensions
  6
ByBlock
 62
    5
370
   -2
100
AcDbLine
 10
75.8
 20
37.425
 11
75.8
 21
51.25
  0
ENDBLK
  5
50
330
4E
100
AcDbEntity
  8
0
100
AcDbBlockEnd
  0
BLOCK
  5
52
330
51
100
AcDbEntity
  8
0
100
AcDbBlockBegin
  2
*D1
 70
    1
 10
0
 20
0
  3
*D1
  1

  0
LINE
  5
C0
100
AcDbEntity
  8
Dimensions
  6
ByBlock
 62
    5
370
   -2
100
AcDbLine
 10
-100
 20
40.3
 11
-100
 21
1.387778780781406e-17
  0
MTEXT
  5
C1
100
AcDbEntity
  8
Dimensions
  6
CONTINUOUS
 62
    5
370
   -2
100
AcDbMText
 10
-101.875
 20
20.15
 30
0
 40
2.5
 41
8.05555555555571
 71
    5
 72
    1
  1
40.30
  7
standard
210
0
220
0
230
1
 50
90
 73
    2
 44
1
  0
SOLID
  5
C2
100
AcDbEntity
  8
Dimensions
  6
ByBlock
 62
    5
370
   -2
100
AcDbTrace
 10
-100
 20
40.3
 30
0
 11
-99.83348613689087
 21
39.3
 31
0
 12
-100.1665138631091
 22
39.3
 32
0
 13
-100.1665138631091
 23
39.3
 33
0
  0
SOLID
  5
C3
100
AcDbEntity
  8
Dimensions
  6
ByBlock
 62
    5
370
   -2
100
AcDbTrace
 10
-100
 20
1.387778780781406e-17
 30
0
 11
-100.1665138631091
 21
1
 31
0
 12
-99.83348613689087
 22
1
 32
0
 13
-99.83348613689087
 23
1
 33
0
  0
LINE
  5
C4
100
AcDbEntity
  8
Dimensions
  6
ByBlock
 62
    5
370
   -2
100
AcDbLine
 10
-76.425
 20
40.3
 11
-101.25
 21
40.3
  0
LINE
  5
C5
100
AcDbEntity
  8
Dimensions
  6
ByBlock
 62
    5
370
   -2
100
AcDbLine
 10
-76.425
 20
9.041568492171304e-17
 11
-101.25
 21
1.669535820356112e-16
  0
ENDBLK
  5
53
330
51
100
AcDbEntity
  8
0
100
AcDbBlockEnd
  0
BLOCK
  5
55
330
54
100
AcDbEntity
  8
0
100
AcDbBlockBegin
  2
*D8
 70
    1
 10
0
 20
0
  3
*D8
  1

  0
LINE
  5
C6
100
AcDbEntity
  8
Dimensions
  6
ByBlock
 62
    5
370
   -2
100
AcDbLine
 10
58.10000000000001
 20
-10
 11
68.90000000000001
 21
-10
  0
MTEXT
  5
C7
100
AcDbEntity
  8
Dimensions
  6
CONTINUOUS
 62
    5
370
   -2
100
AcDbMText
 10
63.50000000000001
 20
-8.125
 30
0
 40
2.5
 41
7.222222222222222
 71
    5
 72
    1
  1
10.80
  7
standard
210
0
220
0
230
1
 50
0
 73
    2
 44
1
  0
SOLID
  5
C8
100
AcDbEntity
  8
Dimensions
  6
ByBlock
 62
    5
370
   -2
100
AcDbTrace
 10
58.10000000000001
 20
-10
 30
0
 11
59.10000000000001
 21
-9.833486136890864
 31
0
 12
59.10000000000001
 22
-10.16651386310914
 32
0
 13
59.10000000000001
 23
-10.16651386310914
 33
0
  0
SOLID
  5
C9
100
AcDbEntity
  8
Dimensions
  6
ByBlock
 62
    5
370
   -2
100
AcDbTrace
 10
68.90000000000001
 20
-10
 30
0
 11
67.90000000000001
 21
-10.16651386310914
 31
0
 12
67.90000000000001
 22
-9.833486136890864
 32
0
 13
67.90000000000001
 23
-9.833486136890864
 33
0
  0
LINE
  5
CA
100
AcDbEntity
  8
Dimensions
  6
ByBlock
 62
    5
370
   -2
100
AcDbLine
 10
58.10000000000001
 20
8.725
 11
58.10000000000001
 21
-11.25
  0
LINE
  5
CB
100
AcDbEntity
  8
Dimensions
  6
ByBlock
 62
    5
370
   -2
100
AcDbLine
 10
68.90000000000001
 20
8.725
 11
68.90000000000001
 21
-11.25
  0
ENDBLK
  5
56
330
54
100
AcDbEntity
  8
0
100
AcDbBlockEnd
  0
BLOCK
  5
58
330
57
100
AcDbEntity
  8
0
100
AcDbBlockBegin
  2
*D27
 70
    1
 10
0
 20
0
  3
*D27
  1

  0
LINE
  5
CC
100
AcDbEntity
  8
Dimensions
  6
ByBlock
 62
    5
370
   -2
100
AcDbLine
 10
32.7
 20
-5
 11
43.50000000000001
 21
-5
  0
MTEXT
  5
CD
100
AcDbEntity
  8
Dimensions
  6
CONTINUOUS
 62
    5
370
   -2
100
AcDbMText
 10
38.10000000000001
 20
-3.125
 30
0
 40
2.5
 41
7.222222222222222
 71
    5
 72
    1
  1
10.80
  7
standard
210
0
220
0
230
1
 50
0
 73
    2
 44
1
  0
SOLID
  5
CE
100
AcDbEntity
  8
Dimensions
  6
ByBlock
 62
    5
370
   -2
100
AcDbTrace
 10
32.7
 20
-5
 30
0
 11
33.7
 21
-4.833486136890864
 31
0
 12
33.7
 22
-5.166513863109136
 32
0
 13
33.7
 23
-5.166513863109136
 33
0
  0
SOLID
  5
CF
100
AcDbEntity
  8
Dimensions
  6
ByBlock
 62
    5
370
   -2
100
AcDbTrace
 10
43.50000000000001
 20
-5
 30
0
 11
42.50000000000001
 21
-5.166513863109136
 31
0
 12
42.50000000000001
 22
-4.833486136890864
 32
0
 13
42.50000000000001
 23
-4.833486136890864
 33
0
  0
LINE
  5
D0
100
AcDbEntity
  8
Dimensions
  6
ByBlock
 62
    5
370
   -2
100
AcDbLine
 10
32.7
 20
8.725
 11
32.7
 21
-6.25
  0
LINE
  5
D1
100
AcDbEntity
  8
Dimensions
  6
ByBlock
 62
    5
370
   -2
100
AcDbLine
 10
43.50000000000001
 20
8.725
 11
43.50000000000001
 21
-6.25
  0
ENDBLK
  5
59
330
57
100
AcDbEntity
  8
0
100
AcDbBlockEnd
  0
BLOCK
  5
5B
330
5A
100
AcDbEntity
  8
0
100
AcDbBlockBegin
  2
*D28
 70
    1
 10
0
 20
0
  3
*D28
  1

  0
LINE
  5
D2
100
AcDbEntity
  8
Dimensions
  6
ByBlock
 62
    5
370
   -2
100
AcDbLine
 10
0
 20
-5.000000000000002
 11
32.7
 21
-5.000000000000002
  0
MTEXT
  5
D3
100
AcDbEntity
  8
Dimensions
  6
CONTINUOUS
 62
    5
370
   -2
100
AcDbMText
 10
16.35
 20
-3.125000000000002
 30
0
 40
2.5
 41
7.777777777777933
 71
    5
 72
    1
  1
32.70
  7
standard
210
0
220
0
230
1
 50
0
 73
    2
 44
1
  0
SOLID
  5
D4
100
AcDbEntity
  8
Dimensions
  6
ByBlock
 62
    5
370
   -2
100
AcDbTrace
 10
0
 20
-5.000000000000002
 30
0
 11
1
 21
-4.833486136890865
 31
0
 12
1
 22
-5.166513863109138
 32
0
 13
1
 23
-5.166513863109138
 33
0
  0
SOLID
  5
D5
100
AcDbEntity
  8
Dimensions
  6
ByBlock
 62
    5
370
   -2
100
AcDbTrace
 10
32.7
 20
-5.000000000000002
 30
0
 11
31.7
 21
-5.166513863109138
 31
0
 12
31.7
 22
-4.833486136890865
 32
0
 13
31.7
 23
-4.833486136890865
 33
0
  0
LINE
  5
D6
100
AcDbEntity
  8
Dimensions
  6
ByBlock
 62
    5
370
   -2
100
AcDbLine
 10
-1.980735725177346e-16
 20
-0.625
 11
-2.296136913416957e-16
 21
-6.250000000000002
  0
LINE
  5
D7
100
AcDbEntity
  8
Dimensions
  6
ByBlock
 62
    5
370
   -2
100
AcDbLine
 10
32.7
 20
8.725000000000001
 11
32.7
 21
-6.250000000000002
  0
ENDBLK
  5
5C
330
5A
100
AcDbEntity
  8
0
100
AcDbBlockEnd
  0
BLOCK
  5
5E
330
5D
100
AcDbEntity
  8
0
100
AcDbBlockBegin
  2
*D31
 70
    1
 10
0
 20
0
  3
*D31
  1

  0
LINE
  5
D8
100
AcDbEntity
  8
Dimensions
  6
ByBlock
 62
    5
370
   -2
100
AcDbLine
 10
-63.5
 20
7.499999999999996
 11
-63.5
 21
10
  0
MTEXT
  5
D9
100
AcDbEntity
  8
Dimensions
  6
CONTINUOUS
 62
    5
370
   -2
100
AcDbMText
 10
-65.375
 20
13.54166666666675
 30
0
 40
2.5
 41
5.833333333333489
 71
    5
 72
    1
  1
2.50
  7
standard
210
0
220
0
230
1
 50
90
 73
    2
 44
1
  0
SOLID
  5
DA
100
AcDbEntity
  8
Dimensions
  6
ByBlock
 62
    5
370
   -2
100
AcDbTrace
 10
-63.5
 20
7.499999999999996
 30
0
 11
-63.66651386310914
 21
8.499999999999995
 31
0
 12
-63.33348613689086
 22
8.499999999999996
 32
0
 13
-63.33348613689086
 23
8.499999999999996
 33
0
  0
SOLID
  5
DB
100
AcDbEntity
  8
Dimensions
  6
ByBlock
 62
    5
370
   -2
100
AcDbTrace
 10
-63.5
 20
10
 30
0
 11
-63.33348613689086
 21
9
 31
0
 12
-63.66651386310914
 22
9
 32
0
 13
-63.66651386310914
 23
9
 33
0
  0
ENDBLK
  5
5F
330
5D
100
AcDbEntity
  8
0
100
AcDbBlockEnd
  0
BLOCK
  5
61
330
60
100
AcDbEntity
  8
0
100
AcDbBlockBegin
  2
*D14
 70
    1
 10
0
 20
0
  3
*D14
  1

  0
LINE
  5
DC
100
AcDbEntity
  8
Dimensions
  6
ByBlock
 62
    5
370
   -2
100
AcDbLine
 10
74.24934085124407
 20
37.36387605409306
 11
77.35065914875592
 21
36.23612394590693
  0
MTEXT
  5
DD
100
AcDbEntity
  8
Dimensions
  6
CONTINUOUS
 62
    5
370
   -2
100
AcDbMText
 10
83.40829226353956
 20
36.02846757076735
 30
0
 40
2.5
 41
10.27777777777824
 71
    5
 72
    1
  1
6-%%C3.3
  7
standard
210
0
220
0
230
1
 50
340.0168934781
 73
    2
 44
1
  0
SOLID
  5
DE
100
AcDbEntity
  8
Dimensions
  6
ByBlock
 62
    5
370
   -2
100
AcDbTrace
 10
74.24934085124407
 20
37.36387605409306
 30
0
 11
75.24603923235783
 21
37.17862162447598
 31
0
 12
75.13222931710719
 22
36.86564435753674
 32
0
 13
75.13222931710719
 23
36.86564435753674
 33
0
  0
SOLID
  5
DF
100
AcDbEntity
  8
Dimensions
  6
ByBlock
 62
    5
370
   -2
100
AcDbTrace
 10
77.35065914875592
 20
36.23612394590693
 30
0
 11
76.35396076764216
 21
36.42137837552401
 31
0
 12
76.46777068289281
 22
36.73435564246326
 32
0
 13
76.46777068289281
 23
36.73435564246326
 33
0
  0
ENDBLK
  5
62
330
60
100
AcDbEntity
  8
0
100
AcDbBlockEnd
  0
BLOCK
  5
64
330
63
100
AcDbEntity
  8
0
100
AcDbBlockBegin
  2
*D19
 70
    1
 10
0
 20
0
  3
*D19
  1

  0
LINE
  5
E0
100
AcDbEntity
  8
Dimensions
  6
ByBlock
 62
    5
370
   -2
100
AcDbLine
 10
-8.9
 20
41
 11
-2.77555756156289e-17
 21
41
  0
MTEXT
  5
E1
100
AcDbEntity
  8
Dimensions
  6
CONTINUOUS
 62
    5
370
   -2
100
AcDbMText
 10
-4.45
 20
42.875
 30
0
 40
2.5
 41
5.833333333333334
 71
    5
 72
    1
  1
8.90
  7
standard
210
0
220
0
230
1
 50
0
 73
    2
 44
1
  0
SOLID
  5
E2
100
AcDbEntity
  8
Dimensions
  6
ByBlock
 62
    5
370
   -2
100
AcDbTrace
 10
-8.9
 20
41
 30
0
 11
-7.9
 21
41.16651386310914
 31
0
 12
-7.9
 22
40.83348613689086
 32
0
 13
-7.9
 23
40.83348613689086
 33
0
  0
SOLID
  5
E3
100
AcDbEntity
  8
Dimensions
  6
ByBlock
 62
    5
370
   -2
100
AcDbTrace
 10
-2.77555756156289e-17
 20
41
 30
0
 11
-1
 21
40.83348613689086
 31
0
 12
-1
 22
41.16651386310914
 32
0
 13
-1
 23
41.16651386310914
 33
0
  0
LINE
  5
E4
100
AcDbEntity
  8
Dimensions
  6
ByBlock
 62
    5
370
   -2
100
AcDbLine
 10
-8.9
 20
28.025
 11
-8.9
 21
42.25
  0
LINE
  5
E5
100
AcDbEntity
  8
Dimensions
  6
ByBlock
 62
    5
370
   -2
100
AcDbLine
 10
1.051337294132038e-17
 20
40.925
 11
4.878232149826968e-17
 21
42.25
  0
ENDBLK
  5
65
330
63
100
AcDbEntity
  8
0
100
AcDbBlockEnd
  0
BLOCK
  5
67
330
66
100
AcDbEntity
  8
0
100
AcDbBlockBegin
  2
*D32
 70
    1
 10
0
 20
0
  3
*D32
  1

  0
LINE
  5
E6
100
AcDbEntity
  8
Dimensions
  6
ByBlock
 62
    5
370
   -2
100
AcDbLine
 10
-55
 20
8.75
 11
-55
 21
-6.039613253960851e-16
  0
MTEXT
  5
E7
100
AcDbEntity
  8
Dimensions
  6
CONTINUOUS
 62
    5
370
   -2
100
AcDbMText
 10
-56.875
 20
4.375
 30
0
 40
2.5
 41
5.833333333333488
 71
    5
 72
    1
  1
8.75
  7
standard
210
0
220
0
230
1
 50
90
 73
    2
 44
1
  0
SOLID
  5
E8
100
AcDbEntity
  8
Dimensions
  6
ByBlock
 62
    5
370
   -2
100
AcDbTrace
 10
-55
 20
8.75
 30
0
 11
-54.83348613689086
 21
7.75
 31
0
 12
-55.16651386310914
 22
7.75
 32
0
 13
-55.16651386310914
 23
7.75
 33
0
  0
SOLID
  5
E9
100
AcDbEntity
  8
Dimensions
  6
ByBlock
 62
    5
370
   -2
100
AcDbTrace
 10
-55
 20
-6.039613253960851e-16
 30
0
 11
-55.16651386310914
 21
0.9999999999999993
 31
0
 12
-54.83348613689086
 22
0.9999999999999994
 32
0
 13
-54.83348613689086
 23
0.9999999999999994
 33
0
  0
LINE
  5
EA
100
AcDbEntity
  8
Dimensions
  6
ByBlock
 62
    5
370
   -2
100
AcDbLine
 10
-62.875
 20
8.75
 11
-53.75
 21
8.75
  0
LINE
  5
EB
100
AcDbEntity
  8
Dimensions
  6
ByBlock
 62
    5
370
   -2
100
AcDbLine
 10
-62.875
 20
0
 11
-53.75
 21
-6.039613253960851e-16
  0
ENDBLK
  5
68
330
66
100
AcDbEntity
  8
0
100
AcDbBlockEnd
  0
BLOCK
  5
6A
330
69
100
AcDbEntity
  8
0
100
AcDbBlockBegin
  2
*D3
 70
    1
 10
0
 20
0
  3
*D3
  1

  0
LINE
  5
EC
100
AcDbEntity
  8
Dimensions
  6
ByBlock
 62
    5
370
   -2
100
AcDbLine
 10
-75.8
 20
-25
 11
75.8
 21
-25
  0
MTEXT
  5
ED
100
AcDbEntity
  8
Dimensions
  6
CONTINUOUS
 62
    5
370
   -2
100
AcDbMText
 10
1.148068456708479e-16
 20
-23.125
 30
0
 40
2.5
 41
17.08333333333364
 71
    5
 72
    1
  1
151.6 %%P 0.2
  7
standard
210
0
220
0
230
1
 50
0
 73
    2
 44
1
  0
SOLID
  5
EE
100
AcDbEntity
  8
Dimensions
  6
ByBlock
 62
    5
370
   -2
100
AcDbTrace
 10
-75.8
 20
-25
 30
0
 11
-74.8
 21
-24.83348613689087
 31
0
 12
-74.8
 22
-25.16651386310914
 32
0
 13
-74.8
 23
-25.16651386310914
 33
0
  0
SOLID
  5
EF
100
AcDbEntity
  8
Dimensions
  6
ByBlock
 62
    5
370
   -2
100
AcDbTrace
 10
75.8
 20
-25
 30
0
 11
74.8
 21
-25.16651386310913
 31
0
 12
74.8
 22
-24.83348613689087
 32
0
 13
74.8
 23
-24.83348613689087
 33
0
  0
LINE
  5
F0
100
AcDbEntity
  8
Dimensions
  6
ByBlock
 62
    5
370
   -2
100
AcDbLine
 10
-75.80000000000001
 20
2.875
 11
-75.8
 21
-26.25
  0
LINE
  5
F1
100
AcDbEntity
  8
Dimensions
  6
ByBlock
 62
    5
370
   -2
100
AcDbLine
 10
75.8
 20
2.875
 11
75.8
 21
-26.25
  0
ENDBLK
  5
6B
330
69
100
AcDbEntity
  8
0
100
AcDbBlockEnd
  0
BLOCK
  5
6D
330
6C
100
AcDbEntity
  8
0
100
AcDbBlockBegin
  2
*D9
 70
    1
 10
0
 20
0
  3
*D9
  1

  0
LINE
  5
F2
100
AcDbEntity
  8
Dimensions
  6
ByBlock
 62
    5
370
   -2
100
AcDbLine
 10
56
 20
8.75
 11
56
 21
-3.278488591718079e-16
  0
MTEXT
  5
F3
100
AcDbEntity
  8
Dimensions
  6
CONTINUOUS
 62
    5
370
   -2
100
AcDbMText
 10
54.125
 20
4.375
 30
0
 40
2.5
 41
5.833333333333488
 71
    5
 72
    1
  1
8.75
  7
standard
210
0
220
0
230
1
 50
90
 73
    2
 44
1
  0
SOLID
  5
F4
100
AcDbEntity
  8
Dimensions
  6
ByBlock
 62
    5
370
   -2
100
AcDbTrace
 10
56
 20
8.75
 30
0
 11
56.16651386310914
 21
7.75
 31
0
 12
55.83348613689086
 22
7.75
 32
0
 13
55.83348613689086
 23
7.75
 33
0
  0
SOLID
  5
F5
100
AcDbEntity
  8
Dimensions
  6
ByBlock
 62
    5
370
   -2
100
AcDbTrace
 10
56
 20
-3.278488591718079e-16
 30
0
 11
55.83348613689086
 21
0.9999999999999997
 31
0
 12
56.16651386310914
 22
0.9999999999999997
 32
0
 13
56.16651386310914
 23
0.9999999999999997
 33
0
  0
LINE
  5
F6
100
AcDbEntity
  8
Dimensions
  6
ByBlock
 62
    5
370
   -2
100
AcDbLine
 10
51.42500000000001
 20
8.75
 11
57.25
 21
8.75
  0
LINE
  5
F7
100
AcDbEntity
  8
Dimensions
  6
ByBlock
 62
    5
370
   -2
100
AcDbLine
 10
51.42500000000001
 20
4.163336342344337e-17
 11
57.25
 21
-3.278488591718079e-16
  0
ENDBLK
  5
6E
330
6C
100
AcDbEntity
  8
0
100
AcDbBlockEnd
  0
BLOCK
  5
70
330
6F
100
AcDbEntity
  8
0
100
AcDbBlockBegin
  2
*D18
 70
    1
 10
0
 20
0
  3
*D18
  1

  0
LINE
  5
F8
100
AcDbEntity
  8
Dimensions
  6
ByBlock
 62
    5
370
   -2
100
AcDbLine
 10
10.8
 20
45
 11
1.387778780781446e-17
 21
45
  0
MTEXT
  5
F9
100
AcDbEntity
  8
Dimensions
  6
CONTINUOUS
 62
    5
370
   -2
100
AcDbMText
 10
5.4
 20
46.875
 30
0
 40
2.5
 41
7.222222222222222
 71
    5
 72
    1
  1
10.80
  7
standard
210
0
220
0
230
1
 50
0
 73
    2
 44
1
  0
SOLID
  5
FA
100
AcDbEntity
  8
Dimensions
  6
ByBlock
 62
    5
370
   -2
100
AcDbTrace
 10
10.8
 20
45
 30
0
 11
9.800000000000001
 21
44.83348613689086
 31
0
 12
9.800000000000001
 22
45.16651386310914
 32
0
 13
9.800000000000001
 23
45.16651386310914
 33
0
  0
SOLID
  5
FB
100
AcDbEntity
  8
Dimensions
  6
ByBlock
 62
    5
370
   -2
100
AcDbTrace
 10
1.387778780781446e-17
 20
45
 30
0
 11
1
 21
45.16651386310914
 31
0
 12
1
 22
44.83348613689086
 32
0
 13
1
 23
44.83348613689086
 33
0
  0
LINE
  5
FC
100
AcDbEntity
  8
Dimensions
  6
ByBlock
 62
    5
370
   -2
100
AcDbLine
 10
10.8
 20
35.925
 11
10.8
 21
46.25
  0
LINE
  5
FD
100
AcDbEntity
  8
Dimensions
  6
ByBlock
 62
    5
370
   -2
100
AcDbLine
 10
5.214673636476375e-17
 20
40.925
 11
9.041568492171304e-17
 21
46.25
  0
ENDBLK
  5
71
330
6F
100
AcDbEntity
  8
0
100
AcDbBlockEnd
  0
BLOCK
  5
73
330
72
100
AcDbEntity
  8
0
100
AcDbBlockBegin
  2
*D25
 70
    1
 10
0
 20
0
  3
*D25
  1

  0
LINE
  5
FE
100
AcDbEntity
  8
Dimensions
  6
ByBlock
 62
    5
370
   -2
100
AcDbLine
 10
25.3444992329741
 20
7.501232741917235
 11
25.4555007670259
 21
9.998767258082765
  0
MTEXT
  5
FF
100
AcDbEntity
  8
Dimensions
  6
CONTINUOUS
 62
    5
370
   -2
100
AcDbMText
 10
23.73960205314181
 20
13.62019230652285
 30
0
 40
2.5
 41
5.833333333333489
 71
    5
 72
    1
  1
2.50
  7
standard
210
0
220
0
230
1
 50
87.45519562018698
 73
    2
 44
1
  0
SOLID
  5
100
100
AcDbEntity
  8
Dimensions
  6
ByBlock
 62
    5
370
   -2
100
AcDbTrace
 10
25.3444992329741
 20
7.501232741917235
 30
0
 11
25.22255019838077
 21
8.507639866081846
 31
0
 12
25.55524949480887
 22
8.492853230685041
 32
0
 13
25.55524949480887
 23
8.492853230685041
 33
0
  0
SOLID
  5
101
100
AcDbEntity
  8
Dimensions
  6
ByBlock
 62
    5
370
   -2
100
AcDbTrace
 10
25.4555007670259
 20
9.998767258082765
 30
0
 11
25.57744980161923
 21
8.992360133918154
 31
0
 12
25.24475050519113
 22
9.007146769314959
 32
0
 13
25.24475050519113
 23
9.007146769314959
 33
0
  0
ENDBLK
  5
74
330
72
100
AcDbEntity
  8
0
100
AcDbBlockEnd
  0
BLOCK
  5
76
330
75
100
AcDbEntity
  8
0
100
AcDbBlockBegin
  2
*D34
 70
    1
 10
0
 20
0
  3
*D34
  1

  0
LINE
  5
102
100
AcDbEntity
  8
Dimensions
  6
ByBlock
 62
    5
370
   -2
100
AcDbLine
 10
-50
 20
10.75
 11
-50
 21
7.750000000000001
  0
MTEXT
  5
103
100
AcDbEntity
  8
Dimensions
  6
CONTINUOUS
 62
    5
370
   -2
100
AcDbMText
 10
-51.875
 20
14.29166666666674
 30
0
 40
2.5
 41
5.833333333333488
 71
    5
 72
    1
  1
3.00
  7
standard
210
0
220
0
230
1
 50
90
 73
    2
 44
1
  0
SOLID
  5
104
100
AcDbEntity
  8
Dimensions
  6
ByBlock
 62
    5
370
   -2
100
AcDbTrace
 10
-50
 20
10.75
 30
0
 11
-49.83348613689086
 21
9.75
 31
0
 12
-50.16651386310914
 22
9.75
 32
0
 13
-50.16651386310914
 23
9.75
 33
0
  0
SOLID
  5
105
100
AcDbEntity
  8
Dimensions
  6
ByBlock
 62
    5
370
   -2
100
AcDbTrace
 10
-50
 20
7.750000000000001
 30
0
 11
-50.16651386310914
 21
8.75
 31
0
 12
-49.83348613689086
 22
8.75
 32
0
 13
-49.83348613689086
 23
8.75
 33
0
  0
LINE
  5
106
100
AcDbEntity
  8
Dimensions
  6
ByBlock
 62
    5
370
   -2
100
AcDbLine
 10
-44.125
 20
10.75
 11
-51.25
 21
10.75
  0
LINE
  5
107
100
AcDbEntity
  8
Dimensions
  6
ByBlock
 62
    5
370
   -2
100
AcDbLine
 10
-44.125
 20
7.75
 11
-51.25
 21
7.750000000000001
  0
ENDBLK
  5
77
330
75
100
AcDbEntity
  8
0
100
AcDbBlockEnd
  0
BLOCK
  5
79
330
78
100
AcDbEntity
  8
0
100
AcDbBlockBegin
  2
*D30
 70
    1
 10
0
 20
0
  3
*D30
  1

  0
LINE
  5
108
100
AcDbEntity
  8
Dimensions
  6
ByBlock
 62
    5
370
   -2
100
AcDbLine
 10
-44.6
 20
-5
 11
-31.6
 21
-5
  0
MTEXT
  5
109
100
AcDbEntity
  8
Dimensions
  6
CONTINUOUS
 62
    5
370
   -2
100
AcDbMText
 10
-38.1
 20
-3.125
 30
0
 40
2.5
 41
7.222222222222378
 71
    5
 72
    1
  1
13.00
  7
standard
210
0
220
0
230
1
 50
0
 73
    2
 44
1
  0
SOLID
  5
10A
100
AcDbEntity
  8
Dimensions
  6
ByBlock
 62
    5
370
   -2
100
AcDbTrace
 10
-44.6
 20
-5
 30
0
 11
-43.6
 21
-4.833486136890864
 31
0
 12
-43.6
 22
-5.166513863109136
 32
0
 13
-43.6
 23
-5.166513863109136
 33
0
  0
SOLID
  5
10B
100
AcDbEntity
  8
Dimensions
  6
ByBlock
 62
    5
370
   -2
100
AcDbTrace
 10
-31.6
 20
-5
 30
0
 11
-32.6
 21
-5.166513863109136
 31
0
 12
-32.6
 22
-4.833486136890864
 32
0
 13
-32.6
 23
-4.833486136890864
 33
0
  0
LINE
  5
10C
100
AcDbEntity
  8
Dimensions
  6
ByBlock
 62
    5
370
   -2
100
AcDbLine
 10
-44.6
 20
8.625
 11
-44.6
 21
-6.25
  0
LINE
  5
10D
100
AcDbEntity
  8
Dimensions
  6
ByBlock
 62
    5
370
   -2
100
AcDbLine
 10
-31.6
 20
8.625
 11
-31.6
 21
-6.25
  0
ENDBLK
  5
7A
330
78
100
AcDbEntity
  8
0
100
AcDbBlockEnd
  0
BLOCK
  5
7C
330
7B
100
AcDbEntity
  8
0
100
AcDbBlockBegin
  2
*D7
 70
    1
 10
0
 20
0
  3
*D7
  1

  0
LINE
  5
10E
100
AcDbEntity
  8
Dimensions
  6
ByBlock
 62
    5
370
   -2
100
AcDbLine
 10
25.4
 20
-15
 11
50.8
 21
-15
  0
MTEXT
  5
10F
100
AcDbEntity
  8
Dimensions
  6
CONTINUOUS
 62
    5
370
   -2
100
AcDbMText
 10
38.1
 20
-13.125
 30
0
 40
2.5
 41
8.055555555555712
 71
    5
 72
    1
  1
25.40
  7
standard
210
0
220
0
230
1
 50
0
 73
    2
 44
1
  0
SOLID
  5
110
100
AcDbEntity
  8
Dimensions
  6
ByBlock
 62
    5
370
   -2
100
AcDbTrace
 10
25.4
 20
-15
 30
0
 11
26.4
 21
-14.83348613689086
 31
0
 12
26.4
 22
-15.16651386310914
 32
0
 13
26.4
 23
-15.16651386310914
 33
0
  0
SOLID
  5
111
100
AcDbEntity
  8
Dimensions
  6
ByBlock
 62
    5
370
   -2
100
AcDbTrace
 10
50.8
 20
-15
 30
0
 11
49.8
 21
-15.16651386310914
 31
0
 12
49.8
 22
-14.83348613689086
 32
0
 13
49.8
 23
-14.83348613689086
 33
0
  0
LINE
  5
112
100
AcDbEntity
  8
Dimensions
  6
ByBlock
 62
    5
370
   -2
100
AcDbLine
 10
25.4
 20
8.125
 11
25.4
 21
-16.25
  0
LINE
  5
113
100
AcDbEntity
  8
Dimensions
  6
ByBlock
 62
    5
370
   -2
100
AcDbLine
 10
50.8
 20
8.125
 11
50.8
 21
-16.25
  0
ENDBLK
  5
7D
330
7B
100
AcDbEntity
  8
0
100
AcDbBlockEnd
  0
BLOCK
  5
7F
330
7E
100
AcDbEntity
  8
0
100
AcDbBlockBegin
  2
*D6
 70
    1
 10
0
 20
0
  3
*D6
  1

  0
LINE
  5
114
100
AcDbEntity
  8
Dimensions
  6
ByBlock
 62
    5
370
   -2
100
AcDbLine
 10
7.105427357601002e-15
 20
-10
 11
58.10000000000001
 21
-10
  0
MTEXT
  5
115
100
AcDbEntity
  8
Dimensions
  6
CONTINUOUS
 62
    5
370
   -2
100
AcDbMText
 10
29.05000000000001
 20
-8.125
 30
0
 40
2.5
 41
7.222222222222378
 71
    5
 72
    1
  1
58.10
  7
standard
210
0
220
0
230
1
 50
0
 73
    2
 44
1
  0
SOLID
  5
116
100
AcDbEntity
  8
Dimensions
  6
ByBlock
 62
    5
370
   -2
100
AcDbTrace
 10
7.105427357601002e-15
 20
-10
 30
0
 11
1.000000000000007
 21
-9.833486136890864
 31
0
 12
1.000000000000007
 22
-10.16651386310914
 32
0
 13
1.000000000000007
 23
-10.16651386310914
 33
0
  0
SOLID
  5
117
100
AcDbEntity
  8
Dimensions
  6
ByBlock
 62
    5
370
   -2
100
AcDbTrace
 10
58.10000000000001
 20
-10
 30
0
 11
57.10000000000001
 21
-10.16651386310914
 31
0
 12
57.10000000000001
 22
-9.833486136890864
 32
0
 13
57.10000000000001
 23
-9.833486136890864
 33
0
  0
LINE
  5
118
100
AcDbEntity
  8
Dimensions
  6
ByBlock
 62
    5
370
   -2
100
AcDbLine
 10
6.901048471823906e-16
 20
-0.6250000000000001
 11
7.986036690884463e-15
 21
-11.25
  0
LINE
  5
119
100
AcDbEntity
  8
Dimensions
  6
ByBlock
 62
    5
370
   -2
100
AcDbLine
 10
58.10000000000001
 20
8.725000000000001
 11
58.10000000000001
 21
-11.25
  0
ENDBLK
  5
80
330
7E
100
AcDbEntity
  8
0
100
AcDbBlockEnd
  0
BLOCK
  5
82
330
81
100
AcDbEntity
  8
0
100
AcDbBlockBegin
  2
*D24
 70
    1
 10
0
 20
0
  3
*D24
  1

  0
SOLID
  5
11A
100
AcDbEntity
  8
Dimensions
  6
ByBlock
 62
    5
370
   -2
100
AcDbTrace
 10
32.98734754081085
 20
11.55151726451432
 30
0
 11
32.15788273186967
 21
12.13436801499483
 31
0
 12
32.39150743137373
 22
12.37170104306245
 32
0
 13
32.39150743137373
 23
12.37170104306245
 33
0
  0
LINE
  5
11B
100
AcDbEntity
  8
Dimensions
  6
ByBlock
 62
    5
370
   -2
100
AcDbLine
 10
33.7
 20
10.85
 11
24.63347704698247
 21
19.77485853187663
  0
MTEXT
  5
11C
100
AcDbEntity
  8
Dimensions
  6
CONTINUOUS
 62
    5
370
   -2
100
AcDbMText
 10
30.12575716486101
 20
16.99941125917514
 30
0
 40
2.5
 41
9.722222222222221
 71
    5
 72
    1
  1
4-R1.0
  7
standard
210
0
220
0
230
1
 50
315.4511385467873
 73
    2
 44
1
  0
ENDBLK
  5
83
330
81
100
AcDbEntity
  8
0
100
AcDbBlockEnd
  0
BLOCK
  5
85
330
84
100
AcDbEntity
  8
0
100
AcDbBlockBegin
  2
*D12
 70
    1
 10
0
 20
0
  3
*D12
  1

  0
LINE
  5
11D
100
AcDbEntity
  8
Dimensions
  6
ByBlock
 62
    5
370
   -2
100
AcDbLine
 10
85
 20
6.85
 11
85
 21
11.85
  0
MTEXT
  5
11E
100
AcDbEntity
  8
Dimensions
  6
CONTINUOUS
 62
    5
370
   -2
100
AcDbMText
 10
83.125
 20
15.39166666666674
 30
0
 40
2.5
 41
5.833333333333488
 71
    5
 72
    1
  1
5.00
  7
standard
210
0
220
0
230
1
 50
90
 73
    2
 44
1
  0
SOLID
  5
11F
100
AcDbEntity
  8
Dimensions
  6
ByBlock
 62
    5
370
   -2
100
AcDbTrace
 10
85
 20
6.85
 30
0
 11
84.83348613689087
 21
7.85
 31
0
 12
85.16651386310913
 22
7.85
 32
0
 13
85.16651386310913
 23
7.85
 33
0
  0
SOLID
  5
120
100
AcDbEntity
  8
Dimensions
  6
ByBlock
 62
    5
370
   -2
100
AcDbTrace
 10
85
 20
11.85
 30
0
 11
85.16651386310913
 21
10.85
 31
0
 12
84.83348613689087
 22
10.85
 32
0
 13
84.83348613689087
 23
10.85
 33
0
  0
LINE
  5
121
100
AcDbEntity
  8
Dimensions
  6
ByBlock
 62
    5
370
   -2
100
AcDbLine
 10
64.125
 20
6.85
 11
86.25
 21
6.85
  0
LINE
  5
122
100
AcDbEntity
  8
Dimensions
  6
ByBlock
 62
    5
370
   -2
100
AcDbLine
 10
64.125
 20
11.85
 11
86.25
 21
11.85
  0
ENDBLK
  5
86
330
84
100
AcDbEntity
  8
0
100
AcDbBlockEnd
  0
BLOCK
  5
88
330
87
100
AcDbEntity
  8
0
100
AcDbBlockBegin
  2
*D17
 70
    1
 10
0
 20
0
  3
*D17
  1

  0
LINE
  5
123
100
AcDbEntity
  8
Dimensions
  6
ByBlock
 62
    5
370
   -2
100
AcDbLine
 10
-10.8
 20
45
 11
1.52655665885959e-16
 21
45
  0
MTEXT
  5
124
100
AcDbEntity
  8
Dimensions
  6
CONTINUOUS
 62
    5
370
   -2
100
AcDbMText
 10
-5.4
 20
46.875
 30
0
 40
2.5
 41
7.222222222222222
 71
    5
 72
    1
  1
10.80
  7
standard
210
0
220
0
230
1
 50
0
 73
    2
 44
1
  0
SOLID
  5
125
100
AcDbEntity
  8
Dimensions
  6
ByBlock
 62
    5
370
   -2
100
AcDbTrace
 10
-10.8
 20
45
 30
0
 11
-9.800000000000001
 21
45.16651386310914
 31
0
 12
-9.800000000000001
 22
44.83348613689086
 32
0
 13
-9.800000000000001
 23
44.83348613689086
 33
0
  0
SOLID
  5
126
100
AcDbEntity
  8
Dimensions
  6
ByBlock
 62
    5
370
   -2
100
AcDbTrace
 10
1.52655665885959e-16
 20
45
 30
0
 11
-0.9999999999999999
 21
44.83348613689086
 31
0
 12
-0.9999999999999999
 22
45.16651386310914
 32
0
 13
-0.9999999999999999
 23
45.16651386310914
 33
0
  0
LINE
  5
127
100
AcDbEntity
  8
Dimensions
  6
ByBlock
 62
    5
370
   -2
100
AcDbLine
 10
-10.8
 20
35.925
 11
-10.8
 21
46.25
  0
LINE
  5
128
100
AcDbEntity
  8
Dimensions
  6
ByBlock
 62
    5
370
   -2
100
AcDbLine
 10
1.909246144429083e-16
 20
40.925
 11
2.291935629998576e-16
 21
46.25
  0
ENDBLK
  5
89
330
87
100
AcDbEntity
  8
0
100
AcDbBlockEnd
  0
BLOCK
  5
8B
330
8A
100
AcDbEntity
  8
0
100
AcDbBlockBegin
  2
*D11
 70
    1
 10
0
 20
0
  3
*D11
  1

  0
SOLID
  5
129
100
AcDbEntity
  8
Dimensions
  6
ByBlock
 62
    5
370
   -2
100
AcDbTrace
 10
58.40385416392625
 20
11.56790039345105
 30
0
 11
57.58816796001139
 21
12.16988285445012
 31
0
 12
57.8272486956936
 22
12.40171871935408
 32
0
 13
57.8272486956936
 23
12.40171871935408
 33
0
  0
LINE
  5
12A
100
AcDbEntity
  8
Dimensions
  6
ByBlock
 62
    5
370
   -2
100
AcDbLine
 10
59.1
 20
10.85
 11
50.24347797439501
 21
19.98328833890503
  0
MTEXT
  5
12B
100
AcDbEntity
  8
Dimensions
  6
CONTINUOUS
 62
    5
370
   -2
100
AcDbMText
 10
55.66972930688135
 20
17.08086780881633
 30
0
 40
2.5
 41
9.722222222222221
 71
    5
 72
    1
  1
4-R1.0
  7
standard
210
0
220
0
230
1
 50
314.1185960034182
 73
    2
 44
1
  0
ENDBLK
  5
8C
330
8A
100
AcDbEntity
  8
0
100
AcDbBlockEnd
  0
BLOCK
  5
8E
330
8D
100
AcDbEntity
  8
0
100
AcDbBlockBegin
  2
*D21
 70
    1
 10
0
 20
0
  3
*D21
  1

  0
LINE
  5
12C
100
AcDbEntity
  8
Dimensions
  6
ByBlock
 62
    5
370
   -2
100
AcDbLine
 10
-20
 20
35.3
 11
-20
 21
1.4210854715202e-15
  0
MTEXT
  5
12D
100
AcDbEntity
  8
Dimensions
  6
CONTINUOUS
 62
    5
370
   -2
100
AcDbMText
 10
-21.875
 20
17.65
 30
0
 40
2.5
 41
7.777777777778243
 71
    5
 72
    1
  1
35.30
  7
standard
210
0
220
0
230
1
 50
90
 73
    2
 44
1
  0
SOLID
  5
12E
100
AcDbEntity
  8
Dimensions
  6
ByBlock
 62
    5
370
   -2
100
AcDbTrace
 10
-20
 20
35.3
 30
0
 11
-19.83348613689086
 21
34.3
 31
0
 12
-20.16651386310913
 22
34.3
 32
0
 13
-20.16651386310913
 23
34.3
 33
0
  0
SOLID
  5
12F
100
AcDbEntity
  8
Dimensions
  6
ByBlock
 62
    5
370
   -2
100
AcDbTrace
 10
-20
 20
1.4210854715202e-15
 30
0
 11
-20.16651386310913
 21
1.000000000000001
 31
0
 12
-19.83348613689086
 22
1.000000000000001
 32
0
 13
-19.83348613689086
 23
1.000000000000001
 33
0
  0
LINE
  5
130
100
AcDbEntity
  8
Dimensions
  6
ByBlock
 62
    5
370
   -2
100
AcDbLine
 10
10.175
 20
35.3
 11
-21.25
 21
35.3
  0
LINE
  5
131
100
AcDbEntity
  8
Dimensions
  6
ByBlock
 62
    5
370
   -2
100
AcDbLine
 10
-0.625
 20
7.653789711389858e-17
 11
-21.25
 21
1.574161265747998e-15
  0
ENDBLK
  5
8F
330
8D
100
AcDbEntity
  8
0
100
AcDbBlockEnd
  0
BLOCK
  5
91
330
90
100
AcDbEntity
  8
0
100
AcDbBlockBegin
  2
*D20
 70
    1
 10
0
 20
0
  3
*D20
  1

  0
LINE
  5
132
100
AcDbEntity
  8
Dimensions
  6
ByBlock
 62
    5
370
   -2
100
AcDbLine
 10
8.9
 20
41
 11
-1.387778780781446e-17
 21
41
  0
MTEXT
  5
133
100
AcDbEntity
  8
Dimensions
  6
CONTINUOUS
 62
    5
370
   -2
100
AcDbMText
 10
4.45
 20
42.875
 30
0
 40
2.5
 41
5.833333333333334
 71
    5
 72
    1
  1
8.90
  7
standard
210
0
220
0
230
1
 50
0
 73
    2
 44
1
  0
SOLID
  5
134
100
AcDbEntity
  8
Dimensions
  6
ByBlock
 62
    5
370
   -2
100
AcDbTrace
 10
8.9
 20
41
 30
0
 11
7.9
 21
40.83348613689086
 31
0
 12
7.9
 22
41.16651386310914
 32
0
 13
7.9
 23
41.16651386310914
 33
0
  0
SOLID
  5
135
100
AcDbEntity
  8
Dimensions
  6
ByBlock
 62
    5
370
   -2
100
AcDbTrace
 10
-1.387778780781446e-17
 20
41
 30
0
 11
1
 21
41.16651386310914
 31
0
 12
1
 22
40.83348613689086
 32
0
 13
1
 23
40.83348613689086
 33
0
  0
LINE
  5
136
100
AcDbEntity
  8
Dimensions
  6
ByBlock
 62
    5
370
   -2
100
AcDbLine
 10
8.9
 20
28.025
 11
8.9
 21
42.25
  0
LINE
  5
137
100
AcDbEntity
  8
Dimensions
  6
ByBlock
 62
    5
370
   -2
100
AcDbLine
 10
2.439116074913483e-17
 20
40.925
 11
6.266010930608412e-17
 21
42.25
  0
ENDBLK
  5
92
330
90
100
AcDbEntity
  8
0
100
AcDbBlockEnd
  0
BLOCK
  5
94
330
93
100
AcDbEntity
  8
0
100
AcDbBlockBegin
  2
*D35
 70
    1
 10
0
 20
0
  3
*D35
  1

  0
SOLID
  5
138
100
AcDbEntity
  8
Dimensions
  6
ByBlock
 62
    5
370
   -2
100
AcDbTrace
 10
-44.24518081782627
 20
10.5140299158469
 30
0
 11
-45.01758320847115
 21
11.17062828131364
 31
0
 12
-44.76314006283392
 22
11.38549138207397
 32
0
 13
-44.76314006283392
 23
11.38549138207397
 33
0
  0
LINE
  5
139
100
AcDbEntity
  8
Dimensions
  6
ByBlock
 62
    5
370
   -2
100
AcDbLine
 10
-43.6
 20
9.75
 11
-51.80813373790086
 21
19.47015837383005
  0
MTEXT
  5
13A
100
AcDbEntity
  8
Dimensions
  6
CONTINUOUS
 62
    5
370
   -2
100
AcDbMText
 10
-46.59410118565062
 20
16.20180817826273
 30
0
 40
2.5
 41
9.722222222222221
 71
    5
 72
    1
  1
4-R1.0
  7
standard
210
0
220
0
230
1
 50
310.1792339219071
 73
    2
 44
1
  0
ENDBLK
  5
95
330
93
100
AcDbEntity
  8
0
100
AcDbBlockEnd
  0
BLOCK
  5
97
330
96
100
AcDbEntity
  8
0
100
AcDbBlockBegin
  2
*D4
 70
    1
 10
0
 20
0
  3
*D4
  1

  0
LINE
  5
13B
100
AcDbEntity
  8
Dimensions
  6
ByBlock
 62
    5
370
   -2
100
AcDbLine
 10
-63.5
 20
-15
 11
0
 21
-15
  0
MTEXT
  5
13C
100
AcDbEntity
  8
Dimensions
  6
CONTINUOUS
 62
    5
370
   -2
100
AcDbMText
 10
-31.75
 20
-13.125
 30
0
 40
2.5
 41
7.777777777778243
 71
    5
 72
    1
  1
63.50
  7
standard
210
0
220
0
230
1
 50
0
 73
    2
 44
1
  0
SOLID
  5
13D
100
AcDbEntity
  8
Dimensions
  6
ByBlock
 62
    5
370
   -2
100
AcDbTrace
 10
-63.5
 20
-15
 30
0
 11
-62.5
 21
-14.83348613689086
 31
0
 12
-62.5
 22
-15.16651386310914
 32
0
 13
-62.5
 23
-15.16651386310914
 33
0
  0
SOLID
  5
13E
100
AcDbEntity
  8
Dimensions
  6
ByBlock
 62
    5
370
   -2
100
AcDbTrace
 10
0
 20
-15
 30
0
 11
-1
 21
-15.16651386310914
 31
0
 12
-1
 22
-14.83348613689086
 32
0
 13
-1
 23
-14.83348613689086
 33
0
  0
LINE
  5
13F
100
AcDbEntity
  8
Dimensions
  6
ByBlock
 62
    5
370
   -2
100
AcDbLine
 10
-63.5
 20
8.125
 11
-63.5
 21
-16.25
  0
LINE
  5
140
100
AcDbEntity
  8
Dimensions
  6
ByBlock
 62
    5
370
   -2
100
AcDbLine
 10
-1.148068456708479e-16
 20
-0.625
 11
-2.296136913416957e-16
 21
-16.25
  0
ENDBLK
  5
98
330
96
100
AcDbEntity
  8
0
100
AcDbBlockEnd
  0
BLOCK
  5
9A
330
99
100
AcDbEntity
  8
0
100
AcDbBlockBegin
  2
*D36
 70
    1
 10
0
 20
0
  3
*D36
  1

  0
LINE
  5
141
100
AcDbEntity
  8
Dimensions
  6
ByBlock
 62
    5
370
   -2
100
AcDbLine
 10
-90
 20
36.8
 11
-90
 21
3.5
  0
MTEXT
  5
142
100
AcDbEntity
  8
Dimensions
  6
CONTINUOUS
 62
    5
370
   -2
100
AcDbMText
 10
-91.875
 20
20.15
 30
0
 40
2.5
 41
15.69444444444491
 71
    5
 72
    1
  1
33.3 %%P 0.1
  7
standard
210
0
220
0
230
1
 50
90
 73
    2
 44
1
  0
SOLID
  5
143
100
AcDbEntity
  8
Dimensions
  6
ByBlock
 62
    5
370
   -2
100
AcDbTrace
 10
-90
 20
36.8
 30
0
 11
-89.83348613689087
 21
35.8
 31
0
 12
-90.16651386310913
 22
35.8
 32
0
 13
-90.16651386310913
 23
35.8
 33
0
  0
SOLID
  5
144
100
AcDbEntity
  8
Dimensions
  6
ByBlock
 62
    5
370
   -2
100
AcDbTrace
 10
-90
 20
3.5
 30
0
 11
-90.16651386310913
 21
4.5
 31
0
 12
-89.83348613689087
 22
4.5
 32
0
 13
-89.83348613689087
 23
4.5
 33
0
  0
LINE
  5
145
100
AcDbEntity
  8
Dimensions
  6
ByBlock
 62
    5
370
   -2
100
AcDbLine
 10
-76.42500000000001
 20
36.8
 11
-91.25
 21
36.8
  0
LINE
  5
146
100
AcDbEntity
  8
Dimensions
  6
ByBlock
 62
    5
370
   -2
100
AcDbLine
 10
-76.42500000000001
 20
3.5
 11
-91.25
 21
3.5
  0
ENDBLK
  5
9B
330
99
100
AcDbEntity
  8
0
100
AcDbBlockEnd
  0
BLOCK
  5
9D
330
9C
100
AcDbEntity
  8
0
100
AcDbBlockBegin
  2
*D22
 70
    1
 10
0
 20
0
  3
*D22
  1

  0
LINE
  5
147
100
AcDbEntity
  8
Dimensions
  6
ByBlock
 62
    5
370
   -2
100
AcDbLine
 10
15
 20
28.45
 11
15
 21
10.65
  0
MTEXT
  5
148
100
AcDbEntity
  8
Dimensions
  6
CONTINUOUS
 62
    5
370
   -2
100
AcDbMText
 10
13.125
 20
19.55
 30
0
 40
2.5
 41
7.222222222222222
 71
    5
 72
    1
  1
17.80
  7
standard
210
0
220
0
230
1
 50
90
 73
    2
 44
1
  0
SOLID
  5
149
100
AcDbEntity
  8
Dimensions
  6
ByBlock
 62
    5
370
   -2
100
AcDbTrace
 10
15
 20
28.45
 30
0
 11
15.16651386310914
 21
27.45
 31
0
 12
14.83348613689087
 22
27.45
 32
0
 13
14.83348613689087
 23
27.45
 33
0
  0
SOLID
  5
14A
100
AcDbEntity
  8
Dimensions
  6
ByBlock
 62
    5
370
   -2
100
AcDbTrace
 10
15
 20
10.65
 30
0
 11
14.83348613689086
 21
11.65
 31
0
 12
15.16651386310914
 22
11.65
 32
0
 13
15.16651386310914
 23
11.65
 33
0
  0
LINE
  5
14B
100
AcDbEntity
  8
Dimensions
  6
ByBlock
 62
    5
370
   -2
100
AcDbLine
 10
8.525
 20
28.45
 11
16.25
 21
28.45
  0
LINE
  5
14C
100
AcDbEntity
  8
Dimensions
  6
ByBlock
 62
    5
370
   -2
100
AcDbLine
 10
8.525
 20
10.65
 11
16.25
 21
10.65
  0
ENDBLK
  5
9E
330
9C
100
AcDbEntity
  8
0
100
AcDbBlockEnd
  0
BLOCK
  5
A0
330
9F
100
AcDbEntity
  8
0
100
AcDbBlockBegin
  2
*D29
 70
    1
 10
0
 20
0
  3
*D29
  1

  0
LINE
  5
14D
100
AcDbEntity
  8
Dimensions
  6
ByBlock
 62
    5
370
   -2
100
AcDbLine
 10
-31.6
 20
-5
 11
2.081668171172169e-16
 21
-5
  0
MTEXT
  5
14E
100
AcDbEntity
  8
Dimensions
  6
CONTINUOUS
 62
    5
370
   -2
100
AcDbMText
 10
-15.8
 20
-3.125
 30
0
 40
2.5
 41
7.222222222222532
 71
    5
 72
    1
  1
31.60
  7
standard
210
0
220
0
230
1
 50
0
 73
    2
 44
1
  0
SOLID
  5
14F
100
AcDbEntity
  8
Dimensions
  6
ByBlock
 62
    5
370
   -2
100
AcDbTrace
 10
-31.6
 20
-5
 30
0
 11
-30.6
 21
-4.833486136890864
 31
0
 12
-30.6
 22
-5.166513863109136
 32
0
 13
-30.6
 23
-5.166513863109136
 33
0
  0
SOLID
  5
150
100
AcDbEntity
  8
Dimensions
  6
ByBlock
 62
    5
370
   -2
100
AcDbTrace
 10
2.081668171172169e-16
 20
-5
 30
0
 11
-0.9999999999999998
 21
-5.166513863109136
 31
0
 12
-0.9999999999999998
 22
-4.833486136890864
 32
0
 13
-0.9999999999999998
 23
-4.833486136890864
 33
0
  0
LINE
  5
151
100
AcDbEntity
  8
Dimensions
  6
ByBlock
 62
    5
370
   -2
100
AcDbLine
 10
-31.6
 20
8.625000000000002
 11
-31.6
 21
-6.25
  0
LINE
  5
152
100
AcDbEntity
  8
Dimensions
  6
ByBlock
 62
    5
370
   -2
100
AcDbLine
 10
9.335997144636903e-17
 20
-0.625
 11
-2.144687422447879e-17
 21
-6.25
  0
ENDBLK
  5
A1
330
9F
100
AcDbEntity
  8
0
100
AcDbBlockEnd
  0
BLOCK
  5
A3
330
A2
100
AcDbEntity
  8
0
100
AcDbBlockBegin
  2
*D23
 70
    1
 10
0
 20
0
  3
*D23
  1

  0
LINE
  5
153
100
AcDbEntity
  8
Dimensions
  6
ByBlock
 62
    5
370
   -2
100
AcDbLine
 10
15
 20
10.65
 11
15
 21
-7.993605777301126e-16
  0
MTEXT
  5
154
100
AcDbEntity
  8
Dimensions
  6
CONTINUOUS
 62
    5
370
   -2
100
AcDbMText
 10
13.125
 20
5.325
 30
0
 40
2.5
 41
7.222222222222532
 71
    5
 72
    1
  1
10.65
  7
standard
210
0
220
0
230
1
 50
90
 73
    2
 44
1
  0
SOLID
  5
155
100
AcDbEntity
  8
Dimensions
  6
ByBlock
 62
    5
370
   -2
100
AcDbTrace
 10
15
 20
10.65
 30
0
 11
15.16651386310914
 21
9.65
 31
0
 12
14.83348613689086
 22
9.65
 32
0
 13
14.83348613689086
 23
9.65
 33
0
  0
SOLID
  5
156
100
AcDbEntity
  8
Dimensions
  6
ByBlock
 62
    5
370
   -2
100
AcDbTrace
 10
15
 20
-7.993605777301126e-16
 30
0
 11
14.83348613689086
 21
0.9999999999999992
 31
0
 12
15.16651386310914
 22
0.9999999999999992
 32
0
 13
15.16651386310914
 23
0.9999999999999992
 33
0
  0
LINE
  5
157
100
AcDbEntity
  8
Dimensions
  6
ByBlock
 62
    5
370
   -2
100
AcDbLine
 10
8.525
 20
10.65
 11
16.25
 21
10.65
  0
LINE
  5
158
100
AcDbEntity
  8
Dimensions
  6
ByBlock
 62
    5
370
   -2
100
AcDbLine
 10
0.625
 20
0
 11
16.25
 21
-7.993605777301126e-16
  0
ENDBLK
  5
A4
330
A2
100
AcDbEntity
  8
0
100
AcDbBlockEnd
  0
BLOCK
  5
A6
330
A5
100
AcDbEntity
  8
0
100
AcDbBlockBegin
  2
*D2
 70
    1
 10
0
 20
0
  3
*D2
  1

  0
LINE
  5
159
100
AcDbEntity
  8
Dimensions
  6
ByBlock
 62
    5
370
   -2
100
AcDbLine
 10
79.30000000000003
 20
-35
 11
-79.3
 21
-35
  0
MTEXT
  5
15A
100
AcDbEntity
  8
Dimensions
  6
CONTINUOUS
 62
    5
370
   -2
100
AcDbMText
 10
1.432566156087285e-14
 20
-33.125
 30
0
 40
2.5
 41
9.166666666666977
 71
    5
 72
    1
  1
158.60
  7
standard
210
0
220
0
230
1
 50
0
 73
    2
 44
1
  0
SOLID
  5
15B
100
AcDbEntity
  8
Dimensions
  6
ByBlock
 62
    5
370
   -2
100
AcDbTrace
 10
79.30000000000003
 20
-35
 30
0
 11
78.30000000000003
 21
-35.16651386310914
 31
0
 12
78.30000000000003
 22
-34.83348613689086
 32
0
 13
78.30000000000003
 23
-34.83348613689086
 33
0
  0
SOLID
  5
15C
100
AcDbEntity
  8
Dimensions
  6
ByBlock
 62
    5
370
   -2
100
AcDbTrace
 10
-79.3
 20
-35
 30
0
 11
-78.3
 21
-34.83348613689086
 31
0
 12
-78.3
 22
-35.16651386310914
 32
0
 13
-78.3
 23
-35.16651386310914
 33
0
  0
LINE
  5
15D
100
AcDbEntity
  8
Dimensions
  6
ByBlock
 62
    5
370
   -2
100
AcDbLine
 10
79.30000000000001
 20
2.875
 11
79.30000000000003
 21
-36.25
  0
LINE
  5
15E
100
AcDbEntity
  8
Dimensions
  6
ByBlock
 62
    5
370
   -2
100
AcDbLine
 10
-79.3
 20
2.875
 11
-79.3
 21
-36.25
  0
ENDBLK
  5
A7
330
A5
100
AcDbEntity
  8
0
100
AcDbBlockEnd
  0
BLOCK
  5
A9
330
A8
100
AcDbEntity
  8
0
100
AcDbBlockBegin
  2
*D5
 70
    1
 10
0
 20
0
  3
*D5
  1

  0
LINE
  5
15F
100
AcDbEntity
  8
Dimensions
  6
ByBlock
 62
    5
370
   -2
100
AcDbLine
 10
25.4
 20
-15
 11
-5.551115123125783e-17
 21
-15
  0
MTEXT
  5
160
100
AcDbEntity
  8
Dimensions
  6
CONTINUOUS
 62
    5
370
   -2
100
AcDbMText
 10
12.7
 20
-13.125
 30
0
 40
2.5
 41
8.055555555555712
 71
    5
 72
    1
  1
25.40
  7
standard
210
0
220
0
230
1
 50
0
 73
    2
 44
1
  0
SOLID
  5
161
100
AcDbEntity
  8
Dimensions
  6
ByBlock
 62
    5
370
   -2
100
AcDbTrace
 10
25.4
 20
-15
 30
0
 11
24.4
 21
-15.16651386310914
 31
0
 12
24.4
 22
-14.83348613689086
 32
0
 13
24.4
 23
-14.83348613689086
 33
0
  0
SOLID
  5
162
100
AcDbEntity
  8
Dimensions
  6
ByBlock
 62
    5
370
   -2
100
AcDbTrace
 10
-5.551115123125783e-17
 20
-15
 30
0
 11
0.9999999999999999
 21
-14.83348613689086
 31
0
 12
1
 22
-15.16651386310914
 32
0
 13
1
 23
-15.16651386310914
 33
0
  0
LINE
  5
163
100
AcDbEntity
  8
Dimensions
  6
ByBlock
 62
    5
370
   -2
100
AcDbLine
 10
25.4
 20
8.125
 11
25.4
 21
-16.25
  0
LINE
  5
164
100
AcDbEntity
  8
Dimensions
  6
ByBlock
 62
    5
370
   -2
100
AcDbLine
 10
-1.703179969021057e-16
 20
-0.625
 11
-2.851248425729536e-16
 21
-16.25
  0
ENDBLK
  5
AA
330
A8
100
AcDbEntity
  8
0
100
AcDbBlockEnd
  0
BLOCK
  5
AC
330
AB
100
AcDbEntity
  8
0
100
AcDbBlockBegin
  2
*D10
 70
    1
 10
0
 20
0
  3
*D10
  1

  0
LINE
  5
165
100
AcDbEntity
  8
Dimensions
  6
ByBlock
 62
    5
370
   -2
100
AcDbLine
 10
50.8
 20
7.5
 11
50.8
 21
10
  0
MTEXT
  5
166
100
AcDbEntity
  8
Dimensions
  6
CONTINUOUS
 62
    5
370
   -2
100
AcDbMText
 10
48.925
 20
13.54166666666674
 30
0
 40
2.5
 41
5.833333333333489
 71
    5
 72
    1
  1
2.50
  7
standard
210
0
220
0
230
1
 50
90
 73
    2
 44
1
  0
SOLID
  5
167
100
AcDbEntity
  8
Dimensions
  6
ByBlock
 62
    5
370
   -2
100
AcDbTrace
 10
50.8
 20
7.5
 30
0
 11
50.63348613689086
 21
8.5
 31
0
 12
50.96651386310914
 22
8.5
 32
0
 13
50.96651386310914
 23
8.5
 33
0
  0
SOLID
  5
168
100
AcDbEntity
  8
Dimensions
  6
ByBlock
 62
    5
370
   -2
100
AcDbTrace
 10
50.8
 20
10
 30
0
 11
50.96651386310914
 21
9
 31
0
 12
50.63348613689086
 22
9
 32
0
 13
50.63348613689086
 23
9
 33
0
  0
ENDBLK
  5
AD
330
AB
100
AcDbEntity
  8
0
100
AcDbBlockEnd
  0
BLOCK
  5
AF
330
AE
100
AcDbEntity
  8
0
100
AcDbBlockBegin
  2
*D13
 70
    1
 10
0
 20
0
  3
*D13
  1

  0
LINE
  5
169
100
AcDbEntity
  8
Dimensions
  6
ByBlock
 62
    5
370
   -2
100
AcDbLine
 10
85
 20
6.850000000000002
 11
85
 21
-4.163336342344337e-17
  0
MTEXT
  5
16A
100
AcDbEntity
  8
Dimensions
  6
CONTINUOUS
 62
    5
370
   -2
100
AcDbMText
 10
83.125
 20
3.425000000000002
 30
0
 40
2.5
 41
5.833333333333643
 71
    5
 72
    1
  1
6.85
  7
standard
210
0
220
0
230
1
 50
90
 73
    2
 44
1
  0
SOLID
  5
16B
100
AcDbEntity
  8
Dimensions
  6
ByBlock
 62
    5
370
   -2
100
AcDbTrace
 10
85
 20
6.850000000000002
 30
0
 11
85.16651386310913
 21
5.850000000000002
 31
0
 12
84.83348613689087
 22
5.850000000000002
 32
0
 13
84.83348613689087
 23
5.850000000000002
 33
0
  0
SOLID
  5
16C
100
AcDbEntity
  8
Dimensions
  6
ByBlock
 62
    5
370
   -2
100
AcDbTrace
 10
85
 20
-4.163336342344337e-17
 30
0
 11
84.83348613689087
 21
1
 31
0
 12
85.16651386310913
 22
1
 32
0
 13
85.16651386310913
 23
1
 33
0
  0
LINE
  5
16D
100
AcDbEntity
  8
Dimensions
  6
ByBlock
 62
    5
370
   -2
100
AcDbLine
 10
64.125
 20
6.850000000000001
 11
86.25
 21
6.850000000000002
  0
LINE
  5
16E
100
AcDbEntity
  8
Dimensions
  6
ByBlock
 62
    5
370
   -2
100
AcDbLine
 10
76.42500000000001
 20
-4.163336342344337e-17
 11
86.25
 21
-4.163336342344337e-17
  0
ENDBLK
  5
B0
330
AE
100
AcDbEntity
  8
0
100
AcDbBlockEnd
  0
BLOCK
  5
B2
330
B1
100
AcDbEntity
  8
0
100
AcDbBlockBegin
  2
*D33
 70
    1
 10
0
 20
0
  3
*D33
  1

  0
LINE
  5
16F
100
AcDbEntity
  8
Dimensions
  6
ByBlock
 62
    5
370
   -2
100
AcDbLine
 10
-50
 20
7.750000000000001
 11
-50
 21
4.618527782440651e-16
  0
MTEXT
  5
170
100
AcDbEntity
  8
Dimensions
  6
CONTINUOUS
 62
    5
370
   -2
100
AcDbMText
 10
-51.875
 20
3.875000000000001
 30
0
 40
2.5
 41
5.833333333333488
 71
    5
 72
    1
  1
7.75
  7
standard
210
0
220
0
230
1
 50
90
 73
    2
 44
1
  0
SOLID
  5
171
100
AcDbEntity
  8
Dimensions
  6
ByBlock
 62
    5
370
   -2
100
AcDbTrace
 10
-50
 20
7.750000000000001
 30
0
 11
-49.83348613689086
 21
6.750000000000001
 31
0
 12
-50.16651386310914
 22
6.750000000000001
 32
0
 13
-50.16651386310914
 23
6.750000000000001
 33
0
  0
SOLID
  5
172
100
AcDbEntity
  8
Dimensions
  6
ByBlock
 62
    5
370
   -2
100
AcDbTrace
 10
-50
 20
4.618527782440651e-16
 30
0
 11
-50.16651386310914
 21
1
 31
0
 12
-49.83348613689086
 22
1
 32
0
 13
-49.83348613689086
 23
1
 33
0
  0
LINE
  5
173
100
AcDbEntity
  8
Dimensions
  6
ByBlock
 62
    5
370
   -2
100
AcDbLine
 10
-44.125
 20
7.75
 11
-51.25
 21
7.750000000000001
  0
LINE
  5
174
100
AcDbEntity
  8
Dimensions
  6
ByBlock
 62
    5
370
   -2
100
AcDbLine
 10
-44.125
 20
7.653789711389858e-17
 11
-51.25
 21
6.149285724718623e-16
  0
ENDBLK
  5
B3
330
B1
100
AcDbEntity
  8
0
100
AcDbBlockEnd
  0
BLOCK
  5
B5
330
B4
100
AcDbEntity
  8
0
100
AcDbBlockBegin
  2
*D15
 70
    1
 10
0
 20
0
  3
*D15
  1

  0
SOLID
  5
175
100
AcDbEntity
  8
Dimensions
  6
ByBlock
 62
    5
370
   -2
100
AcDbTrace
 10
78.27487373415292
 20
39.27487373415293
 30
0
 11
78.86423743357342
 21
40.09972359710552
 31
0
 12
79.09972359710551
 22
39.86423743357345
 32
0
 13
79.09972359710551
 23
39.86423743357345
 33
0
  0
LINE
  5
176
100
AcDbEntity
  8
Dimensions
  6
ByBlock
 62
    5
370
   -2
100
AcDbLine
 10
75.80000000000001
 20
36.8
 11
86.95657365872125
 21
47.95657365872137
  0
MTEXT
  5
177
100
AcDbEntity
  8
Dimensions
  6
CONTINUOUS
 62
    5
370
   -2
100
AcDbMText
 10
81.2898984817123
 20
44.94154891116192
 30
0
 40
2.5
 41
10.27777777777809
 71
    5
 72
    1
  1
4-R3.5
  7
standard
210
0
220
0
230
1
 50
45.00000000000033
 73
    2
 44
1
  0
ENDBLK
  5
B6
330
B4
100
AcDbEntity
  8
0
100
AcDbBlockEnd
  0
BLOCK
  5
B8
330
B7
100
AcDbEntity
  8
0
100
AcDbBlockBegin
  2
*D26
 70
    1
 10
0
 20
0
  3
*D26
  1

  0
LINE
  5
178
100
AcDbEntity
  8
Dimensions
  6
ByBlock
 62
    5
370
   -2
100
AcDbLine
 10
30.5
 20
8.75
 11
30.5
 21
-3.346212196220223e-16
  0
MTEXT
  5
179
100
AcDbEntity
  8
Dimensions
  6
CONTINUOUS
 62
    5
370
   -2
100
AcDbMText
 10
28.625
 20
4.375
 30
0
 40
2.5
 41
5.833333333333488
 71
    5
 72
    1
  1
8.75
  7
standard
210
0
220
0
230
1
 50
90
 73
    2
 44
1
  0
SOLID
  5
17A
100
AcDbEntity
  8
Dimensions
  6
ByBlock
 62
    5
370
   -2
100
AcDbTrace
 10
30.5
 20
8.75
 30
0
 11
30.66651386310913
 21
7.75
 31
0
 12
30.33348613689087
 22
7.75
 32
0
 13
30.33348613689087
 23
7.75
 33
0
  0
SOLID
  5
17B
100
AcDbEntity
  8
Dimensions
  6
ByBlock
 62
    5
370
   -2
100
AcDbTrace
 10
30.5
 20
-3.346212196220223e-16
 30
0
 11
30.33348613689087
 21
0.9999999999999997
 31
0
 12
30.66651386310914
 22
0.9999999999999997
 32
0
 13
30.66651386310914
 23
0.9999999999999997
 33
0
  0
LINE
  5
17C
100
AcDbEntity
  8
Dimensions
  6
ByBlock
 62
    5
370
   -2
100
AcDbLine
 10
26.025
 20
8.75
 11
31.75
 21
8.75
  0
LINE
  5
17D
100
AcDbEntity
  8
Dimensions
  6
ByBlock
 62
    5
370
   -2
100
AcDbLine
 10
26.025
 20
2.775557561562891e-17
 11
31.75
 21
-3.346212196220223e-16
  0
ENDBLK
  5
B9
330
B7
100
AcDbEntity
  8
0
100
AcDbBlockEnd
  0
ENDSEC
  0
SECTION
  2
ENTITIES
  0
ARC
  5
17E
100
AcDbEntity
  8
0
  6
ByLayer
 62
  256
370
   -1
100
AcDbCircle
 10
-75.8
 20
36.8
 40
3.5
100
AcDbArc
 50
90
 51
180.0000000000001
  0
LINE
  5
17F
100
AcDbEntity
  8
0
  6
ByLayer
 62
  256
370
   -1
100
AcDbLine
 10
-75.8
 20
40.3
 11
-75.3
 21
40.3
  0
LINE
  5
180
100
AcDbEntity
  8
0
  6
ByLayer
 62
  256
370
   -1
100
AcDbLine
 10
-75.3
 20
40.3
 11
-65.3
 21
40.3
  0
ARC
  5
181
100
AcDbEntity
  8
0
  6
ByLayer
 62
  256
370
   -1
100
AcDbCircle
 10
75.80000000000001
 20
36.8
 40
3.5
100
AcDbArc
 50
359.9999999999999
 51
90
  0
LINE
  5
182
100
AcDbEntity
  8
0
  6
ByLayer
 62
  256
370
   -1
100
AcDbLine
 10
75.80000000000001
 20
40.3
 11
75.30000000000001
 21
40.3
  0
LINE
  5
183
100
AcDbEntity
  8
0
  6
ByLayer
 62
  256
370
   -1
100
AcDbLine
 10
75.30000000000001
 20
40.3
 11
65.30000000000001
 21
40.3
  0
LINE
  5
184
100
AcDbEntity
  8
0
  6
ByLayer
 62
  256
370
   -1
100
AcDbLine
 10
65.3
 20
40.3
 11
-65.3
 21
40.3
  0
CIRCLE
  5
185
100
AcDbEntity
  8
0
  6
ByLayer
 62
  256
370
   -1
100
AcDbCircle
 10
-75.8
 20
3.5
 40
1.650000000000006
  0
ARC
  5
186
100
AcDbEntity
  8
0
  6
ByLayer
 62
  256
370
   -1
100
AcDbCircle
 10
-75.80000000000001
 20
3.5
 40
3.5
100
AcDbArc
 50
180
 51
270.0000000000002
  0
CIRCLE
  5
187
100
AcDbEntity
  8
0
  6
ByLayer
 62
  256
370
   -1
100
AcDbCircle
 10
-75.8
 20
36.8
 40
1.650757401921924
  0
LINE
  5
188
100
AcDbEntity
  8
0
  6
ByLayer
 62
  256
370
   -1
100
AcDbLine
 10
-79.3
 20
36.8
 11
-79.3
 21
3.5
  0
CIRCLE
  5
189
100
AcDbEntity
  8
0
  6
ByLayer
 62
  256
370
   -1
100
AcDbCircle
 10
75.80000000000001
 20
3.5
 40
1.649999999999991
  0
ARC
  5
18A
100
AcDbEntity
  8
0
  6
ByLayer
 62
  256
370
   -1
100
AcDbCircle
 10
75.80000000000001
 20
3.5
 40
3.5
100
AcDbArc
 50
270
 51
0
  0
CIRCLE
  5
18B
100
AcDbEntity
  8
0
  6
ByLayer
 62
  256
370
   -1
100
AcDbCircle
 10
75.8
 20
36.8
 40
1.650000000000006
  0
LINE
  5
18C
100
AcDbEntity
  8
0
  6
ByLayer
 62
  256
370
   -1
100
AcDbLine
 10
79.30000000000001
 20
36.8
 11
79.30000000000001
 21
3.5
  0
LINE
  5
18D
100
AcDbEntity
  8
0
  6
ByLayer
 62
  256
370
   -1
100
AcDbLine
 10
75.80000000000001
 20
6.938893903907228e-17
 11
-75.8
 21
6.938893903907228e-17
  0
CIRCLE
  5
18E
100
AcDbEntity
  8
0
  6
DASHEDX2
 62
  256
370
   -1
100
AcDbCircle
 10
-75.8
 20
36.8
 40
2.8
  0
CIRCLE
  5
18F
100
AcDbEntity
  8
0
  6
DASHEDX2
 62
  256
370
   -1
100
AcDbCircle
 10
75.8
 20
36.8
 40
2.8
  0
CIRCLE
  5
190
100
AcDbEntity
  8
0
  6
DASHEDX2
 62
  256
370
   -1
100
AcDbCircle
 10
75.80000000000001
 20
3.5
 40
2.8
  0
CIRCLE
  5
191
100
AcDbEntity
  8
0
  6
DASHEDX2
 62
  256
370
   -1
100
AcDbCircle
 10
-75.80000000000001
 20
3.5
 40
2.8
  0
MTEXT
  5
192
100
AcDbEntity
  8
0
  6
ByLayer
 62
    5
370
   -1
100
AcDbMText
 10
80.5
 20
32
 30
0
 40
1.5
 41
16.29166743809769
 71
    1
 72
    1
  1
Countersunk for\PM3 screw
  7
STANDARD
210
0
220
0
230
1
 50
0
 73
    2
 44
1
  0
LINE
  5
193
100
AcDbEntity
  8
0
  6
ByLayer
 62
  256
370
   -1
100
AcDbLine
 10
63.5
 20
11.85
 11
67.90000000000001
 21
11.85
  0
ARC
  5
194
100
AcDbEntity
  8
0
  6
ByLayer
 62
  256
370
   -1
100
AcDbCircle
 10
67.90000000000001
 20
10.85
 40
1
100
AcDbArc
 50
0
 51
90
  0
LINE
  5
195
100
AcDbEntity
  8
0
  6
ByLayer
 62
  256
370
   -1
100
AcDbLine
 10
68.90000000000001
 20
10.85
 11
68.90000000000001
 21
7.85
  0
ARC
  5
196
100
AcDbEntity
  8
0
  6
ByLayer
 62
  256
370
   -1
100
AcDbCircle
 10
67.90000000000001
 20
7.850000000000001
 40
1
100
AcDbArc
 50
270
 51
0
  0
LINE
  5
197
100
AcDbEntity
  8
0
  6
ByLayer
 62
  256
370
   -1
100
AcDbLine
 10
67.90000000000001
 20
6.850000000000001
 11
59.1
 21
6.850000000000001
  0
ARC
  5
198
100
AcDbEntity
  8
0
  6
ByLayer
 62
  256
370
   -1
100
AcDbCircle
 10
59.1
 20
7.850000000000001
 40
1
100
AcDbArc
 50
180
 51
270
  0
LINE
  5
199
100
AcDbEntity
  8
0
  6
ByLayer
 62
  256
370
   -1
100
AcDbLine
 10
58.1
 20
7.850000000000001
 11
58.1
 21
10.85
  0
ARC
  5
19A
100
AcDbEntity
  8
0
  6
ByLayer
 62
  256
370
   -1
100
AcDbCircle
 10
59.1
 20
10.85
 40
1
100
AcDbArc
 50
90
 51
180
  0
LINE
  5
19B
100
AcDbEntity
  8
0
  6
ByLayer
 62
  256
370
   -1
100
AcDbLine
 10
59.1
 20
11.85
 11
63.50000000000001
 21
11.85
  0
LINE
  5
19C
100
AcDbEntity
  8
0
  6
ByLayer
 62
  256
370
   -1
100
AcDbLine
 10
38.1
 20
11.85
 11
42.50000000000001
 21
11.85
  0
ARC
  5
19D
100
AcDbEntity
  8
0
  6
ByLayer
 62
  256
370
   -1
100
AcDbCircle
 10
42.50000000000001
 20
10.85
 40
1
100
AcDbArc
 50
0
 51
90
  0
LINE
  5
19E
100
AcDbEntity
  8
0
  6
ByLayer
 62
  256
370
   -1
100
AcDbLine
 10
43.50000000000001
 20
10.85
 11
43.50000000000001
 21
7.85
  0
ARC
  5
19F
100
AcDbEntity
  8
0
  6
ByLayer
 62
  256
370
   -1
100
AcDbCircle
 10
42.50000000000001
 20
7.850000000000001
 40
1
100
AcDbArc
 50
270
 51
0
  0
LINE
  5
1A0
100
AcDbEntity
  8
0
  6
ByLayer
 62
  256
370
   -1
100
AcDbLine
 10
42.50000000000001
 20
6.850000000000001
 11
33.7
 21
6.850000000000001
  0
ARC
  5
1A1
100
AcDbEntity
  8
0
  6
ByLayer
 62
  256
370
   -1
100
AcDbCircle
 10
33.7
 20
7.850000000000001
 40
1
100
AcDbArc
 50
180
 51
270
  0
LINE
  5
1A2
100
AcDbEntity
  8
0
  6
ByLayer
 62
  256
370
   -1
100
AcDbLine
 10
32.7
 20
7.850000000000001
 11
32.7
 21
10.85
  0
ARC
  5
1A3
100
AcDbEntity
  8
0
  6
ByLayer
 62
  256
370
   -1
100
AcDbCircle
 10
33.7
 20
10.85
 40
1
100
AcDbArc
 50
90
 51
180
  0
LINE
  5
1A4
100
AcDbEntity
  8
0
  6
ByLayer
 62
  256
370
   -1
100
AcDbLine
 10
33.7
 20
11.85
 11
38.10000000000001
 21
11.85
  0
CIRCLE
  5
1A5
100
AcDbEntity
  8
0
  6
ByLayer
 62
  256
370
   -1
100
AcDbCircle
 10
50.8
 20
8.75
 40
1.25
  0
CIRCLE
  5
1A6
100
AcDbEntity
  8
0
  6
ByLayer
 62
  256
370
   -1
100
AcDbCircle
 10
25.4
 20
8.75
 40
1.250000000000004
  0
LINE
  5
1A7
100
AcDbEntity
  8
0
  6
ByLayer
 62
  256
370
   -1
100
AcDbLine
 10
-38.1
 20
7.750000000000001
 11
-32.59999999999999
 21
7.750000000000001
  0
ARC
  5
1A8
100
AcDbEntity
  8
0
  6
ByLayer
 62
  256
370
   -1
100
AcDbCircle
 10
-32.59999999999999
 20
8.75
 40
0.9999999999999991
100
AcDbArc
 50
270
 51
0
  0
LINE
  5
1A9
100
AcDbEntity
  8
0
  6
ByLayer
 62
  256
370
   -1
100
AcDbLine
 10
-31.59999999999999
 20
8.75
 11
-31.59999999999999
 21
9.75
  0
ARC
  5
1AA
100
AcDbEntity
  8
0
  6
ByLayer
 62
  256
370
   -1
100
AcDbCircle
 10
-32.59999999999999
 20
9.75
 40
1
100
AcDbArc
 50
0
 51
90
  0
LINE
  5
1AB
100
AcDbEntity
  8
0
  6
ByLayer
 62
  256
370
   -1
100
AcDbLine
 10
-32.59999999999999
 20
10.75
 11
-43.6
 21
10.75
  0
ARC
  5
1AC
100
AcDbEntity
  8
0
  6
ByLayer
 62
  256
370
   -1
100
AcDbCircle
 10
-43.6
 20
9.75
 40
1
100
AcDbArc
 50
90
 51
180
  0
LINE
  5
1AD
100
AcDbEntity
  8
0
  6
ByLayer
 62
  256
370
   -1
100
AcDbLine
 10
-44.6
 20
9.75
 11
-44.6
 21
8.75
  0
ARC
  5
1AE
100
AcDbEntity
  8
0
  6
ByLayer
 62
  256
370
   -1
100
AcDbCircle
 10
-43.6
 20
8.75
 40
1
100
AcDbArc
 50
180
 51
270
  0
LINE
  5
1AF
100
AcDbEntity
  8
0
  6
ByLayer
 62
  256
370
   -1
100
AcDbLine
 10
-43.6
 20
7.75
 11
-38.09999999999999
 21
7.75
  0
CIRCLE
  5
1B0
100
AcDbEntity
  8
0
  6
ByLayer
 62
  256
370
   -1
100
AcDbCircle
 10
-63.5
 20
8.75
 40
1.250000000000004
  0
CIRCLE
  5
1B1
100
AcDbEntity
  8
0
  6
ByLayer
 62
  256
370
   -1
100
AcDbCircle
 10
-10.8
 20
35.29999999999999
 40
1.650757401921924
  0
CIRCLE
  5
1B2
100
AcDbEntity
  8
0
  6
DASHEDX2
 62
  256
370
   -1
100
AcDbCircle
 10
-10.8
 20
35.29999999999999
 40
2.8
  0
CIRCLE
  5
1B3
100
AcDbEntity
  8
0
  6
ByLayer
 62
  256
370
   -1
100
AcDbCircle
 10
10.8
 20
35.29999999999999
 40
1.650757401921924
  0
CIRCLE
  5
1B4
100
AcDbEntity
  8
0
  6
DASHEDX2
 62
  256
370
   -1
100
AcDbCircle
 10
10.8
 20
35.29999999999999
 40
2.8
  0
LINE
  5
1B5
100
AcDbEntity
  8
0
  6
ByLayer
 62
  256
370
   -1
100
AcDbLine
 10
0
 20
28.45
 11
7.9
 21
28.45
  0
ARC
  5
1B6
100
AcDbEntity
  8
0
  6
ByLayer
 62
  256
370
   -1
100
AcDbCircle
 10
7.9
 20
27.45
 40
1
100
AcDbArc
 50
0
 51
90
  0
LINE
  5
1B7
100
AcDbEntity
  8
0
  6
ByLayer
 62
  256
370
   -1
100
AcDbLine
 10
8.9
 20
27.45
 11
8.9
 21
11.65
  0
ARC
  5
1B8
100
AcDbEntity
  8
0
  6
ByLayer
 62
  256
370
   -1
100
AcDbCircle
 10
7.9
 20
11.65
 40
1
100
AcDbArc
 50
270
 51
0
  0
LINE
  5
1B9
100
AcDbEntity
  8
0
  6
ByLayer
 62
  256
370
   -1
100
AcDbLine
 10
7.9
 20
10.65
 11
-7.900000000000001
 21
10.65
  0
ARC
  5
1BA
100
AcDbEntity
  8
0
  6
ByLayer
 62
  256
370
   -1
100
AcDbCircle
 10
-7.900000000000001
 20
11.65
 40
1
100
AcDbArc
 50
180
 51
270
  0
LINE
  5
1BB
100
AcDbEntity
  8
0
  6
ByLayer
 62
  256
370
   -1
100
AcDbLine
 10
-8.900000000000002
 20
11.65
 11
-8.900000000000002
 21
27.45
  0
ARC
  5
1BC
100
AcDbEntity
  8
0
  6
ByLayer
 62
  256
370
   -1
100
AcDbCircle
 10
-7.900000000000002
 20
27.45
 40
1
100
AcDbArc
 50
90
 51
180
  0
LINE
  5
1BD
100
AcDbEntity
  8
0
  6
ByLayer
 62
  256
370
   -1
100
AcDbLine
 10
-7.900000000000002
 20
28.45
 11
1.249000902703301e-16
 21
28.45
  0
DIMENSION
  5
1BE
100
AcDbEntity
  8
Dimensions
  6
ByLayer
 62
  256
370
   -1
100
AcDbDimension
  2
*D1
 10
-100
 20
2.977425164057967e-15
 30
0
 11
-101.875
 21
20.15
 31
0
 70
   32
 71
    5
 72
    0
  3
Standard
 53
0
210
0
220
0
230
1
100
AcDbAlignedDimension
 13
-75.8
 23
40.3
 33
0
 14
-75.8
 24
1.387778780781446e-17
 34
0
 50
90
100
AcDbRotatedDimension
  0
DIMENSION
  5
1BF
100
AcDbEntity
  8
Dimensions
  6
ByLayer
 62
  256
370
   -1
100
AcDbDimension
  2
*D2
 10
-79.3
 20
-35
 30
0
 11
1.432566156087285e-14
 21
-33.125
 31
0
 70
   32
 71
    5
  3
Standard
 53
0
210
0
220
0
230
1
100
AcDbAlignedDimension
 13
79.30000000000001
 23
3.5
 33
0
 14
-79.3
 24
3.5
 34
0
100
AcDbRotatedDimension
  0
DIMENSION
  5
1C0
100
AcDbEntity
  8
Dimensions
  6
ByLayer
 62
  256
370
   -1
100
AcDbDimension
  2
*D3
 10
75.8
 20
-25
 30
0
 11
1.148068456708479e-16
 21
-23.125
 31
0
 70
   32
  1
151.6 %%P 0.2
 71
    5
  3
Standard
 53
0
210
0
220
0
230
1
100
AcDbAlignedDimension
 13
-75.80000000000001
 23
3.5
 33
0
 14
75.8
 24
3.5
 34
0
100
AcDbRotatedDimension
  0
DIMENSION
  5
1C1
100
AcDbEntity
  8
Dimensions
  6
ByLayer
 62
  256
370
   -1
100
AcDbDimension
  2
*D4
 10
-9.184547653667829e-16
 20
-15
 30
0
 11
-31.75
 21
-13.125
 31
0
 70
   32
 71
    5
  3
Standard
 53
0
210
0
220
0
230
1
100
AcDbAlignedDimension
 13
-63.5
 23
8.75
 33
0
 14
0
 24
0
 34
0
100
AcDbRotatedDimension
  0
LINE
  5
1C2
100
AcDbEntity
  8
Dimensions
  6
DASHDOTX2
 62
    1
370
   -1
100
AcDbLine
 10
0
 20
45
 11
0
 21
-20
  0
DIMENSION
  5
1C3
100
AcDbEntity
  8
Dimensions
  6
ByLayer
 62
  256
370
   -1
100
AcDbDimension
  2
*D5
 10
-9.739659165980408e-16
 20
-15
 30
0
 11
12.7
 21
-13.125
 31
0
 70
   32
 71
    5
  3
Standard
 53
0
210
0
220
0
230
1
100
AcDbAlignedDimension
 13
25.4
 23
8.75
 33
0
 14
-5.551115123125783e-17
 24
4.163336342344337e-17
 34
0
100
AcDbRotatedDimension
  0
DIMENSION
  5
1C4
100
AcDbEntity
  8
Dimensions
  6
ByLayer
 62
  256
370
   -1
100
AcDbDimension
  2
*D6
 10
58.10000000000001
 20
-10
 30
0
 11
29.05000000000001
 21
-8.125
 31
0
 70
   32
 71
    5
  3
Standard
 53
0
210
0
220
0
230
1
100
AcDbAlignedDimension
 13
2.498001805406602e-16
 23
-6.938893903907228e-17
 33
0
 14
58.10000000000001
 24
9.350000000000001
 34
0
100
AcDbRotatedDimension
  0
DIMENSION
  5
1C5
100
AcDbEntity
  8
Dimensions
  6
ByLayer
 62
  256
370
   -1
100
AcDbDimension
  2
*D7
 10
50.8
 20
-15
 30
0
 11
38.1
 21
-13.125
 31
0
 70
   32
 71
    5
  3
Standard
 53
0
210
0
220
0
230
1
100
AcDbAlignedDimension
 13
25.4
 23
8.75
 33
0
 14
50.8
 24
8.75
 34
0
100
AcDbRotatedDimension
  0
DIMENSION
  5
1C6
100
AcDbEntity
  8
Dimensions
  6
ByLayer
 62
  256
370
   -1
100
AcDbDimension
  2
*D8
 10
68.90000000000001
 20
-10
 30
0
 11
63.50000000000001
 21
-8.125
 31
0
 70
   32
 71
    5
  3
Standard
 53
0
210
0
220
0
230
1
100
AcDbAlignedDimension
 13
58.10000000000001
 23
9.35
 33
0
 14
68.90000000000001
 24
9.35
 34
0
100
AcDbRotatedDimension
  0
DIMENSION
  5
1C7
100
AcDbEntity
  8
Dimensions
  6
ByLayer
 62
  256
370
   -1
100
AcDbDimension
  2
*D9
 10
56
 20
-5.951619405641915e-16
 30
0
 11
54.125
 21
4.375
 31
0
 70
   32
 71
    5
  3
Standard
 53
0
210
0
220
0
230
1
100
AcDbAlignedDimension
 13
50.80000000000001
 23
8.75
 33
0
 14
50.80000000000001
 24
4.163336342344337e-17
 34
0
 50
90
100
AcDbRotatedDimension
  0
DIMENSION
  5
1C8
100
AcDbEntity
  8
Dimensions
  6
ByLayer
 62
  256
370
   -1
100
AcDbDimension
  2
*D10
 10
50.8
 20
7.5
 30
0
 11
48.925
 21
8.75
 31
0
 70
   35
 71
    5
  3
Standard
 53
0
210
0
220
0
230
1
100
AcDbDiametricDimension
 15
50.8
 25
10
 35
0
 40
0
  0
DIMENSION
  5
1C9
100
AcDbEntity
  8
Dimensions
  6
ByLayer
 62
  256
370
   -1
100
AcDbDimension
  2
*D11
 10
59.1
 20
10.85
 30
0
 11
55.66972930688135
 21
17.08086780881633
 31
0
 70
   36
  1
4-R1.0
 71
    5
  3
Standard
 53
0
210
0
220
0
230
1
100
AcDbRadialDimension
 15
58.40385416392625
 25
11.56790039345105
 35
0
 40
0
  0
DIMENSION
  5
1CA
100
AcDbEntity
  8
Dimensions
  6
ByLayer
 62
  256
370
   -1
100
AcDbDimension
  2
*D12
 10
85
 20
11.85
 30
0
 11
83.125
 21
9.35
 31
0
 70
   32
 71
    5
  3
Standard
 53
0
210
0
220
0
230
1
100
AcDbAlignedDimension
 13
63.50000000000001
 23
6.85
 33
0
 14
63.50000000000001
 24
11.85
 34
0
 50
90
100
AcDbRotatedDimension
  0
DIMENSION
  5
1CB
100
AcDbEntity
  8
Dimensions
  6
ByLayer
 62
  256
370
   -1
100
AcDbDimension
  2
*D13
 10
85
 20
-1.168271208940029e-15
 30
0
 11
83.125
 21
3.425000000000002
 31
0
 70
   32
 71
    5
  3
Standard
 53
0
210
0
220
0
230
1
100
AcDbAlignedDimension
 13
63.50000000000001
 23
6.850000000000001
 33
0
 14
75.80000000000001
 24
-4.163336342344337e-17
 34
0
 50
90
100
AcDbRotatedDimension
  0
DIMENSION
  5
1CC
100
AcDbEntity
  8
Dimensions
  6
ByLayer
 62
  256
370
   -1
100
AcDbDimension
  2
*D14
 10
74.24934085124407
 20
37.36387605409306
 30
0
 11
76.44076824328756
 21
38.56211266904081
 31
0
 70
   35
  1
6-%%C3.3
 71
    5
 72
    0
  3
Standard
 53
0
210
0
220
0
230
1
100
AcDbDiametricDimension
 15
77.35065914875592
 25
36.23612394590693
 35
0
 40
0
  0
DIMENSION
  5
1CD
100
AcDbEntity
  8
Dimensions
  6
ByLayer
 62
  256
370
   -1
100
AcDbDimension
  2
*D15
 10
75.80000000000001
 20
36.8
 30
0
 11
81.2898984817123
 21
44.94154891116192
 31
0
 70
   36
  1
4-R3.5
 71
    5
  3
Standard
 53
0
210
0
220
0
230
1
100
AcDbRadialDimension
 15
78.27487373415292
 25
39.27487373415293
 35
0
 40
0
  0
DIMENSION
  5
1CE
100
AcDbEntity
  8
Dimensions
  6
ByLayer
 62
  256
370
   -1
100
AcDbDimension
  2
*D16
 10
75.8
 20
50
 30
0
 11
1.148068456708479e-16
 21
51.875
 31
0
 70
   32
  1
151.6 %%P 0.2
 71
    5
 72
    0
  3
Standard
 53
0
210
0
220
0
230
1
100
AcDbAlignedDimension
 13
-75.8
 23
36.8
 33
0
 14
75.8
 24
36.8
 34
0
100
AcDbRotatedDimension
  0
DIMENSION
  5
1CF
100
AcDbEntity
  8
Dimensions
  6
ByLayer
 62
  256
370
   -1
100
AcDbDimension
  2
*D17
 10
4.404381590342174e-16
 20
45
 30
0
 11
-5.4
 21
46.875
 31
0
 70
   32
 71
    5
  3
Standard
 53
0
210
0
220
0
230
1
100
AcDbAlignedDimension
 13
-10.8
 23
35.3
 33
0
 14
1.52655665885959e-16
 24
40.3
 34
0
100
AcDbRotatedDimension
  0
DIMENSION
  5
1D0
100
AcDbEntity
  8
Dimensions
  6
ByLayer
 62
  256
370
   -1
100
AcDbDimension
  2
*D18
 10
3.016602809560732e-16
 20
45
 30
0
 11
5.4
 21
46.875
 31
0
 70
   32
 71
    5
  3
Standard
 53
0
210
0
220
0
230
1
100
AcDbAlignedDimension
 13
10.8
 23
35.3
 33
0
 14
1.387778780781446e-17
 24
40.3
 34
0
100
AcDbRotatedDimension
  0
DIMENSION
  5
1D1
100
AcDbEntity
  8
Dimensions
  6
ByLayer
 62
  256
370
   -1
100
AcDbDimension
  2
*D19
 10
1.510564676815402e-17
 20
41
 30
0
 11
-4.45
 21
42.875
 31
0
 70
   32
 71
    5
  3
Standard
 53
0
210
0
220
0
230
1
100
AcDbAlignedDimension
 13
-8.9
 23
27.4
 33
0
 14
-2.775557561562891e-17
 24
40.3
 34
0
100
AcDbRotatedDimension
  0
DIMENSION
  5
1D2
100
AcDbEntity
  8
Dimensions
  6
ByLayer
 62
  256
370
   -1
100
AcDbDimension
  2
*D20
 10
2.898343457596849e-17
 20
41
 30
0
 11
4.45
 21
42.875
 31
0
 70
   32
 71
    5
  3
Standard
 53
0
210
0
220
0
230
1
100
AcDbAlignedDimension
 13
8.9
 23
27.4
 33
0
 14
-1.387778780781446e-17
 24
40.3
 34
0
100
AcDbRotatedDimension
  0
DIMENSION
  5
1D3
100
AcDbEntity
  8
Dimensions
  6
ByLayer
 62
  256
370
   -1
100
AcDbDimension
  2
*D21
 10
-20
 20
2.449212707644755e-15
 30
0
 11
-21.875
 21
17.65
 31
0
 70
   32
 71
    5
  3
Standard
 53
0
210
0
220
0
230
1
100
AcDbAlignedDimension
 13
10.8
 23
35.3
 33
0
 14
0
 24
0
 34
0
 50
90
100
AcDbRotatedDimension
  0
DIMENSION
  5
1D4
100
AcDbEntity
  8
Dimensions
  6
ByLayer
 62
  256
370
   -1
100
AcDbDimension
  2
*D22
 10
15
 20
10.65
 30
0
 11
13.125
 21
19.55
 31
0
 70
   32
 71
    5
  3
Standard
 53
0
210
0
220
0
230
1
100
AcDbAlignedDimension
 13
7.9
 23
28.45
 33
0
 14
7.9
 24
10.65
 34
0
 50
90
100
AcDbRotatedDimension
  0
DIMENSION
  5
1D5
100
AcDbEntity
  8
Dimensions
  6
ByLayer
 62
  256
370
   -1
100
AcDbDimension
  2
*D23
 10
15
 20
-1.836909530733566e-15
 30
0
 11
13.125
 21
5.325
 31
0
 70
   32
 71
    5
  3
Standard
 53
0
210
0
220
0
230
1
100
AcDbAlignedDimension
 13
7.9
 23
10.65
 33
0
 14
0
 24
0
 34
0
 50
90
100
AcDbRotatedDimension
  0
DIMENSION
  5
1D6
100
AcDbEntity
  8
Dimensions
  6
ByLayer
 62
  256
370
   -1
100
AcDbDimension
  2
*D24
 10
33.7
 20
10.85
 30
0
 11
30.12575716486101
 21
16.99941125917514
 31
0
 70
   36
  1
4-R1.0
 71
    5
  3
Standard
 53
0
210
0
220
0
230
1
100
AcDbRadialDimension
 15
32.98734754081085
 25
11.55151726451432
 35
0
 40
0
  0
DIMENSION
  5
1D7
100
AcDbEntity
  8
Dimensions
  6
ByLayer
 62
  256
370
   -1
100
AcDbDimension
  2
*D25
 10
25.3444992329741
 20
7.501232741917235
 30
0
 11
23.52684911287586
 21
8.833251150538848
 31
0
 70
   35
 71
    5
  3
Standard
 53
0
210
0
220
0
230
1
100
AcDbDiametricDimension
 15
25.4555007670259
 25
9.998767258082765
 35
0
 40
0
  0
DIMENSION
  5
1D8
100
AcDbEntity
  8
Dimensions
  6
ByLayer
 62
  256
370
   -1
100
AcDbDimension
  2
*D26
 10
30.5
 20
-5.967936648337837e-16
 30
0
 11
28.625
 21
4.375
 31
0
 70
   32
 71
    5
  3
Standard
 53
0
210
0
220
0
230
1
100
AcDbAlignedDimension
 13
25.4
 23
8.75
 33
0
 14
25.4
 24
2.775557561562891e-17
 34
0
 50
90
100
AcDbRotatedDimension
  0
DIMENSION
  5
1D9
100
AcDbEntity
  8
Dimensions
  6
ByLayer
 62
  256
370
   -1
100
AcDbDimension
  2
*D27
 10
43.50000000000001
 20
-5
 30
0
 11
38.10000000000001
 21
-3.125
 31
0
 70
   32
 71
    5
  3
Standard
 53
0
210
0
220
0
230
1
100
AcDbAlignedDimension
 13
32.7
 23
9.35
 33
0
 14
43.50000000000001
 24
9.35
 34
0
100
AcDbRotatedDimension
  0
DIMENSION
  5
1DA
100
AcDbEntity
  8
Dimensions
  6
ByLayer
 62
  256
370
   -1
100
AcDbDimension
  2
*D28
 10
32.7
 20
-5.000000000000002
 30
0
 11
16.35
 21
-3.125000000000002
 31
0
 70
   32
 71
    5
  3
Standard
 53
0
210
0
220
0
230
1
100
AcDbAlignedDimension
 13
-8.326672684688674e-17
 23
2.775557561562891e-17
 33
0
 14
32.7
 24
9.350000000000001
 34
0
100
AcDbRotatedDimension
  0
DIMENSION
  5
1DB
100
AcDbEntity
  8
Dimensions
  6
ByLayer
 62
  256
370
   -1
100
AcDbDimension
  2
*D29
 10
-9.798477133837746e-17
 20
-5
 30
0
 11
-15.8
 21
-3.125
 31
0
 70
   32
 71
    5
  3
Standard
 53
0
210
0
220
0
230
1
100
AcDbAlignedDimension
 13
-31.6
 23
9.250000000000002
 33
0
 14
2.081668171172169e-16
 24
5.551115123125783e-17
 34
0
100
AcDbRotatedDimension
  0
DIMENSION
  5
1DC
100
AcDbEntity
  8
Dimensions
  6
ByLayer
 62
  256
370
   -1
100
AcDbDimension
  2
*D30
 10
-31.6
 20
-5
 30
0
 11
-38.1
 21
-3.125
 31
0
 70
   32
 71
    5
  3
Standard
 53
0
210
0
220
0
230
1
100
AcDbAlignedDimension
 13
-44.6
 23
9.25
 33
0
 14
-31.6
 24
9.25
 34
0
100
AcDbRotatedDimension
  0
DIMENSION
  5
1DD
100
AcDbEntity
  8
Dimensions
  6
ByLayer
 62
  256
370
   -1
100
AcDbDimension
  2
*D31
 10
-63.5
 20
7.499999999999996
 30
0
 11
-65.375
 21
8.749999999999998
 31
0
 70
   35
 71
    5
  3
Standard
 53
0
210
0
220
0
230
1
100
AcDbDiametricDimension
 15
-63.5
 25
10
 35
0
 40
0
  0
DIMENSION
  5
1DE
100
AcDbEntity
  8
Dimensions
  6
ByLayer
 62
  256
370
   -1
100
AcDbDimension
  2
*D32
 10
-55
 20
-1.040915400749021e-15
 30
0
 11
-56.875
 21
4.375
 31
0
 70
   32
 71
    5
  3
Standard
 53
0
210
0
220
0
230
1
100
AcDbAlignedDimension
 13
-63.5
 23
8.75
 33
0
 14
-63.5
 24
0
 34
0
 50
90
100
AcDbRotatedDimension
  0
DIMENSION
  5
1DF
100
AcDbEntity
  8
Dimensions
  6
ByLayer
 62
  256
370
   -1
100
AcDbDimension
  2
*D33
 10
-50
 20
7.959941299845452e-16
 30
0
 11
-51.875
 21
3.875000000000001
 31
0
 70
   32
 71
    5
  3
Standard
 53
0
210
0
220
0
230
1
100
AcDbAlignedDimension
 13
-43.5
 23
7.75
 33
0
 14
-43.5
 24
0
 34
0
 50
90
100
AcDbRotatedDimension
  0
DIMENSION
  5
1E0
100
AcDbEntity
  8
Dimensions
  6
ByLayer
 62
  256
370
   -1
100
AcDbDimension
  2
*D34
 10
-50
 20
7.750000000000001
 30
0
 11
-51.875
 21
9.25
 31
0
 70
   32
 71
    5
  3
Standard
 53
0
210
0
220
0
230
1
100
AcDbAlignedDimension
 13
-43.5
 23
10.75
 33
0
 14
-43.5
 24
7.75
 34
0
 50
90
100
AcDbRotatedDimension
  0
DIMENSION
  5
1E1
100
AcDbEntity
  8
Dimensions
  6
ByLayer
 62
  256
370
   -1
100
AcDbDimension
  2
*D35
 10
-43.6
 20
9.75
 30
0
 11
-46.59410118565062
 21
16.20180817826273
 31
0
 70
   36
  1
4-R1.0
 71
    5
  3
Standard
 53
0
210
0
220
0
230
1
100
AcDbRadialDimension
 15
-44.24518081782627
 25
10.5140299158469
 35
0
 40
0
  0
DIMENSION
  5
1E2
100
AcDbEntity
  8
Dimensions
  6
ByLayer
 62
  256
370
   -1
100
AcDbDimension
  2
*D36
 10
-90
 20
3.500000000000002
 30
0
 11
-91.875
 21
20.15
 31
0
 70
   32
  1
33.3 %%P 0.1
 71
    5
 72
    0
  3
Standard
 53
0
210
0
220
0
230
1
100
AcDbAlignedDimension
 13
-75.80000000000001
 23
36.8
 33
0
 14
-75.80000000000001
 24
3.5
 34
0
 50
90
100
AcDbRotatedDimension
  0
MTEXT
  5
1E3
100
AcDbEntity
  8
0
  6
ByLayer
 62
    5
370
   -1
100
AcDbMText
 10
-70
 20
41.5
 30
0
 40
1.5
 41
22.7500015428621
 71
    7
 72
    1
  1
Panel thickness: 1.5mm
  7

210
0
220
0
230
1
 50
0
 73
    2
 44
1
  0
ENDSEC
  0
SECTION
  2
OBJECTS
  0
DICTIONARY
  5
C
330
0
100
AcDbDictionary
281
    1
  3
ACAD_GROUP
350
D
  0
DICTIONARY
  5
D
330
C
100
AcDbDictionary
281
    1
  0
PLOTSETTINGS
  5
1E4
100
AcDbPlotSettings
  6
1x1
 40
0
 41
0
 42
0
 43
0
  0
ENDSEC
  0
EOF
