999
dxfrw 0.6.3
  0
SECTION
  2
HEADER
  9
$ACADVER
  1
AC1014
  9
$DWGCODEPAGE
  3
ANSI_1252
  9
$INSBASE
 10
0
 20
0
 30
0
  9
$EXTMIN
 10
-78.3
 20
-7
 30
0
  9
$EXTMAX
 10
78.3
 20
32
 30
0
  9
$LIMMIN
 10
0
 20
0
  9
$LIMMAX
 10
420
 20
297
  9
$ORTHOMODE
 70
    0
  9
$REGENMODE
 70
    1
  9
$FILLMODE
 70
    1
  9
$QTEXTMODE
 70
    0
  9
$MIRRTEXT
 70
    0
  9
$LTSCALE
 40
1
  9
$ATTMODE
 70
    0
  9
$TEXTSIZE
 40
2.5
  9
$TRACEWID
 40
15.68
  9
$TEXTSTYLE
  7
STANDARD
  9
$CLAYER
  8
0
  9
$CELTYPE
  6
BYLAYER
  9
$CECOLOR
 62
  256
  9
$CELTSCALE
 40
1
  9
$DISPSILH
 70
    0
  9
$DIMSCALE
 40
2.5
  9
$DIMASZ
 40
2.5
  9
$DIMEXO
 40
0.625
  9
$DIMDLI
 40
3.75
  9
$DIMRND
 40
0
  9
$DIMDLE
 40
0
  9
$DIMEXE
 40
1.25
  9
$DIMTP
 40
0
  9
$DIMTM
 40
0
  9
$DIMTXT
 40
2.5
  9
$DIMCEN
 40
2.5
  9
$DIMTSZ
 40
0
  9
$DIMTOL
 70
    0
  9
$DIMLIM
 70
    0
  9
$DIMTIH
 70
    0
  9
$DIMTOH
 70
    0
  9
$DIMSE1
 70
    0
  9
$DIMSE2
 70
    0
  9
$DIMTAD
 70
    1
  9
$DIMZIN
 70
    8
  9
$DIMBLK
  1

  9
$DIMASO
 70
    1
  9
$DIMSHO
 70
    1
  9
$DIMPOST
  1

  9
$DIMAPOST
  1

  9
$DIMALT
 70
    0
  9
$DIMALTD
 70
    3
  9
$DIMALTF
 40
0.03937
  9
$DIMLFAC
 40
1
  9
$DIMTOFL
 70
    1
  9
$DIMTVP
 40
0
  9
$DIMTIX
 70
    0
  9
$DIMSOXD
 70
    0
  9
$DIMSAH
 70
    0
  9
$DIMBLK1
  1

  9
$DIMBLK2
  1

  9
$DIMSTYLE
  2
Standard
  9
$DIMCLRD
 70
    0
  9
$DIMCLRE
 70
    0
  9
$DIMCLRT
 70
    0
  9
$DIMTFAC
 40
1
  9
$DIMGAP
 40
0.625
  9
$DIMJUST
 70
    0
  9
$DIMSD1
 70
    0
  9
$DIMSD2
 70
    0
  9
$DIMTOLJ
 70
    0
  9
$DIMTZIN
 70
    8
  9
$DIMALTZ
 70
    0
  9
$DIMALTTZ
 70
    0
  9
$DIMUPT
 70
    0
  9
$DIMDEC
 70
    2
  9
$DIMTDEC
 70
    2
  9
$DIMALTU
 70
    2
  9
$DIMALTTD
 70
    3
  9
$DIMTXSTY
  7
STANDARD
  9
$DIMAUNIT
 70
    0
  9
$DIMADEC
 70
    0
  9
$DIMALTRND
 40
0
  9
$DIMAZIN
 70
    0
  9
$DIMDSEP
 70
   44
  9
$DIMATFIT
 70
    3
  9
$DIMFRAC
 70
    0
  9
$DIMLDRBLK
  1
STANDARD
  9
$DIMUNIT
 70
    2
  9
$DIMLWD
 70
   -2
  9
$DIMLWE
 70
   -2
  9
$DIMTMOVE
 70
    0
  9
$LUNITS
 70
    2
  9
$LUPREC
 70
    4
  9
$SKETCHINC
 40
1
  9
$FILLETRAD
 40
0
  9
$AUNITS
 70
    0
  9
$AUPREC
 70
    2
  9
$MENU
  1
.
  9
$ELEVATION
 40
0
  9
$PELEVATION
 40
0
  9
$THICKNESS
 40
0
  9
$LIMCHECK
 70
    0
  9
$BLIPMODE
 70
    0
  9
$CHAMFERA
 40
0
  9
$CHAMFERB
 40
0
  9
$CHAMFERC
 40
0
  9
$CHAMFERD
 40
0
  9
$SKPOLY
 70
    0
  9
$USRTIMER
 70
    1
  9
$ANGBASE
 50
0
  9
$ANGDIR
 70
    0
  9
$PDMODE
 70
   34
  9
$PDSIZE
 40
0
  9
$PLINEWID
 40
0
  9
$SPLFRAME
 70
    0
  9
$SPLINETYPE
 70
    2
  9
$SPLINESEGS
 70
    8
  9
$HANDSEED
  5
20000
  9
$SURFTAB1
 70
    6
  9
$SURFTAB2
 70
    6
  9
$SURFTYPE
 70
    6
  9
$SURFU
 70
    6
  9
$SURFV
 70
    6
  9
$UCSBASE
  2

  9
$UCSNAME
  2

  9
$UCSORG
 10
0
 20
0
 30
0
  9
$UCSXDIR
 10
1
 20
0
 30
0
  9
$UCSYDIR
 10
0
 20
1
 30
0
  9
$UCSORTHOREF
  2

  9
$UCSORTHOVIEW
 70
    0
  9
$UCSORGTOP
 10
0
 20
0
 30
0
  9
$UCSORGBOTTOM
 10
0
 20
0
 30
0
  9
$UCSORGLEFT
 10
0
 20
0
 30
0
  9
$UCSORGRIGHT
 10
0
 20
0
 30
0
  9
$UCSORGFRONT
 10
0
 20
0
 30
0
  9
$UCSORGBACK
 10
0
 20
0
 30
0
  9
$PUCSBASE
  2

  9
$PUCSNAME
  2

  9
$PUCSORG
 10
0
 20
0
 30
0
  9
$PUCSXDIR
 10
1
 20
0
 30
0
  9
$PUCSYDIR
 10
0
 20
1
 30
0
  9
$PUCSORTHOREF
  2

  9
$PUCSORTHOVIEW
 70
    0
  9
$PUCSORGTOP
 10
0
 20
0
 30
0
  9
$PUCSORGBOTTOM
 10
0
 20
0
 30
0
  9
$PUCSORGLEFT
 10
0
 20
0
 30
0
  9
$PUCSORGRIGHT
 10
0
 20
0
 30
0
  9
$PUCSORGFRONT
 10
0
 20
0
 30
0
  9
$PUCSORGBACK
 10
0
 20
0
 30
0
  9
$USERI1
 70
    0
  9
$USERI2
 70
    0
  9
$USERI3
 70
    0
  9
$USERI4
 70
    0
  9
$USERI5
 70
    0
  9
$USERR1
 40
0
  9
$USERR2
 40
0
  9
$USERR3
 40
0
  9
$USERR4
 40
0
  9
$USERR5
 40
0
  9
$WORLDVIEW
 70
    1
  9
$SHADEDGE
 70
    3
  9
$SHADEDIF
 70
   70
  9
$TILEMODE
 70
    1
  9
$MAXACTVP
 70
   64
  9
$PINSBASE
 10
0
 20
0
 30
0
  9
$PLIMCHECK
 70
    0
  9
$PEXTMIN
 10
0
 20
0
 30
0
  9
$PEXTMAX
 10
0
 20
0
 30
0
  9
$PLIMMIN
 10
0
 20
0
  9
$PLIMMAX
 10
297
 20
210
  9
$UNITMODE
 70
    0
  9
$VISRETAIN
 70
    1
  9
$PLINEGEN
 70
    0
  9
$PSLTSCALE
 70
    1
  9
$TREEDEPTH
 70
 3020
  9
$CMLSTYLE
  2
Standard
  9
$CMLJUST
 70
    0
  9
$CMLSCALE
 40
20
  9
$PROXYGRAPHICS
 70
    1
  9
$MEASUREMENT
 70
    1
  9
$CELWEIGHT
370
   -1
  9
$ENDCAPS
280
    0
  9
$JOINSTYLE
280
    0
  9
$LWDISPLAY
290
    0
  9
$HYPERLINKBASE
  1

  9
$STYLESHEET
  1

  9
$XEDIT
290
    1
  9
$CEPSNTYPE
380
    0
  9
$PSTYLEMODE
290
    1
  9
$EXTNAMES
290
    1
  9
$PSVPSCALE
 40
0
  9
$OLESTARTUP
290
    0
  0
ENDSEC
  0
SECTION
  2
CLASSES
  0
ENDSEC
  0
SECTION
  2
TABLES
  0
TABLE
  2
VPORT
  5
8
100
AcDbSymbolTable
 70
    1
  0
VPORT
  5
31
330
2
100
AcDbSymbolTableRecord
100
AcDbViewportTableRecord
  2
*ACTIVE
 70
    0
 10
0
 20
0
 11
1
 21
1
 12
39.65
 22
27.75
 13
0
 23
0
 14
10
 24
10
 15
10
 25
10
 16
0
 26
0
 36
1
 17
0
 27
0
 37
0
 40
85.90000000000001
 41
1.846332945285215
 42
50
 43
0
 44
0
 50
0
 51
0
 71
    0
 72
  100
 73
    1
 74
    3
 75
    0
 76
    1
 77
    0
 78
    0
  0
ENDTAB
  0
TABLE
  2
LTYPE
  5
5
100
AcDbSymbolTable
 70
    4
  0
LTYPE
  5
14
100
AcDbSymbolTableRecord
100
AcDbLinetypeTableRecord
  2
ByBlock
 70
    0
  3

 72
   65
 73
    0
 40
0
  0
LTYPE
  5
15
100
AcDbSymbolTableRecord
100
AcDbLinetypeTableRecord
  2
ByLayer
 70
    0
  3

 72
   65
 73
    0
 40
0
  0
LTYPE
  5
16
100
AcDbSymbolTableRecord
100
AcDbLinetypeTableRecord
  2
Continuous
 70
    0
  3
Solid line
 72
   65
 73
    0
 40
0
  0
LTYPE
  5
32
330
5
100
AcDbSymbolTableRecord
100
AcDbLinetypeTableRecord
  2
DOT
 70
    0
  3
Dot . . . . . . . . . . . . . . . . . . . . . .
 72
   65
 73
    2
 40
6.35
 49
0
 74
    0
 49
-6.35
 74
    0
  0
LTYPE
  5
33
330
5
100
AcDbSymbolTableRecord
100
AcDbLinetypeTableRecord
  2
DOTTINY
 70
    0
  3
Dot (.15x) .....................................
 72
   65
 73
    2
 40
0.9525
 49
0
 74
    0
 49
-0.9525
 74
    0
  0
LTYPE
  5
34
330
5
100
AcDbSymbolTableRecord
100
AcDbLinetypeTableRecord
  2
DOT2
 70
    0
  3
Dot (.5x) .....................................
 72
   65
 73
    2
 40
3.175
 49
0
 74
    0
 49
-3.175
 74
    0
  0
LTYPE
  5
35
330
5
100
AcDbSymbolTableRecord
100
AcDbLinetypeTableRecord
  2
DOTX2
 70
    0
  3
Dot (2x) .  .  .  .  .  .  .  .  .  .  .  .  .
 72
   65
 73
    2
 40
12.7
 49
0
 74
    0
 49
-12.7
 74
    0
  0
LTYPE
  5
36
330
5
100
AcDbSymbolTableRecord
100
AcDbLinetypeTableRecord
  2
DASHED
 70
    0
  3
Dashed _ _ _ _ _ _ _ _ _ _ _ _ _ _ _ _ _
 72
   65
 73
    2
 40
19.05
 49
12.7
 74
    0
 49
-6.35
 74
    0
  0
LTYPE
  5
37
330
5
100
AcDbSymbolTableRecord
100
AcDbLinetypeTableRecord
  2
DASHEDTINY
 70
    0
  3
Dashed (.15x) _ _ _ _ _ _ _ _ _ _ _ _ _ _ _ _ _
 72
   65
 73
    2
 40
2.8575
 49
1.905
 74
    0
 49
-0.9525
 74
    0
  0
LTYPE
  5
38
330
5
100
AcDbSymbolTableRecord
100
AcDbLinetypeTableRecord
  2
DASHED2
 70
    0
  3
Dashed (.5x) _ _ _ _ _ _ _ _ _ _ _ _ _ _ _ _ _
 72
   65
 73
    2
 40
9.524999999999999
 49
6.35
 74
    0
 49
-3.175
 74
    0
  0
LTYPE
  5
39
330
5
100
AcDbSymbolTableRecord
100
AcDbLinetypeTableRecord
  2
DASHEDX2
 70
    0
  3
Dashed (2x) ____  ____  ____  ____  ____  ___
 72
   65
 73
    2
 40
38.09999999999999
 49
25.4
 74
    0
 49
-12.7
 74
    0
  0
LTYPE
  5
3A
330
5
100
AcDbSymbolTableRecord
100
AcDbLinetypeTableRecord
  2
DASHDOT
 70
    0
  3
Dash dot __ . __ . __ . __ . __ . __ . __ . __
 72
   65
 73
    4
 40
25.4
 49
12.7
 74
    0
 49
-6.35
 74
    0
 49
0
 74
    0
 49
-6.35
 74
    0
  0
LTYPE
  5
3B
330
5
100
AcDbSymbolTableRecord
100
AcDbLinetypeTableRecord
  2
DASHDOTTINY
 70
    0
  3
Dash dot (.15x) _._._._._._._._._._._._._._._.
 72
   65
 73
    4
 40
3.81
 49
1.905
 74
    0
 49
-0.9525
 74
    0
 49
0
 74
    0
 49
-0.9525
 74
    0
  0
LTYPE
  5
3C
330
5
100
AcDbSymbolTableRecord
100
AcDbLinetypeTableRecord
  2
DASHDOT2
 70
    0
  3
Dash dot (.5x) _._._._._._._._._._._._._._._.
 72
   65
 73
    4
 40
12.7
 49
6.35
 74
    0
 49
-3.175
 74
    0
 49
0
 74
    0
 49
-3.175
 74
    0
  0
LTYPE
  5
3D
330
5
100
AcDbSymbolTableRecord
100
AcDbLinetypeTableRecord
  2
DASHDOTX2
 70
    0
  3
Dash dot (2x) ____  .  ____  .  ____  .  ___
 72
   65
 73
    4
 40
50.8
 49
25.4
 74
    0
 49
-12.7
 74
    0
 49
0
 74
    0
 49
-12.7
 74
    0
  0
LTYPE
  5
3E
330
5
100
AcDbSymbolTableRecord
100
AcDbLinetypeTableRecord
  2
DIVIDE
 70
    0
  3
Divide ____ . . ____ . . ____ . . ____ . . ____
 72
   65
 73
    6
 40
31.75
 49
12.7
 74
    0
 49
-6.35
 74
    0
 49
0
 74
    0
 49
-6.35
 74
    0
 49
0
 74
    0
 49
-6.35
 74
    0
  0
LTYPE
  5
3F
330
5
100
AcDbSymbolTableRecord
100
AcDbLinetypeTableRecord
  2
DIVIDETINY
 70
    0
  3
Divide (.15x) __..__..__..__..__..__..__..__.._
 72
   65
 73
    6
 40
4.7625
 49
1.905
 74
    0
 49
-0.9525
 74
    0
 49
0
 74
    0
 49
-0.9525
 74
    0
 49
0
 74
    0
 49
-0.9525
 74
    0
  0
LTYPE
  5
40
330
5
100
AcDbSymbolTableRecord
100
AcDbLinetypeTableRecord
  2
DIVIDE2
 70
    0
  3
Divide (.5x) __..__..__..__..__..__..__..__.._
 72
   65
 73
    6
 40
15.875
 49
6.35
 74
    0
 49
-3.175
 74
    0
 49
0
 74
    0
 49
-3.175
 74
    0
 49
0
 74
    0
 49
-3.175
 74
    0
  0
LTYPE
  5
41
330
5
100
AcDbSymbolTableRecord
100
AcDbLinetypeTableRecord
  2
DIVIDEX2
 70
    0
  3
Divide (2x) ________  .  .  ________  .  .  _
 72
   65
 73
    6
 40
63.5
 49
25.4
 74
    0
 49
-12.7
 74
    0
 49
0
 74
    0
 49
-12.7
 74
    0
 49
0
 74
    0
 49
-12.7
 74
    0
  0
LTYPE
  5
42
330
5
100
AcDbSymbolTableRecord
100
AcDbLinetypeTableRecord
  2
BORDER
 70
    0
  3
Border __ __ . __ __ . __ __ . __ __ . __ __ .
 72
   65
 73
    6
 40
44.45
 49
12.7
 74
    0
 49
-6.35
 74
    0
 49
12.7
 74
    0
 49
-6.35
 74
    0
 49
0
 74
    0
 49
-6.35
 74
    0
  0
LTYPE
  5
43
330
5
100
AcDbSymbolTableRecord
100
AcDbLinetypeTableRecord
  2
BORDERTINY
 70
    0
  3
Border (.15x) __.__.__.__.__.__.__.__.__.__.__.
 72
   65
 73
    6
 40
6.6675
 49
1.905
 74
    0
 49
-0.9525
 74
    0
 49
1.905
 74
    0
 49
-0.9525
 74
    0
 49
0
 74
    0
 49
-0.9525
 74
    0
  0
LTYPE
  5
44
330
5
100
AcDbSymbolTableRecord
100
AcDbLinetypeTableRecord
  2
BORDER2
 70
    0
  3
Border (.5x) __.__.__.__.__.__.__.__.__.__.__.
 72
   65
 73
    6
 40
22.225
 49
6.35
 74
    0
 49
-3.175
 74
    0
 49
6.35
 74
    0
 49
-3.175
 74
    0
 49
0
 74
    0
 49
-3.175
 74
    0
  0
LTYPE
  5
45
330
5
100
AcDbSymbolTableRecord
100
AcDbLinetypeTableRecord
  2
BORDERX2
 70
    0
  3
Border (2x) ____  ____  .  ____  ____  .  ___
 72
   65
 73
    6
 40
88.89999999999999
 49
25.4
 74
    0
 49
-12.7
 74
    0
 49
25.4
 74
    0
 49
-12.7
 74
    0
 49
0
 74
    0
 49
-12.7
 74
    0
  0
LTYPE
  5
46
330
5
100
AcDbSymbolTableRecord
100
AcDbLinetypeTableRecord
  2
CENTER
 70
    0
  3
Center ____ _ ____ _ ____ _ ____ _ ____ _ ____
 72
   65
 73
    4
 40
50.8
 49
31.75
 74
    0
 49
-6.35
 74
    0
 49
6.35
 74
    0
 49
-6.35
 74
    0
  0
LTYPE
  5
47
330
5
100
AcDbSymbolTableRecord
100
AcDbLinetypeTableRecord
  2
CENTERTINY
 70
    0
  3
Center (.15x) ___ _ ___ _ ___ _ ___ _ ___ _ ___
 72
   65
 73
    4
 40
7.62
 49
4.7625
 74
    0
 49
-0.9525
 74
    0
 49
0.9525
 74
    0
 49
-0.9525
 74
    0
  0
LTYPE
  5
48
330
5
100
AcDbSymbolTableRecord
100
AcDbLinetypeTableRecord
  2
CENTER2
 70
    0
  3
Center (.5x) ___ _ ___ _ ___ _ ___ _ ___ _ ___
 72
   65
 73
    4
 40
28.575
 49
19.05
 74
    0
 49
-3.175
 74
    0
 49
3.175
 74
    0
 49
-3.175
 74
    0
  0
LTYPE
  5
49
330
5
100
AcDbSymbolTableRecord
100
AcDbLinetypeTableRecord
  2
CENTERX2
 70
    0
  3
Center (2x) ________  __  ________  __  _____
 72
   65
 73
    4
 40
101.6
 49
63.5
 74
    0
 49
-12.7
 74
    0
 49
12.7
 74
    0
 49
-12.7
 74
    0
  0
ENDTAB
  0
TABLE
  2
LAYER
  5
2
100
AcDbSymbolTable
 70
    1
  0
LAYER
  5
10
330
2
100
AcDbSymbolTableRecord
100
AcDbLayerTableRecord
  2
0
 70
    0
 62
    7
  6
CONTINUOUS
370
    0
390
F
  0
LAYER
  5
4A
330
2
100
AcDbSymbolTableRecord
100
AcDbLayerTableRecord
  2
drills_NPTH
 70
    0
 62
    7
  6
CONTINUOUS
370
   -3
390
F
  0
LAYER
  5
4B
330
2
100
AcDbSymbolTableRecord
100
AcDbLayerTableRecord
  2
holes
 70
    0
 62
    7
  6
CONTINUOUS
370
   -3
390
F
  0
LAYER
  5
4C
330
2
100
AcDbSymbolTableRecord
100
AcDbLayerTableRecord
  2
outline
 70
    0
 62
    7
  6
CONTINUOUS
370
   -3
390
F
  0
ENDTAB
  0
TABLE
  2
STYLE
  5
3
100
AcDbSymbolTable
 70
    3
  0
STYLE
  5
4D
330
2
100
AcDbSymbolTableRecord
100
AcDbTextStyleTableRecord
  2
Standard
 70
    0
 40
0
 41
1
 50
0
 71
    0
 42
1
  3
txt
  4

  0
ENDTAB
  0
TABLE
  2
VIEW
  5
6
100
AcDbSymbolTable
 70
    0
  0
ENDTAB
  0
TABLE
  2
UCS
  5
7
100
AcDbSymbolTable
 70
    0
  0
ENDTAB
  0
TABLE
  2
APPID
  5
9
100
AcDbSymbolTable
 70
    1
  0
APPID
  5
12
100
AcDbSymbolTableRecord
100
AcDbRegAppTableRecord
  2
ACAD
 70
    0
  0
APPID
  5
4E
100
AcDbSymbolTableRecord
100
AcDbRegAppTableRecord
  2
LibreCad
 70
    0
  0
ENDTAB
  0
TABLE
  2
DIMSTYLE
  5
A
100
AcDbSymbolTable
 70
    1
  0
DIMSTYLE
105
4F
330
A
100
AcDbSymbolTableRecord
100
AcDbDimStyleTableRecord
  2
Standard
 70
    0
 40
1
 41
2.5
 42
0.625
 43
0.38
 44
1.25
 45
0
 46
0
 47
0
 48
0
 49
1
140
2.5
141
0.09
142
2.5
143
25.4
144
1
145
0
146
1
147
0.625
 71
    0
 72
    0
 73
    0
 74
    1
 75
    0
 76
    0
 77
    0
 78
    1
170
    0
171
    2
172
    0
173
    0
174
    0
175
    0
176
    0
177
    0
178
    0
270
    2
271
    2
272
    4
273
    2
274
    2
275
    0
280
    0
281
    0
282
    0
283
    1
284
    0
285
    0
286
    0
287
    3
288
    0
340
standard
  0
ENDTAB
  0
TABLE
  2
BLOCK_RECORD
  5
1
100
AcDbSymbolTable
 70
    2
  0
BLOCK_RECORD
  5
1F
100
AcDbSymbolTableRecord
100
AcDbBlockTableRecord
  2
*Model_Space
  0
BLOCK_RECORD
  5
1E
100
AcDbSymbolTableRecord
100
AcDbBlockTableRecord
  2
*Paper_Space
  0
ENDTAB
  0
ENDSEC
  0
SECTION
  2
BLOCKS
  0
BLOCK
  5
20
100
AcDbEntity
  8
0
100
AcDbBlockBegin
  2
*Model_Space
 70
    0
 10
0
 20
0
 30
0
  3
*Model_Space
  1

  0
ENDBLK
  5
21
100
AcDbEntity
  8
0
100
AcDbBlockEnd
  0
BLOCK
  5
1C
100
AcDbEntity
  8
0
100
AcDbBlockBegin
  2
*Paper_Space
 70
    0
 10
0
 20
0
 30
0
  3
*Paper_Space
  1

  0
ENDBLK
  5
1D
100
AcDbEntity
  8
0
100
AcDbBlockEnd
  0
ENDSEC
  0
SECTION
  2
ENTITIES
  0
LWPOLYLINE
  5
50
100
AcDbEntity
  8
outline
  6
ByLayer
 62
  256
100
AcDbPolyline
 90
  220
 70
    1
 43
0
 10
-78.3
 20
3.5
 10
-78.289534375
 20
3.260321875
 10
-78.258221875
 20
3.02246875
 10
-78.20629687500001
 20
2.788246875
 10
-78.13415625
 20
2.55944375
 10
-78.04234687500001
 20
2.3378
 10
-77.93156875
 20
2.125
 10
-77.80266875000001
 20
1.922665625
 10
-77.656621875
 20
1.732334375
 10
-77.49454375000001
 20
1.55545625
 10
-77.317665625
 20
1.393378125
 10
-77.127334375
 20
1.24733125
 10
-76.925
 20
1.11843125
 10
-76.71220000000001
 20
1.007653125
 10
-76.49055625
 20
0.9158437500000001
 10
-76.261753125
 20
0.843703125
 10
-76.02753125000001
 20
0.791778125
 10
-75.78967812500001
 20
0.760465625
 10
-75.55
 20
0.75
 10
-75.114221875
 20
0.730975
 10
-74.681759375
 20
0.6740375000000001
 10
-74.25590625000001
 20
0.579628125
 10
-73.8399
 20
0.4484625
 10
-73.436909375
 20
0.2815375
 10
-73.05
 20
0.08012812500000001
 10
-72.68211875
 20
-0.154240625
 10
-72.3360625
 20
-0.419778125
 10
-72.014465625
 20
-0.714465625
 10
-71.719778125
 20
-1.0360625
 10
-71.454240625
 20
-1.38211875
 10
-71.21987187500001
 20
-1.75
 10
-71.0184625
 20
-2.136909375
 10
-70.85153750000001
 20
-2.5399
 10
-70.720371875
 20
-2.95590625
 10
-70.6259625
 20
-3.381759375
 10
-70.569025
 20
-3.814221875
 10
-70.55
 20
-4.25
 10
-70.539534375
 20
-4.489678125
 10
-70.508221875
 20
-4.72753125
 10
-70.45629687500001
 20
-4.961753125
 10
-70.38415625
 20
-5.19055625
 10
-70.29234687500001
 20
-5.4122
 10
-70.18156875
 20
-5.625
 10
-70.05266875000001
 20
-5.827334375
 10
-69.906621875
 20
-6.017665625
 10
-69.74454375000001
 20
-6.19454375
 10
-69.567665625
 20
-6.356621875
 10
-69.377334375
 20
-6.502668750000001
 10
-69.175
 20
-6.63156875
 10
-68.96220000000001
 20
-6.742346875
 10
-68.74055625
 20
-6.83415625
 10
-68.511753125
 20
-6.906296875000001
 10
-68.27753125000001
 20
-6.958221875
 10
-68.03967812500001
 20
-6.989534375000001
 10
-67.8
 20
-7
 10
67.8
 20
-7
 10
68.03967812500001
 20
-6.989534375000001
 10
68.27753125000001
 20
-6.958221875
 10
68.511753125
 20
-6.906296875000001
 10
68.74055625
 20
-6.83415625
 10
68.96220000000001
 20
-6.742346875
 10
69.175
 20
-6.63156875
 10
69.377334375
 20
-6.502668750000001
 10
69.567665625
 20
-6.356621875
 10
69.74454375000001
 20
-6.19454375
 10
69.906621875
 20
-6.017665625
 10
70.05266875000001
 20
-5.827334375
 10
70.18156875
 20
-5.625
 10
70.29234687500001
 20
-5.4122
 10
70.38415625
 20
-5.19055625
 10
70.45629687500001
 20
-4.961753125
 10
70.508221875
 20
-4.72753125
 10
70.539534375
 20
-4.489678125
 10
70.55
 20
-4.25
 10
70.569025
 20
-3.814221875
 10
70.6259625
 20
-3.381759375
 10
70.720371875
 20
-2.95590625
 10
70.85153750000001
 20
-2.5399
 10
71.0184625
 20
-2.136909375
 10
71.21987187500001
 20
-1.75
 10
71.454240625
 20
-1.38211875
 10
71.719778125
 20
-1.0360625
 10
72.014465625
 20
-0.714465625
 10
72.3360625
 20
-0.419778125
 10
72.68211875
 20
-0.154240625
 10
73.05
 20
0.08012812500000001
 10
73.436909375
 20
0.2815375
 10
73.8399
 20
0.4484625
 10
74.25590625000001
 20
0.579628125
 10
74.681759375
 20
0.6740375000000001
 10
75.114221875
 20
0.730975
 10
75.55
 20
0.75
 10
75.78967812500001
 20
0.760465625
 10
76.02753125000001
 20
0.791778125
 10
76.261753125
 20
0.843703125
 10
76.49055625
 20
0.9158437500000001
 10
76.71220000000001
 20
1.007653125
 10
76.925
 20
1.11843125
 10
77.127334375
 20
1.24733125
 10
77.317665625
 20
1.393378125
 10
77.49454375000001
 20
1.55545625
 10
77.656621875
 20
1.732334375
 10
77.80266875000001
 20
1.922665625
 10
77.93156875
 20
2.125
 10
78.04234687500001
 20
2.3378
 10
78.13415625
 20
2.55944375
 10
78.20629687500001
 20
2.788246875
 10
78.258221875
 20
3.02246875
 10
78.289534375
 20
3.260321875
 10
78.3
 20
3.5
 10
78.3
 20
21.5
 10
78.289534375
 20
21.739678125
 10
78.258221875
 20
21.97753125
 10
78.20629687500001
 20
22.211753125
 10
78.13415625
 20
22.44055625
 10
78.04234687500001
 20
22.6622
 10
77.93156875
 20
22.875
 10
77.80266875000001
 20
23.077334375
 10
77.656621875
 20
23.267665625
 10
77.49454375000001
 20
23.44454375
 10
77.317665625
 20
23.606621875
 10
77.127334375
 20
23.75266875
 10
76.925
 20
23.88156875
 10
76.71220000000001
 20
23.992346875
 10
76.49055625
 20
24.08415625
 10
76.261753125
 20
24.156296875
 10
76.02753125000001
 20
24.208221875
 10
75.78967812500001
 20
24.239534375
 10
75.55
 20
24.25
 10
75.114221875
 20
24.269025
 10
74.681759375
 20
24.3259625
 10
74.25590625000001
 20
24.420371875
 10
73.8399
 20
24.5515375
 10
73.436909375
 20
24.7184625
 10
73.05
 20
24.919871875
 10
72.68211875
 20
25.154240625
 10
72.3360625
 20
25.419778125
 10
72.014465625
 20
25.714465625
 10
71.719778125
 20
26.0360625
 10
71.454240625
 20
26.38211875
 10
71.21987187500001
 20
26.75
 10
71.0184625
 20
27.136909375
 10
70.85153750000001
 20
27.5399
 10
70.720371875
 20
27.95590625
 10
70.6259625
 20
28.381759375
 10
70.569025
 20
28.814221875
 10
70.55
 20
29.25
 10
70.539534375
 20
29.489678125
 10
70.508221875
 20
29.72753125
 10
70.45629687500001
 20
29.961753125
 10
70.38415625
 20
30.19055625
 10
70.29234687500001
 20
30.4122
 10
70.18156875
 20
30.625
 10
70.05266875000001
 20
30.827334375
 10
69.906621875
 20
31.017665625
 10
69.74454375000001
 20
31.19454375
 10
69.567665625
 20
31.356621875
 10
69.377334375
 20
31.50266875
 10
69.175
 20
31.63156875
 10
68.96220000000001
 20
31.742346875
 10
68.74055625
 20
31.83415625
 10
68.511753125
 20
31.906296875
 10
68.27753125000001
 20
31.958221875
 10
68.03967812500001
 20
31.989534375
 10
67.8
 20
32
 10
-67.8
 20
32
 10
-68.03967812500001
 20
31.989534375
 10
-68.27753125000001
 20
31.958221875
 10
-68.511753125
 20
31.906296875
 10
-68.74055625
 20
31.83415625
 10
-68.96220000000001
 20
31.742346875
 10
-69.175
 20
31.63156875
 10
-69.377334375
 20
31.50266875
 10
-69.567665625
 20
31.356621875
 10
-69.74454375000001
 20
31.19454375
 10
-69.906621875
 20
31.017665625
 10
-70.05266875000001
 20
30.827334375
 10
-70.18156875
 20
30.625
 10
-70.29234687500001
 20
30.4122
 10
-70.38415625
 20
30.19055625
 10
-70.45629687500001
 20
29.961753125
 10
-70.508221875
 20
29.72753125
 10
-70.539534375
 20
29.489678125
 10
-70.55
 20
29.25
 10
-70.569025
 20
28.814221875
 10
-70.6259625
 20
28.381759375
 10
-70.720371875
 20
27.95590625
 10
-70.85153750000001
 20
27.5399
 10
-71.0184625
 20
27.136909375
 10
-71.21987187500001
 20
26.75
 10
-71.454240625
 20
26.38211875
 10
-71.719778125
 20
26.0360625
 10
-72.014465625
 20
25.714465625
 10
-72.3360625
 20
25.419778125
 10
-72.68211875
 20
25.154240625
 10
-73.05
 20
24.919871875
 10
-73.436909375
 20
24.7184625
 10
-73.8399
 20
24.5515375
 10
-74.25590625000001
 20
24.420371875
 10
-74.681759375
 20
24.3259625
 10
-75.114221875
 20
24.269025
 10
-75.55
 20
24.25
 10
-75.78967812500001
 20
24.239534375
 10
-76.02753125000001
 20
24.208221875
 10
-76.261753125
 20
24.156296875
 10
-76.49055625
 20
24.08415625
 10
-76.71220000000001
 20
23.992346875
 10
-76.925
 20
23.88156875
 10
-77.127334375
 20
23.75266875
 10
-77.317665625
 20
23.606621875
 10
-77.49454375000001
 20
23.44454375
 10
-77.656621875
 20
23.267665625
 10
-77.80266875000001
 20
23.077334375
 10
-77.93156875
 20
22.875
 10
-78.04234687500001
 20
22.6622
 10
-78.13415625
 20
22.44055625
 10
-78.20629687500001
 20
22.211753125
 10
-78.258221875
 20
21.97753125
 10
-78.289534375
 20
21.739678125
 10
-78.3
 20
21.5
  0
LWPOLYLINE
  5
51
100
AcDbEntity
  8
holes
  6
ByLayer
 62
  256
100
AcDbPolyline
 90
   76
 70
    1
 43
0
 10
58.75
 20
1
 10
58.75475625
 20
0.89105625
 10
58.768990625
 20
0.7829406250000001
 10
58.79259375
 20
0.676475
 10
58.82538437500001
 20
0.5724750000000001
 10
58.867115625
 20
0.471728125
 10
58.91746875
 20
0.375
 10
58.97605937500001
 20
0.283028125
 10
59.04244375
 20
0.196515625
 10
59.11611562500001
 20
0.116115625
 10
59.196515625
 20
0.04244375
 10
59.283028125
 20
-0.023940625
 10
59.375
 20
-0.08253125
 10
59.47172812500001
 20
-0.132884375
 10
59.572475
 20
-0.174615625
 10
59.676475
 20
-0.20740625
 10
59.782940625
 20
-0.231009375
 10
59.89105625000001
 20
-0.24524375
 10
60
 20
-0.25
 10
67
 20
-0.25
 10
67.10894375000001
 20
-0.24524375
 10
67.21705937500001
 20
-0.231009375
 10
67.323525
 20
-0.20740625
 10
67.427525
 20
-0.174615625
 10
67.528271875
 20
-0.132884375
 10
67.625
 20
-0.08253125
 10
67.716971875
 20
-0.023940625
 10
67.803484375
 20
0.04244375
 10
67.88388437500001
 20
0.116115625
 10
67.95755625000001
 20
0.196515625
 10
68.02394062500001
 20
0.283028125
 10
68.08253125
 20
0.375
 10
68.132884375
 20
0.471728125
 10
68.174615625
 20
0.5724750000000001
 10
68.20740625000001
 20
0.676475
 10
68.231009375
 20
0.7829406250000001
 10
68.24524375
 20
0.89105625
 10
68.25
 20
1
 10
68.25
 20
2.2
 10
68.24524375
 20
2.30894375
 10
68.231009375
 20
2.417059375
 10
68.20740625000001
 20
2.523525
 10
68.174615625
 20
2.627525
 10
68.132884375
 20
2.728271875
 10
68.08253125
 20
2.825
 10
68.02394062500001
 20
2.916971875
 10
67.95755625000001
 20
3.003484375
 10
67.88388437500001
 20
3.083884375
 10
67.803484375
 20
3.15755625
 10
67.716971875
 20
3.223940625
 10
67.625
 20
3.28253125
 10
67.528271875
 20
3.332884375
 10
67.427525
 20
3.374615625
 10
67.323525
 20
3.40740625
 10
67.21705937500001
 20
3.431009375
 10
67.10894375000001
 20
3.44524375
 10
67
 20
3.45
 10
60
 20
3.45
 10
59.89105625000001
 20
3.44524375
 10
59.782940625
 20
3.431009375
 10
59.676475
 20
3.40740625
 10
59.572475
 20
3.374615625
 10
59.47172812500001
 20
3.332884375
 10
59.375
 20
3.28253125
 10
59.283028125
 20
3.223940625
 10
59.196515625
 20
3.15755625
 10
59.11611562500001
 20
3.083884375
 10
59.04244375
 20
3.003484375
 10
58.97605937500001
 20
2.916971875
 10
58.91746875
 20
2.825
 10
58.867115625
 20
2.728271875
 10
58.82538437500001
 20
2.627525
 10
58.79259375
 20
2.523525
 10
58.768990625
 20
2.417059375
 10
58.75475625
 20
2.30894375
 10
58.75
 20
2.2
  0
LWPOLYLINE
  5
52
100
AcDbEntity
  8
holes
  6
ByLayer
 62
  256
100
AcDbPolyline
 90
   76
 70
    1
 43
0
 10
33.35
 20
1
 10
33.35475625
 20
0.89105625
 10
33.368990625
 20
0.7829406250000001
 10
33.39259375
 20
0.676475
 10
33.425384375
 20
0.5724750000000001
 10
33.467115625
 20
0.471728125
 10
33.51746875
 20
0.375
 10
33.576059375
 20
0.283028125
 10
33.64244375
 20
0.196515625
 10
33.716115625
 20
0.116115625
 10
33.796515625
 20
0.04244375
 10
33.883028125
 20
-0.023940625
 10
33.975
 20
-0.08253125
 10
34.071728125
 20
-0.132884375
 10
34.172475
 20
-0.174615625
 10
34.276475
 20
-0.20740625
 10
34.382940625
 20
-0.231009375
 10
34.49105625
 20
-0.24524375
 10
34.6
 20
-0.25
 10
41.6
 20
-0.25
 10
41.70894375
 20
-0.24524375
 10
41.817059375
 20
-0.231009375
 10
41.92352500000001
 20
-0.20740625
 10
42.027525
 20
-0.174615625
 10
42.128271875
 20
-0.132884375
 10
42.225
 20
-0.08253125
 10
42.316971875
 20
-0.023940625
 10
42.40348437500001
 20
0.04244375
 10
42.483884375
 20
0.116115625
 10
42.55755625
 20
0.196515625
 10
42.623940625
 20
0.283028125
 10
42.68253125
 20
0.375
 10
42.732884375
 20
0.471728125
 10
42.774615625
 20
0.5724750000000001
 10
42.80740625
 20
0.676475
 10
42.831009375
 20
0.7829406250000001
 10
42.84524375
 20
0.89105625
 10
42.85
 20
1
 10
42.85
 20
2.2
 10
42.84524375
 20
2.30894375
 10
42.831009375
 20
2.417059375
 10
42.80740625
 20
2.523525
 10
42.774615625
 20
2.627525
 10
42.732884375
 20
2.728271875
 10
42.68253125
 20
2.825
 10
42.623940625
 20
2.916971875
 10
42.55755625
 20
3.003484375
 10
42.483884375
 20
3.083884375
 10
42.40348437500001
 20
3.15755625
 10
42.316971875
 20
3.223940625
 10
42.225
 20
3.28253125
 10
42.128271875
 20
3.332884375
 10
42.027525
 20
3.374615625
 10
41.92352500000001
 20
3.40740625
 10
41.817059375
 20
3.431009375
 10
41.70894375
 20
3.44524375
 10
41.6
 20
3.45
 10
34.6
 20
3.45
 10
34.49105625
 20
3.44524375
 10
34.382940625
 20
3.431009375
 10
34.276475
 20
3.40740625
 10
34.172475
 20
3.374615625
 10
34.071728125
 20
3.332884375
 10
33.975
 20
3.28253125
 10
33.883028125
 20
3.223940625
 10
33.796515625
 20
3.15755625
 10
33.716115625
 20
3.083884375
 10
33.64244375
 20
3.003484375
 10
33.576059375
 20
2.916971875
 10
33.51746875
 20
2.825
 10
33.467115625
 20
2.728271875
 10
33.425384375
 20
2.627525
 10
33.39259375
 20
2.523525
 10
33.368990625
 20
2.417059375
 10
33.35475625
 20
2.30894375
 10
33.35
 20
2.2
  0
LWPOLYLINE
  5
53
100
AcDbEntity
  8
holes
  6
ByLayer
 62
  256
100
AcDbPolyline
 90
   76
 70
    1
 43
0
 10
-45.95
 20
0.5
 10
-45.946190625
 20
0.412840625
 10
-45.934803125
 20
0.32635
 10
-45.915921875
 20
0.241178125
 10
-45.889690625
 20
0.157978125
 10
-45.85630625
 20
0.07738125
 10
-45.816021875
 20
-3.125e-06
 10
-45.76915
 20
-0.07357812500000001
 10
-45.71604062500001
 20
-0.1427875
 10
-45.657103125
 20
-0.20710625
 10
-45.592784375
 20
-0.26604375
 10
-45.523575
 20
-0.319153125
 10
-45.449996875
 20
-0.366025
 10
-45.372615625
 20
-0.406309375
 10
-45.29201875
 20
-0.43969375
 10
-45.20881875
 20
-0.465925
 10
-45.12364687500001
 20
-0.48480625
 10
-45.03715625
 20
-0.49619375
 10
-44.95
 20
-0.5
 10
-31.25
 20
-0.5
 10
-31.162840625
 20
-0.496196875
 10
-31.07635
 20
-0.484809375
 10
-30.991178125
 20
-0.465928125
 10
-30.907978125
 20
-0.43969375
 10
-30.827378125
 20
-0.406309375
 10
-30.749996875
 20
-0.366028125
 10
-30.676421875
 20
-0.319153125
 10
-30.607209375
 20
-0.266046875
 10
-30.542890625
 20
-0.20710625
 10
-30.483953125
 20
-0.1427875
 10
-30.430846875
 20
-0.07357812500000001
 10
-30.383971875
 20
0
 10
-30.343690625
 20
0.07738125
 10
-30.31030625
 20
0.157978125
 10
-30.284071875
 20
0.24118125
 10
-30.265190625
 20
0.326353125
 10
-30.25380625
 20
0.41284375
 10
-30.25
 20
0.5
 10
-30.25
 20
1.5
 10
-30.25380625
 20
1.58715625
 10
-30.26519375
 20
1.673646875
 10
-30.284075
 20
1.75881875
 10
-30.31030625
 20
1.84201875
 10
-30.34369375
 20
1.92261875
 10
-30.383975
 20
2
 10
-30.430846875
 20
2.073575
 10
-30.48395625
 20
2.1427875
 10
-30.54289375
 20
2.20710625
 10
-30.6072125
 20
2.26604375
 10
-30.676425
 20
2.319153125
 10
-30.75
 20
2.366025
 10
-30.82738125
 20
2.40630625
 10
-30.90798125
 20
2.43969375
 10
-30.99118125
 20
2.465925
 10
-31.076353125
 20
2.48480625
 10
-31.16284375
 20
2.49619375
 10
-31.25
 20
2.5
 10
-44.95
 20
2.5
 10
-45.03715625
 20
2.49619375
 10
-45.12364687500001
 20
2.48480625
 10
-45.20881875
 20
2.465925
 10
-45.29201875
 20
2.43969375
 10
-45.37261875
 20
2.40630625
 10
-45.45
 20
2.366025
 10
-45.523575
 20
2.319153125
 10
-45.5927875
 20
2.26604375
 10
-45.65710625000001
 20
2.20710625
 10
-45.71604375
 20
2.1427875
 10
-45.769153125
 20
2.073575
 10
-45.816025
 20
2
 10
-45.85630625
 20
1.92261875
 10
-45.88969375
 20
1.84201875
 10
-45.915925
 20
1.75881875
 10
-45.93480625
 20
1.673646875
 10
-45.94619375
 20
1.58715625
 10
-45.95
 20
1.5
  0
LWPOLYLINE
  5
54
100
AcDbEntity
  8
holes
  6
ByLayer
 62
  256
100
AcDbPolyline
 90
   76
 70
    1
 43
0
 10
-7.75
 20
7.5
 10
-7.746193750000001
 20
7.41284375
 10
-7.73480625
 20
7.326353125000001
 10
-7.715925
 20
7.24118125
 10
-7.68969375
 20
7.157981250000001
 10
-7.65630625
 20
7.07738125
 10
-7.616025
 20
7
 10
-7.569153125000001
 20
6.926425
 10
-7.516043750000001
 20
6.8572125
 10
-7.457106250000001
 20
6.79289375
 10
-7.392787500000001
 20
6.73395625
 10
-7.323575
 20
6.680846875
 10
-7.25
 20
6.633975
 10
-7.172618750000001
 20
6.59369375
 10
-7.09201875
 20
6.56030625
 10
-7.008818750000001
 20
6.534075000000001
 10
-6.923646875
 20
6.51519375
 10
-6.83715625
 20
6.50380625
 10
-6.75
 20
6.5
 10
6.75
 20
6.5
 10
6.83715625
 20
6.50380625
 10
6.923646875
 20
6.51519375
 10
7.008818750000001
 20
6.534075000000001
 10
7.09201875
 20
6.56030625
 10
7.172618750000001
 20
6.59369375
 10
7.25
 20
6.633975
 10
7.323575
 20
6.680846875
 10
7.392787500000001
 20
6.73395625
 10
7.457106250000001
 20
6.79289375
 10
7.516043750000001
 20
6.8572125
 10
7.569153125000001
 20
6.926425
 10
7.616025
 20
7
 10
7.65630625
 20
7.07738125
 10
7.68969375
 20
7.157981250000001
 10
7.715925
 20
7.24118125
 10
7.73480625
 20
7.326353125000001
 10
7.746193750000001
 20
7.41284375
 10
7.75
 20
7.5
 10
7.75
 20
17.5
 10
7.746193750000001
 20
17.58715625
 10
7.73480625
 20
17.673646875
 10
7.715925
 20
17.75881875
 10
7.68969375
 20
17.84201875
 10
7.65630625
 20
17.92261875
 10
7.616025
 20
18
 10
7.569153125000001
 20
18.073575
 10
7.516043750000001
 20
18.1427875
 10
7.457106250000001
 20
18.20710625
 10
7.392787500000001
 20
18.26604375
 10
7.323575
 20
18.319153125
 10
7.25
 20
18.366025
 10
7.172618750000001
 20
18.40630625
 10
7.09201875
 20
18.43969375
 10
7.008818750000001
 20
18.465925
 10
6.923646875
 20
18.48480625
 10
6.83715625
 20
18.49619375
 10
6.75
 20
18.5
 10
-6.75
 20
18.5
 10
-6.83715625
 20
18.49619375
 10
-6.923646875
 20
18.48480625
 10
-7.008818750000001
 20
18.465925
 10
-7.09201875
 20
18.43969375
 10
-7.172618750000001
 20
18.40630625
 10
-7.25
 20
18.366025
 10
-7.323575
 20
18.319153125
 10
-7.392787500000001
 20
18.26604375
 10
-7.457106250000001
 20
18.20710625
 10
-7.516043750000001
 20
18.1427875
 10
-7.569153125000001
 20
18.073575
 10
-7.616025
 20
18
 10
-7.65630625
 20
17.92261875
 10
-7.68969375
 20
17.84201875
 10
-7.715925
 20
17.75881875
 10
-7.73480625
 20
17.673646875
 10
-7.746193750000001
 20
17.58715625
 10
-7.75
 20
17.5
  0
LWPOLYLINE
  5
55
100
AcDbEntity
  8
holes
  6
ByLayer
 62
  256
100
AcDbPolyline
 90
  120
 70
    1
 43
0
 10
-60.75
 20
3.0279875
 10
-60.75753750000001
 20
2.8841625
 10
-60.772590625
 20
2.74093125
 10
-60.795121875
 20
2.59868125
 10
-60.825065625
 20
2.45780625
 10
-60.862340625
 20
2.318690625
 10
-60.906846875
 20
2.181715625
 10
-60.958459375
 20
2.047259375
 10
-61.017040625
 20
1.9156875
 10
-61.082425
 20
1.7873625
 10
-61.154434375
 20
1.6626375
 10
-61.232875
 20
1.54185
 10
-61.31753125
 20
1.42533125
 10
-61.408165625
 20
1.31340625
 10
-61.5045375
 20
1.206375
 10
-61.606375
 20
1.1045375
 10
-61.71340625000001
 20
1.008165625
 10
-61.82533125
 20
0.91753125
 10
-61.94185
 20
0.832875
 10
-62.0626375
 20
0.754434375
 10
-62.18736250000001
 20
0.6824250000000001
 10
-62.3156875
 20
0.617040625
 10
-62.447259375
 20
0.558459375
 10
-62.581715625
 20
0.506846875
 10
-62.718690625
 20
0.462340625
 10
-62.85780625
 20
0.425065625
 10
-62.99868125
 20
0.395121875
 10
-63.14093125
 20
0.372590625
 10
-63.2841625
 20
0.3575375
 10
-63.4279875
 20
0.35
 10
-63.5720125
 20
0.35
 10
-63.71583750000001
 20
0.3575375
 10
-63.85906875000001
 20
0.372590625
 10
-64.00131875000001
 20
0.395121875
 10
-64.14219375
 20
0.425065625
 10
-64.28130937500001
 20
0.462340625
 10
-64.418284375
 20
0.506846875
 10
-64.552740625
 20
0.558459375
 10
-64.6843125
 20
0.617040625
 10
-64.81263750000001
 20
0.6824250000000001
 10
-64.93736250000001
 20
0.754434375
 10
-65.05815
 20
0.832875
 10
-65.17466875000001
 20
0.91753125
 10
-65.28659375000001
 20
1.008165625
 10
-65.393625
 20
1.1045375
 10
-65.4954625
 20
1.206375
 10
-65.591834375
 20
1.31340625
 10
-65.68246875
 20
1.42533125
 10
-65.76712500000001
 20
1.54185
 10
-65.84556562500001
 20
1.6626375
 10
-65.917575
 20
1.7873625
 10
-65.98295937500001
 20
1.9156875
 10
-66.041540625
 20
2.047259375
 10
-66.093153125
 20
2.181715625
 10
-66.137659375
 20
2.318690625
 10
-66.17493437500001
 20
2.45780625
 10
-66.20487812500001
 20
2.59868125
 10
-66.22740937500001
 20
2.74093125
 10
-66.2424625
 20
2.8841625
 10
-66.25
 20
3.0279875
 10
-66.25
 20
3.1720125
 10
-66.2424625
 20
3.3158375
 10
-66.22740937500001
 20
3.45906875
 10
-66.20487812500001
 20
3.60131875
 10
-66.17493437500001
 20
3.74219375
 10
-66.137659375
 20
3.881309375
 10
-66.093153125
 20
4.018284375
 10
-66.041540625
 20
4.152740625
 10
-65.98295937500001
 20
4.2843125
 10
-65.917575
 20
4.4126375
 10
-65.84556562500001
 20
4.5373625
 10
-65.76712500000001
 20
4.65815
 10
-65.68246875
 20
4.77466875
 10
-65.591834375
 20
4.88659375
 10
-65.4954625
 20
4.993625000000001
 10
-65.393625
 20
5.0954625
 10
-65.28659375000001
 20
5.191834375
 10
-65.17466875000001
 20
5.28246875
 10
-65.05815
 20
5.367125000000001
 10
-64.93736250000001
 20
5.445565625
 10
-64.81263750000001
 20
5.517575
 10
-64.6843125
 20
5.582959375000001
 10
-64.552740625
 20
5.641540625
 10
-64.418284375
 20
5.693153125
 10
-64.28130937500001
 20
5.737659375000001
 10
-64.14219375
 20
5.774934375
 10
-64.00131875000001
 20
5.804878125
 10
-63.85906875000001
 20
5.827409375
 10
-63.71583750000001
 20
5.8424625
 10
-63.5720125
 20
5.850000000000001
 10
-63.4279875
 20
5.850000000000001
 10
-63.2841625
 20
5.8424625
 10
-63.14093125
 20
5.827409375
 10
-62.99868125
 20
5.804878125
 10
-62.85780625
 20
5.774934375
 10
-62.718690625
 20
5.737659375000001
 10
-62.581715625
 20
5.693153125
 10
-62.447259375
 20
5.641540625
 10
-62.3156875
 20
5.582959375000001
 10
-62.18736250000001
 20
5.517575
 10
-62.0626375
 20
5.445565625
 10
-61.94185
 20
5.367125000000001
 10
-61.82533125
 20
5.28246875
 10
-61.71340625000001
 20
5.191834375
 10
-61.606375
 20
5.0954625
 10
-61.5045375
 20
4.993625000000001
 10
-61.408165625
 20
4.88659375
 10
-61.31753125
 20
4.77466875
 10
-61.232875
 20
4.65815
 10
-61.154434375
 20
4.5373625
 10
-61.082425
 20
4.4126375
 10
-61.017040625
 20
4.2843125
 10
-60.958459375
 20
4.152740625
 10
-60.906846875
 20
4.018284375
 10
-60.862340625
 20
3.881309375
 10
-60.825065625
 20
3.74219375
 10
-60.795121875
 20
3.60131875
 10
-60.772590625
 20
3.45906875
 10
-60.75753750000001
 20
3.3158375
 10
-60.75
 20
3.1720125
  0
LWPOLYLINE
  5
56
100
AcDbEntity
  8
holes
  6
ByLayer
 62
  256
100
AcDbPolyline
 90
  104
 70
    1
 43
0
 10
27.275
 20
3.99334375
 10
27.268159375
 20
3.8802375
 10
27.2545
 20
3.76775
 10
27.234075
 20
3.65629375
 10
27.20695625
 20
3.546271875
 10
27.173246875
 20
3.438090625
 10
27.133065625
 20
3.332140625
 10
27.086559375
 20
3.228809375
 10
27.0339
 20
3.128478125
 10
26.975278125
 20
3.03150625
 10
26.910909375
 20
2.93825
 10
26.841028125
 20
2.849053125
 10
26.7658875
 20
2.7642375
 10
26.6857625
 20
2.6841125
 10
26.600946875
 20
2.608971875
 10
26.51175
 20
2.539090625
 10
26.41849375
 20
2.474721875
 10
26.321521875
 20
2.4161
 10
26.221190625
 20
2.363440625
 10
26.117859375
 20
2.316934375
 10
26.011909375
 20
2.276753125
 10
25.903728125
 20
2.24304375
 10
25.79370625
 20
2.215925
 10
25.68225
 20
2.1955
 10
25.5697625
 20
2.181840625
 10
25.45665625
 20
2.175
 10
25.34334375
 20
2.175
 10
25.2302375
 20
2.181840625
 10
25.11775
 20
2.1955
 10
25.00629375
 20
2.215925
 10
24.896271875
 20
2.24304375
 10
24.788090625
 20
2.276753125
 10
24.682140625
 20
2.316934375
 10
24.578809375
 20
2.363440625
 10
24.478478125
 20
2.4161
 10
24.38150625
 20
2.474721875
 10
24.28825
 20
2.539090625
 10
24.199053125
 20
2.608971875
 10
24.1142375
 20
2.6841125
 10
24.0341125
 20
2.7642375
 10
23.958971875
 20
2.849053125
 10
23.889090625
 20
2.93825
 10
23.824721875
 20
3.03150625
 10
23.7661
 20
3.128478125
 10
23.713440625
 20
3.228809375
 10
23.666934375
 20
3.332140625
 10
23.626753125
 20
3.438090625
 10
23.59304375
 20
3.546271875
 10
23.565925
 20
3.65629375
 10
23.5455
 20
3.76775
 10
23.531840625
 20
3.8802375
 10
23.525
 20
3.99334375
 10
23.525
 20
4.10665625
 10
23.531840625
 20
4.2197625
 10
23.5455
 20
4.33225
 10
23.565925
 20
4.44370625
 10
23.59304375
 20
4.553728125
 10
23.626753125
 20
4.661909375
 10
23.666934375
 20
4.767859375
 10
23.713440625
 20
4.871190625000001
 10
23.7661
 20
4.971521875000001
 10
23.824721875
 20
5.06849375
 10
23.889090625
 20
5.161750000000001
 10
23.958971875
 20
5.250946875
 10
24.0341125
 20
5.3357625
 10
24.1142375
 20
5.4158875
 10
24.199053125
 20
5.491028125000001
 10
24.28825
 20
5.560909375
 10
24.38150625
 20
5.625278125
 10
24.478478125
 20
5.6839
 10
24.578809375
 20
5.736559375000001
 10
24.682140625
 20
5.783065625
 10
24.788090625
 20
5.823246875000001
 10
24.896271875
 20
5.856956250000001
 10
25.00629375
 20
5.884075
 10
25.11775
 20
5.904500000000001
 10
25.2302375
 20
5.918159375
 10
25.34334375
 20
5.925000000000001
 10
25.45665625
 20
5.925000000000001
 10
25.5697625
 20
5.918159375
 10
25.68225
 20
5.904500000000001
 10
25.79370625
 20
5.884075
 10
25.903728125
 20
5.856956250000001
 10
26.011909375
 20
5.823246875000001
 10
26.117859375
 20
5.783065625
 10
26.221190625
 20
5.736559375000001
 10
26.321521875
 20
5.6839
 10
26.41849375
 20
5.625278125
 10
26.51175
 20
5.560909375
 10
26.600946875
 20
5.491028125000001
 10
26.6857625
 20
5.4158875
 10
26.7658875
 20
5.3357625
 10
26.841028125
 20
5.250946875
 10
26.910909375
 20
5.161750000000001
 10
26.975278125
 20
5.06849375
 10
27.0339
 20
4.971521875000001
 10
27.086559375
 20
4.871190625000001
 10
27.133065625
 20
4.767859375
 10
27.173246875
 20
4.661909375
 10
27.20695625
 20
4.553728125
 10
27.234075
 20
4.44370625
 10
27.2545
 20
4.33225
 10
27.268159375
 20
4.2197625
 10
27.275
 20
4.10665625
  0
LWPOLYLINE
  5
57
100
AcDbEntity
  8
holes
  6
ByLayer
 62
  256
100
AcDbPolyline
 90
  104
 70
    1
 43
0
 10
52.675
 20
3.99334375
 10
52.668159375
 20
3.8802375
 10
52.65450000000001
 20
3.76775
 10
52.634075
 20
3.65629375
 10
52.60695625
 20
3.546271875
 10
52.573246875
 20
3.438090625
 10
52.533065625
 20
3.332140625
 10
52.48655937500001
 20
3.228809375
 10
52.4339
 20
3.128478125
 10
52.375278125
 20
3.03150625
 10
52.310909375
 20
2.93825
 10
52.241028125
 20
2.849053125
 10
52.1658875
 20
2.7642375
 10
52.0857625
 20
2.6841125
 10
52.000946875
 20
2.608971875
 10
51.91175
 20
2.539090625
 10
51.81849375
 20
2.474721875
 10
51.721521875
 20
2.4161
 10
51.621190625
 20
2.363440625
 10
51.517859375
 20
2.316934375
 10
51.411909375
 20
2.276753125
 10
51.303728125
 20
2.24304375
 10
51.19370625000001
 20
2.215925
 10
51.08225
 20
2.1955
 10
50.9697625
 20
2.181840625
 10
50.85665625
 20
2.175
 10
50.74334375
 20
2.175
 10
50.6302375
 20
2.181840625
 10
50.51775
 20
2.1955
 10
50.40629375
 20
2.215925
 10
50.296271875
 20
2.24304375
 10
50.188090625
 20
2.276753125
 10
50.082140625
 20
2.316934375
 10
49.978809375
 20
2.363440625
 10
49.878478125
 20
2.4161
 10
49.78150625
 20
2.474721875
 10
49.68825
 20
2.539090625
 10
49.599053125
 20
2.608971875
 10
49.5142375
 20
2.6841125
 10
49.4341125
 20
2.7642375
 10
49.358971875
 20
2.849053125
 10
49.289090625
 20
2.93825
 10
49.224721875
 20
3.03150625
 10
49.1661
 20
3.128478125
 10
49.113440625
 20
3.228809375
 10
49.066934375
 20
3.332140625
 10
49.026753125
 20
3.438090625
 10
48.99304375000001
 20
3.546271875
 10
48.96592500000001
 20
3.65629375
 10
48.9455
 20
3.76775
 10
48.931840625
 20
3.8802375
 10
48.925
 20
3.99334375
 10
48.925
 20
4.10665625
 10
48.931840625
 20
4.2197625
 10
48.9455
 20
4.33225
 10
48.96592500000001
 20
4.44370625
 10
48.99304375000001
 20
4.553728125
 10
49.026753125
 20
4.661909375
 10
49.066934375
 20
4.767859375
 10
49.113440625
 20
4.871190625000001
 10
49.1661
 20
4.971521875000001
 10
49.224721875
 20
5.06849375
 10
49.289090625
 20
5.161750000000001
 10
49.358971875
 20
5.250946875
 10
49.4341125
 20
5.3357625
 10
49.5142375
 20
5.4158875
 10
49.599053125
 20
5.491028125000001
 10
49.68825
 20
5.560909375
 10
49.78150625
 20
5.625278125
 10
49.878478125
 20
5.6839
 10
49.978809375
 20
5.736559375000001
 10
50.082140625
 20
5.783065625
 10
50.188090625
 20
5.823246875000001
 10
50.296271875
 20
5.856956250000001
 10
50.40629375
 20
5.884075
 10
50.51775
 20
5.904500000000001
 10
50.6302375
 20
5.918159375
 10
50.74334375
 20
5.925000000000001
 10
50.85665625
 20
5.925000000000001
 10
50.9697625
 20
5.918159375
 10
51.08225
 20
5.904500000000001
 10
51.19370625000001
 20
5.884075
 10
51.303728125
 20
5.856956250000001
 10
51.411909375
 20
5.823246875000001
 10
51.517859375
 20
5.783065625
 10
51.621190625
 20
5.736559375000001
 10
51.721521875
 20
5.6839
 10
51.81849375
 20
5.625278125
 10
51.91175
 20
5.560909375
 10
52.000946875
 20
5.491028125000001
 10
52.0857625
 20
5.4158875
 10
52.1658875
 20
5.3357625
 10
52.241028125
 20
5.250946875
 10
52.310909375
 20
5.161750000000001
 10
52.375278125
 20
5.06849375
 10
52.4339
 20
4.971521875000001
 10
52.48655937500001
 20
4.871190625000001
 10
52.533065625
 20
4.767859375
 10
52.573246875
 20
4.661909375
 10
52.60695625
 20
4.553728125
 10
52.634075
 20
4.44370625
 10
52.65450000000001
 20
4.33225
 10
52.668159375
 20
4.2197625
 10
52.675
 20
4.10665625
  0
CIRCLE
  5
58
100
AcDbEntity
  8
drills_NPTH
  6
ByLayer
 62
  256
100
AcDbCircle
 10
-63.5
 20
3.1
 40
2.75
  0
CIRCLE
  5
59
100
AcDbEntity
  8
drills_NPTH
  6
ByLayer
 62
  256
100
AcDbCircle
 10
25.4
 20
4.05
 40
1.875
  0
CIRCLE
  5
5A
100
AcDbEntity
  8
drills_NPTH
  6
ByLayer
 62
  256
100
AcDbCircle
 10
50.8
 20
4.05
 40
1.875
  0
ENDSEC
  0
SECTION
  2
OBJECTS
  0
DICTIONARY
  5
C
100
AcDbDictionary
281
    1
  3
ACAD_GROUP
350
D
  0
DICTIONARY
  5
D
330
C
100
AcDbDictionary
281
    1
  0
PLOTSETTINGS
  5
5B
100
AcDbPlotSettings
  6
1x1
 40
0
 41
0
 42
0
 43
0
  0
ENDSEC
  0
EOF
