0
SECTION
2
HEADER
9
$ANGDIR
70
1
9
$AUNITS
70
0
9
$PROJECTNAME
1
CORS_Front_Panel
9
$TDCREATE
40
2459943.82385983
9
$INSUNITS
70
4
0
ENDSEC
0
SECTION
2
ENTITIES
0
POLYLINE
66
1
8
outline
10
0.0
20
0.0
30
0.0
70
1
0
VERTEX
8
0
10
-78.3
20
3.5
30
0
0
VERTEX
8
0
10
-78.289534375
20
3.2603218750000003
30
0
0
VERTEX
8
0
10
-78.258221875
20
3.0224687500000003
30
0
0
VERTEX
8
0
10
-78.206296875
20
2.788246875
30
0
0
VERTEX
8
0
10
-78.13415625
20
2.5594437500000002
30
0
0
VERTEX
8
0
10
-78.042346875
20
2.3378
30
0
0
VERTEX
8
0
10
-77.93156875
20
2.125
30
0
0
VERTEX
8
0
10
-77.80266875000001
20
1.922665625
30
0
0
VERTEX
8
0
10
-77.656621875
20
1.732334375
30
0
0
VERTEX
8
0
10
-77.49454375
20
1.55545625
30
0
0
VERTEX
8
0
10
-77.317665625
20
1.3933781250000001
30
0
0
VERTEX
8
0
10
-77.127334375
20
1.24733125
30
0
0
VERTEX
8
0
10
-76.925
20
1.11843125
30
0
0
VERTEX
8
0
10
-76.71220000000001
20
1.007653125
30
0
0
VERTEX
8
0
10
-76.49055625
20
0.9158437500000001
30
0
0
VERTEX
8
0
10
-76.261753125
20
0.843703125
30
0
0
VERTEX
8
0
10
-76.02753125000001
20
0.791778125
30
0
0
VERTEX
8
0
10
-75.78967812500001
20
0.760465625
30
0
0
VERTEX
8
0
10
-75.55
20
0.75
30
0
0
VERTEX
8
0
10
-75.114221875
20
0.730975
30
0
0
VERTEX
8
0
10
-74.681759375
20
0.6740375000000001
30
0
0
VERTEX
8
0
10
-74.25590625000001
20
0.579628125
30
0
0
VERTEX
8
0
10
-73.8399
20
0.44846250000000004
30
0
0
VERTEX
8
0
10
-73.436909375
20
0.2815375
30
0
0
VERTEX
8
0
10
-73.05
20
0.08012812500000001
30
0
0
VERTEX
8
0
10
-72.68211875
20
-0.15424062500000002
30
0
0
VERTEX
8
0
10
-72.3360625
20
-0.419778125
30
0
0
VERTEX
8
0
10
-72.014465625
20
-0.714465625
30
0
0
VERTEX
8
0
10
-71.719778125
20
-1.0360625
30
0
0
VERTEX
8
0
10
-71.454240625
20
-1.38211875
30
0
0
VERTEX
8
0
10
-71.21987187500001
20
-1.75
30
0
0
VERTEX
8
0
10
-71.0184625
20
-2.136909375
30
0
0
VERTEX
8
0
10
-70.8515375
20
-2.5399000000000003
30
0
0
VERTEX
8
0
10
-70.720371875
20
-2.95590625
30
0
0
VERTEX
8
0
10
-70.6259625
20
-3.381759375
30
0
0
VERTEX
8
0
10
-70.569025
20
-3.8142218750000003
30
0
0
VERTEX
8
0
10
-70.55
20
-4.25
30
0
0
VERTEX
8
0
10
-70.539534375
20
-4.489678125
30
0
0
VERTEX
8
0
10
-70.508221875
20
-4.72753125
30
0
0
VERTEX
8
0
10
-70.456296875
20
-4.961753125
30
0
0
VERTEX
8
0
10
-70.38415625
20
-5.19055625
30
0
0
VERTEX
8
0
10
-70.292346875
20
-5.4122
30
0
0
VERTEX
8
0
10
-70.18156875
20
-5.625
30
0
0
VERTEX
8
0
10
-70.05266875000001
20
-5.827334375
30
0
0
VERTEX
8
0
10
-69.906621875
20
-6.017665625
30
0
0
VERTEX
8
0
10
-69.74454375
20
-6.19454375
30
0
0
VERTEX
8
0
10
-69.567665625
20
-6.356621875
30
0
0
VERTEX
8
0
10
-69.377334375
20
-6.502668750000001
30
0
0
VERTEX
8
0
10
-69.175
20
-6.6315687500000005
30
0
0
VERTEX
8
0
10
-68.96220000000001
20
-6.742346875
30
0
0
VERTEX
8
0
10
-68.74055625
20
-6.83415625
30
0
0
VERTEX
8
0
10
-68.511753125
20
-6.906296875000001
30
0
0
VERTEX
8
0
10
-68.27753125000001
20
-6.9582218750000004
30
0
0
VERTEX
8
0
10
-68.03967812500001
20
-6.989534375000001
30
0
0
VERTEX
8
0
10
-67.8
20
-7
30
0
0
VERTEX
8
0
10
67.8
20
-7
30
0
0
VERTEX
8
0
10
68.03967812500001
20
-6.989534375000001
30
0
0
VERTEX
8
0
10
68.27753125000001
20
-6.9582218750000004
30
0
0
VERTEX
8
0
10
68.511753125
20
-6.906296875000001
30
0
0
VERTEX
8
0
10
68.74055625
20
-6.83415625
30
0
0
VERTEX
8
0
10
68.96220000000001
20
-6.742346875
30
0
0
VERTEX
8
0
10
69.175
20
-6.6315687500000005
30
0
0
VERTEX
8
0
10
69.377334375
20
-6.502668750000001
30
0
0
VERTEX
8
0
10
69.567665625
20
-6.356621875
30
0
0
VERTEX
8
0
10
69.74454375
20
-6.19454375
30
0
0
VERTEX
8
0
10
69.906621875
20
-6.017665625
30
0
0
VERTEX
8
0
10
70.05266875000001
20
-5.827334375
30
0
0
VERTEX
8
0
10
70.18156875
20
-5.625
30
0
0
VERTEX
8
0
10
70.292346875
20
-5.4122
30
0
0
VERTEX
8
0
10
70.38415625
20
-5.19055625
30
0
0
VERTEX
8
0
10
70.456296875
20
-4.961753125
30
0
0
VERTEX
8
0
10
70.508221875
20
-4.72753125
30
0
0
VERTEX
8
0
10
70.539534375
20
-4.489678125
30
0
0
VERTEX
8
0
10
70.55
20
-4.25
30
0
0
VERTEX
8
0
10
70.569025
20
-3.8142218750000003
30
0
0
VERTEX
8
0
10
70.6259625
20
-3.381759375
30
0
0
VERTEX
8
0
10
70.720371875
20
-2.95590625
30
0
0
VERTEX
8
0
10
70.8515375
20
-2.5399000000000003
30
0
0
VERTEX
8
0
10
71.0184625
20
-2.136909375
30
0
0
VERTEX
8
0
10
71.21987187500001
20
-1.75
30
0
0
VERTEX
8
0
10
71.454240625
20
-1.38211875
30
0
0
VERTEX
8
0
10
71.719778125
20
-1.0360625
30
0
0
VERTEX
8
0
10
72.014465625
20
-0.714465625
30
0
0
VERTEX
8
0
10
72.3360625
20
-0.419778125
30
0
0
VERTEX
8
0
10
72.68211875
20
-0.15424062500000002
30
0
0
VERTEX
8
0
10
73.05
20
0.08012812500000001
30
0
0
VERTEX
8
0
10
73.436909375
20
0.2815375
30
0
0
VERTEX
8
0
10
73.8399
20
0.44846250000000004
30
0
0
VERTEX
8
0
10
74.25590625000001
20
0.579628125
30
0
0
VERTEX
8
0
10
74.681759375
20
0.6740375000000001
30
0
0
VERTEX
8
0
10
75.114221875
20
0.730975
30
0
0
VERTEX
8
0
10
75.55
20
0.75
30
0
0
VERTEX
8
0
10
75.78967812500001
20
0.760465625
30
0
0
VERTEX
8
0
10
76.02753125000001
20
0.791778125
30
0
0
VERTEX
8
0
10
76.261753125
20
0.843703125
30
0
0
VERTEX
8
0
10
76.49055625
20
0.9158437500000001
30
0
0
VERTEX
8
0
10
76.71220000000001
20
1.007653125
30
0
0
VERTEX
8
0
10
76.925
20
1.11843125
30
0
0
VERTEX
8
0
10
77.127334375
20
1.24733125
30
0
0
VERTEX
8
0
10
77.317665625
20
1.3933781250000001
30
0
0
VERTEX
8
0
10
77.49454375
20
1.55545625
30
0
0
VERTEX
8
0
10
77.656621875
20
1.732334375
30
0
0
VERTEX
8
0
10
77.80266875000001
20
1.922665625
30
0
0
VERTEX
8
0
10
77.93156875
20
2.125
30
0
0
VERTEX
8
0
10
78.042346875
20
2.3378
30
0
0
VERTEX
8
0
10
78.13415625
20
2.5594437500000002
30
0
0
VERTEX
8
0
10
78.206296875
20
2.788246875
30
0
0
VERTEX
8
0
10
78.258221875
20
3.0224687500000003
30
0
0
VERTEX
8
0
10
78.289534375
20
3.2603218750000003
30
0
0
VERTEX
8
0
10
78.3
20
3.5
30
0
0
VERTEX
8
0
10
78.3
20
21.5
30
0
0
VERTEX
8
0
10
78.289534375
20
21.739678125
30
0
0
VERTEX
8
0
10
78.258221875
20
21.977531250000002
30
0
0
VERTEX
8
0
10
78.206296875
20
22.211753125
30
0
0
VERTEX
8
0
10
78.13415625
20
22.44055625
30
0
0
VERTEX
8
0
10
78.042346875
20
22.662200000000002
30
0
0
VERTEX
8
0
10
77.93156875
20
22.875
30
0
0
VERTEX
8
0
10
77.80266875000001
20
23.077334375
30
0
0
VERTEX
8
0
10
77.656621875
20
23.267665625
30
0
0
VERTEX
8
0
10
77.49454375
20
23.44454375
30
0
0
VERTEX
8
0
10
77.317665625
20
23.606621875000002
30
0
0
VERTEX
8
0
10
77.127334375
20
23.75266875
30
0
0
VERTEX
8
0
10
76.925
20
23.88156875
30
0
0
VERTEX
8
0
10
76.71220000000001
20
23.992346875000003
30
0
0
VERTEX
8
0
10
76.49055625
20
24.08415625
30
0
0
VERTEX
8
0
10
76.261753125
20
24.156296875000002
30
0
0
VERTEX
8
0
10
76.02753125000001
20
24.208221875
30
0
0
VERTEX
8
0
10
75.78967812500001
20
24.239534375
30
0
0
VERTEX
8
0
10
75.55
20
24.25
30
0
0
VERTEX
8
0
10
75.114221875
20
24.269025000000003
30
0
0
VERTEX
8
0
10
74.681759375
20
24.325962500000003
30
0
0
VERTEX
8
0
10
74.25590625000001
20
24.420371875
30
0
0
VERTEX
8
0
10
73.8399
20
24.551537500000002
30
0
0
VERTEX
8
0
10
73.436909375
20
24.7184625
30
0
0
VERTEX
8
0
10
73.05
20
24.919871875000002
30
0
0
VERTEX
8
0
10
72.68211875
20
25.154240625
30
0
0
VERTEX
8
0
10
72.3360625
20
25.419778125
30
0
0
VERTEX
8
0
10
72.014465625
20
25.714465625000003
30
0
0
VERTEX
8
0
10
71.719778125
20
26.0360625
30
0
0
VERTEX
8
0
10
71.454240625
20
26.38211875
30
0
0
VERTEX
8
0
10
71.21987187500001
20
26.75
30
0
0
VERTEX
8
0
10
71.0184625
20
27.136909375000002
30
0
0
VERTEX
8
0
10
70.8515375
20
27.539900000000003
30
0
0
VERTEX
8
0
10
70.720371875
20
27.95590625
30
0
0
VERTEX
8
0
10
70.6259625
20
28.381759375
30
0
0
VERTEX
8
0
10
70.569025
20
28.814221875
30
0
0
VERTEX
8
0
10
70.55
20
29.25
30
0
0
VERTEX
8
0
10
70.539534375
20
29.489678125
30
0
0
VERTEX
8
0
10
70.508221875
20
29.727531250000002
30
0
0
VERTEX
8
0
10
70.456296875
20
29.961753125
30
0
0
VERTEX
8
0
10
70.38415625
20
30.19055625
30
0
0
VERTEX
8
0
10
70.292346875
20
30.412200000000002
30
0
0
VERTEX
8
0
10
70.18156875
20
30.625
30
0
0
VERTEX
8
0
10
70.05266875000001
20
30.827334375000003
30
0
0
VERTEX
8
0
10
69.906621875
20
31.017665625000003
30
0
0
VERTEX
8
0
10
69.74454375
20
31.19454375
30
0
0
VERTEX
8
0
10
69.567665625
20
31.356621875000002
30
0
0
VERTEX
8
0
10
69.377334375
20
31.50266875
30
0
0
VERTEX
8
0
10
69.175
20
31.631568750000003
30
0
0
VERTEX
8
0
10
68.96220000000001
20
31.742346875000003
30
0
0
VERTEX
8
0
10
68.74055625
20
31.834156250000003
30
0
0
VERTEX
8
0
10
68.511753125
20
31.906296875000002
30
0
0
VERTEX
8
0
10
68.27753125000001
20
31.958221875000003
30
0
0
VERTEX
8
0
10
68.03967812500001
20
31.989534375
30
0
0
VERTEX
8
0
10
67.8
20
32
30
0
0
VERTEX
8
0
10
-67.8
20
32
30
0
0
VERTEX
8
0
10
-68.03967812500001
20
31.989534375
30
0
0
VERTEX
8
0
10
-68.27753125000001
20
31.958221875000003
30
0
0
VERTEX
8
0
10
-68.511753125
20
31.906296875000002
30
0
0
VERTEX
8
0
10
-68.74055625
20
31.834156250000003
30
0
0
VERTEX
8
0
10
-68.96220000000001
20
31.742346875000003
30
0
0
VERTEX
8
0
10
-69.175
20
31.631568750000003
30
0
0
VERTEX
8
0
10
-69.377334375
20
31.50266875
30
0
0
VERTEX
8
0
10
-69.567665625
20
31.356621875000002
30
0
0
VERTEX
8
0
10
-69.74454375
20
31.19454375
30
0
0
VERTEX
8
0
10
-69.906621875
20
31.017665625000003
30
0
0
VERTEX
8
0
10
-70.05266875000001
20
30.827334375000003
30
0
0
VERTEX
8
0
10
-70.18156875
20
30.625
30
0
0
VERTEX
8
0
10
-70.292346875
20
30.412200000000002
30
0
0
VERTEX
8
0
10
-70.38415625
20
30.19055625
30
0
0
VERTEX
8
0
10
-70.456296875
20
29.961753125
30
0
0
VERTEX
8
0
10
-70.508221875
20
29.727531250000002
30
0
0
VERTEX
8
0
10
-70.539534375
20
29.489678125
30
0
0
VERTEX
8
0
10
-70.55
20
29.25
30
0
0
VERTEX
8
0
10
-70.569025
20
28.814221875
30
0
0
VERTEX
8
0
10
-70.6259625
20
28.381759375
30
0
0
VERTEX
8
0
10
-70.720371875
20
27.95590625
30
0
0
VERTEX
8
0
10
-70.8515375
20
27.539900000000003
30
0
0
VERTEX
8
0
10
-71.0184625
20
27.136909375000002
30
0
0
VERTEX
8
0
10
-71.21987187500001
20
26.75
30
0
0
VERTEX
8
0
10
-71.454240625
20
26.38211875
30
0
0
VERTEX
8
0
10
-71.719778125
20
26.0360625
30
0
0
VERTEX
8
0
10
-72.014465625
20
25.714465625000003
30
0
0
VERTEX
8
0
10
-72.3360625
20
25.419778125
30
0
0
VERTEX
8
0
10
-72.68211875
20
25.154240625
30
0
0
VERTEX
8
0
10
-73.05
20
24.919871875000002
30
0
0
VERTEX
8
0
10
-73.436909375
20
24.7184625
30
0
0
VERTEX
8
0
10
-73.8399
20
24.551537500000002
30
0
0
VERTEX
8
0
10
-74.25590625000001
20
24.420371875
30
0
0
VERTEX
8
0
10
-74.681759375
20
24.325962500000003
30
0
0
VERTEX
8
0
10
-75.114221875
20
24.269025000000003
30
0
0
VERTEX
8
0
10
-75.55
20
24.25
30
0
0
VERTEX
8
0
10
-75.78967812500001
20
24.239534375
30
0
0
VERTEX
8
0
10
-76.02753125000001
20
24.208221875
30
0
0
VERTEX
8
0
10
-76.261753125
20
24.156296875000002
30
0
0
VERTEX
8
0
10
-76.49055625
20
24.08415625
30
0
0
VERTEX
8
0
10
-76.71220000000001
20
23.992346875000003
30
0
0
VERTEX
8
0
10
-76.925
20
23.88156875
30
0
0
VERTEX
8
0
10
-77.127334375
20
23.75266875
30
0
0
VERTEX
8
0
10
-77.317665625
20
23.606621875000002
30
0
0
VERTEX
8
0
10
-77.49454375
20
23.44454375
30
0
0
VERTEX
8
0
10
-77.656621875
20
23.267665625
30
0
0
VERTEX
8
0
10
-77.80266875000001
20
23.077334375
30
0
0
VERTEX
8
0
10
-77.93156875
20
22.875
30
0
0
VERTEX
8
0
10
-78.042346875
20
22.662200000000002
30
0
0
VERTEX
8
0
10
-78.13415625
20
22.44055625
30
0
0
VERTEX
8
0
10
-78.206296875
20
22.211753125
30
0
0
VERTEX
8
0
10
-78.258221875
20
21.977531250000002
30
0
0
VERTEX
8
0
10
-78.289534375
20
21.739678125
30
0
0
VERTEX
8
0
10
-78.3
20
21.5
30
0
0
VERTEX
8
0
10
-78.3
20
3.5
30
0
0
SEQEND
0
POLYLINE
66
1
8
holes
10
0.0
20
0.0
30
0.0
70
1
0
VERTEX
8
0
10
58.5
20
1
30
0
0
VERTEX
8
0
10
58.505709375
20
0.869265625
30
0
0
VERTEX
8
0
10
58.5227875
20
0.739528125
30
0
0
VERTEX
8
0
10
58.5511125
20
0.6117718750000001
30
0
0
VERTEX
8
0
10
58.5904625
20
0.48696875
30
0
0
VERTEX
8
0
10
58.6405375
20
0.366071875
30
0
0
VERTEX
8
0
10
58.7009625
20
0.25
30
0
0
VERTEX
8
0
10
58.771271875000004
20
0.139634375
30
0
0
VERTEX
8
0
10
58.850934375
20
0.03581875
30
0
0
VERTEX
8
0
10
58.939340625
20
-0.060659375
30
0
0
VERTEX
8
0
10
59.035818750000004
20
-0.149065625
30
0
0
VERTEX
8
0
10
59.139634375
20
-0.228728125
30
0
0
VERTEX
8
0
10
59.25
20
-0.2990375
30
0
0
VERTEX
8
0
10
59.366071875
20
-0.3594625
30
0
0
VERTEX
8
0
10
59.48696875
20
-0.4095375
30
0
0
VERTEX
8
0
10
59.611771875
20
-0.4488875
30
0
0
VERTEX
8
0
10
59.739528125
20
-0.47721250000000004
30
0
0
VERTEX
8
0
10
59.869265625000004
20
-0.49429062500000004
30
0
0
VERTEX
8
0
10
60
20
-0.5
30
0
0
VERTEX
8
0
10
67
20
-0.5
30
0
0
VERTEX
8
0
10
67.130734375
20
-0.49429062500000004
30
0
0
VERTEX
8
0
10
67.26047187500001
20
-0.47721250000000004
30
0
0
VERTEX
8
0
10
67.388228125
20
-0.4488875
30
0
0
VERTEX
8
0
10
67.51303125
20
-0.4095375
30
0
0
VERTEX
8
0
10
67.633928125
20
-0.3594625
30
0
0
VERTEX
8
0
10
67.75
20
-0.2990375
30
0
0
VERTEX
8
0
10
67.860365625
20
-0.228728125
30
0
0
VERTEX
8
0
10
67.96418125000001
20
-0.149065625
30
0
0
VERTEX
8
0
10
68.060659375
20
-0.060659375
30
0
0
VERTEX
8
0
10
68.149065625
20
0.03581875
30
0
0
VERTEX
8
0
10
68.228728125
20
0.139634375
30
0
0
VERTEX
8
0
10
68.2990375
20
0.25
30
0
0
VERTEX
8
0
10
68.3594625
20
0.366071875
30
0
0
VERTEX
8
0
10
68.4095375
20
0.48696875
30
0
0
VERTEX
8
0
10
68.4488875
20
0.6117718750000001
30
0
0
VERTEX
8
0
10
68.47721250000001
20
0.739528125
30
0
0
VERTEX
8
0
10
68.494290625
20
0.869265625
30
0
0
VERTEX
8
0
10
68.5
20
1
30
0
0
VERTEX
8
0
10
68.5
20
2.2
30
0
0
VERTEX
8
0
10
68.494290625
20
2.330734375
30
0
0
VERTEX
8
0
10
68.47721250000001
20
2.460471875
30
0
0
VERTEX
8
0
10
68.4488875
20
2.588228125
30
0
0
VERTEX
8
0
10
68.4095375
20
2.7130312500000002
30
0
0
VERTEX
8
0
10
68.3594625
20
2.8339281250000004
30
0
0
VERTEX
8
0
10
68.2990375
20
2.95
30
0
0
VERTEX
8
0
10
68.228728125
20
3.060365625
30
0
0
VERTEX
8
0
10
68.149065625
20
3.16418125
30
0
0
VERTEX
8
0
10
68.060659375
20
3.2606593750000004
30
0
0
VERTEX
8
0
10
67.96418125000001
20
3.349065625
30
0
0
VERTEX
8
0
10
67.860365625
20
3.428728125
30
0
0
VERTEX
8
0
10
67.75
20
3.4990375
30
0
0
VERTEX
8
0
10
67.633928125
20
3.5594625
30
0
0
VERTEX
8
0
10
67.51303125
20
3.6095375
30
0
0
VERTEX
8
0
10
67.388228125
20
3.6488875000000003
30
0
0
VERTEX
8
0
10
67.26047187500001
20
3.6772125
30
0
0
VERTEX
8
0
10
67.130734375
20
3.6942906250000003
30
0
0
VERTEX
8
0
10
67
20
3.7
30
0
0
VERTEX
8
0
10
60
20
3.7
30
0
0
VERTEX
8
0
10
59.869265625000004
20
3.6942906250000003
30
0
0
VERTEX
8
0
10
59.739528125
20
3.6772125
30
0
0
VERTEX
8
0
10
59.611771875
20
3.6488875000000003
30
0
0
VERTEX
8
0
10
59.48696875
20
3.6095375
30
0
0
VERTEX
8
0
10
59.366071875
20
3.5594625
30
0
0
VERTEX
8
0
10
59.25
20
3.4990375
30
0
0
VERTEX
8
0
10
59.139634375
20
3.428728125
30
0
0
VERTEX
8
0
10
59.035818750000004
20
3.349065625
30
0
0
VERTEX
8
0
10
58.939340625
20
3.2606593750000004
30
0
0
VERTEX
8
0
10
58.850934375
20
3.16418125
30
0
0
VERTEX
8
0
10
58.771271875000004
20
3.060365625
30
0
0
VERTEX
8
0
10
58.7009625
20
2.95
30
0
0
VERTEX
8
0
10
58.6405375
20
2.8339281250000004
30
0
0
VERTEX
8
0
10
58.5904625
20
2.7130312500000002
30
0
0
VERTEX
8
0
10
58.5511125
20
2.588228125
30
0
0
VERTEX
8
0
10
58.5227875
20
2.460471875
30
0
0
VERTEX
8
0
10
58.505709375
20
2.330734375
30
0
0
VERTEX
8
0
10
58.5
20
2.2
30
0
0
VERTEX
8
0
10
58.5
20
1
30
0
0
SEQEND
0
POLYLINE
66
1
8
holes
10
0.0
20
0.0
30
0.0
70
1
0
VERTEX
8
0
10
33.1
20
1
30
0
0
VERTEX
8
0
10
33.105709375
20
0.869265625
30
0
0
VERTEX
8
0
10
33.1227875
20
0.739528125
30
0
0
VERTEX
8
0
10
33.1511125
20
0.6117718750000001
30
0
0
VERTEX
8
0
10
33.1904625
20
0.48696875
30
0
0
VERTEX
8
0
10
33.2405375
20
0.366071875
30
0
0
VERTEX
8
0
10
33.300962500000004
20
0.25
30
0
0
VERTEX
8
0
10
33.371271875000005
20
0.139634375
30
0
0
VERTEX
8
0
10
33.450934375
20
0.03581875
30
0
0
VERTEX
8
0
10
33.539340625
20
-0.060659375
30
0
0
VERTEX
8
0
10
33.63581875
20
-0.149065625
30
0
0
VERTEX
8
0
10
33.739634375
20
-0.228728125
30
0
0
VERTEX
8
0
10
33.85
20
-0.2990375
30
0
0
VERTEX
8
0
10
33.966071875000004
20
-0.3594625
30
0
0
VERTEX
8
0
10
34.086968750000004
20
-0.4095375
30
0
0
VERTEX
8
0
10
34.211771875000004
20
-0.4488875
30
0
0
VERTEX
8
0
10
34.339528125
20
-0.47721250000000004
30
0
0
VERTEX
8
0
10
34.469265625
20
-0.49429062500000004
30
0
0
VERTEX
8
0
10
34.6
20
-0.5
30
0
0
VERTEX
8
0
10
41.6
20
-0.5
30
0
0
VERTEX
8
0
10
41.730734375000004
20
-0.49429062500000004
30
0
0
VERTEX
8
0
10
41.860471875
20
-0.47721250000000004
30
0
0
VERTEX
8
0
10
41.988228125
20
-0.4488875
30
0
0
VERTEX
8
0
10
42.11303125
20
-0.4095375
30
0
0
VERTEX
8
0
10
42.233928125
20
-0.3594625
30
0
0
VERTEX
8
0
10
42.35
20
-0.2990375
30
0
0
VERTEX
8
0
10
42.460365625
20
-0.228728125
30
0
0
VERTEX
8
0
10
42.564181250000004
20
-0.149065625
30
0
0
VERTEX
8
0
10
42.660659375
20
-0.060659375
30
0
0
VERTEX
8
0
10
42.749065625
20
0.03581875
30
0
0
VERTEX
8
0
10
42.828728125000005
20
0.139634375
30
0
0
VERTEX
8
0
10
42.8990375
20
0.25
30
0
0
VERTEX
8
0
10
42.9594625
20
0.366071875
30
0
0
VERTEX
8
0
10
43.0095375
20
0.48696875
30
0
0
VERTEX
8
0
10
43.0488875
20
0.6117718750000001
30
0
0
VERTEX
8
0
10
43.0772125
20
0.739528125
30
0
0
VERTEX
8
0
10
43.094290625
20
0.869265625
30
0
0
VERTEX
8
0
10
43.1
20
1
30
0
0
VERTEX
8
0
10
43.1
20
2.2
30
0
0
VERTEX
8
0
10
43.094290625
20
2.330734375
30
0
0
VERTEX
8
0
10
43.0772125
20
2.460471875
30
0
0
VERTEX
8
0
10
43.0488875
20
2.588228125
30
0
0
VERTEX
8
0
10
43.0095375
20
2.7130312500000002
30
0
0
VERTEX
8
0
10
42.9594625
20
2.8339281250000004
30
0
0
VERTEX
8
0
10
42.8990375
20
2.95
30
0
0
VERTEX
8
0
10
42.828728125000005
20
3.060365625
30
0
0
VERTEX
8
0
10
42.749065625
20
3.16418125
30
0
0
VERTEX
8
0
10
42.660659375
20
3.2606593750000004
30
0
0
VERTEX
8
0
10
42.564181250000004
20
3.349065625
30
0
0
VERTEX
8
0
10
42.460365625
20
3.428728125
30
0
0
VERTEX
8
0
10
42.35
20
3.4990375
30
0
0
VERTEX
8
0
10
42.233928125
20
3.5594625
30
0
0
VERTEX
8
0
10
42.11303125
20
3.6095375
30
0
0
VERTEX
8
0
10
41.988228125
20
3.6488875000000003
30
0
0
VERTEX
8
0
10
41.860471875
20
3.6772125
30
0
0
VERTEX
8
0
10
41.730734375000004
20
3.6942906250000003
30
0
0
VERTEX
8
0
10
41.6
20
3.7
30
0
0
VERTEX
8
0
10
34.6
20
3.7
30
0
0
VERTEX
8
0
10
34.469265625
20
3.6942906250000003
30
0
0
VERTEX
8
0
10
34.339528125
20
3.6772125
30
0
0
VERTEX
8
0
10
34.211771875000004
20
3.6488875000000003
30
0
0
VERTEX
8
0
10
34.086968750000004
20
3.6095375
30
0
0
VERTEX
8
0
10
33.966071875000004
20
3.5594625
30
0
0
VERTEX
8
0
10
33.85
20
3.4990375
30
0
0
VERTEX
8
0
10
33.739634375
20
3.428728125
30
0
0
VERTEX
8
0
10
33.63581875
20
3.349065625
30
0
0
VERTEX
8
0
10
33.539340625
20
3.2606593750000004
30
0
0
VERTEX
8
0
10
33.450934375
20
3.16418125
30
0
0
VERTEX
8
0
10
33.371271875000005
20
3.060365625
30
0
0
VERTEX
8
0
10
33.300962500000004
20
2.95
30
0
0
VERTEX
8
0
10
33.2405375
20
2.8339281250000004
30
0
0
VERTEX
8
0
10
33.1904625
20
2.7130312500000002
30
0
0
VERTEX
8
0
10
33.1511125
20
2.588228125
30
0
0
VERTEX
8
0
10
33.1227875
20
2.460471875
30
0
0
VERTEX
8
0
10
33.105709375
20
2.330734375
30
0
0
VERTEX
8
0
10
33.1
20
2.2
30
0
0
VERTEX
8
0
10
33.1
20
1
30
0
0
SEQEND
0
POLYLINE
66
1
8
holes
10
0.0
20
0.0
30
0.0
70
1
0
VERTEX
8
0
10
-45.95
20
0.5
30
0
0
VERTEX
8
0
10
-45.946190625
20
0.412840625
30
0
0
VERTEX
8
0
10
-45.934803125
20
0.32635000000000003
30
0
0
VERTEX
8
0
10
-45.915921875
20
0.24117812500000002
30
0
0
VERTEX
8
0
10
-45.889690625
20
0.157978125
30
0
0
VERTEX
8
0
10
-45.85630625
20
0.07738125
30
0
0
VERTEX
8
0
10
-45.816021875000004
20
-3.125e-6
30
0
0
VERTEX
8
0
10
-45.76915
20
-0.07357812500000001
30
0
0
VERTEX
8
0
10
-45.716040625000005
20
-0.1427875
30
0
0
VERTEX
8
0
10
-45.657103125
20
-0.20710625000000002
30
0
0
VERTEX
8
0
10
-45.592784375
20
-0.26604375
30
0
0
VERTEX
8
0
10
-45.523575
20
-0.31915312500000004
30
0
0
VERTEX
8
0
10
-45.449996875000004
20
-0.36602500000000004
30
0
0
VERTEX
8
0
10
-45.372615625
20
-0.40630937500000003
30
0
0
VERTEX
8
0
10
-45.292018750000004
20
-0.43969375
30
0
0
VERTEX
8
0
10
-45.20881875
20
-0.46592500000000003
30
0
0
VERTEX
8
0
10
-45.123646875000006
20
-0.48480625000000005
30
0
0
VERTEX
8
0
10
-45.03715625
20
-0.49619375000000004
30
0
0
VERTEX
8
0
10
-44.95
20
-0.5
30
0
0
VERTEX
8
0
10
-31.25
20
-0.5
30
0
0
VERTEX
8
0
10
-31.162840625
20
-0.49619687500000004
30
0
0
VERTEX
8
0
10
-31.07635
20
-0.48480937500000004
30
0
0
VERTEX
8
0
10
-30.991178125
20
-0.465928125
30
0
0
VERTEX
8
0
10
-30.907978125000003
20
-0.43969375
30
0
0
VERTEX
8
0
10
-30.827378125000003
20
-0.40630937500000003
30
0
0
VERTEX
8
0
10
-30.749996875
20
-0.36602812500000004
30
0
0
VERTEX
8
0
10
-30.676421875000003
20
-0.31915312500000004
30
0
0
VERTEX
8
0
10
-30.607209375
20
-0.266046875
30
0
0
VERTEX
8
0
10
-30.542890625000002
20
-0.20710625000000002
30
0
0
VERTEX
8
0
10
-30.483953125000003
20
-0.1427875
30
0
0
VERTEX
8
0
10
-30.430846875
20
-0.07357812500000001
30
0
0
VERTEX
8
0
10
-30.383971875
20
0
30
0
0
VERTEX
8
0
10
-30.343690625
20
0.07738125
30
0
0
VERTEX
8
0
10
-30.31030625
20
0.157978125
30
0
0
VERTEX
8
0
10
-30.284071875000002
20
0.24118125
30
0
0
VERTEX
8
0
10
-30.265190625000002
20
0.326353125
30
0
0
VERTEX
8
0
10
-30.25380625
20
0.41284375
30
0
0
VERTEX
8
0
10
-30.25
20
0.5
30
0
0
VERTEX
8
0
10
-30.25
20
1.5
30
0
0
VERTEX
8
0
10
-30.25380625
20
1.58715625
30
0
0
VERTEX
8
0
10
-30.26519375
20
1.673646875
30
0
0
VERTEX
8
0
10
-30.284075
20
1.75881875
30
0
0
VERTEX
8
0
10
-30.31030625
20
1.84201875
30
0
0
VERTEX
8
0
10
-30.34369375
20
1.92261875
30
0
0
VERTEX
8
0
10
-30.383975000000003
20
2
30
0
0
VERTEX
8
0
10
-30.430846875
20
2.073575
30
0
0
VERTEX
8
0
10
-30.483956250000002
20
2.1427875000000003
30
0
0
VERTEX
8
0
10
-30.54289375
20
2.2071062500000003
30
0
0
VERTEX
8
0
10
-30.607212500000003
20
2.26604375
30
0
0
VERTEX
8
0
10
-30.676425000000002
20
2.319153125
30
0
0
VERTEX
8
0
10
-30.75
20
2.366025
30
0
0
VERTEX
8
0
10
-30.827381250000002
20
2.40630625
30
0
0
VERTEX
8
0
10
-30.907981250000002
20
2.43969375
30
0
0
VERTEX
8
0
10
-30.99118125
20
2.465925
30
0
0
VERTEX
8
0
10
-31.076353125
20
2.48480625
30
0
0
VERTEX
8
0
10
-31.16284375
20
2.49619375
30
0
0
VERTEX
8
0
10
-31.25
20
2.5
30
0
0
VERTEX
8
0
10
-44.95
20
2.5
30
0
0
VERTEX
8
0
10
-45.03715625
20
2.49619375
30
0
0
VERTEX
8
0
10
-45.123646875000006
20
2.48480625
30
0
0
VERTEX
8
0
10
-45.20881875
20
2.465925
30
0
0
VERTEX
8
0
10
-45.292018750000004
20
2.43969375
30
0
0
VERTEX
8
0
10
-45.37261875
20
2.40630625
30
0
0
VERTEX
8
0
10
-45.45
20
2.366025
30
0
0
VERTEX
8
0
10
-45.523575
20
2.319153125
30
0
0
VERTEX
8
0
10
-45.5927875
20
2.26604375
30
0
0
VERTEX
8
0
10
-45.657106250000005
20
2.2071062500000003
30
0
0
VERTEX
8
0
10
-45.716043750000004
20
2.1427875000000003
30
0
0
VERTEX
8
0
10
-45.769153125
20
2.073575
30
0
0
VERTEX
8
0
10
-45.816025
20
2
30
0
0
VERTEX
8
0
10
-45.85630625
20
1.92261875
30
0
0
VERTEX
8
0
10
-45.88969375
20
1.84201875
30
0
0
VERTEX
8
0
10
-45.915925
20
1.75881875
30
0
0
VERTEX
8
0
10
-45.93480625
20
1.673646875
30
0
0
VERTEX
8
0
10
-45.94619375
20
1.58715625
30
0
0
VERTEX
8
0
10
-45.95
20
1.5
30
0
0
VERTEX
8
0
10
-45.95
20
0.5
30
0
0
SEQEND
0
POLYLINE
66
1
8
holes
10
0.0
20
0.0
30
0.0
70
1
0
VERTEX
8
0
10
-7.75
20
7.5
30
0
0
VERTEX
8
0
10
-7.746193750000001
20
7.41284375
30
0
0
VERTEX
8
0
10
-7.73480625
20
7.326353125000001
30
0
0
VERTEX
8
0
10
-7.715925
20
7.24118125
30
0
0
VERTEX
8
0
10
-7.68969375
20
7.157981250000001
30
0
0
VERTEX
8
0
10
-7.65630625
20
7.07738125
30
0
0
VERTEX
8
0
10
-7.6160250000000005
20
7
30
0
0
VERTEX
8
0
10
-7.569153125000001
20
6.926425
30
0
0
VERTEX
8
0
10
-7.516043750000001
20
6.8572125
30
0
0
VERTEX
8
0
10
-7.457106250000001
20
6.79289375
30
0
0
VERTEX
8
0
10
-7.392787500000001
20
6.73395625
30
0
0
VERTEX
8
0
10
-7.323575
20
6.680846875
30
0
0
VERTEX
8
0
10
-7.25
20
6.633975
30
0
0
VERTEX
8
0
10
-7.172618750000001
20
6.59369375
30
0
0
VERTEX
8
0
10
-7.09201875
20
6.56030625
30
0
0
VERTEX
8
0
10
-7.0088187500000005
20
6.5340750000000005
30
0
0
VERTEX
8
0
10
-6.923646875
20
6.51519375
30
0
0
VERTEX
8
0
10
-6.8371562500000005
20
6.50380625
30
0
0
VERTEX
8
0
10
-6.75
20
6.5
30
0
0
VERTEX
8
0
10
6.75
20
6.5
30
0
0
VERTEX
8
0
10
6.8371562500000005
20
6.50380625
30
0
0
VERTEX
8
0
10
6.923646875
20
6.51519375
30
0
0
VERTEX
8
0
10
7.0088187500000005
20
6.5340750000000005
30
0
0
VERTEX
8
0
10
7.09201875
20
6.56030625
30
0
0
VERTEX
8
0
10
7.172618750000001
20
6.59369375
30
0
0
VERTEX
8
0
10
7.25
20
6.633975
30
0
0
VERTEX
8
0
10
7.323575
20
6.680846875
30
0
0
VERTEX
8
0
10
7.392787500000001
20
6.73395625
30
0
0
VERTEX
8
0
10
7.457106250000001
20
6.79289375
30
0
0
VERTEX
8
0
10
7.516043750000001
20
6.8572125
30
0
0
VERTEX
8
0
10
7.569153125000001
20
6.926425
30
0
0
VERTEX
8
0
10
7.6160250000000005
20
7
30
0
0
VERTEX
8
0
10
7.65630625
20
7.07738125
30
0
0
VERTEX
8
0
10
7.68969375
20
7.157981250000001
30
0
0
VERTEX
8
0
10
7.715925
20
7.24118125
30
0
0
VERTEX
8
0
10
7.73480625
20
7.326353125000001
30
0
0
VERTEX
8
0
10
7.746193750000001
20
7.41284375
30
0
0
VERTEX
8
0
10
7.75
20
7.5
30
0
0
VERTEX
8
0
10
7.75
20
17.5
30
0
0
VERTEX
8
0
10
7.746193750000001
20
17.58715625
30
0
0
VERTEX
8
0
10
7.73480625
20
17.673646875
30
0
0
VERTEX
8
0
10
7.715925
20
17.75881875
30
0
0
VERTEX
8
0
10
7.68969375
20
17.84201875
30
0
0
VERTEX
8
0
10
7.65630625
20
17.92261875
30
0
0
VERTEX
8
0
10
7.6160250000000005
20
18
30
0
0
VERTEX
8
0
10
7.569153125000001
20
18.073575
30
0
0
VERTEX
8
0
10
7.516043750000001
20
18.1427875
30
0
0
VERTEX
8
0
10
7.457106250000001
20
18.207106250000002
30
0
0
VERTEX
8
0
10
7.392787500000001
20
18.26604375
30
0
0
VERTEX
8
0
10
7.323575
20
18.319153125
30
0
0
VERTEX
8
0
10
7.25
20
18.366025
30
0
0
VERTEX
8
0
10
7.172618750000001
20
18.40630625
30
0
0
VERTEX
8
0
10
7.09201875
20
18.43969375
30
0
0
VERTEX
8
0
10
7.0088187500000005
20
18.465925000000002
30
0
0
VERTEX
8
0
10
6.923646875
20
18.484806250000002
30
0
0
VERTEX
8
0
10
6.8371562500000005
20
18.49619375
30
0
0
VERTEX
8
0
10
6.75
20
18.5
30
0
0
VERTEX
8
0
10
-6.75
20
18.5
30
0
0
VERTEX
8
0
10
-6.8371562500000005
20
18.49619375
30
0
0
VERTEX
8
0
10
-6.923646875
20
18.484806250000002
30
0
0
VERTEX
8
0
10
-7.0088187500000005
20
18.465925000000002
30
0
0
VERTEX
8
0
10
-7.09201875
20
18.43969375
30
0
0
VERTEX
8
0
10
-7.172618750000001
20
18.40630625
30
0
0
VERTEX
8
0
10
-7.25
20
18.366025
30
0
0
VERTEX
8
0
10
-7.323575
20
18.319153125
30
0
0
VERTEX
8
0
10
-7.392787500000001
20
18.26604375
30
0
0
VERTEX
8
0
10
-7.457106250000001
20
18.207106250000002
30
0
0
VERTEX
8
0
10
-7.516043750000001
20
18.1427875
30
0
0
VERTEX
8
0
10
-7.569153125000001
20
18.073575
30
0
0
VERTEX
8
0
10
-7.6160250000000005
20
18
30
0
0
VERTEX
8
0
10
-7.65630625
20
17.92261875
30
0
0
VERTEX
8
0
10
-7.68969375
20
17.84201875
30
0
0
VERTEX
8
0
10
-7.715925
20
17.75881875
30
0
0
VERTEX
8
0
10
-7.73480625
20
17.673646875
30
0
0
VERTEX
8
0
10
-7.746193750000001
20
17.58715625
30
0
0
VERTEX
8
0
10
-7.75
20
17.5
30
0
0
VERTEX
8
0
10
-7.75
20
7.5
30
0
0
SEQEND
0
POLYLINE
66
1
8
holes
10
0.0
20
0.0
30
0.0
70
1
0
VERTEX
8
0
10
-60.5
20
2.9263531250000003
30
0
0
VERTEX
8
0
10
-60.507228125000005
20
2.7792406250000004
30
0
0
VERTEX
8
0
10
-60.521665625000004
20
2.63265625
30
0
0
VERTEX
8
0
10
-60.543278125
20
2.486959375
30
0
0
VERTEX
8
0
10
-60.5720125
20
2.342496875
30
0
0
VERTEX
8
0
10
-60.607800000000005
20
2.199621875
30
0
0
VERTEX
8
0
10
-60.65055625
20
2.058671875
30
0
0
VERTEX
8
0
10
-60.700178125
20
1.919990625
30
0
0
VERTEX
8
0
10
-60.756543750000006
20
1.7839093750000001
30
0
0
VERTEX
8
0
10
-60.81951875
20
1.650759375
30
0
0
VERTEX
8
0
10
-60.888953125
20
1.5208593750000001
30
0
0
VERTEX
8
0
10
-60.964675
20
1.394525
30
0
0
VERTEX
8
0
10
-61.04650625
20
1.27205625
30
0
0
VERTEX
8
0
10
-61.134246875
20
1.15375
30
0
0
VERTEX
8
0
10
-61.227690625
20
1.039890625
30
0
0
VERTEX
8
0
10
-61.326603125000005
20
0.9307562500000001
30
0
0
VERTEX
8
0
10
-61.43075625
20
0.826603125
30
0
0
VERTEX
8
0
10
-61.539890625000005
20
0.727690625
30
0
0
VERTEX
8
0
10
-61.65375
20
0.634246875
30
0
0
VERTEX
8
0
10
-61.772056250000006
20
0.54650625
30
0
0
VERTEX
8
0
10
-61.894525
20
0.464675
30
0
0
VERTEX
8
0
10
-62.020859375
20
0.388953125
30
0
0
VERTEX
8
0
10
-62.150759375
20
0.31951875
30
0
0
VERTEX
8
0
10
-62.283909375
20
0.25654375
30
0
0
VERTEX
8
0
10
-62.419990625000004
20
0.200178125
30
0
0
VERTEX
8
0
10
-62.558671875
20
0.15055625
30
0
0
VERTEX
8
0
10
-62.699621875000005
20
0.1078
30
0
0
VERTEX
8
0
10
-62.842496875
20
0.07201250000000001
30
0
0
VERTEX
8
0
10
-62.986959375000005
20
0.043278125
30
0
0
VERTEX
8
0
10
-63.132656250000004
20
0.021665625
30
0
0
VERTEX
8
0
10
-63.279240625
20
0.007228125
30
0
0
VERTEX
8
0
10
-63.426353125000006
20
0
30
0
0
VERTEX
8
0
10
-63.573646875
20
0
30
0
0
VERTEX
8
0
10
-63.720759375
20
0.007228125
30
0
0
VERTEX
8
0
10
-63.86734375
20
0.021665625
30
0
0
VERTEX
8
0
10
-64.013040625
20
0.043278125
30
0
0
VERTEX
8
0
10
-64.157503125
20
0.07201250000000001
30
0
0
VERTEX
8
0
10
-64.30037812500001
20
0.1078
30
0
0
VERTEX
8
0
10
-64.441328125
20
0.15055625
30
0
0
VERTEX
8
0
10
-64.580009375
20
0.200178125
30
0
0
VERTEX
8
0
10
-64.716090625
20
0.25654375
30
0
0
VERTEX
8
0
10
-64.84924062500001
20
0.31951875
30
0
0
VERTEX
8
0
10
-64.979140625
20
0.388953125
30
0
0
VERTEX
8
0
10
-65.105475
20
0.464675
30
0
0
VERTEX
8
0
10
-65.22794375000001
20
0.54650625
30
0
0
VERTEX
8
0
10
-65.34625
20
0.634246875
30
0
0
VERTEX
8
0
10
-65.460109375
20
0.727690625
30
0
0
VERTEX
8
0
10
-65.56924375
20
0.826603125
30
0
0
VERTEX
8
0
10
-65.67339687500001
20
0.9307562500000001
30
0
0
VERTEX
8
0
10
-65.772309375
20
1.039890625
30
0
0
VERTEX
8
0
10
-65.865753125
20
1.15375
30
0
0
VERTEX
8
0
10
-65.95349375
20
1.27205625
30
0
0
VERTEX
8
0
10
-66.035325
20
1.394525
30
0
0
VERTEX
8
0
10
-66.111046875
20
1.5208593750000001
30
0
0
VERTEX
8
0
10
-66.18048125
20
1.650759375
30
0
0
VERTEX
8
0
10
-66.24345625000001
20
1.7839093750000001
30
0
0
VERTEX
8
0
10
-66.299821875
20
1.919990625
30
0
0
VERTEX
8
0
10
-66.34944375
20
2.058671875
30
0
0
VERTEX
8
0
10
-66.3922
20
2.199621875
30
0
0
VERTEX
8
0
10
-66.4279875
20
2.342496875
30
0
0
VERTEX
8
0
10
-66.456721875
20
2.486959375
30
0
0
VERTEX
8
0
10
-66.478334375
20
2.63265625
30
0
0
VERTEX
8
0
10
-66.492771875
20
2.7792406250000004
30
0
0
VERTEX
8
0
10
-66.5
20
2.9263531250000003
30
0
0
VERTEX
8
0
10
-66.5
20
3.073646875
30
0
0
VERTEX
8
0
10
-66.492771875
20
3.220759375
30
0
0
VERTEX
8
0
10
-66.478334375
20
3.3673437500000003
30
0
0
VERTEX
8
0
10
-66.456721875
20
3.5130406250000004
30
0
0
VERTEX
8
0
10
-66.4279875
20
3.6575031250000003
30
0
0
VERTEX
8
0
10
-66.3922
20
3.8003781250000004
30
0
0
VERTEX
8
0
10
-66.34944375
20
3.941328125
30
0
0
VERTEX
8
0
10
-66.299821875
20
4.080009375
30
0
0
VERTEX
8
0
10
-66.24345625000001
20
4.2160906250000005
30
0
0
VERTEX
8
0
10
-66.18048125
20
4.349240625
30
0
0
VERTEX
8
0
10
-66.111046875
20
4.479140625
30
0
0
VERTEX
8
0
10
-66.035325
20
4.605475
30
0
0
VERTEX
8
0
10
-65.95349375
20
4.7279437500000006
30
0
0
VERTEX
8
0
10
-65.865753125
20
4.84625
30
0
0
VERTEX
8
0
10
-65.772309375
20
4.960109375
30
0
0
VERTEX
8
0
10
-65.67339687500001
20
5.06924375
30
0
0
VERTEX
8
0
10
-65.56924375
20
5.173396875
30
0
0
VERTEX
8
0
10
-65.460109375
20
5.272309375
30
0
0
VERTEX
8
0
10
-65.34625
20
5.365753125
30
0
0
VERTEX
8
0
10
-65.22794375000001
20
5.453493750000001
30
0
0
VERTEX
8
0
10
-65.105475
20
5.535325
30
0
0
VERTEX
8
0
10
-64.979140625
20
5.611046875
30
0
0
VERTEX
8
0
10
-64.84924062500001
20
5.680481250000001
30
0
0
VERTEX
8
0
10
-64.716090625
20
5.74345625
30
0
0
VERTEX
8
0
10
-64.580009375
20
5.799821875
30
0
0
VERTEX
8
0
10
-64.441328125
20
5.849443750000001
30
0
0
VERTEX
8
0
10
-64.30037812500001
20
5.8922
30
0
0
VERTEX
8
0
10
-64.157503125
20
5.9279875
30
0
0
VERTEX
8
0
10
-64.013040625
20
5.956721875
30
0
0
VERTEX
8
0
10
-63.86734375
20
5.978334375
30
0
0
VERTEX
8
0
10
-63.720759375
20
5.992771875
30
0
0
VERTEX
8
0
10
-63.573646875
20
6
30
0
0
VERTEX
8
0
10
-63.426353125000006
20
6
30
0
0
VERTEX
8
0
10
-63.279240625
20
5.992771875
30
0
0
VERTEX
8
0
10
-63.132656250000004
20
5.978334375
30
0
0
VERTEX
8
0
10
-62.986959375000005
20
5.956721875
30
0
0
VERTEX
8
0
10
-62.842496875
20
5.9279875
30
0
0
VERTEX
8
0
10
-62.699621875000005
20
5.8922
30
0
0
VERTEX
8
0
10
-62.558671875
20
5.849443750000001
30
0
0
VERTEX
8
0
10
-62.419990625000004
20
5.799821875
30
0
0
VERTEX
8
0
10
-62.283909375
20
5.74345625
30
0
0
VERTEX
8
0
10
-62.150759375
20
5.680481250000001
30
0
0
VERTEX
8
0
10
-62.020859375
20
5.611046875
30
0
0
VERTEX
8
0
10
-61.894525
20
5.535325
30
0
0
VERTEX
8
0
10
-61.772056250000006
20
5.453493750000001
30
0
0
VERTEX
8
0
10
-61.65375
20
5.365753125
30
0
0
VERTEX
8
0
10
-61.539890625000005
20
5.272309375
30
0
0
VERTEX
8
0
10
-61.43075625
20
5.173396875
30
0
0
VERTEX
8
0
10
-61.326603125000005
20
5.06924375
30
0
0
VERTEX
8
0
10
-61.227690625
20
4.960109375
30
0
0
VERTEX
8
0
10
-61.134246875
20
4.84625
30
0
0
VERTEX
8
0
10
-61.04650625
20
4.7279437500000006
30
0
0
VERTEX
8
0
10
-60.964675
20
4.605475
30
0
0
VERTEX
8
0
10
-60.888953125
20
4.479140625
30
0
0
VERTEX
8
0
10
-60.81951875
20
4.349240625
30
0
0
VERTEX
8
0
10
-60.756543750000006
20
4.2160906250000005
30
0
0
VERTEX
8
0
10
-60.700178125
20
4.080009375
30
0
0
VERTEX
8
0
10
-60.65055625
20
3.941328125
30
0
0
VERTEX
8
0
10
-60.607800000000005
20
3.8003781250000004
30
0
0
VERTEX
8
0
10
-60.5720125
20
3.6575031250000003
30
0
0
VERTEX
8
0
10
-60.543278125
20
3.5130406250000004
30
0
0
VERTEX
8
0
10
-60.521665625000004
20
3.3673437500000003
30
0
0
VERTEX
8
0
10
-60.507228125000005
20
3.220759375
30
0
0
VERTEX
8
0
10
-60.5
20
3.073646875
30
0
0
VERTEX
8
0
10
-60.5
20
2.9263531250000003
30
0
0
SEQEND
0
POLYLINE
66
1
8
holes
10
0.0
20
0.0
30
0.0
70
1
0
VERTEX
8
0
10
27.400000000000002
20
3.989565625
30
0
0
VERTEX
8
0
10
27.392703125
20
3.86891875
30
0
0
VERTEX
8
0
10
27.378134375000002
20
3.748934375
30
0
0
VERTEX
8
0
10
27.356346875
20
3.630046875
30
0
0
VERTEX
8
0
10
27.327421875000002
20
3.5126906250000003
30
0
0
VERTEX
8
0
10
27.2914625
20
3.3972968750000003
30
0
0
VERTEX
8
0
10
27.248603125000002
20
3.2842843750000004
30
0
0
VERTEX
8
0
10
27.198996875000002
20
3.1740656250000003
30
0
0
VERTEX
8
0
10
27.142828125
20
3.0670437500000003
30
0
0
VERTEX
8
0
10
27.080296875000002
20
2.96360625
30
0
0
VERTEX
8
0
10
27.011637500000003
20
2.8641343750000003
30
0
0
VERTEX
8
0
10
26.937096875
20
2.7689906250000003
30
0
0
VERTEX
8
0
10
26.856946875000002
20
2.6785187500000003
30
0
0
VERTEX
8
0
10
26.77148125
20
2.593053125
30
0
0
VERTEX
8
0
10
26.681009375000002
20
2.5129031250000002
30
0
0
VERTEX
8
0
10
26.585865625
20
2.4383625
30
0
0
VERTEX
8
0
10
26.48639375
20
2.369703125
30
0
0
VERTEX
8
0
10
26.382956250000003
20
2.3071718750000003
30
0
0
VERTEX
8
0
10
26.275934375000002
20
2.251003125
30
0
0
VERTEX
8
0
10
26.165715625
20
2.201396875
30
0
0
VERTEX
8
0
10
26.052703125
20
2.1585375
30
0
0
VERTEX
8
0
10
25.937309375
20
2.122578125
30
0
0
VERTEX
8
0
10
25.819953125
20
2.093653125
30
0
0
VERTEX
8
0
10
25.701065625000002
20
2.071865625
30
0
0
VERTEX
8
0
10
25.58108125
20
2.057296875
30
0
0
VERTEX
8
0
10
25.460434375000002
20
2.0500000000000003
30
0
0
VERTEX
8
0
10
25.339565625000002
20
2.0500000000000003
30
0
0
VERTEX
8
0
10
25.21891875
20
2.057296875
30
0
0
VERTEX
8
0
10
25.098934375000002
20
2.071865625
30
0
0
VERTEX
8
0
10
24.980046875000003
20
2.093653125
30
0
0
VERTEX
8
0
10
24.862690625000003
20
2.122578125
30
0
0
VERTEX
8
0
10
24.747296875
20
2.1585375
30
0
0
VERTEX
8
0
10
24.634284375
20
2.201396875
30
0
0
VERTEX
8
0
10
24.524065625000002
20
2.251003125
30
0
0
VERTEX
8
0
10
24.41704375
20
2.3071718750000003
30
0
0
VERTEX
8
0
10
24.31360625
20
2.369703125
30
0
0
VERTEX
8
0
10
24.214134375
20
2.4383625
30
0
0
VERTEX
8
0
10
24.118990625000002
20
2.5129031250000002
30
0
0
VERTEX
8
0
10
24.02851875
20
2.593053125
30
0
0
VERTEX
8
0
10
23.943053125000002
20
2.6785187500000003
30
0
0
VERTEX
8
0
10
23.862903125000003
20
2.7689906250000003
30
0
0
VERTEX
8
0
10
23.7883625
20
2.8641343750000003
30
0
0
VERTEX
8
0
10
23.719703125000002
20
2.96360625
30
0
0
VERTEX
8
0
10
23.657171875
20
3.0670437500000003
30
0
0
VERTEX
8
0
10
23.601003125000002
20
3.1740656250000003
30
0
0
VERTEX
8
0
10
23.551396875000002
20
3.2842843750000004
30
0
0
VERTEX
8
0
10
23.508537500000003
20
3.3972968750000003
30
0
0
VERTEX
8
0
10
23.472578125000002
20
3.5126906250000003
30
0
0
VERTEX
8
0
10
23.443653125
20
3.630046875
30
0
0
VERTEX
8
0
10
23.421865625000002
20
3.748934375
30
0
0
VERTEX
8
0
10
23.407296875
20
3.86891875
30
0
0
VERTEX
8
0
10
23.400000000000002
20
3.989565625
30
0
0
VERTEX
8
0
10
23.400000000000002
20
4.1104343750000005
30
0
0
VERTEX
8
0
10
23.407296875
20
4.23108125
30
0
0
VERTEX
8
0
10
23.421865625000002
20
4.351065625
30
0
0
VERTEX
8
0
10
23.443653125
20
4.469953125
30
0
0
VERTEX
8
0
10
23.472578125000002
20
4.587309375
30
0
0
VERTEX
8
0
10
23.508537500000003
20
4.702703125
30
0
0
VERTEX
8
0
10
23.551396875000002
20
4.815715625
30
0
0
VERTEX
8
0
10
23.601003125000002
20
4.925934375000001
30
0
0
VERTEX
8
0
10
23.657171875
20
5.03295625
30
0
0
VERTEX
8
0
10
23.719703125000002
20
5.13639375
30
0
0
VERTEX
8
0
10
23.7883625
20
5.235865625000001
30
0
0
VERTEX
8
0
10
23.862903125000003
20
5.331009375
30
0
0
VERTEX
8
0
10
23.943053125000002
20
5.42148125
30
0
0
VERTEX
8
0
10
24.02851875
20
5.506946875000001
30
0
0
VERTEX
8
0
10
24.118990625000002
20
5.587096875
30
0
0
VERTEX
8
0
10
24.214134375
20
5.6616375
30
0
0
VERTEX
8
0
10
24.31360625
20
5.7302968750000005
30
0
0
VERTEX
8
0
10
24.41704375
20
5.792828125000001
30
0
0
VERTEX
8
0
10
24.524065625000002
20
5.848996875
30
0
0
VERTEX
8
0
10
24.634284375
20
5.898603125
30
0
0
VERTEX
8
0
10
24.747296875
20
5.9414625
30
0
0
VERTEX
8
0
10
24.862690625000003
20
5.977421875
30
0
0
VERTEX
8
0
10
24.980046875000003
20
6.006346875
30
0
0
VERTEX
8
0
10
25.098934375000002
20
6.0281343750000005
30
0
0
VERTEX
8
0
10
25.21891875
20
6.042703125
30
0
0
VERTEX
8
0
10
25.339565625000002
20
6.050000000000001
30
0
0
VERTEX
8
0
10
25.460434375000002
20
6.050000000000001
30
0
0
VERTEX
8
0
10
25.58108125
20
6.042703125
30
0
0
VERTEX
8
0
10
25.701065625000002
20
6.0281343750000005
30
0
0
VERTEX
8
0
10
25.819953125
20
6.006346875
30
0
0
VERTEX
8
0
10
25.937309375
20
5.977421875
30
0
0
VERTEX
8
0
10
26.052703125
20
5.9414625
30
0
0
VERTEX
8
0
10
26.165715625
20
5.898603125
30
0
0
VERTEX
8
0
10
26.275934375000002
20
5.848996875
30
0
0
VERTEX
8
0
10
26.382956250000003
20
5.792828125000001
30
0
0
VERTEX
8
0
10
26.48639375
20
5.7302968750000005
30
0
0
VERTEX
8
0
10
26.585865625
20
5.6616375
30
0
0
VERTEX
8
0
10
26.681009375000002
20
5.587096875
30
0
0
VERTEX
8
0
10
26.77148125
20
5.506946875000001
30
0
0
VERTEX
8
0
10
26.856946875000002
20
5.42148125
30
0
0
VERTEX
8
0
10
26.937096875
20
5.331009375
30
0
0
VERTEX
8
0
10
27.011637500000003
20
5.235865625000001
30
0
0
VERTEX
8
0
10
27.080296875000002
20
5.13639375
30
0
0
VERTEX
8
0
10
27.142828125
20
5.03295625
30
0
0
VERTEX
8
0
10
27.198996875000002
20
4.925934375000001
30
0
0
VERTEX
8
0
10
27.248603125000002
20
4.815715625
30
0
0
VERTEX
8
0
10
27.2914625
20
4.702703125
30
0
0
VERTEX
8
0
10
27.327421875000002
20
4.587309375
30
0
0
VERTEX
8
0
10
27.356346875
20
4.469953125
30
0
0
VERTEX
8
0
10
27.378134375000002
20
4.351065625
30
0
0
VERTEX
8
0
10
27.392703125
20
4.23108125
30
0
0
VERTEX
8
0
10
27.400000000000002
20
4.1104343750000005
30
0
0
VERTEX
8
0
10
27.400000000000002
20
3.989565625
30
0
0
SEQEND
0
POLYLINE
66
1
8
holes
10
0.0
20
0.0
30
0.0
70
1
0
VERTEX
8
0
10
52.800000000000004
20
3.989565625
30
0
0
VERTEX
8
0
10
52.792703125
20
3.86891875
30
0
0
VERTEX
8
0
10
52.778134375
20
3.748934375
30
0
0
VERTEX
8
0
10
52.756346875000006
20
3.630046875
30
0
0
VERTEX
8
0
10
52.727421875000005
20
3.5126906250000003
30
0
0
VERTEX
8
0
10
52.6914625
20
3.3972968750000003
30
0
0
VERTEX
8
0
10
52.648603125
20
3.2842843750000004
30
0
0
VERTEX
8
0
10
52.598996875000005
20
3.1740656250000003
30
0
0
VERTEX
8
0
10
52.542828125
20
3.0670437500000003
30
0
0
VERTEX
8
0
10
52.480296875
20
2.96360625
30
0
0
VERTEX
8
0
10
52.411637500000005
20
2.8641343750000003
30
0
0
VERTEX
8
0
10
52.337096875
20
2.7689906250000003
30
0
0
VERTEX
8
0
10
52.256946875000004
20
2.6785187500000003
30
0
0
VERTEX
8
0
10
52.17148125
20
2.593053125
30
0
0
VERTEX
8
0
10
52.081009375
20
2.5129031250000002
30
0
0
VERTEX
8
0
10
51.985865625
20
2.4383625
30
0
0
VERTEX
8
0
10
51.88639375
20
2.369703125
30
0
0
VERTEX
8
0
10
51.782956250000005
20
2.3071718750000003
30
0
0
VERTEX
8
0
10
51.675934375000004
20
2.251003125
30
0
0
VERTEX
8
0
10
51.565715625
20
2.201396875
30
0
0
VERTEX
8
0
10
51.452703125
20
2.1585375
30
0
0
VERTEX
8
0
10
51.337309375000004
20
2.122578125
30
0
0
VERTEX
8
0
10
51.219953125
20
2.093653125
30
0
0
VERTEX
8
0
10
51.101065625000004
20
2.071865625
30
0
0
VERTEX
8
0
10
50.98108125
20
2.057296875
30
0
0
VERTEX
8
0
10
50.860434375000004
20
2.0500000000000003
30
0
0
VERTEX
8
0
10
50.739565625000004
20
2.0500000000000003
30
0
0
VERTEX
8
0
10
50.618918750000006
20
2.057296875
30
0
0
VERTEX
8
0
10
50.498934375000005
20
2.071865625
30
0
0
VERTEX
8
0
10
50.380046875000005
20
2.093653125
30
0
0
VERTEX
8
0
10
50.262690625000005
20
2.122578125
30
0
0
VERTEX
8
0
10
50.147296875
20
2.1585375
30
0
0
VERTEX
8
0
10
50.034284375000006
20
2.201396875
30
0
0
VERTEX
8
0
10
49.924065625000004
20
2.251003125
30
0
0
VERTEX
8
0
10
49.81704375
20
2.3071718750000003
30
0
0
VERTEX
8
0
10
49.713606250000005
20
2.369703125
30
0
0
VERTEX
8
0
10
49.614134375
20
2.4383625
30
0
0
VERTEX
8
0
10
49.518990625
20
2.5129031250000002
30
0
0
VERTEX
8
0
10
49.42851875
20
2.593053125
30
0
0
VERTEX
8
0
10
49.343053125000004
20
2.6785187500000003
30
0
0
VERTEX
8
0
10
49.262903125
20
2.7689906250000003
30
0
0
VERTEX
8
0
10
49.188362500000004
20
2.8641343750000003
30
0
0
VERTEX
8
0
10
49.119703125
20
2.96360625
30
0
0
VERTEX
8
0
10
49.057171875
20
3.0670437500000003
30
0
0
VERTEX
8
0
10
49.001003125000004
20
3.1740656250000003
30
0
0
VERTEX
8
0
10
48.951396875
20
3.2842843750000004
30
0
0
VERTEX
8
0
10
48.9085375
20
3.3972968750000003
30
0
0
VERTEX
8
0
10
48.872578125000004
20
3.5126906250000003
30
0
0
VERTEX
8
0
10
48.843653125
20
3.630046875
30
0
0
VERTEX
8
0
10
48.821865625
20
3.748934375
30
0
0
VERTEX
8
0
10
48.807296875000006
20
3.86891875
30
0
0
VERTEX
8
0
10
48.800000000000004
20
3.989565625
30
0
0
VERTEX
8
0
10
48.800000000000004
20
4.1104343750000005
30
0
0
VERTEX
8
0
10
48.807296875000006
20
4.23108125
30
0
0
VERTEX
8
0
10
48.821865625
20
4.351065625
30
0
0
VERTEX
8
0
10
48.843653125
20
4.469953125
30
0
0
VERTEX
8
0
10
48.872578125000004
20
4.587309375
30
0
0
VERTEX
8
0
10
48.9085375
20
4.702703125
30
0
0
VERTEX
8
0
10
48.951396875
20
4.815715625
30
0
0
VERTEX
8
0
10
49.001003125000004
20
4.925934375000001
30
0
0
VERTEX
8
0
10
49.057171875
20
5.03295625
30
0
0
VERTEX
8
0
10
49.119703125
20
5.13639375
30
0
0
VERTEX
8
0
10
49.188362500000004
20
5.235865625000001
30
0
0
VERTEX
8
0
10
49.262903125
20
5.331009375
30
0
0
VERTEX
8
0
10
49.343053125000004
20
5.42148125
30
0
0
VERTEX
8
0
10
49.42851875
20
5.506946875000001
30
0
0
VERTEX
8
0
10
49.518990625
20
5.587096875
30
0
0
VERTEX
8
0
10
49.614134375
20
5.6616375
30
0
0
VERTEX
8
0
10
49.713606250000005
20
5.7302968750000005
30
0
0
VERTEX
8
0
10
49.81704375
20
5.792828125000001
30
0
0
VERTEX
8
0
10
49.924065625000004
20
5.848996875
30
0
0
VERTEX
8
0
10
50.034284375000006
20
5.898603125
30
0
0
VERTEX
8
0
10
50.147296875
20
5.9414625
30
0
0
VERTEX
8
0
10
50.262690625000005
20
5.977421875
30
0
0
VERTEX
8
0
10
50.380046875000005
20
6.006346875
30
0
0
VERTEX
8
0
10
50.498934375000005
20
6.0281343750000005
30
0
0
VERTEX
8
0
10
50.618918750000006
20
6.042703125
30
0
0
VERTEX
8
0
10
50.739565625000004
20
6.050000000000001
30
0
0
VERTEX
8
0
10
50.860434375000004
20
6.050000000000001
30
0
0
VERTEX
8
0
10
50.98108125
20
6.042703125
30
0
0
VERTEX
8
0
10
51.101065625000004
20
6.0281343750000005
30
0
0
VERTEX
8
0
10
51.219953125
20
6.006346875
30
0
0
VERTEX
8
0
10
51.337309375000004
20
5.977421875
30
0
0
VERTEX
8
0
10
51.452703125
20
5.9414625
30
0
0
VERTEX
8
0
10
51.565715625
20
5.898603125
30
0
0
VERTEX
8
0
10
51.675934375000004
20
5.848996875
30
0
0
VERTEX
8
0
10
51.782956250000005
20
5.792828125000001
30
0
0
VERTEX
8
0
10
51.88639375
20
5.7302968750000005
30
0
0
VERTEX
8
0
10
51.985865625
20
5.6616375
30
0
0
VERTEX
8
0
10
52.081009375
20
5.587096875
30
0
0
VERTEX
8
0
10
52.17148125
20
5.506946875000001
30
0
0
VERTEX
8
0
10
52.256946875000004
20
5.42148125
30
0
0
VERTEX
8
0
10
52.337096875
20
5.331009375
30
0
0
VERTEX
8
0
10
52.411637500000005
20
5.235865625000001
30
0
0
VERTEX
8
0
10
52.480296875
20
5.13639375
30
0
0
VERTEX
8
0
10
52.542828125
20
5.03295625
30
0
0
VERTEX
8
0
10
52.598996875000005
20
4.925934375000001
30
0
0
VERTEX
8
0
10
52.648603125
20
4.815715625
30
0
0
VERTEX
8
0
10
52.6914625
20
4.702703125
30
0
0
VERTEX
8
0
10
52.727421875000005
20
4.587309375
30
0
0
VERTEX
8
0
10
52.756346875000006
20
4.469953125
30
0
0
VERTEX
8
0
10
52.778134375
20
4.351065625
30
0
0
VERTEX
8
0
10
52.792703125
20
4.23108125
30
0
0
VERTEX
8
0
10
52.800000000000004
20
4.1104343750000005
30
0
0
VERTEX
8
0
10
52.800000000000004
20
3.989565625
30
0
0
SEQEND
0
CIRCLE
8
drills_NPTH
10
-63.5
20
3
30
0
40
3
0
CIRCLE
8
drills_NPTH
10
25.400000000000002
20
4.05
30
0
40
2
0
CIRCLE
8
drills_NPTH
10
50.800000000000004
20
4.05
30
0
40
2
0
ENDSEC
0
EOF