999
dxfrw 0.6.3
  0
SECTION
  2
HEADER
  9
$ACADVER
  1
AC1014
  9
$DWGCODEPAGE
  3
ANSI_1252
  9
$INSBASE
 10
0
 20
0
 30
0
  9
$EXTMIN
 10
-87.53921944701074
 20
-51.5
 30
0
  9
$EXTMAX
 10
101.25
 20
63.125
 30
0
  9
$LIMMIN
 10
0
 20
0
  9
$LIMMAX
 10
420
 20
297
  9
$ORTHOMODE
 70
    0
  9
$REGENMODE
 70
    1
  9
$FILLMODE
 70
    1
  9
$QTEXTMODE
 70
    0
  9
$MIRRTEXT
 70
    0
  9
$LTSCALE
 40
1
  9
$ATTMODE
 70
    0
  9
$TEXTSIZE
 40
2.5
  9
$TRACEWID
 40
15.68
  9
$TEXTSTYLE
  7
STANDARD
  9
$CLAYER
  8
Dimensions
  9
$CELTYPE
  6
BYLAYER
  9
$CECOLOR
 62
  256
  9
$CELTSCALE
 40
1
  9
$DISPSILH
 70
    0
  9
$DIMSCALE
 40
1
  9
$DIMASZ
 40
2.5
  9
$DIMEXO
 40
0.625
  9
$DIMDLI
 40
3.75
  9
$DIMRND
 40
0
  9
$DIMDLE
 40
0
  9
$DIMEXE
 40
1.25
  9
$DIMTP
 40
0
  9
$DIMTM
 40
0
  9
$DIMTXT
 40
2.5
  9
$DIMCEN
 40
2.5
  9
$DIMTSZ
 40
0
  9
$DIMTOL
 70
    0
  9
$DIMLIM
 70
    0
  9
$DIMTIH
 70
    0
  9
$DIMTOH
 70
    0
  9
$DIMSE1
 70
    0
  9
$DIMSE2
 70
    0
  9
$DIMTAD
 70
    1
  9
$DIMZIN
 70
    0
  9
$DIMBLK
  1

  9
$DIMASO
 70
    1
  9
$DIMSHO
 70
    1
  9
$DIMPOST
  1

  9
$DIMAPOST
  1

  9
$DIMALT
 70
    0
  9
$DIMALTD
 70
    3
  9
$DIMALTF
 40
0.03937
  9
$DIMLFAC
 40
1
  9
$DIMTOFL
 70
    1
  9
$DIMTVP
 40
0
  9
$DIMTIX
 70
    0
  9
$DIMSOXD
 70
    0
  9
$DIMSAH
 70
    0
  9
$DIMBLK1
  1

  9
$DIMBLK2
  1

  9
$DIMSTYLE
  2
Standard
  9
$DIMCLRD
 70
    0
  9
$DIMCLRE
 70
    0
  9
$DIMCLRT
 70
    0
  9
$DIMTFAC
 40
1
  9
$DIMGAP
 40
0.625
  9
$DIMJUST
 70
    0
  9
$DIMSD1
 70
    0
  9
$DIMSD2
 70
    0
  9
$DIMTOLJ
 70
    0
  9
$DIMTZIN
 70
    8
  9
$DIMALTZ
 70
    0
  9
$DIMALTTZ
 70
    0
  9
$DIMUPT
 70
    0
  9
$DIMDEC
 70
    2
  9
$DIMTDEC
 70
    2
  9
$DIMALTU
 70
    2
  9
$DIMALTTD
 70
    3
  9
$DIMTXSTY
  7
standard
  9
$DIMAUNIT
 70
    0
  9
$DIMADEC
 70
    0
  9
$DIMALTRND
 40
0
  9
$DIMAZIN
 70
    0
  9
$DIMDSEP
 70
    0
  9
$DIMATFIT
 70
    3
  9
$DIMFRAC
 70
    0
  9
$DIMLDRBLK
  1
STANDARD
  9
$DIMUNIT
 70
    2
  9
$DIMLWD
 70
   -2
  9
$DIMLWE
 70
   -2
  9
$DIMTMOVE
 70
    0
  9
$LUNITS
 70
    2
  9
$LUPREC
 70
    4
  9
$SKETCHINC
 40
1
  9
$FILLETRAD
 40
0
  9
$AUNITS
 70
    0
  9
$AUPREC
 70
    2
  9
$MENU
  1
.
  9
$ELEVATION
 40
0
  9
$PELEVATION
 40
0
  9
$THICKNESS
 40
0
  9
$LIMCHECK
 70
    0
  9
$BLIPMODE
 70
    0
  9
$CHAMFERA
 40
0
  9
$CHAMFERB
 40
0
  9
$CHAMFERC
 40
0
  9
$CHAMFERD
 40
0
  9
$SKPOLY
 70
    0
  9
$USRTIMER
 70
    1
  9
$ANGBASE
 50
0
  9
$ANGDIR
 70
    0
  9
$PDMODE
 70
   34
  9
$PDSIZE
 40
0
  9
$PLINEWID
 40
0
  9
$SPLFRAME
 70
    0
  9
$SPLINETYPE
 70
    2
  9
$SPLINESEGS
 70
    8
  9
$HANDSEED
  5
20000
  9
$SURFTAB1
 70
    6
  9
$SURFTAB2
 70
    6
  9
$SURFTYPE
 70
    6
  9
$SURFU
 70
    6
  9
$SURFV
 70
    6
  9
$UCSBASE
  2

  9
$UCSNAME
  2

  9
$UCSORG
 10
0
 20
0
 30
0
  9
$UCSXDIR
 10
1
 20
0
 30
0
  9
$UCSYDIR
 10
0
 20
1
 30
0
  9
$UCSORTHOREF
  2

  9
$UCSORTHOVIEW
 70
    0
  9
$UCSORGTOP
 10
0
 20
0
 30
0
  9
$UCSORGBOTTOM
 10
0
 20
0
 30
0
  9
$UCSORGLEFT
 10
0
 20
0
 30
0
  9
$UCSORGRIGHT
 10
0
 20
0
 30
0
  9
$UCSORGFRONT
 10
0
 20
0
 30
0
  9
$UCSORGBACK
 10
0
 20
0
 30
0
  9
$PUCSBASE
  2

  9
$PUCSNAME
  2

  9
$PUCSORG
 10
0
 20
0
 30
0
  9
$PUCSXDIR
 10
1
 20
0
 30
0
  9
$PUCSYDIR
 10
0
 20
1
 30
0
  9
$PUCSORTHOREF
  2

  9
$PUCSORTHOVIEW
 70
    0
  9
$PUCSORGTOP
 10
0
 20
0
 30
0
  9
$PUCSORGBOTTOM
 10
0
 20
0
 30
0
  9
$PUCSORGLEFT
 10
0
 20
0
 30
0
  9
$PUCSORGRIGHT
 10
0
 20
0
 30
0
  9
$PUCSORGFRONT
 10
0
 20
0
 30
0
  9
$PUCSORGBACK
 10
0
 20
0
 30
0
  9
$USERI1
 70
    0
  9
$USERI2
 70
    0
  9
$USERI3
 70
    0
  9
$USERI4
 70
    0
  9
$USERI5
 70
    0
  9
$USERR1
 40
0
  9
$USERR2
 40
0
  9
$USERR3
 40
0
  9
$USERR4
 40
0
  9
$USERR5
 40
0
  9
$WORLDVIEW
 70
    1
  9
$SHADEDGE
 70
    3
  9
$SHADEDIF
 70
   70
  9
$TILEMODE
 70
    1
  9
$MAXACTVP
 70
   64
  9
$PINSBASE
 10
137.7152162179452
 20
95.85587352362279
 30
0
  9
$PLIMCHECK
 70
    0
  9
$PEXTMIN
 10
0
 20
0
 30
0
  9
$PEXTMAX
 10
0
 20
0
 30
0
  9
$GRIDMODE
 70
    1
  9
$SNAPSTYLE
 70
    0
  9
$GRIDUNIT
 10
0
 20
0
  9
$PLIMMIN
 10
0
 20
0
  9
$PLIMMAX
 10
297
 20
210
  9
$UNITMODE
 70
    0
  9
$VISRETAIN
 70
    1
  9
$PLINEGEN
 70
    0
  9
$PSLTSCALE
 70
    1
  9
$TREEDEPTH
 70
 3020
  9
$CMLSTYLE
  2
Standard
  9
$CMLJUST
 70
    0
  9
$CMLSCALE
 40
20
  9
$PROXYGRAPHICS
 70
    1
  9
$MEASUREMENT
 70
    1
  9
$CELWEIGHT
370
   -1
  9
$ENDCAPS
280
    0
  9
$JOINSTYLE
280
    0
  9
$LWDISPLAY
290
    0
  9
$HYPERLINKBASE
  1

  9
$STYLESHEET
  1

  9
$XEDIT
290
    1
  9
$CEPSNTYPE
380
    0
  9
$PSTYLEMODE
290
    1
  9
$EXTNAMES
290
    1
  9
$PSVPSCALE
 40
1.573183049699307
  9
$OLESTARTUP
290
    0
  0
ENDSEC
  0
SECTION
  2
CLASSES
  0
ENDSEC
  0
SECTION
  2
TABLES
  0
TABLE
  2
VPORT
  5
8
100
AcDbSymbolTable
 70
    1
  0
VPORT
  5
31
330
2
100
AcDbSymbolTableRecord
100
AcDbViewportTableRecord
  2
*ACTIVE
 70
    0
 10
0
 20
0
 11
1
 21
1
 12
57.65405244338498
 22
32.31086114421931
 13
0
 23
0
 14
10
 24
10
 15
10
 25
10
 16
0
 26
0
 36
1
 17
0
 27
0
 37
0
 40
117.3574195470799
 41
1.846332945285215
 42
50
 43
0
 44
0
 50
0
 51
0
 71
    0
 72
  100
 73
    1
 74
    3
 75
    0
 76
    1
 77
    0
 78
    0
  0
ENDTAB
  0
TABLE
  2
LTYPE
  5
5
100
AcDbSymbolTable
 70
    4
  0
LTYPE
  5
14
100
AcDbSymbolTableRecord
100
AcDbLinetypeTableRecord
  2
ByBlock
 70
    0
  3

 72
   65
 73
    0
 40
0
  0
LTYPE
  5
15
100
AcDbSymbolTableRecord
100
AcDbLinetypeTableRecord
  2
ByLayer
 70
    0
  3

 72
   65
 73
    0
 40
0
  0
LTYPE
  5
16
100
AcDbSymbolTableRecord
100
AcDbLinetypeTableRecord
  2
Continuous
 70
    0
  3
Solid line
 72
   65
 73
    0
 40
0
  0
LTYPE
  5
32
330
5
100
AcDbSymbolTableRecord
100
AcDbLinetypeTableRecord
  2
DOT
 70
    0
  3
Dot . . . . . . . . . . . . . . . . . . . . . .
 72
   65
 73
    2
 40
6.35
 49
0
 74
    0
 49
-6.35
 74
    0
  0
LTYPE
  5
33
330
5
100
AcDbSymbolTableRecord
100
AcDbLinetypeTableRecord
  2
DOTTINY
 70
    0
  3
Dot (.15x) .....................................
 72
   65
 73
    2
 40
0.9525
 49
0
 74
    0
 49
-0.9525
 74
    0
  0
LTYPE
  5
34
330
5
100
AcDbSymbolTableRecord
100
AcDbLinetypeTableRecord
  2
DOT2
 70
    0
  3
Dot (.5x) .....................................
 72
   65
 73
    2
 40
3.175
 49
0
 74
    0
 49
-3.175
 74
    0
  0
LTYPE
  5
35
330
5
100
AcDbSymbolTableRecord
100
AcDbLinetypeTableRecord
  2
DOTX2
 70
    0
  3
Dot (2x) .  .  .  .  .  .  .  .  .  .  .  .  .
 72
   65
 73
    2
 40
12.7
 49
0
 74
    0
 49
-12.7
 74
    0
  0
LTYPE
  5
36
330
5
100
AcDbSymbolTableRecord
100
AcDbLinetypeTableRecord
  2
DASHED
 70
    0
  3
Dashed _ _ _ _ _ _ _ _ _ _ _ _ _ _ _ _ _
 72
   65
 73
    2
 40
19.05
 49
12.7
 74
    0
 49
-6.35
 74
    0
  0
LTYPE
  5
37
330
5
100
AcDbSymbolTableRecord
100
AcDbLinetypeTableRecord
  2
DASHEDTINY
 70
    0
  3
Dashed (.15x) _ _ _ _ _ _ _ _ _ _ _ _ _ _ _ _ _
 72
   65
 73
    2
 40
2.8575
 49
1.905
 74
    0
 49
-0.9525
 74
    0
  0
LTYPE
  5
38
330
5
100
AcDbSymbolTableRecord
100
AcDbLinetypeTableRecord
  2
DASHED2
 70
    0
  3
Dashed (.5x) _ _ _ _ _ _ _ _ _ _ _ _ _ _ _ _ _
 72
   65
 73
    2
 40
9.524999999999999
 49
6.35
 74
    0
 49
-3.175
 74
    0
  0
LTYPE
  5
39
330
5
100
AcDbSymbolTableRecord
100
AcDbLinetypeTableRecord
  2
DASHEDX2
 70
    0
  3
Dashed (2x) ____  ____  ____  ____  ____  ___
 72
   65
 73
    2
 40
38.09999999999999
 49
25.4
 74
    0
 49
-12.7
 74
    0
  0
LTYPE
  5
3A
330
5
100
AcDbSymbolTableRecord
100
AcDbLinetypeTableRecord
  2
DASHDOT
 70
    0
  3
Dash dot __ . __ . __ . __ . __ . __ . __ . __
 72
   65
 73
    4
 40
25.4
 49
12.7
 74
    0
 49
-6.35
 74
    0
 49
0
 74
    0
 49
-6.35
 74
    0
  0
LTYPE
  5
3B
330
5
100
AcDbSymbolTableRecord
100
AcDbLinetypeTableRecord
  2
DASHDOTTINY
 70
    0
  3
Dash dot (.15x) _._._._._._._._._._._._._._._.
 72
   65
 73
    4
 40
3.81
 49
1.905
 74
    0
 49
-0.9525
 74
    0
 49
0
 74
    0
 49
-0.9525
 74
    0
  0
LTYPE
  5
3C
330
5
100
AcDbSymbolTableRecord
100
AcDbLinetypeTableRecord
  2
DASHDOT2
 70
    0
  3
Dash dot (.5x) _._._._._._._._._._._._._._._.
 72
   65
 73
    4
 40
12.7
 49
6.35
 74
    0
 49
-3.175
 74
    0
 49
0
 74
    0
 49
-3.175
 74
    0
  0
LTYPE
  5
3D
330
5
100
AcDbSymbolTableRecord
100
AcDbLinetypeTableRecord
  2
DASHDOTX2
 70
    0
  3
Dash dot (2x) ____  .  ____  .  ____  .  ___
 72
   65
 73
    4
 40
50.8
 49
25.4
 74
    0
 49
-12.7
 74
    0
 49
0
 74
    0
 49
-12.7
 74
    0
  0
LTYPE
  5
3E
330
5
100
AcDbSymbolTableRecord
100
AcDbLinetypeTableRecord
  2
DIVIDE
 70
    0
  3
Divide ____ . . ____ . . ____ . . ____ . . ____
 72
   65
 73
    6
 40
31.75
 49
12.7
 74
    0
 49
-6.35
 74
    0
 49
0
 74
    0
 49
-6.35
 74
    0
 49
0
 74
    0
 49
-6.35
 74
    0
  0
LTYPE
  5
3F
330
5
100
AcDbSymbolTableRecord
100
AcDbLinetypeTableRecord
  2
DIVIDETINY
 70
    0
  3
Divide (.15x) __..__..__..__..__..__..__..__.._
 72
   65
 73
    6
 40
4.7625
 49
1.905
 74
    0
 49
-0.9525
 74
    0
 49
0
 74
    0
 49
-0.9525
 74
    0
 49
0
 74
    0
 49
-0.9525
 74
    0
  0
LTYPE
  5
40
330
5
100
AcDbSymbolTableRecord
100
AcDbLinetypeTableRecord
  2
DIVIDE2
 70
    0
  3
Divide (.5x) __..__..__..__..__..__..__..__.._
 72
   65
 73
    6
 40
15.875
 49
6.35
 74
    0
 49
-3.175
 74
    0
 49
0
 74
    0
 49
-3.175
 74
    0
 49
0
 74
    0
 49
-3.175
 74
    0
  0
LTYPE
  5
41
330
5
100
AcDbSymbolTableRecord
100
AcDbLinetypeTableRecord
  2
DIVIDEX2
 70
    0
  3
Divide (2x) ________  .  .  ________  .  .  _
 72
   65
 73
    6
 40
63.5
 49
25.4
 74
    0
 49
-12.7
 74
    0
 49
0
 74
    0
 49
-12.7
 74
    0
 49
0
 74
    0
 49
-12.7
 74
    0
  0
LTYPE
  5
42
330
5
100
AcDbSymbolTableRecord
100
AcDbLinetypeTableRecord
  2
BORDER
 70
    0
  3
Border __ __ . __ __ . __ __ . __ __ . __ __ .
 72
   65
 73
    6
 40
44.45
 49
12.7
 74
    0
 49
-6.35
 74
    0
 49
12.7
 74
    0
 49
-6.35
 74
    0
 49
0
 74
    0
 49
-6.35
 74
    0
  0
LTYPE
  5
43
330
5
100
AcDbSymbolTableRecord
100
AcDbLinetypeTableRecord
  2
BORDERTINY
 70
    0
  3
Border (.15x) __.__.__.__.__.__.__.__.__.__.__.
 72
   65
 73
    6
 40
6.6675
 49
1.905
 74
    0
 49
-0.9525
 74
    0
 49
1.905
 74
    0
 49
-0.9525
 74
    0
 49
0
 74
    0
 49
-0.9525
 74
    0
  0
LTYPE
  5
44
330
5
100
AcDbSymbolTableRecord
100
AcDbLinetypeTableRecord
  2
BORDER2
 70
    0
  3
Border (.5x) __.__.__.__.__.__.__.__.__.__.__.
 72
   65
 73
    6
 40
22.225
 49
6.35
 74
    0
 49
-3.175
 74
    0
 49
6.35
 74
    0
 49
-3.175
 74
    0
 49
0
 74
    0
 49
-3.175
 74
    0
  0
LTYPE
  5
45
330
5
100
AcDbSymbolTableRecord
100
AcDbLinetypeTableRecord
  2
BORDERX2
 70
    0
  3
Border (2x) ____  ____  .  ____  ____  .  ___
 72
   65
 73
    6
 40
88.89999999999999
 49
25.4
 74
    0
 49
-12.7
 74
    0
 49
25.4
 74
    0
 49
-12.7
 74
    0
 49
0
 74
    0
 49
-12.7
 74
    0
  0
LTYPE
  5
46
330
5
100
AcDbSymbolTableRecord
100
AcDbLinetypeTableRecord
  2
CENTER
 70
    0
  3
Center ____ _ ____ _ ____ _ ____ _ ____ _ ____
 72
   65
 73
    4
 40
50.8
 49
31.75
 74
    0
 49
-6.35
 74
    0
 49
6.35
 74
    0
 49
-6.35
 74
    0
  0
LTYPE
  5
47
330
5
100
AcDbSymbolTableRecord
100
AcDbLinetypeTableRecord
  2
CENTERTINY
 70
    0
  3
Center (.15x) ___ _ ___ _ ___ _ ___ _ ___ _ ___
 72
   65
 73
    4
 40
7.62
 49
4.7625
 74
    0
 49
-0.9525
 74
    0
 49
0.9525
 74
    0
 49
-0.9525
 74
    0
  0
LTYPE
  5
48
330
5
100
AcDbSymbolTableRecord
100
AcDbLinetypeTableRecord
  2
CENTER2
 70
    0
  3
Center (.5x) ___ _ ___ _ ___ _ ___ _ ___ _ ___
 72
   65
 73
    4
 40
28.575
 49
19.05
 74
    0
 49
-3.175
 74
    0
 49
3.175
 74
    0
 49
-3.175
 74
    0
  0
LTYPE
  5
49
330
5
100
AcDbSymbolTableRecord
100
AcDbLinetypeTableRecord
  2
CENTERX2
 70
    0
  3
Center (2x) ________  __  ________  __  _____
 72
   65
 73
    4
 40
101.6
 49
63.5
 74
    0
 49
-12.7
 74
    0
 49
12.7
 74
    0
 49
-12.7
 74
    0
  0
ENDTAB
  0
TABLE
  2
LAYER
  5
2
100
AcDbSymbolTable
 70
    1
  0
LAYER
  5
10
330
2
100
AcDbSymbolTableRecord
100
AcDbLayerTableRecord
  2
0
 70
    0
 62
    7
  6
CONTINUOUS
370
    0
390
F
  0
LAYER
  5
4A
330
2
100
AcDbSymbolTableRecord
100
AcDbLayerTableRecord
  2
Dimensions
 70
    0
 62
    5
  6
CONTINUOUS
370
    0
390
F
  0
ENDTAB
  0
TABLE
  2
STYLE
  5
3
100
AcDbSymbolTable
 70
    3
  0
STYLE
  5
4B
330
2
100
AcDbSymbolTableRecord
100
AcDbTextStyleTableRecord
  2
Standard
 70
    0
 40
0
 41
1
 50
0
 71
    0
 42
1
  3
txt
  4

  0
ENDTAB
  0
TABLE
  2
VIEW
  5
6
100
AcDbSymbolTable
 70
    0
  0
ENDTAB
  0
TABLE
  2
UCS
  5
7
100
AcDbSymbolTable
 70
    0
  0
ENDTAB
  0
TABLE
  2
APPID
  5
9
100
AcDbSymbolTable
 70
    1
  0
APPID
  5
12
100
AcDbSymbolTableRecord
100
AcDbRegAppTableRecord
  2
ACAD
 70
    0
  0
APPID
  5
4C
100
AcDbSymbolTableRecord
100
AcDbRegAppTableRecord
  2
LibreCad
 70
    0
  0
ENDTAB
  0
TABLE
  2
DIMSTYLE
  5
A
100
AcDbSymbolTable
 70
    1
  0
DIMSTYLE
105
4D
330
A
100
AcDbSymbolTableRecord
100
AcDbDimStyleTableRecord
  2
Standard
 70
    0
 40
1
 41
2.5
 42
0.625
 43
0.38
 44
1.25
 45
0
 46
0
 47
0
 48
0
 49
1
140
2.5
141
0.09
142
0
143
25.4
144
1
145
0
146
1
147
0.625
 71
    0
 72
    0
 73
    0
 74
    1
 75
    0
 76
    0
 77
    0
 78
    0
170
    0
171
    2
172
    0
173
    0
174
    0
175
    0
176
    0
177
    0
178
    0
270
    2
271
    2
272
    4
273
    2
274
    2
275
    0
280
    0
281
    0
282
    0
283
    1
284
    0
285
    0
286
    0
287
    3
288
    0
340
standard
  0
ENDTAB
  0
TABLE
  2
BLOCK_RECORD
  5
1
100
AcDbSymbolTable
 70
    2
  0
BLOCK_RECORD
  5
1F
100
AcDbSymbolTableRecord
100
AcDbBlockTableRecord
  2
*Model_Space
  0
BLOCK_RECORD
  5
1E
100
AcDbSymbolTableRecord
100
AcDbBlockTableRecord
  2
*Paper_Space
  0
BLOCK_RECORD
  5
4E
100
AcDbSymbolTableRecord
100
AcDbBlockTableRecord
  2
*D27
  0
BLOCK_RECORD
  5
51
100
AcDbSymbolTableRecord
100
AcDbBlockTableRecord
  2
*D16
  0
BLOCK_RECORD
  5
54
100
AcDbSymbolTableRecord
100
AcDbBlockTableRecord
  2
*D21
  0
BLOCK_RECORD
  5
57
100
AcDbSymbolTableRecord
100
AcDbBlockTableRecord
  2
*D12
  0
BLOCK_RECORD
  5
5A
100
AcDbSymbolTableRecord
100
AcDbBlockTableRecord
  2
*D23
  0
BLOCK_RECORD
  5
5D
100
AcDbSymbolTableRecord
100
AcDbBlockTableRecord
  2
*D36
  0
BLOCK_RECORD
  5
60
100
AcDbSymbolTableRecord
100
AcDbBlockTableRecord
  2
*D3
  0
BLOCK_RECORD
  5
63
100
AcDbSymbolTableRecord
100
AcDbBlockTableRecord
  2
*D28
  0
BLOCK_RECORD
  5
66
100
AcDbSymbolTableRecord
100
AcDbBlockTableRecord
  2
*D33
  0
BLOCK_RECORD
  5
69
100
AcDbSymbolTableRecord
100
AcDbBlockTableRecord
  2
*D20
  0
BLOCK_RECORD
  5
6C
100
AcDbSymbolTableRecord
100
AcDbBlockTableRecord
  2
*D14
  0
BLOCK_RECORD
  5
6F
100
AcDbSymbolTableRecord
100
AcDbBlockTableRecord
  2
*D24
  0
BLOCK_RECORD
  5
72
100
AcDbSymbolTableRecord
100
AcDbBlockTableRecord
  2
*D32
  0
BLOCK_RECORD
  5
75
100
AcDbSymbolTableRecord
100
AcDbBlockTableRecord
  2
*D15
  0
BLOCK_RECORD
  5
78
100
AcDbSymbolTableRecord
100
AcDbBlockTableRecord
  2
*D5
  0
BLOCK_RECORD
  5
7B
100
AcDbSymbolTableRecord
100
AcDbBlockTableRecord
  2
*D22
  0
BLOCK_RECORD
  5
7E
100
AcDbSymbolTableRecord
100
AcDbBlockTableRecord
  2
*D31
  0
BLOCK_RECORD
  5
81
100
AcDbSymbolTableRecord
100
AcDbBlockTableRecord
  2
*D34
  0
BLOCK_RECORD
  5
84
100
AcDbSymbolTableRecord
100
AcDbBlockTableRecord
  2
*D8
  0
BLOCK_RECORD
  5
87
100
AcDbSymbolTableRecord
100
AcDbBlockTableRecord
  2
*D29
  0
BLOCK_RECORD
  5
8A
100
AcDbSymbolTableRecord
100
AcDbBlockTableRecord
  2
*D35
  0
BLOCK_RECORD
  5
8D
100
AcDbSymbolTableRecord
100
AcDbBlockTableRecord
  2
*D4
  0
BLOCK_RECORD
  5
90
100
AcDbSymbolTableRecord
100
AcDbBlockTableRecord
  2
*D10
  0
BLOCK_RECORD
  5
93
100
AcDbSymbolTableRecord
100
AcDbBlockTableRecord
  2
*D26
  0
BLOCK_RECORD
  5
96
100
AcDbSymbolTableRecord
100
AcDbBlockTableRecord
  2
*D30
  0
BLOCK_RECORD
  5
99
100
AcDbSymbolTableRecord
100
AcDbBlockTableRecord
  2
*D17
  0
BLOCK_RECORD
  5
9C
100
AcDbSymbolTableRecord
100
AcDbBlockTableRecord
  2
*D18
  0
BLOCK_RECORD
  5
9F
100
AcDbSymbolTableRecord
100
AcDbBlockTableRecord
  2
*D1
  0
BLOCK_RECORD
  5
A2
100
AcDbSymbolTableRecord
100
AcDbBlockTableRecord
  2
*D11
  0
BLOCK_RECORD
  5
A5
100
AcDbSymbolTableRecord
100
AcDbBlockTableRecord
  2
*D9
  0
BLOCK_RECORD
  5
A8
100
AcDbSymbolTableRecord
100
AcDbBlockTableRecord
  2
*D2
  0
BLOCK_RECORD
  5
AB
100
AcDbSymbolTableRecord
100
AcDbBlockTableRecord
  2
*D19
  0
BLOCK_RECORD
  5
AE
100
AcDbSymbolTableRecord
100
AcDbBlockTableRecord
  2
*D6
  0
BLOCK_RECORD
  5
B1
100
AcDbSymbolTableRecord
100
AcDbBlockTableRecord
  2
*D7
  0
BLOCK_RECORD
  5
B4
100
AcDbSymbolTableRecord
100
AcDbBlockTableRecord
  2
*D13
  0
BLOCK_RECORD
  5
B7
100
AcDbSymbolTableRecord
100
AcDbBlockTableRecord
  2
*D25
  0
ENDTAB
  0
ENDSEC
  0
SECTION
  2
BLOCKS
  0
BLOCK
  5
20
100
AcDbEntity
  8
0
100
AcDbBlockBegin
  2
*Model_Space
 70
    0
 10
0
 20
0
 30
0
  3
*Model_Space
  1

  0
ENDBLK
  5
21
100
AcDbEntity
  8
0
100
AcDbBlockEnd
  0
BLOCK
  5
1C
100
AcDbEntity
  8
0
100
AcDbBlockBegin
  2
*Paper_Space
 70
    0
 10
0
 20
0
 30
0
  3
*Paper_Space
  1

  0
ENDBLK
  5
1D
100
AcDbEntity
  8
0
100
AcDbBlockEnd
  0
BLOCK
  5
4F
100
AcDbEntity
  8
0
100
AcDbBlockBegin
  2
*D27
 70
    1
 10
0
 20
0
  3
*D27
  1

  0
LINE
  5
BA
100
AcDbEntity
  8
Dimensions
  6
ByBlock
 62
    0
100
AcDbLine
 10
70
 20
1.75
 11
70
 21
15.45
  0
MTEXT
  5
BB
100
AcDbEntity
  8
Dimensions
  6
CONTINUOUS
 62
    0
100
AcDbMText
 10
68.125
 20
13.99166666666674
 30
0
 40
2.5
 41
5.833333333333488
 71
    5
 72
    1
  1
3.70
  7
standard
210
0
220
0
230
1
 50
90
 73
    2
 44
1
  0
SOLID
  5
BC
100
AcDbEntity
  8
Dimensions
  6
ByBlock
 62
    0
100
AcDbTrace
 10
70
 20
6.75
 30
0
 11
70.41628465777283
 21
4.25
 31
0
 12
69.58371534222717
 22
4.25
 32
0
 13
69.58371534222717
 23
4.25
 33
0
  0
SOLID
  5
BD
100
AcDbEntity
  8
Dimensions
  6
ByBlock
 62
    0
100
AcDbTrace
 10
70
 20
10.45
 30
0
 11
69.58371534222717
 21
12.95
 31
0
 12
70.41628465777283
 22
12.95
 32
0
 13
70.41628465777283
 23
12.95
 33
0
  0
LINE
  5
BE
100
AcDbEntity
  8
Dimensions
  6
ByBlock
 62
    0
100
AcDbLine
 10
67.625
 20
6.75
 11
71.25
 21
6.75
  0
LINE
  5
BF
100
AcDbEntity
  8
Dimensions
  6
ByBlock
 62
    0
100
AcDbLine
 10
67.625
 20
10.45
 11
71.25
 21
10.45
  0
ENDBLK
  5
50
100
AcDbEntity
  8
0
100
AcDbBlockEnd
  0
BLOCK
  5
52
100
AcDbEntity
  8
0
100
AcDbBlockBegin
  2
*D16
 70
    1
 10
0
 20
0
  3
*D16
  1

  0
LINE
  5
C0
100
AcDbEntity
  8
Dimensions
  6
ByBlock
 62
    0
100
AcDbLine
 10
30.51762482823472
 20
15.64081050768114
 11
20.28237517176528
 21
6.45918949231886
  0
MTEXT
  5
C1
100
AcDbEntity
  8
Dimensions
  6
CONTINUOUS
 62
    0
100
AcDbMText
 10
29.11050605861771
 20
16.89741089999735
 30
0
 40
2.5
 41
8.333333333333645
 71
    5
 72
    1
  1
%%C3.75
  7
standard
210
0
220
0
230
1
 50
41.89397290438357
 73
    2
 44
1
  0
SOLID
  5
C2
100
AcDbEntity
  8
Dimensions
  6
ByBlock
 62
    0
100
AcDbTrace
 10
26.79571586224583
 20
12.30203922936759
 30
0
 11
28.37869449344537
 21
14.28129958855803
 31
0
 12
28.93464619703519
 22
13.66155014849069
 32
0
 13
28.93464619703519
 23
13.66155014849069
 33
0
  0
SOLID
  5
C3
100
AcDbEntity
  8
Dimensions
  6
ByBlock
 62
    0
100
AcDbTrace
 10
24.00428413775417
 20
9.797960770632416
 30
0
 11
22.42130550655463
 21
7.818700411441968
 31
0
 12
21.86535380296481
 22
8.438449851509308
 32
0
 13
21.86535380296481
 23
8.438449851509308
 33
0
  0
ENDBLK
  5
53
100
AcDbEntity
  8
0
100
AcDbBlockEnd
  0
BLOCK
  5
55
100
AcDbEntity
  8
0
100
AcDbBlockBegin
  2
*D21
 70
    1
 10
0
 20
0
  3
*D21
  1

  0
LINE
  5
C4
100
AcDbEntity
  8
Dimensions
  6
ByBlock
 62
    0
100
AcDbLine
 10
0
 20
-40
 11
50.8
 21
-40
  0
MTEXT
  5
C5
100
AcDbEntity
  8
Dimensions
  6
CONTINUOUS
 62
    0
100
AcDbMText
 10
25.4
 20
-38.125
 30
0
 40
2.5
 41
7.777777777777933
 71
    5
 72
    1
  1
50.80
  7
standard
210
0
220
0
230
1
 50
0
 73
    2
 44
1
  0
SOLID
  5
C6
100
AcDbEntity
  8
Dimensions
  6
ByBlock
 62
    0
100
AcDbTrace
 10
0
 20
-40
 30
0
 11
2.5
 21
-39.58371534222716
 31
0
 12
2.5
 22
-40.41628465777284
 32
0
 13
2.5
 23
-40.41628465777284
 33
0
  0
SOLID
  5
C7
100
AcDbEntity
  8
Dimensions
  6
ByBlock
 62
    0
100
AcDbTrace
 10
50.8
 20
-40
 30
0
 11
48.3
 21
-40.41628465777284
 31
0
 12
48.3
 22
-39.58371534222716
 32
0
 13
48.3
 23
-39.58371534222716
 33
0
  0
LINE
  5
C8
100
AcDbEntity
  8
Dimensions
  6
ByBlock
 62
    0
100
AcDbLine
 10
-1.148068456708479e-16
 20
-0.625
 11
-2.296136913416957e-16
 21
-41.25
  0
LINE
  5
C9
100
AcDbEntity
  8
Dimensions
  6
ByBlock
 62
    0
100
AcDbLine
 10
50.8
 20
10.425
 11
50.8
 21
-41.25
  0
ENDBLK
  5
56
100
AcDbEntity
  8
0
100
AcDbBlockEnd
  0
BLOCK
  5
58
100
AcDbEntity
  8
0
100
AcDbBlockBegin
  2
*D12
 70
    1
 10
0
 20
0
  3
*D12
  1

  0
LINE
  5
CA
100
AcDbEntity
  8
Dimensions
  6
ByBlock
 62
    0
100
AcDbLine
 10
-55
 20
10.1
 11
-55
 21
-7.982503547054875e-16
  0
MTEXT
  5
CB
100
AcDbEntity
  8
Dimensions
  6
CONTINUOUS
 62
    0
100
AcDbMText
 10
-56.875
 20
5.05
 30
0
 40
2.5
 41
6.666666666666667
 71
    5
 72
    1
  1
10.10
  7
standard
210
0
220
0
230
1
 50
90
 73
    2
 44
1
  0
SOLID
  5
CC
100
AcDbEntity
  8
Dimensions
  6
ByBlock
 62
    0
100
AcDbTrace
 10
-55
 20
10.1
 30
0
 11
-54.58371534222716
 21
7.6
 31
0
 12
-55.41628465777284
 22
7.6
 32
0
 13
-55.41628465777284
 23
7.6
 33
0
  0
SOLID
  5
CD
100
AcDbEntity
  8
Dimensions
  6
ByBlock
 62
    0
100
AcDbTrace
 10
-55
 20
-7.982503547054875e-16
 30
0
 11
-55.41628465777284
 21
2.499999999999999
 31
0
 12
-54.58371534222716
 22
2.499999999999999
 32
0
 13
-54.58371534222716
 23
2.499999999999999
 33
0
  0
LINE
  5
CE
100
AcDbEntity
  8
Dimensions
  6
ByBlock
 62
    0
100
AcDbLine
 10
-62.875
 20
10.1
 11
-53.75
 21
10.1
  0
LINE
  5
CF
100
AcDbEntity
  8
Dimensions
  6
ByBlock
 62
    0
100
AcDbLine
 10
-62.875
 20
-1.942890293094024e-16
 11
-53.75
 21
-7.982503547054875e-16
  0
ENDBLK
  5
59
100
AcDbEntity
  8
0
100
AcDbBlockEnd
  0
BLOCK
  5
5B
100
AcDbEntity
  8
0
100
AcDbBlockBegin
  2
*D23
 70
    1
 10
0
 20
0
  3
*D23
  1

  0
LINE
  5
D0
100
AcDbEntity
  8
Dimensions
  6
ByBlock
 62
    0
100
AcDbLine
 10
45.65511479280653
 20
6.489760839078524
 11
55.94488520719347
 21
15.61023916092148
  0
MTEXT
  5
D1
100
AcDbEntity
  8
Dimensions
  6
CONTINUOUS
 62
    0
100
AcDbMText
 10
54.54527800551217
 20
16.87520060649188
 30
0
 40
2.5
 41
8.333333333333645
 71
    5
 72
    1
  1
%%C3.75
  7
standard
210
0
220
0
230
1
 50
41.55261314813475
 73
    2
 44
1
  0
SOLID
  5
D2
100
AcDbEntity
  8
Dimensions
  6
ByBlock
 62
    0
100
AcDbTrace
 10
49.39684948894723
 20
9.80629841065778
 30
0
 11
47.80210688247201
 21
7.836504275376213
 31
0
 12
47.24985739928175
 22
8.459554974360092
 32
0
 13
47.24985739928175
 23
8.459554974360092
 33
0
  0
SOLID
  5
D3
100
AcDbEntity
  8
Dimensions
  6
ByBlock
 62
    0
100
AcDbTrace
 10
52.20315051105276
 20
12.29370158934222
 30
0
 11
53.79789311752798
 21
14.26349572462379
 31
0
 12
54.35014260071824
 22
13.64044502563991
 32
0
 13
54.35014260071824
 23
13.64044502563991
 33
0
  0
ENDBLK
  5
5C
100
AcDbEntity
  8
0
100
AcDbBlockEnd
  0
BLOCK
  5
5E
100
AcDbEntity
  8
0
100
AcDbBlockBegin
  2
*D36
 70
    1
 10
0
 20
0
  3
*D36
  1

  0
SOLID
  5
D4
100
AcDbEntity
  8
Dimensions
  6
ByBlock
 62
    0
100
AcDbTrace
 10
33.65674309729562
 20
7.179776606344017
 30
0
 11
32.04338642366714
 21
5.225199117484724
 31
0
 12
31.49707216010657
 22
5.853460520579386
 32
0
 13
31.49707216010657
 23
5.853460520579386
 33
0
  0
LINE
  5
D5
100
AcDbEntity
  8
Dimensions
  6
ByBlock
 62
    0
100
AcDbLine
 10
34.6
 20
8
 11
21.0799843945704
 21
-3.756535309069168
  0
MTEXT
  5
D6
100
AcDbEntity
  8
Dimensions
  6
CONTINUOUS
 62
    0
100
AcDbMText
 10
26.13802865544903
 20
3.126506002693998
 30
0
 40
2.5
 41
11.66666666666682
 71
    5
 72
    1
  1
4-R1.25
  7
standard
210
0
220
0
230
1
 50
41.0090869015701
 73
    2
 44
1
  0
ENDBLK
  5
5F
100
AcDbEntity
  8
0
100
AcDbBlockEnd
  0
BLOCK
  5
61
100
AcDbEntity
  8
0
100
AcDbBlockBegin
  2
*D3
 70
    1
 10
0
 20
0
  3
*D3
  1

  0
LINE
  5
D7
100
AcDbEntity
  8
Dimensions
  6
ByBlock
 62
    0
100
AcDbLine
 10
-8.266092888301046e-16
 20
0
 11
0
 21
13.5
  0
MTEXT
  5
D8
100
AcDbEntity
  8
Dimensions
  6
CONTINUOUS
 62
    0
100
AcDbMText
 10
-1.875
 20
6.75
 30
0
 40
2.5
 41
7.222222222222532
 71
    5
 72
    1
  1
13.50
  7
standard
210
0
220
0
230
1
 50
90
 73
    2
 44
1
  0
SOLID
  5
D9
100
AcDbEntity
  8
Dimensions
  6
ByBlock
 62
    0
100
AcDbTrace
 10
-8.266092888301046e-16
 20
0
 30
0
 11
-0.4162846577728408
 21
2.5
 31
0
 12
0.4162846577728401
 22
2.5
 32
0
 13
0.4162846577728401
 23
2.5
 33
0
  0
SOLID
  5
DA
100
AcDbEntity
  8
Dimensions
  6
ByBlock
 62
    0
100
AcDbTrace
 10
0
 20
13.5
 30
0
 11
0.4162846577728403
 21
11
 31
0
 12
-0.4162846577728406
 22
11
 32
0
 13
-0.4162846577728406
 23
11
 33
0
  0
LINE
  5
DB
100
AcDbEntity
  8
Dimensions
  6
ByBlock
 62
    0
100
AcDbLine
 10
-0.625
 20
7.653789711389858e-17
 11
-1.250000000000001
 21
1.530757942277972e-16
  0
LINE
  5
DC
100
AcDbEntity
  8
Dimensions
  6
ByBlock
 62
    0
100
AcDbLine
 10
-0.625
 20
13.5
 11
-1.25
 21
13.5
  0
ENDBLK
  5
62
100
AcDbEntity
  8
0
100
AcDbBlockEnd
  0
BLOCK
  5
64
100
AcDbEntity
  8
0
100
AcDbBlockBegin
  2
*D28
 70
    1
 10
0
 20
0
  3
*D28
  1

  0
LINE
  5
DD
100
AcDbEntity
  8
Dimensions
  6
ByBlock
 62
    0
100
AcDbLine
 10
0
 20
-50.25
 11
-78.3
 21
-50.25
  0
MTEXT
  5
DE
100
AcDbEntity
  8
Dimensions
  6
CONTINUOUS
 62
    0
100
AcDbMText
 10
-39.15
 20
-48.375
 30
0
 40
2.5
 41
7.777777777777933
 71
    5
 72
    1
  1
78.30
  7
standard
210
0
220
0
230
1
 50
0
 73
    2
 44
1
  0
SOLID
  5
DF
100
AcDbEntity
  8
Dimensions
  6
ByBlock
 62
    0
100
AcDbTrace
 10
0
 20
-50.25
 30
0
 11
-2.5
 21
-50.66628465777284
 31
0
 12
-2.5
 22
-49.83371534222716
 32
0
 13
-2.5
 23
-49.83371534222716
 33
0
  0
SOLID
  5
E0
100
AcDbEntity
  8
Dimensions
  6
ByBlock
 62
    0
100
AcDbTrace
 10
-78.3
 20
-50.25
 30
0
 11
-75.8
 21
-49.83371534222716
 31
0
 12
-75.8
 22
-50.66628465777284
 32
0
 13
-75.8
 23
-50.66628465777284
 33
0
  0
LINE
  5
E1
100
AcDbEntity
  8
Dimensions
  6
ByBlock
 62
    0
100
AcDbLine
 10
-1.148068456708479e-16
 20
-0.625
 11
-2.296136913416957e-16
 21
-51.5
  0
LINE
  5
E2
100
AcDbEntity
  8
Dimensions
  6
ByBlock
 62
    0
100
AcDbLine
 10
-78.3
 20
9.875
 11
-78.3
 21
-51.5
  0
ENDBLK
  5
65
100
AcDbEntity
  8
0
100
AcDbBlockEnd
  0
BLOCK
  5
67
100
AcDbEntity
  8
0
100
AcDbBlockBegin
  2
*D33
 70
    1
 10
0
 20
0
  3
*D33
  1

  0
SOLID
  5
E3
100
AcDbEntity
  8
Dimensions
  6
ByBlock
 62
    0
100
AcDbTrace
 10
-71.95190519013761
 20
32.77815413083453
 30
0
 11
-69.86380255130929
 21
31.34179752956335
 31
0
 12
-70.44191301910354
 22
30.74266486294023
 32
0
 13
-70.44191301910354
 23
30.74266486294023
 33
0
  0
LINE
  5
E4
100
AcDbEntity
  8
Dimensions
  6
ByBlock
 62
    0
100
AcDbLine
 10
-75.55
 20
36.25
 11
-64.15603310210233
 21
25.25582141430923
  0
MTEXT
  5
E5
100
AcDbEntity
  8
Dimensions
  6
CONTINUOUS
 62
    0
100
AcDbMText
 10
-66.75202694518292
 20
30.36627332627027
 30
0
 40
2.5
 41
5.833333333333488
 71
    5
 72
    1
  1
5.00
  7
standard
210
0
220
0
230
1
 50
316.0230301886677
 73
    2
 44
1
  0
ENDBLK
  5
68
100
AcDbEntity
  8
0
100
AcDbBlockEnd
  0
BLOCK
  5
6A
100
AcDbEntity
  8
0
100
AcDbBlockBegin
  2
*D20
 70
    1
 10
0
 20
0
  3
*D20
  1

  0
LINE
  5
E6
100
AcDbEntity
  8
Dimensions
  6
ByBlock
 62
    0
100
AcDbLine
 10
45
 20
1.75
 11
45
 21
15.45
  0
MTEXT
  5
E7
100
AcDbEntity
  8
Dimensions
  6
CONTINUOUS
 62
    0
100
AcDbMText
 10
43.125
 20
13.99166666666674
 30
0
 40
2.5
 41
5.833333333333488
 71
    5
 72
    1
  1
3.70
  7
standard
210
0
220
0
230
1
 50
90
 73
    2
 44
1
  0
SOLID
  5
E8
100
AcDbEntity
  8
Dimensions
  6
ByBlock
 62
    0
100
AcDbTrace
 10
45
 20
6.75
 30
0
 11
45.41628465777284
 21
4.25
 31
0
 12
44.58371534222716
 22
4.25
 32
0
 13
44.58371534222716
 23
4.25
 33
0
  0
SOLID
  5
E9
100
AcDbEntity
  8
Dimensions
  6
ByBlock
 62
    0
100
AcDbTrace
 10
45
 20
10.45
 30
0
 11
44.58371534222716
 21
12.95
 31
0
 12
45.41628465777284
 22
12.95
 32
0
 13
45.41628465777284
 23
12.95
 33
0
  0
LINE
  5
EA
100
AcDbEntity
  8
Dimensions
  6
ByBlock
 62
    0
100
AcDbLine
 10
42.225
 20
6.75
 11
46.25
 21
6.75
  0
LINE
  5
EB
100
AcDbEntity
  8
Dimensions
  6
ByBlock
 62
    0
100
AcDbLine
 10
42.225
 20
10.45
 11
46.25
 21
10.45
  0
ENDBLK
  5
6B
100
AcDbEntity
  8
0
100
AcDbBlockEnd
  0
BLOCK
  5
6D
100
AcDbEntity
  8
0
100
AcDbBlockBegin
  2
*D14
 70
    1
 10
0
 20
0
  3
*D14
  1

  0
LINE
  5
EC
100
AcDbEntity
  8
Dimensions
  6
ByBlock
 62
    0
100
AcDbLine
 10
0
 20
-20
 11
25.4
 21
-20
  0
MTEXT
  5
ED
100
AcDbEntity
  8
Dimensions
  6
CONTINUOUS
 62
    0
100
AcDbMText
 10
12.7
 20
-18.125
 30
0
 40
2.5
 41
8.055555555555712
 71
    5
 72
    1
  1
25.40
  7
standard
210
0
220
0
230
1
 50
0
 73
    2
 44
1
  0
SOLID
  5
EE
100
AcDbEntity
  8
Dimensions
  6
ByBlock
 62
    0
100
AcDbTrace
 10
0
 20
-20
 30
0
 11
2.5
 21
-19.58371534222716
 31
0
 12
2.5
 22
-20.41628465777284
 32
0
 13
2.5
 23
-20.41628465777284
 33
0
  0
SOLID
  5
EF
100
AcDbEntity
  8
Dimensions
  6
ByBlock
 62
    0
100
AcDbTrace
 10
25.4
 20
-20
 30
0
 11
22.9
 21
-20.41628465777284
 31
0
 12
22.9
 22
-19.58371534222716
 32
0
 13
22.9
 23
-19.58371534222716
 33
0
  0
LINE
  5
F0
100
AcDbEntity
  8
Dimensions
  6
ByBlock
 62
    0
100
AcDbLine
 10
-1.148068456708479e-16
 20
-0.625
 11
-2.296136913416957e-16
 21
-21.25
  0
LINE
  5
F1
100
AcDbEntity
  8
Dimensions
  6
ByBlock
 62
    0
100
AcDbLine
 10
25.4
 20
10.425
 11
25.4
 21
-21.25
  0
ENDBLK
  5
6E
100
AcDbEntity
  8
0
100
AcDbBlockEnd
  0
BLOCK
  5
70
100
AcDbEntity
  8
0
100
AcDbBlockBegin
  2
*D24
 70
    1
 10
0
 20
0
  3
*D24
  1

  0
LINE
  5
F2
100
AcDbEntity
  8
Dimensions
  6
ByBlock
 62
    0
100
AcDbLine
 10
7.105427357601002e-15
 20
-50
 11
58.75
 21
-50
  0
MTEXT
  5
F3
100
AcDbEntity
  8
Dimensions
  6
CONTINUOUS
 62
    0
100
AcDbMText
 10
29.375
 20
-48.125
 30
0
 40
2.5
 41
7.777777777778088
 71
    5
 72
    1
  1
58.75
  7
standard
210
0
220
0
230
1
 50
0
 73
    2
 44
1
  0
SOLID
  5
F4
100
AcDbEntity
  8
Dimensions
  6
ByBlock
 62
    0
100
AcDbTrace
 10
7.105427357601002e-15
 20
-50
 30
0
 11
2.500000000000007
 21
-49.58371534222716
 31
0
 12
2.500000000000007
 22
-50.41628465777284
 32
0
 13
2.500000000000007
 23
-50.41628465777284
 33
0
  0
SOLID
  5
F5
100
AcDbEntity
  8
Dimensions
  6
ByBlock
 62
    0
100
AcDbTrace
 10
58.75
 20
-50
 30
0
 11
56.25
 21
-50.41628465777284
 31
0
 12
56.25
 22
-49.58371534222716
 32
0
 13
56.25
 23
-49.58371534222716
 33
0
  0
LINE
  5
F6
100
AcDbEntity
  8
Dimensions
  6
ByBlock
 62
    0
100
AcDbLine
 10
-1.148068456708479e-16
 20
-0.625
 11
6.875813666259306e-15
 21
-51.25
  0
LINE
  5
F7
100
AcDbEntity
  8
Dimensions
  6
ByBlock
 62
    0
100
AcDbLine
 10
58.75
 20
7.375
 11
58.75
 21
-51.25
  0
ENDBLK
  5
71
100
AcDbEntity
  8
0
100
AcDbBlockEnd
  0
BLOCK
  5
73
100
AcDbEntity
  8
0
100
AcDbBlockBegin
  2
*D32
 70
    1
 10
0
 20
0
  3
*D32
  1

  0
SOLID
  5
F8
100
AcDbEntity
  8
Dimensions
  6
ByBlock
 62
    0
100
AcDbTrace
 10
-77.9772652868181
 20
29.79262648410431
 30
0
 11
-80.37954302885763
 21
30.60031117901842
 31
0
 12
-79.98819715717511
 22
31.33517176028894
 32
0
 13
-79.98819715717511
 23
31.33517176028894
 33
0
  0
LINE
  5
F9
100
AcDbEntity
  8
Dimensions
  6
ByBlock
 62
    0
100
AcDbLine
 10
-75.55
 20
28.5
 11
-87.53921944701074
 21
34.884791421485
  0
MTEXT
  5
FA
100
AcDbEntity
  8
Dimensions
  6
CONTINUOUS
 62
    0
100
AcDbMText
 10
-81.87690612775239
 20
33.99366255744336
 30
0
 40
2.5
 41
5.833333333333488
 71
    5
 72
    1
  1
2.75
  7
standard
210
0
220
0
230
1
 50
331.9627178397555
 73
    2
 44
1
  0
ENDBLK
  5
74
100
AcDbEntity
  8
0
100
AcDbBlockEnd
  0
BLOCK
  5
76
100
AcDbEntity
  8
0
100
AcDbBlockBegin
  2
*D15
 70
    1
 10
0
 20
0
  3
*D15
  1

  0
LINE
  5
FB
100
AcDbEntity
  8
Dimensions
  6
ByBlock
 62
    0
100
AcDbLine
 10
20
 20
11.05
 11
20
 21
3.83693077310454e-16
  0
MTEXT
  5
FC
100
AcDbEntity
  8
Dimensions
  6
CONTINUOUS
 62
    0
100
AcDbMText
 10
18.125
 20
5.525
 30
0
 40
2.5
 41
6.666666666666822
 71
    5
 72
    1
  1
11.05
  7
standard
210
0
220
0
230
1
 50
90
 73
    2
 44
1
  0
SOLID
  5
FD
100
AcDbEntity
  8
Dimensions
  6
ByBlock
 62
    0
100
AcDbTrace
 10
20
 20
11.05
 30
0
 11
20.41628465777284
 21
8.550000000000001
 31
0
 12
19.58371534222716
 22
8.550000000000001
 32
0
 13
19.58371534222716
 23
8.550000000000001
 33
0
  0
SOLID
  5
FE
100
AcDbEntity
  8
Dimensions
  6
ByBlock
 62
    0
100
AcDbTrace
 10
20
 20
3.83693077310454e-16
 30
0
 11
19.58371534222716
 21
2.5
 31
0
 12
20.41628465777284
 22
2.5
 32
0
 13
20.41628465777284
 23
2.5
 33
0
  0
LINE
  5
FF
100
AcDbEntity
  8
Dimensions
  6
ByBlock
 62
    0
100
AcDbLine
 10
24.775
 20
11.05
 11
18.75
 21
11.05
  0
LINE
  5
100
100
AcDbEntity
  8
Dimensions
  6
ByBlock
 62
    0
100
AcDbLine
 10
24.775
 20
7.653789711389858e-17
 11
18.75
 21
5.367688715382512e-16
  0
ENDBLK
  5
77
100
AcDbEntity
  8
0
100
AcDbBlockEnd
  0
BLOCK
  5
79
100
AcDbEntity
  8
0
100
AcDbBlockBegin
  2
*D5
 70
    1
 10
0
 20
0
  3
*D5
  1

  0
SOLID
  5
101
100
AcDbEntity
  8
Dimensions
  6
ByBlock
 62
    0
100
AcDbTrace
 10
7.509256602365297
 20
25.15079137345597
 30
0
 11
9.136483644097902
 21
27.0938366819733
 31
0
 12
9.678312572459172
 22
26.46170293221849
 32
0
 13
9.678312572459172
 23
26.46170293221849
 33
0
  0
LINE
  5
102
100
AcDbEntity
  8
Dimensions
  6
ByBlock
 62
    0
100
AcDbLine
 10
6.75
 20
24.5
 11
18.6872010260766
 21
34.73188659377996
  0
MTEXT
  5
103
100
AcDbEntity
  8
Dimensions
  6
CONTINUOUS
 62
    0
100
AcDbMText
 10
11.87799498899101
 20
31.3649451130529
 30
0
 40
2.5
 41
9.722222222222221
 71
    5
 72
    1
  1
4-R1.0
  7
standard
210
0
220
0
230
1
 50
40.60129464500453
 73
    2
 44
1
  0
ENDBLK
  5
7A
100
AcDbEntity
  8
0
100
AcDbBlockEnd
  0
BLOCK
  5
7C
100
AcDbEntity
  8
0
100
AcDbBlockBegin
  2
*D22
 70
    1
 10
0
 20
0
  3
*D22
  1

  0
LINE
  5
104
100
AcDbEntity
  8
Dimensions
  6
ByBlock
 62
    0
100
AcDbLine
 10
55
 20
11.05
 11
55
 21
-2.429167977879844e-16
  0
MTEXT
  5
105
100
AcDbEntity
  8
Dimensions
  6
CONTINUOUS
 62
    0
100
AcDbMText
 10
53.125
 20
5.525
 30
0
 40
2.5
 41
6.666666666666822
 71
    5
 72
    1
  1
11.05
  7
standard
210
0
220
0
230
1
 50
90
 73
    2
 44
1
  0
SOLID
  5
106
100
AcDbEntity
  8
Dimensions
  6
ByBlock
 62
    0
100
AcDbTrace
 10
55
 20
11.05
 30
0
 11
55.41628465777284
 21
8.550000000000001
 31
0
 12
54.58371534222716
 22
8.550000000000001
 32
0
 13
54.58371534222716
 23
8.550000000000001
 33
0
  0
SOLID
  5
107
100
AcDbEntity
  8
Dimensions
  6
ByBlock
 62
    0
100
AcDbTrace
 10
55
 20
-2.429167977879844e-16
 30
0
 11
54.58371534222716
 21
2.5
 31
0
 12
55.41628465777284
 22
2.5
 32
0
 13
55.41628465777284
 23
2.5
 33
0
  0
LINE
  5
108
100
AcDbEntity
  8
Dimensions
  6
ByBlock
 62
    0
100
AcDbLine
 10
51.425
 20
11.05
 11
56.25
 21
11.05
  0
LINE
  5
109
100
AcDbEntity
  8
Dimensions
  6
ByBlock
 62
    0
100
AcDbLine
 10
51.425
 20
5.551115123125783e-17
 11
56.25
 21
-2.429167977879844e-16
  0
ENDBLK
  5
7D
100
AcDbEntity
  8
0
100
AcDbBlockEnd
  0
BLOCK
  5
7F
100
AcDbEntity
  8
0
100
AcDbBlockBegin
  2
*D31
 70
    1
 10
0
 20
0
  3
*D31
  1

  0
SOLID
  5
10A
100
AcDbEntity
  8
Dimensions
  6
ByBlock
 62
    0
100
AcDbTrace
 10
-69.19154018130286
 20
38.62194349085715
 30
0
 11
-70.81563259497744
 21
40.56760963594517
 31
0
 12
-70.09752082454256
 22
40.98890187460031
 32
0
 13
-70.09752082454256
 23
40.98890187460031
 33
0
  0
LINE
  5
10B
100
AcDbEntity
  8
Dimensions
  6
ByBlock
 62
    0
100
AcDbLine
 10
-67.8
 20
36.25
 11
-74.67336513795055
 21
47.96596330332485
  0
MTEXT
  5
10C
100
AcDbEntity
  8
Dimensions
  6
CONTINUOUS
 62
    0
100
AcDbMText
 10
-70.31521846131501
 20
44.24273079343385
 30
0
 40
2.5
 41
5.833333333333488
 71
    5
 72
    1
  1
2.75
  7
standard
210
0
220
0
230
1
 50
300.3987277141661
 73
    2
 44
1
  0
ENDBLK
  5
80
100
AcDbEntity
  8
0
100
AcDbBlockEnd
  0
BLOCK
  5
82
100
AcDbEntity
  8
0
100
AcDbBlockBegin
  2
*D34
 70
    1
 10
0
 20
0
  3
*D34
  1

  0
LINE
  5
10D
100
AcDbEntity
  8
Dimensions
  6
ByBlock
 62
    0
100
AcDbLine
 10
-67.8
 20
50
 11
67.8
 21
50
  0
MTEXT
  5
10E
100
AcDbEntity
  8
Dimensions
  6
CONTINUOUS
 62
    0
100
AcDbMText
 10
1.148068456708479e-16
 20
51.875
 30
0
 40
2.5
 41
9.166666666667131
 71
    5
 72
    1
  1
135.60
  7
standard
210
0
220
0
230
1
 50
0
 73
    2
 44
1
  0
SOLID
  5
10F
100
AcDbEntity
  8
Dimensions
  6
ByBlock
 62
    0
100
AcDbTrace
 10
-67.8
 20
50
 30
0
 11
-65.3
 21
50.41628465777284
 31
0
 12
-65.3
 22
49.58371534222716
 32
0
 13
-65.3
 23
49.58371534222716
 33
0
  0
SOLID
  5
110
100
AcDbEntity
  8
Dimensions
  6
ByBlock
 62
    0
100
AcDbTrace
 10
67.8
 20
50
 30
0
 11
65.3
 21
49.58371534222716
 31
0
 12
65.3
 22
50.41628465777284
 32
0
 13
65.3
 23
50.41628465777284
 33
0
  0
LINE
  5
111
100
AcDbEntity
  8
Dimensions
  6
ByBlock
 62
    0
100
AcDbLine
 10
-67.8
 20
39.625
 11
-67.8
 21
51.25
  0
LINE
  5
112
100
AcDbEntity
  8
Dimensions
  6
ByBlock
 62
    0
100
AcDbLine
 10
67.8
 20
39.625
 11
67.8
 21
51.25
  0
ENDBLK
  5
83
100
AcDbEntity
  8
0
100
AcDbBlockEnd
  0
BLOCK
  5
85
100
AcDbEntity
  8
0
100
AcDbBlockBegin
  2
*D8
 70
    1
 10
0
 20
0
  3
*D8
  1

  0
LINE
  5
113
100
AcDbEntity
  8
Dimensions
  6
ByBlock
 62
    0
100
AcDbLine
 10
-39
 20
6.5
 11
-39
 21
7.105427357601002e-17
  0
MTEXT
  5
114
100
AcDbEntity
  8
Dimensions
  6
CONTINUOUS
 62
    0
100
AcDbMText
 10
-40.875
 20
3.25
 30
0
 40
2.5
 41
5.833333333333643
 71
    5
 72
    1
  1
6.50
  7
standard
210
0
220
0
230
1
 50
90
 73
    2
 44
1
  0
SOLID
  5
115
100
AcDbEntity
  8
Dimensions
  6
ByBlock
 62
    0
100
AcDbTrace
 10
-39
 20
6.5
 30
0
 11
-38.58371534222716
 21
4
 31
0
 12
-39.41628465777284
 22
4
 32
0
 13
-39.41628465777284
 23
4
 33
0
  0
SOLID
  5
116
100
AcDbEntity
  8
Dimensions
  6
ByBlock
 62
    0
100
AcDbTrace
 10
-39
 20
7.105427357601002e-17
 30
0
 11
-39.41628465777284
 21
2.5
 31
0
 12
-38.58371534222716
 22
2.5
 32
0
 13
-38.58371534222716
 23
2.5
 33
0
  0
LINE
  5
117
100
AcDbEntity
  8
Dimensions
  6
ByBlock
 62
    0
100
AcDbLine
 10
-38.725
 20
6.5
 11
-40.25
 21
6.5
  0
LINE
  5
118
100
AcDbEntity
  8
Dimensions
  6
ByBlock
 62
    0
100
AcDbLine
 10
-38.625
 20
7.653789711389858e-17
 11
-40.25
 21
2.241300678038072e-16
  0
ENDBLK
  5
86
100
AcDbEntity
  8
0
100
AcDbBlockEnd
  0
BLOCK
  5
88
100
AcDbEntity
  8
0
100
AcDbBlockBegin
  2
*D29
 70
    1
 10
0
 20
0
  3
*D29
  1

  0
LINE
  5
119
100
AcDbEntity
  8
Dimensions
  6
ByBlock
 62
    0
100
AcDbLine
 10
-78.3
 20
60
 11
78.3
 21
60
  0
MTEXT
  5
11A
100
AcDbEntity
  8
Dimensions
  6
CONTINUOUS
 62
    0
100
AcDbMText
 10
1.148068456708479e-16
 20
61.875
 30
0
 40
2.5
 41
9.166666666667131
 71
    5
 72
    1
  1
156.60
  7
standard
210
0
220
0
230
1
 50
0
 73
    2
 44
1
  0
SOLID
  5
11B
100
AcDbEntity
  8
Dimensions
  6
ByBlock
 62
    0
100
AcDbTrace
 10
-78.3
 20
60
 30
0
 11
-75.8
 21
60.41628465777284
 31
0
 12
-75.8
 22
59.58371534222716
 32
0
 13
-75.8
 23
59.58371534222716
 33
0
  0
SOLID
  5
11C
100
AcDbEntity
  8
Dimensions
  6
ByBlock
 62
    0
100
AcDbTrace
 10
78.3
 20
60
 30
0
 11
75.8
 21
59.58371534222716
 31
0
 12
75.8
 22
60.41628465777284
 32
0
 13
75.8
 23
60.41628465777284
 33
0
  0
LINE
  5
11D
100
AcDbEntity
  8
Dimensions
  6
ByBlock
 62
    0
100
AcDbLine
 10
-78.3
 20
29.125
 11
-78.3
 21
61.25
  0
LINE
  5
11E
100
AcDbEntity
  8
Dimensions
  6
ByBlock
 62
    0
100
AcDbLine
 10
78.3
 20
29.125
 11
78.3
 21
61.25
  0
ENDBLK
  5
89
100
AcDbEntity
  8
0
100
AcDbBlockEnd
  0
BLOCK
  5
8B
100
AcDbEntity
  8
0
100
AcDbBlockBegin
  2
*D35
 70
    1
 10
0
 20
0
  3
*D35
  1

  0
LINE
  5
11F
100
AcDbEntity
  8
Dimensions
  6
ByBlock
 62
    0
100
AcDbLine
 10
90
 20
10.5
 11
90
 21
28.5
  0
MTEXT
  5
120
100
AcDbEntity
  8
Dimensions
  6
CONTINUOUS
 62
    0
100
AcDbMText
 10
88.125
 20
19.5
 30
0
 40
2.5
 41
7.222222222222222
 71
    5
 72
    1
  1
18.00
  7
standard
210
0
220
0
230
1
 50
90
 73
    2
 44
1
  0
SOLID
  5
121
100
AcDbEntity
  8
Dimensions
  6
ByBlock
 62
    0
100
AcDbTrace
 10
90
 20
10.5
 30
0
 11
89.58371534222717
 21
13
 31
0
 12
90.41628465777283
 22
13
 32
0
 13
90.41628465777283
 23
13
 33
0
  0
SOLID
  5
122
100
AcDbEntity
  8
Dimensions
  6
ByBlock
 62
    0
100
AcDbTrace
 10
90
 20
28.5
 30
0
 11
90.41628465777283
 21
26
 31
0
 12
89.58371534222717
 22
26
 32
0
 13
89.58371534222717
 23
26
 33
0
  0
LINE
  5
123
100
AcDbEntity
  8
Dimensions
  6
ByBlock
 62
    0
100
AcDbLine
 10
78.925
 20
10.5
 11
91.25
 21
10.5
  0
LINE
  5
124
100
AcDbEntity
  8
Dimensions
  6
ByBlock
 62
    0
100
AcDbLine
 10
78.925
 20
28.5
 11
91.25
 21
28.5
  0
ENDBLK
  5
8C
100
AcDbEntity
  8
0
100
AcDbBlockEnd
  0
BLOCK
  5
8E
100
AcDbEntity
  8
0
100
AcDbBlockBegin
  2
*D4
 70
    1
 10
0
 20
0
  3
*D4
  1

  0
LINE
  5
125
100
AcDbEntity
  8
Dimensions
  6
ByBlock
 62
    0
100
AcDbLine
 10
-9.999999999999998
 20
13.5
 11
-9.999999999999998
 21
25.5
  0
MTEXT
  5
126
100
AcDbEntity
  8
Dimensions
  6
CONTINUOUS
 62
    0
100
AcDbMText
 10
-11.875
 20
19.5
 30
0
 40
2.5
 41
7.222222222222222
 71
    5
 72
    1
  1
12.00
  7
standard
210
0
220
0
230
1
 50
90
 73
    2
 44
1
  0
SOLID
  5
127
100
AcDbEntity
  8
Dimensions
  6
ByBlock
 62
    0
100
AcDbTrace
 10
-9.999999999999998
 20
13.5
 30
0
 11
-10.41628465777284
 21
16
 31
0
 12
-9.583715342227157
 22
16
 32
0
 13
-9.583715342227157
 23
16
 33
0
  0
SOLID
  5
128
100
AcDbEntity
  8
Dimensions
  6
ByBlock
 62
    0
100
AcDbTrace
 10
-9.999999999999998
 20
25.5
 30
0
 11
-9.583715342227158
 21
23
 31
0
 12
-10.41628465777284
 22
23
 32
0
 13
-10.41628465777284
 23
23
 33
0
  0
LINE
  5
129
100
AcDbEntity
  8
Dimensions
  6
ByBlock
 62
    0
100
AcDbLine
 10
-6.375
 20
13.5
 11
-11.25
 21
13.5
  0
LINE
  5
12A
100
AcDbEntity
  8
Dimensions
  6
ByBlock
 62
    0
100
AcDbLine
 10
-6.375
 20
25.5
 11
-11.25
 21
25.5
  0
ENDBLK
  5
8F
100
AcDbEntity
  8
0
100
AcDbBlockEnd
  0
BLOCK
  5
91
100
AcDbEntity
  8
0
100
AcDbBlockBegin
  2
*D10
 70
    1
 10
0
 20
0
  3
*D10
  1

  0
SOLID
  5
12B
100
AcDbEntity
  8
Dimensions
  6
ByBlock
 62
    0
100
AcDbTrace
 10
-45.70661293661424
 20
9.153863031641933
 30
0
 11
-47.87033842650721
 21
10.4735542533618
 31
0
 12
-47.32595212979246
 22
11.10348696813173
 32
0
 13
-47.32595212979246
 23
11.10348696813173
 33
0
  0
LINE
  5
12C
100
AcDbEntity
  8
Dimensions
  6
ByBlock
 62
    0
100
AcDbLine
 10
-44.95
 20
8.5
 11
-56.84563672565719
 21
18.78017988637038
  0
MTEXT
  5
12D
100
AcDbEntity
  8
Dimensions
  6
CONTINUOUS
 62
    0
100
AcDbMText
 10
-50.0501316468071
 20
15.38567071515785
 30
0
 40
2.5
 41
9.722222222222221
 71
    5
 72
    1
  1
4-R1.0
  7
standard
210
0
220
0
230
1
 50
319.1665048855488
 73
    2
 44
1
  0
ENDBLK
  5
92
100
AcDbEntity
  8
0
100
AcDbBlockEnd
  0
BLOCK
  5
94
100
AcDbEntity
  8
0
100
AcDbBlockBegin
  2
*D26
 70
    1
 10
0
 20
0
  3
*D26
  1

  0
LINE
  5
12E
100
AcDbEntity
  8
Dimensions
  6
ByBlock
 62
    0
100
AcDbLine
 10
64
 20
6.75
 11
64
 21
-2.220446049250313e-16
  0
MTEXT
  5
12F
100
AcDbEntity
  8
Dimensions
  6
CONTINUOUS
 62
    0
100
AcDbMText
 10
62.125
 20
3.375
 30
0
 40
2.5
 41
5.833333333333643
 71
    5
 72
    1
  1
6.75
  7
standard
210
0
220
0
230
1
 50
90
 73
    2
 44
1
  0
SOLID
  5
130
100
AcDbEntity
  8
Dimensions
  6
ByBlock
 62
    0
100
AcDbTrace
 10
64
 20
6.75
 30
0
 11
64.41628465777283
 21
4.25
 31
0
 12
63.58371534222716
 22
4.25
 32
0
 13
63.58371534222716
 23
4.25
 33
0
  0
SOLID
  5
131
100
AcDbEntity
  8
Dimensions
  6
ByBlock
 62
    0
100
AcDbTrace
 10
64
 20
-2.220446049250313e-16
 30
0
 11
63.58371534222716
 21
2.5
 31
0
 12
64.41628465777283
 22
2.5
 32
0
 13
64.41628465777283
 23
2.5
 33
0
  0
LINE
  5
132
100
AcDbEntity
  8
Dimensions
  6
ByBlock
 62
    0
100
AcDbLine
 10
64.125
 20
6.75
 11
65.25
 21
6.75
  0
LINE
  5
133
100
AcDbEntity
  8
Dimensions
  6
ByBlock
 62
    0
100
AcDbLine
 10
64.125
 20
-2.220446049250313e-16
 11
65.25
 21
-2.220446049250313e-16
  0
ENDBLK
  5
95
100
AcDbEntity
  8
0
100
AcDbBlockEnd
  0
BLOCK
  5
97
100
AcDbEntity
  8
0
100
AcDbBlockBegin
  2
*D30
 70
    1
 10
0
 20
0
  3
*D30
  1

  0
LINE
  5
134
100
AcDbEntity
  8
Dimensions
  6
ByBlock
 62
    0
100
AcDbLine
 10
100
 20
39.00000000000001
 11
100
 21
0
  0
MTEXT
  5
135
100
AcDbEntity
  8
Dimensions
  6
CONTINUOUS
 62
    0
100
AcDbMText
 10
98.125
 20
19.5
 30
0
 40
2.5
 41
7.777777777777933
 71
    5
 72
    1
  1
39.00
  7
standard
210
0
220
0
230
1
 50
90
 73
    2
 44
1
  0
SOLID
  5
136
100
AcDbEntity
  8
Dimensions
  6
ByBlock
 62
    0
100
AcDbTrace
 10
100
 20
39.00000000000001
 30
0
 11
100.4162846577728
 21
36.50000000000001
 31
0
 12
99.58371534222717
 22
36.50000000000001
 32
0
 13
99.58371534222717
 23
36.50000000000001
 33
0
  0
SOLID
  5
137
100
AcDbEntity
  8
Dimensions
  6
ByBlock
 62
    0
100
AcDbTrace
 10
100
 20
0
 30
0
 11
99.58371534222717
 21
2.5
 31
0
 12
100.4162846577728
 22
2.5
 32
0
 13
100.4162846577728
 23
2.5
 33
0
  0
LINE
  5
138
100
AcDbEntity
  8
Dimensions
  6
ByBlock
 62
    0
100
AcDbLine
 10
67.425
 20
39
 11
101.25
 21
39.00000000000001
  0
LINE
  5
139
100
AcDbEntity
  8
Dimensions
  6
ByBlock
 62
    0
100
AcDbLine
 10
67.425
 20
0
 11
101.25
 21
0
  0
ENDBLK
  5
98
100
AcDbEntity
  8
0
100
AcDbBlockEnd
  0
BLOCK
  5
9A
100
AcDbEntity
  8
0
100
AcDbBlockBegin
  2
*D17
 70
    1
 10
0
 20
0
  3
*D17
  1

  0
LINE
  5
13A
100
AcDbEntity
  8
Dimensions
  6
ByBlock
 62
    0
100
AcDbLine
 10
0
 20
-30
 11
33.35
 21
-30
  0
MTEXT
  5
13B
100
AcDbEntity
  8
Dimensions
  6
CONTINUOUS
 62
    0
100
AcDbMText
 10
16.675
 20
-28.125
 30
0
 40
2.5
 41
7.777777777778397
 71
    5
 72
    1
  1
33.35
  7
standard
210
0
220
0
230
1
 50
0
 73
    2
 44
1
  0
SOLID
  5
13C
100
AcDbEntity
  8
Dimensions
  6
ByBlock
 62
    0
100
AcDbTrace
 10
0
 20
-30
 30
0
 11
2.5
 21
-29.58371534222716
 31
0
 12
2.5
 22
-30.41628465777284
 32
0
 13
2.5
 23
-30.41628465777284
 33
0
  0
SOLID
  5
13D
100
AcDbEntity
  8
Dimensions
  6
ByBlock
 62
    0
100
AcDbTrace
 10
33.35
 20
-30
 30
0
 11
30.85
 21
-30.41628465777284
 31
0
 12
30.85
 22
-29.58371534222716
 32
0
 13
30.85
 23
-29.58371534222716
 33
0
  0
LINE
  5
13E
100
AcDbEntity
  8
Dimensions
  6
ByBlock
 62
    0
100
AcDbLine
 10
-1.148068456708479e-16
 20
-0.625
 11
-2.296136913416957e-16
 21
-31.25
  0
LINE
  5
13F
100
AcDbEntity
  8
Dimensions
  6
ByBlock
 62
    0
100
AcDbLine
 10
33.35
 20
7.375
 11
33.35
 21
-31.25
  0
ENDBLK
  5
9B
100
AcDbEntity
  8
0
100
AcDbBlockEnd
  0
BLOCK
  5
9D
100
AcDbEntity
  8
0
100
AcDbBlockBegin
  2
*D18
 70
    1
 10
0
 20
0
  3
*D18
  1

  0
LINE
  5
140
100
AcDbEntity
  8
Dimensions
  6
ByBlock
 62
    0
100
AcDbLine
 10
33.35
 20
-20
 11
42.85
 21
-20
  0
MTEXT
  5
141
100
AcDbEntity
  8
Dimensions
  6
CONTINUOUS
 62
    0
100
AcDbMText
 10
38.1
 20
-18.125
 30
0
 40
2.5
 41
5.833333333333645
 71
    5
 72
    1
  1
9.50
  7
standard
210
0
220
0
230
1
 50
0
 73
    2
 44
1
  0
SOLID
  5
142
100
AcDbEntity
  8
Dimensions
  6
ByBlock
 62
    0
100
AcDbTrace
 10
33.35
 20
-20
 30
0
 11
35.85
 21
-19.58371534222716
 31
0
 12
35.85
 22
-20.41628465777284
 32
0
 13
35.85
 23
-20.41628465777284
 33
0
  0
SOLID
  5
143
100
AcDbEntity
  8
Dimensions
  6
ByBlock
 62
    0
100
AcDbTrace
 10
42.85
 20
-20
 30
0
 11
40.35
 21
-20.41628465777284
 31
0
 12
40.35
 22
-19.58371534222716
 32
0
 13
40.35
 23
-19.58371534222716
 33
0
  0
LINE
  5
144
100
AcDbEntity
  8
Dimensions
  6
ByBlock
 62
    0
100
AcDbLine
 10
33.35
 20
7.375
 11
33.35
 21
-21.25
  0
LINE
  5
145
100
AcDbEntity
  8
Dimensions
  6
ByBlock
 62
    0
100
AcDbLine
 10
42.85
 20
7.375
 11
42.85
 21
-21.25
  0
ENDBLK
  5
9E
100
AcDbEntity
  8
0
100
AcDbBlockEnd
  0
BLOCK
  5
A0
100
AcDbEntity
  8
0
100
AcDbBlockBegin
  2
*D1
 70
    1
 10
0
 20
0
  3
*D1
  1

  0
LINE
  5
146
100
AcDbEntity
  8
Dimensions
  6
ByBlock
 62
    0
100
AcDbLine
 10
8.881784197001252e-16
 20
-13
 11
-7.75
 21
-13
  0
MTEXT
  5
147
100
AcDbEntity
  8
Dimensions
  6
CONTINUOUS
 62
    0
100
AcDbMText
 10
-3.875
 20
-11.125
 30
0
 40
2.5
 41
5.833333333333488
 71
    5
 72
    1
  1
7.75
  7
standard
210
0
220
0
230
1
 50
0
 73
    2
 44
1
  0
SOLID
  5
148
100
AcDbEntity
  8
Dimensions
  6
ByBlock
 62
    0
100
AcDbTrace
 10
8.881784197001252e-16
 20
-13
 30
0
 11
-2.499999999999999
 21
-13.41628465777284
 31
0
 12
-2.499999999999999
 22
-12.58371534222716
 32
0
 13
-2.499999999999999
 23
-12.58371534222716
 33
0
  0
SOLID
  5
149
100
AcDbEntity
  8
Dimensions
  6
ByBlock
 62
    0
100
AcDbTrace
 10
-7.75
 20
-13
 30
0
 11
-5.25
 21
-12.58371534222716
 31
0
 12
-5.25
 22
-13.41628465777284
 32
0
 13
-5.25
 23
-13.41628465777284
 33
0
  0
LINE
  5
14A
100
AcDbEntity
  8
Dimensions
  6
ByBlock
 62
    0
100
AcDbLine
 10
-1.148068456708479e-16
 20
-0.625
 11
6.585647283584295e-16
 21
-14.25
  0
LINE
  5
14B
100
AcDbEntity
  8
Dimensions
  6
ByBlock
 62
    0
100
AcDbLine
 10
-7.75
 20
13.875
 11
-7.75
 21
-14.25
  0
ENDBLK
  5
A1
100
AcDbEntity
  8
0
100
AcDbBlockEnd
  0
BLOCK
  5
A3
100
AcDbEntity
  8
0
100
AcDbBlockBegin
  2
*D11
 70
    1
 10
0
 20
0
  3
*D11
  1

  0
LINE
  5
14C
100
AcDbEntity
  8
Dimensions
  6
ByBlock
 62
    0
100
AcDbLine
 10
0
 20
-30
 11
-63.5
 21
-30
  0
MTEXT
  5
14D
100
AcDbEntity
  8
Dimensions
  6
CONTINUOUS
 62
    0
100
AcDbMText
 10
-31.75
 20
-28.125
 30
0
 40
2.5
 41
7.777777777778243
 71
    5
 72
    1
  1
63.50
  7
standard
210
0
220
0
230
1
 50
0
 73
    2
 44
1
  0
SOLID
  5
14E
100
AcDbEntity
  8
Dimensions
  6
ByBlock
 62
    0
100
AcDbTrace
 10
0
 20
-30
 30
0
 11
-2.5
 21
-30.41628465777284
 31
0
 12
-2.5
 22
-29.58371534222716
 32
0
 13
-2.5
 23
-29.58371534222716
 33
0
  0
SOLID
  5
14F
100
AcDbEntity
  8
Dimensions
  6
ByBlock
 62
    0
100
AcDbTrace
 10
-63.5
 20
-30
 30
0
 11
-61
 21
-29.58371534222716
 31
0
 12
-61
 22
-30.41628465777284
 32
0
 13
-61
 23
-30.41628465777284
 33
0
  0
LINE
  5
150
100
AcDbEntity
  8
Dimensions
  6
ByBlock
 62
    0
100
AcDbLine
 10
-1.148068456708479e-16
 20
-0.625
 11
-2.296136913416957e-16
 21
-31.25
  0
LINE
  5
151
100
AcDbEntity
  8
Dimensions
  6
ByBlock
 62
    0
100
AcDbLine
 10
-63.5
 20
9.475
 11
-63.5
 21
-31.25
  0
ENDBLK
  5
A4
100
AcDbEntity
  8
0
100
AcDbBlockEnd
  0
BLOCK
  5
A6
100
AcDbEntity
  8
0
100
AcDbBlockBegin
  2
*D9
 70
    1
 10
0
 20
0
  3
*D9
  1

  0
LINE
  5
152
100
AcDbEntity
  8
Dimensions
  6
ByBlock
 62
    0
100
AcDbLine
 10
-25
 20
1.499999999999999
 11
-25
 21
14.5
  0
MTEXT
  5
153
100
AcDbEntity
  8
Dimensions
  6
CONTINUOUS
 62
    0
100
AcDbMText
 10
-26.875
 20
13.04166666666674
 30
0
 40
2.5
 41
5.833333333333488
 71
    5
 72
    1
  1
3.00
  7
standard
210
0
220
0
230
1
 50
90
 73
    2
 44
1
  0
SOLID
  5
154
100
AcDbEntity
  8
Dimensions
  6
ByBlock
 62
    0
100
AcDbTrace
 10
-25
 20
6.499999999999999
 30
0
 11
-24.58371534222716
 21
3.999999999999999
 31
0
 12
-25.41628465777284
 22
3.999999999999999
 32
0
 13
-25.41628465777284
 23
3.999999999999999
 33
0
  0
SOLID
  5
155
100
AcDbEntity
  8
Dimensions
  6
ByBlock
 62
    0
100
AcDbTrace
 10
-25
 20
9.5
 30
0
 11
-25.41628465777284
 21
12
 31
0
 12
-24.58371534222716
 22
12
 32
0
 13
-24.58371534222716
 23
12
 33
0
  0
LINE
  5
156
100
AcDbEntity
  8
Dimensions
  6
ByBlock
 62
    0
100
AcDbLine
 10
-30.625
 20
6.5
 11
-23.75
 21
6.499999999999999
  0
LINE
  5
157
100
AcDbEntity
  8
Dimensions
  6
ByBlock
 62
    0
100
AcDbLine
 10
-30.625
 20
9.5
 11
-23.75
 21
9.5
  0
ENDBLK
  5
A7
100
AcDbEntity
  8
0
100
AcDbBlockEnd
  0
BLOCK
  5
A9
100
AcDbEntity
  8
0
100
AcDbBlockBegin
  2
*D2
 70
    1
 10
0
 20
0
  3
*D2
  1

  0
LINE
  5
158
100
AcDbEntity
  8
Dimensions
  6
ByBlock
 62
    0
100
AcDbLine
 10
8.881784197001252e-16
 20
-13.25
 11
7.75
 21
-13.25
  0
MTEXT
  5
159
100
AcDbEntity
  8
Dimensions
  6
CONTINUOUS
 62
    0
100
AcDbMText
 10
3.875
 20
-11.375
 30
0
 40
2.5
 41
5.833333333333488
 71
    5
 72
    1
  1
7.75
  7
standard
210
0
220
0
230
1
 50
0
 73
    2
 44
1
  0
SOLID
  5
15A
100
AcDbEntity
  8
Dimensions
  6
ByBlock
 62
    0
100
AcDbTrace
 10
8.881784197001252e-16
 20
-13.25
 30
0
 11
2.500000000000001
 21
-12.83371534222716
 31
0
 12
2.500000000000001
 22
-13.66628465777284
 32
0
 13
2.500000000000001
 23
-13.66628465777284
 33
0
  0
SOLID
  5
15B
100
AcDbEntity
  8
Dimensions
  6
ByBlock
 62
    0
100
AcDbTrace
 10
7.75
 20
-13.25
 30
0
 11
5.25
 21
-13.66628465777284
 31
0
 12
5.25
 22
-12.83371534222716
 32
0
 13
5.25
 23
-12.83371534222716
 33
0
  0
LINE
  5
15C
100
AcDbEntity
  8
Dimensions
  6
ByBlock
 62
    0
100
AcDbLine
 10
-1.148068456708479e-16
 20
-0.625
 11
6.585647283584295e-16
 21
-14.5
  0
LINE
  5
15D
100
AcDbEntity
  8
Dimensions
  6
ByBlock
 62
    0
100
AcDbLine
 10
7.75
 20
13.875
 11
7.75
 21
-14.5
  0
ENDBLK
  5
AA
100
AcDbEntity
  8
0
100
AcDbBlockEnd
  0
BLOCK
  5
AC
100
AcDbEntity
  8
0
100
AcDbBlockBegin
  2
*D19
 70
    1
 10
0
 20
0
  3
*D19
  1

  0
LINE
  5
15E
100
AcDbEntity
  8
Dimensions
  6
ByBlock
 62
    0
100
AcDbLine
 10
39
 20
6.75
 11
39
 21
-2.582378755278113e-16
  0
MTEXT
  5
15F
100
AcDbEntity
  8
Dimensions
  6
CONTINUOUS
 62
    0
100
AcDbMText
 10
37.125
 20
3.375
 30
0
 40
2.5
 41
5.833333333333643
 71
    5
 72
    1
  1
6.75
  7
standard
210
0
220
0
230
1
 50
90
 73
    2
 44
1
  0
SOLID
  5
160
100
AcDbEntity
  8
Dimensions
  6
ByBlock
 62
    0
100
AcDbTrace
 10
39
 20
6.75
 30
0
 11
39.41628465777284
 21
4.25
 31
0
 12
38.58371534222716
 22
4.25
 32
0
 13
38.58371534222716
 23
4.25
 33
0
  0
SOLID
  5
161
100
AcDbEntity
  8
Dimensions
  6
ByBlock
 62
    0
100
AcDbTrace
 10
39
 20
-2.582378755278113e-16
 30
0
 11
38.58371534222716
 21
2.5
 31
0
 12
39.41628465777284
 22
2.5
 32
0
 13
39.41628465777284
 23
2.5
 33
0
  0
LINE
  5
162
100
AcDbEntity
  8
Dimensions
  6
ByBlock
 62
    0
100
AcDbLine
 10
38.725
 20
6.75
 11
40.25
 21
6.75
  0
LINE
  5
163
100
AcDbEntity
  8
Dimensions
  6
ByBlock
 62
    0
100
AcDbLine
 10
38.725
 20
-1.942890293094024e-16
 11
40.25
 21
-2.582378755278113e-16
  0
ENDBLK
  5
AD
100
AcDbEntity
  8
0
100
AcDbBlockEnd
  0
BLOCK
  5
AF
100
AcDbEntity
  8
0
100
AcDbBlockBegin
  2
*D6
 70
    1
 10
0
 20
0
  3
*D6
  1

  0
LINE
  5
164
100
AcDbEntity
  8
Dimensions
  6
ByBlock
 62
    0
100
AcDbLine
 10
3.552713678800501e-15
 20
-20
 11
-30.25
 21
-20
  0
MTEXT
  5
165
100
AcDbEntity
  8
Dimensions
  6
CONTINUOUS
 62
    0
100
AcDbMText
 10
-15.125
 20
-18.125
 30
0
 40
2.5
 41
7.777777777778088
 71
    5
 72
    1
  1
30.25
  7
standard
210
0
220
0
230
1
 50
0
 73
    2
 44
1
  0
SOLID
  5
166
100
AcDbEntity
  8
Dimensions
  6
ByBlock
 62
    0
100
AcDbTrace
 10
3.552713678800501e-15
 20
-20
 30
0
 11
-2.499999999999996
 21
-20.41628465777284
 31
0
 12
-2.499999999999996
 22
-19.58371534222716
 32
0
 13
-2.499999999999996
 23
-19.58371534222716
 33
0
  0
SOLID
  5
167
100
AcDbEntity
  8
Dimensions
  6
ByBlock
 62
    0
100
AcDbTrace
 10
-30.25
 20
-20
 30
0
 11
-27.75
 21
-19.58371534222716
 31
0
 12
-27.75
 22
-20.41628465777284
 32
0
 13
-27.75
 23
-20.41628465777284
 33
0
  0
LINE
  5
168
100
AcDbEntity
  8
Dimensions
  6
ByBlock
 62
    0
100
AcDbLine
 10
-1.148068456708479e-16
 20
-0.625
 11
3.323099987458805e-15
 21
-21.25
  0
LINE
  5
169
100
AcDbEntity
  8
Dimensions
  6
ByBlock
 62
    0
100
AcDbLine
 10
-30.25
 20
6.875
 11
-30.25
 21
-21.25
  0
ENDBLK
  5
B0
100
AcDbEntity
  8
0
100
AcDbBlockEnd
  0
BLOCK
  5
B2
100
AcDbEntity
  8
0
100
AcDbBlockBegin
  2
*D7
 70
    1
 10
0
 20
0
  3
*D7
  1

  0
LINE
  5
16A
100
AcDbEntity
  8
Dimensions
  6
ByBlock
 62
    0
100
AcDbLine
 10
-30.25
 20
-20.25
 11
-45.95
 21
-20.25
  0
MTEXT
  5
16B
100
AcDbEntity
  8
Dimensions
  6
CONTINUOUS
 62
    0
100
AcDbMText
 10
-38.1
 20
-18.375
 30
0
 40
2.5
 41
7.222222222222378
 71
    5
 72
    1
  1
15.70
  7
standard
210
0
220
0
230
1
 50
0
 73
    2
 44
1
  0
SOLID
  5
16C
100
AcDbEntity
  8
Dimensions
  6
ByBlock
 62
    0
100
AcDbTrace
 10
-30.25
 20
-20.25
 30
0
 11
-32.75
 21
-20.66628465777284
 31
0
 12
-32.75
 22
-19.83371534222716
 32
0
 13
-32.75
 23
-19.83371534222716
 33
0
  0
SOLID
  5
16D
100
AcDbEntity
  8
Dimensions
  6
ByBlock
 62
    0
100
AcDbTrace
 10
-45.95
 20
-20.25
 30
0
 11
-43.45
 21
-19.83371534222716
 31
0
 12
-43.45
 22
-20.66628465777284
 32
0
 13
-43.45
 23
-20.66628465777284
 33
0
  0
LINE
  5
16E
100
AcDbEntity
  8
Dimensions
  6
ByBlock
 62
    0
100
AcDbLine
 10
-30.25
 20
6.875
 11
-30.25
 21
-21.5
  0
LINE
  5
16F
100
AcDbEntity
  8
Dimensions
  6
ByBlock
 62
    0
100
AcDbLine
 10
-45.95
 20
6.875
 11
-45.95
 21
-21.5
  0
ENDBLK
  5
B3
100
AcDbEntity
  8
0
100
AcDbBlockEnd
  0
BLOCK
  5
B5
100
AcDbEntity
  8
0
100
AcDbBlockBegin
  2
*D13
 70
    1
 10
0
 20
0
  3
*D13
  1

  0
LINE
  5
170
100
AcDbEntity
  8
Dimensions
  6
ByBlock
 62
    0
100
AcDbLine
 10
-58.46821655555446
 20
15.99437489206478
 11
-68.53178344444555
 21
4.205625107935217
  0
MTEXT
  5
171
100
AcDbEntity
  8
Dimensions
  6
CONTINUOUS
 62
    0
100
AcDbMText
 10
-60.66076530682069
 20
16.31385320599795
 30
0
 40
2.5
 41
6.3888888888892
 71
    5
 72
    1
  1
%%C5.5
  7
standard
210
0
220
0
230
1
 50
49.51398845800126
 73
    2
 44
1
  0
SOLID
  5
172
100
AcDbEntity
  8
Dimensions
  6
ByBlock
 62
    0
100
AcDbTrace
 10
-61.71452845519674
 20
12.19155238105525
 30
0
 11
-60.40798383888889
 21
14.36324160419331
 31
0
 12
-59.77476117186231
 22
13.82268566892672
 32
0
 13
-59.77476117186231
 23
13.82268566892672
 33
0
  0
SOLID
  5
173
100
AcDbEntity
  8
Dimensions
  6
ByBlock
 62
    0
100
AcDbTrace
 10
-65.28547154480326
 20
8.008447618944754
 30
0
 11
-66.5920161611111
 21
5.836758395806688
 31
0
 12
-67.22523882813769
 22
6.377314331073283
 32
0
 13
-67.22523882813769
 23
6.377314331073283
 33
0
  0
ENDBLK
  5
B6
100
AcDbEntity
  8
0
100
AcDbBlockEnd
  0
BLOCK
  5
B8
100
AcDbEntity
  8
0
100
AcDbBlockBegin
  2
*D25
 70
    1
 10
0
 20
0
  3
*D25
  1

  0
LINE
  5
174
100
AcDbEntity
  8
Dimensions
  6
ByBlock
 62
    0
100
AcDbLine
 10
58.75
 20
-20
 11
68.25
 21
-20
  0
MTEXT
  5
175
100
AcDbEntity
  8
Dimensions
  6
CONTINUOUS
 62
    0
100
AcDbMText
 10
63.5
 20
-18.125
 30
0
 40
2.5
 41
5.833333333333645
 71
    5
 72
    1
  1
9.50
  7
standard
210
0
220
0
230
1
 50
0
 73
    2
 44
1
  0
SOLID
  5
176
100
AcDbEntity
  8
Dimensions
  6
ByBlock
 62
    0
100
AcDbTrace
 10
58.75
 20
-20
 30
0
 11
61.25
 21
-19.58371534222716
 31
0
 12
61.25
 22
-20.41628465777284
 32
0
 13
61.25
 23
-20.41628465777284
 33
0
  0
SOLID
  5
177
100
AcDbEntity
  8
Dimensions
  6
ByBlock
 62
    0
100
AcDbTrace
 10
68.25
 20
-20
 30
0
 11
65.75
 21
-20.41628465777284
 31
0
 12
65.75
 22
-19.58371534222716
 32
0
 13
65.75
 23
-19.58371534222716
 33
0
  0
LINE
  5
178
100
AcDbEntity
  8
Dimensions
  6
ByBlock
 62
    0
100
AcDbLine
 10
58.75
 20
7.375
 11
58.75
 21
-21.25
  0
LINE
  5
179
100
AcDbEntity
  8
Dimensions
  6
ByBlock
 62
    0
100
AcDbLine
 10
68.25
 20
7.375
 11
68.25
 21
-21.25
  0
ENDBLK
  5
B9
100
AcDbEntity
  8
0
100
AcDbBlockEnd
  0
ENDSEC
  0
SECTION
  2
ENTITIES
  0
LINE
  5
17A
100
AcDbEntity
  8
0
  6
ByLayer
 62
  256
100
AcDbLine
 10
-67.8
 20
0
 11
67.8
 21
0
  0
LINE
  5
17B
100
AcDbEntity
  8
0
  6
ByLayer
 62
  256
100
AcDbLine
 10
78.3
 20
28.5
 11
78.3
 21
10.5
  0
LINE
  5
17C
100
AcDbEntity
  8
0
  6
ByLayer
 62
  256
100
AcDbLine
 10
-78.3
 20
28.5
 11
-78.3
 21
10.5
  0
ARC
  5
17D
100
AcDbEntity
  8
0
  6
ByLayer
 62
  256
100
AcDbCircle
 10
-75.55
 20
28.5
 40
2.75
100
AcDbArc
 50
90
 51
180
  0
LINE
  5
17E
100
AcDbEntity
  8
0
  6
ByLayer
 62
  256
100
AcDbLine
 10
-67.8
 20
39
 11
67.8
 21
39
  0
ARC
  5
17F
100
AcDbEntity
  8
0
  6
ByLayer
 62
  256
100
AcDbCircle
 10
-67.8
 20
36.25
 40
2.75
100
AcDbArc
 50
90
 51
180
  0
ARC
  5
180
100
AcDbEntity
  8
0
  6
ByLayer
 62
  256
100
AcDbCircle
 10
-75.55
 20
36.25
 40
5
100
AcDbArc
 50
270
 51
0
  0
ARC
  5
181
100
AcDbEntity
  8
0
  6
ByLayer
 62
  256
100
AcDbCircle
 10
-75.55
 20
10.5
 40
2.75
100
AcDbArc
 50
180
 51
270
  0
ARC
  5
182
100
AcDbEntity
  8
0
  6
ByLayer
 62
  256
100
AcDbCircle
 10
-67.8
 20
2.75
 40
2.75
100
AcDbArc
 50
180
 51
270
  0
ARC
  5
183
100
AcDbEntity
  8
0
  6
ByLayer
 62
  256
100
AcDbCircle
 10
-75.55
 20
2.75
 40
5
100
AcDbArc
 50
0
 51
90
  0
ARC
  5
184
100
AcDbEntity
  8
0
  6
ByLayer
 62
  256
100
AcDbCircle
 10
67.8
 20
2.75
 40
2.75
100
AcDbArc
 50
270
 51
0
  0
ARC
  5
185
100
AcDbEntity
  8
0
  6
ByLayer
 62
  256
100
AcDbCircle
 10
75.55
 20
10.5
 40
2.75
100
AcDbArc
 50
270
 51
0
  0
ARC
  5
186
100
AcDbEntity
  8
0
  6
ByLayer
 62
  256
100
AcDbCircle
 10
75.55
 20
2.75
 40
5
100
AcDbArc
 50
90
 51
180
  0
ARC
  5
187
100
AcDbEntity
  8
0
  6
ByLayer
 62
  256
100
AcDbCircle
 10
67.8
 20
36.25
 40
2.75
100
AcDbArc
 50
0
 51
90
  0
ARC
  5
188
100
AcDbEntity
  8
0
  6
ByLayer
 62
  256
100
AcDbCircle
 10
75.55
 20
28.5
 40
2.75
100
AcDbArc
 50
0
 51
90
  0
ARC
  5
189
100
AcDbEntity
  8
0
  6
ByLayer
 62
  256
100
AcDbCircle
 10
75.55
 20
36.25
 40
5
100
AcDbArc
 50
180
 51
270
  0
LINE
  5
18A
100
AcDbEntity
  8
0
  6
ByLayer
 62
  256
100
AcDbLine
 10
-7.75
 20
24.5
 11
-7.75
 21
14.5
  0
LINE
  5
18B
100
AcDbEntity
  8
0
  6
ByLayer
 62
  256
100
AcDbLine
 10
-6.75
 20
25.5
 11
6.75
 21
25.5
  0
LINE
  5
18C
100
AcDbEntity
  8
0
  6
ByLayer
 62
  256
100
AcDbLine
 10
-6.75
 20
13.5
 11
6.75
 21
13.5
  0
LINE
  5
18D
100
AcDbEntity
  8
0
  6
ByLayer
 62
  256
100
AcDbLine
 10
7.75
 20
24.5
 11
7.75
 21
14.5
  0
ARC
  5
18E
100
AcDbEntity
  8
0
  6
ByLayer
 62
  256
100
AcDbCircle
 10
-6.75
 20
24.5
 40
1
100
AcDbArc
 50
90
 51
180
  0
ARC
  5
18F
100
AcDbEntity
  8
0
  6
ByLayer
 62
  256
100
AcDbCircle
 10
6.75
 20
24.5
 40
1
100
AcDbArc
 50
0
 51
90
  0
ARC
  5
190
100
AcDbEntity
  8
0
  6
ByLayer
 62
  256
100
AcDbCircle
 10
6.75
 20
14.5
 40
1
100
AcDbArc
 50
270
 51
0
  0
ARC
  5
191
100
AcDbEntity
  8
0
  6
ByLayer
 62
  256
100
AcDbCircle
 10
-6.75
 20
14.5
 40
1
100
AcDbArc
 50
180
 51
270
  0
CIRCLE
  5
192
100
AcDbEntity
  8
0
  6
ByLayer
 62
  256
100
AcDbCircle
 10
-63.5
 20
10.1
 40
2.75
  0
CIRCLE
  5
193
100
AcDbEntity
  8
0
  6
ByLayer
 62
  256
100
AcDbCircle
 10
25.4
 20
11.05
 40
1.875
  0
CIRCLE
  5
194
100
AcDbEntity
  8
0
  6
ByLayer
 62
  256
100
AcDbCircle
 10
50.8
 20
11.05
 40
1.875
  0
LINE
  5
195
100
AcDbEntity
  8
0
  6
ByLayer
 62
  256
100
AcDbLine
 10
-45.95
 20
8.5
 11
-45.95
 21
7.5
  0
LINE
  5
196
100
AcDbEntity
  8
0
  6
ByLayer
 62
  256
100
AcDbLine
 10
-30.25
 20
8.5
 11
-30.25
 21
7.5
  0
LINE
  5
197
100
AcDbEntity
  8
0
  6
ByLayer
 62
  256
100
AcDbLine
 10
-44.95
 20
9.5
 11
-31.25
 21
9.5
  0
LINE
  5
198
100
AcDbEntity
  8
0
  6
ByLayer
 62
  256
100
AcDbLine
 10
-44.95
 20
6.5
 11
-31.25
 21
6.5
  0
ARC
  5
199
100
AcDbEntity
  8
0
  6
ByLayer
 62
  256
100
AcDbCircle
 10
-44.95
 20
8.5
 40
1
100
AcDbArc
 50
90
 51
180
  0
ARC
  5
19A
100
AcDbEntity
  8
0
  6
ByLayer
 62
  256
100
AcDbCircle
 10
-44.95
 20
7.5
 40
1
100
AcDbArc
 50
180
 51
270
  0
ARC
  5
19B
100
AcDbEntity
  8
0
  6
ByLayer
 62
  256
100
AcDbCircle
 10
-31.25
 20
7.5
 40
1
100
AcDbArc
 50
270
 51
0
  0
ARC
  5
19C
100
AcDbEntity
  8
0
  6
ByLayer
 62
  256
100
AcDbCircle
 10
-31.25
 20
8.5
 40
1
100
AcDbArc
 50
0
 51
90
  0
LINE
  5
19D
100
AcDbEntity
  8
0
  6
ByLayer
 62
  256
100
AcDbLine
 10
34.6
 20
10.45
 11
41.6
 21
10.45
  0
LINE
  5
19E
100
AcDbEntity
  8
0
  6
ByLayer
 62
  256
100
AcDbLine
 10
34.6
 20
6.75
 11
41.6
 21
6.75
  0
LINE
  5
19F
100
AcDbEntity
  8
0
  6
ByLayer
 62
  256
100
AcDbLine
 10
33.35
 20
9.199999999999999
 11
33.35
 21
8
  0
LINE
  5
1A0
100
AcDbEntity
  8
0
  6
ByLayer
 62
  256
100
AcDbLine
 10
42.85
 20
9.199999999999999
 11
42.85
 21
8
  0
ARC
  5
1A1
100
AcDbEntity
  8
0
  6
ByLayer
 62
  256
100
AcDbCircle
 10
34.6
 20
9.199999999999999
 40
1.25
100
AcDbArc
 50
90
 51
180
  0
ARC
  5
1A2
100
AcDbEntity
  8
0
  6
ByLayer
 62
  256
100
AcDbCircle
 10
41.6
 20
9.199999999999999
 40
1.25
100
AcDbArc
 50
0
 51
90
  0
ARC
  5
1A3
100
AcDbEntity
  8
0
  6
ByLayer
 62
  256
100
AcDbCircle
 10
34.6
 20
8
 40
1.25
100
AcDbArc
 50
180
 51
270
  0
ARC
  5
1A4
100
AcDbEntity
  8
0
  6
ByLayer
 62
  256
100
AcDbCircle
 10
41.6
 20
8
 40
1.25
100
AcDbArc
 50
270
 51
0
  0
LINE
  5
1A5
100
AcDbEntity
  8
0
  6
ByLayer
 62
  256
100
AcDbLine
 10
60
 20
10.45
 11
67
 21
10.45
  0
LINE
  5
1A6
100
AcDbEntity
  8
0
  6
ByLayer
 62
  256
100
AcDbLine
 10
60
 20
6.75
 11
67
 21
6.75
  0
LINE
  5
1A7
100
AcDbEntity
  8
0
  6
ByLayer
 62
  256
100
AcDbLine
 10
58.75
 20
9.199999999999999
 11
58.75
 21
8
  0
LINE
  5
1A8
100
AcDbEntity
  8
0
  6
ByLayer
 62
  256
100
AcDbLine
 10
68.25
 20
9.199999999999999
 11
68.25
 21
8
  0
ARC
  5
1A9
100
AcDbEntity
  8
0
  6
ByLayer
 62
  256
100
AcDbCircle
 10
60
 20
9.200000000000001
 40
1.249999999999998
100
AcDbArc
 50
90
 51
180
  0
ARC
  5
1AA
100
AcDbEntity
  8
0
  6
ByLayer
 62
  256
100
AcDbCircle
 10
60
 20
8
 40
1.25
100
AcDbArc
 50
180
 51
270
  0
ARC
  5
1AB
100
AcDbEntity
  8
0
  6
ByLayer
 62
  256
100
AcDbCircle
 10
67
 20
8
 40
1.25
100
AcDbArc
 50
270
 51
0
  0
ARC
  5
1AC
100
AcDbEntity
  8
0
  6
ByLayer
 62
  256
100
AcDbCircle
 10
67
 20
9.200000000000001
 40
1.249999999999998
100
AcDbArc
 50
0
 51
90
  0
DIMENSION
  5
1AD
100
AcDbEntity
  8
Dimensions
  6
ByLayer
 62
  256
100
AcDbDimension
  2
*D1
 10
-7.750000000000002
 20
-13
 30
0
 11
-3.875
 21
-11.125
 31
0
 70
   32
 71
    5
  3
Standard
 53
0
210
0
220
0
230
1
100
AcDbAlignedDimension
 13
0
 23
0
 33
0
 14
-7.75
 24
14.5
 34
0
100
AcDbRotatedDimension
  0
DIMENSION
  5
1AE
100
AcDbEntity
  8
Dimensions
  6
ByLayer
 62
  256
100
AcDbDimension
  2
*D2
 10
7.749999999999998
 20
-13.25
 30
0
 11
3.875
 21
-11.375
 31
0
 70
   32
 71
    5
  3
Standard
 53
0
210
0
220
0
230
1
100
AcDbAlignedDimension
 13
0
 23
0
 33
0
 14
7.75
 24
14.5
 34
0
100
AcDbRotatedDimension
  0
DIMENSION
  5
1AF
100
AcDbEntity
  8
Dimensions
  6
ByLayer
 62
  256
100
AcDbDimension
  2
*D3
 10
0
 20
13.5
 30
0
 11
-1.875
 21
6.75
 31
0
 70
   32
 71
    5
  3
Standard
 53
0
210
0
220
0
230
1
100
AcDbAlignedDimension
 13
0
 23
0
 33
0
 14
0
 24
13.5
 34
0
 50
90
100
AcDbRotatedDimension
  0
DIMENSION
  5
1B0
100
AcDbEntity
  8
Dimensions
  6
ByLayer
 62
  256
100
AcDbDimension
  2
*D4
 10
-9.999999999999998
 20
25.5
 30
0
 11
-11.875
 21
19.5
 31
0
 70
   32
 71
    5
  3
Standard
 53
0
210
0
220
0
230
1
100
AcDbAlignedDimension
 13
-5.75
 23
13.5
 33
0
 14
-5.75
 24
25.5
 34
0
 50
90
100
AcDbRotatedDimension
  0
DIMENSION
  5
1B1
100
AcDbEntity
  8
Dimensions
  6
ByLayer
 62
  256
100
AcDbDimension
  2
*D5
 10
6.75
 20
24.5
 30
0
 11
11.87799498899101
 21
31.3649451130529
 31
0
 70
   36
  1
4-R1.0
 71
    5
  3
Standard
 53
0
210
0
220
0
230
1
100
AcDbRadialDimension
 15
7.509256602365297
 25
25.15079137345597
 35
0
 40
0
  0
DIMENSION
  5
1B2
100
AcDbEntity
  8
Dimensions
  6
ByLayer
 62
  256
100
AcDbDimension
  2
*D6
 10
-30.25
 20
-20
 30
0
 11
-15.125
 21
-18.125
 31
0
 70
   32
 71
    5
  3
Standard
 53
0
210
0
220
0
230
1
100
AcDbAlignedDimension
 13
0
 23
0
 33
0
 14
-30.25
 24
7.5
 34
0
100
AcDbRotatedDimension
  0
DIMENSION
  5
1B3
100
AcDbEntity
  8
Dimensions
  6
ByLayer
 62
  256
100
AcDbDimension
  2
*D7
 10
-45.95
 20
-20.25
 30
0
 11
-38.1
 21
-18.375
 31
0
 70
   32
 71
    5
  3
Standard
 53
0
210
0
220
0
230
1
100
AcDbAlignedDimension
 13
-30.25
 23
7.5
 33
0
 14
-45.95
 24
7.5
 34
0
100
AcDbRotatedDimension
  0
DIMENSION
  5
1B4
100
AcDbEntity
  8
Dimensions
  6
ByLayer
 62
  256
100
AcDbDimension
  2
*D8
 10
-39
 20
1.224606353822377e-16
 30
0
 11
-40.875
 21
3.25
 31
0
 70
   32
 71
    5
  3
Standard
 53
0
210
0
220
0
230
1
100
AcDbAlignedDimension
 13
-38.1
 23
6.5
 33
0
 14
-38
 24
0
 34
0
 50
90
100
AcDbRotatedDimension
  0
DIMENSION
  5
1B5
100
AcDbEntity
  8
Dimensions
  6
ByLayer
 62
  256
100
AcDbDimension
  2
*D9
 10
-25
 20
9.5
 30
0
 11
-26.875
 21
8
 31
0
 70
   32
 71
    5
  3
Standard
 53
0
210
0
220
0
230
1
100
AcDbAlignedDimension
 13
-31.25
 23
6.5
 33
0
 14
-31.25
 24
9.5
 34
0
 50
90
100
AcDbRotatedDimension
  0
DIMENSION
  5
1B6
100
AcDbEntity
  8
Dimensions
  6
ByLayer
 62
  256
100
AcDbDimension
  2
*D10
 10
-44.95
 20
8.5
 30
0
 11
-50.0501316468071
 21
15.38567071515785
 31
0
 70
   36
  1
4-R1.0
 71
    5
  3
Standard
 53
0
210
0
220
0
230
1
100
AcDbRadialDimension
 15
-45.70661293661424
 25
9.153863031641933
 35
0
 40
0
  0
DIMENSION
  5
1B7
100
AcDbEntity
  8
Dimensions
  6
ByLayer
 62
  256
100
AcDbDimension
  2
*D11
 10
-63.5
 20
-30
 30
0
 11
-31.75
 21
-28.125
 31
0
 70
   32
 71
    5
  3
Standard
 53
0
210
0
220
0
230
1
100
AcDbAlignedDimension
 13
0
 23
0
 33
0
 14
-63.5
 24
10.1
 34
0
100
AcDbRotatedDimension
  0
DIMENSION
  5
1B8
100
AcDbEntity
  8
Dimensions
  6
ByLayer
 62
  256
100
AcDbDimension
  2
*D12
 10
-55
 20
-1.235204430058423e-15
 30
0
 11
-56.875
 21
5.05
 31
0
 70
   32
 71
    5
  3
Standard
 53
0
210
0
220
0
230
1
100
AcDbAlignedDimension
 13
-63.5
 23
10.1
 33
0
 14
-63.5
 24
-1.942890293094024e-16
 34
0
 50
90
100
AcDbRotatedDimension
  0
DIMENSION
  5
1B9
100
AcDbEntity
  8
Dimensions
  6
ByLayer
 62
  256
100
AcDbDimension
  2
*D13
 10
-61.71452845519674
 20
12.19155238105525
 30
0
 11
-64.92605844162857
 21
11.31736696236586
 31
0
 70
   35
  1
%%C5.5
 71
    5
  3
Standard
 53
0
210
0
220
0
230
1
100
AcDbDiametricDimension
 15
-65.28547154480326
 25
8.008447618944754
 35
0
 40
0
  0
DIMENSION
  5
1BA
100
AcDbEntity
  8
Dimensions
  6
ByLayer
 62
  256
100
AcDbDimension
  2
*D14
 10
25.4
 20
-20
 30
0
 11
12.7
 21
-18.125
 31
0
 70
   32
 71
    5
  3
Standard
 53
0
210
0
220
0
230
1
100
AcDbAlignedDimension
 13
0
 23
0
 33
0
 14
25.4
 24
11.05
 34
0
100
AcDbRotatedDimension
  0
DIMENSION
  5
1BB
100
AcDbEntity
  8
Dimensions
  6
ByLayer
 62
  256
100
AcDbDimension
  2
*D15
 10
20
 20
6.612874310640835e-16
 30
0
 11
18.125
 21
5.525
 31
0
 70
   32
 71
    5
  3
Standard
 53
0
210
0
220
0
230
1
100
AcDbAlignedDimension
 13
25.4
 23
11.05
 33
0
 14
25.4
 24
0
 34
0
 50
90
100
AcDbRotatedDimension
  0
DIMENSION
  5
1BC
100
AcDbEntity
  8
Dimensions
  6
ByLayer
 62
  256
100
AcDbDimension
  2
*D16
 10
26.79571586224583
 20
12.30203922936759
 30
0
 11
24.14796077063242
 21
12.44571586224583
 31
0
 70
   35
  1
%%C3.75
 71
    5
  3
Standard
 53
0
210
0
220
0
230
1
100
AcDbDiametricDimension
 15
24.00428413775417
 25
9.797960770632416
 35
0
 40
0
  0
DIMENSION
  5
1BD
100
AcDbEntity
  8
Dimensions
  6
ByLayer
 62
  256
100
AcDbDimension
  2
*D17
 10
33.35
 20
-30
 30
0
 11
16.675
 21
-28.125
 31
0
 70
   32
 71
    5
  3
Standard
 53
0
210
0
220
0
230
1
100
AcDbAlignedDimension
 13
0
 23
0
 33
0
 14
33.35
 24
8
 34
0
100
AcDbRotatedDimension
  0
DIMENSION
  5
1BE
100
AcDbEntity
  8
Dimensions
  6
ByLayer
 62
  256
100
AcDbDimension
  2
*D18
 10
42.85
 20
-20
 30
0
 11
38.1
 21
-18.125
 31
0
 70
   32
 71
    5
  3
Standard
 53
0
210
0
220
0
230
1
100
AcDbAlignedDimension
 13
33.35
 23
8
 33
0
 14
42.85
 24
8
 34
0
100
AcDbRotatedDimension
  0
DIMENSION
  5
1BF
100
AcDbEntity
  8
Dimensions
  6
ByLayer
 62
  256
100
AcDbDimension
  2
*D19
 10
39
 20
-3.045036011534162e-16
 30
0
 11
37.125
 21
3.375
 31
0
 70
   32
 71
    5
  3
Standard
 53
0
210
0
220
0
230
1
100
AcDbAlignedDimension
 13
38.1
 23
6.75
 33
0
 14
38.1
 24
-1.942890293094024e-16
 34
0
 50
90
100
AcDbRotatedDimension
  0
DIMENSION
  5
1C0
100
AcDbEntity
  8
Dimensions
  6
ByLayer
 62
  256
100
AcDbDimension
  2
*D20
 10
45
 20
10.45
 30
0
 11
43.125
 21
8.6
 31
0
 70
   32
 71
    5
  3
Standard
 53
0
210
0
220
0
230
1
100
AcDbAlignedDimension
 13
41.6
 23
6.75
 33
0
 14
41.6
 24
10.45
 34
0
 50
90
100
AcDbRotatedDimension
  0
DIMENSION
  5
1C1
100
AcDbEntity
  8
Dimensions
  6
ByLayer
 62
  256
100
AcDbDimension
  2
*D21
 10
50.79999999999999
 20
-40
 30
0
 11
25.4
 21
-38.125
 31
0
 70
   32
 71
    5
  3
Standard
 53
0
210
0
220
0
230
1
100
AcDbAlignedDimension
 13
0
 23
0
 33
0
 14
50.8
 24
11.05
 34
0
100
AcDbRotatedDimension
  0
DIMENSION
  5
1C2
100
AcDbEntity
  8
Dimensions
  6
ByLayer
 62
  256
100
AcDbDimension
  2
*D22
 10
55
 20
-4.58823517374141e-16
 30
0
 11
53.125
 21
5.525
 31
0
 70
   32
 71
    5
  3
Standard
 53
0
210
0
220
0
230
1
100
AcDbAlignedDimension
 13
50.8
 23
11.05
 33
0
 14
50.8
 24
5.551115123125783e-17
 34
0
 50
90
100
AcDbRotatedDimension
  0
DIMENSION
  5
1C3
100
AcDbEntity
  8
Dimensions
  6
ByLayer
 62
  256
100
AcDbDimension
  2
*D23
 10
49.39684948894723
 20
9.80629841065778
 30
0
 11
49.55629841065777
 21
12.45315051105277
 31
0
 70
   35
  1
%%C3.75
 71
    5
  3
Standard
 53
0
210
0
220
0
230
1
100
AcDbDiametricDimension
 15
52.20315051105276
 25
12.29370158934222
 35
0
 40
0
  0
DIMENSION
  5
1C4
100
AcDbEntity
  8
Dimensions
  6
ByLayer
 62
  256
100
AcDbDimension
  2
*D24
 10
58.74999999999999
 20
-50
 30
0
 11
29.375
 21
-48.125
 31
0
 70
   32
 71
    5
  3
Standard
 53
0
210
0
220
0
230
1
100
AcDbAlignedDimension
 13
0
 23
0
 33
0
 14
58.75
 24
8
 34
0
100
AcDbRotatedDimension
  0
DIMENSION
  5
1C5
100
AcDbEntity
  8
Dimensions
  6
ByLayer
 62
  256
100
AcDbDimension
  2
*D25
 10
68.25
 20
-20
 30
0
 11
63.5
 21
-18.125
 31
0
 70
   32
 71
    5
  3
Standard
 53
0
210
0
220
0
230
1
100
AcDbAlignedDimension
 13
58.75
 23
8
 33
0
 14
68.25
 24
8
 34
0
100
AcDbRotatedDimension
  0
DIMENSION
  5
1C6
100
AcDbEntity
  8
Dimensions
  6
ByLayer
 62
  256
100
AcDbDimension
  2
*D26
 10
64
 20
-2.832749226161502e-16
 30
0
 11
62.125
 21
3.375
 31
0
 70
   32
 71
    5
  3
Standard
 53
0
210
0
220
0
230
1
100
AcDbAlignedDimension
 13
63.5
 23
6.75
 33
0
 14
63.5
 24
-2.220446049250313e-16
 34
0
 50
90
100
AcDbRotatedDimension
  0
DIMENSION
  5
1C7
100
AcDbEntity
  8
Dimensions
  6
ByLayer
 62
  256
100
AcDbDimension
  2
*D27
 10
70
 20
10.45
 30
0
 11
68.125
 21
8.6
 31
0
 70
   32
 71
    5
  3
Standard
 53
0
210
0
220
0
230
1
100
AcDbAlignedDimension
 13
67
 23
6.75
 33
0
 14
67
 24
10.45
 34
0
 50
90
100
AcDbRotatedDimension
  0
DIMENSION
  5
1C8
100
AcDbEntity
  8
Dimensions
  6
ByLayer
 62
  256
100
AcDbDimension
  2
*D28
 10
-78.3
 20
-50.25
 30
0
 11
-39.15
 21
-48.375
 31
0
 70
   32
 71
    5
  3
Standard
 53
0
210
0
220
0
230
1
100
AcDbAlignedDimension
 13
0
 23
0
 33
0
 14
-78.3
 24
10.5
 34
0
100
AcDbRotatedDimension
  0
DIMENSION
  5
1C9
100
AcDbEntity
  8
Dimensions
  6
ByLayer
 62
  256
100
AcDbDimension
  2
*D29
 10
78.3
 20
60
 30
0
 11
1.148068456708479e-16
 21
61.875
 31
0
 70
   32
 71
    5
  3
Standard
 53
0
210
0
220
0
230
1
100
AcDbAlignedDimension
 13
-78.3
 23
28.5
 33
0
 14
78.3
 24
28.5
 34
0
100
AcDbRotatedDimension
  0
DIMENSION
  5
1CA
100
AcDbEntity
  8
Dimensions
  6
ByLayer
 62
  256
100
AcDbDimension
  2
*D30
 10
100
 20
-4.065693094690293e-15
 30
0
 11
98.125
 21
19.5
 31
0
 70
   32
 71
    5
  3
Standard
 53
0
210
0
220
0
230
1
100
AcDbAlignedDimension
 13
66.8
 23
39
 33
0
 14
66.8
 24
0
 34
0
 50
90
100
AcDbRotatedDimension
  0
DIMENSION
  5
1CB
100
AcDbEntity
  8
Dimensions
  6
ByLayer
 62
  256
100
AcDbDimension
  2
*D31
 10
-67.8
 20
36.25
 30
0
 11
-70.31521846131501
 21
44.24273079343385
 31
0
 70
   36
 71
    5
  3
Standard
 53
0
210
0
220
0
230
1
100
AcDbRadialDimension
 15
-69.19154018130286
 25
38.62194349085715
 35
0
 40
0
  0
DIMENSION
  5
1CC
100
AcDbEntity
  8
Dimensions
  6
ByLayer
 62
  256
100
AcDbDimension
  2
*D32
 10
-75.55
 20
28.5
 30
0
 11
-81.87690612775239
 21
33.99366255744336
 31
0
 70
   36
 71
    5
  3
Standard
 53
0
210
0
220
0
230
1
100
AcDbRadialDimension
 15
-77.9772652868181
 25
29.79262648410431
 35
0
 40
0
  0
DIMENSION
  5
1CD
100
AcDbEntity
  8
Dimensions
  6
ByLayer
 62
  256
100
AcDbDimension
  2
*D33
 10
-75.55
 20
36.25
 30
0
 11
-66.75202694518292
 21
30.36627332627027
 31
0
 70
   36
 71
    5
  3
Standard
 53
0
210
0
220
0
230
1
100
AcDbRadialDimension
 15
-71.95190519013761
 25
32.77815413083453
 35
0
 40
0
  0
DIMENSION
  5
1CE
100
AcDbEntity
  8
Dimensions
  6
ByLayer
 62
  256
100
AcDbDimension
  2
*D34
 10
67.8
 20
50
 30
0
 11
1.148068456708479e-16
 21
51.875
 31
0
 70
   32
 71
    5
  3
Standard
 53
0
210
0
220
0
230
1
100
AcDbAlignedDimension
 13
-67.8
 23
39
 33
0
 14
67.8
 24
39
 34
0
100
AcDbRotatedDimension
  0
DIMENSION
  5
1CF
100
AcDbEntity
  8
Dimensions
  6
ByLayer
 62
  256
100
AcDbDimension
  2
*D35
 10
90
 20
28.5
 30
0
 11
88.125
 21
19.5
 31
0
 70
   32
 71
    5
  3
Standard
 53
0
210
0
220
0
230
1
100
AcDbAlignedDimension
 13
78.3
 23
10.5
 33
0
 14
78.3
 24
28.5
 34
0
 50
90
100
AcDbRotatedDimension
  0
DIMENSION
  5
1D0
100
AcDbEntity
  8
Dimensions
  6
ByLayer
 62
  256
100
AcDbDimension
  2
*D36
 10
34.6
 20
8
 30
0
 11
26.13802865544903
 21
3.126506002693998
 31
0
 70
   36
  1
4-R1.25
 71
    5
  3
Standard
 53
0
210
0
220
0
230
1
100
AcDbRadialDimension
 15
33.65674309729562
 25
7.179776606344017
 35
0
 40
0
  0
ENDSEC
  0
SECTION
  2
OBJECTS
  0
DICTIONARY
  5
C
100
AcDbDictionary
281
    1
  3
ACAD_GROUP
350
D
  0
DICTIONARY
  5
D
330
C
100
AcDbDictionary
281
    1
  0
PLOTSETTINGS
  5
1D1
100
AcDbPlotSettings
  6
1x1
 40
0
 41
0
 42
0
 43
0
  0
ENDSEC
  0
EOF
