G04 EAGLE Gerber RS-274X export*
G75*
%MOMM*%
%FSLAX34Y34*%
%LPD*%
%INSilkscreen Top*%
%IPPOS*%
%AMOC8*
5,1,8,0,0,1.08239X$1,22.5*%
G01*

G36*
X-548675Y-344760D02*
X-548675Y-344760D01*
X-548613Y-344758D01*
X-548591Y-344745D01*
X-548565Y-344741D01*
X-548494Y-344693D01*
X-548461Y-344675D01*
X-548455Y-344667D01*
X-548445Y-344660D01*
X-548245Y-344460D01*
X-548231Y-344437D01*
X-548205Y-344412D01*
X-547710Y-343720D01*
X-546925Y-342739D01*
X-545735Y-341449D01*
X-545729Y-341439D01*
X-545719Y-341431D01*
X-544424Y-339837D01*
X-542931Y-338145D01*
X-541234Y-336248D01*
X-539438Y-334353D01*
X-539436Y-334349D01*
X-539432Y-334346D01*
X-537532Y-332246D01*
X-537532Y-332245D01*
X-537531Y-332245D01*
X-535834Y-330348D01*
X-534245Y-328660D01*
X-532771Y-327284D01*
X-531323Y-326223D01*
X-529795Y-325554D01*
X-528062Y-325169D01*
X-526204Y-325071D01*
X-522314Y-325071D01*
X-522295Y-325067D01*
X-522271Y-325069D01*
X-518771Y-324669D01*
X-518747Y-324660D01*
X-518714Y-324658D01*
X-515414Y-323758D01*
X-515391Y-323746D01*
X-515358Y-323738D01*
X-512258Y-322338D01*
X-512241Y-322325D01*
X-512217Y-322316D01*
X-509417Y-320616D01*
X-509399Y-320598D01*
X-509369Y-320582D01*
X-506869Y-318482D01*
X-506859Y-318468D01*
X-506839Y-318454D01*
X-504539Y-316054D01*
X-504532Y-316042D01*
X-504518Y-316030D01*
X-502418Y-313430D01*
X-502405Y-313402D01*
X-502378Y-313368D01*
X-499478Y-307868D01*
X-499469Y-307836D01*
X-499447Y-307791D01*
X-497947Y-302291D01*
X-497946Y-302269D01*
X-497940Y-302256D01*
X-497941Y-302239D01*
X-497934Y-302213D01*
X-497634Y-296913D01*
X-497640Y-296881D01*
X-497638Y-296836D01*
X-498338Y-292036D01*
X-498350Y-292005D01*
X-498358Y-291958D01*
X-499958Y-287658D01*
X-499972Y-287636D01*
X-499984Y-287602D01*
X-501984Y-284102D01*
X-502008Y-284077D01*
X-502015Y-284065D01*
X-502018Y-284059D01*
X-502019Y-284058D01*
X-502035Y-284033D01*
X-504435Y-281433D01*
X-504467Y-281411D01*
X-504524Y-281362D01*
X-507124Y-279862D01*
X-507184Y-279843D01*
X-507242Y-279818D01*
X-507266Y-279819D01*
X-507290Y-279812D01*
X-507352Y-279822D01*
X-507415Y-279824D01*
X-507436Y-279836D01*
X-507461Y-279840D01*
X-507512Y-279877D01*
X-507567Y-279907D01*
X-507581Y-279927D01*
X-507601Y-279942D01*
X-507631Y-279997D01*
X-507667Y-280049D01*
X-507672Y-280076D01*
X-507682Y-280095D01*
X-507683Y-280133D01*
X-507694Y-280191D01*
X-507694Y-280291D01*
X-507691Y-280306D01*
X-507693Y-280321D01*
X-507656Y-280453D01*
X-507655Y-280460D01*
X-507654Y-280460D01*
X-507654Y-280461D01*
X-507577Y-280615D01*
X-507494Y-281029D01*
X-507494Y-281770D01*
X-507590Y-282629D01*
X-507775Y-283463D01*
X-508121Y-284154D01*
X-508811Y-284758D01*
X-509781Y-285111D01*
X-510580Y-285111D01*
X-511614Y-284923D01*
X-512670Y-284539D01*
X-513739Y-284053D01*
X-514898Y-283377D01*
X-515868Y-282601D01*
X-516844Y-281723D01*
X-517133Y-281397D01*
X-517471Y-281017D01*
X-517623Y-280846D01*
X-518392Y-279885D01*
X-518859Y-278950D01*
X-519140Y-278015D01*
X-519231Y-277191D01*
X-519141Y-276373D01*
X-518862Y-275537D01*
X-518502Y-274816D01*
X-517852Y-274166D01*
X-516788Y-273199D01*
X-515672Y-272549D01*
X-514440Y-272264D01*
X-513283Y-272071D01*
X-512235Y-272071D01*
X-511366Y-272168D01*
X-510777Y-272266D01*
X-510750Y-272264D01*
X-510714Y-272271D01*
X-510514Y-272271D01*
X-510463Y-272259D01*
X-510410Y-272257D01*
X-510380Y-272240D01*
X-510345Y-272232D01*
X-510305Y-272198D01*
X-510259Y-272173D01*
X-510239Y-272144D01*
X-510212Y-272122D01*
X-510190Y-272074D01*
X-510160Y-272030D01*
X-510155Y-271996D01*
X-510141Y-271963D01*
X-510143Y-271911D01*
X-510135Y-271859D01*
X-510146Y-271826D01*
X-510147Y-271790D01*
X-510172Y-271744D01*
X-510189Y-271694D01*
X-510216Y-271664D01*
X-510230Y-271638D01*
X-510256Y-271620D01*
X-510286Y-271587D01*
X-510686Y-271287D01*
X-510688Y-271286D01*
X-510690Y-271283D01*
X-511790Y-270483D01*
X-511809Y-270476D01*
X-511829Y-270459D01*
X-513629Y-269459D01*
X-513651Y-269452D01*
X-513675Y-269437D01*
X-515975Y-268537D01*
X-515995Y-268534D01*
X-516019Y-268523D01*
X-518719Y-267823D01*
X-518753Y-267822D01*
X-518801Y-267811D01*
X-521801Y-267711D01*
X-521837Y-267718D01*
X-521893Y-267719D01*
X-525193Y-268419D01*
X-525227Y-268435D01*
X-525284Y-268451D01*
X-525904Y-268761D01*
X-526664Y-269141D01*
X-527425Y-269521D01*
X-528185Y-269901D01*
X-528185Y-269902D01*
X-528684Y-270151D01*
X-528712Y-270174D01*
X-528760Y-270201D01*
X-531360Y-272401D01*
X-531382Y-272431D01*
X-531424Y-272471D01*
X-533124Y-274871D01*
X-533139Y-274907D01*
X-533176Y-274975D01*
X-533976Y-277475D01*
X-533979Y-277514D01*
X-533994Y-277591D01*
X-533994Y-280091D01*
X-533986Y-280127D01*
X-533982Y-280186D01*
X-533282Y-282886D01*
X-533281Y-282889D01*
X-533281Y-282891D01*
X-533264Y-282922D01*
X-533249Y-282971D01*
X-531849Y-285571D01*
X-531831Y-285591D01*
X-531815Y-285623D01*
X-529815Y-288223D01*
X-529799Y-288237D01*
X-529783Y-288260D01*
X-527292Y-290751D01*
X-525344Y-292991D01*
X-524491Y-295171D01*
X-524397Y-297141D01*
X-524953Y-298901D01*
X-526163Y-300297D01*
X-527873Y-301343D01*
X-529973Y-302011D01*
X-532267Y-302011D01*
X-533787Y-301631D01*
X-535021Y-301061D01*
X-536057Y-300308D01*
X-536806Y-299465D01*
X-537363Y-298536D01*
X-537634Y-297635D01*
X-537634Y-296753D01*
X-537371Y-295966D01*
X-536923Y-295338D01*
X-536368Y-294782D01*
X-535026Y-293824D01*
X-534364Y-293541D01*
X-534346Y-293527D01*
X-534318Y-293517D01*
X-533867Y-293246D01*
X-533522Y-293160D01*
X-533492Y-293144D01*
X-533444Y-293131D01*
X-533244Y-293031D01*
X-533179Y-292977D01*
X-533113Y-292923D01*
X-533112Y-292921D01*
X-533111Y-292920D01*
X-533077Y-292844D01*
X-533041Y-292765D01*
X-533041Y-292763D01*
X-533040Y-292762D01*
X-533044Y-292677D01*
X-533047Y-292592D01*
X-533048Y-292590D01*
X-533048Y-292589D01*
X-533089Y-292513D01*
X-533129Y-292439D01*
X-533130Y-292438D01*
X-533131Y-292437D01*
X-533141Y-292430D01*
X-533244Y-292351D01*
X-533444Y-292251D01*
X-533481Y-292242D01*
X-533539Y-292218D01*
X-534031Y-292120D01*
X-534822Y-291922D01*
X-534830Y-291922D01*
X-534839Y-291918D01*
X-535839Y-291718D01*
X-535859Y-291719D01*
X-535882Y-291712D01*
X-537082Y-291612D01*
X-537108Y-291616D01*
X-537141Y-291612D01*
X-538541Y-291712D01*
X-538550Y-291714D01*
X-538561Y-291714D01*
X-540161Y-291914D01*
X-540188Y-291924D01*
X-540227Y-291928D01*
X-541827Y-292428D01*
X-541850Y-292441D01*
X-541884Y-292451D01*
X-542415Y-292716D01*
X-542415Y-292717D01*
X-543176Y-293097D01*
X-543284Y-293151D01*
X-543298Y-293163D01*
X-543320Y-293171D01*
X-544720Y-294071D01*
X-544739Y-294091D01*
X-544771Y-294111D01*
X-545971Y-295211D01*
X-545983Y-295228D01*
X-546004Y-295245D01*
X-547104Y-296545D01*
X-547120Y-296575D01*
X-547150Y-296613D01*
X-548050Y-298313D01*
X-548058Y-298345D01*
X-548080Y-298387D01*
X-548680Y-300487D01*
X-548681Y-300507D01*
X-548689Y-300531D01*
X-549089Y-303031D01*
X-549088Y-303057D01*
X-549094Y-303091D01*
X-549094Y-344391D01*
X-549088Y-344416D01*
X-549091Y-344442D01*
X-549069Y-344500D01*
X-549055Y-344560D01*
X-549038Y-344580D01*
X-549029Y-344604D01*
X-548984Y-344646D01*
X-548945Y-344693D01*
X-548921Y-344704D01*
X-548902Y-344721D01*
X-548843Y-344739D01*
X-548786Y-344764D01*
X-548761Y-344763D01*
X-548736Y-344771D01*
X-548675Y-344760D01*
G37*
G36*
X-685811Y-421161D02*
X-685811Y-421161D01*
X-685737Y-421163D01*
X-685726Y-421158D01*
X-685713Y-421158D01*
X-685647Y-421122D01*
X-685579Y-421090D01*
X-685572Y-421081D01*
X-685561Y-421075D01*
X-685518Y-421014D01*
X-685471Y-420955D01*
X-685468Y-420943D01*
X-685461Y-420933D01*
X-685434Y-420791D01*
X-685434Y-391319D01*
X-684903Y-391938D01*
X-684892Y-391946D01*
X-684883Y-391960D01*
X-683583Y-393260D01*
X-683562Y-393273D01*
X-683539Y-393298D01*
X-682039Y-394398D01*
X-682024Y-394404D01*
X-682010Y-394417D01*
X-680510Y-395317D01*
X-680486Y-395325D01*
X-680459Y-395343D01*
X-678759Y-396043D01*
X-678747Y-396044D01*
X-678744Y-396047D01*
X-678732Y-396049D01*
X-678716Y-396057D01*
X-676916Y-396557D01*
X-676898Y-396558D01*
X-676877Y-396566D01*
X-675077Y-396866D01*
X-675065Y-396865D01*
X-675052Y-396869D01*
X-673052Y-397069D01*
X-673019Y-397065D01*
X-672970Y-397069D01*
X-668670Y-396569D01*
X-668636Y-396557D01*
X-668583Y-396548D01*
X-664783Y-395148D01*
X-664753Y-395129D01*
X-664705Y-395109D01*
X-661505Y-393009D01*
X-661480Y-392983D01*
X-661435Y-392950D01*
X-658835Y-390150D01*
X-658822Y-390126D01*
X-658796Y-390100D01*
X-656696Y-386900D01*
X-656684Y-386867D01*
X-656657Y-386822D01*
X-655257Y-383022D01*
X-655254Y-383001D01*
X-655243Y-382974D01*
X-654343Y-378974D01*
X-654343Y-378950D01*
X-654335Y-378918D01*
X-654035Y-374718D01*
X-654038Y-374695D01*
X-654035Y-374665D01*
X-654335Y-370265D01*
X-654342Y-370242D01*
X-654342Y-370211D01*
X-655242Y-366011D01*
X-655252Y-365991D01*
X-655256Y-365963D01*
X-656656Y-362063D01*
X-656674Y-362035D01*
X-656690Y-361991D01*
X-658790Y-358591D01*
X-658811Y-358571D01*
X-658818Y-358557D01*
X-658823Y-358554D01*
X-658840Y-358527D01*
X-661540Y-355727D01*
X-661568Y-355709D01*
X-661603Y-355675D01*
X-664903Y-353475D01*
X-664937Y-353462D01*
X-664986Y-353433D01*
X-668886Y-352033D01*
X-668921Y-352029D01*
X-668974Y-352013D01*
X-673674Y-351513D01*
X-673700Y-351516D01*
X-673734Y-351511D01*
X-675634Y-351611D01*
X-675651Y-351616D01*
X-675673Y-351615D01*
X-677573Y-351915D01*
X-677593Y-351924D01*
X-677621Y-351926D01*
X-679321Y-352426D01*
X-679337Y-352435D01*
X-679359Y-352439D01*
X-681059Y-353139D01*
X-681066Y-353144D01*
X-681072Y-353146D01*
X-681081Y-353153D01*
X-681100Y-353160D01*
X-682700Y-354060D01*
X-682719Y-354077D01*
X-682749Y-354092D01*
X-684149Y-355192D01*
X-684165Y-355212D01*
X-684193Y-355232D01*
X-685493Y-356632D01*
X-685505Y-356653D01*
X-685527Y-356676D01*
X-686034Y-357412D01*
X-686034Y-353091D01*
X-686046Y-353038D01*
X-686047Y-353006D01*
X-686056Y-352990D01*
X-686065Y-352939D01*
X-686071Y-352932D01*
X-686073Y-352922D01*
X-686123Y-352862D01*
X-686169Y-352800D01*
X-686177Y-352796D01*
X-686183Y-352789D01*
X-686254Y-352757D01*
X-686323Y-352722D01*
X-686334Y-352721D01*
X-686342Y-352718D01*
X-686377Y-352719D01*
X-686468Y-352715D01*
X-687868Y-352915D01*
X-687879Y-352919D01*
X-687894Y-352919D01*
X-689281Y-353216D01*
X-690668Y-353415D01*
X-690681Y-353420D01*
X-690700Y-353421D01*
X-691984Y-353717D01*
X-693368Y-353915D01*
X-693379Y-353919D01*
X-693394Y-353919D01*
X-694781Y-354216D01*
X-696168Y-354415D01*
X-696179Y-354419D01*
X-696194Y-354419D01*
X-697594Y-354719D01*
X-697604Y-354724D01*
X-697615Y-354724D01*
X-697681Y-354761D01*
X-697750Y-354793D01*
X-697757Y-354802D01*
X-697767Y-354807D01*
X-697811Y-354869D01*
X-697858Y-354929D01*
X-697860Y-354940D01*
X-697867Y-354949D01*
X-697894Y-355091D01*
X-697894Y-410391D01*
X-697894Y-410394D01*
X-697894Y-410396D01*
X-697874Y-410478D01*
X-697855Y-410560D01*
X-697853Y-410562D01*
X-697852Y-410564D01*
X-697763Y-410678D01*
X-696268Y-411974D01*
X-694873Y-413270D01*
X-694868Y-413273D01*
X-694863Y-413278D01*
X-693368Y-414574D01*
X-691973Y-415870D01*
X-691968Y-415873D01*
X-691963Y-415878D01*
X-688968Y-418474D01*
X-687573Y-419770D01*
X-687568Y-419773D01*
X-687563Y-419778D01*
X-686063Y-421078D01*
X-686052Y-421084D01*
X-686045Y-421093D01*
X-685976Y-421124D01*
X-685910Y-421159D01*
X-685898Y-421159D01*
X-685886Y-421164D01*
X-685811Y-421161D01*
G37*
G36*
X-635614Y-397171D02*
X-635614Y-397171D01*
X-635597Y-397167D01*
X-635576Y-397169D01*
X-633576Y-396969D01*
X-633574Y-396969D01*
X-633572Y-396969D01*
X-632672Y-396869D01*
X-632658Y-396864D01*
X-632639Y-396864D01*
X-630639Y-396464D01*
X-630636Y-396462D01*
X-630632Y-396462D01*
X-629732Y-396262D01*
X-629716Y-396255D01*
X-629694Y-396252D01*
X-628794Y-395952D01*
X-628780Y-395943D01*
X-628760Y-395938D01*
X-627877Y-395546D01*
X-626994Y-395252D01*
X-626969Y-395237D01*
X-626943Y-395231D01*
X-626938Y-395226D01*
X-626929Y-395223D01*
X-626029Y-394723D01*
X-626023Y-394717D01*
X-626012Y-394713D01*
X-624412Y-393713D01*
X-624402Y-393703D01*
X-624386Y-393695D01*
X-622786Y-392495D01*
X-622771Y-392477D01*
X-622745Y-392460D01*
X-622694Y-392409D01*
X-622694Y-392491D01*
X-622686Y-392528D01*
X-622675Y-392611D01*
X-622594Y-392853D01*
X-622594Y-393291D01*
X-622586Y-393328D01*
X-622575Y-393411D01*
X-622494Y-393653D01*
X-622494Y-393791D01*
X-622486Y-393828D01*
X-622475Y-393911D01*
X-622394Y-394153D01*
X-622394Y-394291D01*
X-622386Y-394328D01*
X-622375Y-394411D01*
X-622175Y-395011D01*
X-622162Y-395031D01*
X-622154Y-395061D01*
X-622066Y-395237D01*
X-621975Y-395511D01*
X-621962Y-395531D01*
X-621954Y-395561D01*
X-621854Y-395761D01*
X-621822Y-395800D01*
X-621798Y-395844D01*
X-621767Y-395865D01*
X-621743Y-395894D01*
X-621697Y-395915D01*
X-621656Y-395944D01*
X-621613Y-395952D01*
X-621585Y-395965D01*
X-621555Y-395963D01*
X-621514Y-395971D01*
X-609714Y-395971D01*
X-609641Y-395954D01*
X-609567Y-395942D01*
X-609557Y-395935D01*
X-609545Y-395932D01*
X-609487Y-395884D01*
X-609427Y-395840D01*
X-609421Y-395829D01*
X-609412Y-395822D01*
X-609381Y-395753D01*
X-609346Y-395687D01*
X-609346Y-395675D01*
X-609341Y-395663D01*
X-609344Y-395588D01*
X-609342Y-395514D01*
X-609347Y-395501D01*
X-609347Y-395490D01*
X-609365Y-395457D01*
X-609398Y-395380D01*
X-609585Y-395100D01*
X-609751Y-394767D01*
X-609841Y-394316D01*
X-609853Y-394290D01*
X-609861Y-394250D01*
X-610048Y-393782D01*
X-610240Y-392822D01*
X-610538Y-391034D01*
X-610734Y-389664D01*
X-610734Y-387591D01*
X-610739Y-387568D01*
X-610738Y-387537D01*
X-610834Y-386864D01*
X-610834Y-364091D01*
X-610836Y-364082D01*
X-610834Y-364070D01*
X-610934Y-362270D01*
X-610940Y-362249D01*
X-610940Y-362221D01*
X-611240Y-360621D01*
X-611253Y-360593D01*
X-611257Y-360572D01*
X-611257Y-360567D01*
X-611258Y-360564D01*
X-611261Y-360550D01*
X-611861Y-359050D01*
X-611872Y-359034D01*
X-611879Y-359011D01*
X-612579Y-357711D01*
X-612599Y-357688D01*
X-612620Y-357650D01*
X-613520Y-356550D01*
X-613533Y-356540D01*
X-613545Y-356522D01*
X-614545Y-355522D01*
X-614572Y-355506D01*
X-614603Y-355475D01*
X-615803Y-354675D01*
X-615818Y-354669D01*
X-615834Y-354656D01*
X-617134Y-353956D01*
X-617148Y-353952D01*
X-617164Y-353942D01*
X-618564Y-353342D01*
X-618578Y-353339D01*
X-618594Y-353330D01*
X-620094Y-352830D01*
X-620104Y-352829D01*
X-620116Y-352824D01*
X-621616Y-352424D01*
X-621629Y-352423D01*
X-621644Y-352417D01*
X-623244Y-352117D01*
X-623255Y-352118D01*
X-623267Y-352114D01*
X-624867Y-351914D01*
X-624868Y-351914D01*
X-624870Y-351913D01*
X-626570Y-351713D01*
X-626579Y-351714D01*
X-626590Y-351712D01*
X-628190Y-351612D01*
X-628201Y-351613D01*
X-628214Y-351611D01*
X-629814Y-351611D01*
X-629823Y-351613D01*
X-629835Y-351611D01*
X-633435Y-351811D01*
X-633445Y-351814D01*
X-633458Y-351813D01*
X-635158Y-352013D01*
X-635168Y-352017D01*
X-635180Y-352017D01*
X-636880Y-352317D01*
X-636889Y-352320D01*
X-636901Y-352321D01*
X-638601Y-352721D01*
X-638620Y-352730D01*
X-638648Y-352735D01*
X-640248Y-353335D01*
X-640251Y-353337D01*
X-640255Y-353338D01*
X-641755Y-353938D01*
X-641770Y-353949D01*
X-641793Y-353956D01*
X-643293Y-354756D01*
X-643301Y-354763D01*
X-643313Y-354767D01*
X-644613Y-355567D01*
X-644635Y-355589D01*
X-644671Y-355611D01*
X-645871Y-356711D01*
X-645875Y-356717D01*
X-645883Y-356722D01*
X-646983Y-357822D01*
X-646994Y-357841D01*
X-647015Y-357859D01*
X-648015Y-359159D01*
X-648027Y-359184D01*
X-648050Y-359212D01*
X-648850Y-360712D01*
X-648855Y-360733D01*
X-648870Y-360758D01*
X-649470Y-362358D01*
X-649473Y-362381D01*
X-649485Y-362409D01*
X-649885Y-364209D01*
X-649885Y-364228D01*
X-649892Y-364251D01*
X-650092Y-366151D01*
X-650083Y-366221D01*
X-650081Y-366292D01*
X-650073Y-366306D01*
X-650071Y-366323D01*
X-650032Y-366382D01*
X-649998Y-366444D01*
X-649984Y-366454D01*
X-649975Y-366468D01*
X-649914Y-366503D01*
X-649856Y-366544D01*
X-649838Y-366547D01*
X-649825Y-366555D01*
X-649786Y-366557D01*
X-649714Y-366571D01*
X-638114Y-366571D01*
X-638087Y-366565D01*
X-638060Y-366567D01*
X-638004Y-366545D01*
X-637945Y-366532D01*
X-637924Y-366514D01*
X-637898Y-366504D01*
X-637858Y-366460D01*
X-637812Y-366422D01*
X-637800Y-366396D01*
X-637782Y-366376D01*
X-637756Y-366298D01*
X-637741Y-366263D01*
X-637741Y-366252D01*
X-637737Y-366238D01*
X-637640Y-365461D01*
X-637447Y-364689D01*
X-637251Y-364004D01*
X-637069Y-363460D01*
X-636698Y-362902D01*
X-636695Y-362894D01*
X-636688Y-362887D01*
X-636401Y-362409D01*
X-636043Y-361962D01*
X-635108Y-361213D01*
X-634698Y-361008D01*
X-634568Y-360943D01*
X-634001Y-360754D01*
X-632635Y-360364D01*
X-631963Y-360268D01*
X-631190Y-360171D01*
X-628941Y-360171D01*
X-626902Y-360463D01*
X-625774Y-360839D01*
X-624832Y-361404D01*
X-624405Y-361745D01*
X-624140Y-362187D01*
X-624125Y-362203D01*
X-624111Y-362229D01*
X-623759Y-362669D01*
X-623387Y-363970D01*
X-623294Y-364618D01*
X-623294Y-365467D01*
X-623480Y-366955D01*
X-624181Y-368005D01*
X-625473Y-368744D01*
X-627122Y-369326D01*
X-629182Y-369816D01*
X-631558Y-370113D01*
X-634158Y-370413D01*
X-634164Y-370415D01*
X-634172Y-370415D01*
X-636771Y-370815D01*
X-639470Y-371215D01*
X-639489Y-371223D01*
X-639517Y-371225D01*
X-642017Y-371925D01*
X-642029Y-371932D01*
X-642048Y-371935D01*
X-644448Y-372835D01*
X-644467Y-372848D01*
X-644496Y-372857D01*
X-646696Y-374057D01*
X-646722Y-374080D01*
X-646767Y-374107D01*
X-648567Y-375707D01*
X-648586Y-375735D01*
X-648623Y-375770D01*
X-650123Y-377870D01*
X-650138Y-377906D01*
X-650175Y-377971D01*
X-651075Y-380671D01*
X-651078Y-380706D01*
X-651093Y-380757D01*
X-651393Y-384057D01*
X-651391Y-384072D01*
X-651394Y-384091D01*
X-651394Y-385591D01*
X-651387Y-385621D01*
X-651387Y-385666D01*
X-651087Y-387166D01*
X-651086Y-387168D01*
X-651086Y-387171D01*
X-650786Y-388571D01*
X-650773Y-388597D01*
X-650765Y-388637D01*
X-650265Y-389837D01*
X-650258Y-389847D01*
X-650254Y-389861D01*
X-649654Y-391061D01*
X-649639Y-391080D01*
X-649626Y-391109D01*
X-648926Y-392109D01*
X-648911Y-392122D01*
X-648898Y-392144D01*
X-648098Y-393044D01*
X-648090Y-393049D01*
X-648083Y-393060D01*
X-647183Y-393960D01*
X-647154Y-393978D01*
X-647118Y-394012D01*
X-646018Y-394712D01*
X-646007Y-394716D01*
X-645996Y-394725D01*
X-644896Y-395325D01*
X-644890Y-395326D01*
X-644884Y-395331D01*
X-643684Y-395931D01*
X-643661Y-395937D01*
X-643634Y-395952D01*
X-642434Y-396352D01*
X-642427Y-396352D01*
X-642418Y-396357D01*
X-641018Y-396757D01*
X-640997Y-396758D01*
X-640972Y-396767D01*
X-639672Y-396967D01*
X-639657Y-396966D01*
X-639639Y-396970D01*
X-636639Y-397170D01*
X-636628Y-397169D01*
X-636614Y-397171D01*
X-635614Y-397171D01*
X-635614Y-397171D01*
G37*
G36*
X-561064Y-395860D02*
X-561064Y-395860D01*
X-561013Y-395858D01*
X-560981Y-395840D01*
X-560945Y-395832D01*
X-560906Y-395799D01*
X-560861Y-395775D01*
X-560840Y-395745D01*
X-560812Y-395722D01*
X-560791Y-395675D01*
X-560761Y-395633D01*
X-560753Y-395591D01*
X-560741Y-395563D01*
X-560742Y-395533D01*
X-560734Y-395491D01*
X-560734Y-381054D01*
X-556692Y-377191D01*
X-545338Y-395690D01*
X-545314Y-395714D01*
X-545298Y-395744D01*
X-545254Y-395775D01*
X-545216Y-395813D01*
X-545184Y-395824D01*
X-545156Y-395844D01*
X-545089Y-395857D01*
X-545052Y-395869D01*
X-545035Y-395867D01*
X-545014Y-395871D01*
X-530914Y-395871D01*
X-530841Y-395854D01*
X-530768Y-395842D01*
X-530758Y-395835D01*
X-530745Y-395832D01*
X-530688Y-395784D01*
X-530627Y-395741D01*
X-530621Y-395730D01*
X-530612Y-395722D01*
X-530581Y-395654D01*
X-530546Y-395588D01*
X-530546Y-395575D01*
X-530541Y-395563D01*
X-530544Y-395489D01*
X-530542Y-395414D01*
X-530547Y-395402D01*
X-530547Y-395390D01*
X-530566Y-395357D01*
X-530597Y-395281D01*
X-548223Y-368743D01*
X-532449Y-353363D01*
X-532433Y-353340D01*
X-532412Y-353322D01*
X-532387Y-353267D01*
X-532355Y-353217D01*
X-532352Y-353189D01*
X-532341Y-353163D01*
X-532343Y-353104D01*
X-532337Y-353045D01*
X-532346Y-353018D01*
X-532347Y-352990D01*
X-532376Y-352938D01*
X-532396Y-352882D01*
X-532417Y-352863D01*
X-532430Y-352838D01*
X-532479Y-352804D01*
X-532522Y-352763D01*
X-532549Y-352755D01*
X-532572Y-352738D01*
X-532650Y-352723D01*
X-532687Y-352712D01*
X-532699Y-352714D01*
X-532714Y-352711D01*
X-546414Y-352711D01*
X-546492Y-352729D01*
X-546570Y-352744D01*
X-546576Y-352749D01*
X-546583Y-352750D01*
X-546608Y-352771D01*
X-546688Y-352828D01*
X-560734Y-367446D01*
X-560734Y-336891D01*
X-560747Y-336834D01*
X-560752Y-336775D01*
X-560767Y-336751D01*
X-560773Y-336722D01*
X-560811Y-336677D01*
X-560841Y-336627D01*
X-560865Y-336611D01*
X-560883Y-336589D01*
X-560937Y-336565D01*
X-560986Y-336533D01*
X-561015Y-336530D01*
X-561042Y-336518D01*
X-561100Y-336520D01*
X-561158Y-336513D01*
X-561190Y-336523D01*
X-561215Y-336524D01*
X-561246Y-336541D01*
X-561296Y-336557D01*
X-572996Y-342957D01*
X-573029Y-342986D01*
X-573067Y-343007D01*
X-573092Y-343043D01*
X-573126Y-343073D01*
X-573142Y-343113D01*
X-573167Y-343149D01*
X-573177Y-343201D01*
X-573190Y-343234D01*
X-573188Y-343259D01*
X-573194Y-343291D01*
X-573194Y-395491D01*
X-573183Y-395541D01*
X-573181Y-395592D01*
X-573163Y-395624D01*
X-573155Y-395660D01*
X-573122Y-395699D01*
X-573098Y-395744D01*
X-573068Y-395765D01*
X-573045Y-395793D01*
X-572998Y-395814D01*
X-572956Y-395844D01*
X-572914Y-395852D01*
X-572886Y-395864D01*
X-572856Y-395863D01*
X-572814Y-395871D01*
X-561114Y-395871D01*
X-561064Y-395860D01*
G37*
G36*
X-443064Y-395860D02*
X-443064Y-395860D01*
X-443013Y-395858D01*
X-442981Y-395840D01*
X-442945Y-395832D01*
X-442906Y-395799D01*
X-442861Y-395775D01*
X-442840Y-395745D01*
X-442812Y-395722D01*
X-442791Y-395675D01*
X-442761Y-395633D01*
X-442753Y-395591D01*
X-442741Y-395563D01*
X-442742Y-395533D01*
X-442734Y-395491D01*
X-442734Y-373304D01*
X-442536Y-370333D01*
X-442142Y-367772D01*
X-441563Y-365747D01*
X-440610Y-364223D01*
X-439475Y-362993D01*
X-437970Y-362146D01*
X-436148Y-361667D01*
X-434017Y-361473D01*
X-432195Y-361665D01*
X-430776Y-362138D01*
X-429551Y-362891D01*
X-428530Y-363913D01*
X-427872Y-365323D01*
X-427387Y-367069D01*
X-427093Y-369126D01*
X-426994Y-371499D01*
X-426994Y-395491D01*
X-426983Y-395541D01*
X-426981Y-395592D01*
X-426963Y-395624D01*
X-426955Y-395660D01*
X-426922Y-395699D01*
X-426898Y-395744D01*
X-426868Y-395765D01*
X-426845Y-395793D01*
X-426798Y-395814D01*
X-426756Y-395844D01*
X-426714Y-395852D01*
X-426686Y-395864D01*
X-426656Y-395863D01*
X-426614Y-395871D01*
X-414914Y-395871D01*
X-414864Y-395860D01*
X-414813Y-395858D01*
X-414781Y-395840D01*
X-414745Y-395832D01*
X-414706Y-395799D01*
X-414661Y-395775D01*
X-414640Y-395745D01*
X-414612Y-395722D01*
X-414591Y-395675D01*
X-414561Y-395633D01*
X-414553Y-395591D01*
X-414541Y-395563D01*
X-414542Y-395533D01*
X-414534Y-395491D01*
X-414534Y-369391D01*
X-414536Y-369382D01*
X-414534Y-369371D01*
X-414734Y-365571D01*
X-414739Y-365556D01*
X-414738Y-365536D01*
X-415238Y-362136D01*
X-415249Y-362108D01*
X-415255Y-362067D01*
X-416255Y-359167D01*
X-416269Y-359145D01*
X-416279Y-359111D01*
X-417679Y-356511D01*
X-417705Y-356482D01*
X-417712Y-356472D01*
X-417722Y-356453D01*
X-417729Y-356448D01*
X-417752Y-356416D01*
X-419852Y-354416D01*
X-419884Y-354397D01*
X-419929Y-354359D01*
X-422629Y-352859D01*
X-422665Y-352849D01*
X-422717Y-352823D01*
X-426117Y-351923D01*
X-426143Y-351923D01*
X-426178Y-351912D01*
X-430378Y-351512D01*
X-430402Y-351516D01*
X-430434Y-351511D01*
X-432334Y-351611D01*
X-432360Y-351619D01*
X-432397Y-351620D01*
X-434197Y-352020D01*
X-434205Y-352024D01*
X-434216Y-352025D01*
X-436016Y-352525D01*
X-436033Y-352534D01*
X-436059Y-352539D01*
X-437759Y-353239D01*
X-437778Y-353253D01*
X-437807Y-353263D01*
X-439507Y-354263D01*
X-439524Y-354280D01*
X-439552Y-354294D01*
X-441052Y-355494D01*
X-441066Y-355513D01*
X-441092Y-355532D01*
X-442492Y-357032D01*
X-442503Y-357051D01*
X-442525Y-357072D01*
X-443134Y-357935D01*
X-443134Y-353091D01*
X-443145Y-353041D01*
X-443147Y-352990D01*
X-443165Y-352958D01*
X-443173Y-352922D01*
X-443206Y-352883D01*
X-443230Y-352838D01*
X-443260Y-352817D01*
X-443283Y-352789D01*
X-443330Y-352768D01*
X-443372Y-352738D01*
X-443414Y-352730D01*
X-443442Y-352718D01*
X-443472Y-352719D01*
X-443514Y-352711D01*
X-454614Y-352711D01*
X-454660Y-352722D01*
X-454708Y-352723D01*
X-454743Y-352741D01*
X-454783Y-352750D01*
X-454819Y-352781D01*
X-454862Y-352802D01*
X-454885Y-352835D01*
X-454916Y-352860D01*
X-454936Y-352904D01*
X-454964Y-352942D01*
X-454974Y-352989D01*
X-454987Y-353019D01*
X-454986Y-353047D01*
X-454994Y-353084D01*
X-455094Y-358384D01*
X-455094Y-358387D01*
X-455094Y-358391D01*
X-455094Y-395491D01*
X-455083Y-395541D01*
X-455081Y-395592D01*
X-455063Y-395624D01*
X-455055Y-395660D01*
X-455022Y-395699D01*
X-454998Y-395744D01*
X-454968Y-395765D01*
X-454945Y-395793D01*
X-454898Y-395814D01*
X-454856Y-395844D01*
X-454814Y-395852D01*
X-454786Y-395864D01*
X-454756Y-395863D01*
X-454714Y-395871D01*
X-443114Y-395871D01*
X-443064Y-395860D01*
G37*
G36*
X-485205Y-397069D02*
X-485205Y-397069D01*
X-485194Y-397071D01*
X-483294Y-396971D01*
X-483268Y-396963D01*
X-483232Y-396962D01*
X-481432Y-396562D01*
X-481423Y-396558D01*
X-481412Y-396557D01*
X-479612Y-396057D01*
X-479588Y-396044D01*
X-479552Y-396035D01*
X-477852Y-395235D01*
X-477846Y-395230D01*
X-477836Y-395227D01*
X-476136Y-394327D01*
X-476110Y-394304D01*
X-476065Y-394278D01*
X-474565Y-392978D01*
X-474558Y-392968D01*
X-474545Y-392960D01*
X-473145Y-391560D01*
X-473131Y-391536D01*
X-473103Y-391510D01*
X-472494Y-390647D01*
X-472494Y-395491D01*
X-472483Y-395541D01*
X-472481Y-395592D01*
X-472463Y-395624D01*
X-472455Y-395660D01*
X-472422Y-395699D01*
X-472398Y-395744D01*
X-472368Y-395765D01*
X-472345Y-395793D01*
X-472298Y-395814D01*
X-472256Y-395844D01*
X-472214Y-395852D01*
X-472186Y-395864D01*
X-472156Y-395863D01*
X-472114Y-395871D01*
X-461014Y-395871D01*
X-460968Y-395860D01*
X-460920Y-395860D01*
X-460885Y-395841D01*
X-460845Y-395832D01*
X-460809Y-395802D01*
X-460767Y-395780D01*
X-460743Y-395747D01*
X-460712Y-395722D01*
X-460692Y-395678D01*
X-460664Y-395640D01*
X-460654Y-395593D01*
X-460641Y-395563D01*
X-460642Y-395536D01*
X-460634Y-395498D01*
X-460534Y-390198D01*
X-460535Y-390195D01*
X-460534Y-390191D01*
X-460534Y-353091D01*
X-460545Y-353041D01*
X-460547Y-352990D01*
X-460565Y-352958D01*
X-460573Y-352922D01*
X-460606Y-352883D01*
X-460630Y-352838D01*
X-460660Y-352817D01*
X-460683Y-352789D01*
X-460730Y-352768D01*
X-460772Y-352738D01*
X-460814Y-352730D01*
X-460842Y-352718D01*
X-460872Y-352719D01*
X-460914Y-352711D01*
X-472614Y-352711D01*
X-472664Y-352722D01*
X-472715Y-352724D01*
X-472747Y-352742D01*
X-472783Y-352750D01*
X-472822Y-352783D01*
X-472867Y-352807D01*
X-472888Y-352837D01*
X-472916Y-352860D01*
X-472937Y-352907D01*
X-472967Y-352949D01*
X-472975Y-352991D01*
X-472987Y-353019D01*
X-472986Y-353049D01*
X-472994Y-353091D01*
X-472994Y-375285D01*
X-473093Y-378255D01*
X-473486Y-380810D01*
X-474065Y-382835D01*
X-475018Y-384359D01*
X-476153Y-385589D01*
X-477658Y-386436D01*
X-479480Y-386915D01*
X-481611Y-387109D01*
X-483437Y-386917D01*
X-484955Y-386442D01*
X-486169Y-385695D01*
X-487094Y-384678D01*
X-487756Y-383259D01*
X-488241Y-381513D01*
X-488536Y-379449D01*
X-488734Y-376976D01*
X-488734Y-353091D01*
X-488745Y-353041D01*
X-488747Y-352990D01*
X-488765Y-352958D01*
X-488773Y-352922D01*
X-488806Y-352883D01*
X-488830Y-352838D01*
X-488860Y-352817D01*
X-488883Y-352789D01*
X-488930Y-352768D01*
X-488972Y-352738D01*
X-489014Y-352730D01*
X-489042Y-352718D01*
X-489072Y-352719D01*
X-489114Y-352711D01*
X-500714Y-352711D01*
X-500764Y-352722D01*
X-500815Y-352724D01*
X-500847Y-352742D01*
X-500883Y-352750D01*
X-500922Y-352783D01*
X-500967Y-352807D01*
X-500988Y-352837D01*
X-501016Y-352860D01*
X-501037Y-352907D01*
X-501067Y-352949D01*
X-501075Y-352991D01*
X-501087Y-353019D01*
X-501086Y-353049D01*
X-501094Y-353091D01*
X-501094Y-379191D01*
X-501092Y-379200D01*
X-501094Y-379211D01*
X-500894Y-383011D01*
X-500889Y-383027D01*
X-500890Y-383048D01*
X-500390Y-386348D01*
X-500381Y-386370D01*
X-500378Y-386400D01*
X-499478Y-389400D01*
X-499461Y-389431D01*
X-499443Y-389481D01*
X-497943Y-392081D01*
X-497917Y-392110D01*
X-497876Y-392166D01*
X-495776Y-394166D01*
X-495744Y-394185D01*
X-495699Y-394223D01*
X-492999Y-395723D01*
X-492963Y-395734D01*
X-492911Y-395759D01*
X-489511Y-396659D01*
X-489485Y-396659D01*
X-489450Y-396670D01*
X-485250Y-397070D01*
X-485234Y-397067D01*
X-485214Y-397071D01*
X-485213Y-397071D01*
X-485205Y-397069D01*
G37*
G36*
X-721604Y-397069D02*
X-721604Y-397069D01*
X-721593Y-397071D01*
X-717993Y-396871D01*
X-717974Y-396865D01*
X-717950Y-396866D01*
X-714450Y-396266D01*
X-714429Y-396257D01*
X-714401Y-396254D01*
X-711201Y-395254D01*
X-711181Y-395243D01*
X-711153Y-395236D01*
X-708153Y-393836D01*
X-708125Y-393813D01*
X-708076Y-393788D01*
X-705576Y-391788D01*
X-705553Y-391758D01*
X-705507Y-391715D01*
X-703607Y-389115D01*
X-703592Y-389080D01*
X-703558Y-389025D01*
X-702358Y-385825D01*
X-702353Y-385790D01*
X-702337Y-385741D01*
X-701837Y-381941D01*
X-701841Y-381905D01*
X-701836Y-381849D01*
X-702136Y-379149D01*
X-702145Y-379122D01*
X-702146Y-379099D01*
X-702154Y-379085D01*
X-702160Y-379052D01*
X-703060Y-376752D01*
X-703081Y-376722D01*
X-703106Y-376668D01*
X-704406Y-374868D01*
X-704432Y-374846D01*
X-704462Y-374806D01*
X-706162Y-373306D01*
X-706188Y-373292D01*
X-706218Y-373265D01*
X-708218Y-372065D01*
X-708239Y-372058D01*
X-708262Y-372042D01*
X-710562Y-371042D01*
X-710579Y-371039D01*
X-710598Y-371029D01*
X-713098Y-370229D01*
X-713111Y-370228D01*
X-713125Y-370221D01*
X-715623Y-369622D01*
X-718022Y-369022D01*
X-718029Y-369022D01*
X-718036Y-369019D01*
X-720435Y-368519D01*
X-722719Y-368023D01*
X-724687Y-367432D01*
X-726331Y-366755D01*
X-727544Y-365915D01*
X-728259Y-364933D01*
X-728527Y-363682D01*
X-728347Y-362601D01*
X-728001Y-361822D01*
X-727294Y-361204D01*
X-726450Y-360735D01*
X-725524Y-360365D01*
X-724480Y-360270D01*
X-724465Y-360265D01*
X-724446Y-360265D01*
X-723380Y-360071D01*
X-722427Y-360071D01*
X-720954Y-360169D01*
X-719593Y-360364D01*
X-718246Y-360749D01*
X-717215Y-361218D01*
X-716294Y-361954D01*
X-715642Y-362886D01*
X-715083Y-364003D01*
X-714891Y-365538D01*
X-714882Y-365564D01*
X-714881Y-365592D01*
X-714852Y-365644D01*
X-714831Y-365701D01*
X-714811Y-365720D01*
X-714798Y-365744D01*
X-714749Y-365778D01*
X-714705Y-365820D01*
X-714679Y-365828D01*
X-714656Y-365844D01*
X-714576Y-365859D01*
X-714540Y-365870D01*
X-714528Y-365869D01*
X-714514Y-365871D01*
X-703414Y-365871D01*
X-703343Y-365855D01*
X-703245Y-365832D01*
X-703242Y-365829D01*
X-703112Y-365722D01*
X-703112Y-365721D01*
X-703074Y-365638D01*
X-703041Y-365563D01*
X-703041Y-365418D01*
X-703741Y-361818D01*
X-703755Y-361786D01*
X-703767Y-361735D01*
X-705067Y-358835D01*
X-705089Y-358806D01*
X-705116Y-358755D01*
X-707016Y-356355D01*
X-707044Y-356333D01*
X-707080Y-356292D01*
X-709380Y-354492D01*
X-709411Y-354477D01*
X-709454Y-354446D01*
X-712254Y-353146D01*
X-712277Y-353141D01*
X-712305Y-353127D01*
X-715305Y-352227D01*
X-715328Y-352225D01*
X-715357Y-352215D01*
X-718657Y-351715D01*
X-718673Y-351716D01*
X-718692Y-351711D01*
X-722092Y-351511D01*
X-722111Y-351515D01*
X-722136Y-351511D01*
X-725536Y-351711D01*
X-725547Y-351714D01*
X-725560Y-351714D01*
X-728860Y-352114D01*
X-728885Y-352123D01*
X-728920Y-352126D01*
X-732020Y-353026D01*
X-732042Y-353038D01*
X-732074Y-353046D01*
X-734874Y-354346D01*
X-734900Y-354366D01*
X-734942Y-354387D01*
X-737342Y-356187D01*
X-737367Y-356217D01*
X-737418Y-356263D01*
X-739218Y-358663D01*
X-739233Y-358698D01*
X-739267Y-358750D01*
X-740467Y-361750D01*
X-740473Y-361788D01*
X-740492Y-361850D01*
X-740892Y-365550D01*
X-740888Y-365584D01*
X-740892Y-365635D01*
X-740592Y-368235D01*
X-740583Y-368258D01*
X-740583Y-368273D01*
X-740577Y-368284D01*
X-740569Y-368326D01*
X-739769Y-370426D01*
X-739747Y-370459D01*
X-739716Y-370522D01*
X-738416Y-372222D01*
X-738411Y-372226D01*
X-738410Y-372228D01*
X-738402Y-372233D01*
X-738392Y-372242D01*
X-738366Y-372276D01*
X-736666Y-373776D01*
X-736634Y-373793D01*
X-736590Y-373828D01*
X-734490Y-374928D01*
X-734475Y-374932D01*
X-734458Y-374943D01*
X-732258Y-375843D01*
X-732245Y-375845D01*
X-732230Y-375853D01*
X-729730Y-376653D01*
X-729717Y-376654D01*
X-729703Y-376661D01*
X-727203Y-377261D01*
X-727196Y-377261D01*
X-727189Y-377264D01*
X-724193Y-377863D01*
X-721615Y-378458D01*
X-719438Y-379151D01*
X-717570Y-379839D01*
X-716126Y-380609D01*
X-715095Y-381452D01*
X-714476Y-382336D01*
X-714298Y-383493D01*
X-714483Y-384783D01*
X-714941Y-385790D01*
X-715671Y-386704D01*
X-716691Y-387353D01*
X-717847Y-387835D01*
X-719004Y-388220D01*
X-720258Y-388413D01*
X-721517Y-388510D01*
X-723156Y-388414D01*
X-724708Y-388026D01*
X-726168Y-387539D01*
X-727497Y-386874D01*
X-728526Y-385939D01*
X-729380Y-384706D01*
X-729942Y-383393D01*
X-730136Y-381649D01*
X-730146Y-381621D01*
X-730147Y-381590D01*
X-730175Y-381540D01*
X-730194Y-381486D01*
X-730216Y-381465D01*
X-730230Y-381438D01*
X-730277Y-381405D01*
X-730318Y-381365D01*
X-730347Y-381356D01*
X-730372Y-381338D01*
X-730446Y-381324D01*
X-730483Y-381312D01*
X-730497Y-381314D01*
X-730514Y-381311D01*
X-741514Y-381311D01*
X-741587Y-381328D01*
X-741661Y-381340D01*
X-741671Y-381347D01*
X-741683Y-381350D01*
X-741740Y-381398D01*
X-741801Y-381442D01*
X-741807Y-381453D01*
X-741816Y-381460D01*
X-741847Y-381529D01*
X-741882Y-381595D01*
X-741883Y-381608D01*
X-741887Y-381619D01*
X-741886Y-381656D01*
X-741891Y-381739D01*
X-741391Y-385639D01*
X-741378Y-385676D01*
X-741362Y-385743D01*
X-739962Y-388943D01*
X-739941Y-388973D01*
X-739915Y-389023D01*
X-737915Y-391623D01*
X-737887Y-391646D01*
X-737852Y-391688D01*
X-735352Y-393688D01*
X-735322Y-393702D01*
X-735284Y-393731D01*
X-732284Y-395231D01*
X-732257Y-395237D01*
X-732224Y-395255D01*
X-728924Y-396255D01*
X-728903Y-396256D01*
X-728878Y-396266D01*
X-725378Y-396866D01*
X-725359Y-396865D01*
X-725335Y-396871D01*
X-721635Y-397071D01*
X-721626Y-397069D01*
X-721615Y-397071D01*
X-721613Y-397071D01*
X-721604Y-397069D01*
G37*
G36*
X-512064Y-395860D02*
X-512064Y-395860D01*
X-512013Y-395858D01*
X-511981Y-395840D01*
X-511945Y-395832D01*
X-511906Y-395799D01*
X-511861Y-395775D01*
X-511840Y-395745D01*
X-511812Y-395722D01*
X-511791Y-395675D01*
X-511761Y-395633D01*
X-511753Y-395591D01*
X-511741Y-395563D01*
X-511742Y-395533D01*
X-511734Y-395491D01*
X-511734Y-361271D01*
X-504114Y-361271D01*
X-504064Y-361260D01*
X-504013Y-361258D01*
X-503981Y-361240D01*
X-503945Y-361232D01*
X-503906Y-361199D01*
X-503861Y-361175D01*
X-503840Y-361145D01*
X-503812Y-361122D01*
X-503791Y-361075D01*
X-503761Y-361033D01*
X-503753Y-360991D01*
X-503741Y-360963D01*
X-503741Y-360961D01*
X-503742Y-360932D01*
X-503734Y-360891D01*
X-503734Y-353091D01*
X-503745Y-353041D01*
X-503747Y-352990D01*
X-503765Y-352958D01*
X-503773Y-352922D01*
X-503806Y-352883D01*
X-503830Y-352838D01*
X-503860Y-352817D01*
X-503883Y-352789D01*
X-503930Y-352768D01*
X-503972Y-352738D01*
X-504014Y-352730D01*
X-504042Y-352718D01*
X-504072Y-352719D01*
X-504114Y-352711D01*
X-511734Y-352711D01*
X-511734Y-349329D01*
X-511547Y-348396D01*
X-511276Y-347671D01*
X-510833Y-347052D01*
X-510320Y-346624D01*
X-509606Y-346356D01*
X-508755Y-346168D01*
X-507697Y-346071D01*
X-505645Y-346071D01*
X-505077Y-346166D01*
X-505050Y-346164D01*
X-505014Y-346171D01*
X-504045Y-346171D01*
X-503477Y-346266D01*
X-503395Y-346261D01*
X-503313Y-346258D01*
X-503309Y-346255D01*
X-503304Y-346255D01*
X-503233Y-346214D01*
X-503161Y-346175D01*
X-503158Y-346171D01*
X-503154Y-346168D01*
X-503108Y-346100D01*
X-503061Y-346033D01*
X-503060Y-346028D01*
X-503058Y-346024D01*
X-503054Y-345996D01*
X-503034Y-345891D01*
X-503034Y-337191D01*
X-503045Y-337141D01*
X-503047Y-337090D01*
X-503065Y-337058D01*
X-503073Y-337022D01*
X-503106Y-336983D01*
X-503130Y-336938D01*
X-503160Y-336917D01*
X-503183Y-336889D01*
X-503230Y-336868D01*
X-503272Y-336838D01*
X-503314Y-336830D01*
X-503342Y-336818D01*
X-503372Y-336819D01*
X-503414Y-336811D01*
X-504890Y-336811D01*
X-506467Y-336614D01*
X-506488Y-336616D01*
X-506514Y-336611D01*
X-507990Y-336611D01*
X-508767Y-336514D01*
X-508788Y-336516D01*
X-508814Y-336511D01*
X-509614Y-336511D01*
X-509629Y-336514D01*
X-509648Y-336512D01*
X-512948Y-336812D01*
X-512971Y-336820D01*
X-513003Y-336821D01*
X-515903Y-337521D01*
X-515929Y-337534D01*
X-515967Y-337543D01*
X-518467Y-338643D01*
X-518497Y-338665D01*
X-518550Y-338693D01*
X-520450Y-340193D01*
X-520470Y-340218D01*
X-520505Y-340246D01*
X-522105Y-342146D01*
X-522121Y-342178D01*
X-522154Y-342221D01*
X-523254Y-344421D01*
X-523261Y-344451D01*
X-523280Y-344488D01*
X-523980Y-346988D01*
X-523982Y-347020D01*
X-523993Y-347063D01*
X-524193Y-349763D01*
X-524191Y-349776D01*
X-524194Y-349791D01*
X-524194Y-352711D01*
X-527314Y-352711D01*
X-527388Y-352728D01*
X-527463Y-352741D01*
X-527473Y-352748D01*
X-527483Y-352750D01*
X-527512Y-352774D01*
X-527583Y-352822D01*
X-528576Y-353815D01*
X-529568Y-354708D01*
X-529574Y-354716D01*
X-529583Y-354722D01*
X-532576Y-357715D01*
X-533568Y-358608D01*
X-533574Y-358616D01*
X-533583Y-358622D01*
X-535583Y-360622D01*
X-535596Y-360643D01*
X-535614Y-360658D01*
X-535616Y-360660D01*
X-535642Y-360717D01*
X-535674Y-360769D01*
X-535677Y-360795D01*
X-535687Y-360819D01*
X-535685Y-360880D01*
X-535691Y-360942D01*
X-535682Y-360966D01*
X-535681Y-360992D01*
X-535651Y-361046D01*
X-535629Y-361104D01*
X-535610Y-361121D01*
X-535598Y-361144D01*
X-535548Y-361179D01*
X-535502Y-361221D01*
X-535477Y-361229D01*
X-535456Y-361244D01*
X-535372Y-361260D01*
X-535336Y-361271D01*
X-535326Y-361269D01*
X-535314Y-361271D01*
X-524194Y-361271D01*
X-524194Y-395491D01*
X-524183Y-395541D01*
X-524181Y-395592D01*
X-524163Y-395624D01*
X-524155Y-395660D01*
X-524122Y-395699D01*
X-524098Y-395744D01*
X-524068Y-395765D01*
X-524045Y-395793D01*
X-523998Y-395814D01*
X-523956Y-395844D01*
X-523914Y-395852D01*
X-523886Y-395864D01*
X-523856Y-395863D01*
X-523814Y-395871D01*
X-512114Y-395871D01*
X-512064Y-395860D01*
G37*
G36*
X757902Y-428649D02*
X757902Y-428649D01*
X757907Y-428645D01*
X757910Y-428648D01*
X760310Y-428148D01*
X760315Y-428143D01*
X760320Y-428145D01*
X762620Y-427145D01*
X762622Y-427140D01*
X762626Y-427142D01*
X764826Y-425742D01*
X764829Y-425734D01*
X764835Y-425735D01*
X766635Y-423935D01*
X766636Y-423927D01*
X766642Y-423926D01*
X767942Y-421826D01*
X767941Y-421821D01*
X767944Y-421818D01*
X767946Y-421818D01*
X768846Y-419518D01*
X768844Y-419510D01*
X768849Y-419508D01*
X769249Y-416908D01*
X769246Y-416902D01*
X769249Y-416900D01*
X769249Y-396600D01*
X769247Y-396598D01*
X769249Y-396596D01*
X769049Y-394096D01*
X769036Y-394082D01*
X769039Y-394070D01*
X767539Y-392070D01*
X767516Y-392064D01*
X767510Y-392052D01*
X765210Y-391552D01*
X765199Y-391557D01*
X765193Y-391551D01*
X762393Y-391951D01*
X762375Y-391970D01*
X762361Y-391970D01*
X760983Y-393742D01*
X759519Y-393254D01*
X757122Y-392056D01*
X757111Y-392058D01*
X757108Y-392058D01*
X757104Y-392051D01*
X754604Y-391851D01*
X754596Y-391856D01*
X754592Y-391851D01*
X752192Y-392251D01*
X752185Y-392259D01*
X752178Y-392256D01*
X749978Y-393356D01*
X749975Y-393362D01*
X749970Y-393361D01*
X747870Y-394961D01*
X747868Y-394967D01*
X747863Y-394967D01*
X746063Y-396967D01*
X746063Y-396976D01*
X746057Y-396976D01*
X744857Y-399176D01*
X744858Y-399182D01*
X744853Y-399184D01*
X744053Y-401484D01*
X744056Y-401491D01*
X744051Y-401494D01*
X743751Y-403994D01*
X743755Y-404000D01*
X743751Y-404004D01*
X743951Y-406604D01*
X743955Y-406608D01*
X743952Y-406612D01*
X744552Y-409012D01*
X744559Y-409018D01*
X744557Y-409024D01*
X745757Y-411224D01*
X745764Y-411227D01*
X745762Y-411232D01*
X747462Y-413232D01*
X747468Y-413233D01*
X747468Y-413237D01*
X749568Y-415037D01*
X749576Y-415038D01*
X749576Y-415043D01*
X751776Y-416243D01*
X751787Y-416242D01*
X751790Y-416248D01*
X754090Y-416748D01*
X754098Y-416744D01*
X754102Y-416749D01*
X756802Y-416649D01*
X756810Y-416642D01*
X756816Y-416647D01*
X759116Y-415847D01*
X759124Y-415834D01*
X759134Y-415836D01*
X760751Y-414314D01*
X760751Y-415695D01*
X760254Y-418179D01*
X758771Y-420057D01*
X756397Y-420750D01*
X754115Y-420353D01*
X751721Y-419255D01*
X751719Y-419256D01*
X751719Y-419254D01*
X749519Y-418354D01*
X749507Y-418358D01*
X749491Y-418358D01*
X749482Y-418364D01*
X749470Y-418361D01*
X747470Y-419861D01*
X747466Y-419875D01*
X747457Y-419876D01*
X746257Y-422076D01*
X746258Y-422083D01*
X746253Y-422087D01*
X746257Y-422093D01*
X746251Y-422098D01*
X746151Y-424198D01*
X746167Y-424221D01*
X746165Y-424235D01*
X747865Y-425935D01*
X747875Y-425936D01*
X747876Y-425943D01*
X750576Y-427443D01*
X750581Y-427442D01*
X750582Y-427446D01*
X752882Y-428346D01*
X752890Y-428344D01*
X752892Y-428349D01*
X755392Y-428749D01*
X755399Y-428745D01*
X755402Y-428749D01*
X757902Y-428649D01*
G37*
G36*
X491802Y-428649D02*
X491802Y-428649D01*
X491807Y-428645D01*
X491810Y-428648D01*
X494210Y-428148D01*
X494215Y-428142D01*
X494220Y-428145D01*
X496420Y-427145D01*
X496423Y-427140D01*
X496426Y-427142D01*
X498626Y-425742D01*
X498629Y-425734D01*
X498635Y-425735D01*
X500435Y-423935D01*
X500436Y-423927D01*
X500442Y-423926D01*
X501742Y-421826D01*
X501741Y-421821D01*
X501744Y-421818D01*
X501746Y-421818D01*
X502646Y-419518D01*
X502644Y-419510D01*
X502649Y-419508D01*
X503049Y-416908D01*
X503046Y-416902D01*
X503049Y-416900D01*
X503049Y-396600D01*
X503047Y-396598D01*
X503049Y-396596D01*
X502849Y-394096D01*
X502836Y-394082D01*
X502839Y-394070D01*
X501339Y-392070D01*
X501316Y-392064D01*
X501310Y-392052D01*
X499010Y-391552D01*
X498999Y-391557D01*
X498993Y-391551D01*
X496193Y-391951D01*
X496175Y-391970D01*
X496161Y-391970D01*
X494783Y-393742D01*
X493319Y-393254D01*
X490922Y-392056D01*
X490911Y-392058D01*
X490908Y-392058D01*
X490904Y-392051D01*
X488404Y-391851D01*
X488396Y-391856D01*
X488392Y-391851D01*
X485992Y-392251D01*
X485985Y-392259D01*
X485978Y-392256D01*
X483778Y-393356D01*
X483775Y-393362D01*
X483770Y-393361D01*
X481670Y-394961D01*
X481668Y-394967D01*
X481663Y-394967D01*
X479863Y-396967D01*
X479863Y-396976D01*
X479857Y-396976D01*
X478657Y-399176D01*
X478658Y-399182D01*
X478653Y-399184D01*
X477853Y-401484D01*
X477856Y-401491D01*
X477851Y-401494D01*
X477551Y-403994D01*
X477555Y-404000D01*
X477551Y-404004D01*
X477751Y-406604D01*
X477756Y-406609D01*
X477753Y-406614D01*
X478453Y-409014D01*
X478458Y-409018D01*
X478456Y-409022D01*
X479556Y-411222D01*
X479564Y-411226D01*
X479562Y-411232D01*
X481262Y-413232D01*
X481268Y-413233D01*
X481268Y-413237D01*
X483368Y-415037D01*
X483376Y-415038D01*
X483376Y-415043D01*
X485576Y-416243D01*
X485587Y-416242D01*
X485590Y-416248D01*
X487890Y-416748D01*
X487898Y-416744D01*
X487902Y-416749D01*
X490602Y-416649D01*
X490610Y-416642D01*
X490616Y-416647D01*
X492916Y-415847D01*
X492924Y-415834D01*
X492934Y-415836D01*
X494551Y-414314D01*
X494551Y-415695D01*
X494054Y-418179D01*
X492571Y-420057D01*
X490197Y-420750D01*
X487915Y-420353D01*
X485521Y-419255D01*
X485519Y-419256D01*
X485519Y-419254D01*
X483319Y-418354D01*
X483307Y-418358D01*
X483291Y-418358D01*
X483282Y-418364D01*
X483270Y-418361D01*
X481270Y-419861D01*
X481266Y-419875D01*
X481257Y-419876D01*
X480057Y-422076D01*
X480058Y-422083D01*
X480053Y-422087D01*
X480057Y-422093D01*
X480051Y-422098D01*
X479951Y-424198D01*
X479967Y-424221D01*
X479965Y-424235D01*
X481665Y-425935D01*
X481675Y-425936D01*
X481676Y-425943D01*
X484376Y-427443D01*
X484381Y-427442D01*
X484382Y-427446D01*
X486682Y-428346D01*
X486690Y-428344D01*
X486692Y-428349D01*
X489192Y-428749D01*
X489199Y-428745D01*
X489202Y-428749D01*
X491802Y-428649D01*
G37*
G36*
X580305Y-417549D02*
X580305Y-417549D01*
X580320Y-417535D01*
X580332Y-417537D01*
X581932Y-416137D01*
X581937Y-416113D01*
X581949Y-416106D01*
X582249Y-413706D01*
X582247Y-413702D01*
X582249Y-413700D01*
X582249Y-403100D01*
X582246Y-403096D01*
X582249Y-403093D01*
X581849Y-400193D01*
X581846Y-400190D01*
X581848Y-400188D01*
X581248Y-397788D01*
X581242Y-397784D01*
X581245Y-397779D01*
X580345Y-395879D01*
X580335Y-395874D01*
X580336Y-395866D01*
X578836Y-394266D01*
X578828Y-394265D01*
X578827Y-394259D01*
X576727Y-392859D01*
X576716Y-392860D01*
X576714Y-392853D01*
X574314Y-392153D01*
X574304Y-392156D01*
X574300Y-392151D01*
X571800Y-392151D01*
X571789Y-392159D01*
X571781Y-392155D01*
X569381Y-393155D01*
X569377Y-393161D01*
X569373Y-393159D01*
X567273Y-394559D01*
X567272Y-394561D01*
X567270Y-394561D01*
X565707Y-395733D01*
X564137Y-393967D01*
X564125Y-393965D01*
X564124Y-393957D01*
X562024Y-392757D01*
X562014Y-392759D01*
X562012Y-392752D01*
X559512Y-392152D01*
X559502Y-392156D01*
X559498Y-392151D01*
X556998Y-392251D01*
X556986Y-392261D01*
X556977Y-392256D01*
X554877Y-393356D01*
X554872Y-393367D01*
X554864Y-393366D01*
X553020Y-395307D01*
X552247Y-393084D01*
X552223Y-393068D01*
X552220Y-393055D01*
X550220Y-392155D01*
X550205Y-392159D01*
X550198Y-392151D01*
X547098Y-392251D01*
X547086Y-392261D01*
X547077Y-392256D01*
X545177Y-393256D01*
X545165Y-393282D01*
X545153Y-393287D01*
X544553Y-395487D01*
X544556Y-395496D01*
X544551Y-395500D01*
X544551Y-413400D01*
X544553Y-413403D01*
X544551Y-413404D01*
X544751Y-415804D01*
X544765Y-415820D01*
X544763Y-415832D01*
X546163Y-417432D01*
X546187Y-417437D01*
X546194Y-417449D01*
X549294Y-417849D01*
X549306Y-417842D01*
X549313Y-417848D01*
X551913Y-417148D01*
X551929Y-417127D01*
X551942Y-417126D01*
X553042Y-415326D01*
X553040Y-415307D01*
X553047Y-415302D01*
X553047Y-415301D01*
X553049Y-415300D01*
X553049Y-405203D01*
X553446Y-402424D01*
X555019Y-400950D01*
X557376Y-401048D01*
X558753Y-402720D01*
X559051Y-405503D01*
X559051Y-413100D01*
X559052Y-413101D01*
X559051Y-413102D01*
X559151Y-415602D01*
X559164Y-415618D01*
X559161Y-415630D01*
X560461Y-417330D01*
X560485Y-417337D01*
X560491Y-417348D01*
X563291Y-417848D01*
X563301Y-417843D01*
X563307Y-417849D01*
X566207Y-417449D01*
X566226Y-417430D01*
X566239Y-417430D01*
X567539Y-415730D01*
X567539Y-415712D01*
X567549Y-415706D01*
X567849Y-413306D01*
X567847Y-413302D01*
X567849Y-413300D01*
X567849Y-405701D01*
X567949Y-402914D01*
X568930Y-401147D01*
X571483Y-400951D01*
X573055Y-402326D01*
X573551Y-405104D01*
X573551Y-412700D01*
X573552Y-412701D01*
X573551Y-412702D01*
X573651Y-415202D01*
X573661Y-415214D01*
X573656Y-415223D01*
X574656Y-417123D01*
X574682Y-417135D01*
X574687Y-417147D01*
X577187Y-417847D01*
X577199Y-417843D01*
X577205Y-417849D01*
X580305Y-417549D01*
G37*
G36*
X677202Y-364846D02*
X677202Y-364846D01*
X677205Y-364849D01*
X679305Y-364649D01*
X679310Y-364644D01*
X679314Y-364647D01*
X681314Y-364047D01*
X681317Y-364044D01*
X681319Y-364045D01*
X683219Y-363245D01*
X683222Y-363240D01*
X683227Y-363241D01*
X684927Y-362141D01*
X684929Y-362135D01*
X684934Y-362136D01*
X686534Y-360636D01*
X686534Y-360634D01*
X686536Y-360634D01*
X688036Y-359034D01*
X688037Y-359027D01*
X688041Y-359027D01*
X689141Y-357327D01*
X689141Y-357322D01*
X689145Y-357321D01*
X690045Y-355421D01*
X690044Y-355417D01*
X690047Y-355416D01*
X690747Y-353416D01*
X690744Y-353409D01*
X690749Y-353407D01*
X691049Y-351307D01*
X691047Y-351304D01*
X691049Y-351302D01*
X691149Y-349102D01*
X691147Y-349099D01*
X691149Y-349098D01*
X691049Y-346998D01*
X691045Y-346992D01*
X691048Y-346989D01*
X690548Y-344889D01*
X690544Y-344886D01*
X690546Y-344883D01*
X689846Y-342983D01*
X689841Y-342980D01*
X689843Y-342976D01*
X688843Y-341176D01*
X688838Y-341174D01*
X688839Y-341170D01*
X687539Y-339470D01*
X687533Y-339468D01*
X687534Y-339464D01*
X685934Y-337964D01*
X685930Y-337964D01*
X685930Y-337961D01*
X684230Y-336661D01*
X684226Y-336661D01*
X684226Y-336658D01*
X682426Y-335558D01*
X682419Y-335559D01*
X682417Y-335554D01*
X680517Y-334854D01*
X680511Y-334856D01*
X680509Y-334852D01*
X678409Y-334452D01*
X678406Y-334453D01*
X678405Y-334451D01*
X676305Y-334251D01*
X676299Y-334254D01*
X676297Y-334251D01*
X674897Y-334351D01*
X674894Y-334353D01*
X674893Y-334351D01*
X672893Y-334651D01*
X672888Y-334656D01*
X672884Y-334654D01*
X670884Y-335354D01*
X670882Y-335357D01*
X670879Y-335356D01*
X668979Y-336256D01*
X668976Y-336261D01*
X668972Y-336260D01*
X667272Y-337460D01*
X667270Y-337464D01*
X667268Y-337463D01*
X665668Y-338863D01*
X665666Y-338869D01*
X665662Y-338869D01*
X664362Y-340469D01*
X664362Y-340476D01*
X664356Y-340477D01*
X663356Y-342377D01*
X663357Y-342380D01*
X663355Y-342381D01*
X662555Y-344281D01*
X662556Y-344285D01*
X662553Y-344286D01*
X661953Y-346386D01*
X661955Y-346393D01*
X661951Y-346395D01*
X661751Y-348495D01*
X661752Y-348497D01*
X661751Y-348498D01*
X661651Y-350598D01*
X661655Y-350603D01*
X661651Y-350607D01*
X661951Y-352807D01*
X661954Y-352810D01*
X661952Y-352812D01*
X662452Y-354812D01*
X662457Y-354816D01*
X662455Y-354820D01*
X663255Y-356620D01*
X663298Y-356643D01*
X663274Y-356658D01*
X663253Y-356714D01*
X663262Y-356717D01*
X663259Y-356727D01*
X664359Y-358427D01*
X664363Y-358428D01*
X664362Y-358431D01*
X665762Y-360131D01*
X665767Y-360132D01*
X665766Y-360136D01*
X667366Y-361636D01*
X667371Y-361636D01*
X667372Y-361640D01*
X669072Y-362840D01*
X669076Y-362840D01*
X669077Y-362844D01*
X670977Y-363844D01*
X670984Y-363843D01*
X670985Y-363847D01*
X672885Y-364447D01*
X672891Y-364445D01*
X672893Y-364449D01*
X674993Y-364749D01*
X674996Y-364747D01*
X674998Y-364749D01*
X677198Y-364849D01*
X677202Y-364846D01*
G37*
G36*
X-592964Y-395860D02*
X-592964Y-395860D01*
X-592913Y-395858D01*
X-592881Y-395840D01*
X-592845Y-395832D01*
X-592806Y-395799D01*
X-592761Y-395775D01*
X-592740Y-395745D01*
X-592712Y-395722D01*
X-592691Y-395675D01*
X-592661Y-395633D01*
X-592653Y-395591D01*
X-592641Y-395563D01*
X-592642Y-395533D01*
X-592634Y-395491D01*
X-592634Y-376398D01*
X-592535Y-373727D01*
X-592143Y-371183D01*
X-591368Y-368953D01*
X-590206Y-367017D01*
X-588768Y-365387D01*
X-586856Y-364240D01*
X-584436Y-363465D01*
X-581595Y-363171D01*
X-579945Y-363171D01*
X-579377Y-363266D01*
X-579350Y-363264D01*
X-579314Y-363271D01*
X-578852Y-363271D01*
X-577897Y-363462D01*
X-577506Y-363560D01*
X-577496Y-363560D01*
X-577486Y-363564D01*
X-577410Y-363561D01*
X-577333Y-363563D01*
X-577324Y-363558D01*
X-577313Y-363558D01*
X-577246Y-363521D01*
X-577177Y-363488D01*
X-577170Y-363480D01*
X-577161Y-363475D01*
X-577117Y-363412D01*
X-577069Y-363352D01*
X-577067Y-363342D01*
X-577061Y-363333D01*
X-577046Y-363254D01*
X-577041Y-363242D01*
X-577041Y-363229D01*
X-577034Y-363191D01*
X-577034Y-352391D01*
X-577051Y-352316D01*
X-577065Y-352241D01*
X-577071Y-352232D01*
X-577073Y-352222D01*
X-577122Y-352163D01*
X-577168Y-352101D01*
X-577178Y-352096D01*
X-577183Y-352089D01*
X-577217Y-352074D01*
X-577294Y-352030D01*
X-578494Y-351630D01*
X-578531Y-351627D01*
X-578614Y-351611D01*
X-579914Y-351611D01*
X-579922Y-351613D01*
X-579931Y-351611D01*
X-582131Y-351711D01*
X-582160Y-351719D01*
X-582202Y-351721D01*
X-584302Y-352221D01*
X-584324Y-352232D01*
X-584355Y-352238D01*
X-586355Y-353038D01*
X-586378Y-353054D01*
X-586412Y-353067D01*
X-588212Y-354167D01*
X-588225Y-354179D01*
X-588245Y-354189D01*
X-589945Y-355489D01*
X-589959Y-355506D01*
X-589983Y-355522D01*
X-591483Y-357022D01*
X-591497Y-357044D01*
X-591522Y-357068D01*
X-592822Y-358868D01*
X-592831Y-358890D01*
X-592851Y-358914D01*
X-593134Y-359452D01*
X-593134Y-353091D01*
X-593151Y-353016D01*
X-593165Y-352939D01*
X-593171Y-352932D01*
X-593173Y-352922D01*
X-593223Y-352862D01*
X-593269Y-352800D01*
X-593277Y-352796D01*
X-593283Y-352789D01*
X-593354Y-352757D01*
X-593423Y-352722D01*
X-593434Y-352721D01*
X-593442Y-352718D01*
X-593477Y-352719D01*
X-593568Y-352715D01*
X-594968Y-352915D01*
X-594979Y-352919D01*
X-594994Y-352919D01*
X-596381Y-353216D01*
X-597768Y-353415D01*
X-597779Y-353419D01*
X-597794Y-353419D01*
X-599183Y-353717D01*
X-600472Y-353915D01*
X-600481Y-353919D01*
X-600494Y-353919D01*
X-601881Y-354216D01*
X-603268Y-354415D01*
X-603279Y-354419D01*
X-603294Y-354419D01*
X-604694Y-354719D01*
X-604700Y-354722D01*
X-604707Y-354722D01*
X-604778Y-354759D01*
X-604850Y-354793D01*
X-604855Y-354799D01*
X-604861Y-354802D01*
X-604908Y-354866D01*
X-604958Y-354929D01*
X-604959Y-354936D01*
X-604964Y-354942D01*
X-604994Y-355083D01*
X-605094Y-360083D01*
X-605093Y-360087D01*
X-605094Y-360091D01*
X-605094Y-395491D01*
X-605083Y-395541D01*
X-605081Y-395592D01*
X-605063Y-395624D01*
X-605055Y-395660D01*
X-605022Y-395699D01*
X-604998Y-395744D01*
X-604968Y-395765D01*
X-604945Y-395793D01*
X-604898Y-395814D01*
X-604856Y-395844D01*
X-604814Y-395852D01*
X-604786Y-395864D01*
X-604756Y-395863D01*
X-604714Y-395871D01*
X-593014Y-395871D01*
X-592964Y-395860D01*
G37*
G36*
X402513Y-417837D02*
X402513Y-417837D01*
X402526Y-417842D01*
X404626Y-416542D01*
X404633Y-416525D01*
X404644Y-416523D01*
X405844Y-414223D01*
X405843Y-414221D01*
X405844Y-414221D01*
X406944Y-411922D01*
X408030Y-409749D01*
X420800Y-409749D01*
X420803Y-409747D01*
X420806Y-409749D01*
X420810Y-409741D01*
X420847Y-409713D01*
X420836Y-409698D01*
X420841Y-409688D01*
X420855Y-409719D01*
X420864Y-409724D01*
X420862Y-409731D01*
X422258Y-411427D01*
X423356Y-413721D01*
X423356Y-413722D01*
X424556Y-416122D01*
X424568Y-416128D01*
X424567Y-416137D01*
X426367Y-417737D01*
X426395Y-417739D01*
X426404Y-417749D01*
X428704Y-417549D01*
X428716Y-417539D01*
X428725Y-417542D01*
X431425Y-415942D01*
X431431Y-415927D01*
X431442Y-415926D01*
X432642Y-414026D01*
X432641Y-414022D01*
X432643Y-414021D01*
X432641Y-414019D01*
X432639Y-413999D01*
X432648Y-413989D01*
X432148Y-411789D01*
X432143Y-411785D01*
X432145Y-411780D01*
X431045Y-409280D01*
X431044Y-409279D01*
X431044Y-409278D01*
X418744Y-383978D01*
X418739Y-383976D01*
X418740Y-383971D01*
X417740Y-382571D01*
X417725Y-382567D01*
X417723Y-382556D01*
X415623Y-381456D01*
X415609Y-381459D01*
X415605Y-381454D01*
X415594Y-381454D01*
X415592Y-381451D01*
X413092Y-381851D01*
X413080Y-381864D01*
X413069Y-381862D01*
X411069Y-383462D01*
X411066Y-383475D01*
X411057Y-383476D01*
X409857Y-385676D01*
X409857Y-385678D01*
X409856Y-385679D01*
X397556Y-411079D01*
X397557Y-411084D01*
X397553Y-411085D01*
X396753Y-413585D01*
X396759Y-413600D01*
X396758Y-413600D01*
X396759Y-413601D01*
X396761Y-413608D01*
X396755Y-413619D01*
X397555Y-415519D01*
X397573Y-415530D01*
X397574Y-415542D01*
X400174Y-417142D01*
X400183Y-417141D01*
X400186Y-417147D01*
X402486Y-417847D01*
X402513Y-417837D01*
G37*
G36*
X200402Y-417749D02*
X200402Y-417749D01*
X200406Y-417745D01*
X200410Y-417748D01*
X202910Y-417248D01*
X202914Y-417243D01*
X202918Y-417246D01*
X205218Y-416346D01*
X205221Y-416341D01*
X205225Y-416342D01*
X207425Y-415042D01*
X207428Y-415036D01*
X207433Y-415037D01*
X209233Y-413437D01*
X209235Y-413427D01*
X209242Y-413426D01*
X210642Y-411226D01*
X210641Y-411218D01*
X210642Y-411218D01*
X210647Y-411216D01*
X211447Y-408916D01*
X211444Y-408907D01*
X211449Y-408904D01*
X211649Y-406304D01*
X211646Y-406299D01*
X211649Y-406296D01*
X211449Y-403596D01*
X211444Y-403591D01*
X211447Y-403586D01*
X210747Y-401186D01*
X210739Y-401180D01*
X210741Y-401173D01*
X209341Y-399073D01*
X209330Y-399069D01*
X209331Y-399061D01*
X207431Y-397561D01*
X207420Y-397561D01*
X207419Y-397554D01*
X205219Y-396654D01*
X205215Y-396655D01*
X205214Y-396653D01*
X202614Y-395853D01*
X202613Y-395853D01*
X202613Y-395852D01*
X197718Y-394554D01*
X195544Y-393368D01*
X195053Y-391013D01*
X196427Y-389345D01*
X198995Y-388851D01*
X201277Y-389744D01*
X203472Y-391241D01*
X203488Y-391240D01*
X203493Y-391249D01*
X205693Y-391549D01*
X205715Y-391537D01*
X205727Y-391541D01*
X207727Y-390241D01*
X207732Y-390227D01*
X207741Y-390227D01*
X209341Y-387727D01*
X209341Y-387722D01*
X209342Y-387722D01*
X209341Y-387720D01*
X209340Y-387709D01*
X209349Y-387703D01*
X209449Y-385803D01*
X209434Y-385780D01*
X209436Y-385766D01*
X207536Y-383766D01*
X207530Y-383765D01*
X207530Y-383761D01*
X205830Y-382461D01*
X205818Y-382461D01*
X205816Y-382453D01*
X203116Y-381553D01*
X203111Y-381555D01*
X203110Y-381552D01*
X200710Y-381052D01*
X200704Y-381054D01*
X200702Y-381051D01*
X198002Y-380951D01*
X197998Y-380953D01*
X197996Y-380951D01*
X195296Y-381151D01*
X195291Y-381156D01*
X195287Y-381153D01*
X192787Y-381853D01*
X192782Y-381859D01*
X192777Y-381856D01*
X190677Y-382956D01*
X190673Y-382965D01*
X190666Y-382964D01*
X188866Y-384664D01*
X188865Y-384672D01*
X188860Y-384672D01*
X187460Y-386672D01*
X187460Y-386680D01*
X187454Y-386682D01*
X186554Y-388982D01*
X186556Y-388990D01*
X186551Y-388992D01*
X186151Y-391492D01*
X186156Y-391501D01*
X186151Y-391506D01*
X186451Y-394106D01*
X186456Y-394111D01*
X186453Y-394116D01*
X187253Y-396516D01*
X187261Y-396521D01*
X187259Y-396527D01*
X188659Y-398627D01*
X188669Y-398631D01*
X188668Y-398638D01*
X190568Y-400238D01*
X190577Y-400238D01*
X190578Y-400244D01*
X192778Y-401344D01*
X192782Y-401343D01*
X192783Y-401346D01*
X195183Y-402246D01*
X195186Y-402245D01*
X195187Y-402247D01*
X197687Y-402947D01*
X197689Y-402946D01*
X197690Y-402948D01*
X200184Y-403447D01*
X202358Y-404534D01*
X202947Y-406793D01*
X201866Y-408660D01*
X199494Y-409550D01*
X196917Y-409252D01*
X194630Y-407761D01*
X192432Y-405863D01*
X192421Y-405862D01*
X192419Y-405855D01*
X190519Y-405055D01*
X190496Y-405061D01*
X190486Y-405053D01*
X188186Y-405753D01*
X188175Y-405768D01*
X188164Y-405767D01*
X186164Y-407967D01*
X186162Y-407979D01*
X186153Y-407986D01*
X186155Y-407988D01*
X186152Y-407990D01*
X185752Y-409890D01*
X185762Y-409911D01*
X185756Y-409923D01*
X186956Y-412223D01*
X186964Y-412227D01*
X186963Y-412233D01*
X188463Y-413933D01*
X188471Y-413934D01*
X188471Y-413940D01*
X190671Y-415540D01*
X190674Y-415540D01*
X190674Y-415542D01*
X192774Y-416842D01*
X192784Y-416841D01*
X192787Y-416847D01*
X195287Y-417547D01*
X195292Y-417545D01*
X195294Y-417549D01*
X197794Y-417849D01*
X197799Y-417846D01*
X197802Y-417849D01*
X200402Y-417749D01*
G37*
G36*
X371710Y-364448D02*
X371710Y-364448D01*
X371717Y-364440D01*
X371724Y-364443D01*
X374024Y-363143D01*
X374033Y-363123D01*
X374045Y-363121D01*
X374745Y-361621D01*
X374743Y-361615D01*
X374747Y-361612D01*
X374741Y-361604D01*
X374740Y-361597D01*
X374747Y-361586D01*
X374147Y-359486D01*
X374144Y-359484D01*
X374145Y-359481D01*
X373646Y-358281D01*
X372746Y-356081D01*
X372745Y-356081D01*
X372745Y-356080D01*
X371947Y-354285D01*
X371653Y-352814D01*
X373037Y-351232D01*
X373038Y-351223D01*
X373044Y-351222D01*
X373944Y-349422D01*
X373943Y-349414D01*
X373948Y-349411D01*
X374448Y-347311D01*
X374445Y-347305D01*
X374449Y-347302D01*
X374549Y-345102D01*
X374545Y-345097D01*
X374549Y-345093D01*
X374249Y-342893D01*
X374243Y-342888D01*
X374246Y-342883D01*
X373546Y-340983D01*
X373540Y-340979D01*
X373542Y-340974D01*
X372342Y-339074D01*
X372334Y-339071D01*
X372335Y-339065D01*
X370935Y-337665D01*
X370929Y-337664D01*
X370929Y-337660D01*
X369029Y-336260D01*
X369022Y-336260D01*
X369021Y-336256D01*
X367121Y-335356D01*
X367114Y-335357D01*
X367112Y-335352D01*
X365112Y-334852D01*
X365105Y-334855D01*
X365102Y-334851D01*
X363102Y-334751D01*
X363101Y-334752D01*
X363100Y-334751D01*
X354400Y-334751D01*
X354393Y-334756D01*
X354389Y-334752D01*
X352289Y-335252D01*
X352271Y-335274D01*
X352257Y-335276D01*
X351357Y-336876D01*
X351359Y-336893D01*
X351351Y-336900D01*
X351351Y-360300D01*
X351352Y-360301D01*
X351351Y-360302D01*
X351451Y-362502D01*
X351460Y-362513D01*
X351455Y-362521D01*
X352155Y-364021D01*
X352182Y-364035D01*
X352187Y-364048D01*
X354387Y-364648D01*
X354398Y-364643D01*
X354404Y-364649D01*
X357004Y-364449D01*
X357021Y-364434D01*
X357033Y-364436D01*
X358333Y-363236D01*
X358337Y-363213D01*
X358349Y-363207D01*
X358649Y-361207D01*
X358646Y-361202D01*
X358649Y-361200D01*
X358649Y-356936D01*
X360208Y-356449D01*
X364374Y-356449D01*
X365956Y-358724D01*
X366954Y-361218D01*
X366955Y-361219D01*
X366954Y-361219D01*
X367654Y-362919D01*
X367657Y-362920D01*
X367656Y-362922D01*
X368056Y-363722D01*
X368072Y-363730D01*
X368073Y-363741D01*
X369773Y-364841D01*
X369800Y-364839D01*
X369810Y-364848D01*
X371710Y-364448D01*
G37*
G36*
X253210Y-364448D02*
X253210Y-364448D01*
X253218Y-364439D01*
X253225Y-364442D01*
X255425Y-363142D01*
X255432Y-363125D01*
X255443Y-363123D01*
X256243Y-361623D01*
X256242Y-361616D01*
X256247Y-361612D01*
X256240Y-361603D01*
X256239Y-361596D01*
X256247Y-361584D01*
X255547Y-359484D01*
X255544Y-359483D01*
X255545Y-359481D01*
X255046Y-358281D01*
X254146Y-356081D01*
X254145Y-356081D01*
X254145Y-356080D01*
X253348Y-354286D01*
X253152Y-352815D01*
X254438Y-351231D01*
X254439Y-351223D01*
X254444Y-351222D01*
X255344Y-349422D01*
X255343Y-349414D01*
X255348Y-349411D01*
X255848Y-347311D01*
X255845Y-347305D01*
X255849Y-347302D01*
X255949Y-345102D01*
X255945Y-345097D01*
X255949Y-345093D01*
X255649Y-342893D01*
X255643Y-342888D01*
X255646Y-342883D01*
X254946Y-340983D01*
X254941Y-340980D01*
X254943Y-340975D01*
X253843Y-339075D01*
X253833Y-339071D01*
X253834Y-339064D01*
X252334Y-337664D01*
X252330Y-337664D01*
X252330Y-337661D01*
X250530Y-336261D01*
X250522Y-336261D01*
X250520Y-336255D01*
X248520Y-335355D01*
X248514Y-335356D01*
X248513Y-335352D01*
X246613Y-334852D01*
X246606Y-334855D01*
X246602Y-334851D01*
X244602Y-334751D01*
X244601Y-334752D01*
X244600Y-334751D01*
X235900Y-334751D01*
X235894Y-334756D01*
X235889Y-334752D01*
X233689Y-335252D01*
X233669Y-335275D01*
X233656Y-335278D01*
X232856Y-336878D01*
X232859Y-336894D01*
X232851Y-336900D01*
X232851Y-360300D01*
X232852Y-360301D01*
X232851Y-360302D01*
X232951Y-362502D01*
X232960Y-362513D01*
X232955Y-362521D01*
X233655Y-364021D01*
X233682Y-364035D01*
X233686Y-364047D01*
X235786Y-364647D01*
X235798Y-364643D01*
X235804Y-364649D01*
X238504Y-364449D01*
X238521Y-364434D01*
X238533Y-364436D01*
X239833Y-363236D01*
X239837Y-363213D01*
X239849Y-363207D01*
X240149Y-361207D01*
X240146Y-361202D01*
X240149Y-361200D01*
X240149Y-356936D01*
X241608Y-356449D01*
X245873Y-356449D01*
X247357Y-358723D01*
X248455Y-361220D01*
X249154Y-362919D01*
X249157Y-362920D01*
X249156Y-362922D01*
X249556Y-363722D01*
X249572Y-363730D01*
X249572Y-363741D01*
X251172Y-364841D01*
X251200Y-364839D01*
X251210Y-364848D01*
X253210Y-364448D01*
G37*
G36*
X415109Y-364841D02*
X415109Y-364841D01*
X415117Y-364846D01*
X417017Y-364146D01*
X417032Y-364123D01*
X417045Y-364120D01*
X417745Y-362520D01*
X417742Y-362506D01*
X417749Y-362500D01*
X417749Y-348145D01*
X422561Y-354430D01*
X428961Y-362830D01*
X428965Y-362831D01*
X428964Y-362834D01*
X430664Y-364634D01*
X430688Y-364638D01*
X430695Y-364649D01*
X432795Y-364849D01*
X432802Y-364845D01*
X432806Y-364849D01*
X435306Y-364549D01*
X435324Y-364531D01*
X435338Y-364532D01*
X436438Y-363232D01*
X436439Y-363213D01*
X436449Y-363207D01*
X436749Y-361207D01*
X436746Y-361202D01*
X436749Y-361200D01*
X436749Y-337800D01*
X436742Y-337791D01*
X436747Y-337784D01*
X436147Y-335984D01*
X436125Y-335970D01*
X436123Y-335956D01*
X434423Y-335056D01*
X434409Y-335059D01*
X434404Y-335053D01*
X434402Y-335051D01*
X432102Y-334951D01*
X432097Y-334955D01*
X432088Y-334955D01*
X432085Y-334953D01*
X430185Y-335553D01*
X430166Y-335580D01*
X430153Y-335584D01*
X429553Y-337384D01*
X429557Y-337394D01*
X429551Y-337398D01*
X429451Y-339698D01*
X429452Y-339699D01*
X429451Y-339700D01*
X429451Y-352153D01*
X427039Y-348970D01*
X424639Y-345770D01*
X418340Y-337071D01*
X418333Y-337069D01*
X418334Y-337064D01*
X416834Y-335664D01*
X416819Y-335663D01*
X416816Y-335654D01*
X414816Y-334954D01*
X414811Y-334955D01*
X414799Y-334955D01*
X414796Y-334951D01*
X412596Y-335151D01*
X412582Y-335163D01*
X412572Y-335159D01*
X410972Y-336259D01*
X410963Y-336286D01*
X410951Y-336293D01*
X410651Y-338293D01*
X410654Y-338298D01*
X410651Y-338300D01*
X410651Y-361600D01*
X410654Y-361604D01*
X410651Y-361607D01*
X410951Y-363607D01*
X410970Y-363626D01*
X410970Y-363639D01*
X412270Y-364639D01*
X412290Y-364639D01*
X412297Y-364649D01*
X415097Y-364849D01*
X415109Y-364841D01*
G37*
G36*
X702509Y-364841D02*
X702509Y-364841D01*
X702517Y-364846D01*
X704417Y-364146D01*
X704432Y-364123D01*
X704445Y-364120D01*
X705145Y-362520D01*
X705142Y-362506D01*
X705149Y-362500D01*
X705149Y-349802D01*
X705242Y-348136D01*
X710061Y-354430D01*
X716461Y-362830D01*
X716465Y-362831D01*
X716464Y-362834D01*
X718164Y-364634D01*
X718188Y-364638D01*
X718195Y-364649D01*
X720195Y-364849D01*
X720202Y-364845D01*
X720206Y-364849D01*
X722706Y-364549D01*
X722723Y-364532D01*
X722736Y-364533D01*
X723936Y-363233D01*
X723938Y-363213D01*
X723949Y-363207D01*
X724249Y-361207D01*
X724246Y-361202D01*
X724249Y-361200D01*
X724249Y-340100D01*
X724248Y-340099D01*
X724249Y-340098D01*
X724149Y-337798D01*
X724143Y-337790D01*
X724147Y-337784D01*
X723547Y-335984D01*
X723525Y-335970D01*
X723523Y-335956D01*
X721823Y-335056D01*
X721809Y-335059D01*
X721804Y-335053D01*
X721802Y-335051D01*
X719502Y-334951D01*
X719497Y-334955D01*
X719488Y-334955D01*
X719485Y-334953D01*
X717585Y-335553D01*
X717566Y-335580D01*
X717553Y-335584D01*
X716953Y-337384D01*
X716957Y-337395D01*
X716951Y-337400D01*
X716951Y-352160D01*
X715439Y-350270D01*
X713340Y-347471D01*
X709140Y-341771D01*
X705740Y-337071D01*
X705734Y-337069D01*
X705735Y-337065D01*
X704335Y-335665D01*
X704319Y-335663D01*
X704316Y-335654D01*
X702316Y-334954D01*
X702311Y-334955D01*
X702299Y-334955D01*
X702296Y-334951D01*
X699996Y-335151D01*
X699983Y-335163D01*
X699972Y-335159D01*
X698372Y-336259D01*
X698363Y-336286D01*
X698351Y-336293D01*
X698051Y-338293D01*
X698054Y-338298D01*
X698051Y-338300D01*
X698051Y-361600D01*
X698054Y-361604D01*
X698051Y-361607D01*
X698351Y-363607D01*
X698370Y-363626D01*
X698370Y-363639D01*
X699670Y-364639D01*
X699690Y-364639D01*
X699697Y-364649D01*
X702497Y-364849D01*
X702509Y-364841D01*
G37*
G36*
X314121Y-417634D02*
X314121Y-417634D01*
X314134Y-417636D01*
X316134Y-415736D01*
X316136Y-415725D01*
X316143Y-415724D01*
X317543Y-413224D01*
X317540Y-413200D01*
X317548Y-413190D01*
X317148Y-411190D01*
X317132Y-411176D01*
X317133Y-411163D01*
X315133Y-409363D01*
X315131Y-409363D01*
X315131Y-409362D01*
X309277Y-404599D01*
X313132Y-401338D01*
X313132Y-401335D01*
X313134Y-401336D01*
X315234Y-399336D01*
X315237Y-399317D01*
X315248Y-399313D01*
X315748Y-397413D01*
X315738Y-397389D01*
X315744Y-397377D01*
X314544Y-395077D01*
X314533Y-395072D01*
X314534Y-395064D01*
X312434Y-393064D01*
X312408Y-393061D01*
X312400Y-393051D01*
X310400Y-393051D01*
X310384Y-393063D01*
X310373Y-393059D01*
X308073Y-394559D01*
X308072Y-394563D01*
X308069Y-394562D01*
X306369Y-395962D01*
X306368Y-395965D01*
X306366Y-395964D01*
X304069Y-398161D01*
X302649Y-399108D01*
X302649Y-383900D01*
X302647Y-383898D01*
X302649Y-383896D01*
X302449Y-381296D01*
X302432Y-381276D01*
X302432Y-381263D01*
X300832Y-379863D01*
X300810Y-379861D01*
X300803Y-379851D01*
X297703Y-379651D01*
X297693Y-379657D01*
X297687Y-379653D01*
X295187Y-380353D01*
X295170Y-380375D01*
X295156Y-380377D01*
X294156Y-382277D01*
X294159Y-382294D01*
X294151Y-382300D01*
X294151Y-415300D01*
X294164Y-415317D01*
X294160Y-415329D01*
X295460Y-417129D01*
X295487Y-417137D01*
X295494Y-417149D01*
X298494Y-417549D01*
X298503Y-417543D01*
X298509Y-417548D01*
X301309Y-417048D01*
X301327Y-417029D01*
X301340Y-417028D01*
X302540Y-415328D01*
X302540Y-415309D01*
X302549Y-415302D01*
X302649Y-412802D01*
X302648Y-412801D01*
X302649Y-412800D01*
X302649Y-410263D01*
X303775Y-410545D01*
X305866Y-412536D01*
X308166Y-414736D01*
X309666Y-416136D01*
X309675Y-416137D01*
X309675Y-416143D01*
X312075Y-417543D01*
X312092Y-417541D01*
X312098Y-417549D01*
X314098Y-417649D01*
X314121Y-417634D01*
G37*
G36*
X400001Y-364848D02*
X400001Y-364848D01*
X400002Y-364849D01*
X402202Y-364749D01*
X402213Y-364740D01*
X402221Y-364745D01*
X403721Y-364045D01*
X403735Y-364018D01*
X403747Y-364014D01*
X404347Y-361914D01*
X404345Y-361909D01*
X404347Y-361908D01*
X404343Y-361902D01*
X404349Y-361896D01*
X404149Y-359296D01*
X404135Y-359280D01*
X404138Y-359268D01*
X403038Y-357968D01*
X403015Y-357963D01*
X403010Y-357952D01*
X401010Y-357552D01*
X401003Y-357555D01*
X401000Y-357551D01*
X388249Y-357551D01*
X388249Y-355504D01*
X388542Y-353649D01*
X394800Y-353649D01*
X394801Y-353648D01*
X394802Y-353649D01*
X397102Y-353549D01*
X397110Y-353542D01*
X397116Y-353546D01*
X398816Y-352946D01*
X398830Y-352926D01*
X398842Y-352925D01*
X399842Y-351225D01*
X399842Y-351221D01*
X399843Y-351220D01*
X399842Y-351218D01*
X399840Y-351207D01*
X399849Y-351200D01*
X399849Y-348500D01*
X399839Y-348486D01*
X399843Y-348476D01*
X398943Y-346876D01*
X398918Y-346865D01*
X398913Y-346853D01*
X397113Y-346353D01*
X397104Y-346356D01*
X397100Y-346351D01*
X388542Y-346351D01*
X388249Y-344596D01*
X388249Y-342444D01*
X390102Y-342249D01*
X400700Y-342249D01*
X400703Y-342247D01*
X400705Y-342249D01*
X402805Y-342049D01*
X402822Y-342033D01*
X402835Y-342035D01*
X404035Y-340835D01*
X404038Y-340812D01*
X404049Y-340806D01*
X404349Y-338306D01*
X404344Y-338297D01*
X404349Y-338292D01*
X403949Y-335992D01*
X403926Y-335971D01*
X403924Y-335957D01*
X402324Y-335057D01*
X402309Y-335059D01*
X402304Y-335053D01*
X402302Y-335051D01*
X400202Y-334951D01*
X400201Y-334952D01*
X400200Y-334951D01*
X385400Y-334951D01*
X385399Y-334952D01*
X385398Y-334951D01*
X382998Y-335051D01*
X382984Y-335062D01*
X382973Y-335059D01*
X381573Y-335959D01*
X381565Y-335983D01*
X381552Y-335988D01*
X381052Y-337988D01*
X381054Y-337993D01*
X381052Y-337995D01*
X381053Y-337996D01*
X381051Y-337998D01*
X380951Y-340198D01*
X380952Y-340199D01*
X380951Y-340200D01*
X380951Y-361500D01*
X380954Y-361504D01*
X380951Y-361507D01*
X381251Y-363507D01*
X381269Y-363525D01*
X381268Y-363538D01*
X382568Y-364638D01*
X382589Y-364639D01*
X382596Y-364649D01*
X385096Y-364849D01*
X385099Y-364847D01*
X385100Y-364849D01*
X400000Y-364849D01*
X400001Y-364848D01*
G37*
G36*
X493901Y-364848D02*
X493901Y-364848D01*
X493902Y-364849D01*
X496102Y-364749D01*
X496112Y-364741D01*
X496120Y-364745D01*
X497720Y-364045D01*
X497735Y-364018D01*
X497747Y-364014D01*
X498347Y-361914D01*
X498345Y-361909D01*
X498347Y-361908D01*
X498343Y-361902D01*
X498349Y-361896D01*
X498149Y-359296D01*
X498135Y-359280D01*
X498138Y-359268D01*
X497038Y-357968D01*
X497015Y-357963D01*
X497010Y-357952D01*
X495010Y-357552D01*
X495003Y-357555D01*
X495000Y-357551D01*
X482249Y-357551D01*
X482249Y-355503D01*
X482444Y-353649D01*
X488800Y-353649D01*
X488801Y-353648D01*
X488802Y-353649D01*
X491102Y-353549D01*
X491110Y-353542D01*
X491116Y-353546D01*
X492816Y-352946D01*
X492830Y-352926D01*
X492842Y-352925D01*
X493842Y-351225D01*
X493842Y-351221D01*
X493843Y-351220D01*
X493842Y-351218D01*
X493840Y-351206D01*
X493849Y-351198D01*
X493749Y-348498D01*
X493740Y-348487D01*
X493744Y-348478D01*
X492944Y-346878D01*
X492918Y-346865D01*
X492913Y-346853D01*
X491113Y-346353D01*
X491104Y-346356D01*
X491100Y-346351D01*
X482542Y-346351D01*
X482249Y-344596D01*
X482249Y-342444D01*
X484102Y-342249D01*
X494700Y-342249D01*
X494703Y-342247D01*
X494705Y-342249D01*
X496805Y-342049D01*
X496822Y-342033D01*
X496835Y-342035D01*
X498035Y-340835D01*
X498038Y-340812D01*
X498049Y-340806D01*
X498349Y-338306D01*
X498343Y-338296D01*
X498348Y-338290D01*
X497848Y-335990D01*
X497827Y-335971D01*
X497825Y-335958D01*
X496325Y-335058D01*
X496309Y-335060D01*
X496305Y-335054D01*
X496302Y-335051D01*
X494202Y-334951D01*
X494201Y-334952D01*
X494200Y-334951D01*
X479400Y-334951D01*
X479399Y-334952D01*
X479398Y-334951D01*
X476998Y-335051D01*
X476984Y-335062D01*
X476973Y-335059D01*
X475573Y-335959D01*
X475565Y-335981D01*
X475553Y-335986D01*
X474953Y-337986D01*
X474955Y-337993D01*
X474953Y-337995D01*
X474954Y-337997D01*
X474951Y-338000D01*
X474951Y-361500D01*
X474954Y-361504D01*
X474951Y-361507D01*
X475251Y-363507D01*
X475269Y-363525D01*
X475268Y-363538D01*
X476568Y-364638D01*
X476589Y-364639D01*
X476596Y-364649D01*
X479096Y-364849D01*
X479099Y-364847D01*
X479100Y-364849D01*
X493900Y-364849D01*
X493901Y-364848D01*
G37*
G36*
X281401Y-364848D02*
X281401Y-364848D01*
X281402Y-364849D01*
X283602Y-364749D01*
X283613Y-364740D01*
X283621Y-364745D01*
X285121Y-364045D01*
X285134Y-364020D01*
X285147Y-364016D01*
X285847Y-361916D01*
X285845Y-361909D01*
X285847Y-361908D01*
X285843Y-361902D01*
X285849Y-361896D01*
X285649Y-359296D01*
X285635Y-359280D01*
X285638Y-359268D01*
X284538Y-357968D01*
X284515Y-357963D01*
X284510Y-357952D01*
X282510Y-357552D01*
X282503Y-357555D01*
X282500Y-357551D01*
X269749Y-357551D01*
X269749Y-355503D01*
X269944Y-353649D01*
X276300Y-353649D01*
X276301Y-353648D01*
X276302Y-353649D01*
X278602Y-353549D01*
X278610Y-353542D01*
X278616Y-353546D01*
X280316Y-352946D01*
X280330Y-352925D01*
X280344Y-352923D01*
X281244Y-351223D01*
X281243Y-351221D01*
X281244Y-351220D01*
X281243Y-351219D01*
X281241Y-351206D01*
X281249Y-351200D01*
X281249Y-348500D01*
X281239Y-348486D01*
X281243Y-348476D01*
X280343Y-346876D01*
X280318Y-346865D01*
X280313Y-346853D01*
X278513Y-346353D01*
X278504Y-346356D01*
X278500Y-346351D01*
X270042Y-346351D01*
X269749Y-344596D01*
X269749Y-342444D01*
X271503Y-342249D01*
X282100Y-342249D01*
X282103Y-342247D01*
X282104Y-342249D01*
X284304Y-342049D01*
X284322Y-342033D01*
X284335Y-342035D01*
X285535Y-340835D01*
X285538Y-340812D01*
X285549Y-340806D01*
X285849Y-338306D01*
X285843Y-338296D01*
X285848Y-338290D01*
X285348Y-335990D01*
X285327Y-335971D01*
X285325Y-335958D01*
X283825Y-335058D01*
X283809Y-335060D01*
X283805Y-335054D01*
X283802Y-335051D01*
X281702Y-334951D01*
X281701Y-334952D01*
X281700Y-334951D01*
X266900Y-334951D01*
X266899Y-334952D01*
X266898Y-334951D01*
X264498Y-335051D01*
X264485Y-335062D01*
X264475Y-335058D01*
X262975Y-335958D01*
X262965Y-335983D01*
X262952Y-335988D01*
X262452Y-337988D01*
X262454Y-337993D01*
X262453Y-337995D01*
X262454Y-337997D01*
X262451Y-338000D01*
X262451Y-361500D01*
X262454Y-361504D01*
X262451Y-361507D01*
X262751Y-363507D01*
X262769Y-363525D01*
X262768Y-363538D01*
X264068Y-364638D01*
X264089Y-364639D01*
X264096Y-364649D01*
X266596Y-364849D01*
X266599Y-364847D01*
X266600Y-364849D01*
X281400Y-364849D01*
X281401Y-364848D01*
G37*
G36*
X340701Y-364848D02*
X340701Y-364848D01*
X340702Y-364849D01*
X342902Y-364749D01*
X342913Y-364740D01*
X342921Y-364745D01*
X344421Y-364045D01*
X344435Y-364018D01*
X344447Y-364014D01*
X345047Y-361914D01*
X345045Y-361909D01*
X345047Y-361908D01*
X345043Y-361902D01*
X345049Y-361896D01*
X344849Y-359296D01*
X344836Y-359281D01*
X344839Y-359270D01*
X343839Y-357970D01*
X343815Y-357963D01*
X343809Y-357952D01*
X341709Y-357552D01*
X341703Y-357555D01*
X341700Y-357551D01*
X329049Y-357551D01*
X329049Y-355503D01*
X329244Y-353649D01*
X335500Y-353649D01*
X335501Y-353648D01*
X335502Y-353649D01*
X337802Y-353549D01*
X337810Y-353542D01*
X337816Y-353546D01*
X339516Y-352946D01*
X339530Y-352926D01*
X339542Y-352925D01*
X340542Y-351225D01*
X340542Y-351221D01*
X340543Y-351220D01*
X340542Y-351218D01*
X340540Y-351207D01*
X340549Y-351200D01*
X340549Y-348500D01*
X340539Y-348486D01*
X340543Y-348476D01*
X339643Y-346876D01*
X339618Y-346865D01*
X339613Y-346853D01*
X337813Y-346353D01*
X337804Y-346356D01*
X337800Y-346351D01*
X329342Y-346351D01*
X329049Y-344596D01*
X329049Y-342444D01*
X330803Y-342249D01*
X341400Y-342249D01*
X341403Y-342247D01*
X341405Y-342249D01*
X343505Y-342049D01*
X343522Y-342033D01*
X343535Y-342035D01*
X344735Y-340835D01*
X344738Y-340814D01*
X344749Y-340808D01*
X345149Y-338308D01*
X345142Y-338296D01*
X345148Y-338290D01*
X344648Y-335990D01*
X344627Y-335971D01*
X344625Y-335958D01*
X343125Y-335058D01*
X343109Y-335060D01*
X343105Y-335054D01*
X343102Y-335051D01*
X341002Y-334951D01*
X341001Y-334952D01*
X341000Y-334951D01*
X326100Y-334951D01*
X326099Y-334952D01*
X326098Y-334951D01*
X323798Y-335051D01*
X323785Y-335062D01*
X323775Y-335058D01*
X322275Y-335958D01*
X322265Y-335983D01*
X322252Y-335988D01*
X321752Y-337988D01*
X321754Y-337993D01*
X321753Y-337995D01*
X321754Y-337997D01*
X321751Y-338000D01*
X321751Y-361500D01*
X321753Y-361503D01*
X321751Y-361505D01*
X321951Y-363505D01*
X321970Y-363525D01*
X321970Y-363539D01*
X323370Y-364639D01*
X323390Y-364639D01*
X323396Y-364649D01*
X325896Y-364849D01*
X325899Y-364847D01*
X325900Y-364849D01*
X340700Y-364849D01*
X340701Y-364848D01*
G37*
G36*
X603602Y-417847D02*
X603602Y-417847D01*
X603604Y-417849D01*
X607304Y-417549D01*
X607308Y-417546D01*
X607310Y-417548D01*
X610110Y-416948D01*
X610117Y-416941D01*
X610123Y-416944D01*
X612023Y-415944D01*
X612029Y-415930D01*
X612039Y-415930D01*
X613039Y-414630D01*
X613039Y-414618D01*
X613047Y-414612D01*
X613043Y-414607D01*
X613049Y-414603D01*
X613149Y-412703D01*
X613139Y-412688D01*
X613144Y-412678D01*
X611844Y-410078D01*
X611825Y-410069D01*
X611823Y-410056D01*
X609923Y-409056D01*
X609896Y-409061D01*
X609885Y-409053D01*
X607388Y-409852D01*
X605195Y-410251D01*
X602407Y-410350D01*
X600028Y-409557D01*
X598387Y-407723D01*
X600116Y-407147D01*
X600149Y-407098D01*
X600152Y-407111D01*
X600198Y-407149D01*
X600199Y-407148D01*
X600200Y-407149D01*
X610400Y-407149D01*
X610411Y-407141D01*
X610420Y-407145D01*
X612720Y-406145D01*
X612726Y-406134D01*
X612735Y-406135D01*
X614535Y-404335D01*
X614536Y-404323D01*
X614542Y-404319D01*
X614538Y-404313D01*
X614539Y-404308D01*
X614549Y-404300D01*
X614549Y-401500D01*
X614547Y-401496D01*
X614549Y-401494D01*
X614249Y-398994D01*
X614244Y-398989D01*
X614247Y-398984D01*
X613447Y-396584D01*
X613437Y-396578D01*
X613439Y-396570D01*
X611939Y-394570D01*
X611931Y-394568D01*
X611932Y-394562D01*
X610032Y-392962D01*
X610024Y-392962D01*
X610023Y-392956D01*
X607923Y-391856D01*
X607914Y-391858D01*
X607912Y-391852D01*
X605412Y-391252D01*
X605407Y-391254D01*
X605406Y-391254D01*
X605404Y-391251D01*
X602604Y-391051D01*
X602598Y-391055D01*
X602595Y-391051D01*
X599895Y-391351D01*
X599892Y-391353D01*
X599890Y-391355D01*
X599887Y-391353D01*
X597387Y-392053D01*
X597383Y-392057D01*
X597380Y-392055D01*
X595180Y-393055D01*
X595175Y-393063D01*
X595169Y-393061D01*
X593269Y-394561D01*
X593268Y-394567D01*
X593264Y-394566D01*
X591564Y-396366D01*
X591563Y-396374D01*
X591558Y-396374D01*
X590258Y-398474D01*
X590259Y-398479D01*
X590256Y-398481D01*
X590258Y-398483D01*
X590253Y-398484D01*
X589453Y-400884D01*
X589455Y-400890D01*
X589451Y-400893D01*
X589051Y-403493D01*
X589055Y-403499D01*
X589051Y-403502D01*
X589151Y-406102D01*
X589155Y-406106D01*
X589152Y-406110D01*
X589652Y-408610D01*
X589657Y-408614D01*
X589654Y-408618D01*
X590554Y-410918D01*
X590559Y-410921D01*
X590557Y-410924D01*
X591857Y-413224D01*
X591865Y-413228D01*
X591864Y-413234D01*
X593564Y-415034D01*
X593574Y-415035D01*
X593575Y-415042D01*
X595775Y-416342D01*
X595781Y-416342D01*
X595782Y-416346D01*
X598082Y-417246D01*
X598088Y-417244D01*
X598090Y-417248D01*
X600590Y-417748D01*
X600596Y-417746D01*
X600598Y-417749D01*
X603598Y-417849D01*
X603602Y-417847D01*
G37*
G36*
X338902Y-417847D02*
X338902Y-417847D01*
X338904Y-417849D01*
X342604Y-417549D01*
X342608Y-417546D01*
X342610Y-417548D01*
X345410Y-416948D01*
X345417Y-416941D01*
X345423Y-416944D01*
X347323Y-415944D01*
X347329Y-415931D01*
X347338Y-415932D01*
X348438Y-414632D01*
X348438Y-414619D01*
X348447Y-414612D01*
X348443Y-414607D01*
X348449Y-414603D01*
X348549Y-412703D01*
X348539Y-412687D01*
X348543Y-412677D01*
X347143Y-410077D01*
X347125Y-410068D01*
X347123Y-410056D01*
X345223Y-409056D01*
X345196Y-409061D01*
X345184Y-409053D01*
X342788Y-409852D01*
X340595Y-410251D01*
X337807Y-410350D01*
X335328Y-409557D01*
X333688Y-407724D01*
X335508Y-407149D01*
X345700Y-407149D01*
X345711Y-407141D01*
X345720Y-407145D01*
X348020Y-406145D01*
X348026Y-406134D01*
X348035Y-406135D01*
X349835Y-404335D01*
X349836Y-404323D01*
X349842Y-404319D01*
X349838Y-404313D01*
X349839Y-404308D01*
X349849Y-404300D01*
X349849Y-401500D01*
X349847Y-401498D01*
X349849Y-401496D01*
X349649Y-398996D01*
X349642Y-398989D01*
X349646Y-398983D01*
X348746Y-396583D01*
X348737Y-396577D01*
X348739Y-396570D01*
X347239Y-394570D01*
X347232Y-394568D01*
X347233Y-394563D01*
X345433Y-392963D01*
X345423Y-392962D01*
X345422Y-392956D01*
X343222Y-391856D01*
X343214Y-391857D01*
X343212Y-391852D01*
X340712Y-391252D01*
X340707Y-391254D01*
X340706Y-391254D01*
X340704Y-391251D01*
X337904Y-391051D01*
X337898Y-391055D01*
X337895Y-391051D01*
X335195Y-391351D01*
X335191Y-391354D01*
X335190Y-391355D01*
X335186Y-391353D01*
X332786Y-392053D01*
X332783Y-392057D01*
X332780Y-392055D01*
X330580Y-393055D01*
X330576Y-393062D01*
X330570Y-393061D01*
X328570Y-394561D01*
X328569Y-394567D01*
X328564Y-394566D01*
X326864Y-396366D01*
X326863Y-396375D01*
X326857Y-396376D01*
X325657Y-398476D01*
X325658Y-398479D01*
X325656Y-398481D01*
X325657Y-398482D01*
X325654Y-398483D01*
X324754Y-400883D01*
X324756Y-400891D01*
X324752Y-400894D01*
X324751Y-400894D01*
X324451Y-403494D01*
X324453Y-403498D01*
X324451Y-403500D01*
X324451Y-406100D01*
X324455Y-406106D01*
X324452Y-406110D01*
X324952Y-408610D01*
X324957Y-408614D01*
X324954Y-408618D01*
X325854Y-410918D01*
X325860Y-410921D01*
X325858Y-410926D01*
X327258Y-413226D01*
X327264Y-413228D01*
X327263Y-413233D01*
X328863Y-415033D01*
X328874Y-415035D01*
X328875Y-415042D01*
X331075Y-416342D01*
X331081Y-416342D01*
X331083Y-416346D01*
X333483Y-417246D01*
X333488Y-417244D01*
X333490Y-417248D01*
X335990Y-417748D01*
X335996Y-417746D01*
X335998Y-417749D01*
X338898Y-417849D01*
X338902Y-417847D01*
G37*
G36*
X629001Y-417649D02*
X629001Y-417649D01*
X629015Y-417638D01*
X629025Y-417642D01*
X630725Y-416642D01*
X630735Y-416618D01*
X630748Y-416612D01*
X631348Y-414312D01*
X631344Y-414304D01*
X631349Y-414300D01*
X631349Y-403913D01*
X632536Y-401837D01*
X634711Y-400650D01*
X637382Y-400848D01*
X639157Y-402229D01*
X639851Y-404707D01*
X639851Y-412400D01*
X639852Y-412401D01*
X639851Y-412402D01*
X639951Y-415002D01*
X639958Y-415011D01*
X639954Y-415017D01*
X640654Y-416917D01*
X640681Y-416934D01*
X640685Y-416947D01*
X643185Y-417747D01*
X643197Y-417743D01*
X643203Y-417749D01*
X646403Y-417549D01*
X646417Y-417537D01*
X646428Y-417540D01*
X648128Y-416340D01*
X648137Y-416315D01*
X648149Y-416308D01*
X648549Y-414008D01*
X648546Y-414003D01*
X648549Y-414000D01*
X648549Y-403600D01*
X648546Y-403595D01*
X648549Y-403593D01*
X648149Y-400993D01*
X648143Y-400987D01*
X648146Y-400982D01*
X647246Y-398682D01*
X647240Y-398679D01*
X647242Y-398674D01*
X645942Y-396574D01*
X645935Y-396571D01*
X645936Y-396566D01*
X644136Y-394666D01*
X644128Y-394665D01*
X644127Y-394659D01*
X642027Y-393259D01*
X642019Y-393260D01*
X642018Y-393254D01*
X639718Y-392354D01*
X639709Y-392357D01*
X639706Y-392351D01*
X637106Y-392051D01*
X637096Y-392057D01*
X637090Y-392052D01*
X634590Y-392552D01*
X634581Y-392562D01*
X634573Y-392559D01*
X632480Y-393954D01*
X631221Y-394245D01*
X630040Y-392572D01*
X630015Y-392564D01*
X630009Y-392552D01*
X627209Y-392052D01*
X627198Y-392057D01*
X627192Y-392051D01*
X624192Y-392551D01*
X624176Y-392569D01*
X624163Y-392568D01*
X622863Y-394068D01*
X622861Y-394089D01*
X622853Y-394096D01*
X622854Y-394098D01*
X622851Y-394100D01*
X622851Y-414600D01*
X622857Y-414608D01*
X622853Y-414613D01*
X623453Y-416813D01*
X623477Y-416832D01*
X623481Y-416845D01*
X625581Y-417745D01*
X625595Y-417742D01*
X625601Y-417749D01*
X629001Y-417649D01*
G37*
G36*
X517501Y-417649D02*
X517501Y-417649D01*
X517515Y-417638D01*
X517525Y-417642D01*
X519225Y-416642D01*
X519235Y-416618D01*
X519248Y-416612D01*
X519848Y-414312D01*
X519844Y-414304D01*
X519849Y-414300D01*
X519849Y-403913D01*
X521036Y-401837D01*
X523211Y-400650D01*
X525882Y-400848D01*
X527657Y-402229D01*
X528351Y-404707D01*
X528351Y-412400D01*
X528352Y-412401D01*
X528351Y-412402D01*
X528451Y-415002D01*
X528458Y-415011D01*
X528454Y-415017D01*
X529154Y-416917D01*
X529181Y-416934D01*
X529185Y-416947D01*
X531685Y-417747D01*
X531697Y-417743D01*
X531703Y-417749D01*
X534903Y-417549D01*
X534917Y-417537D01*
X534928Y-417540D01*
X536628Y-416340D01*
X536637Y-416315D01*
X536649Y-416308D01*
X537049Y-414008D01*
X537046Y-414003D01*
X537049Y-414000D01*
X537049Y-403600D01*
X537045Y-403594D01*
X537048Y-403591D01*
X536548Y-400991D01*
X536544Y-400987D01*
X536547Y-400984D01*
X535747Y-398684D01*
X535740Y-398679D01*
X535742Y-398674D01*
X534442Y-396574D01*
X534435Y-396571D01*
X534436Y-396566D01*
X532636Y-394666D01*
X532628Y-394665D01*
X532627Y-394659D01*
X530527Y-393259D01*
X530519Y-393260D01*
X530517Y-393254D01*
X528117Y-392354D01*
X528109Y-392356D01*
X528106Y-392351D01*
X525606Y-392051D01*
X525596Y-392057D01*
X525590Y-392052D01*
X523090Y-392552D01*
X523081Y-392562D01*
X523073Y-392559D01*
X520980Y-393954D01*
X519721Y-394245D01*
X518540Y-392572D01*
X518515Y-392564D01*
X518509Y-392552D01*
X515709Y-392052D01*
X515698Y-392057D01*
X515692Y-392051D01*
X512692Y-392551D01*
X512676Y-392569D01*
X512663Y-392568D01*
X511363Y-394068D01*
X511361Y-394089D01*
X511353Y-394096D01*
X511354Y-394098D01*
X511351Y-394100D01*
X511351Y-414600D01*
X511357Y-414608D01*
X511353Y-414613D01*
X511953Y-416813D01*
X511977Y-416832D01*
X511981Y-416845D01*
X514081Y-417745D01*
X514095Y-417742D01*
X514101Y-417749D01*
X517501Y-417649D01*
G37*
G36*
X581613Y-364837D02*
X581613Y-364837D01*
X581626Y-364842D01*
X583426Y-363742D01*
X583433Y-363724D01*
X583444Y-363722D01*
X585344Y-359922D01*
X585344Y-359921D01*
X585345Y-359921D01*
X586231Y-358049D01*
X596824Y-358049D01*
X596855Y-358120D01*
X596864Y-358125D01*
X596863Y-358132D01*
X598058Y-359527D01*
X598956Y-361421D01*
X598956Y-361422D01*
X599956Y-363422D01*
X599968Y-363428D01*
X599968Y-363437D01*
X601468Y-364737D01*
X601494Y-364739D01*
X601503Y-364749D01*
X603403Y-364649D01*
X603415Y-364639D01*
X603424Y-364643D01*
X605724Y-363343D01*
X605731Y-363327D01*
X605742Y-363326D01*
X606742Y-361726D01*
X606741Y-361715D01*
X606747Y-361711D01*
X606739Y-361701D01*
X606739Y-361700D01*
X606748Y-361690D01*
X606348Y-359790D01*
X606341Y-359784D01*
X606344Y-359778D01*
X605344Y-357778D01*
X595044Y-336678D01*
X595040Y-336676D01*
X595041Y-336673D01*
X594241Y-335473D01*
X594225Y-335467D01*
X594223Y-335456D01*
X592523Y-334556D01*
X592502Y-334560D01*
X592493Y-334551D01*
X590393Y-334851D01*
X590380Y-334865D01*
X590369Y-334862D01*
X588669Y-336262D01*
X588665Y-336276D01*
X588656Y-336278D01*
X587756Y-338078D01*
X577456Y-359178D01*
X577457Y-359183D01*
X577453Y-359184D01*
X576753Y-361284D01*
X576755Y-361289D01*
X576754Y-361290D01*
X576756Y-361293D01*
X576761Y-361308D01*
X576755Y-361320D01*
X577455Y-362920D01*
X577473Y-362930D01*
X577474Y-362942D01*
X579674Y-364342D01*
X579685Y-364341D01*
X579687Y-364348D01*
X581587Y-364848D01*
X581613Y-364837D01*
G37*
G36*
X526802Y-364749D02*
X526802Y-364749D01*
X526806Y-364746D01*
X526809Y-364748D01*
X528909Y-364348D01*
X528913Y-364344D01*
X528917Y-364346D01*
X530817Y-363646D01*
X530820Y-363641D01*
X530825Y-363643D01*
X532725Y-362543D01*
X532728Y-362535D01*
X532734Y-362536D01*
X534234Y-361136D01*
X534235Y-361126D01*
X534242Y-361126D01*
X535342Y-359326D01*
X535341Y-359319D01*
X535346Y-359317D01*
X536046Y-357417D01*
X536043Y-357408D01*
X536049Y-357404D01*
X536249Y-355204D01*
X536246Y-355199D01*
X536249Y-355196D01*
X536049Y-352996D01*
X536044Y-352990D01*
X536047Y-352986D01*
X535447Y-350986D01*
X535439Y-350980D01*
X535441Y-350973D01*
X534241Y-349173D01*
X534230Y-349169D01*
X534230Y-349161D01*
X532630Y-347961D01*
X532621Y-347961D01*
X532620Y-347955D01*
X530820Y-347155D01*
X530815Y-347156D01*
X530813Y-347153D01*
X528613Y-346553D01*
X524619Y-345454D01*
X522843Y-344467D01*
X522354Y-342512D01*
X523526Y-341046D01*
X525695Y-340750D01*
X527577Y-341444D01*
X529371Y-342740D01*
X529387Y-342740D01*
X529392Y-342749D01*
X531192Y-343049D01*
X531216Y-343036D01*
X531228Y-343040D01*
X532928Y-341840D01*
X532932Y-341828D01*
X532941Y-341827D01*
X534341Y-339727D01*
X534340Y-339707D01*
X534349Y-339700D01*
X534349Y-338100D01*
X534334Y-338079D01*
X534336Y-338066D01*
X532836Y-336466D01*
X532829Y-336465D01*
X532829Y-336460D01*
X531329Y-335360D01*
X531319Y-335360D01*
X531317Y-335354D01*
X529117Y-334554D01*
X529111Y-334555D01*
X529110Y-334552D01*
X527110Y-334152D01*
X527105Y-334154D01*
X527102Y-334151D01*
X524802Y-334051D01*
X524798Y-334054D01*
X524796Y-334051D01*
X522496Y-334251D01*
X522490Y-334256D01*
X522486Y-334253D01*
X520486Y-334853D01*
X520482Y-334859D01*
X520477Y-334856D01*
X518777Y-335756D01*
X518773Y-335765D01*
X518766Y-335764D01*
X517266Y-337164D01*
X517265Y-337170D01*
X517261Y-337170D01*
X515961Y-338870D01*
X515961Y-338878D01*
X515957Y-338881D01*
X515958Y-338882D01*
X515954Y-338884D01*
X515254Y-340884D01*
X515256Y-340890D01*
X515251Y-340893D01*
X514951Y-342893D01*
X514955Y-342900D01*
X514951Y-342904D01*
X515151Y-345104D01*
X515157Y-345111D01*
X515154Y-345116D01*
X515854Y-347116D01*
X515861Y-347121D01*
X515859Y-347127D01*
X517059Y-348927D01*
X517069Y-348931D01*
X517069Y-348938D01*
X518569Y-350138D01*
X518576Y-350139D01*
X518577Y-350144D01*
X520477Y-351144D01*
X520483Y-351143D01*
X520484Y-351147D01*
X522484Y-351847D01*
X522486Y-351846D01*
X522486Y-351847D01*
X524586Y-352447D01*
X524589Y-352446D01*
X524590Y-352448D01*
X526583Y-352847D01*
X528458Y-353834D01*
X528947Y-355693D01*
X528066Y-357260D01*
X526095Y-357950D01*
X523917Y-357653D01*
X522030Y-356461D01*
X520233Y-354863D01*
X520222Y-354862D01*
X520220Y-354855D01*
X518620Y-354155D01*
X518596Y-354161D01*
X518585Y-354153D01*
X516685Y-354753D01*
X516675Y-354768D01*
X516663Y-354767D01*
X514963Y-356667D01*
X514962Y-356683D01*
X514952Y-356687D01*
X514552Y-358187D01*
X514562Y-358212D01*
X514557Y-358224D01*
X515657Y-360224D01*
X515664Y-360227D01*
X515663Y-360232D01*
X516863Y-361632D01*
X516871Y-361634D01*
X516871Y-361640D01*
X518671Y-362940D01*
X518674Y-362940D01*
X518674Y-362942D01*
X520474Y-364042D01*
X520484Y-364041D01*
X520486Y-364047D01*
X522586Y-364647D01*
X522593Y-364645D01*
X522595Y-364649D01*
X524695Y-364849D01*
X524700Y-364846D01*
X524702Y-364849D01*
X526802Y-364749D01*
G37*
%LPC*%
G36*
X-678715Y-387220D02*
X-678715Y-387220D01*
X-680726Y-386358D01*
X-682452Y-385111D01*
X-683793Y-383482D01*
X-684760Y-381550D01*
X-685443Y-379304D01*
X-685835Y-376952D01*
X-685933Y-374391D01*
X-685835Y-371929D01*
X-685441Y-369469D01*
X-684855Y-367222D01*
X-683888Y-365192D01*
X-682547Y-363467D01*
X-680826Y-362224D01*
X-678816Y-361363D01*
X-676216Y-361074D01*
X-673810Y-361362D01*
X-671706Y-362223D01*
X-669986Y-363561D01*
X-668736Y-365196D01*
X-667667Y-367236D01*
X-666985Y-369477D01*
X-666593Y-371929D01*
X-666495Y-374391D01*
X-666593Y-376952D01*
X-666985Y-379304D01*
X-667668Y-381550D01*
X-668638Y-383489D01*
X-668781Y-383676D01*
X-669072Y-384056D01*
X-669072Y-384057D01*
X-669363Y-384437D01*
X-669654Y-384817D01*
X-669882Y-385116D01*
X-671602Y-386358D01*
X-673612Y-387219D01*
X-676213Y-387508D01*
X-678715Y-387220D01*
G37*
%LPD*%
G36*
X233202Y-417845D02*
X233202Y-417845D01*
X233206Y-417849D01*
X235706Y-417549D01*
X235718Y-417537D01*
X235728Y-417540D01*
X237428Y-416340D01*
X237437Y-416313D01*
X237449Y-416307D01*
X237849Y-413407D01*
X237843Y-413397D01*
X237848Y-413391D01*
X237348Y-410691D01*
X237323Y-410668D01*
X237320Y-410655D01*
X235320Y-409755D01*
X235310Y-409758D01*
X235306Y-409751D01*
X232731Y-409454D01*
X231749Y-407588D01*
X231749Y-402508D01*
X232335Y-400652D01*
X234796Y-400849D01*
X234802Y-400845D01*
X234806Y-400849D01*
X237206Y-400549D01*
X237221Y-400534D01*
X237234Y-400536D01*
X238734Y-399136D01*
X238738Y-399113D01*
X238749Y-399107D01*
X239149Y-396107D01*
X239143Y-396096D01*
X239148Y-396089D01*
X238548Y-393389D01*
X238527Y-393371D01*
X238526Y-393358D01*
X236726Y-392258D01*
X236710Y-392260D01*
X236704Y-392251D01*
X234404Y-392051D01*
X234398Y-392055D01*
X234395Y-392051D01*
X231749Y-392345D01*
X231749Y-387300D01*
X231746Y-387296D01*
X231749Y-387294D01*
X231449Y-384894D01*
X231431Y-384875D01*
X231431Y-384862D01*
X229831Y-383562D01*
X229811Y-383561D01*
X229805Y-383551D01*
X226605Y-383251D01*
X226593Y-383258D01*
X226586Y-383253D01*
X224186Y-383953D01*
X224169Y-383976D01*
X224156Y-383979D01*
X223256Y-385879D01*
X223259Y-385894D01*
X223251Y-385900D01*
X223251Y-390981D01*
X222174Y-392156D01*
X219888Y-392752D01*
X219869Y-392775D01*
X219856Y-392778D01*
X218856Y-394778D01*
X218857Y-394784D01*
X218853Y-394787D01*
X218858Y-394794D01*
X218851Y-394798D01*
X218751Y-397698D01*
X218757Y-397707D01*
X218753Y-397713D01*
X219353Y-399913D01*
X219380Y-399934D01*
X219384Y-399947D01*
X221682Y-400746D01*
X223251Y-401432D01*
X223251Y-406400D01*
X223252Y-406401D01*
X223251Y-406402D01*
X223351Y-409302D01*
X223353Y-409305D01*
X223351Y-409307D01*
X223751Y-412007D01*
X223758Y-412014D01*
X223755Y-412019D01*
X224655Y-414119D01*
X224664Y-414125D01*
X224663Y-414132D01*
X226063Y-415732D01*
X226074Y-415735D01*
X226075Y-415743D01*
X227975Y-416843D01*
X227984Y-416842D01*
X227986Y-416847D01*
X230386Y-417547D01*
X230392Y-417545D01*
X230395Y-417549D01*
X233195Y-417849D01*
X233202Y-417845D01*
G37*
G36*
X709004Y-417649D02*
X709004Y-417649D01*
X709009Y-417644D01*
X709014Y-417647D01*
X711414Y-416947D01*
X711418Y-416942D01*
X711422Y-416944D01*
X713622Y-415844D01*
X713625Y-415837D01*
X713631Y-415839D01*
X715531Y-414339D01*
X715532Y-414332D01*
X715538Y-414332D01*
X717238Y-412332D01*
X717238Y-412326D01*
X717242Y-412325D01*
X718542Y-410125D01*
X718542Y-410118D01*
X718547Y-410116D01*
X719347Y-407816D01*
X719346Y-407816D01*
X719347Y-407816D01*
X719346Y-407815D01*
X719344Y-407809D01*
X719349Y-407806D01*
X719649Y-405306D01*
X719647Y-405302D01*
X719649Y-405300D01*
X719649Y-385000D01*
X719643Y-384992D01*
X719648Y-384987D01*
X719048Y-382787D01*
X719027Y-382771D01*
X719026Y-382758D01*
X716926Y-381458D01*
X716909Y-381460D01*
X716904Y-381454D01*
X716902Y-381454D01*
X716900Y-381451D01*
X714200Y-381451D01*
X714196Y-381454D01*
X714194Y-381454D01*
X714187Y-381458D01*
X714181Y-381455D01*
X712081Y-382355D01*
X712068Y-382376D01*
X712056Y-382379D01*
X711156Y-384279D01*
X711158Y-384292D01*
X711151Y-384297D01*
X710951Y-387197D01*
X710952Y-387199D01*
X710951Y-387200D01*
X710951Y-404892D01*
X710158Y-407271D01*
X708380Y-408753D01*
X705909Y-409049D01*
X703727Y-407959D01*
X701632Y-406163D01*
X701611Y-406161D01*
X701605Y-406151D01*
X699505Y-405951D01*
X699485Y-405963D01*
X699473Y-405959D01*
X697373Y-407359D01*
X697369Y-407371D01*
X697360Y-407371D01*
X695660Y-409671D01*
X695661Y-409694D01*
X695651Y-409702D01*
X695751Y-411702D01*
X695764Y-411718D01*
X695760Y-411729D01*
X697360Y-413929D01*
X697368Y-413931D01*
X697367Y-413937D01*
X699067Y-415437D01*
X699076Y-415438D01*
X699077Y-415443D01*
X701477Y-416743D01*
X701482Y-416742D01*
X701484Y-416747D01*
X703784Y-417547D01*
X703791Y-417544D01*
X703794Y-417549D01*
X706394Y-417849D01*
X706400Y-417845D01*
X706404Y-417849D01*
X709004Y-417649D01*
G37*
G36*
X669302Y-417845D02*
X669302Y-417845D01*
X669306Y-417849D01*
X671906Y-417549D01*
X671919Y-417536D01*
X671930Y-417539D01*
X673530Y-416339D01*
X673537Y-416313D01*
X673549Y-416307D01*
X673949Y-413407D01*
X673943Y-413397D01*
X673948Y-413391D01*
X673448Y-410691D01*
X673424Y-410669D01*
X673421Y-410656D01*
X671521Y-409756D01*
X671510Y-409758D01*
X671505Y-409751D01*
X668831Y-409454D01*
X667849Y-407588D01*
X667849Y-402508D01*
X668435Y-400652D01*
X670896Y-400849D01*
X670902Y-400845D01*
X670906Y-400849D01*
X673306Y-400549D01*
X673321Y-400534D01*
X673334Y-400536D01*
X674834Y-399136D01*
X674838Y-399113D01*
X674849Y-399107D01*
X675249Y-396107D01*
X675243Y-396096D01*
X675248Y-396089D01*
X674648Y-393389D01*
X674627Y-393371D01*
X674626Y-393358D01*
X672826Y-392258D01*
X672810Y-392260D01*
X672804Y-392251D01*
X670504Y-392051D01*
X670498Y-392055D01*
X670495Y-392051D01*
X667849Y-392345D01*
X667849Y-387300D01*
X667846Y-387296D01*
X667849Y-387294D01*
X667549Y-384894D01*
X667531Y-384875D01*
X667531Y-384862D01*
X665931Y-383562D01*
X665911Y-383561D01*
X665905Y-383551D01*
X662805Y-383251D01*
X662794Y-383258D01*
X662787Y-383253D01*
X660287Y-383953D01*
X660268Y-383978D01*
X660255Y-383981D01*
X659455Y-385881D01*
X659458Y-385894D01*
X659451Y-385900D01*
X659451Y-390980D01*
X658275Y-392156D01*
X655988Y-392752D01*
X655969Y-392775D01*
X655956Y-392778D01*
X654956Y-394778D01*
X654957Y-394784D01*
X654953Y-394787D01*
X654958Y-394794D01*
X654951Y-394798D01*
X654851Y-397698D01*
X654858Y-397708D01*
X654853Y-397715D01*
X655553Y-399915D01*
X655579Y-399933D01*
X655583Y-399946D01*
X657782Y-400746D01*
X659451Y-401433D01*
X659451Y-409300D01*
X659455Y-409305D01*
X659452Y-409309D01*
X659952Y-412009D01*
X659958Y-412014D01*
X659955Y-412019D01*
X660855Y-414119D01*
X660863Y-414124D01*
X660862Y-414131D01*
X662162Y-415731D01*
X662174Y-415734D01*
X662175Y-415743D01*
X664075Y-416843D01*
X664084Y-416842D01*
X664086Y-416847D01*
X666486Y-417547D01*
X666492Y-417545D01*
X666495Y-417549D01*
X669295Y-417849D01*
X669302Y-417845D01*
G37*
G36*
X459702Y-364749D02*
X459702Y-364749D01*
X459708Y-364745D01*
X459711Y-364748D01*
X461811Y-364248D01*
X461814Y-364245D01*
X461816Y-364247D01*
X464116Y-363447D01*
X464120Y-363440D01*
X464125Y-363442D01*
X465625Y-362542D01*
X465627Y-362538D01*
X465630Y-362539D01*
X467330Y-361239D01*
X467334Y-361223D01*
X467341Y-361218D01*
X467340Y-361216D01*
X467347Y-361213D01*
X467847Y-359413D01*
X467838Y-359390D01*
X467844Y-359379D01*
X466844Y-357279D01*
X466835Y-357274D01*
X466836Y-357266D01*
X465236Y-355566D01*
X465213Y-355562D01*
X465207Y-355551D01*
X463807Y-355351D01*
X463787Y-355362D01*
X463776Y-355357D01*
X461678Y-356556D01*
X459788Y-357352D01*
X457700Y-357551D01*
X455712Y-357352D01*
X453723Y-356556D01*
X451934Y-355363D01*
X450644Y-353776D01*
X449948Y-351788D01*
X449650Y-349699D01*
X449848Y-347511D01*
X450544Y-345624D01*
X451834Y-343936D01*
X453624Y-342743D01*
X455514Y-341848D01*
X457501Y-341550D01*
X459688Y-341748D01*
X461578Y-342544D01*
X463575Y-343742D01*
X463593Y-343740D01*
X463600Y-343749D01*
X465000Y-343749D01*
X465021Y-343734D01*
X465034Y-343736D01*
X466634Y-342236D01*
X466635Y-342227D01*
X466641Y-342227D01*
X467941Y-340227D01*
X467940Y-340204D01*
X467949Y-340195D01*
X467749Y-338295D01*
X467732Y-338277D01*
X467734Y-338264D01*
X466234Y-336864D01*
X466226Y-336863D01*
X466226Y-336858D01*
X464426Y-335758D01*
X464419Y-335759D01*
X464417Y-335754D01*
X462517Y-335054D01*
X462514Y-335055D01*
X462513Y-335053D01*
X460313Y-334453D01*
X460307Y-334455D01*
X460305Y-334451D01*
X458205Y-334251D01*
X458200Y-334254D01*
X458198Y-334251D01*
X456198Y-334351D01*
X456193Y-334354D01*
X456190Y-334352D01*
X454190Y-334752D01*
X454188Y-334754D01*
X454186Y-334753D01*
X452086Y-335353D01*
X452083Y-335357D01*
X452080Y-335355D01*
X450080Y-336255D01*
X450077Y-336260D01*
X450073Y-336259D01*
X448273Y-337459D01*
X448272Y-337462D01*
X448269Y-337462D01*
X446669Y-338762D01*
X446667Y-338768D01*
X446663Y-338768D01*
X445363Y-340268D01*
X445362Y-340272D01*
X445359Y-340273D01*
X444159Y-342073D01*
X444159Y-342078D01*
X444156Y-342079D01*
X443256Y-343979D01*
X443257Y-343986D01*
X443252Y-343988D01*
X442752Y-345988D01*
X442754Y-345992D01*
X442751Y-345993D01*
X442451Y-348093D01*
X442454Y-348098D01*
X442451Y-348100D01*
X442451Y-350300D01*
X442453Y-350303D01*
X442451Y-350304D01*
X442651Y-352504D01*
X442655Y-352509D01*
X442652Y-352513D01*
X443152Y-354413D01*
X443156Y-354415D01*
X443154Y-354418D01*
X443954Y-356418D01*
X443960Y-356422D01*
X443958Y-356426D01*
X445058Y-358226D01*
X445063Y-358228D01*
X445062Y-358231D01*
X446362Y-359831D01*
X446368Y-359833D01*
X446368Y-359837D01*
X447968Y-361237D01*
X447972Y-361237D01*
X447972Y-361240D01*
X449672Y-362440D01*
X449676Y-362440D01*
X449677Y-362444D01*
X451577Y-363444D01*
X451580Y-363443D01*
X451581Y-363445D01*
X453481Y-364245D01*
X453488Y-364243D01*
X453491Y-364248D01*
X455591Y-364648D01*
X455594Y-364647D01*
X455595Y-364649D01*
X457695Y-364849D01*
X457700Y-364846D01*
X457702Y-364849D01*
X459702Y-364749D01*
G37*
G36*
X296003Y-364843D02*
X296003Y-364843D01*
X296008Y-364849D01*
X298308Y-364449D01*
X298329Y-364426D01*
X298343Y-364424D01*
X299243Y-362824D01*
X299241Y-362808D01*
X299249Y-362802D01*
X299349Y-360802D01*
X299348Y-360801D01*
X299349Y-360800D01*
X299349Y-354429D01*
X300713Y-353649D01*
X307100Y-353649D01*
X307103Y-353647D01*
X307105Y-353649D01*
X309205Y-353449D01*
X309222Y-353433D01*
X309235Y-353435D01*
X310435Y-352235D01*
X310438Y-352214D01*
X310449Y-352208D01*
X310849Y-349708D01*
X310842Y-349696D01*
X310848Y-349689D01*
X310348Y-347489D01*
X310330Y-347474D01*
X310330Y-347461D01*
X308930Y-346361D01*
X308908Y-346361D01*
X308900Y-346351D01*
X300420Y-346351D01*
X299349Y-345280D01*
X299349Y-343223D01*
X300518Y-342249D01*
X313200Y-342249D01*
X313208Y-342244D01*
X313209Y-342244D01*
X313217Y-342238D01*
X313227Y-342241D01*
X314927Y-341141D01*
X314936Y-341117D01*
X314948Y-341112D01*
X315448Y-339112D01*
X315445Y-339106D01*
X315447Y-339105D01*
X315444Y-339101D01*
X315449Y-339096D01*
X315249Y-336796D01*
X315235Y-336780D01*
X315237Y-336768D01*
X313937Y-335268D01*
X313913Y-335263D01*
X313907Y-335251D01*
X311807Y-334951D01*
X311802Y-334954D01*
X311800Y-334951D01*
X294600Y-334951D01*
X294595Y-334955D01*
X294591Y-334955D01*
X294587Y-334958D01*
X294581Y-334954D01*
X292881Y-335654D01*
X292867Y-335678D01*
X292854Y-335682D01*
X292154Y-337482D01*
X292157Y-337493D01*
X292151Y-337498D01*
X292051Y-339798D01*
X292052Y-339799D01*
X292051Y-339800D01*
X292051Y-361100D01*
X292053Y-361103D01*
X292051Y-361105D01*
X292251Y-363205D01*
X292266Y-363221D01*
X292264Y-363233D01*
X293364Y-364433D01*
X293386Y-364437D01*
X293393Y-364449D01*
X295993Y-364849D01*
X296003Y-364843D01*
G37*
G36*
X278107Y-417744D02*
X278107Y-417744D01*
X278112Y-417748D01*
X280612Y-417148D01*
X280616Y-417142D01*
X280620Y-417145D01*
X282820Y-416145D01*
X282824Y-416137D01*
X282830Y-416139D01*
X285030Y-414439D01*
X285034Y-414423D01*
X285039Y-414420D01*
X285046Y-414418D01*
X285846Y-412318D01*
X285840Y-412296D01*
X285841Y-412296D01*
X285839Y-412294D01*
X285839Y-412293D01*
X285846Y-412282D01*
X284946Y-409982D01*
X284935Y-409975D01*
X284936Y-409967D01*
X282836Y-407667D01*
X282819Y-407664D01*
X282816Y-407653D01*
X281016Y-407053D01*
X280990Y-407062D01*
X280987Y-407062D01*
X280976Y-407057D01*
X278681Y-408354D01*
X276299Y-409049D01*
X273922Y-408455D01*
X271850Y-406876D01*
X271949Y-404209D01*
X272741Y-401932D01*
X274816Y-400549D01*
X277389Y-400450D01*
X279778Y-401644D01*
X279783Y-401643D01*
X279784Y-401647D01*
X281884Y-402347D01*
X281915Y-402336D01*
X281928Y-402341D01*
X283828Y-401041D01*
X283832Y-401027D01*
X283841Y-401027D01*
X285441Y-398527D01*
X285440Y-398513D01*
X285449Y-398508D01*
X285849Y-396208D01*
X285836Y-396184D01*
X285839Y-396170D01*
X284339Y-394170D01*
X284326Y-394167D01*
X284325Y-394158D01*
X282125Y-392858D01*
X282118Y-392858D01*
X282117Y-392854D01*
X279617Y-391954D01*
X279610Y-391956D01*
X279608Y-391951D01*
X277008Y-391551D01*
X277001Y-391555D01*
X276998Y-391551D01*
X274598Y-391651D01*
X274592Y-391655D01*
X274589Y-391652D01*
X272089Y-392252D01*
X272084Y-392258D01*
X272079Y-392256D01*
X269779Y-393356D01*
X269777Y-393360D01*
X269774Y-393358D01*
X267574Y-394758D01*
X267570Y-394767D01*
X267564Y-394766D01*
X265864Y-396566D01*
X265863Y-396574D01*
X265858Y-396574D01*
X264458Y-398874D01*
X264459Y-398881D01*
X264454Y-398882D01*
X263554Y-401182D01*
X263555Y-401186D01*
X263552Y-401188D01*
X263555Y-401191D01*
X263551Y-401193D01*
X263151Y-403793D01*
X263154Y-403797D01*
X263153Y-403798D01*
X263154Y-403799D01*
X263151Y-403802D01*
X263251Y-406402D01*
X263256Y-406408D01*
X263252Y-406412D01*
X263852Y-408812D01*
X263858Y-408816D01*
X263855Y-408821D01*
X264955Y-411221D01*
X264961Y-411224D01*
X264960Y-411229D01*
X266460Y-413329D01*
X266468Y-413331D01*
X266467Y-413337D01*
X268367Y-415037D01*
X268374Y-415037D01*
X268374Y-415042D01*
X270674Y-416442D01*
X270681Y-416441D01*
X270682Y-416446D01*
X272982Y-417346D01*
X272989Y-417344D01*
X272992Y-417349D01*
X275392Y-417749D01*
X275397Y-417746D01*
X275400Y-417749D01*
X278100Y-417749D01*
X278107Y-417744D01*
G37*
G36*
X452311Y-417741D02*
X452311Y-417741D01*
X452318Y-417746D01*
X453818Y-417146D01*
X453833Y-417122D01*
X453846Y-417118D01*
X454646Y-415118D01*
X454643Y-415107D01*
X454647Y-415103D01*
X454647Y-415102D01*
X454649Y-415100D01*
X454649Y-411800D01*
X454639Y-411786D01*
X454643Y-411776D01*
X453643Y-409976D01*
X453616Y-409964D01*
X453610Y-409952D01*
X451129Y-409456D01*
X450049Y-407884D01*
X449949Y-405099D01*
X449949Y-382400D01*
X449938Y-382385D01*
X449942Y-382374D01*
X448742Y-380474D01*
X448717Y-380464D01*
X448711Y-380452D01*
X446111Y-379852D01*
X446100Y-379857D01*
X446095Y-379851D01*
X443095Y-380151D01*
X443077Y-380168D01*
X443064Y-380166D01*
X441664Y-381666D01*
X441663Y-381679D01*
X441654Y-381685D01*
X441659Y-381691D01*
X441651Y-381696D01*
X441451Y-384196D01*
X441453Y-384199D01*
X441451Y-384200D01*
X441451Y-407000D01*
X441452Y-407001D01*
X441451Y-407002D01*
X441551Y-410102D01*
X441554Y-410105D01*
X441551Y-410108D01*
X441951Y-412608D01*
X441955Y-412611D01*
X441953Y-412614D01*
X442553Y-414614D01*
X442563Y-414622D01*
X442561Y-414630D01*
X443761Y-416230D01*
X443778Y-416235D01*
X443781Y-416245D01*
X446181Y-417245D01*
X446190Y-417243D01*
X446193Y-417249D01*
X449593Y-417749D01*
X449598Y-417746D01*
X449600Y-417749D01*
X452300Y-417749D01*
X452311Y-417741D01*
G37*
G36*
X627906Y-364843D02*
X627906Y-364843D01*
X627912Y-364848D01*
X629912Y-364348D01*
X629932Y-364323D01*
X629945Y-364320D01*
X630745Y-362520D01*
X630742Y-362507D01*
X630749Y-362502D01*
X630849Y-360302D01*
X630848Y-360301D01*
X630849Y-360300D01*
X630849Y-341144D01*
X632702Y-340949D01*
X639300Y-340949D01*
X639312Y-340940D01*
X639320Y-340945D01*
X641120Y-340145D01*
X641137Y-340114D01*
X641149Y-340107D01*
X641449Y-338107D01*
X641444Y-338100D01*
X641449Y-338095D01*
X641249Y-335995D01*
X641227Y-335972D01*
X641226Y-335958D01*
X639626Y-334958D01*
X639610Y-334960D01*
X639606Y-334955D01*
X639603Y-334955D01*
X639600Y-334951D01*
X616000Y-334951D01*
X615995Y-334955D01*
X615994Y-334955D01*
X615991Y-334952D01*
X613891Y-335352D01*
X613869Y-335376D01*
X613855Y-335379D01*
X613055Y-337079D01*
X613059Y-337095D01*
X613051Y-337102D01*
X613151Y-339402D01*
X613167Y-339422D01*
X613165Y-339435D01*
X614465Y-340735D01*
X614489Y-340738D01*
X614496Y-340749D01*
X616696Y-340949D01*
X616698Y-340947D01*
X616700Y-340949D01*
X623070Y-340949D01*
X623751Y-342312D01*
X623751Y-361500D01*
X623753Y-361503D01*
X623751Y-361505D01*
X623951Y-363505D01*
X623970Y-363526D01*
X623970Y-363539D01*
X625570Y-364739D01*
X625591Y-364739D01*
X625598Y-364749D01*
X627898Y-364849D01*
X627906Y-364843D01*
G37*
G36*
X557006Y-364843D02*
X557006Y-364843D01*
X557012Y-364848D01*
X559012Y-364348D01*
X559032Y-364323D01*
X559045Y-364320D01*
X559845Y-362520D01*
X559842Y-362507D01*
X559849Y-362502D01*
X559949Y-360302D01*
X559948Y-360301D01*
X559949Y-360300D01*
X559949Y-341144D01*
X561802Y-340949D01*
X568400Y-340949D01*
X568412Y-340940D01*
X568420Y-340945D01*
X570220Y-340145D01*
X570237Y-340114D01*
X570249Y-340107D01*
X570549Y-338107D01*
X570544Y-338100D01*
X570549Y-338095D01*
X570349Y-335995D01*
X570327Y-335971D01*
X570325Y-335958D01*
X568625Y-334958D01*
X568610Y-334959D01*
X568606Y-334955D01*
X568603Y-334955D01*
X568600Y-334951D01*
X545100Y-334951D01*
X545095Y-334955D01*
X545094Y-334955D01*
X545091Y-334952D01*
X542991Y-335352D01*
X542969Y-335376D01*
X542955Y-335379D01*
X542155Y-337079D01*
X542159Y-337095D01*
X542151Y-337102D01*
X542251Y-339402D01*
X542267Y-339422D01*
X542265Y-339435D01*
X543565Y-340735D01*
X543589Y-340738D01*
X543596Y-340749D01*
X545796Y-340949D01*
X545798Y-340947D01*
X545800Y-340949D01*
X552170Y-340949D01*
X552851Y-342312D01*
X552851Y-361500D01*
X552853Y-361503D01*
X552851Y-361505D01*
X553051Y-363505D01*
X553070Y-363526D01*
X553070Y-363539D01*
X554670Y-364739D01*
X554691Y-364739D01*
X554698Y-364749D01*
X556998Y-364849D01*
X557006Y-364843D01*
G37*
G36*
X364807Y-417449D02*
X364807Y-417449D01*
X364821Y-417435D01*
X364832Y-417437D01*
X366432Y-416037D01*
X366438Y-416011D01*
X366449Y-416004D01*
X366649Y-413604D01*
X366647Y-413601D01*
X366649Y-413600D01*
X366649Y-403509D01*
X367539Y-401235D01*
X369709Y-400051D01*
X372190Y-400448D01*
X374588Y-401048D01*
X374615Y-401036D01*
X374628Y-401041D01*
X376528Y-399741D01*
X376534Y-399723D01*
X376545Y-399720D01*
X377645Y-397220D01*
X377642Y-397207D01*
X377649Y-397202D01*
X377749Y-394702D01*
X377738Y-394686D01*
X377743Y-394676D01*
X376543Y-392576D01*
X376517Y-392565D01*
X376512Y-392552D01*
X374012Y-391952D01*
X374005Y-391955D01*
X374002Y-391951D01*
X371602Y-391851D01*
X371591Y-391859D01*
X371583Y-391854D01*
X369083Y-392754D01*
X369078Y-392762D01*
X369072Y-392760D01*
X367104Y-394137D01*
X366233Y-393363D01*
X366227Y-393363D01*
X366227Y-393359D01*
X364527Y-392259D01*
X364508Y-392260D01*
X364502Y-392251D01*
X361202Y-392151D01*
X361191Y-392159D01*
X361183Y-392154D01*
X358983Y-392954D01*
X358968Y-392978D01*
X358955Y-392981D01*
X358155Y-394881D01*
X358155Y-394884D01*
X358153Y-394885D01*
X358157Y-394891D01*
X358158Y-394894D01*
X358151Y-394900D01*
X358151Y-415400D01*
X358162Y-415415D01*
X358158Y-415426D01*
X359358Y-417326D01*
X359384Y-417336D01*
X359390Y-417348D01*
X361790Y-417848D01*
X361801Y-417843D01*
X361807Y-417849D01*
X364807Y-417449D01*
G37*
G36*
X653510Y-364841D02*
X653510Y-364841D01*
X653518Y-364846D01*
X655318Y-364146D01*
X655333Y-364121D01*
X655346Y-364116D01*
X655946Y-362416D01*
X655943Y-362406D01*
X655949Y-362402D01*
X656049Y-360102D01*
X656048Y-360101D01*
X656049Y-360100D01*
X656049Y-339000D01*
X656048Y-338999D01*
X656049Y-338998D01*
X655949Y-336898D01*
X655937Y-336883D01*
X655940Y-336871D01*
X654940Y-335471D01*
X654916Y-335464D01*
X654911Y-335452D01*
X652711Y-334952D01*
X652705Y-334955D01*
X652698Y-334955D01*
X652694Y-334951D01*
X650094Y-335251D01*
X650078Y-335267D01*
X650065Y-335265D01*
X648865Y-336465D01*
X648862Y-336490D01*
X648851Y-336498D01*
X648751Y-338598D01*
X648752Y-338599D01*
X648751Y-338600D01*
X648751Y-362000D01*
X648756Y-362007D01*
X648752Y-362011D01*
X649152Y-363711D01*
X649172Y-363728D01*
X649173Y-363741D01*
X650673Y-364741D01*
X650692Y-364740D01*
X650698Y-364749D01*
X653498Y-364849D01*
X653510Y-364841D01*
G37*
G36*
X253008Y-417841D02*
X253008Y-417841D01*
X253016Y-417847D01*
X255416Y-417047D01*
X255430Y-417025D01*
X255444Y-417023D01*
X256444Y-415123D01*
X256441Y-415109D01*
X256447Y-415105D01*
X256446Y-415103D01*
X256449Y-415100D01*
X256449Y-397200D01*
X256448Y-397199D01*
X256449Y-397198D01*
X256349Y-394598D01*
X256339Y-394586D01*
X256343Y-394576D01*
X255243Y-392576D01*
X255216Y-392564D01*
X255210Y-392552D01*
X252710Y-392052D01*
X252699Y-392057D01*
X252694Y-392051D01*
X249494Y-392451D01*
X249477Y-392468D01*
X249464Y-392466D01*
X248064Y-393966D01*
X248062Y-393991D01*
X248051Y-393998D01*
X247951Y-396398D01*
X247952Y-396399D01*
X247951Y-396400D01*
X247951Y-413600D01*
X247953Y-413603D01*
X247951Y-413604D01*
X248151Y-416004D01*
X248167Y-416022D01*
X248165Y-416035D01*
X249665Y-417535D01*
X249689Y-417538D01*
X249696Y-417549D01*
X252996Y-417849D01*
X253008Y-417841D01*
G37*
G36*
X467408Y-417841D02*
X467408Y-417841D01*
X467416Y-417847D01*
X469816Y-417047D01*
X469831Y-417024D01*
X469845Y-417021D01*
X470745Y-415121D01*
X470742Y-415109D01*
X470747Y-415105D01*
X470746Y-415103D01*
X470749Y-415100D01*
X470749Y-394600D01*
X470739Y-394586D01*
X470743Y-394576D01*
X469643Y-392576D01*
X469615Y-392564D01*
X469609Y-392552D01*
X467009Y-392052D01*
X466999Y-392057D01*
X466994Y-392051D01*
X463894Y-392451D01*
X463877Y-392468D01*
X463864Y-392466D01*
X462464Y-393966D01*
X462462Y-393989D01*
X462451Y-393996D01*
X462251Y-396396D01*
X462253Y-396399D01*
X462251Y-396400D01*
X462251Y-413600D01*
X462254Y-413604D01*
X462251Y-413606D01*
X462551Y-416006D01*
X462567Y-416022D01*
X462565Y-416035D01*
X464065Y-417535D01*
X464089Y-417538D01*
X464096Y-417549D01*
X467396Y-417849D01*
X467408Y-417841D01*
G37*
G36*
X733507Y-417842D02*
X733507Y-417842D01*
X733515Y-417847D01*
X736015Y-417047D01*
X736031Y-417024D01*
X736045Y-417021D01*
X736945Y-415121D01*
X736942Y-415109D01*
X736947Y-415105D01*
X736946Y-415103D01*
X736949Y-415100D01*
X736949Y-394600D01*
X736939Y-394586D01*
X736943Y-394576D01*
X735843Y-392576D01*
X735815Y-392564D01*
X735809Y-392552D01*
X733209Y-392052D01*
X733199Y-392057D01*
X733194Y-392051D01*
X730094Y-392451D01*
X730077Y-392468D01*
X730064Y-392466D01*
X728664Y-393966D01*
X728662Y-393989D01*
X728651Y-393996D01*
X728451Y-396396D01*
X728453Y-396399D01*
X728451Y-396400D01*
X728451Y-413600D01*
X728454Y-413604D01*
X728451Y-413606D01*
X728751Y-416006D01*
X728767Y-416022D01*
X728765Y-416035D01*
X730265Y-417535D01*
X730289Y-417538D01*
X730295Y-417549D01*
X733495Y-417849D01*
X733507Y-417842D01*
G37*
%LPC*%
G36*
X674612Y-357352D02*
X674612Y-357352D01*
X672726Y-356557D01*
X671033Y-355163D01*
X669535Y-353665D01*
X669531Y-353665D01*
X669532Y-353662D01*
X668949Y-353177D01*
X668949Y-348905D01*
X669347Y-346815D01*
X670241Y-344929D01*
X671731Y-343438D01*
X673521Y-342245D01*
X675408Y-341649D01*
X677492Y-341649D01*
X679379Y-342245D01*
X681168Y-343438D01*
X682559Y-344928D01*
X683453Y-346815D01*
X683851Y-348904D01*
X683751Y-351193D01*
X683254Y-353180D01*
X682163Y-354867D01*
X680472Y-356259D01*
X678684Y-357253D01*
X676699Y-357550D01*
X674612Y-357352D01*
G37*
%LPD*%
%LPC*%
G36*
X-633683Y-388511D02*
X-633683Y-388511D01*
X-634230Y-388420D01*
X-634910Y-388225D01*
X-634929Y-388224D01*
X-634952Y-388216D01*
X-635522Y-388121D01*
X-636654Y-387743D01*
X-637102Y-387475D01*
X-637481Y-387191D01*
X-637923Y-386837D01*
X-638762Y-385438D01*
X-638941Y-384812D01*
X-639034Y-384164D01*
X-639034Y-382718D01*
X-638942Y-382079D01*
X-638566Y-380951D01*
X-638301Y-380509D01*
X-637930Y-380045D01*
X-637560Y-379675D01*
X-637096Y-379304D01*
X-636131Y-378725D01*
X-635681Y-378500D01*
X-635681Y-378499D01*
X-635568Y-378443D01*
X-634394Y-378052D01*
X-633826Y-377863D01*
X-633160Y-377767D01*
X-633139Y-377759D01*
X-633110Y-377757D01*
X-632430Y-377563D01*
X-631857Y-377467D01*
X-627660Y-376867D01*
X-627656Y-376866D01*
X-627652Y-376866D01*
X-627057Y-376767D01*
X-626360Y-376667D01*
X-626333Y-376657D01*
X-626294Y-376652D01*
X-625722Y-376461D01*
X-625152Y-376366D01*
X-625121Y-376353D01*
X-625073Y-376344D01*
X-624073Y-375944D01*
X-624051Y-375929D01*
X-624018Y-375917D01*
X-623545Y-375633D01*
X-623294Y-375533D01*
X-623294Y-380964D01*
X-623388Y-381618D01*
X-623583Y-382399D01*
X-623583Y-382403D01*
X-623585Y-382409D01*
X-623779Y-383283D01*
X-624057Y-384022D01*
X-624530Y-384779D01*
X-625022Y-385467D01*
X-625586Y-386219D01*
X-626334Y-386780D01*
X-627205Y-387362D01*
X-627891Y-387704D01*
X-628156Y-387837D01*
X-629397Y-388219D01*
X-630753Y-388412D01*
X-632326Y-388511D01*
X-633683Y-388511D01*
G37*
%LPD*%
G36*
X466802Y-388645D02*
X466802Y-388645D01*
X466806Y-388649D01*
X469306Y-388349D01*
X469310Y-388345D01*
X469314Y-388347D01*
X470014Y-388147D01*
X470035Y-388119D01*
X470047Y-388114D01*
X470747Y-385814D01*
X470745Y-385808D01*
X470747Y-385806D01*
X470745Y-385803D01*
X470749Y-385800D01*
X470749Y-383000D01*
X470741Y-382989D01*
X470746Y-382982D01*
X469946Y-380982D01*
X469920Y-380966D01*
X469916Y-380953D01*
X467616Y-380153D01*
X467602Y-380158D01*
X467596Y-380151D01*
X464196Y-380451D01*
X464181Y-380464D01*
X464169Y-380462D01*
X462669Y-381662D01*
X462664Y-381682D01*
X462652Y-381692D01*
X462651Y-381692D01*
X462251Y-384092D01*
X462255Y-384099D01*
X462251Y-384102D01*
X462351Y-386602D01*
X462366Y-386621D01*
X462364Y-386634D01*
X464064Y-388434D01*
X464089Y-388438D01*
X464096Y-388449D01*
X466796Y-388649D01*
X466802Y-388645D01*
G37*
G36*
X733002Y-388645D02*
X733002Y-388645D01*
X733006Y-388649D01*
X735406Y-388349D01*
X735409Y-388346D01*
X735412Y-388348D01*
X736212Y-388148D01*
X736235Y-388119D01*
X736247Y-388114D01*
X736947Y-385814D01*
X736945Y-385808D01*
X736947Y-385806D01*
X736945Y-385803D01*
X736949Y-385800D01*
X736949Y-383000D01*
X736941Y-382989D01*
X736946Y-382982D01*
X736146Y-380982D01*
X736120Y-380966D01*
X736116Y-380953D01*
X733816Y-380153D01*
X733802Y-380158D01*
X733796Y-380151D01*
X730396Y-380451D01*
X730381Y-380464D01*
X730369Y-380462D01*
X728869Y-381662D01*
X728864Y-381682D01*
X728852Y-381692D01*
X728851Y-381692D01*
X728451Y-384092D01*
X728455Y-384099D01*
X728451Y-384102D01*
X728551Y-386602D01*
X728566Y-386621D01*
X728564Y-386634D01*
X730264Y-388434D01*
X730289Y-388438D01*
X730296Y-388449D01*
X732996Y-388649D01*
X733002Y-388645D01*
G37*
G36*
X252402Y-388645D02*
X252402Y-388645D01*
X252406Y-388649D01*
X254906Y-388349D01*
X254910Y-388345D01*
X254914Y-388347D01*
X255614Y-388147D01*
X255634Y-388120D01*
X255647Y-388116D01*
X256447Y-385816D01*
X256444Y-385809D01*
X256447Y-385806D01*
X256445Y-385803D01*
X256449Y-385800D01*
X256449Y-383000D01*
X256440Y-382988D01*
X256445Y-382980D01*
X255545Y-380980D01*
X255520Y-380966D01*
X255516Y-380953D01*
X253216Y-380153D01*
X253202Y-380158D01*
X253196Y-380151D01*
X249896Y-380451D01*
X249881Y-380464D01*
X249870Y-380461D01*
X248270Y-381661D01*
X248264Y-381682D01*
X248252Y-381692D01*
X248253Y-381693D01*
X248251Y-381694D01*
X247951Y-384094D01*
X247954Y-384099D01*
X247951Y-384102D01*
X248051Y-386602D01*
X248066Y-386621D01*
X248064Y-386634D01*
X249764Y-388434D01*
X249789Y-388438D01*
X249796Y-388449D01*
X252396Y-388649D01*
X252402Y-388645D01*
G37*
%LPC*%
G36*
X358649Y-349151D02*
X358649Y-349151D01*
X358649Y-342828D01*
X359914Y-342049D01*
X364089Y-342049D01*
X366067Y-342939D01*
X367150Y-344614D01*
X367052Y-346783D01*
X365869Y-348359D01*
X363991Y-349051D01*
X359699Y-349151D01*
X358649Y-349151D01*
G37*
%LPD*%
%LPC*%
G36*
X240149Y-349151D02*
X240149Y-349151D01*
X240149Y-342828D01*
X241414Y-342049D01*
X245589Y-342049D01*
X247466Y-342939D01*
X248551Y-344615D01*
X248551Y-346784D01*
X247370Y-348358D01*
X245391Y-349051D01*
X241199Y-349151D01*
X240149Y-349151D01*
G37*
%LPD*%
%LPC*%
G36*
X754916Y-408151D02*
X754916Y-408151D01*
X752935Y-406665D01*
X752250Y-405784D01*
X752349Y-403413D01*
X753536Y-401137D01*
X755708Y-400051D01*
X758176Y-400446D01*
X759955Y-402324D01*
X760449Y-404595D01*
X759461Y-406866D01*
X757386Y-408151D01*
X754916Y-408151D01*
G37*
%LPD*%
%LPC*%
G36*
X488716Y-408151D02*
X488716Y-408151D01*
X486735Y-406665D01*
X486050Y-405784D01*
X486149Y-403413D01*
X487336Y-401137D01*
X489508Y-400051D01*
X491976Y-400446D01*
X493755Y-402324D01*
X494249Y-404595D01*
X493261Y-406866D01*
X491186Y-408151D01*
X488716Y-408151D01*
G37*
%LPD*%
%LPC*%
G36*
X334630Y-402751D02*
X334630Y-402751D01*
X333960Y-401410D01*
X335827Y-399543D01*
X338102Y-398752D01*
X340562Y-399441D01*
X341341Y-401680D01*
X339685Y-402751D01*
X334630Y-402751D01*
G37*
%LPD*%
%LPC*%
G36*
X599233Y-402751D02*
X599233Y-402751D01*
X598658Y-401411D01*
X600527Y-399543D01*
X602801Y-398752D01*
X605163Y-399441D01*
X606039Y-401680D01*
X604286Y-402751D01*
X599233Y-402751D01*
G37*
%LPD*%
%LPC*%
G36*
X412730Y-402451D02*
X412730Y-402451D01*
X412154Y-401299D01*
X414245Y-396620D01*
X414602Y-395818D01*
X416756Y-400321D01*
X417724Y-402451D01*
X412730Y-402451D01*
G37*
%LPD*%
%LPC*%
G36*
X590132Y-352051D02*
X590132Y-352051D01*
X589654Y-351000D01*
X591344Y-347122D01*
X591696Y-346506D01*
X593455Y-350220D01*
X594226Y-352051D01*
X590132Y-352051D01*
G37*
%LPD*%
%LPC*%
G36*
X600144Y-407094D02*
X600144Y-407094D01*
X600147Y-407091D01*
X600149Y-407097D01*
X600144Y-407094D01*
G37*
%LPD*%
M02*
