G04 EAGLE Gerber RS-274X export*
G75*
%MOMM*%
%FSLAX34Y34*%
%LPD*%
%IN*%
%IPPOS*%
%AMOC8*
5,1,8,0,0,1.08239X$1,22.5*%
G01*
%ADD10C,0.200000*%
%ADD11C,0.000000*%
%ADD12C,0.254000*%


D10*
X-1000000Y-400000D02*
X-999971Y-402416D01*
X-999883Y-404831D01*
X-999737Y-407243D01*
X-999533Y-409651D01*
X-999271Y-412054D01*
X-998951Y-414449D01*
X-998573Y-416836D01*
X-998137Y-419213D01*
X-997644Y-421578D01*
X-997094Y-423932D01*
X-996488Y-426271D01*
X-995825Y-428595D01*
X-995106Y-430902D01*
X-994331Y-433191D01*
X-993502Y-435460D01*
X-992617Y-437709D01*
X-991679Y-439936D01*
X-990687Y-442140D01*
X-989643Y-444319D01*
X-988546Y-446472D01*
X-987397Y-448598D01*
X-986197Y-450696D01*
X-984947Y-452764D01*
X-983647Y-454801D01*
X-982298Y-456806D01*
X-980902Y-458779D01*
X-979458Y-460716D01*
X-977967Y-462619D01*
X-976432Y-464484D01*
X-974851Y-466312D01*
X-973227Y-468102D01*
X-971560Y-469851D01*
X-969851Y-471560D01*
X-968102Y-473227D01*
X-966312Y-474851D01*
X-964484Y-476432D01*
X-962619Y-477967D01*
X-960716Y-479458D01*
X-958779Y-480902D01*
X-956806Y-482298D01*
X-954801Y-483647D01*
X-952764Y-484947D01*
X-950696Y-486197D01*
X-948598Y-487397D01*
X-946472Y-488546D01*
X-944319Y-489643D01*
X-942140Y-490687D01*
X-939936Y-491679D01*
X-937709Y-492617D01*
X-935460Y-493502D01*
X-933191Y-494331D01*
X-930902Y-495106D01*
X-928595Y-495825D01*
X-926271Y-496488D01*
X-923932Y-497094D01*
X-921578Y-497644D01*
X-919213Y-498137D01*
X-916836Y-498573D01*
X-914449Y-498951D01*
X-912054Y-499271D01*
X-909651Y-499533D01*
X-907243Y-499737D01*
X-904831Y-499883D01*
X-902416Y-499971D01*
X-900000Y-500000D01*
X900000Y-500000D01*
X902416Y-499971D01*
X904831Y-499883D01*
X907243Y-499737D01*
X909651Y-499533D01*
X912054Y-499271D01*
X914449Y-498951D01*
X916836Y-498573D01*
X919213Y-498137D01*
X921578Y-497644D01*
X923932Y-497094D01*
X926271Y-496488D01*
X928595Y-495825D01*
X930902Y-495106D01*
X933191Y-494331D01*
X935460Y-493502D01*
X937709Y-492617D01*
X939936Y-491679D01*
X942140Y-490687D01*
X944319Y-489643D01*
X946472Y-488546D01*
X948598Y-487397D01*
X950696Y-486197D01*
X952764Y-484947D01*
X954801Y-483647D01*
X956806Y-482298D01*
X958779Y-480902D01*
X960716Y-479458D01*
X962619Y-477967D01*
X964484Y-476432D01*
X966312Y-474851D01*
X968102Y-473227D01*
X969851Y-471560D01*
X971560Y-469851D01*
X973227Y-468102D01*
X974851Y-466312D01*
X976432Y-464484D01*
X977967Y-462619D01*
X979458Y-460716D01*
X980902Y-458779D01*
X982298Y-456806D01*
X983647Y-454801D01*
X984947Y-452764D01*
X986197Y-450696D01*
X987397Y-448598D01*
X988546Y-446472D01*
X989643Y-444319D01*
X990687Y-442140D01*
X991679Y-439936D01*
X992617Y-437709D01*
X993502Y-435460D01*
X994331Y-433191D01*
X995106Y-430902D01*
X995825Y-428595D01*
X996488Y-426271D01*
X997094Y-423932D01*
X997644Y-421578D01*
X998137Y-419213D01*
X998573Y-416836D01*
X998951Y-414449D01*
X999271Y-412054D01*
X999533Y-409651D01*
X999737Y-407243D01*
X999883Y-404831D01*
X999971Y-402416D01*
X1000000Y-400000D01*
X1000000Y400000D01*
X1000001Y400000D02*
X1000094Y402297D01*
X1000131Y404596D01*
X1000113Y406894D01*
X1000040Y409192D01*
X999911Y411487D01*
X999726Y413779D01*
X999486Y416065D01*
X999191Y418345D01*
X998841Y420617D01*
X998437Y422880D01*
X997977Y425133D01*
X997464Y427374D01*
X996896Y429601D01*
X996275Y431815D01*
X995600Y434013D01*
X994873Y436193D01*
X994093Y438356D01*
X993261Y440499D01*
X992377Y442621D01*
X991442Y444722D01*
X990457Y446799D01*
X989422Y448852D01*
X988338Y450879D01*
X987205Y452879D01*
X986024Y454851D01*
X984796Y456795D01*
X983521Y458708D01*
X982200Y460590D01*
X980835Y462439D01*
X979425Y464254D01*
X977971Y466035D01*
X976475Y467781D01*
X974937Y469490D01*
X973358Y471161D01*
X971740Y472793D01*
X970082Y474386D01*
X968386Y475939D01*
X966654Y477449D01*
X964885Y478918D01*
X963081Y480344D01*
X961244Y481725D01*
X959373Y483062D01*
X957471Y484353D01*
X955539Y485597D01*
X953576Y486795D01*
X951586Y487945D01*
X949568Y489047D01*
X947524Y490099D01*
X945455Y491102D01*
X943363Y492054D01*
X941248Y492956D01*
X939112Y493806D01*
X936956Y494604D01*
X934782Y495350D01*
X932590Y496043D01*
X930382Y496683D01*
X928159Y497270D01*
X925923Y497803D01*
X923674Y498281D01*
X921415Y498705D01*
X919146Y499074D01*
X916868Y499389D01*
X914584Y499648D01*
X912294Y499852D01*
X910000Y500001D01*
X910000Y500000D02*
X-890000Y500000D01*
X-892539Y500090D01*
X-895079Y500119D01*
X-897619Y500086D01*
X-900157Y499992D01*
X-902693Y499837D01*
X-905224Y499621D01*
X-907749Y499343D01*
X-910266Y499005D01*
X-912775Y498605D01*
X-915273Y498145D01*
X-917760Y497625D01*
X-920233Y497046D01*
X-922692Y496406D01*
X-925134Y495707D01*
X-927558Y494950D01*
X-929964Y494134D01*
X-932349Y493260D01*
X-934713Y492329D01*
X-937053Y491341D01*
X-939369Y490297D01*
X-941658Y489197D01*
X-943921Y488042D01*
X-946155Y486832D01*
X-948359Y485569D01*
X-950532Y484254D01*
X-952672Y482886D01*
X-954779Y481466D01*
X-956851Y479997D01*
X-958887Y478477D01*
X-960885Y476909D01*
X-962845Y475293D01*
X-964766Y473630D01*
X-966645Y471922D01*
X-968483Y470168D01*
X-970278Y468370D01*
X-972029Y466530D01*
X-973735Y464648D01*
X-975395Y462725D01*
X-977008Y460763D01*
X-978573Y458762D01*
X-980089Y456724D01*
X-981556Y454650D01*
X-982972Y452541D01*
X-984337Y450398D01*
X-985649Y448223D01*
X-986909Y446017D01*
X-988115Y443781D01*
X-989266Y441517D01*
X-990363Y439226D01*
X-991404Y436909D01*
X-992388Y434567D01*
X-993316Y432202D01*
X-994186Y429816D01*
X-994998Y427409D01*
X-995752Y424983D01*
X-996447Y422540D01*
X-997083Y420080D01*
X-997659Y417606D01*
X-998176Y415119D01*
X-998632Y412620D01*
X-999027Y410111D01*
X-999362Y407593D01*
X-999636Y405067D01*
X-999849Y402536D01*
X-1000000Y400000D01*
X-1000000Y-400000D01*
X-794000Y-167500D02*
X-794000Y167500D01*
X-755500Y-206000D02*
X755500Y-206000D01*
X794000Y-167500D02*
X794000Y167500D01*
X755500Y206000D02*
X-755500Y206000D01*
X-794000Y-167500D02*
X-793989Y-168430D01*
X-793955Y-169360D01*
X-793899Y-170289D01*
X-793820Y-171216D01*
X-793719Y-172141D01*
X-793596Y-173063D01*
X-793450Y-173982D01*
X-793283Y-174897D01*
X-793093Y-175808D01*
X-792881Y-176714D01*
X-792648Y-177614D01*
X-792392Y-178509D01*
X-792116Y-179397D01*
X-791818Y-180278D01*
X-791498Y-181152D01*
X-791158Y-182018D01*
X-790796Y-182876D01*
X-790415Y-183724D01*
X-790012Y-184563D01*
X-789590Y-185392D01*
X-789148Y-186210D01*
X-788686Y-187018D01*
X-788205Y-187814D01*
X-787704Y-188598D01*
X-787185Y-189370D01*
X-786647Y-190130D01*
X-786091Y-190876D01*
X-785517Y-191608D01*
X-784926Y-192326D01*
X-784318Y-193030D01*
X-783692Y-193719D01*
X-783051Y-194393D01*
X-782393Y-195051D01*
X-781719Y-195692D01*
X-781030Y-196318D01*
X-780326Y-196926D01*
X-779608Y-197517D01*
X-778876Y-198091D01*
X-778130Y-198647D01*
X-777370Y-199185D01*
X-776598Y-199704D01*
X-775814Y-200205D01*
X-775018Y-200686D01*
X-774210Y-201148D01*
X-773392Y-201590D01*
X-772563Y-202012D01*
X-771724Y-202415D01*
X-770876Y-202796D01*
X-770018Y-203158D01*
X-769152Y-203498D01*
X-768278Y-203818D01*
X-767397Y-204116D01*
X-766509Y-204392D01*
X-765614Y-204648D01*
X-764714Y-204881D01*
X-763808Y-205093D01*
X-762897Y-205283D01*
X-761982Y-205450D01*
X-761063Y-205596D01*
X-760141Y-205719D01*
X-759216Y-205820D01*
X-758289Y-205899D01*
X-757360Y-205955D01*
X-756430Y-205989D01*
X-755500Y-206000D01*
D11*
X-930000Y400000D02*
X-929991Y400736D01*
X-929964Y401472D01*
X-929919Y402207D01*
X-929856Y402941D01*
X-929774Y403672D01*
X-929675Y404402D01*
X-929558Y405129D01*
X-929424Y405853D01*
X-929271Y406573D01*
X-929101Y407289D01*
X-928913Y408001D01*
X-928708Y408709D01*
X-928486Y409410D01*
X-928246Y410107D01*
X-927990Y410797D01*
X-927716Y411481D01*
X-927426Y412157D01*
X-927120Y412827D01*
X-926797Y413488D01*
X-926458Y414142D01*
X-926103Y414787D01*
X-925732Y415423D01*
X-925346Y416050D01*
X-924944Y416667D01*
X-924528Y417274D01*
X-924096Y417871D01*
X-923650Y418457D01*
X-923190Y419032D01*
X-922716Y419595D01*
X-922229Y420147D01*
X-921727Y420686D01*
X-921213Y421213D01*
X-920686Y421727D01*
X-920147Y422229D01*
X-919595Y422716D01*
X-919032Y423190D01*
X-918457Y423650D01*
X-917871Y424096D01*
X-917274Y424528D01*
X-916667Y424944D01*
X-916050Y425346D01*
X-915423Y425732D01*
X-914787Y426103D01*
X-914142Y426458D01*
X-913488Y426797D01*
X-912827Y427120D01*
X-912157Y427426D01*
X-911481Y427716D01*
X-910797Y427990D01*
X-910107Y428246D01*
X-909410Y428486D01*
X-908709Y428708D01*
X-908001Y428913D01*
X-907289Y429101D01*
X-906573Y429271D01*
X-905853Y429424D01*
X-905129Y429558D01*
X-904402Y429675D01*
X-903672Y429774D01*
X-902941Y429856D01*
X-902207Y429919D01*
X-901472Y429964D01*
X-900736Y429991D01*
X-900000Y430000D01*
X-899264Y429991D01*
X-898528Y429964D01*
X-897793Y429919D01*
X-897059Y429856D01*
X-896328Y429774D01*
X-895598Y429675D01*
X-894871Y429558D01*
X-894147Y429424D01*
X-893427Y429271D01*
X-892711Y429101D01*
X-891999Y428913D01*
X-891291Y428708D01*
X-890590Y428486D01*
X-889893Y428246D01*
X-889203Y427990D01*
X-888519Y427716D01*
X-887843Y427426D01*
X-887173Y427120D01*
X-886512Y426797D01*
X-885858Y426458D01*
X-885213Y426103D01*
X-884577Y425732D01*
X-883950Y425346D01*
X-883333Y424944D01*
X-882726Y424528D01*
X-882129Y424096D01*
X-881543Y423650D01*
X-880968Y423190D01*
X-880405Y422716D01*
X-879853Y422229D01*
X-879314Y421727D01*
X-878787Y421213D01*
X-878273Y420686D01*
X-877771Y420147D01*
X-877284Y419595D01*
X-876810Y419032D01*
X-876350Y418457D01*
X-875904Y417871D01*
X-875472Y417274D01*
X-875056Y416667D01*
X-874654Y416050D01*
X-874268Y415423D01*
X-873897Y414787D01*
X-873542Y414142D01*
X-873203Y413488D01*
X-872880Y412827D01*
X-872574Y412157D01*
X-872284Y411481D01*
X-872010Y410797D01*
X-871754Y410107D01*
X-871514Y409410D01*
X-871292Y408709D01*
X-871087Y408001D01*
X-870899Y407289D01*
X-870729Y406573D01*
X-870576Y405853D01*
X-870442Y405129D01*
X-870325Y404402D01*
X-870226Y403672D01*
X-870144Y402941D01*
X-870081Y402207D01*
X-870036Y401472D01*
X-870009Y400736D01*
X-870000Y400000D01*
X-870009Y399264D01*
X-870036Y398528D01*
X-870081Y397793D01*
X-870144Y397059D01*
X-870226Y396328D01*
X-870325Y395598D01*
X-870442Y394871D01*
X-870576Y394147D01*
X-870729Y393427D01*
X-870899Y392711D01*
X-871087Y391999D01*
X-871292Y391291D01*
X-871514Y390590D01*
X-871754Y389893D01*
X-872010Y389203D01*
X-872284Y388519D01*
X-872574Y387843D01*
X-872880Y387173D01*
X-873203Y386512D01*
X-873542Y385858D01*
X-873897Y385213D01*
X-874268Y384577D01*
X-874654Y383950D01*
X-875056Y383333D01*
X-875472Y382726D01*
X-875904Y382129D01*
X-876350Y381543D01*
X-876810Y380968D01*
X-877284Y380405D01*
X-877771Y379853D01*
X-878273Y379314D01*
X-878787Y378787D01*
X-879314Y378273D01*
X-879853Y377771D01*
X-880405Y377284D01*
X-880968Y376810D01*
X-881543Y376350D01*
X-882129Y375904D01*
X-882726Y375472D01*
X-883333Y375056D01*
X-883950Y374654D01*
X-884577Y374268D01*
X-885213Y373897D01*
X-885858Y373542D01*
X-886512Y373203D01*
X-887173Y372880D01*
X-887843Y372574D01*
X-888519Y372284D01*
X-889203Y372010D01*
X-889893Y371754D01*
X-890590Y371514D01*
X-891291Y371292D01*
X-891999Y371087D01*
X-892711Y370899D01*
X-893427Y370729D01*
X-894147Y370576D01*
X-894871Y370442D01*
X-895598Y370325D01*
X-896328Y370226D01*
X-897059Y370144D01*
X-897793Y370081D01*
X-898528Y370036D01*
X-899264Y370009D01*
X-900000Y370000D01*
X-900736Y370009D01*
X-901472Y370036D01*
X-902207Y370081D01*
X-902941Y370144D01*
X-903672Y370226D01*
X-904402Y370325D01*
X-905129Y370442D01*
X-905853Y370576D01*
X-906573Y370729D01*
X-907289Y370899D01*
X-908001Y371087D01*
X-908709Y371292D01*
X-909410Y371514D01*
X-910107Y371754D01*
X-910797Y372010D01*
X-911481Y372284D01*
X-912157Y372574D01*
X-912827Y372880D01*
X-913488Y373203D01*
X-914142Y373542D01*
X-914787Y373897D01*
X-915423Y374268D01*
X-916050Y374654D01*
X-916667Y375056D01*
X-917274Y375472D01*
X-917871Y375904D01*
X-918457Y376350D01*
X-919032Y376810D01*
X-919595Y377284D01*
X-920147Y377771D01*
X-920686Y378273D01*
X-921213Y378787D01*
X-921727Y379314D01*
X-922229Y379853D01*
X-922716Y380405D01*
X-923190Y380968D01*
X-923650Y381543D01*
X-924096Y382129D01*
X-924528Y382726D01*
X-924944Y383333D01*
X-925346Y383950D01*
X-925732Y384577D01*
X-926103Y385213D01*
X-926458Y385858D01*
X-926797Y386512D01*
X-927120Y387173D01*
X-927426Y387843D01*
X-927716Y388519D01*
X-927990Y389203D01*
X-928246Y389893D01*
X-928486Y390590D01*
X-928708Y391291D01*
X-928913Y391999D01*
X-929101Y392711D01*
X-929271Y393427D01*
X-929424Y394147D01*
X-929558Y394871D01*
X-929675Y395598D01*
X-929774Y396328D01*
X-929856Y397059D01*
X-929919Y397793D01*
X-929964Y398528D01*
X-929991Y399264D01*
X-930000Y400000D01*
X870000Y400000D02*
X870009Y400736D01*
X870036Y401472D01*
X870081Y402207D01*
X870144Y402941D01*
X870226Y403672D01*
X870325Y404402D01*
X870442Y405129D01*
X870576Y405853D01*
X870729Y406573D01*
X870899Y407289D01*
X871087Y408001D01*
X871292Y408709D01*
X871514Y409410D01*
X871754Y410107D01*
X872010Y410797D01*
X872284Y411481D01*
X872574Y412157D01*
X872880Y412827D01*
X873203Y413488D01*
X873542Y414142D01*
X873897Y414787D01*
X874268Y415423D01*
X874654Y416050D01*
X875056Y416667D01*
X875472Y417274D01*
X875904Y417871D01*
X876350Y418457D01*
X876810Y419032D01*
X877284Y419595D01*
X877771Y420147D01*
X878273Y420686D01*
X878787Y421213D01*
X879314Y421727D01*
X879853Y422229D01*
X880405Y422716D01*
X880968Y423190D01*
X881543Y423650D01*
X882129Y424096D01*
X882726Y424528D01*
X883333Y424944D01*
X883950Y425346D01*
X884577Y425732D01*
X885213Y426103D01*
X885858Y426458D01*
X886512Y426797D01*
X887173Y427120D01*
X887843Y427426D01*
X888519Y427716D01*
X889203Y427990D01*
X889893Y428246D01*
X890590Y428486D01*
X891291Y428708D01*
X891999Y428913D01*
X892711Y429101D01*
X893427Y429271D01*
X894147Y429424D01*
X894871Y429558D01*
X895598Y429675D01*
X896328Y429774D01*
X897059Y429856D01*
X897793Y429919D01*
X898528Y429964D01*
X899264Y429991D01*
X900000Y430000D01*
X900736Y429991D01*
X901472Y429964D01*
X902207Y429919D01*
X902941Y429856D01*
X903672Y429774D01*
X904402Y429675D01*
X905129Y429558D01*
X905853Y429424D01*
X906573Y429271D01*
X907289Y429101D01*
X908001Y428913D01*
X908709Y428708D01*
X909410Y428486D01*
X910107Y428246D01*
X910797Y427990D01*
X911481Y427716D01*
X912157Y427426D01*
X912827Y427120D01*
X913488Y426797D01*
X914142Y426458D01*
X914787Y426103D01*
X915423Y425732D01*
X916050Y425346D01*
X916667Y424944D01*
X917274Y424528D01*
X917871Y424096D01*
X918457Y423650D01*
X919032Y423190D01*
X919595Y422716D01*
X920147Y422229D01*
X920686Y421727D01*
X921213Y421213D01*
X921727Y420686D01*
X922229Y420147D01*
X922716Y419595D01*
X923190Y419032D01*
X923650Y418457D01*
X924096Y417871D01*
X924528Y417274D01*
X924944Y416667D01*
X925346Y416050D01*
X925732Y415423D01*
X926103Y414787D01*
X926458Y414142D01*
X926797Y413488D01*
X927120Y412827D01*
X927426Y412157D01*
X927716Y411481D01*
X927990Y410797D01*
X928246Y410107D01*
X928486Y409410D01*
X928708Y408709D01*
X928913Y408001D01*
X929101Y407289D01*
X929271Y406573D01*
X929424Y405853D01*
X929558Y405129D01*
X929675Y404402D01*
X929774Y403672D01*
X929856Y402941D01*
X929919Y402207D01*
X929964Y401472D01*
X929991Y400736D01*
X930000Y400000D01*
X929991Y399264D01*
X929964Y398528D01*
X929919Y397793D01*
X929856Y397059D01*
X929774Y396328D01*
X929675Y395598D01*
X929558Y394871D01*
X929424Y394147D01*
X929271Y393427D01*
X929101Y392711D01*
X928913Y391999D01*
X928708Y391291D01*
X928486Y390590D01*
X928246Y389893D01*
X927990Y389203D01*
X927716Y388519D01*
X927426Y387843D01*
X927120Y387173D01*
X926797Y386512D01*
X926458Y385858D01*
X926103Y385213D01*
X925732Y384577D01*
X925346Y383950D01*
X924944Y383333D01*
X924528Y382726D01*
X924096Y382129D01*
X923650Y381543D01*
X923190Y380968D01*
X922716Y380405D01*
X922229Y379853D01*
X921727Y379314D01*
X921213Y378787D01*
X920686Y378273D01*
X920147Y377771D01*
X919595Y377284D01*
X919032Y376810D01*
X918457Y376350D01*
X917871Y375904D01*
X917274Y375472D01*
X916667Y375056D01*
X916050Y374654D01*
X915423Y374268D01*
X914787Y373897D01*
X914142Y373542D01*
X913488Y373203D01*
X912827Y372880D01*
X912157Y372574D01*
X911481Y372284D01*
X910797Y372010D01*
X910107Y371754D01*
X909410Y371514D01*
X908709Y371292D01*
X908001Y371087D01*
X907289Y370899D01*
X906573Y370729D01*
X905853Y370576D01*
X905129Y370442D01*
X904402Y370325D01*
X903672Y370226D01*
X902941Y370144D01*
X902207Y370081D01*
X901472Y370036D01*
X900736Y370009D01*
X900000Y370000D01*
X899264Y370009D01*
X898528Y370036D01*
X897793Y370081D01*
X897059Y370144D01*
X896328Y370226D01*
X895598Y370325D01*
X894871Y370442D01*
X894147Y370576D01*
X893427Y370729D01*
X892711Y370899D01*
X891999Y371087D01*
X891291Y371292D01*
X890590Y371514D01*
X889893Y371754D01*
X889203Y372010D01*
X888519Y372284D01*
X887843Y372574D01*
X887173Y372880D01*
X886512Y373203D01*
X885858Y373542D01*
X885213Y373897D01*
X884577Y374268D01*
X883950Y374654D01*
X883333Y375056D01*
X882726Y375472D01*
X882129Y375904D01*
X881543Y376350D01*
X880968Y376810D01*
X880405Y377284D01*
X879853Y377771D01*
X879314Y378273D01*
X878787Y378787D01*
X878273Y379314D01*
X877771Y379853D01*
X877284Y380405D01*
X876810Y380968D01*
X876350Y381543D01*
X875904Y382129D01*
X875472Y382726D01*
X875056Y383333D01*
X874654Y383950D01*
X874268Y384577D01*
X873897Y385213D01*
X873542Y385858D01*
X873203Y386512D01*
X872880Y387173D01*
X872574Y387843D01*
X872284Y388519D01*
X872010Y389203D01*
X871754Y389893D01*
X871514Y390590D01*
X871292Y391291D01*
X871087Y391999D01*
X870899Y392711D01*
X870729Y393427D01*
X870576Y394147D01*
X870442Y394871D01*
X870325Y395598D01*
X870226Y396328D01*
X870144Y397059D01*
X870081Y397793D01*
X870036Y398528D01*
X870009Y399264D01*
X870000Y400000D01*
X870000Y-400000D02*
X870009Y-399264D01*
X870036Y-398528D01*
X870081Y-397793D01*
X870144Y-397059D01*
X870226Y-396328D01*
X870325Y-395598D01*
X870442Y-394871D01*
X870576Y-394147D01*
X870729Y-393427D01*
X870899Y-392711D01*
X871087Y-391999D01*
X871292Y-391291D01*
X871514Y-390590D01*
X871754Y-389893D01*
X872010Y-389203D01*
X872284Y-388519D01*
X872574Y-387843D01*
X872880Y-387173D01*
X873203Y-386512D01*
X873542Y-385858D01*
X873897Y-385213D01*
X874268Y-384577D01*
X874654Y-383950D01*
X875056Y-383333D01*
X875472Y-382726D01*
X875904Y-382129D01*
X876350Y-381543D01*
X876810Y-380968D01*
X877284Y-380405D01*
X877771Y-379853D01*
X878273Y-379314D01*
X878787Y-378787D01*
X879314Y-378273D01*
X879853Y-377771D01*
X880405Y-377284D01*
X880968Y-376810D01*
X881543Y-376350D01*
X882129Y-375904D01*
X882726Y-375472D01*
X883333Y-375056D01*
X883950Y-374654D01*
X884577Y-374268D01*
X885213Y-373897D01*
X885858Y-373542D01*
X886512Y-373203D01*
X887173Y-372880D01*
X887843Y-372574D01*
X888519Y-372284D01*
X889203Y-372010D01*
X889893Y-371754D01*
X890590Y-371514D01*
X891291Y-371292D01*
X891999Y-371087D01*
X892711Y-370899D01*
X893427Y-370729D01*
X894147Y-370576D01*
X894871Y-370442D01*
X895598Y-370325D01*
X896328Y-370226D01*
X897059Y-370144D01*
X897793Y-370081D01*
X898528Y-370036D01*
X899264Y-370009D01*
X900000Y-370000D01*
X900736Y-370009D01*
X901472Y-370036D01*
X902207Y-370081D01*
X902941Y-370144D01*
X903672Y-370226D01*
X904402Y-370325D01*
X905129Y-370442D01*
X905853Y-370576D01*
X906573Y-370729D01*
X907289Y-370899D01*
X908001Y-371087D01*
X908709Y-371292D01*
X909410Y-371514D01*
X910107Y-371754D01*
X910797Y-372010D01*
X911481Y-372284D01*
X912157Y-372574D01*
X912827Y-372880D01*
X913488Y-373203D01*
X914142Y-373542D01*
X914787Y-373897D01*
X915423Y-374268D01*
X916050Y-374654D01*
X916667Y-375056D01*
X917274Y-375472D01*
X917871Y-375904D01*
X918457Y-376350D01*
X919032Y-376810D01*
X919595Y-377284D01*
X920147Y-377771D01*
X920686Y-378273D01*
X921213Y-378787D01*
X921727Y-379314D01*
X922229Y-379853D01*
X922716Y-380405D01*
X923190Y-380968D01*
X923650Y-381543D01*
X924096Y-382129D01*
X924528Y-382726D01*
X924944Y-383333D01*
X925346Y-383950D01*
X925732Y-384577D01*
X926103Y-385213D01*
X926458Y-385858D01*
X926797Y-386512D01*
X927120Y-387173D01*
X927426Y-387843D01*
X927716Y-388519D01*
X927990Y-389203D01*
X928246Y-389893D01*
X928486Y-390590D01*
X928708Y-391291D01*
X928913Y-391999D01*
X929101Y-392711D01*
X929271Y-393427D01*
X929424Y-394147D01*
X929558Y-394871D01*
X929675Y-395598D01*
X929774Y-396328D01*
X929856Y-397059D01*
X929919Y-397793D01*
X929964Y-398528D01*
X929991Y-399264D01*
X930000Y-400000D01*
X929991Y-400736D01*
X929964Y-401472D01*
X929919Y-402207D01*
X929856Y-402941D01*
X929774Y-403672D01*
X929675Y-404402D01*
X929558Y-405129D01*
X929424Y-405853D01*
X929271Y-406573D01*
X929101Y-407289D01*
X928913Y-408001D01*
X928708Y-408709D01*
X928486Y-409410D01*
X928246Y-410107D01*
X927990Y-410797D01*
X927716Y-411481D01*
X927426Y-412157D01*
X927120Y-412827D01*
X926797Y-413488D01*
X926458Y-414142D01*
X926103Y-414787D01*
X925732Y-415423D01*
X925346Y-416050D01*
X924944Y-416667D01*
X924528Y-417274D01*
X924096Y-417871D01*
X923650Y-418457D01*
X923190Y-419032D01*
X922716Y-419595D01*
X922229Y-420147D01*
X921727Y-420686D01*
X921213Y-421213D01*
X920686Y-421727D01*
X920147Y-422229D01*
X919595Y-422716D01*
X919032Y-423190D01*
X918457Y-423650D01*
X917871Y-424096D01*
X917274Y-424528D01*
X916667Y-424944D01*
X916050Y-425346D01*
X915423Y-425732D01*
X914787Y-426103D01*
X914142Y-426458D01*
X913488Y-426797D01*
X912827Y-427120D01*
X912157Y-427426D01*
X911481Y-427716D01*
X910797Y-427990D01*
X910107Y-428246D01*
X909410Y-428486D01*
X908709Y-428708D01*
X908001Y-428913D01*
X907289Y-429101D01*
X906573Y-429271D01*
X905853Y-429424D01*
X905129Y-429558D01*
X904402Y-429675D01*
X903672Y-429774D01*
X902941Y-429856D01*
X902207Y-429919D01*
X901472Y-429964D01*
X900736Y-429991D01*
X900000Y-430000D01*
X899264Y-429991D01*
X898528Y-429964D01*
X897793Y-429919D01*
X897059Y-429856D01*
X896328Y-429774D01*
X895598Y-429675D01*
X894871Y-429558D01*
X894147Y-429424D01*
X893427Y-429271D01*
X892711Y-429101D01*
X891999Y-428913D01*
X891291Y-428708D01*
X890590Y-428486D01*
X889893Y-428246D01*
X889203Y-427990D01*
X888519Y-427716D01*
X887843Y-427426D01*
X887173Y-427120D01*
X886512Y-426797D01*
X885858Y-426458D01*
X885213Y-426103D01*
X884577Y-425732D01*
X883950Y-425346D01*
X883333Y-424944D01*
X882726Y-424528D01*
X882129Y-424096D01*
X881543Y-423650D01*
X880968Y-423190D01*
X880405Y-422716D01*
X879853Y-422229D01*
X879314Y-421727D01*
X878787Y-421213D01*
X878273Y-420686D01*
X877771Y-420147D01*
X877284Y-419595D01*
X876810Y-419032D01*
X876350Y-418457D01*
X875904Y-417871D01*
X875472Y-417274D01*
X875056Y-416667D01*
X874654Y-416050D01*
X874268Y-415423D01*
X873897Y-414787D01*
X873542Y-414142D01*
X873203Y-413488D01*
X872880Y-412827D01*
X872574Y-412157D01*
X872284Y-411481D01*
X872010Y-410797D01*
X871754Y-410107D01*
X871514Y-409410D01*
X871292Y-408709D01*
X871087Y-408001D01*
X870899Y-407289D01*
X870729Y-406573D01*
X870576Y-405853D01*
X870442Y-405129D01*
X870325Y-404402D01*
X870226Y-403672D01*
X870144Y-402941D01*
X870081Y-402207D01*
X870036Y-401472D01*
X870009Y-400736D01*
X870000Y-400000D01*
X-930000Y-400000D02*
X-929991Y-399264D01*
X-929964Y-398528D01*
X-929919Y-397793D01*
X-929856Y-397059D01*
X-929774Y-396328D01*
X-929675Y-395598D01*
X-929558Y-394871D01*
X-929424Y-394147D01*
X-929271Y-393427D01*
X-929101Y-392711D01*
X-928913Y-391999D01*
X-928708Y-391291D01*
X-928486Y-390590D01*
X-928246Y-389893D01*
X-927990Y-389203D01*
X-927716Y-388519D01*
X-927426Y-387843D01*
X-927120Y-387173D01*
X-926797Y-386512D01*
X-926458Y-385858D01*
X-926103Y-385213D01*
X-925732Y-384577D01*
X-925346Y-383950D01*
X-924944Y-383333D01*
X-924528Y-382726D01*
X-924096Y-382129D01*
X-923650Y-381543D01*
X-923190Y-380968D01*
X-922716Y-380405D01*
X-922229Y-379853D01*
X-921727Y-379314D01*
X-921213Y-378787D01*
X-920686Y-378273D01*
X-920147Y-377771D01*
X-919595Y-377284D01*
X-919032Y-376810D01*
X-918457Y-376350D01*
X-917871Y-375904D01*
X-917274Y-375472D01*
X-916667Y-375056D01*
X-916050Y-374654D01*
X-915423Y-374268D01*
X-914787Y-373897D01*
X-914142Y-373542D01*
X-913488Y-373203D01*
X-912827Y-372880D01*
X-912157Y-372574D01*
X-911481Y-372284D01*
X-910797Y-372010D01*
X-910107Y-371754D01*
X-909410Y-371514D01*
X-908709Y-371292D01*
X-908001Y-371087D01*
X-907289Y-370899D01*
X-906573Y-370729D01*
X-905853Y-370576D01*
X-905129Y-370442D01*
X-904402Y-370325D01*
X-903672Y-370226D01*
X-902941Y-370144D01*
X-902207Y-370081D01*
X-901472Y-370036D01*
X-900736Y-370009D01*
X-900000Y-370000D01*
X-899264Y-370009D01*
X-898528Y-370036D01*
X-897793Y-370081D01*
X-897059Y-370144D01*
X-896328Y-370226D01*
X-895598Y-370325D01*
X-894871Y-370442D01*
X-894147Y-370576D01*
X-893427Y-370729D01*
X-892711Y-370899D01*
X-891999Y-371087D01*
X-891291Y-371292D01*
X-890590Y-371514D01*
X-889893Y-371754D01*
X-889203Y-372010D01*
X-888519Y-372284D01*
X-887843Y-372574D01*
X-887173Y-372880D01*
X-886512Y-373203D01*
X-885858Y-373542D01*
X-885213Y-373897D01*
X-884577Y-374268D01*
X-883950Y-374654D01*
X-883333Y-375056D01*
X-882726Y-375472D01*
X-882129Y-375904D01*
X-881543Y-376350D01*
X-880968Y-376810D01*
X-880405Y-377284D01*
X-879853Y-377771D01*
X-879314Y-378273D01*
X-878787Y-378787D01*
X-878273Y-379314D01*
X-877771Y-379853D01*
X-877284Y-380405D01*
X-876810Y-380968D01*
X-876350Y-381543D01*
X-875904Y-382129D01*
X-875472Y-382726D01*
X-875056Y-383333D01*
X-874654Y-383950D01*
X-874268Y-384577D01*
X-873897Y-385213D01*
X-873542Y-385858D01*
X-873203Y-386512D01*
X-872880Y-387173D01*
X-872574Y-387843D01*
X-872284Y-388519D01*
X-872010Y-389203D01*
X-871754Y-389893D01*
X-871514Y-390590D01*
X-871292Y-391291D01*
X-871087Y-391999D01*
X-870899Y-392711D01*
X-870729Y-393427D01*
X-870576Y-394147D01*
X-870442Y-394871D01*
X-870325Y-395598D01*
X-870226Y-396328D01*
X-870144Y-397059D01*
X-870081Y-397793D01*
X-870036Y-398528D01*
X-870009Y-399264D01*
X-870000Y-400000D01*
X-870009Y-400736D01*
X-870036Y-401472D01*
X-870081Y-402207D01*
X-870144Y-402941D01*
X-870226Y-403672D01*
X-870325Y-404402D01*
X-870442Y-405129D01*
X-870576Y-405853D01*
X-870729Y-406573D01*
X-870899Y-407289D01*
X-871087Y-408001D01*
X-871292Y-408709D01*
X-871514Y-409410D01*
X-871754Y-410107D01*
X-872010Y-410797D01*
X-872284Y-411481D01*
X-872574Y-412157D01*
X-872880Y-412827D01*
X-873203Y-413488D01*
X-873542Y-414142D01*
X-873897Y-414787D01*
X-874268Y-415423D01*
X-874654Y-416050D01*
X-875056Y-416667D01*
X-875472Y-417274D01*
X-875904Y-417871D01*
X-876350Y-418457D01*
X-876810Y-419032D01*
X-877284Y-419595D01*
X-877771Y-420147D01*
X-878273Y-420686D01*
X-878787Y-421213D01*
X-879314Y-421727D01*
X-879853Y-422229D01*
X-880405Y-422716D01*
X-880968Y-423190D01*
X-881543Y-423650D01*
X-882129Y-424096D01*
X-882726Y-424528D01*
X-883333Y-424944D01*
X-883950Y-425346D01*
X-884577Y-425732D01*
X-885213Y-426103D01*
X-885858Y-426458D01*
X-886512Y-426797D01*
X-887173Y-427120D01*
X-887843Y-427426D01*
X-888519Y-427716D01*
X-889203Y-427990D01*
X-889893Y-428246D01*
X-890590Y-428486D01*
X-891291Y-428708D01*
X-891999Y-428913D01*
X-892711Y-429101D01*
X-893427Y-429271D01*
X-894147Y-429424D01*
X-894871Y-429558D01*
X-895598Y-429675D01*
X-896328Y-429774D01*
X-897059Y-429856D01*
X-897793Y-429919D01*
X-898528Y-429964D01*
X-899264Y-429991D01*
X-900000Y-430000D01*
X-900736Y-429991D01*
X-901472Y-429964D01*
X-902207Y-429919D01*
X-902941Y-429856D01*
X-903672Y-429774D01*
X-904402Y-429675D01*
X-905129Y-429558D01*
X-905853Y-429424D01*
X-906573Y-429271D01*
X-907289Y-429101D01*
X-908001Y-428913D01*
X-908709Y-428708D01*
X-909410Y-428486D01*
X-910107Y-428246D01*
X-910797Y-427990D01*
X-911481Y-427716D01*
X-912157Y-427426D01*
X-912827Y-427120D01*
X-913488Y-426797D01*
X-914142Y-426458D01*
X-914787Y-426103D01*
X-915423Y-425732D01*
X-916050Y-425346D01*
X-916667Y-424944D01*
X-917274Y-424528D01*
X-917871Y-424096D01*
X-918457Y-423650D01*
X-919032Y-423190D01*
X-919595Y-422716D01*
X-920147Y-422229D01*
X-920686Y-421727D01*
X-921213Y-421213D01*
X-921727Y-420686D01*
X-922229Y-420147D01*
X-922716Y-419595D01*
X-923190Y-419032D01*
X-923650Y-418457D01*
X-924096Y-417871D01*
X-924528Y-417274D01*
X-924944Y-416667D01*
X-925346Y-416050D01*
X-925732Y-415423D01*
X-926103Y-414787D01*
X-926458Y-414142D01*
X-926797Y-413488D01*
X-927120Y-412827D01*
X-927426Y-412157D01*
X-927716Y-411481D01*
X-927990Y-410797D01*
X-928246Y-410107D01*
X-928486Y-409410D01*
X-928708Y-408709D01*
X-928913Y-408001D01*
X-929101Y-407289D01*
X-929271Y-406573D01*
X-929424Y-405853D01*
X-929558Y-405129D01*
X-929675Y-404402D01*
X-929774Y-403672D01*
X-929856Y-402941D01*
X-929919Y-402207D01*
X-929964Y-401472D01*
X-929991Y-400736D01*
X-930000Y-400000D01*
D10*
X755500Y-206000D02*
X756430Y-205989D01*
X757360Y-205955D01*
X758289Y-205899D01*
X759216Y-205820D01*
X760141Y-205719D01*
X761063Y-205596D01*
X761982Y-205450D01*
X762897Y-205283D01*
X763808Y-205093D01*
X764714Y-204881D01*
X765614Y-204648D01*
X766509Y-204392D01*
X767397Y-204116D01*
X768278Y-203818D01*
X769152Y-203498D01*
X770018Y-203158D01*
X770876Y-202796D01*
X771724Y-202415D01*
X772563Y-202012D01*
X773392Y-201590D01*
X774210Y-201148D01*
X775018Y-200686D01*
X775814Y-200205D01*
X776598Y-199704D01*
X777370Y-199185D01*
X778130Y-198647D01*
X778876Y-198091D01*
X779608Y-197517D01*
X780326Y-196926D01*
X781030Y-196318D01*
X781719Y-195692D01*
X782393Y-195051D01*
X783051Y-194393D01*
X783692Y-193719D01*
X784318Y-193030D01*
X784926Y-192326D01*
X785517Y-191608D01*
X786091Y-190876D01*
X786647Y-190130D01*
X787185Y-189370D01*
X787704Y-188598D01*
X788205Y-187814D01*
X788686Y-187018D01*
X789148Y-186210D01*
X789590Y-185392D01*
X790012Y-184563D01*
X790415Y-183724D01*
X790796Y-182876D01*
X791158Y-182018D01*
X791498Y-181152D01*
X791818Y-180278D01*
X792116Y-179397D01*
X792392Y-178509D01*
X792648Y-177614D01*
X792881Y-176714D01*
X793093Y-175808D01*
X793283Y-174897D01*
X793450Y-173982D01*
X793596Y-173063D01*
X793719Y-172141D01*
X793820Y-171216D01*
X793899Y-170289D01*
X793955Y-169360D01*
X793989Y-168430D01*
X794000Y-167500D01*
X794000Y167500D02*
X793989Y168430D01*
X793955Y169360D01*
X793899Y170289D01*
X793820Y171216D01*
X793719Y172141D01*
X793596Y173063D01*
X793450Y173982D01*
X793283Y174897D01*
X793093Y175808D01*
X792881Y176714D01*
X792648Y177614D01*
X792392Y178509D01*
X792116Y179397D01*
X791818Y180278D01*
X791498Y181152D01*
X791158Y182018D01*
X790796Y182876D01*
X790415Y183724D01*
X790012Y184563D01*
X789590Y185392D01*
X789148Y186210D01*
X788686Y187018D01*
X788205Y187814D01*
X787704Y188598D01*
X787185Y189370D01*
X786647Y190130D01*
X786091Y190876D01*
X785517Y191608D01*
X784926Y192326D01*
X784318Y193030D01*
X783692Y193719D01*
X783051Y194393D01*
X782393Y195051D01*
X781719Y195692D01*
X781030Y196318D01*
X780326Y196926D01*
X779608Y197517D01*
X778876Y198091D01*
X778130Y198647D01*
X777370Y199185D01*
X776598Y199704D01*
X775814Y200205D01*
X775018Y200686D01*
X774210Y201148D01*
X773392Y201590D01*
X772563Y202012D01*
X771724Y202415D01*
X770876Y202796D01*
X770018Y203158D01*
X769152Y203498D01*
X768278Y203818D01*
X767397Y204116D01*
X766509Y204392D01*
X765614Y204648D01*
X764714Y204881D01*
X763808Y205093D01*
X762897Y205283D01*
X761982Y205450D01*
X761063Y205596D01*
X760141Y205719D01*
X759216Y205820D01*
X758289Y205899D01*
X757360Y205955D01*
X756430Y205989D01*
X755500Y206000D01*
X-755500Y206000D02*
X-756430Y205989D01*
X-757360Y205955D01*
X-758289Y205899D01*
X-759216Y205820D01*
X-760141Y205719D01*
X-761063Y205596D01*
X-761982Y205450D01*
X-762897Y205283D01*
X-763808Y205093D01*
X-764714Y204881D01*
X-765614Y204648D01*
X-766509Y204392D01*
X-767397Y204116D01*
X-768278Y203818D01*
X-769152Y203498D01*
X-770018Y203158D01*
X-770876Y202796D01*
X-771724Y202415D01*
X-772563Y202012D01*
X-773392Y201590D01*
X-774210Y201148D01*
X-775018Y200686D01*
X-775814Y200205D01*
X-776598Y199704D01*
X-777370Y199185D01*
X-778130Y198647D01*
X-778876Y198091D01*
X-779608Y197517D01*
X-780326Y196926D01*
X-781030Y196318D01*
X-781719Y195692D01*
X-782393Y195051D01*
X-783051Y194393D01*
X-783692Y193719D01*
X-784318Y193030D01*
X-784926Y192326D01*
X-785517Y191608D01*
X-786091Y190876D01*
X-786647Y190130D01*
X-787185Y189370D01*
X-787704Y188598D01*
X-788205Y187814D01*
X-788686Y187018D01*
X-789148Y186210D01*
X-789590Y185392D01*
X-790012Y184563D01*
X-790415Y183724D01*
X-790796Y182876D01*
X-791158Y182018D01*
X-791498Y181152D01*
X-791818Y180278D01*
X-792116Y179397D01*
X-792392Y178509D01*
X-792648Y177614D01*
X-792881Y176714D01*
X-793093Y175808D01*
X-793283Y174897D01*
X-793450Y173982D01*
X-793596Y173063D01*
X-793719Y172141D01*
X-793820Y171216D01*
X-793899Y170289D01*
X-793955Y169360D01*
X-793989Y168430D01*
X-794000Y167500D01*
D12*
X-1000000Y-400000D02*
X-999619Y-408716D01*
X-998481Y-417365D01*
X-996593Y-425882D01*
X-993969Y-434202D01*
X-990631Y-442262D01*
X-986603Y-450000D01*
X-981915Y-457358D01*
X-976604Y-464279D01*
X-970711Y-470711D01*
X-964279Y-476604D01*
X-957358Y-481915D01*
X-950000Y-486603D01*
X-942262Y-490631D01*
X-934202Y-493969D01*
X-925882Y-496593D01*
X-917365Y-498481D01*
X-908716Y-499619D01*
X-900000Y-500000D01*
X900000Y-500000D01*
X908716Y-499619D01*
X917365Y-498481D01*
X925882Y-496593D01*
X934202Y-493969D01*
X942262Y-490631D01*
X950000Y-486603D01*
X957358Y-481915D01*
X964279Y-476604D01*
X970711Y-470711D01*
X976604Y-464279D01*
X981915Y-457358D01*
X986603Y-450000D01*
X990631Y-442262D01*
X993969Y-434202D01*
X996593Y-425882D01*
X998481Y-417365D01*
X999619Y-408716D01*
X1000000Y-400000D01*
X1000000Y400000D01*
X1000074Y408299D01*
X999425Y416573D01*
X998057Y424758D01*
X995981Y432793D01*
X993212Y440617D01*
X989772Y448170D01*
X985687Y455394D01*
X980988Y462235D01*
X975711Y468640D01*
X969895Y474560D01*
X963586Y479952D01*
X956830Y484772D01*
X949680Y488986D01*
X942190Y492561D01*
X934417Y495469D01*
X926421Y497689D01*
X918261Y499203D01*
X910000Y500000D01*
X-890000Y500000D01*
X-899170Y500036D01*
X-908309Y499273D01*
X-917346Y497716D01*
X-926214Y495378D01*
X-934843Y492275D01*
X-943170Y488433D01*
X-951130Y483879D01*
X-958662Y478649D01*
X-965711Y472782D01*
X-972221Y466323D01*
X-978143Y459321D01*
X-983433Y451830D01*
X-988049Y443906D01*
X-991958Y435611D01*
X-995128Y427006D01*
X-997537Y418157D01*
X-999165Y409132D01*
X-1000000Y400000D01*
X-1000000Y-400000D01*
X-794000Y-167500D02*
X-793854Y-170856D01*
X-793415Y-174185D01*
X-792688Y-177465D01*
X-791678Y-180668D01*
X-790393Y-183771D01*
X-788842Y-186750D01*
X-787037Y-189583D01*
X-784993Y-192247D01*
X-782724Y-194724D01*
X-780247Y-196993D01*
X-777583Y-199037D01*
X-774750Y-200842D01*
X-771771Y-202393D01*
X-768668Y-203678D01*
X-765465Y-204688D01*
X-762185Y-205415D01*
X-758856Y-205854D01*
X-755500Y-206000D01*
X755500Y-206000D01*
X758856Y-205854D01*
X762185Y-205415D01*
X765465Y-204688D01*
X768668Y-203678D01*
X771771Y-202393D01*
X774750Y-200842D01*
X777583Y-199037D01*
X780247Y-196993D01*
X782724Y-194724D01*
X784993Y-192247D01*
X787037Y-189583D01*
X788842Y-186750D01*
X790393Y-183771D01*
X791678Y-180668D01*
X792688Y-177465D01*
X793415Y-174185D01*
X793854Y-170856D01*
X794000Y-167500D01*
X794000Y167500D01*
X793854Y170856D01*
X793415Y174185D01*
X792688Y177465D01*
X791678Y180668D01*
X790393Y183771D01*
X788842Y186750D01*
X787037Y189583D01*
X784993Y192247D01*
X782724Y194724D01*
X780247Y196993D01*
X777583Y199037D01*
X774750Y200842D01*
X771771Y202393D01*
X768668Y203678D01*
X765465Y204688D01*
X762185Y205415D01*
X758856Y205854D01*
X755500Y206000D01*
X-755500Y206000D01*
X-758856Y205854D01*
X-762185Y205415D01*
X-765465Y204688D01*
X-768668Y203678D01*
X-771771Y202393D01*
X-774750Y200842D01*
X-777583Y199037D01*
X-780247Y196993D01*
X-782724Y194724D01*
X-784993Y192247D01*
X-787037Y189583D01*
X-788842Y186750D01*
X-790393Y183771D01*
X-791678Y180668D01*
X-792688Y177465D01*
X-793415Y174185D01*
X-793854Y170856D01*
X-794000Y167500D01*
X-794000Y-167500D01*
X-870000Y399264D02*
X-870072Y397792D01*
X-870217Y396327D01*
X-870433Y394870D01*
X-870720Y393425D01*
X-871078Y391996D01*
X-871506Y390587D01*
X-872002Y389200D01*
X-872565Y387839D01*
X-873195Y386508D01*
X-873890Y385209D01*
X-874647Y383945D01*
X-875465Y382721D01*
X-876342Y381538D01*
X-877277Y380399D01*
X-878266Y379308D01*
X-879308Y378266D01*
X-880399Y377277D01*
X-881538Y376342D01*
X-882721Y375465D01*
X-883945Y374647D01*
X-885209Y373890D01*
X-886508Y373195D01*
X-887839Y372565D01*
X-889200Y372002D01*
X-890587Y371506D01*
X-891996Y371078D01*
X-893425Y370720D01*
X-894870Y370433D01*
X-896327Y370217D01*
X-897792Y370072D01*
X-899264Y370000D01*
X-900736Y370000D01*
X-902208Y370072D01*
X-903673Y370217D01*
X-905130Y370433D01*
X-906575Y370720D01*
X-908004Y371078D01*
X-909413Y371506D01*
X-910800Y372002D01*
X-912161Y372565D01*
X-913492Y373195D01*
X-914791Y373890D01*
X-916055Y374647D01*
X-917279Y375465D01*
X-918463Y376342D01*
X-919601Y377277D01*
X-920692Y378266D01*
X-921734Y379308D01*
X-922723Y380399D01*
X-923658Y381538D01*
X-924535Y382721D01*
X-925353Y383945D01*
X-926110Y385209D01*
X-926805Y386508D01*
X-927435Y387839D01*
X-927998Y389200D01*
X-928494Y390587D01*
X-928922Y391996D01*
X-929280Y393425D01*
X-929567Y394870D01*
X-929783Y396327D01*
X-929928Y397792D01*
X-930000Y399264D01*
X-930000Y400736D01*
X-929928Y402208D01*
X-929783Y403673D01*
X-929567Y405130D01*
X-929280Y406575D01*
X-928922Y408004D01*
X-928494Y409413D01*
X-927998Y410800D01*
X-927435Y412161D01*
X-926805Y413492D01*
X-926110Y414791D01*
X-925353Y416055D01*
X-924535Y417279D01*
X-923658Y418463D01*
X-922723Y419601D01*
X-921734Y420692D01*
X-920692Y421734D01*
X-919601Y422723D01*
X-918463Y423658D01*
X-917279Y424535D01*
X-916055Y425353D01*
X-914791Y426110D01*
X-913492Y426805D01*
X-912161Y427435D01*
X-910800Y427998D01*
X-909413Y428494D01*
X-908004Y428922D01*
X-906575Y429280D01*
X-905130Y429567D01*
X-903673Y429783D01*
X-902208Y429928D01*
X-900736Y430000D01*
X-899264Y430000D01*
X-897792Y429928D01*
X-896327Y429783D01*
X-894870Y429567D01*
X-893425Y429280D01*
X-891996Y428922D01*
X-890587Y428494D01*
X-889200Y427998D01*
X-887839Y427435D01*
X-886508Y426805D01*
X-885209Y426110D01*
X-883945Y425353D01*
X-882721Y424535D01*
X-881538Y423658D01*
X-880399Y422723D01*
X-879308Y421734D01*
X-878266Y420692D01*
X-877277Y419601D01*
X-876342Y418463D01*
X-875465Y417279D01*
X-874647Y416055D01*
X-873890Y414791D01*
X-873195Y413492D01*
X-872565Y412161D01*
X-872002Y410800D01*
X-871506Y409413D01*
X-871078Y408004D01*
X-870720Y406575D01*
X-870433Y405130D01*
X-870217Y403673D01*
X-870072Y402208D01*
X-870000Y400736D01*
X-870000Y399264D01*
X930000Y399264D02*
X929928Y397792D01*
X929783Y396327D01*
X929567Y394870D01*
X929280Y393425D01*
X928922Y391996D01*
X928494Y390587D01*
X927998Y389200D01*
X927435Y387839D01*
X926805Y386508D01*
X926110Y385209D01*
X925353Y383945D01*
X924535Y382721D01*
X923658Y381538D01*
X922723Y380399D01*
X921734Y379308D01*
X920692Y378266D01*
X919601Y377277D01*
X918463Y376342D01*
X917279Y375465D01*
X916055Y374647D01*
X914791Y373890D01*
X913492Y373195D01*
X912161Y372565D01*
X910800Y372002D01*
X909413Y371506D01*
X908004Y371078D01*
X906575Y370720D01*
X905130Y370433D01*
X903673Y370217D01*
X902208Y370072D01*
X900736Y370000D01*
X899264Y370000D01*
X897792Y370072D01*
X896327Y370217D01*
X894870Y370433D01*
X893425Y370720D01*
X891996Y371078D01*
X890587Y371506D01*
X889200Y372002D01*
X887839Y372565D01*
X886508Y373195D01*
X885209Y373890D01*
X883945Y374647D01*
X882721Y375465D01*
X881538Y376342D01*
X880399Y377277D01*
X879308Y378266D01*
X878266Y379308D01*
X877277Y380399D01*
X876342Y381538D01*
X875465Y382721D01*
X874647Y383945D01*
X873890Y385209D01*
X873195Y386508D01*
X872565Y387839D01*
X872002Y389200D01*
X871506Y390587D01*
X871078Y391996D01*
X870720Y393425D01*
X870433Y394870D01*
X870217Y396327D01*
X870072Y397792D01*
X870000Y399264D01*
X870000Y400736D01*
X870072Y402208D01*
X870217Y403673D01*
X870433Y405130D01*
X870720Y406575D01*
X871078Y408004D01*
X871506Y409413D01*
X872002Y410800D01*
X872565Y412161D01*
X873195Y413492D01*
X873890Y414791D01*
X874647Y416055D01*
X875465Y417279D01*
X876342Y418463D01*
X877277Y419601D01*
X878266Y420692D01*
X879308Y421734D01*
X880399Y422723D01*
X881538Y423658D01*
X882721Y424535D01*
X883945Y425353D01*
X885209Y426110D01*
X886508Y426805D01*
X887839Y427435D01*
X889200Y427998D01*
X890587Y428494D01*
X891996Y428922D01*
X893425Y429280D01*
X894870Y429567D01*
X896327Y429783D01*
X897792Y429928D01*
X899264Y430000D01*
X900736Y430000D01*
X902208Y429928D01*
X903673Y429783D01*
X905130Y429567D01*
X906575Y429280D01*
X908004Y428922D01*
X909413Y428494D01*
X910800Y427998D01*
X912161Y427435D01*
X913492Y426805D01*
X914791Y426110D01*
X916055Y425353D01*
X917279Y424535D01*
X918463Y423658D01*
X919601Y422723D01*
X920692Y421734D01*
X921734Y420692D01*
X922723Y419601D01*
X923658Y418463D01*
X924535Y417279D01*
X925353Y416055D01*
X926110Y414791D01*
X926805Y413492D01*
X927435Y412161D01*
X927998Y410800D01*
X928494Y409413D01*
X928922Y408004D01*
X929280Y406575D01*
X929567Y405130D01*
X929783Y403673D01*
X929928Y402208D01*
X930000Y400736D01*
X930000Y399264D01*
X930000Y-400736D02*
X929928Y-402208D01*
X929783Y-403673D01*
X929567Y-405130D01*
X929280Y-406575D01*
X928922Y-408004D01*
X928494Y-409413D01*
X927998Y-410800D01*
X927435Y-412161D01*
X926805Y-413492D01*
X926110Y-414791D01*
X925353Y-416055D01*
X924535Y-417279D01*
X923658Y-418463D01*
X922723Y-419601D01*
X921734Y-420692D01*
X920692Y-421734D01*
X919601Y-422723D01*
X918463Y-423658D01*
X917279Y-424535D01*
X916055Y-425353D01*
X914791Y-426110D01*
X913492Y-426805D01*
X912161Y-427435D01*
X910800Y-427998D01*
X909413Y-428494D01*
X908004Y-428922D01*
X906575Y-429280D01*
X905130Y-429567D01*
X903673Y-429783D01*
X902208Y-429928D01*
X900736Y-430000D01*
X899264Y-430000D01*
X897792Y-429928D01*
X896327Y-429783D01*
X894870Y-429567D01*
X893425Y-429280D01*
X891996Y-428922D01*
X890587Y-428494D01*
X889200Y-427998D01*
X887839Y-427435D01*
X886508Y-426805D01*
X885209Y-426110D01*
X883945Y-425353D01*
X882721Y-424535D01*
X881538Y-423658D01*
X880399Y-422723D01*
X879308Y-421734D01*
X878266Y-420692D01*
X877277Y-419601D01*
X876342Y-418463D01*
X875465Y-417279D01*
X874647Y-416055D01*
X873890Y-414791D01*
X873195Y-413492D01*
X872565Y-412161D01*
X872002Y-410800D01*
X871506Y-409413D01*
X871078Y-408004D01*
X870720Y-406575D01*
X870433Y-405130D01*
X870217Y-403673D01*
X870072Y-402208D01*
X870000Y-400736D01*
X870000Y-399264D01*
X870072Y-397792D01*
X870217Y-396327D01*
X870433Y-394870D01*
X870720Y-393425D01*
X871078Y-391996D01*
X871506Y-390587D01*
X872002Y-389200D01*
X872565Y-387839D01*
X873195Y-386508D01*
X873890Y-385209D01*
X874647Y-383945D01*
X875465Y-382721D01*
X876342Y-381538D01*
X877277Y-380399D01*
X878266Y-379308D01*
X879308Y-378266D01*
X880399Y-377277D01*
X881538Y-376342D01*
X882721Y-375465D01*
X883945Y-374647D01*
X885209Y-373890D01*
X886508Y-373195D01*
X887839Y-372565D01*
X889200Y-372002D01*
X890587Y-371506D01*
X891996Y-371078D01*
X893425Y-370720D01*
X894870Y-370433D01*
X896327Y-370217D01*
X897792Y-370072D01*
X899264Y-370000D01*
X900736Y-370000D01*
X902208Y-370072D01*
X903673Y-370217D01*
X905130Y-370433D01*
X906575Y-370720D01*
X908004Y-371078D01*
X909413Y-371506D01*
X910800Y-372002D01*
X912161Y-372565D01*
X913492Y-373195D01*
X914791Y-373890D01*
X916055Y-374647D01*
X917279Y-375465D01*
X918463Y-376342D01*
X919601Y-377277D01*
X920692Y-378266D01*
X921734Y-379308D01*
X922723Y-380399D01*
X923658Y-381538D01*
X924535Y-382721D01*
X925353Y-383945D01*
X926110Y-385209D01*
X926805Y-386508D01*
X927435Y-387839D01*
X927998Y-389200D01*
X928494Y-390587D01*
X928922Y-391996D01*
X929280Y-393425D01*
X929567Y-394870D01*
X929783Y-396327D01*
X929928Y-397792D01*
X930000Y-399264D01*
X930000Y-400736D01*
X-870000Y-400736D02*
X-870072Y-402208D01*
X-870217Y-403673D01*
X-870433Y-405130D01*
X-870720Y-406575D01*
X-871078Y-408004D01*
X-871506Y-409413D01*
X-872002Y-410800D01*
X-872565Y-412161D01*
X-873195Y-413492D01*
X-873890Y-414791D01*
X-874647Y-416055D01*
X-875465Y-417279D01*
X-876342Y-418463D01*
X-877277Y-419601D01*
X-878266Y-420692D01*
X-879308Y-421734D01*
X-880399Y-422723D01*
X-881538Y-423658D01*
X-882721Y-424535D01*
X-883945Y-425353D01*
X-885209Y-426110D01*
X-886508Y-426805D01*
X-887839Y-427435D01*
X-889200Y-427998D01*
X-890587Y-428494D01*
X-891996Y-428922D01*
X-893425Y-429280D01*
X-894870Y-429567D01*
X-896327Y-429783D01*
X-897792Y-429928D01*
X-899264Y-430000D01*
X-900736Y-430000D01*
X-902208Y-429928D01*
X-903673Y-429783D01*
X-905130Y-429567D01*
X-906575Y-429280D01*
X-908004Y-428922D01*
X-909413Y-428494D01*
X-910800Y-427998D01*
X-912161Y-427435D01*
X-913492Y-426805D01*
X-914791Y-426110D01*
X-916055Y-425353D01*
X-917279Y-424535D01*
X-918463Y-423658D01*
X-919601Y-422723D01*
X-920692Y-421734D01*
X-921734Y-420692D01*
X-922723Y-419601D01*
X-923658Y-418463D01*
X-924535Y-417279D01*
X-925353Y-416055D01*
X-926110Y-414791D01*
X-926805Y-413492D01*
X-927435Y-412161D01*
X-927998Y-410800D01*
X-928494Y-409413D01*
X-928922Y-408004D01*
X-929280Y-406575D01*
X-929567Y-405130D01*
X-929783Y-403673D01*
X-929928Y-402208D01*
X-930000Y-400736D01*
X-930000Y-399264D01*
X-929928Y-397792D01*
X-929783Y-396327D01*
X-929567Y-394870D01*
X-929280Y-393425D01*
X-928922Y-391996D01*
X-928494Y-390587D01*
X-927998Y-389200D01*
X-927435Y-387839D01*
X-926805Y-386508D01*
X-926110Y-385209D01*
X-925353Y-383945D01*
X-924535Y-382721D01*
X-923658Y-381538D01*
X-922723Y-380399D01*
X-921734Y-379308D01*
X-920692Y-378266D01*
X-919601Y-377277D01*
X-918463Y-376342D01*
X-917279Y-375465D01*
X-916055Y-374647D01*
X-914791Y-373890D01*
X-913492Y-373195D01*
X-912161Y-372565D01*
X-910800Y-372002D01*
X-909413Y-371506D01*
X-908004Y-371078D01*
X-906575Y-370720D01*
X-905130Y-370433D01*
X-903673Y-370217D01*
X-902208Y-370072D01*
X-900736Y-370000D01*
X-899264Y-370000D01*
X-897792Y-370072D01*
X-896327Y-370217D01*
X-894870Y-370433D01*
X-893425Y-370720D01*
X-891996Y-371078D01*
X-890587Y-371506D01*
X-889200Y-372002D01*
X-887839Y-372565D01*
X-886508Y-373195D01*
X-885209Y-373890D01*
X-883945Y-374647D01*
X-882721Y-375465D01*
X-881538Y-376342D01*
X-880399Y-377277D01*
X-879308Y-378266D01*
X-878266Y-379308D01*
X-877277Y-380399D01*
X-876342Y-381538D01*
X-875465Y-382721D01*
X-874647Y-383945D01*
X-873890Y-385209D01*
X-873195Y-386508D01*
X-872565Y-387839D01*
X-872002Y-389200D01*
X-871506Y-390587D01*
X-871078Y-391996D01*
X-870720Y-393425D01*
X-870433Y-394870D01*
X-870217Y-396327D01*
X-870072Y-397792D01*
X-870000Y-399264D01*
X-870000Y-400736D01*
M02*
