999
dxfrw 0.6.3
  0
SECTION
  2
HEADER
  9
$ACADVER
  1
AC1021
  9
$DWGCODEPAGE
  3
ANSI_1252
  9
$INSBASE
 10
0
 20
0
 30
0
  9
$EXTMIN
 10
-1.65625
 20
-2.5
 30
0
  9
$EXTMAX
 10
9.561111175397057
 20
3.15625
 30
0
  9
$LIMMIN
 10
0
 20
0
  9
$LIMMAX
 10
420
 20
297
  9
$ORTHOMODE
 70
    0
  9
$REGENMODE
 70
    1
  9
$FILLMODE
 70
    1
  9
$QTEXTMODE
 70
    0
  9
$MIRRTEXT
 70
    0
  9
$LTSCALE
 40
1
  9
$ATTMODE
 70
    0
  9
$TEXTSIZE
 40
2.5
  9
$TRACEWID
 40
15.68
  9
$TEXTSTYLE
  7
STANDARD
  9
$CLAYER
  8
Dimesions
  9
$CELTYPE
  6
BYLAYER
  9
$CECOLOR
 62
  256
  9
$CELTSCALE
 40
1
  9
$DISPSILH
 70
    0
  9
$DIMSCALE
 40
0.05
  9
$DIMASZ
 40
2.5
  9
$DIMEXO
 40
0.625
  9
$DIMDLI
 40
3.75
  9
$DIMRND
 40
0
  9
$DIMDLE
 40
0
  9
$DIMEXE
 40
1.25
  9
$DIMTP
 40
0
  9
$DIMTM
 40
0
  9
$DIMTXT
 40
2.5
  9
$DIMCEN
 40
2.5
  9
$DIMTSZ
 40
0
  9
$DIMTOL
 70
    0
  9
$DIMLIM
 70
    0
  9
$DIMTIH
 70
    0
  9
$DIMTOH
 70
    0
  9
$DIMSE1
 70
    0
  9
$DIMSE2
 70
    0
  9
$DIMTAD
 70
    1
  9
$DIMZIN
 70
    1
  9
$DIMBLK
  1

  9
$DIMASO
 70
    1
  9
$DIMSHO
 70
    1
  9
$DIMPOST
  1

  9
$DIMAPOST
  1

  9
$DIMALT
 70
    0
  9
$DIMALTD
 70
    3
  9
$DIMALTF
 40
0.03937
  9
$DIMLFAC
 40
1
  9
$DIMTOFL
 70
    1
  9
$DIMTVP
 40
0
  9
$DIMTIX
 70
    0
  9
$DIMSOXD
 70
    0
  9
$DIMSAH
 70
    0
  9
$DIMBLK1
  1

  9
$DIMBLK2
  1

  9
$DIMSTYLE
  2
STANDARD
  9
$DIMCLRD
 70
    0
  9
$DIMCLRE
 70
    0
  9
$DIMCLRT
 70
    0
  9
$DIMTFAC
 40
1
  9
$DIMGAP
 40
0.625
  9
$DIMJUST
 70
    0
  9
$DIMSD1
 70
    0
  9
$DIMSD2
 70
    0
  9
$DIMTOLJ
 70
    0
  9
$DIMTZIN
 70
    8
  9
$DIMALTZ
 70
    0
  9
$DIMALTTZ
 70
    0
  9
$DIMUPT
 70
    0
  9
$DIMDEC
 70
    3
  9
$DIMTDEC
 70
    2
  9
$DIMALTU
 70
    2
  9
$DIMALTTD
 70
    3
  9
$DIMTXSTY
  7
standard
  9
$DIMAUNIT
 70
    0
  9
$DIMADEC
 70
    2
  9
$DIMALTRND
 40
0
  9
$DIMAZIN
 70
    0
  9
$DIMDSEP
 70
    0
  9
$DIMATFIT
 70
    3
  9
$DIMFRAC
 70
    0
  9
$DIMLDRBLK
  1
STANDARD
  9
$DIMLUNIT
 70
    2
  9
$DIMLWD
 70
   -2
  9
$DIMLWE
 70
   -2
  9
$DIMTMOVE
 70
    0
  9
$DIMFXL
 40
1
  9
$DIMFXLON
 70
    0
  9
$DIMJOGANG
 40
0.7854
  9
$DIMTFILL
 70
    0
  9
$DIMTFILLCLR
 70
    0
  9
$DIMARCSYM
 70
    0
  9
$DIMLTYPE
  6

  9
$DIMLTEX1
  6

  9
$DIMLTEX2
  6

  9
$LUNITS
 70
    2
  9
$LUPREC
 70
    3
  9
$SKETCHINC
 40
1
  9
$FILLETRAD
 40
0
  9
$AUNITS
 70
    0
  9
$AUPREC
 70
    2
  9
$MENU
  1
.
  9
$ELEVATION
 40
0
  9
$PELEVATION
 40
0
  9
$THICKNESS
 40
0
  9
$LIMCHECK
 70
    0
  9
$CHAMFERA
 40
0
  9
$CHAMFERB
 40
0
  9
$CHAMFERC
 40
0
  9
$CHAMFERD
 40
0
  9
$SKPOLY
 70
    0
  9
$USRTIMER
 70
    1
  9
$ANGBASE
 50
0
  9
$ANGDIR
 70
    0
  9
$PDMODE
 70
   34
  9
$PDSIZE
 40
0
  9
$PLINEWID
 40
0
  9
$SPLFRAME
 70
    0
  9
$SPLINETYPE
 70
    2
  9
$SPLINESEGS
 70
    8
  9
$HANDSEED
  5
20000
  9
$SURFTAB1
 70
    6
  9
$SURFTAB2
 70
    6
  9
$SURFTYPE
 70
    6
  9
$SURFU
 70
    6
  9
$SURFV
 70
    6
  9
$UCSBASE
  2

  9
$UCSNAME
  2

  9
$UCSORG
 10
0
 20
0
 30
0
  9
$UCSXDIR
 10
1
 20
0
 30
0
  9
$UCSYDIR
 10
0
 20
1
 30
0
  9
$UCSORTHOREF
  2

  9
$UCSORTHOVIEW
 70
    0
  9
$UCSORGTOP
 10
0
 20
0
 30
0
  9
$UCSORGBOTTOM
 10
0
 20
0
 30
0
  9
$UCSORGLEFT
 10
0
 20
0
 30
0
  9
$UCSORGRIGHT
 10
0
 20
0
 30
0
  9
$UCSORGFRONT
 10
0
 20
0
 30
0
  9
$UCSORGBACK
 10
0
 20
0
 30
0
  9
$PUCSBASE
  2

  9
$PUCSNAME
  2

  9
$PUCSORG
 10
0
 20
0
 30
0
  9
$PUCSXDIR
 10
1
 20
0
 30
0
  9
$PUCSYDIR
 10
0
 20
1
 30
0
  9
$PUCSORTHOREF
  2

  9
$PUCSORTHOVIEW
 70
    0
  9
$PUCSORGTOP
 10
0
 20
0
 30
0
  9
$PUCSORGBOTTOM
 10
0
 20
0
 30
0
  9
$PUCSORGLEFT
 10
0
 20
0
 30
0
  9
$PUCSORGRIGHT
 10
0
 20
0
 30
0
  9
$PUCSORGFRONT
 10
0
 20
0
 30
0
  9
$PUCSORGBACK
 10
0
 20
0
 30
0
  9
$USERI1
 70
    0
  9
$USERI2
 70
    0
  9
$USERI3
 70
    0
  9
$USERI4
 70
    0
  9
$USERI5
 70
    0
  9
$USERR1
 40
0
  9
$USERR2
 40
0
  9
$USERR3
 40
0
  9
$USERR4
 40
0
  9
$USERR5
 40
0
  9
$WORLDVIEW
 70
    1
  9
$SHADEDGE
 70
    3
  9
$SHADEDIF
 70
   70
  9
$TILEMODE
 70
    1
  9
$MAXACTVP
 70
   64
  9
$PINSBASE
 10
2.069433471401412
 20
3.8419864011122
 30
0
  9
$PLIMCHECK
 70
    0
  9
$PEXTMIN
 10
0
 20
0
 30
0
  9
$PEXTMAX
 10
0
 20
0
 30
0
  9
$GRIDMODE
 70
    1
  9
$SNAPSTYLE
 70
    0
  9
$GRIDUNIT
 10
0.005
 20
0.005
  9
$PLIMMIN
 10
0
 20
0
  9
$PLIMMAX
 10
14.01574803149606
 20
8.503937007874017
  9
$UNITMODE
 70
    0
  9
$VISRETAIN
 70
    1
  9
$PLINEGEN
 70
    0
  9
$PSLTSCALE
 70
    1
  9
$TREEDEPTH
 70
 3020
  9
$CMLSTYLE
  2
Standard
  9
$CMLJUST
 70
    0
  9
$CMLSCALE
 40
20
  9
$PROXYGRAPHICS
 70
    1
  9
$MEASUREMENT
 70
    0
  9
$CELWEIGHT
370
   -1
  9
$ENDCAPS
280
    0
  9
$JOINSTYLE
280
    0
  9
$LWDISPLAY
290
    0
  9
$INSUNITS
 70
    1
  9
$HYPERLINKBASE
  1

  9
$STYLESHEET
  1

  9
$XEDIT
290
    1
  9
$CEPSNTYPE
380
    0
  9
$PSTYLEMODE
290
    1
  9
$EXTNAMES
290
    1
  9
$PSVPSCALE
 40
1.249469265751796
  9
$OLESTARTUP
290
    0
  9
$SORTENTS
280
  127
  9
$INDEXCTL
280
    0
  9
$HIDETEXT
280
    1
  9
$XCLIPFRAME
290
    0
  9
$HALOGAP
280
    0
  9
$OBSCOLOR
 70
  257
  9
$OBSLTYPE
280
    0
  9
$INTERSECTIONDISPLAY
280
    0
  9
$INTERSECTIONCOLOR
 70
  257
  9
$DIMASSOC
280
    1
  9
$PROJECTNAME
  1

  9
$CAMERADISPLAY
290
    0
  9
$LENSLENGTH
 40
50
  9
$CAMERAHEIGHT
 40
0
  9
$STEPSPERSEC
 40
2
  9
$STEPSIZE
 40
50
  9
$3DDWFPREC
 40
2
  9
$PSOLWIDTH
 40
5
  9
$PSOLHEIGHT
 40
80
  9
$LOFTANG1
 40
1.570796326794897
  9
$LOFTANG2
 40
1.570796326794897
  9
$LOFTMAG1
 40
0
  9
$LOFTMAG2
 40
0
  9
$LOFTPARAM
 70
    7
  9
$LOFTNORMALS
280
    1
  9
$LATITUDE
 40
1
  9
$LONGITUDE
 40
1
  9
$NORTHDIRECTION
 40
0
  9
$TIMEZONE
 70
-8000
  9
$LIGHTGLYPHDISPLAY
280
    1
  9
$TILEMODELIGHTSYNCH
280
    1
  9
$SOLIDHIST
280
    1
  9
$SHOWHIST
280
    1
  9
$DWFFRAME
280
    2
  9
$DGNFRAME
280
    0
  9
$REALWORLDSCALE
290
    1
  9
$INTERFERECOLOR
 62
    1
  9
$CSHADOW
280
    0
  9
$SHADOWPLANELOCATION
 40
0
  0
ENDSEC
  0
SECTION
  2
CLASSES
  0
ENDSEC
  0
SECTION
  2
TABLES
  0
TABLE
  2
VPORT
  5
8
330
0
100
AcDbSymbolTable
 70
    1
  0
VPORT
  5
31
330
2
100
AcDbSymbolTableRecord
100
AcDbViewportTableRecord
  2
*ACTIVE
 70
    0
 10
0
 20
0
 11
1
 21
1
 12
4.817161807442223
 22
1.704809680552043
 13
0
 23
0
 14
10
 24
10
 15
0.005
 25
0.005
 16
0
 26
0
 36
1
 17
0
 27
0
 37
0
 40
6.153073594933635
 41
1.846332945285215
 42
50
 43
0
 44
0
 50
0
 51
0
 71
    0
 72
  100
 73
    1
 74
    3
 75
    0
 76
    1
 77
    0
 78
    0
281
    0
 65
    1
110
0
120
0
130
0
111
1
121
0
131
0
112
0
122
1
132
0
 79
    0
146
0
348
10020
 60
    3
 61
    5
292
1
282
    1
141
0
142
0
 63
  250
421
3358443
  0
ENDTAB
  0
TABLE
  2
LTYPE
  5
5
330
0
100
AcDbSymbolTable
 70
    4
  0
LTYPE
  5
14
330
5
100
AcDbSymbolTableRecord
100
AcDbLinetypeTableRecord
  2
ByBlock
 70
    0
  3

 72
   65
 73
    0
 40
0
  0
LTYPE
  5
15
330
5
100
AcDbSymbolTableRecord
100
AcDbLinetypeTableRecord
  2
ByLayer
 70
    0
  3

 72
   65
 73
    0
 40
0
  0
LTYPE
  5
16
330
5
100
AcDbSymbolTableRecord
100
AcDbLinetypeTableRecord
  2
Continuous
 70
    0
  3
Solid line
 72
   65
 73
    0
 40
0
  0
LTYPE
  5
32
330
5
100
AcDbSymbolTableRecord
100
AcDbLinetypeTableRecord
  2
DOT
 70
    0
  3
Dot . . . . . . . . . . . . . . . . . . . . . .
 72
   65
 73
    2
 40
6.35
 49
0
 74
    0
 49
-6.35
 74
    0
  0
LTYPE
  5
33
330
5
100
AcDbSymbolTableRecord
100
AcDbLinetypeTableRecord
  2
DOTTINY
 70
    0
  3
Dot (.15x) .....................................
 72
   65
 73
    2
 40
0.9525
 49
0
 74
    0
 49
-0.9525
 74
    0
  0
LTYPE
  5
34
330
5
100
AcDbSymbolTableRecord
100
AcDbLinetypeTableRecord
  2
DOT2
 70
    0
  3
Dot (.5x) .....................................
 72
   65
 73
    2
 40
3.175
 49
0
 74
    0
 49
-3.175
 74
    0
  0
LTYPE
  5
35
330
5
100
AcDbSymbolTableRecord
100
AcDbLinetypeTableRecord
  2
DOTX2
 70
    0
  3
Dot (2x) .  .  .  .  .  .  .  .  .  .  .  .  .
 72
   65
 73
    2
 40
12.7
 49
0
 74
    0
 49
-12.7
 74
    0
  0
LTYPE
  5
36
330
5
100
AcDbSymbolTableRecord
100
AcDbLinetypeTableRecord
  2
DASHED
 70
    0
  3
Dashed _ _ _ _ _ _ _ _ _ _ _ _ _ _ _ _ _
 72
   65
 73
    2
 40
19.05
 49
12.7
 74
    0
 49
-6.35
 74
    0
  0
LTYPE
  5
37
330
5
100
AcDbSymbolTableRecord
100
AcDbLinetypeTableRecord
  2
DASHEDTINY
 70
    0
  3
Dashed (.15x) _ _ _ _ _ _ _ _ _ _ _ _ _ _ _ _ _
 72
   65
 73
    2
 40
2.8575
 49
1.905
 74
    0
 49
-0.9525
 74
    0
  0
LTYPE
  5
38
330
5
100
AcDbSymbolTableRecord
100
AcDbLinetypeTableRecord
  2
DASHED2
 70
    0
  3
Dashed (.5x) _ _ _ _ _ _ _ _ _ _ _ _ _ _ _ _ _
 72
   65
 73
    2
 40
9.524999999999999
 49
6.35
 74
    0
 49
-3.175
 74
    0
  0
LTYPE
  5
39
330
5
100
AcDbSymbolTableRecord
100
AcDbLinetypeTableRecord
  2
DASHEDX2
 70
    0
  3
Dashed (2x) ____  ____  ____  ____  ____  ___
 72
   65
 73
    2
 40
38.09999999999999
 49
25.4
 74
    0
 49
-12.7
 74
    0
  0
LTYPE
  5
3A
330
5
100
AcDbSymbolTableRecord
100
AcDbLinetypeTableRecord
  2
DASHDOT
 70
    0
  3
Dash dot __ . __ . __ . __ . __ . __ . __ . __
 72
   65
 73
    4
 40
25.4
 49
12.7
 74
    0
 49
-6.35
 74
    0
 49
0
 74
    0
 49
-6.35
 74
    0
  0
LTYPE
  5
3B
330
5
100
AcDbSymbolTableRecord
100
AcDbLinetypeTableRecord
  2
DASHDOTTINY
 70
    0
  3
Dash dot (.15x) _._._._._._._._._._._._._._._.
 72
   65
 73
    4
 40
3.81
 49
1.905
 74
    0
 49
-0.9525
 74
    0
 49
0
 74
    0
 49
-0.9525
 74
    0
  0
LTYPE
  5
3C
330
5
100
AcDbSymbolTableRecord
100
AcDbLinetypeTableRecord
  2
DASHDOT2
 70
    0
  3
Dash dot (.5x) _._._._._._._._._._._._._._._.
 72
   65
 73
    4
 40
12.7
 49
6.35
 74
    0
 49
-3.175
 74
    0
 49
0
 74
    0
 49
-3.175
 74
    0
  0
LTYPE
  5
3D
330
5
100
AcDbSymbolTableRecord
100
AcDbLinetypeTableRecord
  2
DASHDOTX2
 70
    0
  3
Dash dot (2x) ____  .  ____  .  ____  .  ___
 72
   65
 73
    4
 40
50.8
 49
25.4
 74
    0
 49
-12.7
 74
    0
 49
0
 74
    0
 49
-12.7
 74
    0
  0
LTYPE
  5
3E
330
5
100
AcDbSymbolTableRecord
100
AcDbLinetypeTableRecord
  2
DIVIDE
 70
    0
  3
Divide ____ . . ____ . . ____ . . ____ . . ____
 72
   65
 73
    6
 40
31.75
 49
12.7
 74
    0
 49
-6.35
 74
    0
 49
0
 74
    0
 49
-6.35
 74
    0
 49
0
 74
    0
 49
-6.35
 74
    0
  0
LTYPE
  5
3F
330
5
100
AcDbSymbolTableRecord
100
AcDbLinetypeTableRecord
  2
DIVIDETINY
 70
    0
  3
Divide (.15x) __..__..__..__..__..__..__..__.._
 72
   65
 73
    6
 40
4.7625
 49
1.905
 74
    0
 49
-0.9525
 74
    0
 49
0
 74
    0
 49
-0.9525
 74
    0
 49
0
 74
    0
 49
-0.9525
 74
    0
  0
LTYPE
  5
40
330
5
100
AcDbSymbolTableRecord
100
AcDbLinetypeTableRecord
  2
DIVIDE2
 70
    0
  3
Divide (.5x) __..__..__..__..__..__..__..__.._
 72
   65
 73
    6
 40
15.875
 49
6.35
 74
    0
 49
-3.175
 74
    0
 49
0
 74
    0
 49
-3.175
 74
    0
 49
0
 74
    0
 49
-3.175
 74
    0
  0
LTYPE
  5
41
330
5
100
AcDbSymbolTableRecord
100
AcDbLinetypeTableRecord
  2
DIVIDEX2
 70
    0
  3
Divide (2x) ________  .  .  ________  .  .  _
 72
   65
 73
    6
 40
63.5
 49
25.4
 74
    0
 49
-12.7
 74
    0
 49
0
 74
    0
 49
-12.7
 74
    0
 49
0
 74
    0
 49
-12.7
 74
    0
  0
LTYPE
  5
42
330
5
100
AcDbSymbolTableRecord
100
AcDbLinetypeTableRecord
  2
BORDER
 70
    0
  3
Border __ __ . __ __ . __ __ . __ __ . __ __ .
 72
   65
 73
    6
 40
44.45
 49
12.7
 74
    0
 49
-6.35
 74
    0
 49
12.7
 74
    0
 49
-6.35
 74
    0
 49
0
 74
    0
 49
-6.35
 74
    0
  0
LTYPE
  5
43
330
5
100
AcDbSymbolTableRecord
100
AcDbLinetypeTableRecord
  2
BORDERTINY
 70
    0
  3
Border (.15x) __.__.__.__.__.__.__.__.__.__.__.
 72
   65
 73
    6
 40
6.6675
 49
1.905
 74
    0
 49
-0.9525
 74
    0
 49
1.905
 74
    0
 49
-0.9525
 74
    0
 49
0
 74
    0
 49
-0.9525
 74
    0
  0
LTYPE
  5
44
330
5
100
AcDbSymbolTableRecord
100
AcDbLinetypeTableRecord
  2
BORDER2
 70
    0
  3
Border (.5x) __.__.__.__.__.__.__.__.__.__.__.
 72
   65
 73
    6
 40
22.225
 49
6.35
 74
    0
 49
-3.175
 74
    0
 49
6.35
 74
    0
 49
-3.175
 74
    0
 49
0
 74
    0
 49
-3.175
 74
    0
  0
LTYPE
  5
45
330
5
100
AcDbSymbolTableRecord
100
AcDbLinetypeTableRecord
  2
BORDERX2
 70
    0
  3
Border (2x) ____  ____  .  ____  ____  .  ___
 72
   65
 73
    6
 40
88.89999999999999
 49
25.4
 74
    0
 49
-12.7
 74
    0
 49
25.4
 74
    0
 49
-12.7
 74
    0
 49
0
 74
    0
 49
-12.7
 74
    0
  0
LTYPE
  5
46
330
5
100
AcDbSymbolTableRecord
100
AcDbLinetypeTableRecord
  2
CENTER
 70
    0
  3
Center ____ _ ____ _ ____ _ ____ _ ____ _ ____
 72
   65
 73
    4
 40
50.8
 49
31.75
 74
    0
 49
-6.35
 74
    0
 49
6.35
 74
    0
 49
-6.35
 74
    0
  0
LTYPE
  5
47
330
5
100
AcDbSymbolTableRecord
100
AcDbLinetypeTableRecord
  2
CENTERTINY
 70
    0
  3
Center (.15x) ___ _ ___ _ ___ _ ___ _ ___ _ ___
 72
   65
 73
    4
 40
7.62
 49
4.7625
 74
    0
 49
-0.9525
 74
    0
 49
0.9525
 74
    0
 49
-0.9525
 74
    0
  0
LTYPE
  5
48
330
5
100
AcDbSymbolTableRecord
100
AcDbLinetypeTableRecord
  2
CENTER2
 70
    0
  3
Center (.5x) ___ _ ___ _ ___ _ ___ _ ___ _ ___
 72
   65
 73
    4
 40
28.575
 49
19.05
 74
    0
 49
-3.175
 74
    0
 49
3.175
 74
    0
 49
-3.175
 74
    0
  0
LTYPE
  5
49
330
5
100
AcDbSymbolTableRecord
100
AcDbLinetypeTableRecord
  2
CENTERX2
 70
    0
  3
Center (2x) ________  __  ________  __  _____
 72
   65
 73
    4
 40
101.6
 49
63.5
 74
    0
 49
-12.7
 74
    0
 49
12.7
 74
    0
 49
-12.7
 74
    0
  0
ENDTAB
  0
TABLE
  2
LAYER
  5
2
330
0
100
AcDbSymbolTable
 70
    1
  0
LAYER
  5
10
330
2
100
AcDbSymbolTableRecord
100
AcDbLayerTableRecord
  2
0
 70
    0
 62
    7
  6
CONTINUOUS
370
    0
390
F
  0
LAYER
  5
4A
330
2
100
AcDbSymbolTableRecord
100
AcDbLayerTableRecord
  2
Dimesions
 70
    0
 62
    5
  6
CONTINUOUS
370
   25
390
F
  0
ENDTAB
  0
TABLE
  2
STYLE
  5
3
330
0
100
AcDbSymbolTable
 70
    3
  0
STYLE
  5
4B
330
2
100
AcDbSymbolTableRecord
100
AcDbTextStyleTableRecord
  2
Standard
 70
    0
 40
0
 41
1
 50
0
 71
    0
 42
1
  3
txt
  4

  0
ENDTAB
  0
TABLE
  2
VIEW
  5
6
330
0
100
AcDbSymbolTable
 70
    0
  0
ENDTAB
  0
TABLE
  2
UCS
  5
7
330
0
100
AcDbSymbolTable
 70
    0
  0
ENDTAB
  0
TABLE
  2
APPID
  5
9
330
0
100
AcDbSymbolTable
 70
    1
  0
APPID
  5
12
330
9
100
AcDbSymbolTableRecord
100
AcDbRegAppTableRecord
  2
ACAD
 70
    0
  0
APPID
  5
4C
330
9
100
AcDbSymbolTableRecord
100
AcDbRegAppTableRecord
  2
LibreCad
 70
    0
  0
ENDTAB
  0
TABLE
  2
DIMSTYLE
  5
A
330
0
100
AcDbSymbolTable
 70
    1
100
AcDbDimStyleTable
 71
    1
  0
DIMSTYLE
105
4D
330
A
100
AcDbSymbolTableRecord
100
AcDbDimStyleTableRecord
  2
Standard
 70
    0
 40
0.05
 41
2.5
 42
0.625
 43
0.38
 44
1.25
 45
0
 46
0
 47
0
 48
0
 49
1
140
2.5
141
0.09
142
0
143
25.4
144
1
145
0
146
1
147
0.625
148
0
 71
    0
 72
    0
 73
    0
 74
    1
 75
    0
 76
    0
 77
    0
 78
    1
 79
    0
170
    0
171
    2
172
    0
173
    0
174
    0
175
    0
176
    0
177
    0
178
    0
179
    2
271
    3
272
    4
273
    2
274
    2
275
    0
276
    0
277
    2
278
    0
279
    0
280
    0
281
    0
282
    0
283
    1
284
    0
285
    0
286
    0
288
    0
289
    3
340
standard
341

371
   -2
372
   -2
  0
ENDTAB
  0
TABLE
  2
BLOCK_RECORD
  5
1
330
0
100
AcDbSymbolTable
 70
    2
  0
BLOCK_RECORD
  5
1F
330
1
100
AcDbSymbolTableRecord
100
AcDbBlockTableRecord
  2
*Model_Space
 70
    0
280
    1
281
    0
  0
BLOCK_RECORD
  5
1E
330
1
100
AcDbSymbolTableRecord
100
AcDbBlockTableRecord
  2
*Paper_Space
 70
    0
280
    1
281
    0
  0
BLOCK_RECORD
  5
4E
330
1
100
AcDbSymbolTableRecord
100
AcDbBlockTableRecord
  2
*D11
 70
    0
280
    1
281
    0
  0
BLOCK_RECORD
  5
51
330
1
100
AcDbSymbolTableRecord
100
AcDbBlockTableRecord
  2
*D15
 70
    0
280
    1
281
    0
  0
BLOCK_RECORD
  5
54
330
1
100
AcDbSymbolTableRecord
100
AcDbBlockTableRecord
  2
*D2
 70
    0
280
    1
281
    0
  0
BLOCK_RECORD
  5
57
330
1
100
AcDbSymbolTableRecord
100
AcDbBlockTableRecord
  2
*D12
 70
    0
280
    1
281
    0
  0
BLOCK_RECORD
  5
5A
330
1
100
AcDbSymbolTableRecord
100
AcDbBlockTableRecord
  2
*D6
 70
    0
280
    1
281
    0
  0
BLOCK_RECORD
  5
5D
330
1
100
AcDbSymbolTableRecord
100
AcDbBlockTableRecord
  2
*D8
 70
    0
280
    1
281
    0
  0
BLOCK_RECORD
  5
60
330
1
100
AcDbSymbolTableRecord
100
AcDbBlockTableRecord
  2
*D14
 70
    0
280
    1
281
    0
  0
BLOCK_RECORD
  5
63
330
1
100
AcDbSymbolTableRecord
100
AcDbBlockTableRecord
  2
*D3
 70
    0
280
    1
281
    0
  0
BLOCK_RECORD
  5
66
330
1
100
AcDbSymbolTableRecord
100
AcDbBlockTableRecord
  2
*D16
 70
    0
280
    1
281
    0
  0
BLOCK_RECORD
  5
69
330
1
100
AcDbSymbolTableRecord
100
AcDbBlockTableRecord
  2
*D1
 70
    0
280
    1
281
    0
  0
BLOCK_RECORD
  5
6C
330
1
100
AcDbSymbolTableRecord
100
AcDbBlockTableRecord
  2
*D13
 70
    0
280
    1
281
    0
  0
BLOCK_RECORD
  5
6F
330
1
100
AcDbSymbolTableRecord
100
AcDbBlockTableRecord
  2
*D4
 70
    0
280
    1
281
    0
  0
BLOCK_RECORD
  5
72
330
1
100
AcDbSymbolTableRecord
100
AcDbBlockTableRecord
  2
*D5
 70
    0
280
    1
281
    0
  0
BLOCK_RECORD
  5
75
330
1
100
AcDbSymbolTableRecord
100
AcDbBlockTableRecord
  2
*D9
 70
    0
280
    1
281
    0
  0
BLOCK_RECORD
  5
78
330
1
100
AcDbSymbolTableRecord
100
AcDbBlockTableRecord
  2
*D7
 70
    0
280
    1
281
    0
  0
BLOCK_RECORD
  5
7B
330
1
100
AcDbSymbolTableRecord
100
AcDbBlockTableRecord
  2
*D17
 70
    0
280
    1
281
    0
  0
BLOCK_RECORD
  5
7E
330
1
100
AcDbSymbolTableRecord
100
AcDbBlockTableRecord
  2
*D10
 70
    0
280
    1
281
    0
  0
ENDTAB
  0
ENDSEC
  0
SECTION
  2
BLOCKS
  0
BLOCK
  5
20
330
1F
100
AcDbEntity
  8
0
100
AcDbBlockBegin
  2
*Model_Space
 70
    0
 10
0
 20
0
 30
0
  3
*Model_Space
  1

  0
ENDBLK
  5
21
330
1F
100
AcDbEntity
  8
0
100
AcDbBlockEnd
  0
BLOCK
  5
1C
330
1B
100
AcDbEntity
  8
0
100
AcDbBlockBegin
  2
*Paper_Space
 70
    0
 10
0
 20
0
 30
0
  3
*Paper_Space
  1

  0
ENDBLK
  5
1D
330
1F
100
AcDbEntity
  8
0
100
AcDbBlockEnd
  0
BLOCK
  5
4F
330
4E
100
AcDbEntity
  8
0
100
AcDbBlockBegin
  2
*D11
 70
    1
 10
0
 20
0
  3
*D11
  1

  0
LINE
  5
81
100
AcDbEntity
  8
Dimesions
  6
ByBlock
 62
    0
370
   -2
100
AcDbLine
 10
0
 20
3
 11
6.75
 21
3
  0
MTEXT
  5
82
100
AcDbEntity
  8
Dimesions
  6
CONTINUOUS
 62
    0
370
   -2
100
AcDbMText
 10
3.375
 20
3.09375
 30
0
 40
0.125
 41
0.2916666666666822
 71
    5
 72
    1
  1
6.75
  7
standard
210
0
220
0
230
1
 50
0
 73
    2
 44
1
  0
SOLID
  5
83
100
AcDbEntity
  8
Dimesions
  6
ByBlock
 62
    0
370
   -2
100
AcDbTrace
 10
0
 20
3
 30
0
 11
0.125
 21
3.020814232888642
 31
0
 12
0.125
 22
2.979185767111358
 32
0
 13
0.125
 23
2.979185767111358
 33
0
  0
SOLID
  5
84
100
AcDbEntity
  8
Dimesions
  6
ByBlock
 62
    0
370
   -2
100
AcDbTrace
 10
6.75
 20
3
 30
0
 11
6.625
 21
2.979185767111358
 31
0
 12
6.625
 22
3.020814232888642
 32
0
 13
6.625
 23
3.020814232888642
 33
0
  0
LINE
  5
85
100
AcDbEntity
  8
Dimesions
  6
ByBlock
 62
    0
370
   -2
100
AcDbLine
 10
1.913447427847464e-18
 20
2.03125
 11
3.826894855694929e-18
 21
3.0625
  0
LINE
  5
86
100
AcDbEntity
  8
Dimesions
  6
ByBlock
 62
    0
370
   -2
100
AcDbLine
 10
6.75
 20
2.03125
 11
6.75
 21
3.0625
  0
ENDBLK
  5
50
330
4E
100
AcDbEntity
  8
0
100
AcDbBlockEnd
  0
BLOCK
  5
52
330
51
100
AcDbEntity
  8
0
100
AcDbBlockBegin
  2
*D15
 70
    1
 10
0
 20
0
  3
*D15
  1

  0
LINE
  5
87
100
AcDbEntity
  8
Dimesions
  6
ByBlock
 62
    0
370
   -2
100
AcDbLine
 10
5.750000000000001
 20
0.8400000000000001
 11
5.750000000000001
 21
1.16
  0
MTEXT
  5
88
100
AcDbEntity
  8
Dimesions
  6
CONTINUOUS
 62
    0
370
   -2
100
AcDbMText
 10
5.656250000000001
 20
1.385694444444448
 30
0
 40
0.125
 41
0.3888888888888967
 71
    5
 72
    1
  1
0.320
  7
standard
210
0
220
0
230
1
 50
90
 73
    2
 44
1
  0
SOLID
  5
89
100
AcDbEntity
  8
Dimesions
  6
ByBlock
 62
    0
370
   -2
100
AcDbTrace
 10
5.750000000000001
 20
0.8400000000000001
 30
0
 11
5.729185767111359
 21
0.9650000000000001
 31
0
 12
5.770814232888643
 22
0.9650000000000001
 32
0
 13
5.770814232888643
 23
0.9650000000000001
 33
0
  0
SOLID
  5
8A
100
AcDbEntity
  8
Dimesions
  6
ByBlock
 62
    0
370
   -2
100
AcDbTrace
 10
5.750000000000001
 20
1.16
 30
0
 11
5.770814232888643
 21
1.035
 31
0
 12
5.729185767111359
 22
1.035
 32
0
 13
5.729185767111359
 23
1.035
 33
0
  0
LINE
  5
8B
100
AcDbEntity
  8
Dimesions
  6
ByBlock
 62
    0
370
   -2
100
AcDbLine
 10
6.16875
 20
0.84
 11
5.687500000000001
 21
0.8400000000000001
  0
LINE
  5
8C
100
AcDbEntity
  8
Dimesions
  6
ByBlock
 62
    0
370
   -2
100
AcDbLine
 10
6.16875
 20
1.16
 11
5.687500000000001
 21
1.16
  0
ENDBLK
  5
53
330
51
100
AcDbEntity
  8
0
100
AcDbBlockEnd
  0
BLOCK
  5
55
330
54
100
AcDbEntity
  8
0
100
AcDbBlockBegin
  2
*D2
 70
    1
 10
0
 20
0
  3
*D2
  1

  0
LINE
  5
8D
100
AcDbEntity
  8
Dimesions
  6
ByBlock
 62
    0
370
   -2
100
AcDbLine
 10
0.8
 20
-1
 11
-2.775557561562891e-17
 21
-1
  0
MTEXT
  5
8E
100
AcDbEntity
  8
Dimesions
  6
CONTINUOUS
 62
    0
370
   -2
100
AcDbMText
 10
0.7756944444444483
 20
-0.90625
 30
0
 40
0.125
 41
0.3888888888888967
 71
    5
 72
    1
  1
0.300
  7
standard
210
0
220
0
230
1
 50
0
 73
    2
 44
1
  0
SOLID
  5
8F
100
AcDbEntity
  8
Dimesions
  6
ByBlock
 62
    0
370
   -2
100
AcDbTrace
 10
0.55
 20
-1
 30
0
 11
0.675
 21
-0.979185767111358
 31
0
 12
0.675
 22
-1.020814232888642
 32
0
 13
0.675
 23
-1.020814232888642
 33
0
  0
SOLID
  5
90
100
AcDbEntity
  8
Dimesions
  6
ByBlock
 62
    0
370
   -2
100
AcDbTrace
 10
0.25
 20
-1
 30
0
 11
0.125
 21
-1.020814232888642
 31
0
 12
0.125
 22
-0.979185767111358
 32
0
 13
0.125
 23
-0.979185767111358
 33
0
  0
LINE
  5
91
100
AcDbEntity
  8
Dimesions
  6
ByBlock
 62
    0
370
   -2
100
AcDbLine
 10
0.55
 20
1.12875
 11
0.55
 21
-1.0625
  0
LINE
  5
92
100
AcDbEntity
  8
Dimesions
  6
ByBlock
 62
    0
370
   -2
100
AcDbLine
 10
0.25
 20
0.96875
 11
0.25
 21
-1.0625
  0
ENDBLK
  5
56
330
54
100
AcDbEntity
  8
0
100
AcDbBlockEnd
  0
BLOCK
  5
58
330
57
100
AcDbEntity
  8
0
100
AcDbBlockBegin
  2
*D12
 70
    1
 10
0
 20
0
  3
*D12
  1

  0
LINE
  5
93
100
AcDbEntity
  8
Dimesions
  6
ByBlock
 62
    0
370
   -2
100
AcDbLine
 10
5.825
 20
1.16
 11
6.575
 21
1.16
  0
MTEXT
  5
94
100
AcDbEntity
  8
Dimesions
  6
CONTINUOUS
 62
    0
370
   -2
100
AcDbMText
 10
7.958680587698527
 20
1.25375
 30
0
 40
0.125
 41
3.204861175397055
 71
    5
 72
    1
  1
Drill and ream to %%C0.250" - 9 places
  7
standard
210
0
220
0
230
1
 50
0
 73
    2
 44
1
  0
SOLID
  5
95
100
AcDbEntity
  8
Dimesions
  6
ByBlock
 62
    0
370
   -2
100
AcDbTrace
 10
6.075
 20
1.16
 30
0
 11
5.95
 21
1.139185767111358
 31
0
 12
5.95
 22
1.180814232888642
 32
0
 13
5.95
 23
1.180814232888642
 33
0
  0
SOLID
  5
96
100
AcDbEntity
  8
Dimesions
  6
ByBlock
 62
    0
370
   -2
100
AcDbTrace
 10
6.325
 20
1.16
 30
0
 11
6.45
 21
1.180814232888642
 31
0
 12
6.45
 22
1.139185767111358
 32
0
 13
6.45
 23
1.139185767111358
 33
0
  0
ENDBLK
  5
59
330
57
100
AcDbEntity
  8
0
100
AcDbBlockEnd
  0
BLOCK
  5
5B
330
5A
100
AcDbEntity
  8
0
100
AcDbBlockBegin
  2
*D6
 70
    1
 10
0
 20
0
  3
*D6
  1

  0
LINE
  5
97
100
AcDbEntity
  8
Dimesions
  6
ByBlock
 62
    0
370
   -2
100
AcDbLine
 10
1.75
 20
2.5
 11
2.625
 21
2.5
  0
MTEXT
  5
98
100
AcDbEntity
  8
Dimesions
  6
CONTINUOUS
 62
    0
370
   -2
100
AcDbMText
 10
2.1875
 20
2.59375
 30
0
 40
0.125
 41
0.3888888888888966
 71
    5
 72
    1
  1
0.875
  7
standard
210
0
220
0
230
1
 50
0
 73
    2
 44
1
  0
SOLID
  5
99
100
AcDbEntity
  8
Dimesions
  6
ByBlock
 62
    0
370
   -2
100
AcDbTrace
 10
1.75
 20
2.5
 30
0
 11
1.875
 21
2.520814232888642
 31
0
 12
1.875
 22
2.479185767111358
 32
0
 13
1.875
 23
2.479185767111358
 33
0
  0
SOLID
  5
9A
100
AcDbEntity
  8
Dimesions
  6
ByBlock
 62
    0
370
   -2
100
AcDbTrace
 10
2.625
 20
2.5
 30
0
 11
2.5
 21
2.479185767111358
 31
0
 12
2.5
 22
2.520814232888642
 32
0
 13
2.5
 23
2.520814232888642
 33
0
  0
LINE
  5
9B
100
AcDbEntity
  8
Dimesions
  6
ByBlock
 62
    0
370
   -2
100
AcDbLine
 10
1.75
 20
0.85125
 11
1.75
 21
2.5625
  0
LINE
  5
9C
100
AcDbEntity
  8
Dimesions
  6
ByBlock
 62
    0
370
   -2
100
AcDbLine
 10
2.625
 20
0.8512500000000001
 11
2.625
 21
2.5625
  0
ENDBLK
  5
5C
330
5A
100
AcDbEntity
  8
0
100
AcDbBlockEnd
  0
BLOCK
  5
5E
330
5D
100
AcDbEntity
  8
0
100
AcDbBlockBegin
  2
*D8
 70
    1
 10
0
 20
0
  3
*D8
  1

  0
LINE
  5
9D
100
AcDbEntity
  8
Dimesions
  6
ByBlock
 62
    0
370
   -2
100
AcDbLine
 10
-0.5000000000000002
 20
0.8400000000000001
 11
-0.5000000000000002
 21
1.16
  0
MTEXT
  5
9E
100
AcDbEntity
  8
Dimesions
  6
CONTINUOUS
 62
    0
370
   -2
100
AcDbMText
 10
-0.5937500000000002
 20
1.385694444444448
 30
0
 40
0.125
 41
0.3888888888888967
 71
    5
 72
    1
  1
0.320
  7
standard
210
0
220
0
230
1
 50
90
 73
    2
 44
1
  0
SOLID
  5
9F
100
AcDbEntity
  8
Dimesions
  6
ByBlock
 62
    0
370
   -2
100
AcDbTrace
 10
-0.5000000000000002
 20
0.8400000000000001
 30
0
 11
-0.5208142328886423
 21
0.9650000000000001
 31
0
 12
-0.4791857671113582
 22
0.9650000000000001
 32
0
 13
-0.4791857671113582
 23
0.9650000000000001
 33
0
  0
SOLID
  5
A0
100
AcDbEntity
  8
Dimesions
  6
ByBlock
 62
    0
370
   -2
100
AcDbTrace
 10
-0.5000000000000002
 20
1.16
 30
0
 11
-0.4791857671113582
 21
1.035
 31
0
 12
-0.5208142328886423
 22
1.035
 32
0
 13
-0.5208142328886423
 23
1.035
 33
0
  0
LINE
  5
A1
100
AcDbEntity
  8
Dimesions
  6
ByBlock
 62
    0
370
   -2
100
AcDbLine
 10
0.51875
 20
0.84
 11
-0.5625000000000002
 21
0.8400000000000001
  0
LINE
  5
A2
100
AcDbEntity
  8
Dimesions
  6
ByBlock
 62
    0
370
   -2
100
AcDbLine
 10
0.51875
 20
1.16
 11
-0.5625000000000002
 21
1.16
  0
ENDBLK
  5
5F
330
5D
100
AcDbEntity
  8
0
100
AcDbBlockEnd
  0
BLOCK
  5
61
330
60
100
AcDbEntity
  8
0
100
AcDbBlockBegin
  2
*D14
 70
    1
 10
0
 20
0
  3
*D14
  1

  0
LINE
  5
A3
100
AcDbEntity
  8
Dimesions
  6
ByBlock
 62
    0
370
   -2
100
AcDbLine
 10
5.95
 20
-0.4999999999999999
 11
6.750000000000001
 21
-0.5
  0
MTEXT
  5
A4
100
AcDbEntity
  8
Dimesions
  6
CONTINUOUS
 62
    0
370
   -2
100
AcDbMText
 10
6.725694444444449
 20
-0.40625
 30
0
 40
0.125
 41
0.3888888888888967
 71
    5
 72
    1
  1
0.300
  7
standard
210
0
220
0
230
1
 50
0
 73
    2
 44
1
  0
SOLID
  5
A5
100
AcDbEntity
  8
Dimesions
  6
ByBlock
 62
    0
370
   -2
100
AcDbTrace
 10
6.2
 20
-0.5
 30
0
 11
6.075
 21
-0.520814232888642
 31
0
 12
6.075
 22
-0.479185767111358
 32
0
 13
6.075
 23
-0.479185767111358
 33
0
  0
SOLID
  5
A6
100
AcDbEntity
  8
Dimesions
  6
ByBlock
 62
    0
370
   -2
100
AcDbTrace
 10
6.500000000000001
 20
-0.5
 30
0
 11
6.625000000000001
 21
-0.479185767111358
 31
0
 12
6.625000000000001
 22
-0.520814232888642
 32
0
 13
6.625000000000001
 23
-0.520814232888642
 33
0
  0
LINE
  5
A7
100
AcDbEntity
  8
Dimesions
  6
ByBlock
 62
    0
370
   -2
100
AcDbLine
 10
6.2
 20
1.12875
 11
6.2
 21
-0.5625
  0
LINE
  5
A8
100
AcDbEntity
  8
Dimesions
  6
ByBlock
 62
    0
370
   -2
100
AcDbLine
 10
6.500000000000001
 20
0.96875
 11
6.500000000000001
 21
-0.5625
  0
ENDBLK
  5
62
330
60
100
AcDbEntity
  8
0
100
AcDbBlockEnd
  0
BLOCK
  5
64
330
63
100
AcDbEntity
  8
0
100
AcDbBlockBegin
  2
*D3
 70
    1
 10
0
 20
0
  3
*D3
  1

  0
LINE
  5
A9
100
AcDbEntity
  8
Dimesions
  6
ByBlock
 62
    0
370
   -2
100
AcDbLine
 10
0.5
 20
-1.5
 11
-0.25
 21
-1.5
  0
MTEXT
  5
AA
100
AcDbEntity
  8
Dimesions
  6
CONTINUOUS
 62
    0
370
   -2
100
AcDbMText
 10
0.4756944444444483
 20
-1.40625
 30
0
 40
0.125
 41
0.3888888888888966
 71
    5
 72
    1
  1
0.250
  7
standard
210
0
220
0
230
1
 50
0
 73
    2
 44
1
  0
SOLID
  5
AB
100
AcDbEntity
  8
Dimesions
  6
ByBlock
 62
    0
370
   -2
100
AcDbTrace
 10
0.2500000000000001
 20
-1.5
 30
0
 11
0.3750000000000001
 21
-1.479185767111358
 31
0
 12
0.3750000000000001
 22
-1.520814232888642
 32
0
 13
0.3750000000000001
 23
-1.520814232888642
 33
0
  0
SOLID
  5
AC
100
AcDbEntity
  8
Dimesions
  6
ByBlock
 62
    0
370
   -2
100
AcDbTrace
 10
0
 20
-1.5
 30
0
 11
-0.125
 21
-1.520814232888642
 31
0
 12
-0.125
 22
-1.479185767111358
 32
0
 13
-0.125
 23
-1.479185767111358
 33
0
  0
LINE
  5
AD
100
AcDbEntity
  8
Dimesions
  6
ByBlock
 62
    0
370
   -2
100
AcDbLine
 10
0.2500000000000001
 20
0.96875
 11
0.2500000000000001
 21
-1.5625
  0
LINE
  5
AE
100
AcDbEntity
  8
Dimesions
  6
ByBlock
 62
    0
370
   -2
100
AcDbLine
 10
-5.740342283542393e-18
 20
-0.03125
 11
-1.148068456708479e-17
 21
-1.5625
  0
ENDBLK
  5
65
330
63
100
AcDbEntity
  8
0
100
AcDbBlockEnd
  0
BLOCK
  5
67
330
66
100
AcDbEntity
  8
0
100
AcDbBlockBegin
  2
*D16
 70
    1
 10
0
 20
0
  3
*D16
  1

  0
LINE
  5
AF
100
AcDbEntity
  8
Dimesions
  6
ByBlock
 62
    0
370
   -2
100
AcDbLine
 10
5.75
 20
0.84
 11
5.75
 21
6.961098364399733e-17
  0
MTEXT
  5
B0
100
AcDbEntity
  8
Dimesions
  6
CONTINUOUS
 62
    0
370
   -2
100
AcDbMText
 10
5.65625
 20
0.42
 30
0
 40
0.125
 41
0.4027777777777778
 71
    5
 72
    1
  1
0.840
  7
standard
210
0
220
0
230
1
 50
90
 73
    2
 44
1
  0
SOLID
  5
B1
100
AcDbEntity
  8
Dimesions
  6
ByBlock
 62
    0
370
   -2
100
AcDbTrace
 10
5.75
 20
0.84
 30
0
 11
5.770814232888642
 21
0.715
 31
0
 12
5.729185767111358
 22
0.715
 32
0
 13
5.729185767111358
 23
0.715
 33
0
  0
SOLID
  5
B2
100
AcDbEntity
  8
Dimesions
  6
ByBlock
 62
    0
370
   -2
100
AcDbTrace
 10
5.75
 20
6.961098364399733e-17
 30
0
 11
5.729185767111358
 21
0.1250000000000001
 31
0
 12
5.770814232888642
 22
0.1250000000000001
 32
0
 13
5.770814232888642
 23
0.1250000000000001
 33
0
  0
LINE
  5
B3
100
AcDbEntity
  8
Dimesions
  6
ByBlock
 62
    0
370
   -2
100
AcDbLine
 10
6.168750000000001
 20
0.84
 11
5.6875
 21
0.84
  0
LINE
  5
B4
100
AcDbEntity
  8
Dimesions
  6
ByBlock
 62
    0
370
   -2
100
AcDbLine
 10
6.16875
 20
4.54602582791383e-17
 11
5.6875
 21
7.726477335538719e-17
  0
ENDBLK
  5
68
330
66
100
AcDbEntity
  8
0
100
AcDbBlockEnd
  0
BLOCK
  5
6A
330
69
100
AcDbEntity
  8
0
100
AcDbBlockBegin
  2
*D1
 70
    1
 10
0
 20
0
  3
*D1
  1

  0
LINE
  5
B5
100
AcDbEntity
  8
Dimesions
  6
ByBlock
 62
    0
370
   -2
100
AcDbLine
 10
3
 20
0.8199999999999998
 11
3
 21
-4.951594689828199e-17
  0
MTEXT
  5
B6
100
AcDbEntity
  8
Dimesions
  6
CONTINUOUS
 62
    0
370
   -2
100
AcDbMText
 10
2.90625
 20
0.4099999999999999
 30
0
 40
0.125
 41
0.3888888888888889
 71
    5
 72
    1
  1
0.820
  7
standard
210
0
220
0
230
1
 50
90
 73
    2
 44
1
  0
SOLID
  5
B7
100
AcDbEntity
  8
Dimesions
  6
ByBlock
 62
    0
370
   -2
100
AcDbTrace
 10
3
 20
0.8199999999999998
 30
0
 11
3.020814232888642
 21
0.6949999999999998
 31
0
 12
2.979185767111358
 22
0.6949999999999998
 32
0
 13
2.979185767111358
 23
0.6949999999999998
 33
0
  0
SOLID
  5
B8
100
AcDbEntity
  8
Dimesions
  6
ByBlock
 62
    0
370
   -2
100
AcDbTrace
 10
3
 20
-4.951594689828199e-17
 30
0
 11
2.979185767111358
 21
0.1249999999999999
 31
0
 12
3.020814232888642
 22
0.1249999999999999
 32
0
 13
3.020814232888642
 23
0.1249999999999999
 33
0
  0
LINE
  5
B9
100
AcDbEntity
  8
Dimesions
  6
ByBlock
 62
    0
370
   -2
100
AcDbLine
 10
0.90625
 20
0.8200000000000001
 11
3.0625
 21
0.8199999999999998
  0
LINE
  5
BA
100
AcDbEntity
  8
Dimesions
  6
ByBlock
 62
    0
370
   -2
100
AcDbLine
 10
2.68125
 20
-2.775557561562891e-17
 11
3.0625
 21
-4.951594689828199e-17
  0
ENDBLK
  5
6B
330
69
100
AcDbEntity
  8
0
100
AcDbBlockEnd
  0
BLOCK
  5
6D
330
6C
100
AcDbEntity
  8
0
100
AcDbBlockBegin
  2
*D13
 70
    1
 10
0
 20
0
  3
*D13
  1

  0
LINE
  5
BB
100
AcDbEntity
  8
Dimesions
  6
ByBlock
 62
    0
370
   -2
100
AcDbLine
 10
0.5499999999999998
 20
-0.4999999999999998
 11
6.2
 21
-0.4999999999999998
  0
MTEXT
  5
BC
100
AcDbEntity
  8
Dimesions
  6
CONTINUOUS
 62
    0
370
   -2
100
AcDbMText
 10
3.375
 20
-0.4062499999999998
 30
0
 40
0.125
 41
0.3888888888889122
 71
    5
 72
    1
  1
5.650
  7
standard
210
0
220
0
230
1
 50
0
 73
    2
 44
1
  0
SOLID
  5
BD
100
AcDbEntity
  8
Dimesions
  6
ByBlock
 62
    0
370
   -2
100
AcDbTrace
 10
0.5499999999999998
 20
-0.4999999999999998
 30
0
 11
0.6749999999999998
 21
-0.4791857671113577
 31
0
 12
0.6749999999999998
 22
-0.5208142328886418
 32
0
 13
0.6749999999999998
 23
-0.5208142328886418
 33
0
  0
SOLID
  5
BE
100
AcDbEntity
  8
Dimesions
  6
ByBlock
 62
    0
370
   -2
100
AcDbTrace
 10
6.2
 20
-0.4999999999999998
 30
0
 11
6.075
 21
-0.5208142328886418
 31
0
 12
6.075
 22
-0.4791857671113577
 32
0
 13
6.075
 23
-0.4791857671113577
 33
0
  0
LINE
  5
BF
100
AcDbEntity
  8
Dimesions
  6
ByBlock
 62
    0
370
   -2
100
AcDbLine
 10
0.55
 20
1.12875
 11
0.5499999999999998
 21
-0.5624999999999998
  0
LINE
  5
C0
100
AcDbEntity
  8
Dimesions
  6
ByBlock
 62
    0
370
   -2
100
AcDbLine
 10
6.2
 20
1.12875
 11
6.2
 21
-0.5624999999999998
  0
ENDBLK
  5
6E
330
6C
100
AcDbEntity
  8
0
100
AcDbBlockEnd
  0
BLOCK
  5
70
330
6F
100
AcDbEntity
  8
0
100
AcDbBlockBegin
  2
*D4
 70
    1
 10
0
 20
0
  3
*D4
  1

  0
LINE
  5
C1
100
AcDbEntity
  8
Dimesions
  6
ByBlock
 62
    0
370
   -2
100
AcDbLine
 10
0.875
 20
2.5
 11
0
 21
2.5
  0
MTEXT
  5
C2
100
AcDbEntity
  8
Dimesions
  6
CONTINUOUS
 62
    0
370
   -2
100
AcDbMText
 10
0.4375
 20
2.59375
 30
0
 40
0.125
 41
0.3888888888888966
 71
    5
 72
    1
  1
0.875
  7
standard
210
0
220
0
230
1
 50
0
 73
    2
 44
1
  0
SOLID
  5
C3
100
AcDbEntity
  8
Dimesions
  6
ByBlock
 62
    0
370
   -2
100
AcDbTrace
 10
0.875
 20
2.5
 30
0
 11
0.75
 21
2.479185767111358
 31
0
 12
0.75
 22
2.520814232888642
 32
0
 13
0.75
 23
2.520814232888642
 33
0
  0
SOLID
  5
C4
100
AcDbEntity
  8
Dimesions
  6
ByBlock
 62
    0
370
   -2
100
AcDbTrace
 10
0
 20
2.5
 30
0
 11
0.125
 21
2.520814232888642
 31
0
 12
0.125
 22
2.479185767111358
 32
0
 13
0.125
 23
2.479185767111358
 33
0
  0
LINE
  5
C5
100
AcDbEntity
  8
Dimesions
  6
ByBlock
 62
    0
370
   -2
100
AcDbLine
 10
0.875
 20
0.8512500000000001
 11
0.875
 21
2.5625
  0
LINE
  5
C6
100
AcDbEntity
  8
Dimesions
  6
ByBlock
 62
    0
370
   -2
100
AcDbLine
 10
1.913447427847464e-18
 20
2.03125
 11
3.826894855694929e-18
 21
2.5625
  0
ENDBLK
  5
71
330
6F
100
AcDbEntity
  8
0
100
AcDbBlockEnd
  0
BLOCK
  5
73
330
72
100
AcDbEntity
  8
0
100
AcDbBlockBegin
  2
*D5
 70
    1
 10
0
 20
0
  3
*D5
  1

  0
LINE
  5
C7
100
AcDbEntity
  8
Dimesions
  6
ByBlock
 62
    0
370
   -2
100
AcDbLine
 10
0.8749999999999999
 20
2.5
 11
1.75
 21
2.5
  0
MTEXT
  5
C8
100
AcDbEntity
  8
Dimesions
  6
CONTINUOUS
 62
    0
370
   -2
100
AcDbMText
 10
1.3125
 20
2.59375
 30
0
 40
0.125
 41
0.3888888888888966
 71
    5
 72
    1
  1
0.875
  7
standard
210
0
220
0
230
1
 50
0
 73
    2
 44
1
  0
SOLID
  5
C9
100
AcDbEntity
  8
Dimesions
  6
ByBlock
 62
    0
370
   -2
100
AcDbTrace
 10
0.8749999999999999
 20
2.5
 30
0
 11
0.9999999999999999
 21
2.520814232888642
 31
0
 12
0.9999999999999999
 22
2.479185767111358
 32
0
 13
0.9999999999999999
 23
2.479185767111358
 33
0
  0
SOLID
  5
CA
100
AcDbEntity
  8
Dimesions
  6
ByBlock
 62
    0
370
   -2
100
AcDbTrace
 10
1.75
 20
2.5
 30
0
 11
1.625
 21
2.479185767111358
 31
0
 12
1.625
 22
2.520814232888642
 32
0
 13
1.625
 23
2.520814232888642
 33
0
  0
LINE
  5
CB
100
AcDbEntity
  8
Dimesions
  6
ByBlock
 62
    0
370
   -2
100
AcDbLine
 10
0.875
 20
0.8512500000000001
 11
0.8749999999999999
 21
2.5625
  0
LINE
  5
CC
100
AcDbEntity
  8
Dimesions
  6
ByBlock
 62
    0
370
   -2
100
AcDbLine
 10
1.75
 20
0.8512500000000001
 11
1.75
 21
2.5625
  0
ENDBLK
  5
74
330
72
100
AcDbEntity
  8
0
100
AcDbBlockEnd
  0
BLOCK
  5
76
330
75
100
AcDbEntity
  8
0
100
AcDbBlockBegin
  2
*D9
 70
    1
 10
0
 20
0
  3
*D9
  1

  0
LINE
  5
CD
100
AcDbEntity
  8
Dimesions
  6
ByBlock
 62
    0
370
   -2
100
AcDbLine
 10
-1.5
 20
0
 11
-1.5
 21
2
  0
MTEXT
  5
CE
100
AcDbEntity
  8
Dimesions
  6
CONTINUOUS
 62
    0
370
   -2
100
AcDbMText
 10
-1.59375
 20
1
 30
0
 40
0.125
 41
0.1944444444444444
 71
    5
 72
    1
  1
2.0
  7
standard
210
0
220
0
230
1
 50
90
 73
    2
 44
1
  0
SOLID
  5
CF
100
AcDbEntity
  8
Dimesions
  6
ByBlock
 62
    0
370
   -2
100
AcDbTrace
 10
-1.5
 20
0
 30
0
 11
-1.520814232888642
 21
0.125
 31
0
 12
-1.479185767111358
 22
0.125
 32
0
 13
-1.479185767111358
 23
0.125
 33
0
  0
SOLID
  5
D0
100
AcDbEntity
  8
Dimesions
  6
ByBlock
 62
    0
370
   -2
100
AcDbTrace
 10
-1.5
 20
2
 30
0
 11
-1.479185767111358
 21
1.875
 31
0
 12
-1.520814232888642
 22
1.875
 32
0
 13
-1.520814232888642
 23
1.875
 33
0
  0
LINE
  5
D1
100
AcDbEntity
  8
Dimesions
  6
ByBlock
 62
    0
370
   -2
100
AcDbLine
 10
-0.03125
 20
3.826894855694929e-18
 11
-1.5625
 21
7.653789711389858e-18
  0
LINE
  5
D2
100
AcDbEntity
  8
Dimesions
  6
ByBlock
 62
    0
370
   -2
100
AcDbLine
 10
-0.03125
 20
2
 11
-1.5625
 21
2
  0
ENDBLK
  5
77
330
75
100
AcDbEntity
  8
0
100
AcDbBlockEnd
  0
BLOCK
  5
79
330
78
100
AcDbEntity
  8
0
100
AcDbBlockBegin
  2
*D7
 70
    1
 10
0
 20
0
  3
*D7
  1

  0
LINE
  5
D3
100
AcDbEntity
  8
Dimesions
  6
ByBlock
 62
    0
370
   -2
100
AcDbLine
 10
-0.4999999999999998
 20
0.8400000000000001
 11
-0.4999999999999998
 21
5.828670879282071e-17
  0
MTEXT
  5
D4
100
AcDbEntity
  8
Dimesions
  6
CONTINUOUS
 62
    0
370
   -2
100
AcDbMText
 10
-0.5937499999999998
 20
0.4200000000000001
 30
0
 40
0.125
 41
0.4027777777777778
 71
    5
 72
    1
  1
0.840
  7
standard
210
0
220
0
230
1
 50
90
 73
    2
 44
1
  0
SOLID
  5
D5
100
AcDbEntity
  8
Dimesions
  6
ByBlock
 62
    0
370
   -2
100
AcDbTrace
 10
-0.4999999999999998
 20
0.8400000000000001
 30
0
 11
-0.4791857671113577
 21
0.7150000000000001
 31
0
 12
-0.5208142328886418
 22
0.7150000000000001
 32
0
 13
-0.5208142328886418
 23
0.7150000000000001
 33
0
  0
SOLID
  5
D6
100
AcDbEntity
  8
Dimesions
  6
ByBlock
 62
    0
370
   -2
100
AcDbTrace
 10
-0.4999999999999998
 20
5.828670879282071e-17
 30
0
 11
-0.5208142328886418
 21
0.1250000000000001
 31
0
 12
-0.4791857671113578
 22
0.1250000000000001
 32
0
 13
-0.4791857671113578
 23
0.1250000000000001
 33
0
  0
LINE
  5
D7
100
AcDbEntity
  8
Dimesions
  6
ByBlock
 62
    0
370
   -2
100
AcDbLine
 10
0.51875
 20
0.8400000000000001
 11
-0.5624999999999998
 21
0.8400000000000001
  0
LINE
  5
D8
100
AcDbEntity
  8
Dimesions
  6
ByBlock
 62
    0
370
   -2
100
AcDbLine
 10
-0.03124999999999994
 20
3.158247047132384e-17
 11
-0.5624999999999998
 21
6.594049850421057e-17
  0
ENDBLK
  5
7A
330
78
100
AcDbEntity
  8
0
100
AcDbBlockEnd
  0
BLOCK
  5
7C
330
7B
100
AcDbEntity
  8
0
100
AcDbBlockBegin
  2
*D17
 70
    1
 10
0
 20
0
  3
*D17
  1

  0
LINE
  5
D9
100
AcDbEntity
  8
Dimesions
  6
ByBlock
 62
    0
370
   -2
100
AcDbLine
 10
7
 20
1
 11
7
 21
-2.942091015256665e-17
  0
MTEXT
  5
DA
100
AcDbEntity
  8
Dimesions
  6
CONTINUOUS
 62
    0
370
   -2
100
AcDbMText
 10
6.90625
 20
0.5
 30
0
 40
0.125
 41
0.2638888888888889
 71
    5
 72
    1
  1
1.00
  7
standard
210
0
220
0
230
1
 50
90
 73
    2
 44
1
  0
SOLID
  5
DB
100
AcDbEntity
  8
Dimesions
  6
ByBlock
 62
    0
370
   -2
100
AcDbTrace
 10
7
 20
1
 30
0
 11
7.020814232888642
 21
0.875
 31
0
 12
6.979185767111358
 22
0.875
 32
0
 13
6.979185767111358
 23
0.875
 33
0
  0
SOLID
  5
DC
100
AcDbEntity
  8
Dimesions
  6
ByBlock
 62
    0
370
   -2
100
AcDbTrace
 10
7
 20
-2.942091015256665e-17
 30
0
 11
6.979185767111358
 21
0.125
 31
0
 12
7.020814232888642
 22
0.125
 32
0
 13
7.020814232888642
 23
0.125
 33
0
  0
LINE
  5
DD
100
AcDbEntity
  8
Dimesions
  6
ByBlock
 62
    0
370
   -2
100
AcDbLine
 10
6.53125
 20
1
 11
7.0625
 21
1
  0
LINE
  5
DE
100
AcDbEntity
  8
Dimesions
  6
ByBlock
 62
    0
370
   -2
100
AcDbLine
 10
6.78125
 20
-1.387778780781446e-17
 11
7.0625
 21
-2.942091015256665e-17
  0
ENDBLK
  5
7D
330
7B
100
AcDbEntity
  8
0
100
AcDbBlockEnd
  0
BLOCK
  5
7F
330
7E
100
AcDbEntity
  8
0
100
AcDbBlockBegin
  2
*D10
 70
    1
 10
0
 20
0
  3
*D10
  1

  0
LINE
  5
DF
100
AcDbEntity
  8
Dimesions
  6
ByBlock
 62
    0
370
   -2
100
AcDbLine
 10
-0.9999999999999999
 20
1
 11
-1
 21
1.165734175856415e-16
  0
MTEXT
  5
E0
100
AcDbEntity
  8
Dimesions
  6
CONTINUOUS
 62
    0
370
   -2
100
AcDbMText
 10
-1.09375
 20
0.5000000000000001
 30
0
 40
0.125
 41
0.2638888888888889
 71
    5
 72
    1
  1
1.00
  7
standard
210
0
220
0
230
1
 50
90
 73
    2
 44
1
  0
SOLID
  5
E1
100
AcDbEntity
  8
Dimesions
  6
ByBlock
 62
    0
370
   -2
100
AcDbTrace
 10
-0.9999999999999999
 20
1
 30
0
 11
-0.9791857671113579
 21
0.875
 31
0
 12
-1.020814232888642
 22
0.875
 32
0
 13
-1.020814232888642
 23
0.875
 33
0
  0
SOLID
  5
E2
100
AcDbEntity
  8
Dimesions
  6
ByBlock
 62
    0
370
   -2
100
AcDbTrace
 10
-1
 20
1.165734175856415e-16
 30
0
 11
-1.020814232888642
 21
0.1250000000000001
 31
0
 12
-0.979185767111358
 22
0.1250000000000001
 32
0
 13
-0.979185767111358
 23
0.1250000000000001
 33
0
  0
LINE
  5
E3
100
AcDbEntity
  8
Dimesions
  6
ByBlock
 62
    0
370
   -2
100
AcDbLine
 10
0.21875
 20
1
 11
-1.0625
 21
1
  0
LINE
  5
E4
100
AcDbEntity
  8
Dimesions
  6
ByBlock
 62
    0
370
   -2
100
AcDbLine
 10
-0.03124999999999965
 20
5.933804608695276e-17
 11
-1.0625
 21
1.242272072970313e-16
  0
ENDBLK
  5
80
330
7E
100
AcDbEntity
  8
0
100
AcDbBlockEnd
  0
ENDSEC
  0
SECTION
  2
ENTITIES
  0
CIRCLE
  5
E5
100
AcDbEntity
  8
0
  6
ByLayer
 62
  256
370
   -1
100
AcDbCircle
 10
0.55
 20
1.16
 40
0.125
  0
CIRCLE
  5
E6
100
AcDbEntity
  8
0
  6
ByLayer
 62
  256
370
   -1
100
AcDbCircle
 10
1.75
 20
0.82
 40
0.125
  0
CIRCLE
  5
E7
100
AcDbEntity
  8
0
  6
ByLayer
 62
  256
370
   -1
100
AcDbCircle
 10
2.625
 20
0.82
 40
0.125
  0
DIMENSION
  5
E8
100
AcDbEntity
  8
Dimesions
  6
ByLayer
 62
  256
370
   -1
100
AcDbDimension
  2
*D1
 10
3
 20
-7.061679799941213e-17
 30
0
 11
2.90625
 21
0.4099999999999999
 31
0
 70
   32
 71
    5
  3
Standard
 53
0
210
0
220
0
230
1
100
AcDbAlignedDimension
 13
0.875
 23
0.8200000000000001
 33
0
 14
2.65
 24
-2.775557561562891e-17
 34
0
 50
90
100
AcDbRotatedDimension
  0
DIMENSION
  5
E9
100
AcDbEntity
  8
Dimesions
  6
ByLayer
 62
  256
370
   -1
100
AcDbDimension
  2
*D2
 10
0.2499999999999999
 20
-1
 30
0
 11
0.4
 21
-0.90625
 31
0
 70
   32
 71
    5
  3
Standard
 53
0
210
0
220
0
230
1
100
AcDbAlignedDimension
 13
0.55
 23
1.16
 33
0
 14
0.25
 24
1
 34
0
100
AcDbRotatedDimension
  0
DIMENSION
  5
EA
100
AcDbEntity
  8
Dimesions
  6
ByLayer
 62
  256
370
   -1
100
AcDbDimension
  2
*D3
 10
-9.184547653667829e-17
 20
-1.5
 30
0
 11
0.125
 21
-1.40625
 31
0
 70
   32
 71
    5
  3
Standard
 53
0
210
0
220
0
230
1
100
AcDbAlignedDimension
 13
0.2500000000000001
 23
1
 33
0
 14
0
 24
0
 34
0
100
AcDbRotatedDimension
  0
DIMENSION
  5
EB
100
AcDbEntity
  8
Dimesions
  6
ByLayer
 62
  256
370
   -1
100
AcDbDimension
  2
*D4
 10
3.061515884555943e-17
 20
2.5
 30
0
 11
0.4375
 21
2.59375
 31
0
 70
   32
 71
    5
  3
Standard
 53
0
210
0
220
0
230
1
100
AcDbAlignedDimension
 13
0.875
 23
0.8200000000000001
 33
0
 14
0
 24
2
 34
0
100
AcDbRotatedDimension
  0
DIMENSION
  5
EC
100
AcDbEntity
  8
Dimesions
  6
ByLayer
 62
  256
370
   -1
100
AcDbDimension
  2
*D5
 10
1.75
 20
2.5
 30
0
 11
1.3125
 21
2.59375
 31
0
 70
   32
 71
    5
  3
Standard
 53
0
210
0
220
0
230
1
100
AcDbAlignedDimension
 13
0.875
 23
0.8200000000000001
 33
0
 14
1.75
 24
0.8200000000000001
 34
0
100
AcDbRotatedDimension
  0
DIMENSION
  5
ED
100
AcDbEntity
  8
Dimesions
  6
ByLayer
 62
  256
370
   -1
100
AcDbDimension
  2
*D6
 10
2.625
 20
2.5
 30
0
 11
2.1875
 21
2.59375
 31
0
 70
   32
 71
    5
  3
Standard
 53
0
210
0
220
0
230
1
100
AcDbAlignedDimension
 13
1.75
 23
0.82
 33
0
 14
2.625
 24
0.8200000000000001
 34
0
100
AcDbRotatedDimension
  0
CIRCLE
  5
EE
100
AcDbEntity
  8
0
  6
ByLayer
 62
  256
370
   -1
100
AcDbCircle
 10
0.55
 20
0.84
 40
0.125
  0
CIRCLE
  5
EF
100
AcDbEntity
  8
0
  6
ByLayer
 62
  256
370
   -1
100
AcDbCircle
 10
0.25
 20
1
 40
0.125
  0
CIRCLE
  5
F0
100
AcDbEntity
  8
0
  6
ByLayer
 62
  256
370
   -1
100
AcDbCircle
 10
0.875
 20
0.82
 40
0.125
  0
DIMENSION
  5
F1
100
AcDbEntity
  8
Dimesions
  6
ByLayer
 62
  256
370
   -1
100
AcDbDimension
  2
*D7
 10
-0.4999999999999998
 20
8.898589330674776e-17
 30
0
 11
-0.5937499999999998
 21
0.4200000000000001
 31
0
 70
   32
 71
    5
  3
Standard
 53
0
210
0
220
0
230
1
100
AcDbAlignedDimension
 13
0.55
 23
0.8400000000000001
 33
0
 14
5.551115123125783e-17
 24
2.775557561562891e-17
 34
0
 50
90
100
AcDbRotatedDimension
  0
DIMENSION
  5
F2
100
AcDbEntity
  8
Dimesions
  6
ByLayer
 62
  256
370
   -1
100
AcDbDimension
  2
*D8
 10
-0.5000000000000002
 20
1.16
 30
0
 11
-0.5937500000000002
 21
1
 31
0
 70
   32
 71
    5
  3
Standard
 53
0
210
0
220
0
230
1
100
AcDbAlignedDimension
 13
0.55
 23
0.84
 33
0
 14
0.55
 24
1.16
 34
0
 50
90
100
AcDbRotatedDimension
  0
DIMENSION
  5
F3
100
AcDbEntity
  8
Dimesions
  6
ByLayer
 62
  256
370
   -1
100
AcDbDimension
  2
*D9
 10
-1.5
 20
2
 30
0
 11
-1.59375
 21
1
 31
0
 70
   32
  1
2.0
 71
    5
  3
Standard
 53
0
210
0
220
0
230
1
100
AcDbAlignedDimension
 13
0
 23
0
 33
0
 14
0
 24
2
 34
0
 50
90
100
AcDbRotatedDimension
  0
DIMENSION
  5
F4
100
AcDbEntity
  8
Dimesions
  6
ByLayer
 62
  256
370
   -1
100
AcDbDimension
  2
*D10
 10
-1
 20
1.779717866134956e-16
 30
0
 11
-1.09375
 21
0.5000000000000001
 31
0
 70
   32
  1
1.00
 71
    5
  3
Standard
 53
0
210
0
220
0
230
1
100
AcDbAlignedDimension
 13
0.25
 23
1
 33
0
 14
3.469446951953614e-16
 24
5.551115123125783e-17
 34
0
 50
90
100
AcDbRotatedDimension
  0
MTEXT
  5
F5
100
AcDbEntity
  8
Dimesions
  6
ByLayer
 62
  256
370
   -1
100
AcDbMText
 10
1.5
 20
-2.5
 30
0
 40
0.15
 41
7.537500540001634
 71
    7
 72
    1
  1
Material: Aluminium tooling plate\PThickness: 0.5"\P\PDimensions in inches\P\PPress six %%C0.25" x 1.5" dowels into the left-most and right-most holes
  7

210
0
220
0
230
1
 50
0
 73
    2
 44
1
  0
LWPOLYLINE
  5
F6
100
AcDbEntity
  8
0
  6
ByLayer
 62
  256
370
   -1
100
AcDbPolyline
 90
    4
 70
    1
 43
0
 10
0
 20
0
 10
6.75
 20
1.387778780781446e-16
 10
6.75
 20
2
 10
0
 20
2
  0
DIMENSION
  5
F7
100
AcDbEntity
  8
Dimesions
  6
ByLayer
 62
  256
370
   -1
100
AcDbDimension
  2
*D11
 10
6.5
 20
3
 30
0
 11
3.375
 21
3.09375
 31
0
 70
   32
  1
6.75
 71
    5
 72
    0
  3
Standard
 53
0
210
0
220
0
230
1
100
AcDbAlignedDimension
 13
0
 23
2
 33
0
 14
6.75
 24
2
 34
0
100
AcDbRotatedDimension
  0
CIRCLE
  5
F8
100
AcDbEntity
  8
0
  6
ByLayer
 62
  256
370
   -1
100
AcDbCircle
 10
6.2
 20
1.16
 40
0.125
  0
CIRCLE
  5
F9
100
AcDbEntity
  8
0
  6
ByLayer
 62
  256
370
   -1
100
AcDbCircle
 10
6.2
 20
0.84
 40
0.125
  0
DIMENSION
  5
FA
100
AcDbEntity
  8
Dimesions
  6
ByLayer
 62
  256
370
   -1
100
AcDbDimension
  2
*D12
 10
6.075
 20
1.16
 30
0
 11
6.2
 21
1.25375
 31
0
 70
   35
  1
Drill and ream to %%C0.250" - 9 places
 71
    5
  3
Standard
 53
0
210
0
220
0
230
1
100
AcDbDiametricDimension
 15
6.325
 25
1.16
 35
0
 40
0
  0
CIRCLE
  5
FB
100
AcDbEntity
  8
0
  6
ByLayer
 62
  256
370
   -1
100
AcDbCircle
 10
6.5
 20
1
 40
0.125
  0
DIMENSION
  5
FC
100
AcDbEntity
  8
Dimesions
  6
ByLayer
 62
  256
370
   -1
100
AcDbDimension
  2
*D13
 10
6.2
 20
-0.4999999999999998
 30
0
 11
3.375
 21
-0.4062499999999998
 31
0
 70
   32
 71
    5
  3
Standard
 53
0
210
0
220
0
230
1
100
AcDbAlignedDimension
 13
0.55
 23
1.16
 33
0
 14
6.2
 24
1.16
 34
0
100
AcDbRotatedDimension
  0
DIMENSION
  5
FD
100
AcDbEntity
  8
Dimesions
  6
ByLayer
 62
  256
370
   -1
100
AcDbDimension
  2
*D14
 10
6.500000000000001
 20
-0.5
 30
0
 11
6.350000000000001
 21
-0.40625
 31
0
 70
   32
 71
    5
  3
Standard
 53
0
210
0
220
0
230
1
100
AcDbAlignedDimension
 13
6.2
 23
1.16
 33
0
 14
6.500000000000001
 24
1
 34
0
100
AcDbRotatedDimension
  0
DIMENSION
  5
FE
100
AcDbEntity
  8
Dimesions
  6
ByLayer
 62
  256
370
   -1
100
AcDbDimension
  2
*D15
 10
5.750000000000001
 20
1.16
 30
0
 11
5.656250000000001
 21
1
 31
0
 70
   32
 71
    5
  3
Standard
 53
0
210
0
220
0
230
1
100
AcDbAlignedDimension
 13
6.2
 23
0.84
 33
0
 14
6.2
 24
1.16
 34
0
 50
90
100
AcDbRotatedDimension
  0
DIMENSION
  5
FF
100
AcDbEntity
  8
Dimesions
  6
ByLayer
 62
  256
370
   -1
100
AcDbDimension
  2
*D16
 10
5.75
 20
9.674064934545038e-17
 30
0
 11
5.65625
 21
0.42
 31
0
 70
   32
 71
    5
  3
Standard
 53
0
210
0
220
0
230
1
100
AcDbAlignedDimension
 13
6.200000000000001
 23
0.84
 33
0
 14
6.2
 24
4.163336342344337e-17
 34
0
 50
90
100
AcDbRotatedDimension
  0
DIMENSION
  5
100
100
AcDbEntity
  8
Dimesions
  6
ByLayer
 62
  256
370
   -1
100
AcDbDimension
  2
*D17
 10
7
 20
-4.44929466533739e-17
 30
0
 11
6.90625
 21
0.5
 31
0
 70
   32
  1
1.00
 71
    5
  3
Standard
 53
0
210
0
220
0
230
1
100
AcDbAlignedDimension
 13
6.5
 23
1
 33
0
 14
6.75
 24
-1.387778780781446e-17
 34
0
 50
90
100
AcDbRotatedDimension
  0
ENDSEC
  0
SECTION
  2
OBJECTS
  0
DICTIONARY
  5
C
330
0
100
AcDbDictionary
281
    1
  3
ACAD_GROUP
350
D
  0
DICTIONARY
  5
D
330
C
100
AcDbDictionary
281
    1
  0
PLOTSETTINGS
  5
101
100
AcDbPlotSettings
  6
1x1
 40
0
 41
0
 42
0
 43
0
  0
ENDSEC
  0
EOF
