0
SECTION
2
HEADER
9
$ANGDIR
70
1
9
$AUNITS
70
0
9
$PROJECTNAME
1
CORS_Front_Panel
9
$TDCREATE
40
2459943.01388224
9
$INSUNITS
70
4
0
ENDSEC
0
SECTION
2
ENTITIES
0
POLYLINE
66
1
8
outline
10
0.0
20
0.0
30
0.0
70
1
0
VERTEX
8
0
10
-79.3
20
-4.25
30
0
0
VERTEX
8
0
10
-79.28573125
20
-4.576834375
30
0
0
VERTEX
8
0
10
-79.24302812500001
20
-4.9011812500000005
30
0
0
VERTEX
8
0
10
-79.172221875
20
-5.220571875
30
0
0
VERTEX
8
0
10
-79.073846875
20
-5.5325750000000005
30
0
0
VERTEX
8
0
10
-78.948653125
20
-5.83481875
30
0
0
VERTEX
8
0
10
-78.79759375
20
-6.125
30
0
0
VERTEX
8
0
10
-78.62181875
20
-6.4009125000000004
30
0
0
VERTEX
8
0
10
-78.42266562500001
20
-6.660453125
30
0
0
VERTEX
8
0
10
-78.20165
20
-6.90165
30
0
0
VERTEX
8
0
10
-77.960453125
20
-7.122665625000001
30
0
0
VERTEX
8
0
10
-77.7009125
20
-7.32181875
30
0
0
VERTEX
8
0
10
-77.425
20
-7.49759375
30
0
0
VERTEX
8
0
10
-77.13481875000001
20
-7.648653125
30
0
0
VERTEX
8
0
10
-76.832575
20
-7.773846875
30
0
0
VERTEX
8
0
10
-76.520571875
20
-7.872221875
30
0
0
VERTEX
8
0
10
-76.20118125
20
-7.9430281250000005
30
0
0
VERTEX
8
0
10
-75.876834375
20
-7.985731250000001
30
0
0
VERTEX
8
0
10
-75.55
20
-8
30
0
0
VERTEX
8
0
10
75.55
20
-8
30
0
0
VERTEX
8
0
10
75.876834375
20
-7.985731250000001
30
0
0
VERTEX
8
0
10
76.20118125
20
-7.9430281250000005
30
0
0
VERTEX
8
0
10
76.520571875
20
-7.872221875
30
0
0
VERTEX
8
0
10
76.832575
20
-7.773846875
30
0
0
VERTEX
8
0
10
77.13481875000001
20
-7.648653125
30
0
0
VERTEX
8
0
10
77.425
20
-7.49759375
30
0
0
VERTEX
8
0
10
77.7009125
20
-7.32181875
30
0
0
VERTEX
8
0
10
77.960453125
20
-7.122665625000001
30
0
0
VERTEX
8
0
10
78.20165
20
-6.90165
30
0
0
VERTEX
8
0
10
78.42266562500001
20
-6.660453125
30
0
0
VERTEX
8
0
10
78.62181875
20
-6.4009125000000004
30
0
0
VERTEX
8
0
10
78.79759375
20
-6.125
30
0
0
VERTEX
8
0
10
78.948653125
20
-5.83481875
30
0
0
VERTEX
8
0
10
79.073846875
20
-5.5325750000000005
30
0
0
VERTEX
8
0
10
79.172221875
20
-5.220571875
30
0
0
VERTEX
8
0
10
79.24302812500001
20
-4.9011812500000005
30
0
0
VERTEX
8
0
10
79.28573125
20
-4.576834375
30
0
0
VERTEX
8
0
10
79.3
20
-4.25
30
0
0
VERTEX
8
0
10
79.3
20
29.25
30
0
0
VERTEX
8
0
10
79.28573125
20
29.576834375
30
0
0
VERTEX
8
0
10
79.24302812500001
20
29.90118125
30
0
0
VERTEX
8
0
10
79.172221875
20
30.220571875
30
0
0
VERTEX
8
0
10
79.073846875
20
30.532575
30
0
0
VERTEX
8
0
10
78.948653125
20
30.83481875
30
0
0
VERTEX
8
0
10
78.79759375
20
31.125
30
0
0
VERTEX
8
0
10
78.62181875
20
31.4009125
30
0
0
VERTEX
8
0
10
78.42266562500001
20
31.660453125
30
0
0
VERTEX
8
0
10
78.20165
20
31.90165
30
0
0
VERTEX
8
0
10
77.960453125
20
32.122665625
30
0
0
VERTEX
8
0
10
77.7009125
20
32.32181875
30
0
0
VERTEX
8
0
10
77.425
20
32.49759375
30
0
0
VERTEX
8
0
10
77.13481875000001
20
32.648653125
30
0
0
VERTEX
8
0
10
76.832575
20
32.773846875000004
30
0
0
VERTEX
8
0
10
76.520571875
20
32.872221875
30
0
0
VERTEX
8
0
10
76.20118125
20
32.943028125000005
30
0
0
VERTEX
8
0
10
75.876834375
20
32.98573125
30
0
0
VERTEX
8
0
10
75.55
20
33
30
0
0
VERTEX
8
0
10
-75.55
20
33
30
0
0
VERTEX
8
0
10
-75.876834375
20
32.98573125
30
0
0
VERTEX
8
0
10
-76.20118125
20
32.943028125000005
30
0
0
VERTEX
8
0
10
-76.520571875
20
32.872221875
30
0
0
VERTEX
8
0
10
-76.832575
20
32.773846875000004
30
0
0
VERTEX
8
0
10
-77.13481875000001
20
32.648653125
30
0
0
VERTEX
8
0
10
-77.425
20
32.49759375
30
0
0
VERTEX
8
0
10
-77.7009125
20
32.32181875
30
0
0
VERTEX
8
0
10
-77.960453125
20
32.122665625
30
0
0
VERTEX
8
0
10
-78.20165
20
31.90165
30
0
0
VERTEX
8
0
10
-78.42266562500001
20
31.660453125
30
0
0
VERTEX
8
0
10
-78.62181875
20
31.4009125
30
0
0
VERTEX
8
0
10
-78.79759375
20
31.125
30
0
0
VERTEX
8
0
10
-78.948653125
20
30.83481875
30
0
0
VERTEX
8
0
10
-79.073846875
20
30.532575
30
0
0
VERTEX
8
0
10
-79.172221875
20
30.220571875
30
0
0
VERTEX
8
0
10
-79.24302812500001
20
29.90118125
30
0
0
VERTEX
8
0
10
-79.28573125
20
29.576834375
30
0
0
VERTEX
8
0
10
-79.3
20
29.25
30
0
0
VERTEX
8
0
10
-79.3
20
-4.25
30
0
0
SEQEND
0
POLYLINE
66
1
8
holes
10
0.0
20
0.0
30
0.0
70
1
0
VERTEX
8
0
10
-7.7
20
7.5
30
0
0
VERTEX
8
0
10
-7.69619375
20
7.41284375
30
0
0
VERTEX
8
0
10
-7.68480625
20
7.326353125000001
30
0
0
VERTEX
8
0
10
-7.6659250000000005
20
7.24118125
30
0
0
VERTEX
8
0
10
-7.63969375
20
7.157981250000001
30
0
0
VERTEX
8
0
10
-7.60630625
20
7.07738125
30
0
0
VERTEX
8
0
10
-7.566025000000001
20
7
30
0
0
VERTEX
8
0
10
-7.519153125000001
20
6.926425
30
0
0
VERTEX
8
0
10
-7.466043750000001
20
6.8572125
30
0
0
VERTEX
8
0
10
-7.40710625
20
6.79289375
30
0
0
VERTEX
8
0
10
-7.3427875
20
6.73395625
30
0
0
VERTEX
8
0
10
-7.273575
20
6.680846875
30
0
0
VERTEX
8
0
10
-7.2
20
6.633975
30
0
0
VERTEX
8
0
10
-7.12261875
20
6.59369375
30
0
0
VERTEX
8
0
10
-7.04201875
20
6.56030625
30
0
0
VERTEX
8
0
10
-6.958818750000001
20
6.5340750000000005
30
0
0
VERTEX
8
0
10
-6.873646875
20
6.51519375
30
0
0
VERTEX
8
0
10
-6.787156250000001
20
6.50380625
30
0
0
VERTEX
8
0
10
-6.7
20
6.5
30
0
0
VERTEX
8
0
10
6.7
20
6.5
30
0
0
VERTEX
8
0
10
6.787156250000001
20
6.50380625
30
0
0
VERTEX
8
0
10
6.873646875
20
6.51519375
30
0
0
VERTEX
8
0
10
6.958818750000001
20
6.5340750000000005
30
0
0
VERTEX
8
0
10
7.04201875
20
6.56030625
30
0
0
VERTEX
8
0
10
7.12261875
20
6.59369375
30
0
0
VERTEX
8
0
10
7.2
20
6.633975
30
0
0
VERTEX
8
0
10
7.273575
20
6.680846875
30
0
0
VERTEX
8
0
10
7.3427875
20
6.73395625
30
0
0
VERTEX
8
0
10
7.40710625
20
6.79289375
30
0
0
VERTEX
8
0
10
7.466043750000001
20
6.8572125
30
0
0
VERTEX
8
0
10
7.519153125000001
20
6.926425
30
0
0
VERTEX
8
0
10
7.566025000000001
20
7
30
0
0
VERTEX
8
0
10
7.60630625
20
7.07738125
30
0
0
VERTEX
8
0
10
7.63969375
20
7.157981250000001
30
0
0
VERTEX
8
0
10
7.6659250000000005
20
7.24118125
30
0
0
VERTEX
8
0
10
7.68480625
20
7.326353125000001
30
0
0
VERTEX
8
0
10
7.69619375
20
7.41284375
30
0
0
VERTEX
8
0
10
7.7
20
7.5
30
0
0
VERTEX
8
0
10
7.7
20
17.5
30
0
0
VERTEX
8
0
10
7.69619375
20
17.58715625
30
0
0
VERTEX
8
0
10
7.68480625
20
17.673646875
30
0
0
VERTEX
8
0
10
7.6659250000000005
20
17.75881875
30
0
0
VERTEX
8
0
10
7.63969375
20
17.84201875
30
0
0
VERTEX
8
0
10
7.60630625
20
17.92261875
30
0
0
VERTEX
8
0
10
7.566025000000001
20
18
30
0
0
VERTEX
8
0
10
7.519153125000001
20
18.073575
30
0
0
VERTEX
8
0
10
7.466043750000001
20
18.1427875
30
0
0
VERTEX
8
0
10
7.40710625
20
18.207106250000002
30
0
0
VERTEX
8
0
10
7.3427875
20
18.26604375
30
0
0
VERTEX
8
0
10
7.273575
20
18.319153125
30
0
0
VERTEX
8
0
10
7.2
20
18.366025
30
0
0
VERTEX
8
0
10
7.12261875
20
18.40630625
30
0
0
VERTEX
8
0
10
7.04201875
20
18.43969375
30
0
0
VERTEX
8
0
10
6.958818750000001
20
18.465925000000002
30
0
0
VERTEX
8
0
10
6.873646875
20
18.484806250000002
30
0
0
VERTEX
8
0
10
6.787156250000001
20
18.49619375
30
0
0
VERTEX
8
0
10
6.7
20
18.5
30
0
0
VERTEX
8
0
10
-6.7
20
18.5
30
0
0
VERTEX
8
0
10
-6.787156250000001
20
18.49619375
30
0
0
VERTEX
8
0
10
-6.873646875
20
18.484806250000002
30
0
0
VERTEX
8
0
10
-6.958818750000001
20
18.465925000000002
30
0
0
VERTEX
8
0
10
-7.04201875
20
18.43969375
30
0
0
VERTEX
8
0
10
-7.12261875
20
18.40630625
30
0
0
VERTEX
8
0
10
-7.2
20
18.366025
30
0
0
VERTEX
8
0
10
-7.273575
20
18.319153125
30
0
0
VERTEX
8
0
10
-7.3427875
20
18.26604375
30
0
0
VERTEX
8
0
10
-7.40710625
20
18.207106250000002
30
0
0
VERTEX
8
0
10
-7.466043750000001
20
18.1427875
30
0
0
VERTEX
8
0
10
-7.519153125000001
20
18.073575
30
0
0
VERTEX
8
0
10
-7.566025000000001
20
18
30
0
0
VERTEX
8
0
10
-7.60630625
20
17.92261875
30
0
0
VERTEX
8
0
10
-7.63969375
20
17.84201875
30
0
0
VERTEX
8
0
10
-7.6659250000000005
20
17.75881875
30
0
0
VERTEX
8
0
10
-7.68480625
20
17.673646875
30
0
0
VERTEX
8
0
10
-7.69619375
20
17.58715625
30
0
0
VERTEX
8
0
10
-7.7
20
17.5
30
0
0
VERTEX
8
0
10
-7.7
20
7.5
30
0
0
SEQEND
0
POLYLINE
66
1
8
holes
10
0.0
20
0.0
30
0.0
70
1
0
VERTEX
8
0
10
58.5
20
1
30
0
0
VERTEX
8
0
10
58.505709375
20
0.869265625
30
0
0
VERTEX
8
0
10
58.5227875
20
0.739528125
30
0
0
VERTEX
8
0
10
58.5511125
20
0.6117718750000001
30
0
0
VERTEX
8
0
10
58.5904625
20
0.48696875
30
0
0
VERTEX
8
0
10
58.6405375
20
0.366071875
30
0
0
VERTEX
8
0
10
58.7009625
20
0.25
30
0
0
VERTEX
8
0
10
58.771271875000004
20
0.139634375
30
0
0
VERTEX
8
0
10
58.850934375
20
0.03581875
30
0
0
VERTEX
8
0
10
58.939340625
20
-0.060659375
30
0
0
VERTEX
8
0
10
59.035818750000004
20
-0.149065625
30
0
0
VERTEX
8
0
10
59.139634375
20
-0.228728125
30
0
0
VERTEX
8
0
10
59.25
20
-0.2990375
30
0
0
VERTEX
8
0
10
59.366071875
20
-0.3594625
30
0
0
VERTEX
8
0
10
59.48696875
20
-0.4095375
30
0
0
VERTEX
8
0
10
59.611771875
20
-0.4488875
30
0
0
VERTEX
8
0
10
59.739528125
20
-0.47721250000000004
30
0
0
VERTEX
8
0
10
59.869265625000004
20
-0.49429062500000004
30
0
0
VERTEX
8
0
10
60
20
-0.5
30
0
0
VERTEX
8
0
10
67
20
-0.5
30
0
0
VERTEX
8
0
10
67.130734375
20
-0.49429062500000004
30
0
0
VERTEX
8
0
10
67.26047187500001
20
-0.47721250000000004
30
0
0
VERTEX
8
0
10
67.388228125
20
-0.4488875
30
0
0
VERTEX
8
0
10
67.51303125
20
-0.4095375
30
0
0
VERTEX
8
0
10
67.633928125
20
-0.3594625
30
0
0
VERTEX
8
0
10
67.75
20
-0.2990375
30
0
0
VERTEX
8
0
10
67.860365625
20
-0.228728125
30
0
0
VERTEX
8
0
10
67.96418125000001
20
-0.149065625
30
0
0
VERTEX
8
0
10
68.060659375
20
-0.060659375
30
0
0
VERTEX
8
0
10
68.149065625
20
0.03581875
30
0
0
VERTEX
8
0
10
68.228728125
20
0.139634375
30
0
0
VERTEX
8
0
10
68.2990375
20
0.25
30
0
0
VERTEX
8
0
10
68.3594625
20
0.366071875
30
0
0
VERTEX
8
0
10
68.4095375
20
0.48696875
30
0
0
VERTEX
8
0
10
68.4488875
20
0.6117718750000001
30
0
0
VERTEX
8
0
10
68.47721250000001
20
0.739528125
30
0
0
VERTEX
8
0
10
68.494290625
20
0.869265625
30
0
0
VERTEX
8
0
10
68.5
20
1
30
0
0
VERTEX
8
0
10
68.5
20
2.2
30
0
0
VERTEX
8
0
10
68.494290625
20
2.330734375
30
0
0
VERTEX
8
0
10
68.47721250000001
20
2.460471875
30
0
0
VERTEX
8
0
10
68.4488875
20
2.588228125
30
0
0
VERTEX
8
0
10
68.4095375
20
2.7130312500000002
30
0
0
VERTEX
8
0
10
68.3594625
20
2.8339281250000004
30
0
0
VERTEX
8
0
10
68.2990375
20
2.95
30
0
0
VERTEX
8
0
10
68.228728125
20
3.060365625
30
0
0
VERTEX
8
0
10
68.149065625
20
3.16418125
30
0
0
VERTEX
8
0
10
68.060659375
20
3.2606593750000004
30
0
0
VERTEX
8
0
10
67.96418125000001
20
3.349065625
30
0
0
VERTEX
8
0
10
67.860365625
20
3.428728125
30
0
0
VERTEX
8
0
10
67.75
20
3.4990375
30
0
0
VERTEX
8
0
10
67.633928125
20
3.5594625
30
0
0
VERTEX
8
0
10
67.51303125
20
3.6095375
30
0
0
VERTEX
8
0
10
67.388228125
20
3.6488875000000003
30
0
0
VERTEX
8
0
10
67.26047187500001
20
3.6772125
30
0
0
VERTEX
8
0
10
67.130734375
20
3.6942906250000003
30
0
0
VERTEX
8
0
10
67
20
3.7
30
0
0
VERTEX
8
0
10
60
20
3.7
30
0
0
VERTEX
8
0
10
59.869265625000004
20
3.6942906250000003
30
0
0
VERTEX
8
0
10
59.739528125
20
3.6772125
30
0
0
VERTEX
8
0
10
59.611771875
20
3.6488875000000003
30
0
0
VERTEX
8
0
10
59.48696875
20
3.6095375
30
0
0
VERTEX
8
0
10
59.366071875
20
3.5594625
30
0
0
VERTEX
8
0
10
59.25
20
3.4990375
30
0
0
VERTEX
8
0
10
59.139634375
20
3.428728125
30
0
0
VERTEX
8
0
10
59.035818750000004
20
3.349065625
30
0
0
VERTEX
8
0
10
58.939340625
20
3.2606593750000004
30
0
0
VERTEX
8
0
10
58.850934375
20
3.16418125
30
0
0
VERTEX
8
0
10
58.771271875000004
20
3.060365625
30
0
0
VERTEX
8
0
10
58.7009625
20
2.95
30
0
0
VERTEX
8
0
10
58.6405375
20
2.8339281250000004
30
0
0
VERTEX
8
0
10
58.5904625
20
2.7130312500000002
30
0
0
VERTEX
8
0
10
58.5511125
20
2.588228125
30
0
0
VERTEX
8
0
10
58.5227875
20
2.460471875
30
0
0
VERTEX
8
0
10
58.505709375
20
2.330734375
30
0
0
VERTEX
8
0
10
58.5
20
2.2
30
0
0
VERTEX
8
0
10
58.5
20
1
30
0
0
SEQEND
0
POLYLINE
66
1
8
holes
10
0.0
20
0.0
30
0.0
70
1
0
VERTEX
8
0
10
33.1
20
1
30
0
0
VERTEX
8
0
10
33.105709375
20
0.869265625
30
0
0
VERTEX
8
0
10
33.1227875
20
0.739528125
30
0
0
VERTEX
8
0
10
33.1511125
20
0.6117718750000001
30
0
0
VERTEX
8
0
10
33.1904625
20
0.48696875
30
0
0
VERTEX
8
0
10
33.2405375
20
0.366071875
30
0
0
VERTEX
8
0
10
33.300962500000004
20
0.25
30
0
0
VERTEX
8
0
10
33.371271875000005
20
0.139634375
30
0
0
VERTEX
8
0
10
33.450934375
20
0.03581875
30
0
0
VERTEX
8
0
10
33.539340625
20
-0.060659375
30
0
0
VERTEX
8
0
10
33.63581875
20
-0.149065625
30
0
0
VERTEX
8
0
10
33.739634375
20
-0.228728125
30
0
0
VERTEX
8
0
10
33.85
20
-0.2990375
30
0
0
VERTEX
8
0
10
33.966071875000004
20
-0.3594625
30
0
0
VERTEX
8
0
10
34.086968750000004
20
-0.4095375
30
0
0
VERTEX
8
0
10
34.211771875000004
20
-0.4488875
30
0
0
VERTEX
8
0
10
34.339528125
20
-0.47721250000000004
30
0
0
VERTEX
8
0
10
34.469265625
20
-0.49429062500000004
30
0
0
VERTEX
8
0
10
34.6
20
-0.5
30
0
0
VERTEX
8
0
10
41.6
20
-0.5
30
0
0
VERTEX
8
0
10
41.730734375000004
20
-0.49429062500000004
30
0
0
VERTEX
8
0
10
41.860471875
20
-0.47721250000000004
30
0
0
VERTEX
8
0
10
41.988228125
20
-0.4488875
30
0
0
VERTEX
8
0
10
42.11303125
20
-0.4095375
30
0
0
VERTEX
8
0
10
42.233928125
20
-0.3594625
30
0
0
VERTEX
8
0
10
42.35
20
-0.2990375
30
0
0
VERTEX
8
0
10
42.460365625
20
-0.228728125
30
0
0
VERTEX
8
0
10
42.564181250000004
20
-0.149065625
30
0
0
VERTEX
8
0
10
42.660659375
20
-0.060659375
30
0
0
VERTEX
8
0
10
42.749065625
20
0.03581875
30
0
0
VERTEX
8
0
10
42.828728125000005
20
0.139634375
30
0
0
VERTEX
8
0
10
42.8990375
20
0.25
30
0
0
VERTEX
8
0
10
42.9594625
20
0.366071875
30
0
0
VERTEX
8
0
10
43.0095375
20
0.48696875
30
0
0
VERTEX
8
0
10
43.0488875
20
0.6117718750000001
30
0
0
VERTEX
8
0
10
43.0772125
20
0.739528125
30
0
0
VERTEX
8
0
10
43.094290625
20
0.869265625
30
0
0
VERTEX
8
0
10
43.1
20
1
30
0
0
VERTEX
8
0
10
43.1
20
2.2
30
0
0
VERTEX
8
0
10
43.094290625
20
2.330734375
30
0
0
VERTEX
8
0
10
43.0772125
20
2.460471875
30
0
0
VERTEX
8
0
10
43.0488875
20
2.588228125
30
0
0
VERTEX
8
0
10
43.0095375
20
2.7130312500000002
30
0
0
VERTEX
8
0
10
42.9594625
20
2.8339281250000004
30
0
0
VERTEX
8
0
10
42.8990375
20
2.95
30
0
0
VERTEX
8
0
10
42.828728125000005
20
3.060365625
30
0
0
VERTEX
8
0
10
42.749065625
20
3.16418125
30
0
0
VERTEX
8
0
10
42.660659375
20
3.2606593750000004
30
0
0
VERTEX
8
0
10
42.564181250000004
20
3.349065625
30
0
0
VERTEX
8
0
10
42.460365625
20
3.428728125
30
0
0
VERTEX
8
0
10
42.35
20
3.4990375
30
0
0
VERTEX
8
0
10
42.233928125
20
3.5594625
30
0
0
VERTEX
8
0
10
42.11303125
20
3.6095375
30
0
0
VERTEX
8
0
10
41.988228125
20
3.6488875000000003
30
0
0
VERTEX
8
0
10
41.860471875
20
3.6772125
30
0
0
VERTEX
8
0
10
41.730734375000004
20
3.6942906250000003
30
0
0
VERTEX
8
0
10
41.6
20
3.7
30
0
0
VERTEX
8
0
10
34.6
20
3.7
30
0
0
VERTEX
8
0
10
34.469265625
20
3.6942906250000003
30
0
0
VERTEX
8
0
10
34.339528125
20
3.6772125
30
0
0
VERTEX
8
0
10
34.211771875000004
20
3.6488875000000003
30
0
0
VERTEX
8
0
10
34.086968750000004
20
3.6095375
30
0
0
VERTEX
8
0
10
33.966071875000004
20
3.5594625
30
0
0
VERTEX
8
0
10
33.85
20
3.4990375
30
0
0
VERTEX
8
0
10
33.739634375
20
3.428728125
30
0
0
VERTEX
8
0
10
33.63581875
20
3.349065625
30
0
0
VERTEX
8
0
10
33.539340625
20
3.2606593750000004
30
0
0
VERTEX
8
0
10
33.450934375
20
3.16418125
30
0
0
VERTEX
8
0
10
33.371271875000005
20
3.060365625
30
0
0
VERTEX
8
0
10
33.300962500000004
20
2.95
30
0
0
VERTEX
8
0
10
33.2405375
20
2.8339281250000004
30
0
0
VERTEX
8
0
10
33.1904625
20
2.7130312500000002
30
0
0
VERTEX
8
0
10
33.1511125
20
2.588228125
30
0
0
VERTEX
8
0
10
33.1227875
20
2.460471875
30
0
0
VERTEX
8
0
10
33.105709375
20
2.330734375
30
0
0
VERTEX
8
0
10
33.1
20
2.2
30
0
0
VERTEX
8
0
10
33.1
20
1
30
0
0
SEQEND
0
POLYLINE
66
1
8
holes
10
0.0
20
0.0
30
0.0
70
1
0
VERTEX
8
0
10
-45.95
20
0.5
30
0
0
VERTEX
8
0
10
-45.946190625
20
0.412840625
30
0
0
VERTEX
8
0
10
-45.934803125
20
0.32635000000000003
30
0
0
VERTEX
8
0
10
-45.915921875
20
0.24117812500000002
30
0
0
VERTEX
8
0
10
-45.889690625
20
0.157978125
30
0
0
VERTEX
8
0
10
-45.85630625
20
0.07738125
30
0
0
VERTEX
8
0
10
-45.816021875000004
20
-3.125e-6
30
0
0
VERTEX
8
0
10
-45.76915
20
-0.07357812500000001
30
0
0
VERTEX
8
0
10
-45.716040625000005
20
-0.1427875
30
0
0
VERTEX
8
0
10
-45.657103125
20
-0.20710625000000002
30
0
0
VERTEX
8
0
10
-45.592784375
20
-0.26604375
30
0
0
VERTEX
8
0
10
-45.523575
20
-0.31915312500000004
30
0
0
VERTEX
8
0
10
-45.449996875000004
20
-0.36602500000000004
30
0
0
VERTEX
8
0
10
-45.372615625
20
-0.40630937500000003
30
0
0
VERTEX
8
0
10
-45.292018750000004
20
-0.43969375
30
0
0
VERTEX
8
0
10
-45.20881875
20
-0.46592500000000003
30
0
0
VERTEX
8
0
10
-45.123646875000006
20
-0.48480625000000005
30
0
0
VERTEX
8
0
10
-45.03715625
20
-0.49619375000000004
30
0
0
VERTEX
8
0
10
-44.95
20
-0.5
30
0
0
VERTEX
8
0
10
-31.25
20
-0.5
30
0
0
VERTEX
8
0
10
-31.162840625
20
-0.49619687500000004
30
0
0
VERTEX
8
0
10
-31.07635
20
-0.48480937500000004
30
0
0
VERTEX
8
0
10
-30.991178125
20
-0.465928125
30
0
0
VERTEX
8
0
10
-30.907978125000003
20
-0.43969375
30
0
0
VERTEX
8
0
10
-30.827378125000003
20
-0.40630937500000003
30
0
0
VERTEX
8
0
10
-30.749996875
20
-0.36602812500000004
30
0
0
VERTEX
8
0
10
-30.676421875000003
20
-0.31915312500000004
30
0
0
VERTEX
8
0
10
-30.607209375
20
-0.266046875
30
0
0
VERTEX
8
0
10
-30.542890625000002
20
-0.20710625000000002
30
0
0
VERTEX
8
0
10
-30.483953125000003
20
-0.1427875
30
0
0
VERTEX
8
0
10
-30.430846875
20
-0.07357812500000001
30
0
0
VERTEX
8
0
10
-30.383971875
20
0
30
0
0
VERTEX
8
0
10
-30.343690625
20
0.07738125
30
0
0
VERTEX
8
0
10
-30.31030625
20
0.157978125
30
0
0
VERTEX
8
0
10
-30.284071875000002
20
0.24118125
30
0
0
VERTEX
8
0
10
-30.265190625000002
20
0.326353125
30
0
0
VERTEX
8
0
10
-30.25380625
20
0.41284375
30
0
0
VERTEX
8
0
10
-30.25
20
0.5
30
0
0
VERTEX
8
0
10
-30.25
20
1.5
30
0
0
VERTEX
8
0
10
-30.25380625
20
1.58715625
30
0
0
VERTEX
8
0
10
-30.26519375
20
1.673646875
30
0
0
VERTEX
8
0
10
-30.284075
20
1.75881875
30
0
0
VERTEX
8
0
10
-30.31030625
20
1.84201875
30
0
0
VERTEX
8
0
10
-30.34369375
20
1.92261875
30
0
0
VERTEX
8
0
10
-30.383975000000003
20
2
30
0
0
VERTEX
8
0
10
-30.430846875
20
2.073575
30
0
0
VERTEX
8
0
10
-30.483956250000002
20
2.1427875000000003
30
0
0
VERTEX
8
0
10
-30.54289375
20
2.2071062500000003
30
0
0
VERTEX
8
0
10
-30.607212500000003
20
2.26604375
30
0
0
VERTEX
8
0
10
-30.676425000000002
20
2.319153125
30
0
0
VERTEX
8
0
10
-30.75
20
2.366025
30
0
0
VERTEX
8
0
10
-30.827381250000002
20
2.40630625
30
0
0
VERTEX
8
0
10
-30.907981250000002
20
2.43969375
30
0
0
VERTEX
8
0
10
-30.99118125
20
2.465925
30
0
0
VERTEX
8
0
10
-31.076353125
20
2.48480625
30
0
0
VERTEX
8
0
10
-31.16284375
20
2.49619375
30
0
0
VERTEX
8
0
10
-31.25
20
2.5
30
0
0
VERTEX
8
0
10
-44.95
20
2.5
30
0
0
VERTEX
8
0
10
-45.03715625
20
2.49619375
30
0
0
VERTEX
8
0
10
-45.123646875000006
20
2.48480625
30
0
0
VERTEX
8
0
10
-45.20881875
20
2.465925
30
0
0
VERTEX
8
0
10
-45.292018750000004
20
2.43969375
30
0
0
VERTEX
8
0
10
-45.37261875
20
2.40630625
30
0
0
VERTEX
8
0
10
-45.45
20
2.366025
30
0
0
VERTEX
8
0
10
-45.523575
20
2.319153125
30
0
0
VERTEX
8
0
10
-45.5927875
20
2.26604375
30
0
0
VERTEX
8
0
10
-45.657106250000005
20
2.2071062500000003
30
0
0
VERTEX
8
0
10
-45.716043750000004
20
2.1427875000000003
30
0
0
VERTEX
8
0
10
-45.769153125
20
2.073575
30
0
0
VERTEX
8
0
10
-45.816025
20
2
30
0
0
VERTEX
8
0
10
-45.85630625
20
1.92261875
30
0
0
VERTEX
8
0
10
-45.88969375
20
1.84201875
30
0
0
VERTEX
8
0
10
-45.915925
20
1.75881875
30
0
0
VERTEX
8
0
10
-45.93480625
20
1.673646875
30
0
0
VERTEX
8
0
10
-45.94619375
20
1.58715625
30
0
0
VERTEX
8
0
10
-45.95
20
1.5
30
0
0
VERTEX
8
0
10
-45.95
20
0.5
30
0
0
SEQEND
0
POLYLINE
66
1
8
holes
10
0.0
20
0.0
30
0.0
70
1
0
VERTEX
8
0
10
-73.832665625
20
29.194346875
30
0
0
VERTEX
8
0
10
-73.83994375
20
29.083281250000002
30
0
0
VERTEX
8
0
10
-73.854471875
20
28.972928125000003
30
0
0
VERTEX
8
0
10
-73.8761875
20
28.8637625
30
0
0
VERTEX
8
0
10
-73.90499687500001
20
28.756253125
30
0
0
VERTEX
8
0
10
-73.94077187500001
20
28.650853125
30
0
0
VERTEX
8
0
10
-73.98336875
20
28.548021875
30
0
0
VERTEX
8
0
10
-74.03259687500001
20
28.448196875
30
0
0
VERTEX
8
0
10
-74.08825
20
28.351803125
30
0
0
VERTEX
8
0
10
-74.1500875
20
28.25925625
30
0
0
VERTEX
8
0
10
-74.21784375
20
28.170953125
30
0
0
VERTEX
8
0
10
-74.29123125000001
20
28.087271875000003
30
0
0
VERTEX
8
0
10
-74.3699375
20
28.008565625000003
30
0
0
VERTEX
8
0
10
-74.45361875
20
27.935178125
30
0
0
VERTEX
8
0
10
-74.541921875
20
27.867421875
30
0
0
VERTEX
8
0
10
-74.63446875000001
20
27.805584375000002
30
0
0
VERTEX
8
0
10
-74.7308625
20
27.749931250000003
30
0
0
VERTEX
8
0
10
-74.83068750000001
20
27.700703125
30
0
0
VERTEX
8
0
10
-74.93351875
20
27.658106250000003
30
0
0
VERTEX
8
0
10
-75.03891875000001
20
27.622331250000002
30
0
0
VERTEX
8
0
10
-75.146428125
20
27.593521875
30
0
0
VERTEX
8
0
10
-75.25559375
20
27.57180625
30
0
0
VERTEX
8
0
10
-75.365946875
20
27.557278125
30
0
0
VERTEX
8
0
10
-75.4770125
20
27.55
30
0
0
VERTEX
8
0
10
-75.58831875
20
27.55
30
0
0
VERTEX
8
0
10
-75.69938437500001
20
27.557278125
30
0
0
VERTEX
8
0
10
-75.8097375
20
27.57180625
30
0
0
VERTEX
8
0
10
-75.918903125
20
27.593521875
30
0
0
VERTEX
8
0
10
-76.0264125
20
27.622331250000002
30
0
0
VERTEX
8
0
10
-76.13181250000001
20
27.658106250000003
30
0
0
VERTEX
8
0
10
-76.23464375
20
27.700703125
30
0
0
VERTEX
8
0
10
-76.33446875
20
27.749931250000003
30
0
0
VERTEX
8
0
10
-76.4308625
20
27.805584375000002
30
0
0
VERTEX
8
0
10
-76.523409375
20
27.867421875
30
0
0
VERTEX
8
0
10
-76.61171250000001
20
27.935178125
30
0
0
VERTEX
8
0
10
-76.69539375000001
20
28.008565625000003
30
0
0
VERTEX
8
0
10
-76.7741
20
28.087271875000003
30
0
0
VERTEX
8
0
10
-76.8474875
20
28.170953125
30
0
0
VERTEX
8
0
10
-76.91524375
20
28.25925625
30
0
0
VERTEX
8
0
10
-76.97708125
20
28.351803125
30
0
0
VERTEX
8
0
10
-77.032734375
20
28.448196875
30
0
0
VERTEX
8
0
10
-77.0819625
20
28.548021875
30
0
0
VERTEX
8
0
10
-77.124559375
20
28.650853125
30
0
0
VERTEX
8
0
10
-77.160334375
20
28.756253125
30
0
0
VERTEX
8
0
10
-77.18914375
20
28.8637625
30
0
0
VERTEX
8
0
10
-77.210859375
20
28.972928125000003
30
0
0
VERTEX
8
0
10
-77.22538750000001
20
29.083281250000002
30
0
0
VERTEX
8
0
10
-77.23266562500001
20
29.194346875
30
0
0
VERTEX
8
0
10
-77.23266562500001
20
29.305653125000003
30
0
0
VERTEX
8
0
10
-77.22538750000001
20
29.41671875
30
0
0
VERTEX
8
0
10
-77.210859375
20
29.527071875
30
0
0
VERTEX
8
0
10
-77.18914375
20
29.6362375
30
0
0
VERTEX
8
0
10
-77.160334375
20
29.743746875000003
30
0
0
VERTEX
8
0
10
-77.124559375
20
29.849146875000002
30
0
0
VERTEX
8
0
10
-77.0819625
20
29.951978125
30
0
0
VERTEX
8
0
10
-77.032734375
20
30.051803125000003
30
0
0
VERTEX
8
0
10
-76.97708125
20
30.148196875
30
0
0
VERTEX
8
0
10
-76.91524375
20
30.24074375
30
0
0
VERTEX
8
0
10
-76.8474875
20
30.329046875000003
30
0
0
VERTEX
8
0
10
-76.7741
20
30.412728125
30
0
0
VERTEX
8
0
10
-76.69539375000001
20
30.491434375
30
0
0
VERTEX
8
0
10
-76.61171250000001
20
30.564821875
30
0
0
VERTEX
8
0
10
-76.523409375
20
30.632578125000002
30
0
0
VERTEX
8
0
10
-76.4308625
20
30.694415625
30
0
0
VERTEX
8
0
10
-76.33446875
20
30.75006875
30
0
0
VERTEX
8
0
10
-76.23464375
20
30.799296875000003
30
0
0
VERTEX
8
0
10
-76.13181250000001
20
30.84189375
30
0
0
VERTEX
8
0
10
-76.0264125
20
30.87766875
30
0
0
VERTEX
8
0
10
-75.918903125
20
30.906478125000003
30
0
0
VERTEX
8
0
10
-75.8097375
20
30.928193750000002
30
0
0
VERTEX
8
0
10
-75.69938437500001
20
30.942721875
30
0
0
VERTEX
8
0
10
-75.58831875
20
30.950000000000003
30
0
0
VERTEX
8
0
10
-75.4770125
20
30.950000000000003
30
0
0
VERTEX
8
0
10
-75.365946875
20
30.942721875
30
0
0
VERTEX
8
0
10
-75.25559375
20
30.928193750000002
30
0
0
VERTEX
8
0
10
-75.146428125
20
30.906478125000003
30
0
0
VERTEX
8
0
10
-75.03891875000001
20
30.87766875
30
0
0
VERTEX
8
0
10
-74.93351875
20
30.84189375
30
0
0
VERTEX
8
0
10
-74.83068750000001
20
30.799296875000003
30
0
0
VERTEX
8
0
10
-74.7308625
20
30.75006875
30
0
0
VERTEX
8
0
10
-74.63446875000001
20
30.694415625
30
0
0
VERTEX
8
0
10
-74.541921875
20
30.632578125000002
30
0
0
VERTEX
8
0
10
-74.45361875
20
30.564821875
30
0
0
VERTEX
8
0
10
-74.3699375
20
30.491434375
30
0
0
VERTEX
8
0
10
-74.29123125000001
20
30.412728125
30
0
0
VERTEX
8
0
10
-74.21784375
20
30.329046875000003
30
0
0
VERTEX
8
0
10
-74.1500875
20
30.24074375
30
0
0
VERTEX
8
0
10
-74.08825
20
30.148196875
30
0
0
VERTEX
8
0
10
-74.03259687500001
20
30.051803125000003
30
0
0
VERTEX
8
0
10
-73.98336875
20
29.951978125
30
0
0
VERTEX
8
0
10
-73.94077187500001
20
29.849146875000002
30
0
0
VERTEX
8
0
10
-73.90499687500001
20
29.743746875000003
30
0
0
VERTEX
8
0
10
-73.8761875
20
29.6362375
30
0
0
VERTEX
8
0
10
-73.854471875
20
29.527071875
30
0
0
VERTEX
8
0
10
-73.83994375
20
29.41671875
30
0
0
VERTEX
8
0
10
-73.832665625
20
29.305653125000003
30
0
0
VERTEX
8
0
10
-73.832665625
20
29.194346875
30
0
0
SEQEND
0
POLYLINE
66
1
8
holes
10
0.0
20
0.0
30
0.0
70
1
0
VERTEX
8
0
10
77.267334375
20
29.194346875
30
0
0
VERTEX
8
0
10
77.26005625
20
29.083281250000002
30
0
0
VERTEX
8
0
10
77.245528125
20
28.972928125000003
30
0
0
VERTEX
8
0
10
77.22381250000001
20
28.8637625
30
0
0
VERTEX
8
0
10
77.195003125
20
28.756253125
30
0
0
VERTEX
8
0
10
77.159228125
20
28.650853125
30
0
0
VERTEX
8
0
10
77.11663125
20
28.548021875
30
0
0
VERTEX
8
0
10
77.067403125
20
28.448196875
30
0
0
VERTEX
8
0
10
77.01175
20
28.351803125
30
0
0
VERTEX
8
0
10
76.94991250000001
20
28.25925625
30
0
0
VERTEX
8
0
10
76.88215625000001
20
28.170953125
30
0
0
VERTEX
8
0
10
76.80876875
20
28.087271875000003
30
0
0
VERTEX
8
0
10
76.7300625
20
28.008565625000003
30
0
0
VERTEX
8
0
10
76.64638125
20
27.935178125
30
0
0
VERTEX
8
0
10
76.55807812500001
20
27.867421875
30
0
0
VERTEX
8
0
10
76.46553125
20
27.805584375000002
30
0
0
VERTEX
8
0
10
76.36913750000001
20
27.749931250000003
30
0
0
VERTEX
8
0
10
76.2693125
20
27.700703125
30
0
0
VERTEX
8
0
10
76.16648125
20
27.658106250000003
30
0
0
VERTEX
8
0
10
76.06108125
20
27.622331250000002
30
0
0
VERTEX
8
0
10
75.95357187500001
20
27.593521875
30
0
0
VERTEX
8
0
10
75.84440625
20
27.57180625
30
0
0
VERTEX
8
0
10
75.734053125
20
27.557278125
30
0
0
VERTEX
8
0
10
75.62298750000001
20
27.55
30
0
0
VERTEX
8
0
10
75.51168125000001
20
27.55
30
0
0
VERTEX
8
0
10
75.400615625
20
27.557278125
30
0
0
VERTEX
8
0
10
75.2902625
20
27.57180625
30
0
0
VERTEX
8
0
10
75.18109687500001
20
27.593521875
30
0
0
VERTEX
8
0
10
75.0735875
20
27.622331250000002
30
0
0
VERTEX
8
0
10
74.9681875
20
27.658106250000003
30
0
0
VERTEX
8
0
10
74.86535625
20
27.700703125
30
0
0
VERTEX
8
0
10
74.76553125000001
20
27.749931250000003
30
0
0
VERTEX
8
0
10
74.6691375
20
27.805584375000002
30
0
0
VERTEX
8
0
10
74.57659062500001
20
27.867421875
30
0
0
VERTEX
8
0
10
74.4882875
20
27.935178125
30
0
0
VERTEX
8
0
10
74.40460625
20
28.008565625000003
30
0
0
VERTEX
8
0
10
74.3259
20
28.087271875000003
30
0
0
VERTEX
8
0
10
74.25251250000001
20
28.170953125
30
0
0
VERTEX
8
0
10
74.18475625
20
28.25925625
30
0
0
VERTEX
8
0
10
74.12291875
20
28.351803125
30
0
0
VERTEX
8
0
10
74.067265625
20
28.448196875
30
0
0
VERTEX
8
0
10
74.0180375
20
28.548021875
30
0
0
VERTEX
8
0
10
73.975440625
20
28.650853125
30
0
0
VERTEX
8
0
10
73.939665625
20
28.756253125
30
0
0
VERTEX
8
0
10
73.91085625000001
20
28.8637625
30
0
0
VERTEX
8
0
10
73.88914062500001
20
28.972928125000003
30
0
0
VERTEX
8
0
10
73.8746125
20
29.083281250000002
30
0
0
VERTEX
8
0
10
73.867334375
20
29.194346875
30
0
0
VERTEX
8
0
10
73.867334375
20
29.305653125000003
30
0
0
VERTEX
8
0
10
73.8746125
20
29.41671875
30
0
0
VERTEX
8
0
10
73.88914062500001
20
29.527071875
30
0
0
VERTEX
8
0
10
73.91085625000001
20
29.6362375
30
0
0
VERTEX
8
0
10
73.939665625
20
29.743746875000003
30
0
0
VERTEX
8
0
10
73.975440625
20
29.849146875000002
30
0
0
VERTEX
8
0
10
74.0180375
20
29.951978125
30
0
0
VERTEX
8
0
10
74.067265625
20
30.051803125000003
30
0
0
VERTEX
8
0
10
74.12291875
20
30.148196875
30
0
0
VERTEX
8
0
10
74.18475625
20
30.24074375
30
0
0
VERTEX
8
0
10
74.25251250000001
20
30.329046875000003
30
0
0
VERTEX
8
0
10
74.3259
20
30.412728125
30
0
0
VERTEX
8
0
10
74.40460625
20
30.491434375
30
0
0
VERTEX
8
0
10
74.4882875
20
30.564821875
30
0
0
VERTEX
8
0
10
74.57659062500001
20
30.632578125000002
30
0
0
VERTEX
8
0
10
74.6691375
20
30.694415625
30
0
0
VERTEX
8
0
10
74.76553125000001
20
30.75006875
30
0
0
VERTEX
8
0
10
74.86535625
20
30.799296875000003
30
0
0
VERTEX
8
0
10
74.9681875
20
30.84189375
30
0
0
VERTEX
8
0
10
75.0735875
20
30.87766875
30
0
0
VERTEX
8
0
10
75.18109687500001
20
30.906478125000003
30
0
0
VERTEX
8
0
10
75.2902625
20
30.928193750000002
30
0
0
VERTEX
8
0
10
75.400615625
20
30.942721875
30
0
0
VERTEX
8
0
10
75.51168125000001
20
30.950000000000003
30
0
0
VERTEX
8
0
10
75.62298750000001
20
30.950000000000003
30
0
0
VERTEX
8
0
10
75.734053125
20
30.942721875
30
0
0
VERTEX
8
0
10
75.84440625
20
30.928193750000002
30
0
0
VERTEX
8
0
10
75.95357187500001
20
30.906478125000003
30
0
0
VERTEX
8
0
10
76.06108125
20
30.87766875
30
0
0
VERTEX
8
0
10
76.16648125
20
30.84189375
30
0
0
VERTEX
8
0
10
76.2693125
20
30.799296875000003
30
0
0
VERTEX
8
0
10
76.36913750000001
20
30.75006875
30
0
0
VERTEX
8
0
10
76.46553125
20
30.694415625
30
0
0
VERTEX
8
0
10
76.55807812500001
20
30.632578125000002
30
0
0
VERTEX
8
0
10
76.64638125
20
30.564821875
30
0
0
VERTEX
8
0
10
76.7300625
20
30.491434375
30
0
0
VERTEX
8
0
10
76.80876875
20
30.412728125
30
0
0
VERTEX
8
0
10
76.88215625000001
20
30.329046875000003
30
0
0
VERTEX
8
0
10
76.94991250000001
20
30.24074375
30
0
0
VERTEX
8
0
10
77.01175
20
30.148196875
30
0
0
VERTEX
8
0
10
77.067403125
20
30.051803125000003
30
0
0
VERTEX
8
0
10
77.11663125
20
29.951978125
30
0
0
VERTEX
8
0
10
77.159228125
20
29.849146875000002
30
0
0
VERTEX
8
0
10
77.195003125
20
29.743746875000003
30
0
0
VERTEX
8
0
10
77.22381250000001
20
29.6362375
30
0
0
VERTEX
8
0
10
77.245528125
20
29.527071875
30
0
0
VERTEX
8
0
10
77.26005625
20
29.41671875
30
0
0
VERTEX
8
0
10
77.267334375
20
29.305653125000003
30
0
0
VERTEX
8
0
10
77.267334375
20
29.194346875
30
0
0
SEQEND
0
POLYLINE
66
1
8
holes
10
0.0
20
0.0
30
0.0
70
1
0
VERTEX
8
0
10
77.267334375
20
-4.305653125
30
0
0
VERTEX
8
0
10
77.26005625
20
-4.41671875
30
0
0
VERTEX
8
0
10
77.245528125
20
-4.527071875
30
0
0
VERTEX
8
0
10
77.22381250000001
20
-4.6362375
30
0
0
VERTEX
8
0
10
77.195003125
20
-4.743746875
30
0
0
VERTEX
8
0
10
77.159228125
20
-4.849146875000001
30
0
0
VERTEX
8
0
10
77.11663125
20
-4.951978125
30
0
0
VERTEX
8
0
10
77.067403125
20
-5.051803125
30
0
0
VERTEX
8
0
10
77.01175
20
-5.148196875
30
0
0
VERTEX
8
0
10
76.94991250000001
20
-5.24074375
30
0
0
VERTEX
8
0
10
76.88215625000001
20
-5.329046875
30
0
0
VERTEX
8
0
10
76.80876875
20
-5.412728125
30
0
0
VERTEX
8
0
10
76.7300625
20
-5.491434375
30
0
0
VERTEX
8
0
10
76.64638125
20
-5.564821875000001
30
0
0
VERTEX
8
0
10
76.55807812500001
20
-5.632578125
30
0
0
VERTEX
8
0
10
76.46553125
20
-5.694415625
30
0
0
VERTEX
8
0
10
76.36913750000001
20
-5.7500687500000005
30
0
0
VERTEX
8
0
10
76.2693125
20
-5.7992968750000005
30
0
0
VERTEX
8
0
10
76.16648125
20
-5.8418937500000006
30
0
0
VERTEX
8
0
10
76.06108125
20
-5.877668750000001
30
0
0
VERTEX
8
0
10
75.95357187500001
20
-5.9064781250000005
30
0
0
VERTEX
8
0
10
75.84440625
20
-5.92819375
30
0
0
VERTEX
8
0
10
75.734053125
20
-5.942721875
30
0
0
VERTEX
8
0
10
75.62298750000001
20
-5.95
30
0
0
VERTEX
8
0
10
75.51168125000001
20
-5.95
30
0
0
VERTEX
8
0
10
75.400615625
20
-5.942721875
30
0
0
VERTEX
8
0
10
75.2902625
20
-5.92819375
30
0
0
VERTEX
8
0
10
75.18109687500001
20
-5.9064781250000005
30
0
0
VERTEX
8
0
10
75.0735875
20
-5.877668750000001
30
0
0
VERTEX
8
0
10
74.9681875
20
-5.8418937500000006
30
0
0
VERTEX
8
0
10
74.86535625
20
-5.7992968750000005
30
0
0
VERTEX
8
0
10
74.76553125000001
20
-5.7500687500000005
30
0
0
VERTEX
8
0
10
74.6691375
20
-5.694415625
30
0
0
VERTEX
8
0
10
74.57659062500001
20
-5.632578125
30
0
0
VERTEX
8
0
10
74.4882875
20
-5.564821875000001
30
0
0
VERTEX
8
0
10
74.40460625
20
-5.491434375
30
0
0
VERTEX
8
0
10
74.3259
20
-5.412728125
30
0
0
VERTEX
8
0
10
74.25251250000001
20
-5.329046875
30
0
0
VERTEX
8
0
10
74.18475625
20
-5.24074375
30
0
0
VERTEX
8
0
10
74.12291875
20
-5.148196875
30
0
0
VERTEX
8
0
10
74.067265625
20
-5.051803125
30
0
0
VERTEX
8
0
10
74.0180375
20
-4.951978125
30
0
0
VERTEX
8
0
10
73.975440625
20
-4.849146875000001
30
0
0
VERTEX
8
0
10
73.939665625
20
-4.743746875
30
0
0
VERTEX
8
0
10
73.91085625000001
20
-4.6362375
30
0
0
VERTEX
8
0
10
73.88914062500001
20
-4.527071875
30
0
0
VERTEX
8
0
10
73.8746125
20
-4.41671875
30
0
0
VERTEX
8
0
10
73.867334375
20
-4.305653125
30
0
0
VERTEX
8
0
10
73.867334375
20
-4.194346875
30
0
0
VERTEX
8
0
10
73.8746125
20
-4.083281250000001
30
0
0
VERTEX
8
0
10
73.88914062500001
20
-3.972928125
30
0
0
VERTEX
8
0
10
73.91085625000001
20
-3.8637625
30
0
0
VERTEX
8
0
10
73.939665625
20
-3.756253125
30
0
0
VERTEX
8
0
10
73.975440625
20
-3.6508531250000003
30
0
0
VERTEX
8
0
10
74.0180375
20
-3.5480218750000003
30
0
0
VERTEX
8
0
10
74.067265625
20
-3.4481968750000003
30
0
0
VERTEX
8
0
10
74.12291875
20
-3.351803125
30
0
0
VERTEX
8
0
10
74.18475625
20
-3.25925625
30
0
0
VERTEX
8
0
10
74.25251250000001
20
-3.170953125
30
0
0
VERTEX
8
0
10
74.3259
20
-3.0872718750000003
30
0
0
VERTEX
8
0
10
74.40460625
20
-3.008565625
30
0
0
VERTEX
8
0
10
74.4882875
20
-2.935178125
30
0
0
VERTEX
8
0
10
74.57659062500001
20
-2.8674218750000002
30
0
0
VERTEX
8
0
10
74.6691375
20
-2.805584375
30
0
0
VERTEX
8
0
10
74.76553125000001
20
-2.74993125
30
0
0
VERTEX
8
0
10
74.86535625
20
-2.700703125
30
0
0
VERTEX
8
0
10
74.9681875
20
-2.6581062500000003
30
0
0
VERTEX
8
0
10
75.0735875
20
-2.6223312500000002
30
0
0
VERTEX
8
0
10
75.18109687500001
20
-2.593521875
30
0
0
VERTEX
8
0
10
75.2902625
20
-2.5718062500000003
30
0
0
VERTEX
8
0
10
75.400615625
20
-2.5572781250000003
30
0
0
VERTEX
8
0
10
75.51168125000001
20
-2.5500000000000003
30
0
0
VERTEX
8
0
10
75.62298750000001
20
-2.5500000000000003
30
0
0
VERTEX
8
0
10
75.734053125
20
-2.5572781250000003
30
0
0
VERTEX
8
0
10
75.84440625
20
-2.5718062500000003
30
0
0
VERTEX
8
0
10
75.95357187500001
20
-2.593521875
30
0
0
VERTEX
8
0
10
76.06108125
20
-2.6223312500000002
30
0
0
VERTEX
8
0
10
76.16648125
20
-2.6581062500000003
30
0
0
VERTEX
8
0
10
76.2693125
20
-2.700703125
30
0
0
VERTEX
8
0
10
76.36913750000001
20
-2.74993125
30
0
0
VERTEX
8
0
10
76.46553125
20
-2.805584375
30
0
0
VERTEX
8
0
10
76.55807812500001
20
-2.8674218750000002
30
0
0
VERTEX
8
0
10
76.64638125
20
-2.935178125
30
0
0
VERTEX
8
0
10
76.7300625
20
-3.008565625
30
0
0
VERTEX
8
0
10
76.80876875
20
-3.0872718750000003
30
0
0
VERTEX
8
0
10
76.88215625000001
20
-3.170953125
30
0
0
VERTEX
8
0
10
76.94991250000001
20
-3.25925625
30
0
0
VERTEX
8
0
10
77.01175
20
-3.351803125
30
0
0
VERTEX
8
0
10
77.067403125
20
-3.4481968750000003
30
0
0
VERTEX
8
0
10
77.11663125
20
-3.5480218750000003
30
0
0
VERTEX
8
0
10
77.159228125
20
-3.6508531250000003
30
0
0
VERTEX
8
0
10
77.195003125
20
-3.756253125
30
0
0
VERTEX
8
0
10
77.22381250000001
20
-3.8637625
30
0
0
VERTEX
8
0
10
77.245528125
20
-3.972928125
30
0
0
VERTEX
8
0
10
77.26005625
20
-4.083281250000001
30
0
0
VERTEX
8
0
10
77.267334375
20
-4.194346875
30
0
0
VERTEX
8
0
10
77.267334375
20
-4.305653125
30
0
0
SEQEND
0
POLYLINE
66
1
8
holes
10
0.0
20
0.0
30
0.0
70
1
0
VERTEX
8
0
10
-73.832665625
20
-4.305653125
30
0
0
VERTEX
8
0
10
-73.83994375
20
-4.41671875
30
0
0
VERTEX
8
0
10
-73.854471875
20
-4.527071875
30
0
0
VERTEX
8
0
10
-73.8761875
20
-4.6362375
30
0
0
VERTEX
8
0
10
-73.90499687500001
20
-4.743746875
30
0
0
VERTEX
8
0
10
-73.94077187500001
20
-4.849146875000001
30
0
0
VERTEX
8
0
10
-73.98336875
20
-4.951978125
30
0
0
VERTEX
8
0
10
-74.03259687500001
20
-5.051803125
30
0
0
VERTEX
8
0
10
-74.08825
20
-5.148196875
30
0
0
VERTEX
8
0
10
-74.1500875
20
-5.24074375
30
0
0
VERTEX
8
0
10
-74.21784375
20
-5.329046875
30
0
0
VERTEX
8
0
10
-74.29123125000001
20
-5.412728125
30
0
0
VERTEX
8
0
10
-74.3699375
20
-5.491434375
30
0
0
VERTEX
8
0
10
-74.45361875
20
-5.564821875000001
30
0
0
VERTEX
8
0
10
-74.541921875
20
-5.632578125
30
0
0
VERTEX
8
0
10
-74.63446875000001
20
-5.694415625
30
0
0
VERTEX
8
0
10
-74.7308625
20
-5.7500687500000005
30
0
0
VERTEX
8
0
10
-74.83068750000001
20
-5.7992968750000005
30
0
0
VERTEX
8
0
10
-74.93351875
20
-5.8418937500000006
30
0
0
VERTEX
8
0
10
-75.03891875000001
20
-5.877668750000001
30
0
0
VERTEX
8
0
10
-75.146428125
20
-5.9064781250000005
30
0
0
VERTEX
8
0
10
-75.25559375
20
-5.92819375
30
0
0
VERTEX
8
0
10
-75.365946875
20
-5.942721875
30
0
0
VERTEX
8
0
10
-75.4770125
20
-5.95
30
0
0
VERTEX
8
0
10
-75.58831875
20
-5.95
30
0
0
VERTEX
8
0
10
-75.69938437500001
20
-5.942721875
30
0
0
VERTEX
8
0
10
-75.8097375
20
-5.92819375
30
0
0
VERTEX
8
0
10
-75.918903125
20
-5.9064781250000005
30
0
0
VERTEX
8
0
10
-76.0264125
20
-5.877668750000001
30
0
0
VERTEX
8
0
10
-76.13181250000001
20
-5.8418937500000006
30
0
0
VERTEX
8
0
10
-76.23464375
20
-5.7992968750000005
30
0
0
VERTEX
8
0
10
-76.33446875
20
-5.7500687500000005
30
0
0
VERTEX
8
0
10
-76.4308625
20
-5.694415625
30
0
0
VERTEX
8
0
10
-76.523409375
20
-5.632578125
30
0
0
VERTEX
8
0
10
-76.61171250000001
20
-5.564821875000001
30
0
0
VERTEX
8
0
10
-76.69539375000001
20
-5.491434375
30
0
0
VERTEX
8
0
10
-76.7741
20
-5.412728125
30
0
0
VERTEX
8
0
10
-76.8474875
20
-5.329046875
30
0
0
VERTEX
8
0
10
-76.91524375
20
-5.24074375
30
0
0
VERTEX
8
0
10
-76.97708125
20
-5.148196875
30
0
0
VERTEX
8
0
10
-77.032734375
20
-5.051803125
30
0
0
VERTEX
8
0
10
-77.0819625
20
-4.951978125
30
0
0
VERTEX
8
0
10
-77.124559375
20
-4.849146875000001
30
0
0
VERTEX
8
0
10
-77.160334375
20
-4.743746875
30
0
0
VERTEX
8
0
10
-77.18914375
20
-4.6362375
30
0
0
VERTEX
8
0
10
-77.210859375
20
-4.527071875
30
0
0
VERTEX
8
0
10
-77.22538750000001
20
-4.41671875
30
0
0
VERTEX
8
0
10
-77.23266562500001
20
-4.305653125
30
0
0
VERTEX
8
0
10
-77.23266562500001
20
-4.194346875
30
0
0
VERTEX
8
0
10
-77.22538750000001
20
-4.083281250000001
30
0
0
VERTEX
8
0
10
-77.210859375
20
-3.972928125
30
0
0
VERTEX
8
0
10
-77.18914375
20
-3.8637625
30
0
0
VERTEX
8
0
10
-77.160334375
20
-3.756253125
30
0
0
VERTEX
8
0
10
-77.124559375
20
-3.6508531250000003
30
0
0
VERTEX
8
0
10
-77.0819625
20
-3.5480218750000003
30
0
0
VERTEX
8
0
10
-77.032734375
20
-3.4481968750000003
30
0
0
VERTEX
8
0
10
-76.97708125
20
-3.351803125
30
0
0
VERTEX
8
0
10
-76.91524375
20
-3.25925625
30
0
0
VERTEX
8
0
10
-76.8474875
20
-3.170953125
30
0
0
VERTEX
8
0
10
-76.7741
20
-3.0872718750000003
30
0
0
VERTEX
8
0
10
-76.69539375000001
20
-3.008565625
30
0
0
VERTEX
8
0
10
-76.61171250000001
20
-2.935178125
30
0
0
VERTEX
8
0
10
-76.523409375
20
-2.8674218750000002
30
0
0
VERTEX
8
0
10
-76.4308625
20
-2.805584375
30
0
0
VERTEX
8
0
10
-76.33446875
20
-2.74993125
30
0
0
VERTEX
8
0
10
-76.23464375
20
-2.700703125
30
0
0
VERTEX
8
0
10
-76.13181250000001
20
-2.6581062500000003
30
0
0
VERTEX
8
0
10
-76.0264125
20
-2.6223312500000002
30
0
0
VERTEX
8
0
10
-75.918903125
20
-2.593521875
30
0
0
VERTEX
8
0
10
-75.8097375
20
-2.5718062500000003
30
0
0
VERTEX
8
0
10
-75.69938437500001
20
-2.5572781250000003
30
0
0
VERTEX
8
0
10
-75.58831875
20
-2.5500000000000003
30
0
0
VERTEX
8
0
10
-75.4770125
20
-2.5500000000000003
30
0
0
VERTEX
8
0
10
-75.365946875
20
-2.5572781250000003
30
0
0
VERTEX
8
0
10
-75.25559375
20
-2.5718062500000003
30
0
0
VERTEX
8
0
10
-75.146428125
20
-2.593521875
30
0
0
VERTEX
8
0
10
-75.03891875000001
20
-2.6223312500000002
30
0
0
VERTEX
8
0
10
-74.93351875
20
-2.6581062500000003
30
0
0
VERTEX
8
0
10
-74.83068750000001
20
-2.700703125
30
0
0
VERTEX
8
0
10
-74.7308625
20
-2.74993125
30
0
0
VERTEX
8
0
10
-74.63446875000001
20
-2.805584375
30
0
0
VERTEX
8
0
10
-74.541921875
20
-2.8674218750000002
30
0
0
VERTEX
8
0
10
-74.45361875
20
-2.935178125
30
0
0
VERTEX
8
0
10
-74.3699375
20
-3.008565625
30
0
0
VERTEX
8
0
10
-74.29123125000001
20
-3.0872718750000003
30
0
0
VERTEX
8
0
10
-74.21784375
20
-3.170953125
30
0
0
VERTEX
8
0
10
-74.1500875
20
-3.25925625
30
0
0
VERTEX
8
0
10
-74.08825
20
-3.351803125
30
0
0
VERTEX
8
0
10
-74.03259687500001
20
-3.4481968750000003
30
0
0
VERTEX
8
0
10
-73.98336875
20
-3.5480218750000003
30
0
0
VERTEX
8
0
10
-73.94077187500001
20
-3.6508531250000003
30
0
0
VERTEX
8
0
10
-73.90499687500001
20
-3.756253125
30
0
0
VERTEX
8
0
10
-73.8761875
20
-3.8637625
30
0
0
VERTEX
8
0
10
-73.854471875
20
-3.972928125
30
0
0
VERTEX
8
0
10
-73.83994375
20
-4.083281250000001
30
0
0
VERTEX
8
0
10
-73.832665625
20
-4.194346875
30
0
0
VERTEX
8
0
10
-73.832665625
20
-4.305653125
30
0
0
SEQEND
0
POLYLINE
66
1
8
holes
10
0.0
20
0.0
30
0.0
70
1
0
VERTEX
8
0
10
-60.5
20
2.9263531250000003
30
0
0
VERTEX
8
0
10
-60.507228125000005
20
2.7792406250000004
30
0
0
VERTEX
8
0
10
-60.521665625000004
20
2.63265625
30
0
0
VERTEX
8
0
10
-60.543278125
20
2.486959375
30
0
0
VERTEX
8
0
10
-60.5720125
20
2.342496875
30
0
0
VERTEX
8
0
10
-60.607800000000005
20
2.199621875
30
0
0
VERTEX
8
0
10
-60.65055625
20
2.058671875
30
0
0
VERTEX
8
0
10
-60.700178125
20
1.919990625
30
0
0
VERTEX
8
0
10
-60.756543750000006
20
1.7839093750000001
30
0
0
VERTEX
8
0
10
-60.81951875
20
1.650759375
30
0
0
VERTEX
8
0
10
-60.888953125
20
1.5208593750000001
30
0
0
VERTEX
8
0
10
-60.964675
20
1.394525
30
0
0
VERTEX
8
0
10
-61.04650625
20
1.27205625
30
0
0
VERTEX
8
0
10
-61.134246875
20
1.15375
30
0
0
VERTEX
8
0
10
-61.227690625
20
1.039890625
30
0
0
VERTEX
8
0
10
-61.326603125000005
20
0.9307562500000001
30
0
0
VERTEX
8
0
10
-61.43075625
20
0.826603125
30
0
0
VERTEX
8
0
10
-61.539890625000005
20
0.727690625
30
0
0
VERTEX
8
0
10
-61.65375
20
0.634246875
30
0
0
VERTEX
8
0
10
-61.772056250000006
20
0.54650625
30
0
0
VERTEX
8
0
10
-61.894525
20
0.464675
30
0
0
VERTEX
8
0
10
-62.020859375
20
0.388953125
30
0
0
VERTEX
8
0
10
-62.150759375
20
0.31951875
30
0
0
VERTEX
8
0
10
-62.283909375
20
0.25654375
30
0
0
VERTEX
8
0
10
-62.419990625000004
20
0.200178125
30
0
0
VERTEX
8
0
10
-62.558671875
20
0.15055625
30
0
0
VERTEX
8
0
10
-62.699621875000005
20
0.1078
30
0
0
VERTEX
8
0
10
-62.842496875
20
0.07201250000000001
30
0
0
VERTEX
8
0
10
-62.986959375000005
20
0.043278125
30
0
0
VERTEX
8
0
10
-63.132656250000004
20
0.021665625
30
0
0
VERTEX
8
0
10
-63.279240625
20
0.007228125
30
0
0
VERTEX
8
0
10
-63.426353125000006
20
0
30
0
0
VERTEX
8
0
10
-63.573646875
20
0
30
0
0
VERTEX
8
0
10
-63.720759375
20
0.007228125
30
0
0
VERTEX
8
0
10
-63.86734375
20
0.021665625
30
0
0
VERTEX
8
0
10
-64.013040625
20
0.043278125
30
0
0
VERTEX
8
0
10
-64.157503125
20
0.07201250000000001
30
0
0
VERTEX
8
0
10
-64.30037812500001
20
0.1078
30
0
0
VERTEX
8
0
10
-64.441328125
20
0.15055625
30
0
0
VERTEX
8
0
10
-64.580009375
20
0.200178125
30
0
0
VERTEX
8
0
10
-64.716090625
20
0.25654375
30
0
0
VERTEX
8
0
10
-64.84924062500001
20
0.31951875
30
0
0
VERTEX
8
0
10
-64.979140625
20
0.388953125
30
0
0
VERTEX
8
0
10
-65.105475
20
0.464675
30
0
0
VERTEX
8
0
10
-65.22794375000001
20
0.54650625
30
0
0
VERTEX
8
0
10
-65.34625
20
0.634246875
30
0
0
VERTEX
8
0
10
-65.460109375
20
0.727690625
30
0
0
VERTEX
8
0
10
-65.56924375
20
0.826603125
30
0
0
VERTEX
8
0
10
-65.67339687500001
20
0.9307562500000001
30
0
0
VERTEX
8
0
10
-65.772309375
20
1.039890625
30
0
0
VERTEX
8
0
10
-65.865753125
20
1.15375
30
0
0
VERTEX
8
0
10
-65.95349375
20
1.27205625
30
0
0
VERTEX
8
0
10
-66.035325
20
1.394525
30
0
0
VERTEX
8
0
10
-66.111046875
20
1.5208593750000001
30
0
0
VERTEX
8
0
10
-66.18048125
20
1.650759375
30
0
0
VERTEX
8
0
10
-66.24345625000001
20
1.7839093750000001
30
0
0
VERTEX
8
0
10
-66.299821875
20
1.919990625
30
0
0
VERTEX
8
0
10
-66.34944375
20
2.058671875
30
0
0
VERTEX
8
0
10
-66.3922
20
2.199621875
30
0
0
VERTEX
8
0
10
-66.4279875
20
2.342496875
30
0
0
VERTEX
8
0
10
-66.456721875
20
2.486959375
30
0
0
VERTEX
8
0
10
-66.478334375
20
2.63265625
30
0
0
VERTEX
8
0
10
-66.492771875
20
2.7792406250000004
30
0
0
VERTEX
8
0
10
-66.5
20
2.9263531250000003
30
0
0
VERTEX
8
0
10
-66.5
20
3.073646875
30
0
0
VERTEX
8
0
10
-66.492771875
20
3.220759375
30
0
0
VERTEX
8
0
10
-66.478334375
20
3.3673437500000003
30
0
0
VERTEX
8
0
10
-66.456721875
20
3.5130406250000004
30
0
0
VERTEX
8
0
10
-66.4279875
20
3.6575031250000003
30
0
0
VERTEX
8
0
10
-66.3922
20
3.8003781250000004
30
0
0
VERTEX
8
0
10
-66.34944375
20
3.941328125
30
0
0
VERTEX
8
0
10
-66.299821875
20
4.080009375
30
0
0
VERTEX
8
0
10
-66.24345625000001
20
4.2160906250000005
30
0
0
VERTEX
8
0
10
-66.18048125
20
4.349240625
30
0
0
VERTEX
8
0
10
-66.111046875
20
4.479140625
30
0
0
VERTEX
8
0
10
-66.035325
20
4.605475
30
0
0
VERTEX
8
0
10
-65.95349375
20
4.7279437500000006
30
0
0
VERTEX
8
0
10
-65.865753125
20
4.84625
30
0
0
VERTEX
8
0
10
-65.772309375
20
4.960109375
30
0
0
VERTEX
8
0
10
-65.67339687500001
20
5.06924375
30
0
0
VERTEX
8
0
10
-65.56924375
20
5.173396875
30
0
0
VERTEX
8
0
10
-65.460109375
20
5.272309375
30
0
0
VERTEX
8
0
10
-65.34625
20
5.365753125
30
0
0
VERTEX
8
0
10
-65.22794375000001
20
5.453493750000001
30
0
0
VERTEX
8
0
10
-65.105475
20
5.535325
30
0
0
VERTEX
8
0
10
-64.979140625
20
5.611046875
30
0
0
VERTEX
8
0
10
-64.84924062500001
20
5.680481250000001
30
0
0
VERTEX
8
0
10
-64.716090625
20
5.74345625
30
0
0
VERTEX
8
0
10
-64.580009375
20
5.799821875
30
0
0
VERTEX
8
0
10
-64.441328125
20
5.849443750000001
30
0
0
VERTEX
8
0
10
-64.30037812500001
20
5.8922
30
0
0
VERTEX
8
0
10
-64.157503125
20
5.9279875
30
0
0
VERTEX
8
0
10
-64.013040625
20
5.956721875
30
0
0
VERTEX
8
0
10
-63.86734375
20
5.978334375
30
0
0
VERTEX
8
0
10
-63.720759375
20
5.992771875
30
0
0
VERTEX
8
0
10
-63.573646875
20
6
30
0
0
VERTEX
8
0
10
-63.426353125000006
20
6
30
0
0
VERTEX
8
0
10
-63.279240625
20
5.992771875
30
0
0
VERTEX
8
0
10
-63.132656250000004
20
5.978334375
30
0
0
VERTEX
8
0
10
-62.986959375000005
20
5.956721875
30
0
0
VERTEX
8
0
10
-62.842496875
20
5.9279875
30
0
0
VERTEX
8
0
10
-62.699621875000005
20
5.8922
30
0
0
VERTEX
8
0
10
-62.558671875
20
5.849443750000001
30
0
0
VERTEX
8
0
10
-62.419990625000004
20
5.799821875
30
0
0
VERTEX
8
0
10
-62.283909375
20
5.74345625
30
0
0
VERTEX
8
0
10
-62.150759375
20
5.680481250000001
30
0
0
VERTEX
8
0
10
-62.020859375
20
5.611046875
30
0
0
VERTEX
8
0
10
-61.894525
20
5.535325
30
0
0
VERTEX
8
0
10
-61.772056250000006
20
5.453493750000001
30
0
0
VERTEX
8
0
10
-61.65375
20
5.365753125
30
0
0
VERTEX
8
0
10
-61.539890625000005
20
5.272309375
30
0
0
VERTEX
8
0
10
-61.43075625
20
5.173396875
30
0
0
VERTEX
8
0
10
-61.326603125000005
20
5.06924375
30
0
0
VERTEX
8
0
10
-61.227690625
20
4.960109375
30
0
0
VERTEX
8
0
10
-61.134246875
20
4.84625
30
0
0
VERTEX
8
0
10
-61.04650625
20
4.7279437500000006
30
0
0
VERTEX
8
0
10
-60.964675
20
4.605475
30
0
0
VERTEX
8
0
10
-60.888953125
20
4.479140625
30
0
0
VERTEX
8
0
10
-60.81951875
20
4.349240625
30
0
0
VERTEX
8
0
10
-60.756543750000006
20
4.2160906250000005
30
0
0
VERTEX
8
0
10
-60.700178125
20
4.080009375
30
0
0
VERTEX
8
0
10
-60.65055625
20
3.941328125
30
0
0
VERTEX
8
0
10
-60.607800000000005
20
3.8003781250000004
30
0
0
VERTEX
8
0
10
-60.5720125
20
3.6575031250000003
30
0
0
VERTEX
8
0
10
-60.543278125
20
3.5130406250000004
30
0
0
VERTEX
8
0
10
-60.521665625000004
20
3.3673437500000003
30
0
0
VERTEX
8
0
10
-60.507228125000005
20
3.220759375
30
0
0
VERTEX
8
0
10
-60.5
20
3.073646875
30
0
0
VERTEX
8
0
10
-60.5
20
2.9263531250000003
30
0
0
SEQEND
0
POLYLINE
66
1
8
holes
10
0.0
20
0.0
30
0.0
70
1
0
VERTEX
8
0
10
27.400000000000002
20
3.989565625
30
0
0
VERTEX
8
0
10
27.392703125
20
3.86891875
30
0
0
VERTEX
8
0
10
27.378134375000002
20
3.748934375
30
0
0
VERTEX
8
0
10
27.356346875
20
3.630046875
30
0
0
VERTEX
8
0
10
27.327421875000002
20
3.5126906250000003
30
0
0
VERTEX
8
0
10
27.2914625
20
3.3972968750000003
30
0
0
VERTEX
8
0
10
27.248603125000002
20
3.2842843750000004
30
0
0
VERTEX
8
0
10
27.198996875000002
20
3.1740656250000003
30
0
0
VERTEX
8
0
10
27.142828125
20
3.0670437500000003
30
0
0
VERTEX
8
0
10
27.080296875000002
20
2.96360625
30
0
0
VERTEX
8
0
10
27.011637500000003
20
2.8641343750000003
30
0
0
VERTEX
8
0
10
26.937096875
20
2.7689906250000003
30
0
0
VERTEX
8
0
10
26.856946875000002
20
2.6785187500000003
30
0
0
VERTEX
8
0
10
26.77148125
20
2.593053125
30
0
0
VERTEX
8
0
10
26.681009375000002
20
2.5129031250000002
30
0
0
VERTEX
8
0
10
26.585865625
20
2.4383625
30
0
0
VERTEX
8
0
10
26.48639375
20
2.369703125
30
0
0
VERTEX
8
0
10
26.382956250000003
20
2.3071718750000003
30
0
0
VERTEX
8
0
10
26.275934375000002
20
2.251003125
30
0
0
VERTEX
8
0
10
26.165715625
20
2.201396875
30
0
0
VERTEX
8
0
10
26.052703125
20
2.1585375
30
0
0
VERTEX
8
0
10
25.937309375
20
2.122578125
30
0
0
VERTEX
8
0
10
25.819953125
20
2.093653125
30
0
0
VERTEX
8
0
10
25.701065625000002
20
2.071865625
30
0
0
VERTEX
8
0
10
25.58108125
20
2.057296875
30
0
0
VERTEX
8
0
10
25.460434375000002
20
2.0500000000000003
30
0
0
VERTEX
8
0
10
25.339565625000002
20
2.0500000000000003
30
0
0
VERTEX
8
0
10
25.21891875
20
2.057296875
30
0
0
VERTEX
8
0
10
25.098934375000002
20
2.071865625
30
0
0
VERTEX
8
0
10
24.980046875000003
20
2.093653125
30
0
0
VERTEX
8
0
10
24.862690625000003
20
2.122578125
30
0
0
VERTEX
8
0
10
24.747296875
20
2.1585375
30
0
0
VERTEX
8
0
10
24.634284375
20
2.201396875
30
0
0
VERTEX
8
0
10
24.524065625000002
20
2.251003125
30
0
0
VERTEX
8
0
10
24.41704375
20
2.3071718750000003
30
0
0
VERTEX
8
0
10
24.31360625
20
2.369703125
30
0
0
VERTEX
8
0
10
24.214134375
20
2.4383625
30
0
0
VERTEX
8
0
10
24.118990625000002
20
2.5129031250000002
30
0
0
VERTEX
8
0
10
24.02851875
20
2.593053125
30
0
0
VERTEX
8
0
10
23.943053125000002
20
2.6785187500000003
30
0
0
VERTEX
8
0
10
23.862903125000003
20
2.7689906250000003
30
0
0
VERTEX
8
0
10
23.7883625
20
2.8641343750000003
30
0
0
VERTEX
8
0
10
23.719703125000002
20
2.96360625
30
0
0
VERTEX
8
0
10
23.657171875
20
3.0670437500000003
30
0
0
VERTEX
8
0
10
23.601003125000002
20
3.1740656250000003
30
0
0
VERTEX
8
0
10
23.551396875000002
20
3.2842843750000004
30
0
0
VERTEX
8
0
10
23.508537500000003
20
3.3972968750000003
30
0
0
VERTEX
8
0
10
23.472578125000002
20
3.5126906250000003
30
0
0
VERTEX
8
0
10
23.443653125
20
3.630046875
30
0
0
VERTEX
8
0
10
23.421865625000002
20
3.748934375
30
0
0
VERTEX
8
0
10
23.407296875
20
3.86891875
30
0
0
VERTEX
8
0
10
23.400000000000002
20
3.989565625
30
0
0
VERTEX
8
0
10
23.400000000000002
20
4.1104343750000005
30
0
0
VERTEX
8
0
10
23.407296875
20
4.23108125
30
0
0
VERTEX
8
0
10
23.421865625000002
20
4.351065625
30
0
0
VERTEX
8
0
10
23.443653125
20
4.469953125
30
0
0
VERTEX
8
0
10
23.472578125000002
20
4.587309375
30
0
0
VERTEX
8
0
10
23.508537500000003
20
4.702703125
30
0
0
VERTEX
8
0
10
23.551396875000002
20
4.815715625
30
0
0
VERTEX
8
0
10
23.601003125000002
20
4.925934375000001
30
0
0
VERTEX
8
0
10
23.657171875
20
5.03295625
30
0
0
VERTEX
8
0
10
23.719703125000002
20
5.13639375
30
0
0
VERTEX
8
0
10
23.7883625
20
5.235865625000001
30
0
0
VERTEX
8
0
10
23.862903125000003
20
5.331009375
30
0
0
VERTEX
8
0
10
23.943053125000002
20
5.42148125
30
0
0
VERTEX
8
0
10
24.02851875
20
5.506946875000001
30
0
0
VERTEX
8
0
10
24.118990625000002
20
5.587096875
30
0
0
VERTEX
8
0
10
24.214134375
20
5.6616375
30
0
0
VERTEX
8
0
10
24.31360625
20
5.7302968750000005
30
0
0
VERTEX
8
0
10
24.41704375
20
5.792828125000001
30
0
0
VERTEX
8
0
10
24.524065625000002
20
5.848996875
30
0
0
VERTEX
8
0
10
24.634284375
20
5.898603125
30
0
0
VERTEX
8
0
10
24.747296875
20
5.9414625
30
0
0
VERTEX
8
0
10
24.862690625000003
20
5.977421875
30
0
0
VERTEX
8
0
10
24.980046875000003
20
6.006346875
30
0
0
VERTEX
8
0
10
25.098934375000002
20
6.0281343750000005
30
0
0
VERTEX
8
0
10
25.21891875
20
6.042703125
30
0
0
VERTEX
8
0
10
25.339565625000002
20
6.050000000000001
30
0
0
VERTEX
8
0
10
25.460434375000002
20
6.050000000000001
30
0
0
VERTEX
8
0
10
25.58108125
20
6.042703125
30
0
0
VERTEX
8
0
10
25.701065625000002
20
6.0281343750000005
30
0
0
VERTEX
8
0
10
25.819953125
20
6.006346875
30
0
0
VERTEX
8
0
10
25.937309375
20
5.977421875
30
0
0
VERTEX
8
0
10
26.052703125
20
5.9414625
30
0
0
VERTEX
8
0
10
26.165715625
20
5.898603125
30
0
0
VERTEX
8
0
10
26.275934375000002
20
5.848996875
30
0
0
VERTEX
8
0
10
26.382956250000003
20
5.792828125000001
30
0
0
VERTEX
8
0
10
26.48639375
20
5.7302968750000005
30
0
0
VERTEX
8
0
10
26.585865625
20
5.6616375
30
0
0
VERTEX
8
0
10
26.681009375000002
20
5.587096875
30
0
0
VERTEX
8
0
10
26.77148125
20
5.506946875000001
30
0
0
VERTEX
8
0
10
26.856946875000002
20
5.42148125
30
0
0
VERTEX
8
0
10
26.937096875
20
5.331009375
30
0
0
VERTEX
8
0
10
27.011637500000003
20
5.235865625000001
30
0
0
VERTEX
8
0
10
27.080296875000002
20
5.13639375
30
0
0
VERTEX
8
0
10
27.142828125
20
5.03295625
30
0
0
VERTEX
8
0
10
27.198996875000002
20
4.925934375000001
30
0
0
VERTEX
8
0
10
27.248603125000002
20
4.815715625
30
0
0
VERTEX
8
0
10
27.2914625
20
4.702703125
30
0
0
VERTEX
8
0
10
27.327421875000002
20
4.587309375
30
0
0
VERTEX
8
0
10
27.356346875
20
4.469953125
30
0
0
VERTEX
8
0
10
27.378134375000002
20
4.351065625
30
0
0
VERTEX
8
0
10
27.392703125
20
4.23108125
30
0
0
VERTEX
8
0
10
27.400000000000002
20
4.1104343750000005
30
0
0
VERTEX
8
0
10
27.400000000000002
20
3.989565625
30
0
0
SEQEND
0
POLYLINE
66
1
8
holes
10
0.0
20
0.0
30
0.0
70
1
0
VERTEX
8
0
10
52.800000000000004
20
3.989565625
30
0
0
VERTEX
8
0
10
52.792703125
20
3.86891875
30
0
0
VERTEX
8
0
10
52.778134375
20
3.748934375
30
0
0
VERTEX
8
0
10
52.756346875000006
20
3.630046875
30
0
0
VERTEX
8
0
10
52.727421875000005
20
3.5126906250000003
30
0
0
VERTEX
8
0
10
52.6914625
20
3.3972968750000003
30
0
0
VERTEX
8
0
10
52.648603125
20
3.2842843750000004
30
0
0
VERTEX
8
0
10
52.598996875000005
20
3.1740656250000003
30
0
0
VERTEX
8
0
10
52.542828125
20
3.0670437500000003
30
0
0
VERTEX
8
0
10
52.480296875
20
2.96360625
30
0
0
VERTEX
8
0
10
52.411637500000005
20
2.8641343750000003
30
0
0
VERTEX
8
0
10
52.337096875
20
2.7689906250000003
30
0
0
VERTEX
8
0
10
52.256946875000004
20
2.6785187500000003
30
0
0
VERTEX
8
0
10
52.17148125
20
2.593053125
30
0
0
VERTEX
8
0
10
52.081009375
20
2.5129031250000002
30
0
0
VERTEX
8
0
10
51.985865625
20
2.4383625
30
0
0
VERTEX
8
0
10
51.88639375
20
2.369703125
30
0
0
VERTEX
8
0
10
51.782956250000005
20
2.3071718750000003
30
0
0
VERTEX
8
0
10
51.675934375000004
20
2.251003125
30
0
0
VERTEX
8
0
10
51.565715625
20
2.201396875
30
0
0
VERTEX
8
0
10
51.452703125
20
2.1585375
30
0
0
VERTEX
8
0
10
51.337309375000004
20
2.122578125
30
0
0
VERTEX
8
0
10
51.219953125
20
2.093653125
30
0
0
VERTEX
8
0
10
51.101065625000004
20
2.071865625
30
0
0
VERTEX
8
0
10
50.98108125
20
2.057296875
30
0
0
VERTEX
8
0
10
50.860434375000004
20
2.0500000000000003
30
0
0
VERTEX
8
0
10
50.739565625000004
20
2.0500000000000003
30
0
0
VERTEX
8
0
10
50.618918750000006
20
2.057296875
30
0
0
VERTEX
8
0
10
50.498934375000005
20
2.071865625
30
0
0
VERTEX
8
0
10
50.380046875000005
20
2.093653125
30
0
0
VERTEX
8
0
10
50.262690625000005
20
2.122578125
30
0
0
VERTEX
8
0
10
50.147296875
20
2.1585375
30
0
0
VERTEX
8
0
10
50.034284375000006
20
2.201396875
30
0
0
VERTEX
8
0
10
49.924065625000004
20
2.251003125
30
0
0
VERTEX
8
0
10
49.81704375
20
2.3071718750000003
30
0
0
VERTEX
8
0
10
49.713606250000005
20
2.369703125
30
0
0
VERTEX
8
0
10
49.614134375
20
2.4383625
30
0
0
VERTEX
8
0
10
49.518990625
20
2.5129031250000002
30
0
0
VERTEX
8
0
10
49.42851875
20
2.593053125
30
0
0
VERTEX
8
0
10
49.343053125000004
20
2.6785187500000003
30
0
0
VERTEX
8
0
10
49.262903125
20
2.7689906250000003
30
0
0
VERTEX
8
0
10
49.188362500000004
20
2.8641343750000003
30
0
0
VERTEX
8
0
10
49.119703125
20
2.96360625
30
0
0
VERTEX
8
0
10
49.057171875
20
3.0670437500000003
30
0
0
VERTEX
8
0
10
49.001003125000004
20
3.1740656250000003
30
0
0
VERTEX
8
0
10
48.951396875
20
3.2842843750000004
30
0
0
VERTEX
8
0
10
48.9085375
20
3.3972968750000003
30
0
0
VERTEX
8
0
10
48.872578125000004
20
3.5126906250000003
30
0
0
VERTEX
8
0
10
48.843653125
20
3.630046875
30
0
0
VERTEX
8
0
10
48.821865625
20
3.748934375
30
0
0
VERTEX
8
0
10
48.807296875000006
20
3.86891875
30
0
0
VERTEX
8
0
10
48.800000000000004
20
3.989565625
30
0
0
VERTEX
8
0
10
48.800000000000004
20
4.1104343750000005
30
0
0
VERTEX
8
0
10
48.807296875000006
20
4.23108125
30
0
0
VERTEX
8
0
10
48.821865625
20
4.351065625
30
0
0
VERTEX
8
0
10
48.843653125
20
4.469953125
30
0
0
VERTEX
8
0
10
48.872578125000004
20
4.587309375
30
0
0
VERTEX
8
0
10
48.9085375
20
4.702703125
30
0
0
VERTEX
8
0
10
48.951396875
20
4.815715625
30
0
0
VERTEX
8
0
10
49.001003125000004
20
4.925934375000001
30
0
0
VERTEX
8
0
10
49.057171875
20
5.03295625
30
0
0
VERTEX
8
0
10
49.119703125
20
5.13639375
30
0
0
VERTEX
8
0
10
49.188362500000004
20
5.235865625000001
30
0
0
VERTEX
8
0
10
49.262903125
20
5.331009375
30
0
0
VERTEX
8
0
10
49.343053125000004
20
5.42148125
30
0
0
VERTEX
8
0
10
49.42851875
20
5.506946875000001
30
0
0
VERTEX
8
0
10
49.518990625
20
5.587096875
30
0
0
VERTEX
8
0
10
49.614134375
20
5.6616375
30
0
0
VERTEX
8
0
10
49.713606250000005
20
5.7302968750000005
30
0
0
VERTEX
8
0
10
49.81704375
20
5.792828125000001
30
0
0
VERTEX
8
0
10
49.924065625000004
20
5.848996875
30
0
0
VERTEX
8
0
10
50.034284375000006
20
5.898603125
30
0
0
VERTEX
8
0
10
50.147296875
20
5.9414625
30
0
0
VERTEX
8
0
10
50.262690625000005
20
5.977421875
30
0
0
VERTEX
8
0
10
50.380046875000005
20
6.006346875
30
0
0
VERTEX
8
0
10
50.498934375000005
20
6.0281343750000005
30
0
0
VERTEX
8
0
10
50.618918750000006
20
6.042703125
30
0
0
VERTEX
8
0
10
50.739565625000004
20
6.050000000000001
30
0
0
VERTEX
8
0
10
50.860434375000004
20
6.050000000000001
30
0
0
VERTEX
8
0
10
50.98108125
20
6.042703125
30
0
0
VERTEX
8
0
10
51.101065625000004
20
6.0281343750000005
30
0
0
VERTEX
8
0
10
51.219953125
20
6.006346875
30
0
0
VERTEX
8
0
10
51.337309375000004
20
5.977421875
30
0
0
VERTEX
8
0
10
51.452703125
20
5.9414625
30
0
0
VERTEX
8
0
10
51.565715625
20
5.898603125
30
0
0
VERTEX
8
0
10
51.675934375000004
20
5.848996875
30
0
0
VERTEX
8
0
10
51.782956250000005
20
5.792828125000001
30
0
0
VERTEX
8
0
10
51.88639375
20
5.7302968750000005
30
0
0
VERTEX
8
0
10
51.985865625
20
5.6616375
30
0
0
VERTEX
8
0
10
52.081009375
20
5.587096875
30
0
0
VERTEX
8
0
10
52.17148125
20
5.506946875000001
30
0
0
VERTEX
8
0
10
52.256946875000004
20
5.42148125
30
0
0
VERTEX
8
0
10
52.337096875
20
5.331009375
30
0
0
VERTEX
8
0
10
52.411637500000005
20
5.235865625000001
30
0
0
VERTEX
8
0
10
52.480296875
20
5.13639375
30
0
0
VERTEX
8
0
10
52.542828125
20
5.03295625
30
0
0
VERTEX
8
0
10
52.598996875000005
20
4.925934375000001
30
0
0
VERTEX
8
0
10
52.648603125
20
4.815715625
30
0
0
VERTEX
8
0
10
52.6914625
20
4.702703125
30
0
0
VERTEX
8
0
10
52.727421875000005
20
4.587309375
30
0
0
VERTEX
8
0
10
52.756346875000006
20
4.469953125
30
0
0
VERTEX
8
0
10
52.778134375
20
4.351065625
30
0
0
VERTEX
8
0
10
52.792703125
20
4.23108125
30
0
0
VERTEX
8
0
10
52.800000000000004
20
4.1104343750000005
30
0
0
VERTEX
8
0
10
52.800000000000004
20
3.989565625
30
0
0
SEQEND
0
POLYLINE
66
1
8
1_copper
10
0.0
20
0.0
30
0.0
70
1
0
VERTEX
8
0
10
75.551871875
20
-7.399765625000001
30
0
0
VERTEX
8
0
10
75.556540625
20
-7.399784375
30
0
0
VERTEX
8
0
10
75.95464375
20
-7.373690625
30
0
0
VERTEX
8
0
10
75.957428125
20
-7.373153125
30
0
0
VERTEX
8
0
10
75.960290625
20
-7.3731625
30
0
0
VERTEX
8
0
10
75.973984375
20
-7.370500000000001
30
0
0
VERTEX
8
0
10
76.74306250000001
20
-7.1644250000000005
30
0
0
VERTEX
8
0
10
76.74873125
20
-7.162115625
30
0
0
VERTEX
8
0
10
76.75464062500001
20
-7.160550000000001
30
0
0
VERTEX
8
0
10
76.76515625
20
-7.155421875
30
0
0
VERTEX
8
0
10
76.76616875
20
-7.155009375000001
30
0
0
VERTEX
8
0
10
76.766490625
20
-7.154771875000001
30
0
0
VERTEX
8
0
10
76.76718125000001
20
-7.154434375
30
0
0
VERTEX
8
0
10
77.456721875
20
-6.756331250000001
30
0
0
VERTEX
8
0
10
77.46158750000001
20
-6.752640625000001
30
0
0
VERTEX
8
0
10
77.466903125
20
-6.749593750000001
30
0
0
VERTEX
8
0
10
77.4757
20
-6.74194375
30
0
0
VERTEX
8
0
10
77.47660625
20
-6.74125625
30
0
0
VERTEX
8
0
10
77.47686875000001
20
-6.740928125
30
0
0
VERTEX
8
0
10
77.47743125000001
20
-6.7404375000000005
30
0
0
VERTEX
8
0
10
78.04043750000001
20
-6.177431250000001
30
0
0
VERTEX
8
0
10
78.0441875
20
-6.17260625
30
0
0
VERTEX
8
0
10
78.048528125
20
-6.1682875
30
0
0
VERTEX
8
0
10
78.0550625
20
-6.1586
30
0
0
VERTEX
8
0
10
78.05574375
20
-6.157725
30
0
0
VERTEX
8
0
10
78.05590625
20
-6.157353125
30
0
0
VERTEX
8
0
10
78.05633125
20
-6.156721875000001
30
0
0
VERTEX
8
0
10
78.454434375
20
-5.46718125
30
0
0
VERTEX
8
0
10
78.45680625
20
-5.461546875000001
30
0
0
VERTEX
8
0
10
78.45988125000001
20
-5.45625625
30
0
0
VERTEX
8
0
10
78.46369375
20
-5.445190625
30
0
0
VERTEX
8
0
10
78.464115625
20
-5.444184375
30
0
0
VERTEX
8
0
10
78.464175
20
-5.443790625
30
0
0
VERTEX
8
0
10
78.464425
20
-5.4430625
30
0
0
VERTEX
8
0
10
78.6705
20
-4.673984375
30
0
0
VERTEX
8
0
10
78.670890625
20
-4.671153125
30
0
0
VERTEX
8
0
10
78.67180937500001
20
-4.668468750000001
30
0
0
VERTEX
8
0
10
78.673690625
20
-4.65464375
30
0
0
VERTEX
8
0
10
78.68336875
20
-4.506990625
30
0
0
VERTEX
8
0
10
78.683371875
20
-4.506975000000001
30
0
0
VERTEX
8
0
10
78.683371875
20
-4.50695625
30
0
0
VERTEX
8
0
10
78.696478125
20
-4.30699375
30
0
0
VERTEX
8
0
10
78.69648125
20
-4.306975
30
0
0
VERTEX
8
0
10
78.69648125
20
-4.30695625
30
0
0
VERTEX
8
0
10
78.69978437500001
20
-4.2565437500000005
30
0
0
VERTEX
8
0
10
78.699671875
20
-4.25468125
30
0
0
VERTEX
8
0
10
78.7
20
-4.250003125
30
0
0
VERTEX
8
0
10
78.7
20
29.25
30
0
0
VERTEX
8
0
10
78.699765625
20
29.251871875000003
30
0
0
VERTEX
8
0
10
78.69978437500001
20
29.256540625000003
30
0
0
VERTEX
8
0
10
78.673690625
20
29.65464375
30
0
0
VERTEX
8
0
10
78.673153125
20
29.657428125000003
30
0
0
VERTEX
8
0
10
78.6731625
20
29.660290625000002
30
0
0
VERTEX
8
0
10
78.6705
20
29.673984375
30
0
0
VERTEX
8
0
10
78.464425
20
30.4430625
30
0
0
VERTEX
8
0
10
78.46211562500001
20
30.44873125
30
0
0
VERTEX
8
0
10
78.46055
20
30.454640625
30
0
0
VERTEX
8
0
10
78.455421875
20
30.46515625
30
0
0
VERTEX
8
0
10
78.455009375
20
30.46616875
30
0
0
VERTEX
8
0
10
78.454771875
20
30.466490625000002
30
0
0
VERTEX
8
0
10
78.454434375
20
30.467181250000003
30
0
0
VERTEX
8
0
10
78.05633125
20
31.156721875000002
30
0
0
VERTEX
8
0
10
78.05264062500001
20
31.161587500000003
30
0
0
VERTEX
8
0
10
78.04959375
20
31.166903125
30
0
0
VERTEX
8
0
10
78.04194375
20
31.175700000000003
30
0
0
VERTEX
8
0
10
78.04125625
20
31.176606250000003
30
0
0
VERTEX
8
0
10
78.04092812500001
20
31.17686875
30
0
0
VERTEX
8
0
10
78.04043750000001
20
31.17743125
30
0
0
VERTEX
8
0
10
77.47743125000001
20
31.740437500000002
30
0
0
VERTEX
8
0
10
77.47260625
20
31.744187500000002
30
0
0
VERTEX
8
0
10
77.4682875
20
31.748528125
30
0
0
VERTEX
8
0
10
77.4586
20
31.7550625
30
0
0
VERTEX
8
0
10
77.45772500000001
20
31.75574375
30
0
0
VERTEX
8
0
10
77.457353125
20
31.755906250000002
30
0
0
VERTEX
8
0
10
77.456721875
20
31.756331250000002
30
0
0
VERTEX
8
0
10
76.76718125000001
20
32.154434375
30
0
0
VERTEX
8
0
10
76.76154687500001
20
32.15680625
30
0
0
VERTEX
8
0
10
76.75625625
20
32.159881250000005
30
0
0
VERTEX
8
0
10
76.745190625
20
32.16369375
30
0
0
VERTEX
8
0
10
76.744184375
20
32.164115625
30
0
0
VERTEX
8
0
10
76.743790625
20
32.164175
30
0
0
VERTEX
8
0
10
76.74306250000001
20
32.164425
30
0
0
VERTEX
8
0
10
75.973984375
20
32.3705
30
0
0
VERTEX
8
0
10
75.971153125
20
32.370890625
30
0
0
VERTEX
8
0
10
75.96846875
20
32.371809375
30
0
0
VERTEX
8
0
10
75.95464375
20
32.373690625
30
0
0
VERTEX
8
0
10
75.55654375
20
32.399784375
30
0
0
VERTEX
8
0
10
75.55468125
20
32.399671875
30
0
0
VERTEX
8
0
10
75.550003125
20
32.4
30
0
0
VERTEX
8
0
10
-75.55
20
32.4
30
0
0
VERTEX
8
0
10
-75.551871875
20
32.399765625
30
0
0
VERTEX
8
0
10
-75.556540625
20
32.399784375
30
0
0
VERTEX
8
0
10
-75.95464375
20
32.373690625
30
0
0
VERTEX
8
0
10
-75.957428125
20
32.373153125
30
0
0
VERTEX
8
0
10
-75.960290625
20
32.3731625
30
0
0
VERTEX
8
0
10
-75.973984375
20
32.3705
30
0
0
VERTEX
8
0
10
-76.74306250000001
20
32.164425
30
0
0
VERTEX
8
0
10
-76.74873125
20
32.162115625
30
0
0
VERTEX
8
0
10
-76.75464062500001
20
32.16055
30
0
0
VERTEX
8
0
10
-76.76515625
20
32.155421875
30
0
0
VERTEX
8
0
10
-76.76616875
20
32.155009375
30
0
0
VERTEX
8
0
10
-76.766490625
20
32.154771875
30
0
0
VERTEX
8
0
10
-76.76718125000001
20
32.154434375
30
0
0
VERTEX
8
0
10
-77.456721875
20
31.756331250000002
30
0
0
VERTEX
8
0
10
-77.46158750000001
20
31.752640625
30
0
0
VERTEX
8
0
10
-77.466903125
20
31.749593750000003
30
0
0
VERTEX
8
0
10
-77.4757
20
31.74194375
30
0
0
VERTEX
8
0
10
-77.47660625
20
31.741256250000003
30
0
0
VERTEX
8
0
10
-77.47686875000001
20
31.740928125
30
0
0
VERTEX
8
0
10
-77.47743125000001
20
31.740437500000002
30
0
0
VERTEX
8
0
10
-78.04043750000001
20
31.17743125
30
0
0
VERTEX
8
0
10
-78.0441875
20
31.17260625
30
0
0
VERTEX
8
0
10
-78.048528125
20
31.1682875
30
0
0
VERTEX
8
0
10
-78.0550625
20
31.1586
30
0
0
VERTEX
8
0
10
-78.05574375
20
31.157725000000003
30
0
0
VERTEX
8
0
10
-78.05590625
20
31.157353125
30
0
0
VERTEX
8
0
10
-78.05633125
20
31.156721875000002
30
0
0
VERTEX
8
0
10
-78.454434375
20
30.467181250000003
30
0
0
VERTEX
8
0
10
-78.45680625
20
30.461546875
30
0
0
VERTEX
8
0
10
-78.45988125000001
20
30.456256250000003
30
0
0
VERTEX
8
0
10
-78.46369375
20
30.445190625000002
30
0
0
VERTEX
8
0
10
-78.464115625
20
30.444184375000003
30
0
0
VERTEX
8
0
10
-78.464175
20
30.443790625000002
30
0
0
VERTEX
8
0
10
-78.464425
20
30.4430625
30
0
0
VERTEX
8
0
10
-78.6705
20
29.673984375
30
0
0
VERTEX
8
0
10
-78.6708875
20
29.67116875
30
0
0
VERTEX
8
0
10
-78.6718125
20
29.668468750000002
30
0
0
VERTEX
8
0
10
-78.67356562500001
20
29.655584375
30
0
0
VERTEX
8
0
10
-78.673665625
20
29.655078125000003
30
0
0
VERTEX
8
0
10
-78.67365625000001
20
29.654915625
30
0
0
VERTEX
8
0
10
-78.67369375
20
29.65464375
30
0
0
VERTEX
8
0
10
-78.68336875
20
29.507
30
0
0
VERTEX
8
0
10
-78.683375
20
29.506975
30
0
0
VERTEX
8
0
10
-78.683371875
20
29.506946875
30
0
0
VERTEX
8
0
10
-78.689925
20
29.406996875
30
0
0
VERTEX
8
0
10
-78.68992812500001
20
29.406975000000003
30
0
0
VERTEX
8
0
10
-78.68992812500001
20
29.406953125
30
0
0
VERTEX
8
0
10
-78.696478125
20
29.306990625
30
0
0
VERTEX
8
0
10
-78.69648125
20
29.306975
30
0
0
VERTEX
8
0
10
-78.69648125
20
29.306956250000002
30
0
0
VERTEX
8
0
10
-78.69978437500001
20
29.256540625000003
30
0
0
VERTEX
8
0
10
-78.699671875
20
29.254678125
30
0
0
VERTEX
8
0
10
-78.7
20
29.25
30
0
0
VERTEX
8
0
10
-78.7
20
-4.25
30
0
0
VERTEX
8
0
10
-78.699765625
20
-4.251871875
30
0
0
VERTEX
8
0
10
-78.69978437500001
20
-4.256540625
30
0
0
VERTEX
8
0
10
-78.673690625
20
-4.65464375
30
0
0
VERTEX
8
0
10
-78.673153125
20
-4.657428125
30
0
0
VERTEX
8
0
10
-78.6731625
20
-4.660290625
30
0
0
VERTEX
8
0
10
-78.6705
20
-4.673984375
30
0
0
VERTEX
8
0
10
-78.464425
20
-5.4430625
30
0
0
VERTEX
8
0
10
-78.46211562500001
20
-5.448731250000001
30
0
0
VERTEX
8
0
10
-78.46055
20
-5.454640625000001
30
0
0
VERTEX
8
0
10
-78.455421875
20
-5.465156250000001
30
0
0
VERTEX
8
0
10
-78.455009375
20
-5.4661687500000005
30
0
0
VERTEX
8
0
10
-78.454771875
20
-5.4664906250000005
30
0
0
VERTEX
8
0
10
-78.454434375
20
-5.46718125
30
0
0
VERTEX
8
0
10
-78.05633125
20
-6.156721875000001
30
0
0
VERTEX
8
0
10
-78.05264062500001
20
-6.1615906250000005
30
0
0
VERTEX
8
0
10
-78.04959375
20
-6.166903125
30
0
0
VERTEX
8
0
10
-78.04194375
20
-6.1757
30
0
0
VERTEX
8
0
10
-78.04125625
20
-6.17660625
30
0
0
VERTEX
8
0
10
-78.04092812500001
20
-6.176868750000001
30
0
0
VERTEX
8
0
10
-78.04043750000001
20
-6.177431250000001
30
0
0
VERTEX
8
0
10
-77.477434375
20
-6.7404375000000005
30
0
0
VERTEX
8
0
10
-77.472609375
20
-6.744187500000001
30
0
0
VERTEX
8
0
10
-77.46829062500001
20
-6.748528125
30
0
0
VERTEX
8
0
10
-77.45860312500001
20
-6.7550625
30
0
0
VERTEX
8
0
10
-77.457728125
20
-6.755743750000001
30
0
0
VERTEX
8
0
10
-77.45735625
20
-6.755906250000001
30
0
0
VERTEX
8
0
10
-77.456725
20
-6.756331250000001
30
0
0
VERTEX
8
0
10
-76.767184375
20
-7.154434375
30
0
0
VERTEX
8
0
10
-76.76155
20
-7.156806250000001
30
0
0
VERTEX
8
0
10
-76.756259375
20
-7.159881250000001
30
0
0
VERTEX
8
0
10
-76.74519375
20
-7.16369375
30
0
0
VERTEX
8
0
10
-76.74418750000001
20
-7.164115625
30
0
0
VERTEX
8
0
10
-76.74379375000001
20
-7.164175
30
0
0
VERTEX
8
0
10
-76.743065625
20
-7.1644250000000005
30
0
0
VERTEX
8
0
10
-75.9739875
20
-7.370500000000001
30
0
0
VERTEX
8
0
10
-75.97115625
20
-7.370890625
30
0
0
VERTEX
8
0
10
-75.968471875
20
-7.371809375000001
30
0
0
VERTEX
8
0
10
-75.95464687500001
20
-7.373690625
30
0
0
VERTEX
8
0
10
-75.556540625
20
-7.399784375
30
0
0
VERTEX
8
0
10
-75.55467812500001
20
-7.399671875
30
0
0
VERTEX
8
0
10
-75.55
20
-7.4
30
0
0
VERTEX
8
0
10
75.55
20
-7.4
30
0
0
SEQEND
0
POLYLINE
66
1
8
1_copper
10
0.0
20
0.0
30
0.0
70
1
0
VERTEX
8
0
10
75.12972500000001
20
27.05
30
0
0
VERTEX
8
0
10
74.544284375
20
27.292496875
30
0
0
VERTEX
8
0
10
74.544278125
20
27.2925
30
0
0
VERTEX
8
0
10
74.544271875
20
27.2925
30
0
0
VERTEX
8
0
10
74.321128125
20
27.38493125
30
0
0
VERTEX
8
0
10
73.70226562500001
20
28.00379375
30
0
0
VERTEX
8
0
10
73.367334375
20
28.812390625000003
30
0
0
VERTEX
8
0
10
73.367334375
20
29.68760625
30
0
0
VERTEX
8
0
10
73.70226562500001
20
30.496203125
30
0
0
VERTEX
8
0
10
74.321128125
20
31.115065625
30
0
0
VERTEX
8
0
10
75.12972500000001
20
31.449996875
30
0
0
VERTEX
8
0
10
76.004940625
20
31.449996875
30
0
0
VERTEX
8
0
10
76.81353750000001
20
31.115065625
30
0
0
VERTEX
8
0
10
77.4324
20
30.496203125
30
0
0
VERTEX
8
0
10
77.76733125
20
29.68760625
30
0
0
VERTEX
8
0
10
77.76733125
20
28.812390625000003
30
0
0
VERTEX
8
0
10
77.4324
20
28.00379375
30
0
0
VERTEX
8
0
10
76.81353750000001
20
27.38493125
30
0
0
VERTEX
8
0
10
76.004940625
20
27.05
30
0
0
SEQEND
0
POLYLINE
66
1
8
1_copper
10
0.0
20
0.0
30
0.0
70
1
0
VERTEX
8
0
10
-75.97027187500001
20
27.05
30
0
0
VERTEX
8
0
10
-76.5557125
20
27.292496875
30
0
0
VERTEX
8
0
10
-76.55571875
20
27.2925
30
0
0
VERTEX
8
0
10
-76.55572500000001
20
27.2925
30
0
0
VERTEX
8
0
10
-76.77886875
20
27.38493125
30
0
0
VERTEX
8
0
10
-77.39773125
20
28.00379375
30
0
0
VERTEX
8
0
10
-77.7326625
20
28.812390625000003
30
0
0
VERTEX
8
0
10
-77.7326625
20
29.68760625
30
0
0
VERTEX
8
0
10
-77.39773125
20
30.496203125
30
0
0
VERTEX
8
0
10
-76.77886875
20
31.115065625
30
0
0
VERTEX
8
0
10
-75.97027187500001
20
31.449996875
30
0
0
VERTEX
8
0
10
-75.09505625
20
31.449996875
30
0
0
VERTEX
8
0
10
-74.286459375
20
31.115065625
30
0
0
VERTEX
8
0
10
-73.667596875
20
30.496203125
30
0
0
VERTEX
8
0
10
-73.332665625
20
29.68760625
30
0
0
VERTEX
8
0
10
-73.332665625
20
28.812390625000003
30
0
0
VERTEX
8
0
10
-73.667596875
20
28.00379375
30
0
0
VERTEX
8
0
10
-74.286459375
20
27.38493125
30
0
0
VERTEX
8
0
10
-75.09505625
20
27.05
30
0
0
SEQEND
0
POLYLINE
66
1
8
1_copper
10
0.0
20
0.0
30
0.0
70
1
0
VERTEX
8
0
10
-7.018259375
20
5.9
30
0
0
VERTEX
8
0
10
-7.60633125
20
6.143587500000001
30
0
0
VERTEX
8
0
10
-8.056409375000001
20
6.593665625000001
30
0
0
VERTEX
8
0
10
-8.299996875
20
7.1817375000000006
30
0
0
VERTEX
8
0
10
-8.299996875
20
17.818259375
30
0
0
VERTEX
8
0
10
-8.056409375000001
20
18.40633125
30
0
0
VERTEX
8
0
10
-7.60633125
20
18.856409375000002
30
0
0
VERTEX
8
0
10
-7.018259375
20
19.099996875000002
30
0
0
VERTEX
8
0
10
7.018259375
20
19.099996875000002
30
0
0
VERTEX
8
0
10
7.482978125000001
20
18.907503125
30
0
0
VERTEX
8
0
10
7.482984375
20
18.907500000000002
30
0
0
VERTEX
8
0
10
7.482990625
20
18.907500000000002
30
0
0
VERTEX
8
0
10
7.60633125
20
18.856409375000002
30
0
0
VERTEX
8
0
10
8.056409375000001
20
18.40633125
30
0
0
VERTEX
8
0
10
8.299996875
20
17.818259375
30
0
0
VERTEX
8
0
10
8.299996875
20
7.1817375000000006
30
0
0
VERTEX
8
0
10
8.056409375000001
20
6.593665625000001
30
0
0
VERTEX
8
0
10
7.60633125
20
6.143587500000001
30
0
0
VERTEX
8
0
10
7.018259375
20
5.9
30
0
0
SEQEND
0
POLYLINE
66
1
8
1_copper
10
0.0
20
0.0
30
0.0
70
1
0
VERTEX
8
0
10
50.47086875
20
1.55
30
0
0
VERTEX
8
0
10
49.83503125
20
1.720371875
30
0
0
VERTEX
8
0
10
49.264956250000004
20
2.0495062500000003
30
0
0
VERTEX
8
0
10
48.79950625
20
2.51495625
30
0
0
VERTEX
8
0
10
48.470371875000005
20
3.08503125
30
0
0
VERTEX
8
0
10
48.300000000000004
20
3.72086875
30
0
0
VERTEX
8
0
10
48.300000000000004
20
4.379128125
30
0
0
VERTEX
8
0
10
48.470371875000005
20
5.014965625
30
0
0
VERTEX
8
0
10
48.79950625
20
5.585040625
30
0
0
VERTEX
8
0
10
49.264956250000004
20
6.050490625
30
0
0
VERTEX
8
0
10
49.83503125
20
6.379625
30
0
0
VERTEX
8
0
10
50.47086875
20
6.549996875000001
30
0
0
VERTEX
8
0
10
51.129128125
20
6.549996875000001
30
0
0
VERTEX
8
0
10
51.764965625
20
6.379625
30
0
0
VERTEX
8
0
10
52.335040625000005
20
6.050490625
30
0
0
VERTEX
8
0
10
52.800490625
20
5.585040625
30
0
0
VERTEX
8
0
10
53.129625000000004
20
5.014965625
30
0
0
VERTEX
8
0
10
53.299996875000005
20
4.379128125
30
0
0
VERTEX
8
0
10
53.299996875000005
20
3.72086875
30
0
0
VERTEX
8
0
10
53.129625000000004
20
3.08503125
30
0
0
VERTEX
8
0
10
52.800490625
20
2.51495625
30
0
0
VERTEX
8
0
10
52.335040625000005
20
2.0495062500000003
30
0
0
VERTEX
8
0
10
51.764965625
20
1.720371875
30
0
0
VERTEX
8
0
10
51.129128125
20
1.55
30
0
0
SEQEND
0
POLYLINE
66
1
8
1_copper
10
0.0
20
0.0
30
0.0
70
1
0
VERTEX
8
0
10
25.070868750000002
20
1.55
30
0
0
VERTEX
8
0
10
24.43503125
20
1.720371875
30
0
0
VERTEX
8
0
10
23.864956250000002
20
2.0495062500000003
30
0
0
VERTEX
8
0
10
23.39950625
20
2.51495625
30
0
0
VERTEX
8
0
10
23.070371875000003
20
3.08503125
30
0
0
VERTEX
8
0
10
22.900000000000002
20
3.72086875
30
0
0
VERTEX
8
0
10
22.900000000000002
20
4.379128125
30
0
0
VERTEX
8
0
10
23.070371875000003
20
5.014965625
30
0
0
VERTEX
8
0
10
23.39950625
20
5.585040625
30
0
0
VERTEX
8
0
10
23.864956250000002
20
6.050490625
30
0
0
VERTEX
8
0
10
24.43503125
20
6.379625
30
0
0
VERTEX
8
0
10
25.070868750000002
20
6.549996875000001
30
0
0
VERTEX
8
0
10
25.729128125000003
20
6.549996875000001
30
0
0
VERTEX
8
0
10
26.364965625
20
6.379625
30
0
0
VERTEX
8
0
10
26.935040625000003
20
6.050490625
30
0
0
VERTEX
8
0
10
27.400490625
20
5.585040625
30
0
0
VERTEX
8
0
10
27.729625000000002
20
5.014965625
30
0
0
VERTEX
8
0
10
27.899996875000003
20
4.379128125
30
0
0
VERTEX
8
0
10
27.899996875000003
20
3.72086875
30
0
0
VERTEX
8
0
10
27.729625000000002
20
3.08503125
30
0
0
VERTEX
8
0
10
27.400490625
20
2.51495625
30
0
0
VERTEX
8
0
10
26.935040625000003
20
2.0495062500000003
30
0
0
VERTEX
8
0
10
26.364965625
20
1.720371875
30
0
0
VERTEX
8
0
10
25.729128125000003
20
1.55
30
0
0
SEQEND
0
POLYLINE
66
1
8
1_copper
10
0.0
20
0.0
30
0.0
70
1
0
VERTEX
8
0
10
-63.960781250000004
20
-0.499996875
30
0
0
VERTEX
8
0
10
-64.85095
20
-0.261475
30
0
0
VERTEX
8
0
10
-65.64905625
20
0.19930625000000002
30
0
0
VERTEX
8
0
10
-66.300690625
20
0.850940625
30
0
0
VERTEX
8
0
10
-66.761475
20
1.649046875
30
0
0
VERTEX
8
0
10
-66.99999687500001
20
2.539215625
30
0
0
VERTEX
8
0
10
-66.99999687500001
20
3.46078125
30
0
0
VERTEX
8
0
10
-66.761475
20
4.35095
30
0
0
VERTEX
8
0
10
-66.300690625
20
5.14905625
30
0
0
VERTEX
8
0
10
-65.64905625
20
5.8006906250000005
30
0
0
VERTEX
8
0
10
-64.85095
20
6.261475
30
0
0
VERTEX
8
0
10
-63.960781250000004
20
6.499996875
30
0
0
VERTEX
8
0
10
-63.039215625000004
20
6.499996875
30
0
0
VERTEX
8
0
10
-62.149046875
20
6.261475
30
0
0
VERTEX
8
0
10
-61.350940625
20
5.8006906250000005
30
0
0
VERTEX
8
0
10
-60.69930625000001
20
5.14905625
30
0
0
VERTEX
8
0
10
-60.238521875
20
4.35095
30
0
0
VERTEX
8
0
10
-60
20
3.46078125
30
0
0
VERTEX
8
0
10
-60
20
2.539215625
30
0
0
VERTEX
8
0
10
-60.238521875
20
1.649046875
30
0
0
VERTEX
8
0
10
-60.69930625000001
20
0.850940625
30
0
0
VERTEX
8
0
10
-61.350940625
20
0.19930625000000002
30
0
0
VERTEX
8
0
10
-62.149046875
20
-0.261475
30
0
0
VERTEX
8
0
10
-63.039215625000004
20
-0.499996875
30
0
0
SEQEND
0
POLYLINE
66
1
8
1_copper
10
0.0
20
0.0
30
0.0
70
1
0
VERTEX
8
0
10
59.58228125
20
-1.099996875
30
0
0
VERTEX
8
0
10
58.876140625000005
20
-0.807503125
30
0
0
VERTEX
8
0
10
58.876128125
20
-0.807496875
30
0
0
VERTEX
8
0
10
58.810440625000005
20
-0.780290625
30
0
0
VERTEX
8
0
10
58.21970625
20
-0.18955625
30
0
0
VERTEX
8
0
10
57.900000000000006
20
0.58228125
30
0
0
VERTEX
8
0
10
57.900000000000006
20
2.617715625
30
0
0
VERTEX
8
0
10
58.21970625
20
3.38955625
30
0
0
VERTEX
8
0
10
58.810440625000005
20
3.9802906250000003
30
0
0
VERTEX
8
0
10
59.58228125
20
4.299996875000001
30
0
0
VERTEX
8
0
10
67.417715625
20
4.299996875000001
30
0
0
VERTEX
8
0
10
68.12385625
20
4.007503125
30
0
0
VERTEX
8
0
10
68.12386875
20
4.007496875
30
0
0
VERTEX
8
0
10
68.18955625000001
20
3.9802906250000003
30
0
0
VERTEX
8
0
10
68.780290625
20
3.38955625
30
0
0
VERTEX
8
0
10
69.099996875
20
2.617715625
30
0
0
VERTEX
8
0
10
69.099996875
20
0.58228125
30
0
0
VERTEX
8
0
10
68.780290625
20
-0.18955625
30
0
0
VERTEX
8
0
10
68.18955625000001
20
-0.780290625
30
0
0
VERTEX
8
0
10
67.417715625
20
-1.099996875
30
0
0
SEQEND
0
POLYLINE
66
1
8
1_copper
10
0.0
20
0.0
30
0.0
70
1
0
VERTEX
8
0
10
34.18228125
20
-1.099996875
30
0
0
VERTEX
8
0
10
33.476140625
20
-0.807503125
30
0
0
VERTEX
8
0
10
33.476128125
20
-0.807496875
30
0
0
VERTEX
8
0
10
33.410440625
20
-0.780290625
30
0
0
VERTEX
8
0
10
32.81970625
20
-0.18955625
30
0
0
VERTEX
8
0
10
32.5
20
0.58228125
30
0
0
VERTEX
8
0
10
32.5
20
2.617715625
30
0
0
VERTEX
8
0
10
32.81970625
20
3.389553125
30
0
0
VERTEX
8
0
10
33.410440625
20
3.9802906250000003
30
0
0
VERTEX
8
0
10
34.18228125
20
4.299996875000001
30
0
0
VERTEX
8
0
10
42.017715625
20
4.299996875000001
30
0
0
VERTEX
8
0
10
42.723856250000004
20
4.007503125
30
0
0
VERTEX
8
0
10
42.72386875
20
4.007496875
30
0
0
VERTEX
8
0
10
42.789556250000004
20
3.9802906250000003
30
0
0
VERTEX
8
0
10
43.380290625
20
3.38955625
30
0
0
VERTEX
8
0
10
43.699996875000004
20
2.617715625
30
0
0
VERTEX
8
0
10
43.699996875000004
20
0.58228125
30
0
0
VERTEX
8
0
10
43.380290625
20
-0.18955625
30
0
0
VERTEX
8
0
10
42.789556250000004
20
-0.780290625
30
0
0
VERTEX
8
0
10
42.017715625
20
-1.099996875
30
0
0
SEQEND
0
POLYLINE
66
1
8
1_copper
10
0.0
20
0.0
30
0.0
70
1
0
VERTEX
8
0
10
-45.268259375
20
-1.099996875
30
0
0
VERTEX
8
0
10
-45.732978125
20
-0.9075031250000001
30
0
0
VERTEX
8
0
10
-45.732984375
20
-0.9075000000000001
30
0
0
VERTEX
8
0
10
-45.732990625
20
-0.9075000000000001
30
0
0
VERTEX
8
0
10
-45.856331250000004
20
-0.856409375
30
0
0
VERTEX
8
0
10
-46.306409375
20
-0.40633125000000003
30
0
0
VERTEX
8
0
10
-46.549996875000005
20
0.1817375
30
0
0
VERTEX
8
0
10
-46.549996875000005
20
1.818259375
30
0
0
VERTEX
8
0
10
-46.306409375
20
2.406328125
30
0
0
VERTEX
8
0
10
-45.856328125000005
20
2.856409375
30
0
0
VERTEX
8
0
10
-45.26825625
20
3.099996875
30
0
0
VERTEX
8
0
10
-30.9317375
20
3.099996875
30
0
0
VERTEX
8
0
10
-30.46701875
20
2.9075031250000003
30
0
0
VERTEX
8
0
10
-30.467012500000003
20
2.9075
30
0
0
VERTEX
8
0
10
-30.46700625
20
2.9075
30
0
0
VERTEX
8
0
10
-30.343665625
20
2.856409375
30
0
0
VERTEX
8
0
10
-29.893587500000002
20
2.40633125
30
0
0
VERTEX
8
0
10
-29.650000000000002
20
1.818259375
30
0
0
VERTEX
8
0
10
-29.650000000000002
20
0.1817375
30
0
0
VERTEX
8
0
10
-29.893587500000002
20
-0.40633125000000003
30
0
0
VERTEX
8
0
10
-30.343665625
20
-0.856409375
30
0
0
VERTEX
8
0
10
-30.9317375
20
-1.099996875
30
0
0
SEQEND
0
POLYLINE
66
1
8
1_copper
10
0.0
20
0.0
30
0.0
70
1
0
VERTEX
8
0
10
75.12972500000001
20
-6.449996875
30
0
0
VERTEX
8
0
10
74.321128125
20
-6.115065625000001
30
0
0
VERTEX
8
0
10
73.70226562500001
20
-5.496203125
30
0
0
VERTEX
8
0
10
73.367334375
20
-4.68760625
30
0
0
VERTEX
8
0
10
73.367334375
20
-3.8123906250000004
30
0
0
VERTEX
8
0
10
73.70226562500001
20
-3.0037937500000003
30
0
0
VERTEX
8
0
10
74.321128125
20
-2.38493125
30
0
0
VERTEX
8
0
10
75.12972500000001
20
-2.0500000000000003
30
0
0
VERTEX
8
0
10
76.004940625
20
-2.0500000000000003
30
0
0
VERTEX
8
0
10
76.59038125000001
20
-2.2924968750000003
30
0
0
VERTEX
8
0
10
76.5903875
20
-2.2925
30
0
0
VERTEX
8
0
10
76.59039375
20
-2.2925
30
0
0
VERTEX
8
0
10
76.81353750000001
20
-2.38493125
30
0
0
VERTEX
8
0
10
77.4324
20
-3.0037937500000003
30
0
0
VERTEX
8
0
10
77.76733125
20
-3.8123906250000004
30
0
0
VERTEX
8
0
10
77.76733125
20
-4.68760625
30
0
0
VERTEX
8
0
10
77.4324
20
-5.496203125
30
0
0
VERTEX
8
0
10
76.81353750000001
20
-6.115065625000001
30
0
0
VERTEX
8
0
10
76.004940625
20
-6.449996875
30
0
0
SEQEND
0
POLYLINE
66
1
8
1_copper
10
0.0
20
0.0
30
0.0
70
1
0
VERTEX
8
0
10
-75.97027187500001
20
-6.449996875
30
0
0
VERTEX
8
0
10
-76.77886875
20
-6.115065625000001
30
0
0
VERTEX
8
0
10
-77.39773125
20
-5.496203125
30
0
0
VERTEX
8
0
10
-77.7326625
20
-4.68760625
30
0
0
VERTEX
8
0
10
-77.7326625
20
-3.8123906250000004
30
0
0
VERTEX
8
0
10
-77.39773125
20
-3.0037937500000003
30
0
0
VERTEX
8
0
10
-76.77886875
20
-2.38493125
30
0
0
VERTEX
8
0
10
-75.97027187500001
20
-2.0500000000000003
30
0
0
VERTEX
8
0
10
-75.09505625
20
-2.0500000000000003
30
0
0
VERTEX
8
0
10
-74.50961562500001
20
-2.2924968750000003
30
0
0
VERTEX
8
0
10
-74.509609375
20
-2.2925
30
0
0
VERTEX
8
0
10
-74.509603125
20
-2.2925
30
0
0
VERTEX
8
0
10
-74.286459375
20
-2.38493125
30
0
0
VERTEX
8
0
10
-73.667596875
20
-3.0037937500000003
30
0
0
VERTEX
8
0
10
-73.332665625
20
-3.8123906250000004
30
0
0
VERTEX
8
0
10
-73.332665625
20
-4.68760625
30
0
0
VERTEX
8
0
10
-73.667596875
20
-5.496203125
30
0
0
VERTEX
8
0
10
-74.286459375
20
-6.115065625000001
30
0
0
VERTEX
8
0
10
-75.09505625
20
-6.449996875
30
0
0
SEQEND
0
POLYLINE
66
1
8
16_copper
10
0.0
20
0.0
30
0.0
70
1
0
VERTEX
8
0
10
75.551871875
20
-7.399765625000001
30
0
0
VERTEX
8
0
10
75.556540625
20
-7.399784375
30
0
0
VERTEX
8
0
10
75.95464375
20
-7.373690625
30
0
0
VERTEX
8
0
10
75.957428125
20
-7.373153125
30
0
0
VERTEX
8
0
10
75.960290625
20
-7.3731625
30
0
0
VERTEX
8
0
10
75.973984375
20
-7.370500000000001
30
0
0
VERTEX
8
0
10
76.74306250000001
20
-7.1644250000000005
30
0
0
VERTEX
8
0
10
76.74873125
20
-7.162115625
30
0
0
VERTEX
8
0
10
76.75464062500001
20
-7.160550000000001
30
0
0
VERTEX
8
0
10
76.76515625
20
-7.155421875
30
0
0
VERTEX
8
0
10
76.76616875
20
-7.155009375000001
30
0
0
VERTEX
8
0
10
76.766490625
20
-7.154771875000001
30
0
0
VERTEX
8
0
10
76.76718125000001
20
-7.154434375
30
0
0
VERTEX
8
0
10
77.456721875
20
-6.756331250000001
30
0
0
VERTEX
8
0
10
77.46158750000001
20
-6.752640625000001
30
0
0
VERTEX
8
0
10
77.466903125
20
-6.749593750000001
30
0
0
VERTEX
8
0
10
77.4757
20
-6.74194375
30
0
0
VERTEX
8
0
10
77.47660625
20
-6.74125625
30
0
0
VERTEX
8
0
10
77.47686875000001
20
-6.740928125
30
0
0
VERTEX
8
0
10
77.47743125000001
20
-6.7404375000000005
30
0
0
VERTEX
8
0
10
78.04043750000001
20
-6.177431250000001
30
0
0
VERTEX
8
0
10
78.0441875
20
-6.17260625
30
0
0
VERTEX
8
0
10
78.048528125
20
-6.1682875
30
0
0
VERTEX
8
0
10
78.0550625
20
-6.1586
30
0
0
VERTEX
8
0
10
78.05574375
20
-6.157725
30
0
0
VERTEX
8
0
10
78.05590625
20
-6.157353125
30
0
0
VERTEX
8
0
10
78.05633125
20
-6.156721875000001
30
0
0
VERTEX
8
0
10
78.454434375
20
-5.46718125
30
0
0
VERTEX
8
0
10
78.45680625
20
-5.461546875000001
30
0
0
VERTEX
8
0
10
78.45988125000001
20
-5.45625625
30
0
0
VERTEX
8
0
10
78.46369375
20
-5.445190625
30
0
0
VERTEX
8
0
10
78.464115625
20
-5.444184375
30
0
0
VERTEX
8
0
10
78.464175
20
-5.443790625
30
0
0
VERTEX
8
0
10
78.464425
20
-5.4430625
30
0
0
VERTEX
8
0
10
78.6705
20
-4.673984375
30
0
0
VERTEX
8
0
10
78.670890625
20
-4.671153125
30
0
0
VERTEX
8
0
10
78.67180937500001
20
-4.668468750000001
30
0
0
VERTEX
8
0
10
78.673690625
20
-4.65464375
30
0
0
VERTEX
8
0
10
78.68336875
20
-4.506990625
30
0
0
VERTEX
8
0
10
78.683371875
20
-4.506975000000001
30
0
0
VERTEX
8
0
10
78.683371875
20
-4.50695625
30
0
0
VERTEX
8
0
10
78.696478125
20
-4.30699375
30
0
0
VERTEX
8
0
10
78.69648125
20
-4.306975
30
0
0
VERTEX
8
0
10
78.69648125
20
-4.30695625
30
0
0
VERTEX
8
0
10
78.69978437500001
20
-4.2565437500000005
30
0
0
VERTEX
8
0
10
78.699671875
20
-4.25468125
30
0
0
VERTEX
8
0
10
78.7
20
-4.250003125
30
0
0
VERTEX
8
0
10
78.7
20
29.25
30
0
0
VERTEX
8
0
10
78.699765625
20
29.251871875000003
30
0
0
VERTEX
8
0
10
78.69978437500001
20
29.256540625000003
30
0
0
VERTEX
8
0
10
78.673690625
20
29.65464375
30
0
0
VERTEX
8
0
10
78.673153125
20
29.657428125000003
30
0
0
VERTEX
8
0
10
78.6731625
20
29.660290625000002
30
0
0
VERTEX
8
0
10
78.6705
20
29.673984375
30
0
0
VERTEX
8
0
10
78.464425
20
30.4430625
30
0
0
VERTEX
8
0
10
78.46211562500001
20
30.44873125
30
0
0
VERTEX
8
0
10
78.46055
20
30.454640625
30
0
0
VERTEX
8
0
10
78.455421875
20
30.46515625
30
0
0
VERTEX
8
0
10
78.455009375
20
30.46616875
30
0
0
VERTEX
8
0
10
78.454771875
20
30.466490625000002
30
0
0
VERTEX
8
0
10
78.454434375
20
30.467181250000003
30
0
0
VERTEX
8
0
10
78.05633125
20
31.156721875000002
30
0
0
VERTEX
8
0
10
78.05264062500001
20
31.161587500000003
30
0
0
VERTEX
8
0
10
78.04959375
20
31.166903125
30
0
0
VERTEX
8
0
10
78.04194375
20
31.175700000000003
30
0
0
VERTEX
8
0
10
78.04125625
20
31.176606250000003
30
0
0
VERTEX
8
0
10
78.04092812500001
20
31.17686875
30
0
0
VERTEX
8
0
10
78.04043750000001
20
31.17743125
30
0
0
VERTEX
8
0
10
77.47743125000001
20
31.740437500000002
30
0
0
VERTEX
8
0
10
77.47260625
20
31.744187500000002
30
0
0
VERTEX
8
0
10
77.4682875
20
31.748528125
30
0
0
VERTEX
8
0
10
77.4586
20
31.7550625
30
0
0
VERTEX
8
0
10
77.45772500000001
20
31.75574375
30
0
0
VERTEX
8
0
10
77.457353125
20
31.755906250000002
30
0
0
VERTEX
8
0
10
77.456721875
20
31.756331250000002
30
0
0
VERTEX
8
0
10
76.76718125000001
20
32.154434375
30
0
0
VERTEX
8
0
10
76.76154687500001
20
32.15680625
30
0
0
VERTEX
8
0
10
76.75625625
20
32.159881250000005
30
0
0
VERTEX
8
0
10
76.745190625
20
32.16369375
30
0
0
VERTEX
8
0
10
76.744184375
20
32.164115625
30
0
0
VERTEX
8
0
10
76.743790625
20
32.164175
30
0
0
VERTEX
8
0
10
76.74306250000001
20
32.164425
30
0
0
VERTEX
8
0
10
75.973984375
20
32.3705
30
0
0
VERTEX
8
0
10
75.971153125
20
32.370890625
30
0
0
VERTEX
8
0
10
75.96846875
20
32.371809375
30
0
0
VERTEX
8
0
10
75.95464375
20
32.373690625
30
0
0
VERTEX
8
0
10
75.55654375
20
32.399784375
30
0
0
VERTEX
8
0
10
75.55468125
20
32.399671875
30
0
0
VERTEX
8
0
10
75.550003125
20
32.4
30
0
0
VERTEX
8
0
10
-75.55
20
32.4
30
0
0
VERTEX
8
0
10
-75.551871875
20
32.399765625
30
0
0
VERTEX
8
0
10
-75.556540625
20
32.399784375
30
0
0
VERTEX
8
0
10
-75.95464375
20
32.373690625
30
0
0
VERTEX
8
0
10
-75.957428125
20
32.373153125
30
0
0
VERTEX
8
0
10
-75.960290625
20
32.3731625
30
0
0
VERTEX
8
0
10
-75.973984375
20
32.3705
30
0
0
VERTEX
8
0
10
-76.74306250000001
20
32.164425
30
0
0
VERTEX
8
0
10
-76.74873125
20
32.162115625
30
0
0
VERTEX
8
0
10
-76.75464062500001
20
32.16055
30
0
0
VERTEX
8
0
10
-76.76515625
20
32.155421875
30
0
0
VERTEX
8
0
10
-76.76616875
20
32.155009375
30
0
0
VERTEX
8
0
10
-76.766490625
20
32.154771875
30
0
0
VERTEX
8
0
10
-76.76718125000001
20
32.154434375
30
0
0
VERTEX
8
0
10
-77.456721875
20
31.756331250000002
30
0
0
VERTEX
8
0
10
-77.46158750000001
20
31.752640625
30
0
0
VERTEX
8
0
10
-77.466903125
20
31.749593750000003
30
0
0
VERTEX
8
0
10
-77.4757
20
31.74194375
30
0
0
VERTEX
8
0
10
-77.47660625
20
31.741256250000003
30
0
0
VERTEX
8
0
10
-77.47686875000001
20
31.740928125
30
0
0
VERTEX
8
0
10
-77.47743125000001
20
31.740437500000002
30
0
0
VERTEX
8
0
10
-78.04043750000001
20
31.17743125
30
0
0
VERTEX
8
0
10
-78.0441875
20
31.17260625
30
0
0
VERTEX
8
0
10
-78.048528125
20
31.1682875
30
0
0
VERTEX
8
0
10
-78.0550625
20
31.1586
30
0
0
VERTEX
8
0
10
-78.05574375
20
31.157725000000003
30
0
0
VERTEX
8
0
10
-78.05590625
20
31.157353125
30
0
0
VERTEX
8
0
10
-78.05633125
20
31.156721875000002
30
0
0
VERTEX
8
0
10
-78.454434375
20
30.467181250000003
30
0
0
VERTEX
8
0
10
-78.45680625
20
30.461546875
30
0
0
VERTEX
8
0
10
-78.45988125000001
20
30.456256250000003
30
0
0
VERTEX
8
0
10
-78.46369375
20
30.445190625000002
30
0
0
VERTEX
8
0
10
-78.464115625
20
30.444184375000003
30
0
0
VERTEX
8
0
10
-78.464175
20
30.443790625000002
30
0
0
VERTEX
8
0
10
-78.464425
20
30.4430625
30
0
0
VERTEX
8
0
10
-78.6705
20
29.673984375
30
0
0
VERTEX
8
0
10
-78.6708875
20
29.67116875
30
0
0
VERTEX
8
0
10
-78.6718125
20
29.668468750000002
30
0
0
VERTEX
8
0
10
-78.67356562500001
20
29.655584375
30
0
0
VERTEX
8
0
10
-78.673665625
20
29.655078125000003
30
0
0
VERTEX
8
0
10
-78.67365625000001
20
29.654915625
30
0
0
VERTEX
8
0
10
-78.67369375
20
29.65464375
30
0
0
VERTEX
8
0
10
-78.68336875
20
29.507
30
0
0
VERTEX
8
0
10
-78.683375
20
29.506975
30
0
0
VERTEX
8
0
10
-78.683371875
20
29.506946875
30
0
0
VERTEX
8
0
10
-78.689925
20
29.406996875
30
0
0
VERTEX
8
0
10
-78.68992812500001
20
29.406975000000003
30
0
0
VERTEX
8
0
10
-78.68992812500001
20
29.406953125
30
0
0
VERTEX
8
0
10
-78.696478125
20
29.306990625
30
0
0
VERTEX
8
0
10
-78.69648125
20
29.306975
30
0
0
VERTEX
8
0
10
-78.69648125
20
29.306956250000002
30
0
0
VERTEX
8
0
10
-78.69978437500001
20
29.256540625000003
30
0
0
VERTEX
8
0
10
-78.699671875
20
29.254678125
30
0
0
VERTEX
8
0
10
-78.7
20
29.25
30
0
0
VERTEX
8
0
10
-78.7
20
-4.25
30
0
0
VERTEX
8
0
10
-78.699765625
20
-4.251871875
30
0
0
VERTEX
8
0
10
-78.69978437500001
20
-4.256540625
30
0
0
VERTEX
8
0
10
-78.673690625
20
-4.65464375
30
0
0
VERTEX
8
0
10
-78.673153125
20
-4.657428125
30
0
0
VERTEX
8
0
10
-78.6731625
20
-4.660290625
30
0
0
VERTEX
8
0
10
-78.6705
20
-4.673984375
30
0
0
VERTEX
8
0
10
-78.464425
20
-5.4430625
30
0
0
VERTEX
8
0
10
-78.46211562500001
20
-5.448731250000001
30
0
0
VERTEX
8
0
10
-78.46055
20
-5.454640625000001
30
0
0
VERTEX
8
0
10
-78.455421875
20
-5.465156250000001
30
0
0
VERTEX
8
0
10
-78.455009375
20
-5.4661687500000005
30
0
0
VERTEX
8
0
10
-78.454771875
20
-5.4664906250000005
30
0
0
VERTEX
8
0
10
-78.454434375
20
-5.46718125
30
0
0
VERTEX
8
0
10
-78.05633125
20
-6.156721875000001
30
0
0
VERTEX
8
0
10
-78.05264062500001
20
-6.1615906250000005
30
0
0
VERTEX
8
0
10
-78.04959375
20
-6.166903125
30
0
0
VERTEX
8
0
10
-78.04194375
20
-6.1757
30
0
0
VERTEX
8
0
10
-78.04125625
20
-6.17660625
30
0
0
VERTEX
8
0
10
-78.04092812500001
20
-6.176868750000001
30
0
0
VERTEX
8
0
10
-78.04043750000001
20
-6.177431250000001
30
0
0
VERTEX
8
0
10
-77.477434375
20
-6.7404375000000005
30
0
0
VERTEX
8
0
10
-77.472609375
20
-6.744187500000001
30
0
0
VERTEX
8
0
10
-77.46829062500001
20
-6.748528125
30
0
0
VERTEX
8
0
10
-77.45860312500001
20
-6.7550625
30
0
0
VERTEX
8
0
10
-77.457728125
20
-6.755743750000001
30
0
0
VERTEX
8
0
10
-77.45735625
20
-6.755906250000001
30
0
0
VERTEX
8
0
10
-77.456725
20
-6.756331250000001
30
0
0
VERTEX
8
0
10
-76.767184375
20
-7.154434375
30
0
0
VERTEX
8
0
10
-76.76155
20
-7.156806250000001
30
0
0
VERTEX
8
0
10
-76.756259375
20
-7.159881250000001
30
0
0
VERTEX
8
0
10
-76.74519375
20
-7.16369375
30
0
0
VERTEX
8
0
10
-76.74418750000001
20
-7.164115625
30
0
0
VERTEX
8
0
10
-76.74379375000001
20
-7.164175
30
0
0
VERTEX
8
0
10
-76.743065625
20
-7.1644250000000005
30
0
0
VERTEX
8
0
10
-75.9739875
20
-7.370500000000001
30
0
0
VERTEX
8
0
10
-75.97115625
20
-7.370890625
30
0
0
VERTEX
8
0
10
-75.968471875
20
-7.371809375000001
30
0
0
VERTEX
8
0
10
-75.95464687500001
20
-7.373690625
30
0
0
VERTEX
8
0
10
-75.556540625
20
-7.399784375
30
0
0
VERTEX
8
0
10
-75.55467812500001
20
-7.399671875
30
0
0
VERTEX
8
0
10
-75.55
20
-7.4
30
0
0
VERTEX
8
0
10
75.55
20
-7.4
30
0
0
SEQEND
0
POLYLINE
66
1
8
16_copper
10
0.0
20
0.0
30
0.0
70
1
0
VERTEX
8
0
10
75.12972500000001
20
27.05
30
0
0
VERTEX
8
0
10
74.544284375
20
27.292496875
30
0
0
VERTEX
8
0
10
74.544278125
20
27.2925
30
0
0
VERTEX
8
0
10
74.544271875
20
27.2925
30
0
0
VERTEX
8
0
10
74.321128125
20
27.38493125
30
0
0
VERTEX
8
0
10
73.70226562500001
20
28.00379375
30
0
0
VERTEX
8
0
10
73.367334375
20
28.812390625000003
30
0
0
VERTEX
8
0
10
73.367334375
20
29.68760625
30
0
0
VERTEX
8
0
10
73.70226562500001
20
30.496203125
30
0
0
VERTEX
8
0
10
74.321128125
20
31.115065625
30
0
0
VERTEX
8
0
10
75.12972500000001
20
31.449996875
30
0
0
VERTEX
8
0
10
76.004940625
20
31.449996875
30
0
0
VERTEX
8
0
10
76.81353750000001
20
31.115065625
30
0
0
VERTEX
8
0
10
77.4324
20
30.496203125
30
0
0
VERTEX
8
0
10
77.76733125
20
29.68760625
30
0
0
VERTEX
8
0
10
77.76733125
20
28.812390625000003
30
0
0
VERTEX
8
0
10
77.4324
20
28.00379375
30
0
0
VERTEX
8
0
10
76.81353750000001
20
27.38493125
30
0
0
VERTEX
8
0
10
76.004940625
20
27.05
30
0
0
SEQEND
0
POLYLINE
66
1
8
16_copper
10
0.0
20
0.0
30
0.0
70
1
0
VERTEX
8
0
10
-75.97027187500001
20
27.05
30
0
0
VERTEX
8
0
10
-76.5557125
20
27.292496875
30
0
0
VERTEX
8
0
10
-76.55571875
20
27.2925
30
0
0
VERTEX
8
0
10
-76.55572500000001
20
27.2925
30
0
0
VERTEX
8
0
10
-76.77886875
20
27.38493125
30
0
0
VERTEX
8
0
10
-77.39773125
20
28.00379375
30
0
0
VERTEX
8
0
10
-77.7326625
20
28.812390625000003
30
0
0
VERTEX
8
0
10
-77.7326625
20
29.68760625
30
0
0
VERTEX
8
0
10
-77.39773125
20
30.496203125
30
0
0
VERTEX
8
0
10
-76.77886875
20
31.115065625
30
0
0
VERTEX
8
0
10
-75.97027187500001
20
31.449996875
30
0
0
VERTEX
8
0
10
-75.09505625
20
31.449996875
30
0
0
VERTEX
8
0
10
-74.286459375
20
31.115065625
30
0
0
VERTEX
8
0
10
-73.667596875
20
30.496203125
30
0
0
VERTEX
8
0
10
-73.332665625
20
29.68760625
30
0
0
VERTEX
8
0
10
-73.332665625
20
28.812390625000003
30
0
0
VERTEX
8
0
10
-73.667596875
20
28.00379375
30
0
0
VERTEX
8
0
10
-74.286459375
20
27.38493125
30
0
0
VERTEX
8
0
10
-75.09505625
20
27.05
30
0
0
SEQEND
0
POLYLINE
66
1
8
16_copper
10
0.0
20
0.0
30
0.0
70
1
0
VERTEX
8
0
10
-7.018259375
20
5.9
30
0
0
VERTEX
8
0
10
-7.60633125
20
6.143587500000001
30
0
0
VERTEX
8
0
10
-8.056409375000001
20
6.593665625000001
30
0
0
VERTEX
8
0
10
-8.299996875
20
7.1817375000000006
30
0
0
VERTEX
8
0
10
-8.299996875
20
17.818259375
30
0
0
VERTEX
8
0
10
-8.056409375000001
20
18.40633125
30
0
0
VERTEX
8
0
10
-7.60633125
20
18.856409375000002
30
0
0
VERTEX
8
0
10
-7.018259375
20
19.099996875000002
30
0
0
VERTEX
8
0
10
7.018259375
20
19.099996875000002
30
0
0
VERTEX
8
0
10
7.482978125000001
20
18.907503125
30
0
0
VERTEX
8
0
10
7.482984375
20
18.907500000000002
30
0
0
VERTEX
8
0
10
7.482990625
20
18.907500000000002
30
0
0
VERTEX
8
0
10
7.60633125
20
18.856409375000002
30
0
0
VERTEX
8
0
10
8.056409375000001
20
18.40633125
30
0
0
VERTEX
8
0
10
8.299996875
20
17.818259375
30
0
0
VERTEX
8
0
10
8.299996875
20
7.1817375000000006
30
0
0
VERTEX
8
0
10
8.056409375000001
20
6.59366875
30
0
0
VERTEX
8
0
10
7.60633125
20
6.143587500000001
30
0
0
VERTEX
8
0
10
7.018259375
20
5.9
30
0
0
SEQEND
0
POLYLINE
66
1
8
16_copper
10
0.0
20
0.0
30
0.0
70
1
0
VERTEX
8
0
10
50.47086875
20
1.55
30
0
0
VERTEX
8
0
10
49.83503125
20
1.720371875
30
0
0
VERTEX
8
0
10
49.264956250000004
20
2.0495062500000003
30
0
0
VERTEX
8
0
10
48.79950625
20
2.51495625
30
0
0
VERTEX
8
0
10
48.470371875000005
20
3.08503125
30
0
0
VERTEX
8
0
10
48.300000000000004
20
3.72086875
30
0
0
VERTEX
8
0
10
48.300000000000004
20
4.379128125
30
0
0
VERTEX
8
0
10
48.470371875000005
20
5.014965625
30
0
0
VERTEX
8
0
10
48.79950625
20
5.585040625
30
0
0
VERTEX
8
0
10
49.264956250000004
20
6.050490625
30
0
0
VERTEX
8
0
10
49.83503125
20
6.379625
30
0
0
VERTEX
8
0
10
50.47086875
20
6.549996875000001
30
0
0
VERTEX
8
0
10
51.129128125
20
6.549996875000001
30
0
0
VERTEX
8
0
10
51.764965625
20
6.379625
30
0
0
VERTEX
8
0
10
52.335040625000005
20
6.050490625
30
0
0
VERTEX
8
0
10
52.800490625
20
5.585040625
30
0
0
VERTEX
8
0
10
53.129625000000004
20
5.014965625
30
0
0
VERTEX
8
0
10
53.299996875000005
20
4.379128125
30
0
0
VERTEX
8
0
10
53.299996875000005
20
3.72086875
30
0
0
VERTEX
8
0
10
53.129625000000004
20
3.08503125
30
0
0
VERTEX
8
0
10
52.800490625
20
2.51495625
30
0
0
VERTEX
8
0
10
52.335040625000005
20
2.0495062500000003
30
0
0
VERTEX
8
0
10
51.764965625
20
1.720371875
30
0
0
VERTEX
8
0
10
51.129128125
20
1.55
30
0
0
SEQEND
0
POLYLINE
66
1
8
16_copper
10
0.0
20
0.0
30
0.0
70
1
0
VERTEX
8
0
10
25.070868750000002
20
1.55
30
0
0
VERTEX
8
0
10
24.43503125
20
1.720371875
30
0
0
VERTEX
8
0
10
23.864956250000002
20
2.0495062500000003
30
0
0
VERTEX
8
0
10
23.39950625
20
2.51495625
30
0
0
VERTEX
8
0
10
23.070371875000003
20
3.08503125
30
0
0
VERTEX
8
0
10
22.900000000000002
20
3.72086875
30
0
0
VERTEX
8
0
10
22.900000000000002
20
4.379128125
30
0
0
VERTEX
8
0
10
23.070371875000003
20
5.014965625
30
0
0
VERTEX
8
0
10
23.39950625
20
5.585040625
30
0
0
VERTEX
8
0
10
23.864956250000002
20
6.050490625
30
0
0
VERTEX
8
0
10
24.43503125
20
6.379625
30
0
0
VERTEX
8
0
10
25.070868750000002
20
6.549996875000001
30
0
0
VERTEX
8
0
10
25.729128125000003
20
6.549996875000001
30
0
0
VERTEX
8
0
10
26.364965625
20
6.379625
30
0
0
VERTEX
8
0
10
26.935040625000003
20
6.050490625
30
0
0
VERTEX
8
0
10
27.400490625
20
5.585040625
30
0
0
VERTEX
8
0
10
27.729625000000002
20
5.014965625
30
0
0
VERTEX
8
0
10
27.899996875000003
20
4.379128125
30
0
0
VERTEX
8
0
10
27.899996875000003
20
3.72086875
30
0
0
VERTEX
8
0
10
27.729625000000002
20
3.08503125
30
0
0
VERTEX
8
0
10
27.400490625
20
2.51495625
30
0
0
VERTEX
8
0
10
26.935040625000003
20
2.0495062500000003
30
0
0
VERTEX
8
0
10
26.364965625
20
1.720371875
30
0
0
VERTEX
8
0
10
25.729128125000003
20
1.55
30
0
0
SEQEND
0
POLYLINE
66
1
8
16_copper
10
0.0
20
0.0
30
0.0
70
1
0
VERTEX
8
0
10
-63.960781250000004
20
-0.499996875
30
0
0
VERTEX
8
0
10
-64.85095
20
-0.261475
30
0
0
VERTEX
8
0
10
-65.64905625
20
0.19930625000000002
30
0
0
VERTEX
8
0
10
-66.300690625
20
0.850940625
30
0
0
VERTEX
8
0
10
-66.761475
20
1.649046875
30
0
0
VERTEX
8
0
10
-66.99999687500001
20
2.539215625
30
0
0
VERTEX
8
0
10
-66.99999687500001
20
3.46078125
30
0
0
VERTEX
8
0
10
-66.761475
20
4.35095
30
0
0
VERTEX
8
0
10
-66.300690625
20
5.14905625
30
0
0
VERTEX
8
0
10
-65.64905625
20
5.8006906250000005
30
0
0
VERTEX
8
0
10
-64.85095
20
6.261475
30
0
0
VERTEX
8
0
10
-63.960781250000004
20
6.499996875
30
0
0
VERTEX
8
0
10
-63.039215625000004
20
6.499996875
30
0
0
VERTEX
8
0
10
-62.149046875
20
6.261475
30
0
0
VERTEX
8
0
10
-61.350940625
20
5.8006906250000005
30
0
0
VERTEX
8
0
10
-60.69930625000001
20
5.14905625
30
0
0
VERTEX
8
0
10
-60.238521875
20
4.35095
30
0
0
VERTEX
8
0
10
-60
20
3.46078125
30
0
0
VERTEX
8
0
10
-60
20
2.539215625
30
0
0
VERTEX
8
0
10
-60.238521875
20
1.649046875
30
0
0
VERTEX
8
0
10
-60.69930625000001
20
0.850940625
30
0
0
VERTEX
8
0
10
-61.350940625
20
0.19930625000000002
30
0
0
VERTEX
8
0
10
-62.149046875
20
-0.261475
30
0
0
VERTEX
8
0
10
-63.039215625000004
20
-0.499996875
30
0
0
SEQEND
0
POLYLINE
66
1
8
16_copper
10
0.0
20
0.0
30
0.0
70
1
0
VERTEX
8
0
10
34.18228125
20
-1.099996875
30
0
0
VERTEX
8
0
10
33.476140625
20
-0.807503125
30
0
0
VERTEX
8
0
10
33.476128125
20
-0.807496875
30
0
0
VERTEX
8
0
10
33.410440625
20
-0.780290625
30
0
0
VERTEX
8
0
10
32.81970625
20
-0.18955625
30
0
0
VERTEX
8
0
10
32.5
20
0.58228125
30
0
0
VERTEX
8
0
10
32.5
20
2.617715625
30
0
0
VERTEX
8
0
10
32.81970625
20
3.38955625
30
0
0
VERTEX
8
0
10
33.410440625
20
3.9802906250000003
30
0
0
VERTEX
8
0
10
34.18228125
20
4.299996875000001
30
0
0
VERTEX
8
0
10
42.017715625
20
4.299996875000001
30
0
0
VERTEX
8
0
10
42.723856250000004
20
4.007503125
30
0
0
VERTEX
8
0
10
42.72386875
20
4.007496875
30
0
0
VERTEX
8
0
10
42.789556250000004
20
3.9802906250000003
30
0
0
VERTEX
8
0
10
43.380290625
20
3.38955625
30
0
0
VERTEX
8
0
10
43.699996875000004
20
2.617715625
30
0
0
VERTEX
8
0
10
43.699996875000004
20
0.58228125
30
0
0
VERTEX
8
0
10
43.380290625
20
-0.18955625
30
0
0
VERTEX
8
0
10
42.789556250000004
20
-0.780290625
30
0
0
VERTEX
8
0
10
42.017715625
20
-1.099996875
30
0
0
SEQEND
0
POLYLINE
66
1
8
16_copper
10
0.0
20
0.0
30
0.0
70
1
0
VERTEX
8
0
10
59.58228125
20
-1.099996875
30
0
0
VERTEX
8
0
10
58.876140625000005
20
-0.807503125
30
0
0
VERTEX
8
0
10
58.876128125
20
-0.807496875
30
0
0
VERTEX
8
0
10
58.810443750000005
20
-0.780290625
30
0
0
VERTEX
8
0
10
58.21970625
20
-0.18955312500000002
30
0
0
VERTEX
8
0
10
57.900000000000006
20
0.5822843750000001
30
0
0
VERTEX
8
0
10
57.900000000000006
20
2.617715625
30
0
0
VERTEX
8
0
10
58.21970625
20
3.38955625
30
0
0
VERTEX
8
0
10
58.810440625000005
20
3.9802906250000003
30
0
0
VERTEX
8
0
10
59.58228125
20
4.299996875000001
30
0
0
VERTEX
8
0
10
67.417715625
20
4.299996875000001
30
0
0
VERTEX
8
0
10
68.12385625
20
4.007503125
30
0
0
VERTEX
8
0
10
68.12386875
20
4.007496875
30
0
0
VERTEX
8
0
10
68.18955625000001
20
3.9802906250000003
30
0
0
VERTEX
8
0
10
68.780290625
20
3.38955625
30
0
0
VERTEX
8
0
10
69.099996875
20
2.617715625
30
0
0
VERTEX
8
0
10
69.099996875
20
0.58228125
30
0
0
VERTEX
8
0
10
68.780290625
20
-0.18955625
30
0
0
VERTEX
8
0
10
68.18955625000001
20
-0.780290625
30
0
0
VERTEX
8
0
10
67.417715625
20
-1.099996875
30
0
0
SEQEND
0
POLYLINE
66
1
8
16_copper
10
0.0
20
0.0
30
0.0
70
1
0
VERTEX
8
0
10
-45.268259375
20
-1.099996875
30
0
0
VERTEX
8
0
10
-45.732978125
20
-0.9075031250000001
30
0
0
VERTEX
8
0
10
-45.732984375
20
-0.9075000000000001
30
0
0
VERTEX
8
0
10
-45.732990625
20
-0.9075000000000001
30
0
0
VERTEX
8
0
10
-45.856331250000004
20
-0.856409375
30
0
0
VERTEX
8
0
10
-46.306409375
20
-0.40633125000000003
30
0
0
VERTEX
8
0
10
-46.549996875000005
20
0.1817375
30
0
0
VERTEX
8
0
10
-46.549996875000005
20
1.818259375
30
0
0
VERTEX
8
0
10
-46.306409375
20
2.40633125
30
0
0
VERTEX
8
0
10
-45.856331250000004
20
2.856409375
30
0
0
VERTEX
8
0
10
-45.268259375
20
3.099996875
30
0
0
VERTEX
8
0
10
-30.9317375
20
3.099996875
30
0
0
VERTEX
8
0
10
-30.46701875
20
2.9075031250000003
30
0
0
VERTEX
8
0
10
-30.467012500000003
20
2.9075
30
0
0
VERTEX
8
0
10
-30.46700625
20
2.9075
30
0
0
VERTEX
8
0
10
-30.343665625
20
2.856409375
30
0
0
VERTEX
8
0
10
-29.893587500000002
20
2.40633125
30
0
0
VERTEX
8
0
10
-29.650000000000002
20
1.818259375
30
0
0
VERTEX
8
0
10
-29.650000000000002
20
0.1817375
30
0
0
VERTEX
8
0
10
-29.893584375000003
20
-0.406325
30
0
0
VERTEX
8
0
10
-30.343671875000002
20
-0.8564125
30
0
0
VERTEX
8
0
10
-30.9317375
20
-1.099996875
30
0
0
SEQEND
0
POLYLINE
66
1
8
16_copper
10
0.0
20
0.0
30
0.0
70
1
0
VERTEX
8
0
10
75.12972500000001
20
-6.449996875
30
0
0
VERTEX
8
0
10
74.321128125
20
-6.115065625000001
30
0
0
VERTEX
8
0
10
73.70226562500001
20
-5.496203125
30
0
0
VERTEX
8
0
10
73.367334375
20
-4.68760625
30
0
0
VERTEX
8
0
10
73.367334375
20
-3.8123906250000004
30
0
0
VERTEX
8
0
10
73.70226562500001
20
-3.0037937500000003
30
0
0
VERTEX
8
0
10
74.321128125
20
-2.38493125
30
0
0
VERTEX
8
0
10
75.12972500000001
20
-2.0500000000000003
30
0
0
VERTEX
8
0
10
76.004940625
20
-2.0500000000000003
30
0
0
VERTEX
8
0
10
76.59038125000001
20
-2.2924968750000003
30
0
0
VERTEX
8
0
10
76.5903875
20
-2.2925
30
0
0
VERTEX
8
0
10
76.59039375
20
-2.2925
30
0
0
VERTEX
8
0
10
76.81353750000001
20
-2.38493125
30
0
0
VERTEX
8
0
10
77.4324
20
-3.0037937500000003
30
0
0
VERTEX
8
0
10
77.76733125
20
-3.8123906250000004
30
0
0
VERTEX
8
0
10
77.76733125
20
-4.68760625
30
0
0
VERTEX
8
0
10
77.4324
20
-5.496203125
30
0
0
VERTEX
8
0
10
76.81353750000001
20
-6.115065625000001
30
0
0
VERTEX
8
0
10
76.004940625
20
-6.449996875
30
0
0
SEQEND
0
POLYLINE
66
1
8
16_copper
10
0.0
20
0.0
30
0.0
70
1
0
VERTEX
8
0
10
-75.97027187500001
20
-6.449996875
30
0
0
VERTEX
8
0
10
-76.77886875
20
-6.115065625000001
30
0
0
VERTEX
8
0
10
-77.39773125
20
-5.496203125
30
0
0
VERTEX
8
0
10
-77.7326625
20
-4.68760625
30
0
0
VERTEX
8
0
10
-77.7326625
20
-3.8123906250000004
30
0
0
VERTEX
8
0
10
-77.39773125
20
-3.0037937500000003
30
0
0
VERTEX
8
0
10
-76.77886875
20
-2.38493125
30
0
0
VERTEX
8
0
10
-75.97027187500001
20
-2.0500000000000003
30
0
0
VERTEX
8
0
10
-75.09505625
20
-2.0500000000000003
30
0
0
VERTEX
8
0
10
-74.50961562500001
20
-2.2924968750000003
30
0
0
VERTEX
8
0
10
-74.509609375
20
-2.2925
30
0
0
VERTEX
8
0
10
-74.509603125
20
-2.2925
30
0
0
VERTEX
8
0
10
-74.286459375
20
-2.38493125
30
0
0
VERTEX
8
0
10
-73.667596875
20
-3.0037937500000003
30
0
0
VERTEX
8
0
10
-73.332665625
20
-3.8123906250000004
30
0
0
VERTEX
8
0
10
-73.332665625
20
-4.68760625
30
0
0
VERTEX
8
0
10
-73.667596875
20
-5.496203125
30
0
0
VERTEX
8
0
10
-74.286459375
20
-6.115065625000001
30
0
0
VERTEX
8
0
10
-75.09505625
20
-6.449996875
30
0
0
SEQEND
0
POLYLINE
66
1
8
16_copper
10
0.0
20
0.0
30
0.0
70
1
0
VERTEX
8
0
10
1.692925
20
-5.502146875
30
0
0
VERTEX
8
0
10
1.692825
20
-5.502153125
30
0
0
VERTEX
8
0
10
1.6927
20
-5.5021281250000005
30
0
0
VERTEX
8
0
10
1.6787500000000002
20
-5.502146875
30
0
0
VERTEX
8
0
10
1.602646875
20
-5.50755625
30
0
0
VERTEX
8
0
10
1.5695125
20
-5.4965093750000005
30
0
0
VERTEX
8
0
10
1.564034375
20
-5.495418750000001
30
0
0
VERTEX
8
0
10
1.5587875
20
-5.4935875
30
0
0
VERTEX
8
0
10
1.5450937500000002
20
-5.491643750000001
30
0
0
VERTEX
8
0
10
1.5450406250000002
20
-5.491634375
30
0
0
VERTEX
8
0
10
1.545025
20
-5.491634375
30
0
0
VERTEX
8
0
10
1.544975
20
-5.491628125
30
0
0
VERTEX
8
0
10
1.5101375000000001
20
-5.4891531250000005
30
0
0
VERTEX
8
0
10
1.441909375
20
-5.4550375
30
0
0
VERTEX
8
0
10
1.4418
20
-5.455
30
0
0
VERTEX
8
0
10
1.441703125
20
-5.454934375000001
30
0
0
VERTEX
8
0
10
1.4288093750000002
20
-5.4496093750000005
30
0
0
VERTEX
8
0
10
1.35641875
20
-5.425481250000001
30
0
0
VERTEX
8
0
10
1.3300375
20
-5.4026000000000005
30
0
0
VERTEX
8
0
10
1.325415625
20
-5.399509375
30
0
0
VERTEX
8
0
10
1.32125
20
-5.39579375
30
0
0
VERTEX
8
0
10
1.30936875
20
-5.388778125
30
0
0
VERTEX
8
0
10
1.309296875
20
-5.38873125
30
0
0
VERTEX
8
0
10
1.309271875
20
-5.388721875
30
0
0
VERTEX
8
0
10
1.3092343750000002
20
-5.3887
30
0
0
VERTEX
8
0
10
1.2780093750000001
20
-5.3730875000000005
30
0
0
VERTEX
8
0
10
1.2280250000000001
20
-5.315453125
30
0
0
VERTEX
8
0
10
1.227934375
20
-5.315371875
30
0
0
VERTEX
8
0
10
1.2278718750000002
20
-5.315278125
30
0
0
VERTEX
8
0
10
1.21799375
20
-5.3054250000000005
30
0
0
VERTEX
8
0
10
1.160346875
20
-5.25543125
30
0
0
VERTEX
8
0
10
1.14473125
20
-5.2241968750000005
30
0
0
VERTEX
8
0
10
1.1416375
20
-5.2195625
30
0
0
VERTEX
8
0
10
1.1392125
20
-5.214540625000001
30
0
0
VERTEX
8
0
10
1.130940625
20
-5.203534375
30
0
0
VERTEX
8
0
10
1.130878125
20
-5.20344375
30
0
0
VERTEX
8
0
10
1.130853125
20
-5.203421875
30
0
0
VERTEX
8
0
10
1.130828125
20
-5.2033875
30
0
0
VERTEX
8
0
10
1.107953125
20
-5.177015625
30
0
0
VERTEX
8
0
10
1.0982156250000001
20
-5.147803125
30
0
42
0.5258420900350091
0
VERTEX
8
0
10
0.9398968750000001
20
-5.102134375
30
0
0
VERTEX
8
0
10
0.9365375
20
-5.105309375
30
0
42
0.009694029426511281
0
VERTEX
8
0
10
0.933725
20
-5.107965625
30
0
0
VERTEX
8
0
10
0.9297562500000001
20
-5.111715625
30
0
0
VERTEX
8
0
10
0.72773125
20
-5.33129375
30
0
0
VERTEX
8
0
10
0.3432625
20
-5.499996875
30
0
0
VERTEX
8
0
10
-0.0765875
20
-5.499996875
30
0
0
VERTEX
8
0
10
-0.46105937500000005
20
-5.331290625
30
0
0
VERTEX
8
0
10
-0.49626562500000004
20
-5.293025
30
0
42
0.38579258606721245
0
VERTEX
8
0
10
-0.6300375
20
-5.280868750000001
30
0
0
VERTEX
8
0
10
-0.63145625
20
-5.282103125
30
0
0
VERTEX
8
0
10
-0.632265625
20
-5.282596875
30
0
0
VERTEX
8
0
10
-0.63358125
20
-5.283946875
30
0
0
VERTEX
8
0
10
-0.64056875
20
-5.290021875
30
0
0
VERTEX
8
0
10
-0.75121875
20
-5.400675000000001
30
0
0
VERTEX
8
0
10
-0.991
20
-5.499996875
30
0
0
VERTEX
8
0
10
-2.192321875
20
-5.499996875
30
0
0
VERTEX
8
0
10
-2.432109375
20
-5.4006718750000005
30
0
0
VERTEX
8
0
10
-2.615621875
20
-5.2171593750000005
30
0
0
VERTEX
8
0
10
-2.7149468750000003
20
-4.977371875
30
0
0
VERTEX
8
0
10
-2.7149468750000003
20
-4.717825
30
0
0
VERTEX
8
0
10
-2.615621875
20
-4.4780375
30
0
0
VERTEX
8
0
10
-2.432109375
20
-4.294525
30
0
0
VERTEX
8
0
10
-2.305790625
20
-4.2422031250000005
30
0
0
VERTEX
8
0
10
-2.304140625
20
-4.2412625
30
0
0
VERTEX
8
0
10
-2.302325
20
-4.240690625
30
0
42
0.25551175558135103
0
VERTEX
8
0
10
-2.2450312500000003
20
-4.163734375
30
0
0
VERTEX
8
0
10
-2.244059375
20
-4.1498156250000005
30
0
0
VERTEX
8
0
10
-2.244059375
20
-3.19406875
30
0
0
VERTEX
8
0
10
-2.2442968750000003
20
-3.1921875
30
0
0
VERTEX
8
0
10
-2.2446718750000003
20
-3.183025
30
0
0
VERTEX
8
0
10
-2.2544
20
-3.09546875
30
0
0
VERTEX
8
0
10
-2.248009375
20
-3.073415625
30
0
0
VERTEX
8
0
10
-2.246896875
20
-3.066384375
30
0
0
VERTEX
8
0
10
-2.2450312500000003
20
-3.059503125
30
0
0
VERTEX
8
0
10
-2.24441875
20
-3.0507218750000002
30
0
0
VERTEX
8
0
10
-2.2441093750000003
20
-3.0487718750000004
30
0
0
VERTEX
8
0
10
-2.244209375
20
-3.047715625
30
0
0
VERTEX
8
0
10
-2.244059375
20
-3.0455843750000002
30
0
0
VERTEX
8
0
10
-2.244059375
20
-3.022625
30
0
0
VERTEX
8
0
10
-2.210346875
20
-2.9412406250000003
30
0
0
VERTEX
8
0
10
-2.20984375
20
-2.9394093750000003
30
0
0
VERTEX
8
0
10
-2.206684375
20
-2.930803125
30
0
0
VERTEX
8
0
10
-2.1821625
20
-2.8461781250000002
30
0
0
VERTEX
8
0
10
-2.167825
20
-2.82825625
30
0
0
VERTEX
8
0
10
-2.1641
20
-2.8221812500000003
30
0
0
VERTEX
8
0
10
-2.159740625
20
-2.81653125
30
0
0
VERTEX
8
0
10
-2.15581875
20
-2.808665625
30
0
0
VERTEX
8
0
10
-2.1547875000000003
20
-2.80698125
30
0
0
VERTEX
8
0
10
-2.154475
20
-2.8059656250000002
30
0
0
VERTEX
8
0
10
-2.1535156250000003
20
-2.80404375
30
0
0
VERTEX
8
0
10
-2.144734375
20
-2.782840625
30
0
0
VERTEX
8
0
10
-2.0824375
20
-2.720546875
30
0
0
VERTEX
8
0
10
-2.08126875
20
-2.71904375
30
0
0
VERTEX
8
0
10
-2.075059375
20
-2.712303125
30
0
0
VERTEX
8
0
10
-2.02003125
20
-2.643515625
30
0
0
VERTEX
8
0
10
-1.9999250000000002
20
-2.63244375
30
0
0
VERTEX
8
0
10
-1.9941718750000001
20
-2.6282625
30
0
0
VERTEX
8
0
10
-1.98798125
20
-2.6247125000000002
30
0
0
VERTEX
8
0
10
-1.9813437500000002
20
-2.618940625
30
0
0
VERTEX
8
0
10
-1.979740625
20
-2.617775
30
0
0
VERTEX
8
0
10
-1.979059375
20
-2.616953125
30
0
0
VERTEX
8
0
10
-1.977453125
20
-2.61555625
30
0
0
VERTEX
8
0
10
-1.9612218750000001
20
-2.5993250000000003
30
0
0
VERTEX
8
0
10
-1.87981875
20
-2.56560625
30
0
0
VERTEX
8
0
10
-1.8781562500000002
20
-2.564659375
30
0
0
VERTEX
8
0
10
-1.86985
20
-2.560815625
30
0
0
VERTEX
8
0
10
-1.7926781250000001
20
-2.51831875
30
0
0
VERTEX
8
0
10
-1.769865625
20
-2.515784375
30
0
0
VERTEX
8
0
10
-1.76294375
20
-2.5141218750000003
30
0
0
VERTEX
8
0
10
-1.7558718750000002
20
-2.5132125000000003
30
0
0
VERTEX
8
0
10
-1.7475375000000002
20
-2.510421875
30
0
0
VERTEX
8
0
10
-1.74560625
20
-2.509959375
30
0
0
VERTEX
8
0
10
-1.7446625
20
-2.5094625
30
0
0
VERTEX
8
0
10
-1.7426406250000002
20
-2.5087843750000003
30
0
0
VERTEX
8
0
10
-1.721434375
20
-2.5
30
0
0
VERTEX
8
0
10
-1.6333312500000001
20
-2.5
30
0
0
VERTEX
8
0
10
-1.63145
20
-2.4997625
30
0
0
VERTEX
8
0
10
-1.6222875
20
-2.4993875
30
0
0
VERTEX
8
0
10
-1.53473125
20
-2.489659375
30
0
0
VERTEX
8
0
10
-1.512678125
20
-2.4960500000000003
30
0
0
VERTEX
8
0
10
-1.505646875
20
-2.4971625
30
0
0
VERTEX
8
0
10
-1.498765625
20
-2.499028125
30
0
0
VERTEX
8
0
10
-1.4899843750000001
20
-2.499640625
30
0
0
VERTEX
8
0
10
-1.488034375
20
-2.49995
30
0
0
VERTEX
8
0
10
-1.486978125
20
-2.49985
30
0
0
VERTEX
8
0
10
-1.4848468750000001
20
-2.5
30
0
0
VERTEX
8
0
10
-1.4618875
20
-2.5
30
0
0
VERTEX
8
0
10
-1.3805031250000002
20
-2.5337125
30
0
0
VERTEX
8
0
10
-1.378671875
20
-2.5342156250000003
30
0
0
VERTEX
8
0
10
-1.370065625
20
-2.537375
30
0
0
VERTEX
8
0
10
-1.2854375
20
-2.561896875
30
0
0
VERTEX
8
0
10
-1.2675125
20
-2.5762375
30
0
0
VERTEX
8
0
10
-1.2614375
20
-2.579959375
30
0
0
VERTEX
8
0
10
-1.25579375
20
-2.5843156250000003
30
0
0
VERTEX
8
0
10
-1.247925
20
-2.5882375
30
0
0
VERTEX
8
0
10
-1.2462375
20
-2.589271875
30
0
0
VERTEX
8
0
10
-1.2452218750000001
20
-2.5895843750000003
30
0
0
VERTEX
8
0
10
-1.24330625
20
-2.590540625
30
0
0
VERTEX
8
0
10
-1.238596875
20
-2.592490625
30
0
0
VERTEX
8
0
10
-1.23858125
20
-2.5925000000000002
30
0
0
VERTEX
8
0
10
-1.2385656250000001
20
-2.592503125
30
0
0
VERTEX
8
0
10
-1.222109375
20
-2.5993218750000002
30
0
0
VERTEX
8
0
10
-1.1598187500000001
20
-2.6616125
30
0
0
VERTEX
8
0
10
-1.158315625
20
-2.66278125
30
0
0
VERTEX
8
0
10
-1.151575
20
-2.668990625
30
0
0
VERTEX
8
0
10
-0.8268468750000001
20
-2.928778125
30
0
0
VERTEX
8
0
10
-0.8220937500000001
20
-2.9316906250000003
30
0
0
VERTEX
8
0
10
-0.8177875
20
-2.9352343750000003
30
0
42
0.3233073820821304
0
VERTEX
8
0
10
-0.700928125
20
-2.92798125
30
0
0
VERTEX
8
0
10
-0.69093125
20
-2.918534375
30
0
0
VERTEX
8
0
10
-0.690840625
20
-2.91845625
30
0
0
VERTEX
8
0
10
-0.690821875
20
-2.918428125
30
0
0
VERTEX
8
0
10
-0.6907875
20
-2.918396875
30
0
0
VERTEX
8
0
10
-0.46106562500000003
20
-2.6687125000000003
30
0
0
VERTEX
8
0
10
-0.07659062500000001
20
-2.5
30
0
0
VERTEX
8
0
10
0.343265625
20
-2.5
30
0
0
VERTEX
8
0
10
0.727734375
20
-2.668709375
30
0
0
VERTEX
8
0
10
1.0120125
20
-2.9776875
30
0
0
VERTEX
8
0
10
1.02635625
20
-3.0195281250000003
30
0
42
0.37145490469542214
0
VERTEX
8
0
10
1.1390625
20
-3.08544375
30
0
0
VERTEX
8
0
10
1.144659375
20
-3.084003125
30
0
0
VERTEX
8
0
10
1.1467031250000002
20
-3.0837250000000003
30
0
0
VERTEX
8
0
10
1.148371875
20
-3.083046875
30
0
0
VERTEX
8
0
10
1.1525750000000001
20
-3.081965625
30
0
0
VERTEX
8
0
10
1.2259312500000001
20
-3.057509375
30
0
0
VERTEX
8
0
10
1.48480625
20
-3.075909375
30
0
0
VERTEX
8
0
10
1.6411125
20
-3.1540625
30
0
0
VERTEX
8
0
10
1.64288125
20
-3.154684375
30
0
0
VERTEX
8
0
10
1.6444687500000001
20
-3.1556625
30
0
42
0.18985244411246177
0
VERTEX
8
0
10
1.7176718750000002
20
-3.1594156250000003
30
0
0
VERTEX
8
0
10
1.73055625
20
-3.154059375
30
0
0
VERTEX
8
0
10
1.886853125
20
-3.075909375
30
0
0
VERTEX
8
0
10
2.1457375
20
-3.057509375
30
0
0
VERTEX
8
0
10
2.3919625
20
-3.139584375
30
0
0
VERTEX
8
0
10
2.5880312500000002
20
-3.3096343750000004
30
0
0
VERTEX
8
0
10
2.704103125
20
-3.54178125
30
0
0
VERTEX
8
0
10
2.7225031250000002
20
-3.8006593750000004
30
0
0
VERTEX
8
0
10
2.699878125
20
-3.868528125
30
0
0
VERTEX
8
0
10
2.699871875
20
-3.86854375
30
0
0
VERTEX
8
0
10
2.6998687500000003
20
-3.8685593750000002
30
0
0
VERTEX
8
0
10
2.6665468750000003
20
-3.968521875
30
0
0
VERTEX
8
0
10
2.6665375
20
-3.9685437500000003
30
0
0
VERTEX
8
0
10
2.6665343750000003
20
-3.968565625
30
0
0
VERTEX
8
0
10
2.599878125
20
-4.168528125
30
0
0
VERTEX
8
0
10
2.5998718750000003
20
-4.16854375
30
0
0
VERTEX
8
0
10
2.59986875
20
-4.168559375
30
0
0
VERTEX
8
0
10
2.5665468750000002
20
-4.268521875
30
0
0
VERTEX
8
0
10
2.5665375
20
-4.26854375
30
0
0
VERTEX
8
0
10
2.5665343750000003
20
-4.268565625
30
0
0
VERTEX
8
0
10
2.499878125
20
-4.468528125000001
30
0
0
VERTEX
8
0
10
2.499871875
20
-4.46854375
30
0
0
VERTEX
8
0
10
2.49986875
20
-4.468559375
30
0
0
VERTEX
8
0
10
2.466546875
20
-4.568521875
30
0
0
VERTEX
8
0
10
2.4665375000000003
20
-4.56854375
30
0
0
VERTEX
8
0
10
2.466534375
20
-4.568565625000001
30
0
0
VERTEX
8
0
10
2.3998781250000003
20
-4.7685281250000005
30
0
0
VERTEX
8
0
10
2.399871875
20
-4.76854375
30
0
0
VERTEX
8
0
10
2.39986875
20
-4.768559375000001
30
0
0
VERTEX
8
0
10
2.366546875
20
-4.868521875
30
0
0
VERTEX
8
0
10
2.3665375
20
-4.868543750000001
30
0
0
VERTEX
8
0
10
2.366534375
20
-4.8685656250000005
30
0
0
VERTEX
8
0
10
2.334746875
20
-4.963925000000001
30
0
0
VERTEX
8
0
10
2.33365625
20
-4.969396875
30
0
0
VERTEX
8
0
10
2.3318250000000003
20
-4.974646875
30
0
0
VERTEX
8
0
10
2.32988125
20
-4.988340625
30
0
0
VERTEX
8
0
10
2.3298718750000003
20
-4.98839375
30
0
0
VERTEX
8
0
10
2.3298718750000003
20
-4.988409375
30
0
0
VERTEX
8
0
10
2.329865625
20
-4.988459375000001
30
0
0
VERTEX
8
0
10
2.327390625
20
-5.023296875000001
30
0
0
VERTEX
8
0
10
2.293275
20
-5.091525
30
0
0
VERTEX
8
0
10
2.2932375
20
-5.091634375
30
0
0
VERTEX
8
0
10
2.293171875
20
-5.0917312500000005
30
0
0
VERTEX
8
0
10
2.287846875
20
-5.104625
30
0
0
VERTEX
8
0
10
2.2637187500000002
20
-5.177015625
30
0
0
VERTEX
8
0
10
2.2408375
20
-5.203396875
30
0
42
0.02105014563114277
0
VERTEX
8
0
10
2.23403125
20
-5.2121843750000005
30
0
0
VERTEX
8
0
10
2.227015625
20
-5.224065625000001
30
0
0
VERTEX
8
0
10
2.22696875
20
-5.2241375
30
0
0
VERTEX
8
0
10
2.2269593750000003
20
-5.2241625
30
0
0
VERTEX
8
0
10
2.2269375
20
-5.224200000000001
30
0
0
VERTEX
8
0
10
2.211325
20
-5.255425000000001
30
0
0
VERTEX
8
0
10
2.1536906250000003
20
-5.305409375
30
0
0
VERTEX
8
0
10
2.1536093750000003
20
-5.3055
30
0
0
VERTEX
8
0
10
2.1535156250000003
20
-5.305562500000001
30
0
0
VERTEX
8
0
10
2.1436625
20
-5.315440625
30
0
0
VERTEX
8
0
10
2.09366875
20
-5.3730875000000005
30
0
0
VERTEX
8
0
10
2.062434375
20
-5.388703125
30
0
0
VERTEX
8
0
10
2.0578000000000003
20
-5.391796875
30
0
0
VERTEX
8
0
10
2.052778125
20
-5.394221875
30
0
0
VERTEX
8
0
10
2.0417718750000002
20
-5.4024937500000005
30
0
0
VERTEX
8
0
10
2.04168125
20
-5.40255625
30
0
0
VERTEX
8
0
10
2.041659375
20
-5.40258125
30
0
0
VERTEX
8
0
10
2.0416250000000002
20
-5.40260625
30
0
0
VERTEX
8
0
10
2.015253125
20
-5.425481250000001
30
0
0
VERTEX
8
0
10
1.942871875
20
-5.44960625
30
0
0
VERTEX
8
0
10
1.9427750000000001
20
-5.449653125
30
0
0
VERTEX
8
0
10
1.94265
20
-5.449678125
30
0
0
VERTEX
8
0
10
1.9297656250000002
20
-5.455034375
30
0
0
VERTEX
8
0
10
1.86153125
20
-5.4891531250000005
30
0
0
VERTEX
8
0
10
1.8267
20
-5.491628125
30
0
0
VERTEX
8
0
10
1.82123125
20
-5.492715625000001
30
0
0
VERTEX
8
0
10
1.8156750000000001
20
-5.4930312500000005
30
0
0
VERTEX
8
0
10
1.8023125
20
-5.496471875
30
0
0
VERTEX
8
0
10
1.802228125
20
-5.496487500000001
30
0
0
VERTEX
8
0
10
1.80220625
20
-5.496496875
30
0
0
VERTEX
8
0
10
1.8021625000000001
20
-5.4965093750000005
30
0
0
VERTEX
8
0
10
1.7690281250000002
20
-5.50755625
30
0
0
SEQEND
0
CIRCLE
8
drills_NPTH
10
-63.5
20
3
30
0
40
3
0
CIRCLE
8
drills_NPTH
10
25.400000000000002
20
4.05
30
0
40
2
0
CIRCLE
8
drills_NPTH
10
50.800000000000004
20
4.05
30
0
40
2
0
CIRCLE
8
drills_NPTH
10
-75.532665625
20
29.25
30
0
40
1.7000000000000002
0
CIRCLE
8
drills_NPTH
10
75.567334375
20
29.25
30
0
40
1.7000000000000002
0
CIRCLE
8
drills_NPTH
10
75.567334375
20
-4.25
30
0
40
1.7000000000000002
0
CIRCLE
8
drills_NPTH
10
-75.532665625
20
-4.25
30
0
40
1.7000000000000002
0
CIRCLE
8
drills_via_1_16
10
0
20
0
30
0
40
0.15
0
ENDSEC
0
EOF