M48
;GenerationSoftware,Autodesk,EAGLE,9.6.2*%
;CreationDate,2022-11-23T18:02:38Z*%
FMAT,2
ICI,OFF
METRIC,TZ,000.000
T12C0.300
T11C0.400
T10C0.650
T9C0.900
T8C0.950
T7C1.000
T6C1.016
T5C1.200
T4C1.400
T3C1.700
T2C3.048
T1C3.250
%
G90
M71
T1
X24765Y92202
X13335Y92202
T2
X65405Y10160
X149860Y2540
X149860Y99060
X2540Y99060
X66040Y40640
X86995Y10160
X86360Y20320
X2540Y2540
X86360Y40640
X66040Y20320
T3
X26925Y89152
X11175Y89152
T4
X65560Y94990
X69060Y94990
X58560Y94990
X72560Y94990
X51560Y94990
X76060Y94990
X79560Y94990
X83060Y94990
X62060Y94990
X55060Y94990
T5
X130500Y8088
X105100Y8088
X98100Y8088
X123500Y8088
T6
X7620Y77470
X7620Y80010
X43180Y43180
X40640Y43180
X10160Y77470
X10160Y80010
T7
X41150Y2032
X11430Y5635
X129250Y5588
X33150Y2032
X99350Y5588
X124750Y5588
X13970Y5635
X103850Y5588
T8
X102870Y66040
X105410Y67310
X38100Y16510
X33020Y16510
X36830Y19050
X31750Y19050
X40640Y16510
X39370Y19050
X35560Y16510
X30543Y16510
X52070Y49530
X102870Y68580
X146050Y60960
X78740Y77470
X102870Y63500
X68580Y49530
X68580Y55880
X105410Y74930
X102870Y76200
X48260Y69850
X40640Y36830
X38100Y36830
X137160Y68580
X134620Y68580
X134620Y82550
X120650Y80010
X120650Y74930
X102870Y78740
X102870Y71120
X102870Y73660
X95250Y55880
X95250Y46990
X119380Y82550
X115570Y50800
X115570Y54610
X34290Y43180
X40640Y49530
X101600Y24130
X101600Y16510
X78740Y67310
X78740Y73660
X78740Y69850
X78740Y64770
X34290Y19050
T9
X15875Y85852
X17145Y83312
X18415Y85852
X23140Y96262
X12420Y96262
X20955Y85852
X22225Y83312
X23495Y85852
X25680Y96262
X14960Y96262
X13335Y85852
X19685Y83312
X24765Y83312
X14605Y83312
T10
X111410Y4905
X117190Y4905
X136810Y4905
X142590Y4905
X40990Y96695
X35210Y96695
T11
X109982Y1255
X118618Y1255
X135382Y5435
X144018Y5435
X144018Y1255
X135382Y1255
X109982Y5435
X118618Y5435
X42418Y100345
X33782Y96165
X42418Y96165
X33782Y100345
T12
X26670Y59690
X27305Y69215
X27305Y67945
X27305Y66675
X27305Y65405
X27305Y64135
X27305Y62865
X28575Y62865
X28575Y64135
X28575Y65405
X28575Y66675
X28575Y67945
X28575Y69215
X27305Y61595
X28575Y61595
X28575Y60325
X27305Y60325
X17780Y45720
X19050Y45720
X20320Y45720
X20955Y45085
X19685Y45085
X18415Y45085
X18415Y46355
X19685Y46355
X20955Y46355
X20320Y46990
X19050Y46990
X17780Y46990
X17145Y46355
X17145Y45085
X20955Y41275
X19685Y41275
X18415Y41275
X17145Y41275
X15875Y41275
X15875Y42545
X15875Y43815
X15875Y45085
X15875Y46355
X16510Y45720
X16510Y46990
X15240Y45720
X15240Y46990
X15240Y44450
X15240Y43180
X15240Y41910
X15240Y40640
X16510Y40640
X17780Y40640
X19050Y40640
X20320Y40640
X20955Y40005
X19685Y40005
X18415Y40005
X17145Y40005
X15875Y40005
X15240Y39370
X16510Y39370
X17780Y39370
X19050Y39370
X20320Y39370
X33020Y57150
X35560Y57150
X45720Y57150
X48260Y57150
X34290Y57150
X46990Y57150
X24130Y49784
X24130Y50927
X24130Y48387
X24130Y47625
X24130Y45847
X92710Y96520
X97790Y96520
X92710Y93980
X97790Y93980
X97790Y91440
X92710Y91440
X92710Y88900
X97790Y88900
X97790Y86995
X95250Y86995
X92710Y86995
X111760Y3810
X116840Y4064
X39370Y82550
X43180Y82550
X54610Y72390
X53340Y72390
X52070Y72390
X49530Y64770
X53340Y64770
X57150Y64770
X59055Y64770
X55245Y64770
X51435Y64770
X43180Y71120
X43180Y69215
X43180Y73025
X64770Y73660
X64770Y71755
X70739Y76200
X57150Y74168
X73660Y81280
X73660Y83185
X73660Y71755
X38100Y71120
X38100Y77470
X73660Y77470
X97790Y80010
X101600Y81280
X100330Y81280
X99060Y81280
X97790Y81280
X83820Y80010
X83820Y81280
X82550Y81280
X81280Y81280
X80010Y81280
X85090Y63500
X83820Y63500
X83820Y60960
X83820Y62230
X87630Y76200
X88900Y76200
X90170Y76200
X91440Y76200
X92710Y74930
X92710Y73660
X92710Y69850
X116840Y77978
X120650Y85090
X119380Y87630
X115570Y87630
X109855Y95250
X109855Y92710
X120015Y96520
X120015Y95250
X120015Y93980
X120015Y92710
X115570Y93980
X115570Y95250
X114935Y96520
X131445Y78740
X131445Y74930
X124460Y76200
X125730Y80645
X123190Y71120
X135255Y75057
X107950Y16510
X109220Y29210
X111125Y29210
X34798Y13970
X29210Y12700
X29210Y1270
X46990Y1270
X46990Y12700
X50800Y21590
X49276Y24130
X50800Y29210
X35560Y22225
X31750Y26670
X34290Y29210
X34290Y31750
X86360Y49530
X93345Y48260
X97790Y43180
X57150Y46990
X53340Y57150
X57150Y57150
X55245Y57150
X31115Y40005
X78740Y12700
X78740Y11430
X97790Y40640
X97790Y39370
X107315Y17272
X136398Y49530
X130810Y49530
X146050Y58420
X136525Y78740
X120650Y91440
X120650Y90170
X29210Y74930
X38100Y84455
X49530Y85090
X64770Y46990
X66675Y46990
X64770Y52070
X66675Y52070
X60960Y49530
X60960Y54610
X52070Y73660
X52070Y77470
X57150Y83820
X26670Y80645
X38100Y81280
X33020Y76200
X49530Y27305
X95250Y52070
X105410Y76835
X136271Y67310
X132080Y49530
X135255Y49530
X137414Y49530
X86360Y54610
X107315Y72390
X107315Y70485
X107315Y68580
X107442Y78740
X78740Y83820
X78740Y82550
X73660Y79375
X78740Y75565
X134620Y73025
X137160Y73025
X107950Y25400
X112395Y25400
X39370Y31750
X39370Y29210
X99060Y52070
X29210Y69850
X59690Y52070
X58420Y52070
X114300Y13970
X116840Y7620
X111760Y7620
X110490Y8890
X118110Y8890
X39370Y35560
X113513Y7620
X114587Y7620
X109347Y75057
X109982Y76200
X111125Y21717
X112395Y21717
X146050Y59436
X38735Y24638
X100330Y22225
X57150Y20320
X57150Y25654
X69850Y66040
X57150Y30480
X77470Y62230
X69850Y62230
X102870Y18415
X105410Y18415
X105410Y63500
X51816Y85598
X53848Y85344
X55880Y85598
X60071Y73660
X60071Y71755
X43688Y67310
X64770Y57150
X62230Y57150
X47625Y30480
X47625Y27305
X47625Y23495
X37148Y13970
X76708Y13970
X92710Y43180
X37148Y14732
X35560Y93980
X35560Y92710
X40640Y93980
X40640Y92710
X40640Y50800
X34290Y23130
X39370Y23622
X39370Y25146
X73025Y51435
X110490Y82042
X110490Y73660
X101346Y73660
X107851Y73660
X107950Y48260
X109855Y82550
X109855Y77470
X102870Y77470
X108331Y77470
X108331Y55880
X94488Y49530
X127635Y90170
X126365Y90170
X125095Y90170
X125730Y89535
X125095Y88900
X125095Y87630
X125095Y86360
X125095Y85090
X125095Y83820
X125095Y82550
X126365Y88900
X127635Y88900
X126365Y87630
X127635Y87630
X127635Y86360
X126365Y86360
X126365Y85090
X127635Y85090
X127635Y83820
X126365Y83820
X126365Y82550
X127635Y82550
X125730Y88265
X125730Y86995
X125730Y85725
X125730Y84455
X125730Y83185
X127000Y83185
X127000Y84455
X127000Y85725
X127000Y86995
X127000Y88265
X127000Y89535
X127000Y90805
X125730Y90805
X125730Y81915
X127000Y81915
X53340Y50800
X111760Y88900
X110490Y87630
X109220Y86360
X127508Y78740
X127508Y74930
X39370Y22225
X74930Y60325
X34290Y23876
X72390Y62865
X41910Y29210
X71120Y58420
X34290Y25400
X41910Y27305
X75565Y63500
X37084Y22070
X74295Y59690
X36195Y26670
X71755Y59055
X40640Y21590
X34290Y24638
X59690Y78740
X80010Y68580
X146050Y53340
X114808Y67945
X114427Y53340
X60833Y79756
X146050Y50800
X113665Y73025
X113665Y50800
X60325Y80264
X146050Y52070
X108839Y78077
X108839Y52705
X61341Y79248
X146050Y54610
X114300Y71120
X114300Y57150
X111633Y84074
X111633Y66167
X110998Y84559
X110998Y67056
X40005Y24638
X73660Y66040
X61849Y78260
X146050Y57150
X137160Y7620
X135890Y8890
X142240Y7620
X139700Y13970
X143510Y8890
X41910Y36830
X146050Y55880
X77470Y60960
X71120Y60960
X71120Y66040
X39370Y80010
X43180Y80010
X39370Y81280
X43180Y81280
X33020Y80645
X33020Y78740
X48260Y72644
X48260Y74168
X48260Y76200
X49530Y80010
X38100Y82550
X52959Y80518
X53848Y80518
X54737Y80518
X139700Y8890
X43434Y78486
X39370Y72644
X43434Y76520
X33020Y69215
X11430Y69850
X10160Y69850
X9525Y69215
X10160Y68580
X11430Y68580
X11430Y67310
X11430Y66040
X10795Y65405
X10160Y66040
X9525Y65405
X10795Y66675
X9525Y66675
X10795Y67945
X9525Y67945
X10160Y67310
X10795Y69215
X11430Y63500
X10160Y63500
X8890Y63500
X8890Y62230
X10160Y62230
X11430Y62230
X11430Y60960
X10160Y60960
X8890Y60960
X8890Y59690
X10160Y59690
X11430Y59690
X9525Y60325
X10795Y60325
X10795Y61595
X9525Y61595
X9525Y62865
X10795Y62865
X99060Y53086
X99060Y51054
X113665Y82550
X115570Y78486
X119380Y71120
X145161Y63881
X112395Y83566
X112395Y52070
X113030Y83058
X113030Y54610
X135128Y78740
X64770Y67945
X64770Y69850
X70485Y64770
X135890Y13970
X143510Y13970
X143510Y7620
X135890Y7620
X132080Y44450
X135255Y44450
X137160Y44450
X140970Y49530
X127304Y54320
X131504Y54320
X135704Y54320
X139904Y54320
X127304Y58420
X127304Y62520
X131504Y62520
X135704Y62520
X139904Y62520
X131504Y58420
X135604Y58420
X128270Y67310
X127000Y67310
X138430Y67310
X140970Y67310
X139700Y64516
X138430Y69850
X138430Y72390
X138430Y74930
X138430Y77470
X138430Y80010
X138430Y82550
X138430Y85090
X140970Y85090
X68580Y48260
X140970Y82550
X140970Y80010
X140970Y77470
X140970Y74930
X140970Y72390
X140970Y69850
X140970Y87630
X140970Y90170
X140970Y92710
X142240Y95250
X143510Y96520
X143510Y99060
X135890Y99060
X135890Y96520
X137160Y95250
X138430Y92710
X138430Y90170
X138430Y87630
X135890Y90170
X135890Y16510
X135890Y19050
X135890Y21590
X135890Y24130
X135636Y26416
X135890Y29718
X135890Y31750
X135890Y34290
X135890Y36830
X135890Y39370
X135890Y41910
X139700Y39370
X139700Y41910
X140970Y44450
X139700Y36830
X139192Y34290
X139700Y31750
X139700Y29210
X139573Y26416
X139700Y24130
X139700Y21590
X139700Y19050
X139700Y16510
X137160Y3810
X142240Y4064
X114300Y8890
X110490Y13970
X118110Y13970
X118110Y7620
X110490Y7620
X29210Y73660
X29210Y72390
X29210Y71120
X27940Y69850
X21590Y78740
X34290Y93980
X41910Y93980
X36576Y96774
X39624Y96774
X39370Y88900
X36830Y88900
X26670Y69850
X26670Y68580
X27940Y68580
X29210Y68580
X26670Y67310
X27940Y67310
X29210Y67310
X26670Y66040
X27940Y66040
X29210Y66040
X26670Y64770
X27940Y64770
X29210Y64770
X26670Y63500
X27940Y63500
X29210Y63500
X29210Y62230
X27940Y62230
X26670Y62230
X26670Y60960
X27940Y60960
X29210Y60960
X29210Y59690
X27940Y59690
X38100Y80010
M30