G04 EAGLE Gerber RS-274X export*
G75*
%MOMM*%
%FSLAX34Y34*%
%LPD*%
%IN*%
%IPPOS*%
%AMOC8*
5,1,8,0,0,1.08239X$1,22.5*%
G01*
%ADD10C,0.203200*%
%ADD11C,0.600000*%
%ADD12C,0.279400*%
%ADD13C,0.381000*%
%ADD14C,0.254000*%
%ADD15C,0.000000*%
%ADD16C,0.254000*%


D10*
X0Y0D02*
X635000Y0D01*
X635000Y63500D01*
X635004Y63807D01*
X635015Y64114D01*
X635033Y64420D01*
X635059Y64726D01*
X635093Y65031D01*
X635133Y65335D01*
X635181Y65638D01*
X635237Y65940D01*
X635299Y66240D01*
X635369Y66539D01*
X635446Y66836D01*
X635530Y67132D01*
X635622Y67425D01*
X635720Y67715D01*
X635825Y68003D01*
X635938Y68289D01*
X636057Y68572D01*
X636183Y68852D01*
X636315Y69129D01*
X636455Y69402D01*
X636601Y69672D01*
X636753Y69938D01*
X636912Y70201D01*
X637077Y70460D01*
X637248Y70714D01*
X637425Y70965D01*
X637609Y71211D01*
X637798Y71453D01*
X637993Y71689D01*
X638194Y71922D01*
X638400Y72149D01*
X638612Y72371D01*
X638829Y72588D01*
X639051Y72800D01*
X639278Y73006D01*
X639511Y73207D01*
X639747Y73402D01*
X639989Y73591D01*
X640235Y73775D01*
X640486Y73952D01*
X640740Y74123D01*
X640999Y74288D01*
X641262Y74447D01*
X641528Y74599D01*
X641798Y74745D01*
X642071Y74885D01*
X642348Y75017D01*
X642628Y75143D01*
X642911Y75262D01*
X643197Y75375D01*
X643485Y75480D01*
X643775Y75578D01*
X644068Y75670D01*
X644364Y75754D01*
X644661Y75831D01*
X644960Y75901D01*
X645260Y75963D01*
X645562Y76019D01*
X645865Y76067D01*
X646169Y76107D01*
X646474Y76141D01*
X646780Y76167D01*
X647086Y76185D01*
X647393Y76196D01*
X647700Y76200D01*
X876300Y76200D01*
X876607Y76196D01*
X876914Y76185D01*
X877220Y76167D01*
X877526Y76141D01*
X877831Y76107D01*
X878135Y76067D01*
X878438Y76019D01*
X878740Y75963D01*
X879040Y75901D01*
X879339Y75831D01*
X879636Y75754D01*
X879932Y75670D01*
X880225Y75578D01*
X880515Y75480D01*
X880803Y75375D01*
X881089Y75262D01*
X881372Y75143D01*
X881652Y75017D01*
X881929Y74885D01*
X882202Y74745D01*
X882472Y74599D01*
X882738Y74447D01*
X883001Y74288D01*
X883260Y74123D01*
X883514Y73952D01*
X883765Y73775D01*
X884011Y73591D01*
X884253Y73402D01*
X884489Y73207D01*
X884722Y73006D01*
X884949Y72800D01*
X885171Y72588D01*
X885388Y72371D01*
X885600Y72149D01*
X885806Y71922D01*
X886007Y71689D01*
X886202Y71453D01*
X886391Y71211D01*
X886575Y70965D01*
X886752Y70714D01*
X886923Y70460D01*
X887088Y70201D01*
X887247Y69938D01*
X887399Y69672D01*
X887545Y69402D01*
X887685Y69129D01*
X887817Y68852D01*
X887943Y68572D01*
X888062Y68289D01*
X888175Y68003D01*
X888280Y67715D01*
X888378Y67425D01*
X888470Y67132D01*
X888554Y66836D01*
X888631Y66539D01*
X888701Y66240D01*
X888763Y65940D01*
X888819Y65638D01*
X888867Y65335D01*
X888907Y65031D01*
X888941Y64726D01*
X888967Y64420D01*
X888985Y64114D01*
X888996Y63807D01*
X889000Y63500D01*
X889000Y0D01*
X1524000Y0D01*
X1524000Y1016000D01*
X0Y1016000D01*
X0Y0D01*
D11*
X51900Y945000D02*
X155000Y945000D01*
X171500Y928000D01*
X171500Y852500D01*
X184000Y840000D01*
X184000Y520000D01*
X184000Y519000D02*
X175000Y510000D01*
X51900Y510000D01*
D12*
X707504Y-20447D02*
X707504Y-35433D01*
X707504Y-20447D02*
X711667Y-20447D01*
X711795Y-20449D01*
X711923Y-20455D01*
X712051Y-20465D01*
X712179Y-20479D01*
X712306Y-20496D01*
X712432Y-20518D01*
X712558Y-20543D01*
X712682Y-20573D01*
X712806Y-20606D01*
X712929Y-20643D01*
X713051Y-20684D01*
X713171Y-20728D01*
X713290Y-20776D01*
X713407Y-20828D01*
X713523Y-20883D01*
X713636Y-20942D01*
X713749Y-21005D01*
X713859Y-21071D01*
X713966Y-21140D01*
X714072Y-21212D01*
X714176Y-21288D01*
X714277Y-21367D01*
X714376Y-21449D01*
X714472Y-21534D01*
X714565Y-21621D01*
X714656Y-21712D01*
X714743Y-21805D01*
X714828Y-21901D01*
X714910Y-22000D01*
X714989Y-22101D01*
X715065Y-22205D01*
X715137Y-22311D01*
X715206Y-22418D01*
X715272Y-22529D01*
X715335Y-22641D01*
X715394Y-22754D01*
X715449Y-22870D01*
X715501Y-22987D01*
X715549Y-23106D01*
X715593Y-23226D01*
X715634Y-23348D01*
X715671Y-23471D01*
X715704Y-23595D01*
X715734Y-23719D01*
X715759Y-23845D01*
X715781Y-23971D01*
X715798Y-24098D01*
X715812Y-24226D01*
X715822Y-24354D01*
X715828Y-24482D01*
X715830Y-24610D01*
X715828Y-24738D01*
X715822Y-24866D01*
X715812Y-24994D01*
X715798Y-25122D01*
X715781Y-25249D01*
X715759Y-25375D01*
X715734Y-25501D01*
X715704Y-25625D01*
X715671Y-25749D01*
X715634Y-25872D01*
X715593Y-25994D01*
X715549Y-26114D01*
X715501Y-26233D01*
X715449Y-26350D01*
X715394Y-26466D01*
X715335Y-26579D01*
X715272Y-26692D01*
X715206Y-26802D01*
X715137Y-26909D01*
X715065Y-27015D01*
X714989Y-27119D01*
X714910Y-27220D01*
X714828Y-27319D01*
X714743Y-27415D01*
X714656Y-27508D01*
X714565Y-27599D01*
X714472Y-27686D01*
X714376Y-27771D01*
X714277Y-27853D01*
X714176Y-27932D01*
X714072Y-28008D01*
X713966Y-28080D01*
X713859Y-28149D01*
X713749Y-28215D01*
X713636Y-28278D01*
X713523Y-28337D01*
X713407Y-28392D01*
X713290Y-28444D01*
X713171Y-28492D01*
X713051Y-28536D01*
X712929Y-28577D01*
X712806Y-28614D01*
X712682Y-28647D01*
X712558Y-28677D01*
X712432Y-28702D01*
X712306Y-28724D01*
X712179Y-28741D01*
X712051Y-28755D01*
X711923Y-28765D01*
X711795Y-28771D01*
X711667Y-28773D01*
X707504Y-28773D01*
X712499Y-28773D02*
X715829Y-35433D01*
X722788Y-32103D02*
X722788Y-28773D01*
X722790Y-28659D01*
X722796Y-28546D01*
X722805Y-28432D01*
X722819Y-28320D01*
X722836Y-28207D01*
X722858Y-28095D01*
X722883Y-27985D01*
X722911Y-27875D01*
X722944Y-27766D01*
X722980Y-27658D01*
X723020Y-27551D01*
X723064Y-27446D01*
X723111Y-27343D01*
X723161Y-27241D01*
X723215Y-27141D01*
X723273Y-27043D01*
X723334Y-26947D01*
X723397Y-26853D01*
X723465Y-26761D01*
X723535Y-26671D01*
X723608Y-26585D01*
X723684Y-26500D01*
X723763Y-26418D01*
X723845Y-26339D01*
X723930Y-26263D01*
X724016Y-26190D01*
X724106Y-26120D01*
X724198Y-26052D01*
X724292Y-25989D01*
X724388Y-25928D01*
X724486Y-25870D01*
X724586Y-25816D01*
X724688Y-25766D01*
X724791Y-25719D01*
X724896Y-25675D01*
X725003Y-25635D01*
X725111Y-25599D01*
X725220Y-25566D01*
X725330Y-25538D01*
X725440Y-25513D01*
X725552Y-25491D01*
X725665Y-25474D01*
X725777Y-25460D01*
X725891Y-25451D01*
X726004Y-25445D01*
X726118Y-25443D01*
X726232Y-25445D01*
X726345Y-25451D01*
X726459Y-25460D01*
X726571Y-25474D01*
X726684Y-25491D01*
X726796Y-25513D01*
X726906Y-25538D01*
X727016Y-25566D01*
X727125Y-25599D01*
X727233Y-25635D01*
X727340Y-25675D01*
X727445Y-25719D01*
X727548Y-25766D01*
X727650Y-25816D01*
X727750Y-25870D01*
X727848Y-25928D01*
X727944Y-25989D01*
X728038Y-26052D01*
X728130Y-26120D01*
X728220Y-26190D01*
X728306Y-26263D01*
X728391Y-26339D01*
X728473Y-26418D01*
X728552Y-26500D01*
X728628Y-26585D01*
X728701Y-26671D01*
X728771Y-26761D01*
X728839Y-26853D01*
X728902Y-26947D01*
X728963Y-27043D01*
X729021Y-27141D01*
X729075Y-27241D01*
X729125Y-27343D01*
X729172Y-27446D01*
X729216Y-27551D01*
X729256Y-27658D01*
X729292Y-27766D01*
X729325Y-27875D01*
X729353Y-27985D01*
X729378Y-28095D01*
X729400Y-28207D01*
X729417Y-28320D01*
X729431Y-28432D01*
X729440Y-28546D01*
X729446Y-28659D01*
X729448Y-28773D01*
X729448Y-32103D01*
X729446Y-32217D01*
X729440Y-32330D01*
X729431Y-32444D01*
X729417Y-32556D01*
X729400Y-32669D01*
X729378Y-32781D01*
X729353Y-32891D01*
X729325Y-33001D01*
X729292Y-33110D01*
X729256Y-33218D01*
X729216Y-33325D01*
X729172Y-33430D01*
X729125Y-33533D01*
X729075Y-33635D01*
X729021Y-33735D01*
X728963Y-33833D01*
X728902Y-33929D01*
X728839Y-34023D01*
X728771Y-34115D01*
X728701Y-34205D01*
X728628Y-34291D01*
X728552Y-34376D01*
X728473Y-34458D01*
X728391Y-34537D01*
X728306Y-34613D01*
X728220Y-34686D01*
X728130Y-34756D01*
X728038Y-34824D01*
X727944Y-34887D01*
X727848Y-34948D01*
X727750Y-35006D01*
X727650Y-35060D01*
X727548Y-35110D01*
X727445Y-35157D01*
X727340Y-35201D01*
X727233Y-35241D01*
X727125Y-35277D01*
X727016Y-35310D01*
X726906Y-35338D01*
X726796Y-35363D01*
X726684Y-35385D01*
X726571Y-35402D01*
X726459Y-35416D01*
X726345Y-35425D01*
X726232Y-35431D01*
X726118Y-35433D01*
X726004Y-35431D01*
X725891Y-35425D01*
X725777Y-35416D01*
X725665Y-35402D01*
X725552Y-35385D01*
X725440Y-35363D01*
X725330Y-35338D01*
X725220Y-35310D01*
X725111Y-35277D01*
X725003Y-35241D01*
X724896Y-35201D01*
X724791Y-35157D01*
X724688Y-35110D01*
X724586Y-35060D01*
X724486Y-35006D01*
X724388Y-34948D01*
X724292Y-34887D01*
X724198Y-34824D01*
X724106Y-34756D01*
X724016Y-34686D01*
X723930Y-34613D01*
X723845Y-34537D01*
X723763Y-34458D01*
X723684Y-34376D01*
X723608Y-34291D01*
X723535Y-34205D01*
X723465Y-34115D01*
X723397Y-34023D01*
X723334Y-33929D01*
X723273Y-33833D01*
X723215Y-33735D01*
X723161Y-33635D01*
X723111Y-33533D01*
X723064Y-33430D01*
X723020Y-33325D01*
X722980Y-33218D01*
X722944Y-33110D01*
X722911Y-33001D01*
X722883Y-32891D01*
X722858Y-32781D01*
X722836Y-32669D01*
X722819Y-32556D01*
X722805Y-32444D01*
X722796Y-32330D01*
X722790Y-32217D01*
X722788Y-32103D01*
X736856Y-32935D02*
X736856Y-25442D01*
X736855Y-32935D02*
X736857Y-33033D01*
X736863Y-33131D01*
X736872Y-33229D01*
X736886Y-33326D01*
X736903Y-33422D01*
X736924Y-33518D01*
X736949Y-33613D01*
X736977Y-33707D01*
X737009Y-33800D01*
X737045Y-33891D01*
X737084Y-33981D01*
X737127Y-34069D01*
X737174Y-34156D01*
X737223Y-34240D01*
X737276Y-34323D01*
X737332Y-34403D01*
X737391Y-34482D01*
X737454Y-34557D01*
X737519Y-34631D01*
X737587Y-34701D01*
X737657Y-34769D01*
X737731Y-34835D01*
X737807Y-34897D01*
X737885Y-34956D01*
X737965Y-35012D01*
X738048Y-35065D01*
X738132Y-35115D01*
X738219Y-35161D01*
X738307Y-35204D01*
X738397Y-35243D01*
X738488Y-35279D01*
X738581Y-35311D01*
X738675Y-35339D01*
X738770Y-35364D01*
X738866Y-35385D01*
X738962Y-35402D01*
X739059Y-35416D01*
X739157Y-35425D01*
X739255Y-35431D01*
X739353Y-35433D01*
X743516Y-35433D01*
X743516Y-25442D01*
X749497Y-25442D02*
X754492Y-25442D01*
X751162Y-20447D02*
X751162Y-32935D01*
X751164Y-33033D01*
X751170Y-33131D01*
X751179Y-33229D01*
X751193Y-33326D01*
X751210Y-33422D01*
X751231Y-33518D01*
X751256Y-33613D01*
X751284Y-33707D01*
X751316Y-33800D01*
X751352Y-33891D01*
X751391Y-33981D01*
X751434Y-34069D01*
X751481Y-34156D01*
X751530Y-34240D01*
X751583Y-34323D01*
X751639Y-34403D01*
X751698Y-34482D01*
X751761Y-34557D01*
X751826Y-34631D01*
X751894Y-34701D01*
X751964Y-34769D01*
X752038Y-34835D01*
X752114Y-34897D01*
X752192Y-34956D01*
X752272Y-35012D01*
X752355Y-35065D01*
X752439Y-35115D01*
X752526Y-35161D01*
X752614Y-35204D01*
X752704Y-35243D01*
X752795Y-35279D01*
X752888Y-35311D01*
X752982Y-35339D01*
X753077Y-35364D01*
X753173Y-35385D01*
X753269Y-35402D01*
X753366Y-35416D01*
X753464Y-35425D01*
X753562Y-35431D01*
X753660Y-35433D01*
X754492Y-35433D01*
X763321Y-35433D02*
X767484Y-35433D01*
X763321Y-35433D02*
X763223Y-35431D01*
X763125Y-35425D01*
X763027Y-35416D01*
X762930Y-35402D01*
X762834Y-35385D01*
X762738Y-35364D01*
X762643Y-35339D01*
X762549Y-35311D01*
X762456Y-35279D01*
X762365Y-35243D01*
X762275Y-35204D01*
X762187Y-35161D01*
X762100Y-35114D01*
X762016Y-35065D01*
X761933Y-35012D01*
X761853Y-34956D01*
X761775Y-34897D01*
X761699Y-34835D01*
X761625Y-34769D01*
X761555Y-34701D01*
X761487Y-34631D01*
X761422Y-34557D01*
X761359Y-34482D01*
X761300Y-34403D01*
X761244Y-34323D01*
X761191Y-34240D01*
X761142Y-34156D01*
X761095Y-34069D01*
X761052Y-33981D01*
X761013Y-33891D01*
X760977Y-33800D01*
X760945Y-33707D01*
X760917Y-33613D01*
X760892Y-33518D01*
X760871Y-33422D01*
X760854Y-33326D01*
X760840Y-33229D01*
X760831Y-33131D01*
X760825Y-33033D01*
X760823Y-32935D01*
X760824Y-32935D02*
X760824Y-28773D01*
X760826Y-28659D01*
X760832Y-28546D01*
X760841Y-28432D01*
X760855Y-28320D01*
X760872Y-28207D01*
X760894Y-28095D01*
X760919Y-27985D01*
X760947Y-27875D01*
X760980Y-27766D01*
X761016Y-27658D01*
X761056Y-27551D01*
X761100Y-27446D01*
X761147Y-27343D01*
X761197Y-27241D01*
X761251Y-27141D01*
X761309Y-27043D01*
X761370Y-26947D01*
X761433Y-26853D01*
X761501Y-26761D01*
X761571Y-26671D01*
X761644Y-26585D01*
X761720Y-26500D01*
X761799Y-26418D01*
X761881Y-26339D01*
X761966Y-26263D01*
X762052Y-26190D01*
X762142Y-26120D01*
X762234Y-26052D01*
X762328Y-25989D01*
X762424Y-25928D01*
X762522Y-25870D01*
X762622Y-25816D01*
X762724Y-25766D01*
X762827Y-25719D01*
X762932Y-25675D01*
X763039Y-25635D01*
X763147Y-25599D01*
X763256Y-25566D01*
X763366Y-25538D01*
X763476Y-25513D01*
X763588Y-25491D01*
X763701Y-25474D01*
X763813Y-25460D01*
X763927Y-25451D01*
X764040Y-25445D01*
X764154Y-25443D01*
X764268Y-25445D01*
X764381Y-25451D01*
X764495Y-25460D01*
X764607Y-25474D01*
X764720Y-25491D01*
X764832Y-25513D01*
X764942Y-25538D01*
X765052Y-25566D01*
X765161Y-25599D01*
X765269Y-25635D01*
X765376Y-25675D01*
X765481Y-25719D01*
X765584Y-25766D01*
X765686Y-25816D01*
X765786Y-25870D01*
X765884Y-25928D01*
X765980Y-25989D01*
X766074Y-26052D01*
X766166Y-26120D01*
X766256Y-26190D01*
X766342Y-26263D01*
X766427Y-26339D01*
X766509Y-26418D01*
X766588Y-26500D01*
X766664Y-26585D01*
X766737Y-26671D01*
X766807Y-26761D01*
X766875Y-26853D01*
X766938Y-26947D01*
X766999Y-27043D01*
X767057Y-27141D01*
X767111Y-27241D01*
X767161Y-27343D01*
X767208Y-27446D01*
X767252Y-27551D01*
X767292Y-27658D01*
X767328Y-27766D01*
X767361Y-27875D01*
X767389Y-27985D01*
X767414Y-28095D01*
X767436Y-28207D01*
X767453Y-28320D01*
X767467Y-28432D01*
X767476Y-28546D01*
X767482Y-28659D01*
X767484Y-28773D01*
X767484Y-30438D01*
X760824Y-30438D01*
X782917Y-31270D02*
X782917Y-24610D01*
X782919Y-24482D01*
X782925Y-24354D01*
X782935Y-24226D01*
X782949Y-24098D01*
X782966Y-23971D01*
X782988Y-23845D01*
X783013Y-23719D01*
X783043Y-23595D01*
X783076Y-23471D01*
X783113Y-23348D01*
X783154Y-23226D01*
X783198Y-23106D01*
X783246Y-22987D01*
X783298Y-22870D01*
X783353Y-22754D01*
X783412Y-22641D01*
X783475Y-22528D01*
X783541Y-22418D01*
X783610Y-22311D01*
X783682Y-22205D01*
X783758Y-22101D01*
X783837Y-22000D01*
X783919Y-21901D01*
X784004Y-21805D01*
X784091Y-21712D01*
X784182Y-21621D01*
X784275Y-21534D01*
X784371Y-21449D01*
X784470Y-21367D01*
X784571Y-21288D01*
X784675Y-21212D01*
X784781Y-21140D01*
X784888Y-21071D01*
X784999Y-21005D01*
X785111Y-20942D01*
X785224Y-20883D01*
X785340Y-20828D01*
X785457Y-20776D01*
X785576Y-20728D01*
X785696Y-20684D01*
X785818Y-20643D01*
X785941Y-20606D01*
X786065Y-20573D01*
X786189Y-20543D01*
X786315Y-20518D01*
X786441Y-20496D01*
X786568Y-20479D01*
X786696Y-20465D01*
X786824Y-20455D01*
X786952Y-20449D01*
X787080Y-20447D01*
X787208Y-20449D01*
X787336Y-20455D01*
X787464Y-20465D01*
X787592Y-20479D01*
X787719Y-20496D01*
X787845Y-20518D01*
X787971Y-20543D01*
X788095Y-20573D01*
X788219Y-20606D01*
X788342Y-20643D01*
X788464Y-20684D01*
X788584Y-20728D01*
X788703Y-20776D01*
X788820Y-20828D01*
X788936Y-20883D01*
X789049Y-20942D01*
X789162Y-21005D01*
X789272Y-21071D01*
X789379Y-21140D01*
X789485Y-21212D01*
X789589Y-21288D01*
X789690Y-21367D01*
X789789Y-21449D01*
X789885Y-21534D01*
X789978Y-21621D01*
X790069Y-21712D01*
X790156Y-21805D01*
X790241Y-21901D01*
X790323Y-22000D01*
X790402Y-22101D01*
X790478Y-22205D01*
X790550Y-22311D01*
X790619Y-22418D01*
X790685Y-22529D01*
X790748Y-22641D01*
X790807Y-22754D01*
X790862Y-22870D01*
X790914Y-22987D01*
X790962Y-23106D01*
X791006Y-23226D01*
X791047Y-23348D01*
X791084Y-23471D01*
X791117Y-23595D01*
X791147Y-23719D01*
X791172Y-23845D01*
X791194Y-23971D01*
X791211Y-24098D01*
X791225Y-24226D01*
X791235Y-24354D01*
X791241Y-24482D01*
X791243Y-24610D01*
X791242Y-24610D02*
X791242Y-31270D01*
X791243Y-31270D02*
X791241Y-31398D01*
X791235Y-31526D01*
X791225Y-31654D01*
X791211Y-31782D01*
X791194Y-31909D01*
X791172Y-32035D01*
X791147Y-32161D01*
X791117Y-32285D01*
X791084Y-32409D01*
X791047Y-32532D01*
X791006Y-32654D01*
X790962Y-32774D01*
X790914Y-32893D01*
X790862Y-33010D01*
X790807Y-33126D01*
X790748Y-33239D01*
X790685Y-33352D01*
X790619Y-33462D01*
X790550Y-33569D01*
X790478Y-33675D01*
X790402Y-33779D01*
X790323Y-33880D01*
X790241Y-33979D01*
X790156Y-34075D01*
X790069Y-34168D01*
X789978Y-34259D01*
X789885Y-34346D01*
X789789Y-34431D01*
X789690Y-34513D01*
X789589Y-34592D01*
X789485Y-34668D01*
X789379Y-34740D01*
X789272Y-34809D01*
X789162Y-34875D01*
X789049Y-34938D01*
X788936Y-34997D01*
X788820Y-35052D01*
X788703Y-35104D01*
X788584Y-35152D01*
X788464Y-35196D01*
X788342Y-35237D01*
X788219Y-35274D01*
X788095Y-35307D01*
X787971Y-35337D01*
X787845Y-35362D01*
X787719Y-35384D01*
X787592Y-35401D01*
X787464Y-35415D01*
X787336Y-35425D01*
X787208Y-35431D01*
X787080Y-35433D01*
X786952Y-35431D01*
X786824Y-35425D01*
X786696Y-35415D01*
X786568Y-35401D01*
X786441Y-35384D01*
X786315Y-35362D01*
X786189Y-35337D01*
X786065Y-35307D01*
X785941Y-35274D01*
X785818Y-35237D01*
X785696Y-35196D01*
X785576Y-35152D01*
X785457Y-35104D01*
X785340Y-35052D01*
X785224Y-34997D01*
X785111Y-34938D01*
X784999Y-34875D01*
X784888Y-34809D01*
X784781Y-34740D01*
X784675Y-34668D01*
X784571Y-34592D01*
X784470Y-34513D01*
X784371Y-34431D01*
X784275Y-34346D01*
X784182Y-34259D01*
X784091Y-34168D01*
X784004Y-34075D01*
X783919Y-33979D01*
X783837Y-33880D01*
X783758Y-33779D01*
X783682Y-33675D01*
X783610Y-33569D01*
X783541Y-33462D01*
X783475Y-33351D01*
X783412Y-33239D01*
X783353Y-33126D01*
X783298Y-33010D01*
X783246Y-32893D01*
X783198Y-32774D01*
X783154Y-32654D01*
X783113Y-32532D01*
X783076Y-32409D01*
X783043Y-32285D01*
X783013Y-32161D01*
X782988Y-32035D01*
X782966Y-31909D01*
X782949Y-31782D01*
X782935Y-31654D01*
X782925Y-31526D01*
X782919Y-31398D01*
X782917Y-31270D01*
X798859Y-32935D02*
X798859Y-25442D01*
X798859Y-32935D02*
X798861Y-33033D01*
X798867Y-33131D01*
X798876Y-33229D01*
X798890Y-33326D01*
X798907Y-33422D01*
X798928Y-33518D01*
X798953Y-33613D01*
X798981Y-33707D01*
X799013Y-33800D01*
X799049Y-33891D01*
X799088Y-33981D01*
X799131Y-34069D01*
X799178Y-34156D01*
X799227Y-34240D01*
X799280Y-34323D01*
X799336Y-34403D01*
X799395Y-34482D01*
X799458Y-34557D01*
X799523Y-34631D01*
X799591Y-34701D01*
X799661Y-34769D01*
X799735Y-34835D01*
X799811Y-34897D01*
X799889Y-34956D01*
X799969Y-35012D01*
X800052Y-35065D01*
X800136Y-35115D01*
X800223Y-35161D01*
X800311Y-35204D01*
X800401Y-35243D01*
X800492Y-35279D01*
X800585Y-35311D01*
X800679Y-35339D01*
X800774Y-35364D01*
X800870Y-35385D01*
X800966Y-35402D01*
X801063Y-35416D01*
X801161Y-35425D01*
X801259Y-35431D01*
X801357Y-35433D01*
X805520Y-35433D01*
X805520Y-25442D01*
X811501Y-25442D02*
X816496Y-25442D01*
X813166Y-20447D02*
X813166Y-32935D01*
X813165Y-32935D02*
X813167Y-33033D01*
X813173Y-33131D01*
X813182Y-33229D01*
X813196Y-33326D01*
X813213Y-33422D01*
X813234Y-33518D01*
X813259Y-33613D01*
X813287Y-33707D01*
X813319Y-33800D01*
X813355Y-33891D01*
X813394Y-33981D01*
X813437Y-34069D01*
X813484Y-34156D01*
X813533Y-34240D01*
X813586Y-34323D01*
X813642Y-34403D01*
X813701Y-34482D01*
X813764Y-34557D01*
X813829Y-34631D01*
X813897Y-34701D01*
X813967Y-34769D01*
X814041Y-34835D01*
X814117Y-34897D01*
X814195Y-34956D01*
X814275Y-35012D01*
X814358Y-35065D01*
X814442Y-35115D01*
X814529Y-35161D01*
X814617Y-35204D01*
X814707Y-35243D01*
X814798Y-35279D01*
X814891Y-35311D01*
X814985Y-35339D01*
X815080Y-35364D01*
X815176Y-35385D01*
X815272Y-35402D01*
X815369Y-35416D01*
X815467Y-35425D01*
X815565Y-35431D01*
X815663Y-35433D01*
X815664Y-35433D02*
X816496Y-35433D01*
X707504Y1036447D02*
X707504Y1051433D01*
X711667Y1051433D01*
X711795Y1051431D01*
X711923Y1051425D01*
X712051Y1051415D01*
X712179Y1051401D01*
X712306Y1051384D01*
X712432Y1051362D01*
X712558Y1051337D01*
X712682Y1051307D01*
X712806Y1051274D01*
X712929Y1051237D01*
X713051Y1051196D01*
X713171Y1051152D01*
X713290Y1051104D01*
X713407Y1051052D01*
X713523Y1050997D01*
X713636Y1050938D01*
X713749Y1050875D01*
X713859Y1050809D01*
X713966Y1050740D01*
X714072Y1050668D01*
X714176Y1050592D01*
X714277Y1050513D01*
X714376Y1050431D01*
X714472Y1050346D01*
X714565Y1050259D01*
X714656Y1050168D01*
X714743Y1050075D01*
X714828Y1049979D01*
X714910Y1049880D01*
X714989Y1049779D01*
X715065Y1049675D01*
X715137Y1049569D01*
X715206Y1049462D01*
X715272Y1049352D01*
X715335Y1049239D01*
X715394Y1049126D01*
X715449Y1049010D01*
X715501Y1048893D01*
X715549Y1048774D01*
X715593Y1048654D01*
X715634Y1048532D01*
X715671Y1048409D01*
X715704Y1048285D01*
X715734Y1048161D01*
X715759Y1048035D01*
X715781Y1047909D01*
X715798Y1047782D01*
X715812Y1047654D01*
X715822Y1047526D01*
X715828Y1047398D01*
X715830Y1047270D01*
X715828Y1047142D01*
X715822Y1047014D01*
X715812Y1046886D01*
X715798Y1046758D01*
X715781Y1046631D01*
X715759Y1046505D01*
X715734Y1046379D01*
X715704Y1046255D01*
X715671Y1046131D01*
X715634Y1046008D01*
X715593Y1045886D01*
X715549Y1045766D01*
X715501Y1045647D01*
X715449Y1045530D01*
X715394Y1045414D01*
X715335Y1045301D01*
X715272Y1045189D01*
X715206Y1045078D01*
X715137Y1044971D01*
X715065Y1044865D01*
X714989Y1044761D01*
X714910Y1044660D01*
X714828Y1044561D01*
X714743Y1044465D01*
X714656Y1044372D01*
X714565Y1044281D01*
X714472Y1044194D01*
X714376Y1044109D01*
X714277Y1044027D01*
X714176Y1043948D01*
X714072Y1043872D01*
X713966Y1043800D01*
X713859Y1043731D01*
X713749Y1043665D01*
X713636Y1043602D01*
X713523Y1043543D01*
X713407Y1043488D01*
X713290Y1043436D01*
X713171Y1043388D01*
X713051Y1043344D01*
X712929Y1043303D01*
X712806Y1043266D01*
X712682Y1043233D01*
X712558Y1043203D01*
X712432Y1043178D01*
X712306Y1043156D01*
X712179Y1043139D01*
X712051Y1043125D01*
X711923Y1043115D01*
X711795Y1043109D01*
X711667Y1043107D01*
X707504Y1043107D01*
X712499Y1043107D02*
X715829Y1036447D01*
X722788Y1039777D02*
X722788Y1043107D01*
X722790Y1043221D01*
X722796Y1043334D01*
X722805Y1043448D01*
X722819Y1043560D01*
X722836Y1043673D01*
X722858Y1043785D01*
X722883Y1043895D01*
X722911Y1044005D01*
X722944Y1044114D01*
X722980Y1044222D01*
X723020Y1044329D01*
X723064Y1044434D01*
X723111Y1044537D01*
X723161Y1044639D01*
X723215Y1044739D01*
X723273Y1044837D01*
X723334Y1044933D01*
X723397Y1045027D01*
X723465Y1045119D01*
X723535Y1045209D01*
X723608Y1045295D01*
X723684Y1045380D01*
X723763Y1045462D01*
X723845Y1045541D01*
X723930Y1045617D01*
X724016Y1045690D01*
X724106Y1045760D01*
X724198Y1045828D01*
X724292Y1045891D01*
X724388Y1045952D01*
X724486Y1046010D01*
X724586Y1046064D01*
X724688Y1046114D01*
X724791Y1046161D01*
X724896Y1046205D01*
X725003Y1046245D01*
X725111Y1046281D01*
X725220Y1046314D01*
X725330Y1046342D01*
X725440Y1046367D01*
X725552Y1046389D01*
X725665Y1046406D01*
X725777Y1046420D01*
X725891Y1046429D01*
X726004Y1046435D01*
X726118Y1046437D01*
X726232Y1046435D01*
X726345Y1046429D01*
X726459Y1046420D01*
X726571Y1046406D01*
X726684Y1046389D01*
X726796Y1046367D01*
X726906Y1046342D01*
X727016Y1046314D01*
X727125Y1046281D01*
X727233Y1046245D01*
X727340Y1046205D01*
X727445Y1046161D01*
X727548Y1046114D01*
X727650Y1046064D01*
X727750Y1046010D01*
X727848Y1045952D01*
X727944Y1045891D01*
X728038Y1045828D01*
X728130Y1045760D01*
X728220Y1045690D01*
X728306Y1045617D01*
X728391Y1045541D01*
X728473Y1045462D01*
X728552Y1045380D01*
X728628Y1045295D01*
X728701Y1045209D01*
X728771Y1045119D01*
X728839Y1045027D01*
X728902Y1044933D01*
X728963Y1044837D01*
X729021Y1044739D01*
X729075Y1044639D01*
X729125Y1044537D01*
X729172Y1044434D01*
X729216Y1044329D01*
X729256Y1044222D01*
X729292Y1044114D01*
X729325Y1044005D01*
X729353Y1043895D01*
X729378Y1043785D01*
X729400Y1043673D01*
X729417Y1043560D01*
X729431Y1043448D01*
X729440Y1043334D01*
X729446Y1043221D01*
X729448Y1043107D01*
X729448Y1039777D01*
X729446Y1039663D01*
X729440Y1039550D01*
X729431Y1039436D01*
X729417Y1039324D01*
X729400Y1039211D01*
X729378Y1039099D01*
X729353Y1038989D01*
X729325Y1038879D01*
X729292Y1038770D01*
X729256Y1038662D01*
X729216Y1038555D01*
X729172Y1038450D01*
X729125Y1038347D01*
X729075Y1038245D01*
X729021Y1038145D01*
X728963Y1038047D01*
X728902Y1037951D01*
X728839Y1037857D01*
X728771Y1037765D01*
X728701Y1037675D01*
X728628Y1037589D01*
X728552Y1037504D01*
X728473Y1037422D01*
X728391Y1037343D01*
X728306Y1037267D01*
X728220Y1037194D01*
X728130Y1037124D01*
X728038Y1037056D01*
X727944Y1036993D01*
X727848Y1036932D01*
X727750Y1036874D01*
X727650Y1036820D01*
X727548Y1036770D01*
X727445Y1036723D01*
X727340Y1036679D01*
X727233Y1036639D01*
X727125Y1036603D01*
X727016Y1036570D01*
X726906Y1036542D01*
X726796Y1036517D01*
X726684Y1036495D01*
X726571Y1036478D01*
X726459Y1036464D01*
X726345Y1036455D01*
X726232Y1036449D01*
X726118Y1036447D01*
X726004Y1036449D01*
X725891Y1036455D01*
X725777Y1036464D01*
X725665Y1036478D01*
X725552Y1036495D01*
X725440Y1036517D01*
X725330Y1036542D01*
X725220Y1036570D01*
X725111Y1036603D01*
X725003Y1036639D01*
X724896Y1036679D01*
X724791Y1036723D01*
X724688Y1036770D01*
X724586Y1036820D01*
X724486Y1036874D01*
X724388Y1036932D01*
X724292Y1036993D01*
X724198Y1037056D01*
X724106Y1037124D01*
X724016Y1037194D01*
X723930Y1037267D01*
X723845Y1037343D01*
X723763Y1037422D01*
X723684Y1037504D01*
X723608Y1037589D01*
X723535Y1037675D01*
X723465Y1037765D01*
X723397Y1037857D01*
X723334Y1037951D01*
X723273Y1038047D01*
X723215Y1038145D01*
X723161Y1038245D01*
X723111Y1038347D01*
X723064Y1038450D01*
X723020Y1038555D01*
X722980Y1038662D01*
X722944Y1038770D01*
X722911Y1038879D01*
X722883Y1038989D01*
X722858Y1039099D01*
X722836Y1039211D01*
X722819Y1039324D01*
X722805Y1039436D01*
X722796Y1039550D01*
X722790Y1039663D01*
X722788Y1039777D01*
X736856Y1038945D02*
X736856Y1046438D01*
X736855Y1038945D02*
X736857Y1038847D01*
X736863Y1038749D01*
X736872Y1038651D01*
X736886Y1038554D01*
X736903Y1038458D01*
X736924Y1038362D01*
X736949Y1038267D01*
X736977Y1038173D01*
X737009Y1038080D01*
X737045Y1037989D01*
X737084Y1037899D01*
X737127Y1037811D01*
X737174Y1037724D01*
X737223Y1037640D01*
X737276Y1037557D01*
X737332Y1037477D01*
X737391Y1037399D01*
X737454Y1037323D01*
X737519Y1037249D01*
X737587Y1037179D01*
X737657Y1037111D01*
X737731Y1037046D01*
X737807Y1036983D01*
X737885Y1036924D01*
X737965Y1036868D01*
X738048Y1036815D01*
X738132Y1036766D01*
X738219Y1036719D01*
X738307Y1036676D01*
X738397Y1036637D01*
X738488Y1036601D01*
X738581Y1036569D01*
X738675Y1036541D01*
X738770Y1036516D01*
X738866Y1036495D01*
X738962Y1036478D01*
X739059Y1036464D01*
X739157Y1036455D01*
X739255Y1036449D01*
X739353Y1036447D01*
X743516Y1036447D01*
X743516Y1046438D01*
X749497Y1046438D02*
X754492Y1046438D01*
X751162Y1051433D02*
X751162Y1038945D01*
X751164Y1038847D01*
X751170Y1038749D01*
X751179Y1038651D01*
X751193Y1038554D01*
X751210Y1038458D01*
X751231Y1038362D01*
X751256Y1038267D01*
X751284Y1038173D01*
X751316Y1038080D01*
X751352Y1037989D01*
X751391Y1037899D01*
X751434Y1037811D01*
X751481Y1037724D01*
X751530Y1037640D01*
X751583Y1037557D01*
X751639Y1037477D01*
X751698Y1037399D01*
X751761Y1037323D01*
X751826Y1037249D01*
X751894Y1037179D01*
X751964Y1037111D01*
X752038Y1037046D01*
X752114Y1036983D01*
X752192Y1036924D01*
X752272Y1036868D01*
X752355Y1036815D01*
X752439Y1036766D01*
X752526Y1036719D01*
X752614Y1036676D01*
X752704Y1036637D01*
X752795Y1036601D01*
X752888Y1036569D01*
X752982Y1036541D01*
X753077Y1036516D01*
X753173Y1036495D01*
X753269Y1036478D01*
X753366Y1036464D01*
X753464Y1036455D01*
X753562Y1036449D01*
X753660Y1036447D01*
X754492Y1036447D01*
X763321Y1036447D02*
X767484Y1036447D01*
X763321Y1036447D02*
X763223Y1036449D01*
X763125Y1036455D01*
X763027Y1036464D01*
X762930Y1036478D01*
X762834Y1036495D01*
X762738Y1036516D01*
X762643Y1036541D01*
X762549Y1036569D01*
X762456Y1036601D01*
X762365Y1036637D01*
X762275Y1036676D01*
X762187Y1036719D01*
X762100Y1036766D01*
X762016Y1036815D01*
X761933Y1036868D01*
X761853Y1036924D01*
X761775Y1036983D01*
X761699Y1037046D01*
X761625Y1037111D01*
X761555Y1037179D01*
X761487Y1037249D01*
X761422Y1037323D01*
X761359Y1037399D01*
X761300Y1037477D01*
X761244Y1037557D01*
X761191Y1037640D01*
X761142Y1037724D01*
X761095Y1037811D01*
X761052Y1037899D01*
X761013Y1037989D01*
X760977Y1038080D01*
X760945Y1038173D01*
X760917Y1038267D01*
X760892Y1038362D01*
X760871Y1038458D01*
X760854Y1038554D01*
X760840Y1038651D01*
X760831Y1038749D01*
X760825Y1038847D01*
X760823Y1038945D01*
X760824Y1038945D02*
X760824Y1043107D01*
X760826Y1043221D01*
X760832Y1043334D01*
X760841Y1043448D01*
X760855Y1043560D01*
X760872Y1043673D01*
X760894Y1043785D01*
X760919Y1043895D01*
X760947Y1044005D01*
X760980Y1044114D01*
X761016Y1044222D01*
X761056Y1044329D01*
X761100Y1044434D01*
X761147Y1044537D01*
X761197Y1044639D01*
X761251Y1044739D01*
X761309Y1044837D01*
X761370Y1044933D01*
X761433Y1045027D01*
X761501Y1045119D01*
X761571Y1045209D01*
X761644Y1045295D01*
X761720Y1045380D01*
X761799Y1045462D01*
X761881Y1045541D01*
X761966Y1045617D01*
X762052Y1045690D01*
X762142Y1045760D01*
X762234Y1045828D01*
X762328Y1045891D01*
X762424Y1045952D01*
X762522Y1046010D01*
X762622Y1046064D01*
X762724Y1046114D01*
X762827Y1046161D01*
X762932Y1046205D01*
X763039Y1046245D01*
X763147Y1046281D01*
X763256Y1046314D01*
X763366Y1046342D01*
X763476Y1046367D01*
X763588Y1046389D01*
X763701Y1046406D01*
X763813Y1046420D01*
X763927Y1046429D01*
X764040Y1046435D01*
X764154Y1046437D01*
X764268Y1046435D01*
X764381Y1046429D01*
X764495Y1046420D01*
X764607Y1046406D01*
X764720Y1046389D01*
X764832Y1046367D01*
X764942Y1046342D01*
X765052Y1046314D01*
X765161Y1046281D01*
X765269Y1046245D01*
X765376Y1046205D01*
X765481Y1046161D01*
X765584Y1046114D01*
X765686Y1046064D01*
X765786Y1046010D01*
X765884Y1045952D01*
X765980Y1045891D01*
X766074Y1045828D01*
X766166Y1045760D01*
X766256Y1045690D01*
X766342Y1045617D01*
X766427Y1045541D01*
X766509Y1045462D01*
X766588Y1045380D01*
X766664Y1045295D01*
X766737Y1045209D01*
X766807Y1045119D01*
X766875Y1045027D01*
X766938Y1044933D01*
X766999Y1044837D01*
X767057Y1044739D01*
X767111Y1044639D01*
X767161Y1044537D01*
X767208Y1044434D01*
X767252Y1044329D01*
X767292Y1044222D01*
X767328Y1044114D01*
X767361Y1044005D01*
X767389Y1043895D01*
X767414Y1043785D01*
X767436Y1043673D01*
X767453Y1043560D01*
X767467Y1043448D01*
X767476Y1043334D01*
X767482Y1043221D01*
X767484Y1043107D01*
X767484Y1041442D01*
X760824Y1041442D01*
X782917Y1040610D02*
X782917Y1047270D01*
X782919Y1047398D01*
X782925Y1047526D01*
X782935Y1047654D01*
X782949Y1047782D01*
X782966Y1047909D01*
X782988Y1048035D01*
X783013Y1048161D01*
X783043Y1048285D01*
X783076Y1048409D01*
X783113Y1048532D01*
X783154Y1048654D01*
X783198Y1048774D01*
X783246Y1048893D01*
X783298Y1049010D01*
X783353Y1049126D01*
X783412Y1049239D01*
X783475Y1049352D01*
X783541Y1049462D01*
X783610Y1049569D01*
X783682Y1049675D01*
X783758Y1049779D01*
X783837Y1049880D01*
X783919Y1049979D01*
X784004Y1050075D01*
X784091Y1050168D01*
X784182Y1050259D01*
X784275Y1050346D01*
X784371Y1050431D01*
X784470Y1050513D01*
X784571Y1050592D01*
X784675Y1050668D01*
X784781Y1050740D01*
X784888Y1050809D01*
X784999Y1050875D01*
X785111Y1050938D01*
X785224Y1050997D01*
X785340Y1051052D01*
X785457Y1051104D01*
X785576Y1051152D01*
X785696Y1051196D01*
X785818Y1051237D01*
X785941Y1051274D01*
X786065Y1051307D01*
X786189Y1051337D01*
X786315Y1051362D01*
X786441Y1051384D01*
X786568Y1051401D01*
X786696Y1051415D01*
X786824Y1051425D01*
X786952Y1051431D01*
X787080Y1051433D01*
X787208Y1051431D01*
X787336Y1051425D01*
X787464Y1051415D01*
X787592Y1051401D01*
X787719Y1051384D01*
X787845Y1051362D01*
X787971Y1051337D01*
X788095Y1051307D01*
X788219Y1051274D01*
X788342Y1051237D01*
X788464Y1051196D01*
X788584Y1051152D01*
X788703Y1051104D01*
X788820Y1051052D01*
X788936Y1050997D01*
X789049Y1050938D01*
X789162Y1050875D01*
X789272Y1050809D01*
X789379Y1050740D01*
X789485Y1050668D01*
X789589Y1050592D01*
X789690Y1050513D01*
X789789Y1050431D01*
X789885Y1050346D01*
X789978Y1050259D01*
X790069Y1050168D01*
X790156Y1050075D01*
X790241Y1049979D01*
X790323Y1049880D01*
X790402Y1049779D01*
X790478Y1049675D01*
X790550Y1049569D01*
X790619Y1049462D01*
X790685Y1049352D01*
X790748Y1049239D01*
X790807Y1049126D01*
X790862Y1049010D01*
X790914Y1048893D01*
X790962Y1048774D01*
X791006Y1048654D01*
X791047Y1048532D01*
X791084Y1048409D01*
X791117Y1048285D01*
X791147Y1048161D01*
X791172Y1048035D01*
X791194Y1047909D01*
X791211Y1047782D01*
X791225Y1047654D01*
X791235Y1047526D01*
X791241Y1047398D01*
X791243Y1047270D01*
X791242Y1047270D02*
X791242Y1040610D01*
X791243Y1040610D02*
X791241Y1040482D01*
X791235Y1040354D01*
X791225Y1040226D01*
X791211Y1040098D01*
X791194Y1039971D01*
X791172Y1039845D01*
X791147Y1039719D01*
X791117Y1039595D01*
X791084Y1039471D01*
X791047Y1039348D01*
X791006Y1039226D01*
X790962Y1039106D01*
X790914Y1038987D01*
X790862Y1038870D01*
X790807Y1038754D01*
X790748Y1038641D01*
X790685Y1038529D01*
X790619Y1038418D01*
X790550Y1038311D01*
X790478Y1038205D01*
X790402Y1038101D01*
X790323Y1038000D01*
X790241Y1037901D01*
X790156Y1037805D01*
X790069Y1037712D01*
X789978Y1037621D01*
X789885Y1037534D01*
X789789Y1037449D01*
X789690Y1037367D01*
X789589Y1037288D01*
X789485Y1037212D01*
X789379Y1037140D01*
X789272Y1037071D01*
X789162Y1037005D01*
X789049Y1036942D01*
X788936Y1036883D01*
X788820Y1036828D01*
X788703Y1036776D01*
X788584Y1036728D01*
X788464Y1036684D01*
X788342Y1036643D01*
X788219Y1036606D01*
X788095Y1036573D01*
X787971Y1036543D01*
X787845Y1036518D01*
X787719Y1036496D01*
X787592Y1036479D01*
X787464Y1036465D01*
X787336Y1036455D01*
X787208Y1036449D01*
X787080Y1036447D01*
X786952Y1036449D01*
X786824Y1036455D01*
X786696Y1036465D01*
X786568Y1036479D01*
X786441Y1036496D01*
X786315Y1036518D01*
X786189Y1036543D01*
X786065Y1036573D01*
X785941Y1036606D01*
X785818Y1036643D01*
X785696Y1036684D01*
X785576Y1036728D01*
X785457Y1036776D01*
X785340Y1036828D01*
X785224Y1036883D01*
X785111Y1036942D01*
X784999Y1037005D01*
X784888Y1037071D01*
X784781Y1037140D01*
X784675Y1037212D01*
X784571Y1037288D01*
X784470Y1037367D01*
X784371Y1037449D01*
X784275Y1037534D01*
X784182Y1037621D01*
X784091Y1037712D01*
X784004Y1037805D01*
X783919Y1037901D01*
X783837Y1038000D01*
X783758Y1038101D01*
X783682Y1038205D01*
X783610Y1038311D01*
X783541Y1038418D01*
X783475Y1038529D01*
X783412Y1038641D01*
X783353Y1038754D01*
X783298Y1038870D01*
X783246Y1038987D01*
X783198Y1039106D01*
X783154Y1039226D01*
X783113Y1039348D01*
X783076Y1039471D01*
X783043Y1039595D01*
X783013Y1039719D01*
X782988Y1039845D01*
X782966Y1039971D01*
X782949Y1040098D01*
X782935Y1040226D01*
X782925Y1040354D01*
X782919Y1040482D01*
X782917Y1040610D01*
X798859Y1038945D02*
X798859Y1046438D01*
X798859Y1038945D02*
X798861Y1038847D01*
X798867Y1038749D01*
X798876Y1038651D01*
X798890Y1038554D01*
X798907Y1038458D01*
X798928Y1038362D01*
X798953Y1038267D01*
X798981Y1038173D01*
X799013Y1038080D01*
X799049Y1037989D01*
X799088Y1037899D01*
X799131Y1037811D01*
X799178Y1037724D01*
X799227Y1037640D01*
X799280Y1037557D01*
X799336Y1037477D01*
X799395Y1037399D01*
X799458Y1037323D01*
X799523Y1037249D01*
X799591Y1037179D01*
X799661Y1037111D01*
X799735Y1037046D01*
X799811Y1036983D01*
X799889Y1036924D01*
X799969Y1036868D01*
X800052Y1036815D01*
X800136Y1036766D01*
X800223Y1036719D01*
X800311Y1036676D01*
X800401Y1036637D01*
X800492Y1036601D01*
X800585Y1036569D01*
X800679Y1036541D01*
X800774Y1036516D01*
X800870Y1036495D01*
X800966Y1036478D01*
X801063Y1036464D01*
X801161Y1036455D01*
X801259Y1036449D01*
X801357Y1036447D01*
X805520Y1036447D01*
X805520Y1046438D01*
X811501Y1046438D02*
X816496Y1046438D01*
X813166Y1051433D02*
X813166Y1038945D01*
X813168Y1038847D01*
X813174Y1038749D01*
X813183Y1038651D01*
X813197Y1038554D01*
X813214Y1038458D01*
X813235Y1038362D01*
X813260Y1038267D01*
X813288Y1038173D01*
X813320Y1038080D01*
X813356Y1037989D01*
X813395Y1037899D01*
X813438Y1037811D01*
X813485Y1037724D01*
X813534Y1037640D01*
X813587Y1037557D01*
X813643Y1037477D01*
X813702Y1037399D01*
X813765Y1037323D01*
X813830Y1037249D01*
X813898Y1037179D01*
X813968Y1037111D01*
X814042Y1037046D01*
X814118Y1036983D01*
X814196Y1036924D01*
X814276Y1036868D01*
X814359Y1036815D01*
X814443Y1036766D01*
X814530Y1036719D01*
X814618Y1036676D01*
X814708Y1036637D01*
X814799Y1036601D01*
X814892Y1036569D01*
X814986Y1036541D01*
X815081Y1036516D01*
X815177Y1036495D01*
X815273Y1036478D01*
X815370Y1036464D01*
X815468Y1036455D01*
X815566Y1036449D01*
X815664Y1036447D01*
X816496Y1036447D01*
D13*
X-2540Y1191260D02*
X-2540Y-119380D01*
D12*
X-42921Y1206627D02*
X-46251Y1216618D01*
X-39590Y1216618D02*
X-42921Y1206627D01*
X-32806Y1212455D02*
X-22815Y1212455D01*
X-14261Y1212455D02*
X-10098Y1210790D01*
X-14261Y1212454D02*
X-14346Y1212490D01*
X-14429Y1212530D01*
X-14510Y1212573D01*
X-14590Y1212620D01*
X-14667Y1212670D01*
X-14743Y1212723D01*
X-14816Y1212779D01*
X-14886Y1212839D01*
X-14954Y1212901D01*
X-15019Y1212966D01*
X-15081Y1213034D01*
X-15141Y1213105D01*
X-15197Y1213178D01*
X-15250Y1213253D01*
X-15300Y1213331D01*
X-15346Y1213410D01*
X-15389Y1213492D01*
X-15429Y1213575D01*
X-15465Y1213660D01*
X-15497Y1213746D01*
X-15526Y1213834D01*
X-15550Y1213923D01*
X-15571Y1214013D01*
X-15588Y1214103D01*
X-15602Y1214194D01*
X-15611Y1214286D01*
X-15616Y1214378D01*
X-15618Y1214470D01*
X-15616Y1214562D01*
X-15609Y1214654D01*
X-15599Y1214746D01*
X-15585Y1214837D01*
X-15567Y1214928D01*
X-15545Y1215017D01*
X-15519Y1215106D01*
X-15489Y1215193D01*
X-15456Y1215279D01*
X-15419Y1215363D01*
X-15379Y1215446D01*
X-15335Y1215527D01*
X-15288Y1215606D01*
X-15237Y1215683D01*
X-15183Y1215758D01*
X-15126Y1215831D01*
X-15066Y1215901D01*
X-15003Y1215968D01*
X-14937Y1216032D01*
X-14869Y1216094D01*
X-14798Y1216153D01*
X-14724Y1216208D01*
X-14648Y1216261D01*
X-14570Y1216310D01*
X-14490Y1216356D01*
X-14409Y1216398D01*
X-14325Y1216437D01*
X-14240Y1216472D01*
X-14153Y1216503D01*
X-14065Y1216531D01*
X-13976Y1216555D01*
X-13886Y1216575D01*
X-13796Y1216592D01*
X-13704Y1216604D01*
X-13612Y1216613D01*
X-13520Y1216617D01*
X-13428Y1216618D01*
X-13201Y1216612D01*
X-12974Y1216601D01*
X-12747Y1216584D01*
X-12521Y1216561D01*
X-12295Y1216534D01*
X-12070Y1216500D01*
X-11846Y1216462D01*
X-11623Y1216418D01*
X-11401Y1216369D01*
X-11180Y1216314D01*
X-10961Y1216254D01*
X-10743Y1216189D01*
X-10527Y1216118D01*
X-10313Y1216043D01*
X-10100Y1215962D01*
X-9890Y1215876D01*
X-9681Y1215785D01*
X-10098Y1210790D02*
X-10013Y1210754D01*
X-9930Y1210714D01*
X-9849Y1210671D01*
X-9769Y1210624D01*
X-9692Y1210574D01*
X-9616Y1210521D01*
X-9543Y1210465D01*
X-9473Y1210405D01*
X-9405Y1210343D01*
X-9340Y1210278D01*
X-9278Y1210210D01*
X-9218Y1210139D01*
X-9162Y1210066D01*
X-9109Y1209991D01*
X-9059Y1209913D01*
X-9013Y1209834D01*
X-8970Y1209752D01*
X-8930Y1209669D01*
X-8894Y1209584D01*
X-8862Y1209498D01*
X-8833Y1209410D01*
X-8809Y1209321D01*
X-8788Y1209231D01*
X-8771Y1209141D01*
X-8757Y1209050D01*
X-8748Y1208958D01*
X-8743Y1208866D01*
X-8741Y1208774D01*
X-8743Y1208682D01*
X-8750Y1208590D01*
X-8760Y1208498D01*
X-8774Y1208407D01*
X-8792Y1208316D01*
X-8814Y1208227D01*
X-8840Y1208138D01*
X-8870Y1208051D01*
X-8903Y1207965D01*
X-8940Y1207881D01*
X-8980Y1207798D01*
X-9024Y1207717D01*
X-9071Y1207638D01*
X-9122Y1207561D01*
X-9176Y1207486D01*
X-9233Y1207413D01*
X-9293Y1207343D01*
X-9356Y1207276D01*
X-9422Y1207212D01*
X-9490Y1207150D01*
X-9561Y1207091D01*
X-9635Y1207036D01*
X-9711Y1206983D01*
X-9789Y1206934D01*
X-9869Y1206888D01*
X-9950Y1206846D01*
X-10034Y1206807D01*
X-10119Y1206772D01*
X-10206Y1206741D01*
X-10294Y1206713D01*
X-10383Y1206689D01*
X-10473Y1206669D01*
X-10563Y1206652D01*
X-10655Y1206640D01*
X-10747Y1206631D01*
X-10839Y1206627D01*
X-10931Y1206626D01*
X-10931Y1206627D02*
X-11265Y1206636D01*
X-11598Y1206653D01*
X-11931Y1206677D01*
X-12264Y1206710D01*
X-12595Y1206750D01*
X-12926Y1206798D01*
X-13255Y1206854D01*
X-13583Y1206917D01*
X-13909Y1206989D01*
X-14233Y1207068D01*
X-14556Y1207154D01*
X-14876Y1207249D01*
X-15194Y1207351D01*
X-15510Y1207460D01*
X562Y1206627D02*
X3892Y1206627D01*
X562Y1206627D02*
X464Y1206629D01*
X366Y1206635D01*
X268Y1206644D01*
X171Y1206658D01*
X75Y1206675D01*
X-21Y1206696D01*
X-116Y1206721D01*
X-210Y1206749D01*
X-303Y1206781D01*
X-394Y1206817D01*
X-484Y1206856D01*
X-572Y1206899D01*
X-659Y1206946D01*
X-743Y1206995D01*
X-826Y1207048D01*
X-906Y1207104D01*
X-985Y1207163D01*
X-1060Y1207226D01*
X-1134Y1207291D01*
X-1204Y1207359D01*
X-1272Y1207429D01*
X-1338Y1207503D01*
X-1400Y1207579D01*
X-1459Y1207657D01*
X-1515Y1207737D01*
X-1568Y1207820D01*
X-1618Y1207904D01*
X-1664Y1207991D01*
X-1707Y1208079D01*
X-1746Y1208169D01*
X-1782Y1208260D01*
X-1814Y1208353D01*
X-1842Y1208447D01*
X-1867Y1208542D01*
X-1888Y1208638D01*
X-1905Y1208734D01*
X-1919Y1208831D01*
X-1928Y1208929D01*
X-1934Y1209027D01*
X-1936Y1209125D01*
X-1936Y1214120D01*
X-1934Y1214218D01*
X-1928Y1214316D01*
X-1919Y1214414D01*
X-1905Y1214511D01*
X-1888Y1214607D01*
X-1867Y1214703D01*
X-1842Y1214798D01*
X-1814Y1214892D01*
X-1782Y1214985D01*
X-1746Y1215076D01*
X-1707Y1215166D01*
X-1664Y1215254D01*
X-1617Y1215341D01*
X-1568Y1215425D01*
X-1515Y1215508D01*
X-1459Y1215588D01*
X-1400Y1215666D01*
X-1337Y1215742D01*
X-1272Y1215816D01*
X-1204Y1215886D01*
X-1134Y1215954D01*
X-1060Y1216019D01*
X-984Y1216082D01*
X-906Y1216141D01*
X-826Y1216197D01*
X-743Y1216250D01*
X-659Y1216299D01*
X-572Y1216346D01*
X-484Y1216389D01*
X-394Y1216428D01*
X-303Y1216464D01*
X-210Y1216496D01*
X-116Y1216524D01*
X-21Y1216549D01*
X75Y1216570D01*
X171Y1216587D01*
X268Y1216601D01*
X366Y1216610D01*
X464Y1216616D01*
X562Y1216618D01*
X3892Y1216618D01*
X10022Y1213287D02*
X10022Y1209957D01*
X10022Y1213287D02*
X10024Y1213401D01*
X10030Y1213514D01*
X10039Y1213628D01*
X10053Y1213740D01*
X10070Y1213853D01*
X10092Y1213965D01*
X10117Y1214075D01*
X10145Y1214185D01*
X10178Y1214294D01*
X10214Y1214402D01*
X10254Y1214509D01*
X10298Y1214614D01*
X10345Y1214717D01*
X10395Y1214819D01*
X10449Y1214919D01*
X10507Y1215017D01*
X10568Y1215113D01*
X10631Y1215207D01*
X10699Y1215299D01*
X10769Y1215389D01*
X10842Y1215475D01*
X10918Y1215560D01*
X10997Y1215642D01*
X11079Y1215721D01*
X11164Y1215797D01*
X11250Y1215870D01*
X11340Y1215940D01*
X11432Y1216008D01*
X11526Y1216071D01*
X11622Y1216132D01*
X11720Y1216190D01*
X11820Y1216244D01*
X11922Y1216294D01*
X12025Y1216341D01*
X12130Y1216385D01*
X12237Y1216425D01*
X12345Y1216461D01*
X12454Y1216494D01*
X12564Y1216522D01*
X12674Y1216547D01*
X12786Y1216569D01*
X12899Y1216586D01*
X13011Y1216600D01*
X13125Y1216609D01*
X13238Y1216615D01*
X13352Y1216617D01*
X13466Y1216615D01*
X13579Y1216609D01*
X13693Y1216600D01*
X13805Y1216586D01*
X13918Y1216569D01*
X14030Y1216547D01*
X14140Y1216522D01*
X14250Y1216494D01*
X14359Y1216461D01*
X14467Y1216425D01*
X14574Y1216385D01*
X14679Y1216341D01*
X14782Y1216294D01*
X14884Y1216244D01*
X14984Y1216190D01*
X15082Y1216132D01*
X15178Y1216071D01*
X15272Y1216008D01*
X15364Y1215940D01*
X15454Y1215870D01*
X15540Y1215797D01*
X15625Y1215721D01*
X15707Y1215642D01*
X15786Y1215560D01*
X15862Y1215475D01*
X15935Y1215389D01*
X16005Y1215299D01*
X16073Y1215207D01*
X16136Y1215113D01*
X16197Y1215017D01*
X16255Y1214919D01*
X16309Y1214819D01*
X16359Y1214717D01*
X16406Y1214614D01*
X16450Y1214509D01*
X16490Y1214402D01*
X16526Y1214294D01*
X16559Y1214185D01*
X16587Y1214075D01*
X16612Y1213965D01*
X16634Y1213853D01*
X16651Y1213740D01*
X16665Y1213628D01*
X16674Y1213514D01*
X16680Y1213401D01*
X16682Y1213287D01*
X16682Y1209957D01*
X16680Y1209843D01*
X16674Y1209730D01*
X16665Y1209616D01*
X16651Y1209504D01*
X16634Y1209391D01*
X16612Y1209279D01*
X16587Y1209169D01*
X16559Y1209059D01*
X16526Y1208950D01*
X16490Y1208842D01*
X16450Y1208735D01*
X16406Y1208630D01*
X16359Y1208527D01*
X16309Y1208425D01*
X16255Y1208325D01*
X16197Y1208227D01*
X16136Y1208131D01*
X16073Y1208037D01*
X16005Y1207945D01*
X15935Y1207855D01*
X15862Y1207769D01*
X15786Y1207684D01*
X15707Y1207602D01*
X15625Y1207523D01*
X15540Y1207447D01*
X15454Y1207374D01*
X15364Y1207304D01*
X15272Y1207236D01*
X15178Y1207173D01*
X15082Y1207112D01*
X14984Y1207054D01*
X14884Y1207000D01*
X14782Y1206950D01*
X14679Y1206903D01*
X14574Y1206859D01*
X14467Y1206819D01*
X14359Y1206783D01*
X14250Y1206750D01*
X14140Y1206722D01*
X14030Y1206697D01*
X13918Y1206675D01*
X13805Y1206658D01*
X13693Y1206644D01*
X13579Y1206635D01*
X13466Y1206629D01*
X13352Y1206627D01*
X13238Y1206629D01*
X13125Y1206635D01*
X13011Y1206644D01*
X12899Y1206658D01*
X12786Y1206675D01*
X12674Y1206697D01*
X12564Y1206722D01*
X12454Y1206750D01*
X12345Y1206783D01*
X12237Y1206819D01*
X12130Y1206859D01*
X12025Y1206903D01*
X11922Y1206950D01*
X11820Y1207000D01*
X11720Y1207054D01*
X11622Y1207112D01*
X11526Y1207173D01*
X11432Y1207236D01*
X11340Y1207304D01*
X11250Y1207374D01*
X11164Y1207447D01*
X11079Y1207523D01*
X10997Y1207602D01*
X10918Y1207684D01*
X10842Y1207769D01*
X10769Y1207855D01*
X10699Y1207945D01*
X10631Y1208037D01*
X10568Y1208131D01*
X10507Y1208227D01*
X10449Y1208325D01*
X10395Y1208425D01*
X10345Y1208527D01*
X10298Y1208630D01*
X10254Y1208735D01*
X10214Y1208842D01*
X10178Y1208950D01*
X10145Y1209059D01*
X10117Y1209169D01*
X10092Y1209279D01*
X10070Y1209391D01*
X10053Y1209504D01*
X10039Y1209616D01*
X10030Y1209730D01*
X10024Y1209843D01*
X10022Y1209957D01*
X24218Y1206627D02*
X24218Y1216618D01*
X29213Y1216618D01*
X29213Y1214953D01*
X37008Y1206627D02*
X41171Y1206627D01*
X37008Y1206627D02*
X36910Y1206629D01*
X36812Y1206635D01*
X36714Y1206644D01*
X36617Y1206658D01*
X36521Y1206675D01*
X36425Y1206696D01*
X36330Y1206721D01*
X36236Y1206749D01*
X36143Y1206781D01*
X36052Y1206817D01*
X35962Y1206856D01*
X35874Y1206899D01*
X35787Y1206946D01*
X35703Y1206995D01*
X35620Y1207048D01*
X35540Y1207104D01*
X35462Y1207163D01*
X35386Y1207226D01*
X35312Y1207291D01*
X35242Y1207359D01*
X35174Y1207429D01*
X35109Y1207503D01*
X35046Y1207579D01*
X34987Y1207657D01*
X34931Y1207737D01*
X34878Y1207820D01*
X34829Y1207904D01*
X34782Y1207991D01*
X34739Y1208079D01*
X34700Y1208169D01*
X34664Y1208260D01*
X34632Y1208353D01*
X34604Y1208447D01*
X34579Y1208542D01*
X34558Y1208638D01*
X34541Y1208734D01*
X34527Y1208831D01*
X34518Y1208929D01*
X34512Y1209027D01*
X34510Y1209125D01*
X34510Y1213287D01*
X34511Y1213287D02*
X34513Y1213401D01*
X34519Y1213514D01*
X34528Y1213628D01*
X34542Y1213740D01*
X34559Y1213853D01*
X34581Y1213965D01*
X34606Y1214075D01*
X34634Y1214185D01*
X34667Y1214294D01*
X34703Y1214402D01*
X34743Y1214509D01*
X34787Y1214614D01*
X34834Y1214717D01*
X34884Y1214819D01*
X34938Y1214919D01*
X34996Y1215017D01*
X35057Y1215113D01*
X35120Y1215207D01*
X35188Y1215299D01*
X35258Y1215389D01*
X35331Y1215475D01*
X35407Y1215560D01*
X35486Y1215642D01*
X35568Y1215721D01*
X35653Y1215797D01*
X35739Y1215870D01*
X35829Y1215940D01*
X35921Y1216008D01*
X36015Y1216071D01*
X36111Y1216132D01*
X36209Y1216190D01*
X36309Y1216244D01*
X36411Y1216294D01*
X36514Y1216341D01*
X36619Y1216385D01*
X36726Y1216425D01*
X36834Y1216461D01*
X36943Y1216494D01*
X37053Y1216522D01*
X37163Y1216547D01*
X37275Y1216569D01*
X37388Y1216586D01*
X37500Y1216600D01*
X37614Y1216609D01*
X37727Y1216615D01*
X37841Y1216617D01*
X37955Y1216615D01*
X38068Y1216609D01*
X38182Y1216600D01*
X38294Y1216586D01*
X38407Y1216569D01*
X38519Y1216547D01*
X38629Y1216522D01*
X38739Y1216494D01*
X38848Y1216461D01*
X38956Y1216425D01*
X39063Y1216385D01*
X39168Y1216341D01*
X39271Y1216294D01*
X39373Y1216244D01*
X39473Y1216190D01*
X39571Y1216132D01*
X39667Y1216071D01*
X39761Y1216008D01*
X39853Y1215940D01*
X39943Y1215870D01*
X40029Y1215797D01*
X40114Y1215721D01*
X40196Y1215642D01*
X40275Y1215560D01*
X40351Y1215475D01*
X40424Y1215389D01*
X40494Y1215299D01*
X40562Y1215207D01*
X40625Y1215113D01*
X40686Y1215017D01*
X40744Y1214919D01*
X40798Y1214819D01*
X40848Y1214717D01*
X40895Y1214614D01*
X40939Y1214509D01*
X40979Y1214402D01*
X41015Y1214294D01*
X41048Y1214185D01*
X41076Y1214075D01*
X41101Y1213965D01*
X41123Y1213853D01*
X41140Y1213740D01*
X41154Y1213628D01*
X41163Y1213514D01*
X41169Y1213401D01*
X41171Y1213287D01*
X41171Y1211622D01*
X34510Y1211622D01*
D13*
X1526540Y1191260D02*
X1526540Y-119380D01*
D12*
X1486159Y1206627D02*
X1482829Y1216618D01*
X1489490Y1216618D02*
X1486159Y1206627D01*
X1496274Y1212455D02*
X1506265Y1212455D01*
X1514819Y1212455D02*
X1518982Y1210790D01*
X1514819Y1212454D02*
X1514734Y1212490D01*
X1514651Y1212530D01*
X1514570Y1212573D01*
X1514490Y1212620D01*
X1514413Y1212670D01*
X1514337Y1212723D01*
X1514264Y1212779D01*
X1514194Y1212839D01*
X1514126Y1212901D01*
X1514061Y1212966D01*
X1513999Y1213034D01*
X1513939Y1213105D01*
X1513883Y1213178D01*
X1513830Y1213253D01*
X1513780Y1213331D01*
X1513734Y1213410D01*
X1513691Y1213492D01*
X1513651Y1213575D01*
X1513615Y1213660D01*
X1513583Y1213746D01*
X1513554Y1213834D01*
X1513530Y1213923D01*
X1513509Y1214013D01*
X1513492Y1214103D01*
X1513478Y1214194D01*
X1513469Y1214286D01*
X1513464Y1214378D01*
X1513462Y1214470D01*
X1513464Y1214562D01*
X1513471Y1214654D01*
X1513481Y1214746D01*
X1513495Y1214837D01*
X1513513Y1214928D01*
X1513535Y1215017D01*
X1513561Y1215106D01*
X1513591Y1215193D01*
X1513624Y1215279D01*
X1513661Y1215363D01*
X1513701Y1215446D01*
X1513745Y1215527D01*
X1513792Y1215606D01*
X1513843Y1215683D01*
X1513897Y1215758D01*
X1513954Y1215831D01*
X1514014Y1215901D01*
X1514077Y1215968D01*
X1514143Y1216032D01*
X1514211Y1216094D01*
X1514282Y1216153D01*
X1514356Y1216208D01*
X1514432Y1216261D01*
X1514510Y1216310D01*
X1514590Y1216356D01*
X1514671Y1216398D01*
X1514755Y1216437D01*
X1514840Y1216472D01*
X1514927Y1216503D01*
X1515015Y1216531D01*
X1515104Y1216555D01*
X1515194Y1216575D01*
X1515284Y1216592D01*
X1515376Y1216604D01*
X1515468Y1216613D01*
X1515560Y1216617D01*
X1515652Y1216618D01*
X1515879Y1216612D01*
X1516106Y1216601D01*
X1516333Y1216584D01*
X1516559Y1216561D01*
X1516785Y1216534D01*
X1517010Y1216500D01*
X1517234Y1216462D01*
X1517457Y1216418D01*
X1517679Y1216369D01*
X1517900Y1216314D01*
X1518119Y1216254D01*
X1518337Y1216189D01*
X1518553Y1216118D01*
X1518767Y1216043D01*
X1518980Y1215962D01*
X1519190Y1215876D01*
X1519399Y1215785D01*
X1518982Y1210790D02*
X1519067Y1210754D01*
X1519150Y1210714D01*
X1519231Y1210671D01*
X1519311Y1210624D01*
X1519388Y1210574D01*
X1519464Y1210521D01*
X1519537Y1210465D01*
X1519607Y1210405D01*
X1519675Y1210343D01*
X1519740Y1210278D01*
X1519802Y1210210D01*
X1519862Y1210139D01*
X1519918Y1210066D01*
X1519971Y1209991D01*
X1520021Y1209913D01*
X1520067Y1209834D01*
X1520110Y1209752D01*
X1520150Y1209669D01*
X1520186Y1209584D01*
X1520218Y1209498D01*
X1520247Y1209410D01*
X1520271Y1209321D01*
X1520292Y1209231D01*
X1520309Y1209141D01*
X1520323Y1209050D01*
X1520332Y1208958D01*
X1520337Y1208866D01*
X1520339Y1208774D01*
X1520337Y1208682D01*
X1520330Y1208590D01*
X1520320Y1208498D01*
X1520306Y1208407D01*
X1520288Y1208316D01*
X1520266Y1208227D01*
X1520240Y1208138D01*
X1520210Y1208051D01*
X1520177Y1207965D01*
X1520140Y1207881D01*
X1520100Y1207798D01*
X1520056Y1207717D01*
X1520009Y1207638D01*
X1519958Y1207561D01*
X1519904Y1207486D01*
X1519847Y1207413D01*
X1519787Y1207343D01*
X1519724Y1207276D01*
X1519658Y1207212D01*
X1519590Y1207150D01*
X1519519Y1207091D01*
X1519445Y1207036D01*
X1519369Y1206983D01*
X1519291Y1206934D01*
X1519211Y1206888D01*
X1519130Y1206846D01*
X1519046Y1206807D01*
X1518961Y1206772D01*
X1518874Y1206741D01*
X1518786Y1206713D01*
X1518697Y1206689D01*
X1518607Y1206669D01*
X1518517Y1206652D01*
X1518425Y1206640D01*
X1518333Y1206631D01*
X1518241Y1206627D01*
X1518149Y1206626D01*
X1518149Y1206627D02*
X1517815Y1206636D01*
X1517482Y1206653D01*
X1517149Y1206677D01*
X1516816Y1206710D01*
X1516485Y1206750D01*
X1516154Y1206798D01*
X1515825Y1206854D01*
X1515497Y1206917D01*
X1515171Y1206989D01*
X1514847Y1207068D01*
X1514524Y1207154D01*
X1514204Y1207249D01*
X1513886Y1207351D01*
X1513570Y1207460D01*
X1529642Y1206627D02*
X1532972Y1206627D01*
X1529642Y1206627D02*
X1529544Y1206629D01*
X1529446Y1206635D01*
X1529348Y1206644D01*
X1529251Y1206658D01*
X1529155Y1206675D01*
X1529059Y1206696D01*
X1528964Y1206721D01*
X1528870Y1206749D01*
X1528777Y1206781D01*
X1528686Y1206817D01*
X1528596Y1206856D01*
X1528508Y1206899D01*
X1528421Y1206946D01*
X1528337Y1206995D01*
X1528254Y1207048D01*
X1528174Y1207104D01*
X1528096Y1207163D01*
X1528020Y1207226D01*
X1527946Y1207291D01*
X1527876Y1207359D01*
X1527808Y1207429D01*
X1527743Y1207503D01*
X1527680Y1207579D01*
X1527621Y1207657D01*
X1527565Y1207737D01*
X1527512Y1207820D01*
X1527463Y1207904D01*
X1527416Y1207991D01*
X1527373Y1208079D01*
X1527334Y1208169D01*
X1527298Y1208260D01*
X1527266Y1208353D01*
X1527238Y1208447D01*
X1527213Y1208542D01*
X1527192Y1208638D01*
X1527175Y1208734D01*
X1527161Y1208831D01*
X1527152Y1208929D01*
X1527146Y1209027D01*
X1527144Y1209125D01*
X1527144Y1214120D01*
X1527146Y1214218D01*
X1527152Y1214316D01*
X1527161Y1214414D01*
X1527175Y1214511D01*
X1527192Y1214607D01*
X1527213Y1214703D01*
X1527238Y1214798D01*
X1527266Y1214892D01*
X1527298Y1214985D01*
X1527334Y1215076D01*
X1527373Y1215166D01*
X1527416Y1215254D01*
X1527463Y1215341D01*
X1527512Y1215425D01*
X1527565Y1215508D01*
X1527621Y1215588D01*
X1527680Y1215667D01*
X1527743Y1215742D01*
X1527808Y1215816D01*
X1527876Y1215886D01*
X1527946Y1215954D01*
X1528020Y1216020D01*
X1528096Y1216082D01*
X1528174Y1216141D01*
X1528254Y1216197D01*
X1528337Y1216250D01*
X1528421Y1216300D01*
X1528508Y1216346D01*
X1528596Y1216389D01*
X1528686Y1216428D01*
X1528777Y1216464D01*
X1528870Y1216496D01*
X1528964Y1216524D01*
X1529059Y1216549D01*
X1529155Y1216570D01*
X1529251Y1216587D01*
X1529348Y1216601D01*
X1529446Y1216610D01*
X1529544Y1216616D01*
X1529642Y1216618D01*
X1532972Y1216618D01*
X1539102Y1213287D02*
X1539102Y1209957D01*
X1539102Y1213287D02*
X1539104Y1213401D01*
X1539110Y1213514D01*
X1539119Y1213628D01*
X1539133Y1213740D01*
X1539150Y1213853D01*
X1539172Y1213965D01*
X1539197Y1214075D01*
X1539225Y1214185D01*
X1539258Y1214294D01*
X1539294Y1214402D01*
X1539334Y1214509D01*
X1539378Y1214614D01*
X1539425Y1214717D01*
X1539475Y1214819D01*
X1539529Y1214919D01*
X1539587Y1215017D01*
X1539648Y1215113D01*
X1539711Y1215207D01*
X1539779Y1215299D01*
X1539849Y1215389D01*
X1539922Y1215475D01*
X1539998Y1215560D01*
X1540077Y1215642D01*
X1540159Y1215721D01*
X1540244Y1215797D01*
X1540330Y1215870D01*
X1540420Y1215940D01*
X1540512Y1216008D01*
X1540606Y1216071D01*
X1540702Y1216132D01*
X1540800Y1216190D01*
X1540900Y1216244D01*
X1541002Y1216294D01*
X1541105Y1216341D01*
X1541210Y1216385D01*
X1541317Y1216425D01*
X1541425Y1216461D01*
X1541534Y1216494D01*
X1541644Y1216522D01*
X1541754Y1216547D01*
X1541866Y1216569D01*
X1541979Y1216586D01*
X1542091Y1216600D01*
X1542205Y1216609D01*
X1542318Y1216615D01*
X1542432Y1216617D01*
X1542546Y1216615D01*
X1542659Y1216609D01*
X1542773Y1216600D01*
X1542885Y1216586D01*
X1542998Y1216569D01*
X1543110Y1216547D01*
X1543220Y1216522D01*
X1543330Y1216494D01*
X1543439Y1216461D01*
X1543547Y1216425D01*
X1543654Y1216385D01*
X1543759Y1216341D01*
X1543862Y1216294D01*
X1543964Y1216244D01*
X1544064Y1216190D01*
X1544162Y1216132D01*
X1544258Y1216071D01*
X1544352Y1216008D01*
X1544444Y1215940D01*
X1544534Y1215870D01*
X1544620Y1215797D01*
X1544705Y1215721D01*
X1544787Y1215642D01*
X1544866Y1215560D01*
X1544942Y1215475D01*
X1545015Y1215389D01*
X1545085Y1215299D01*
X1545153Y1215207D01*
X1545216Y1215113D01*
X1545277Y1215017D01*
X1545335Y1214919D01*
X1545389Y1214819D01*
X1545439Y1214717D01*
X1545486Y1214614D01*
X1545530Y1214509D01*
X1545570Y1214402D01*
X1545606Y1214294D01*
X1545639Y1214185D01*
X1545667Y1214075D01*
X1545692Y1213965D01*
X1545714Y1213853D01*
X1545731Y1213740D01*
X1545745Y1213628D01*
X1545754Y1213514D01*
X1545760Y1213401D01*
X1545762Y1213287D01*
X1545762Y1209957D01*
X1545760Y1209843D01*
X1545754Y1209730D01*
X1545745Y1209616D01*
X1545731Y1209504D01*
X1545714Y1209391D01*
X1545692Y1209279D01*
X1545667Y1209169D01*
X1545639Y1209059D01*
X1545606Y1208950D01*
X1545570Y1208842D01*
X1545530Y1208735D01*
X1545486Y1208630D01*
X1545439Y1208527D01*
X1545389Y1208425D01*
X1545335Y1208325D01*
X1545277Y1208227D01*
X1545216Y1208131D01*
X1545153Y1208037D01*
X1545085Y1207945D01*
X1545015Y1207855D01*
X1544942Y1207769D01*
X1544866Y1207684D01*
X1544787Y1207602D01*
X1544705Y1207523D01*
X1544620Y1207447D01*
X1544534Y1207374D01*
X1544444Y1207304D01*
X1544352Y1207236D01*
X1544258Y1207173D01*
X1544162Y1207112D01*
X1544064Y1207054D01*
X1543964Y1207000D01*
X1543862Y1206950D01*
X1543759Y1206903D01*
X1543654Y1206859D01*
X1543547Y1206819D01*
X1543439Y1206783D01*
X1543330Y1206750D01*
X1543220Y1206722D01*
X1543110Y1206697D01*
X1542998Y1206675D01*
X1542885Y1206658D01*
X1542773Y1206644D01*
X1542659Y1206635D01*
X1542546Y1206629D01*
X1542432Y1206627D01*
X1542318Y1206629D01*
X1542205Y1206635D01*
X1542091Y1206644D01*
X1541979Y1206658D01*
X1541866Y1206675D01*
X1541754Y1206697D01*
X1541644Y1206722D01*
X1541534Y1206750D01*
X1541425Y1206783D01*
X1541317Y1206819D01*
X1541210Y1206859D01*
X1541105Y1206903D01*
X1541002Y1206950D01*
X1540900Y1207000D01*
X1540800Y1207054D01*
X1540702Y1207112D01*
X1540606Y1207173D01*
X1540512Y1207236D01*
X1540420Y1207304D01*
X1540330Y1207374D01*
X1540244Y1207447D01*
X1540159Y1207523D01*
X1540077Y1207602D01*
X1539998Y1207684D01*
X1539922Y1207769D01*
X1539849Y1207855D01*
X1539779Y1207945D01*
X1539711Y1208037D01*
X1539648Y1208131D01*
X1539587Y1208227D01*
X1539529Y1208325D01*
X1539475Y1208425D01*
X1539425Y1208527D01*
X1539378Y1208630D01*
X1539334Y1208735D01*
X1539294Y1208842D01*
X1539258Y1208950D01*
X1539225Y1209059D01*
X1539197Y1209169D01*
X1539172Y1209279D01*
X1539150Y1209391D01*
X1539133Y1209504D01*
X1539119Y1209616D01*
X1539110Y1209730D01*
X1539104Y1209843D01*
X1539102Y1209957D01*
X1553298Y1206627D02*
X1553298Y1216618D01*
X1558293Y1216618D01*
X1558293Y1214953D01*
X1566088Y1206627D02*
X1570251Y1206627D01*
X1566088Y1206627D02*
X1565990Y1206629D01*
X1565892Y1206635D01*
X1565794Y1206644D01*
X1565697Y1206658D01*
X1565601Y1206675D01*
X1565505Y1206696D01*
X1565410Y1206721D01*
X1565316Y1206749D01*
X1565223Y1206781D01*
X1565132Y1206817D01*
X1565042Y1206856D01*
X1564954Y1206899D01*
X1564867Y1206946D01*
X1564783Y1206995D01*
X1564700Y1207048D01*
X1564620Y1207104D01*
X1564542Y1207163D01*
X1564466Y1207226D01*
X1564392Y1207291D01*
X1564322Y1207359D01*
X1564254Y1207429D01*
X1564189Y1207503D01*
X1564126Y1207579D01*
X1564067Y1207657D01*
X1564011Y1207737D01*
X1563958Y1207820D01*
X1563909Y1207904D01*
X1563862Y1207991D01*
X1563819Y1208079D01*
X1563780Y1208169D01*
X1563744Y1208260D01*
X1563712Y1208353D01*
X1563684Y1208447D01*
X1563659Y1208542D01*
X1563638Y1208638D01*
X1563621Y1208734D01*
X1563607Y1208831D01*
X1563598Y1208929D01*
X1563592Y1209027D01*
X1563590Y1209125D01*
X1563590Y1213287D01*
X1563591Y1213287D02*
X1563593Y1213401D01*
X1563599Y1213514D01*
X1563608Y1213628D01*
X1563622Y1213740D01*
X1563639Y1213853D01*
X1563661Y1213965D01*
X1563686Y1214075D01*
X1563714Y1214185D01*
X1563747Y1214294D01*
X1563783Y1214402D01*
X1563823Y1214509D01*
X1563867Y1214614D01*
X1563914Y1214717D01*
X1563964Y1214819D01*
X1564018Y1214919D01*
X1564076Y1215017D01*
X1564137Y1215113D01*
X1564200Y1215207D01*
X1564268Y1215299D01*
X1564338Y1215389D01*
X1564411Y1215475D01*
X1564487Y1215560D01*
X1564566Y1215642D01*
X1564648Y1215721D01*
X1564733Y1215797D01*
X1564819Y1215870D01*
X1564909Y1215940D01*
X1565001Y1216008D01*
X1565095Y1216071D01*
X1565191Y1216132D01*
X1565289Y1216190D01*
X1565389Y1216244D01*
X1565491Y1216294D01*
X1565594Y1216341D01*
X1565699Y1216385D01*
X1565806Y1216425D01*
X1565914Y1216461D01*
X1566023Y1216494D01*
X1566133Y1216522D01*
X1566243Y1216547D01*
X1566355Y1216569D01*
X1566468Y1216586D01*
X1566580Y1216600D01*
X1566694Y1216609D01*
X1566807Y1216615D01*
X1566921Y1216617D01*
X1567035Y1216615D01*
X1567148Y1216609D01*
X1567262Y1216600D01*
X1567374Y1216586D01*
X1567487Y1216569D01*
X1567599Y1216547D01*
X1567709Y1216522D01*
X1567819Y1216494D01*
X1567928Y1216461D01*
X1568036Y1216425D01*
X1568143Y1216385D01*
X1568248Y1216341D01*
X1568351Y1216294D01*
X1568453Y1216244D01*
X1568553Y1216190D01*
X1568651Y1216132D01*
X1568747Y1216071D01*
X1568841Y1216008D01*
X1568933Y1215940D01*
X1569023Y1215870D01*
X1569109Y1215797D01*
X1569194Y1215721D01*
X1569276Y1215642D01*
X1569355Y1215560D01*
X1569431Y1215475D01*
X1569504Y1215389D01*
X1569574Y1215299D01*
X1569642Y1215207D01*
X1569705Y1215113D01*
X1569766Y1215017D01*
X1569824Y1214919D01*
X1569878Y1214819D01*
X1569928Y1214717D01*
X1569975Y1214614D01*
X1570019Y1214509D01*
X1570059Y1214402D01*
X1570095Y1214294D01*
X1570128Y1214185D01*
X1570156Y1214075D01*
X1570181Y1213965D01*
X1570203Y1213853D01*
X1570220Y1213740D01*
X1570234Y1213628D01*
X1570243Y1213514D01*
X1570249Y1213401D01*
X1570251Y1213287D01*
X1570251Y1211622D01*
X1563590Y1211622D01*
D14*
X1529080Y-55880D02*
X-5080Y-55880D01*
X-68580Y-119380D02*
X1592580Y-119380D01*
X1592580Y1135380D01*
X1529080Y1071880D02*
X1529080Y-55880D01*
X1592580Y1135380D02*
X-68580Y1135380D01*
X-5080Y1071880D02*
X1529080Y1071880D01*
X-5080Y1071880D02*
X-5080Y-55880D01*
X-68580Y-119380D02*
X-68580Y1135380D01*
D15*
X1483360Y25400D02*
X1483365Y25774D01*
X1483378Y26148D01*
X1483401Y26521D01*
X1483433Y26894D01*
X1483475Y27266D01*
X1483525Y27636D01*
X1483584Y28005D01*
X1483653Y28373D01*
X1483730Y28739D01*
X1483817Y29103D01*
X1483912Y29465D01*
X1484016Y29824D01*
X1484129Y30181D01*
X1484251Y30534D01*
X1484381Y30885D01*
X1484520Y31232D01*
X1484667Y31576D01*
X1484823Y31916D01*
X1484987Y32252D01*
X1485160Y32584D01*
X1485340Y32912D01*
X1485528Y33235D01*
X1485724Y33553D01*
X1485928Y33867D01*
X1486140Y34175D01*
X1486359Y34478D01*
X1486586Y34776D01*
X1486819Y35068D01*
X1487060Y35354D01*
X1487308Y35635D01*
X1487562Y35909D01*
X1487824Y36176D01*
X1488091Y36438D01*
X1488365Y36692D01*
X1488646Y36940D01*
X1488932Y37181D01*
X1489224Y37414D01*
X1489522Y37641D01*
X1489825Y37860D01*
X1490133Y38072D01*
X1490447Y38276D01*
X1490765Y38472D01*
X1491088Y38660D01*
X1491416Y38840D01*
X1491748Y39013D01*
X1492084Y39177D01*
X1492424Y39333D01*
X1492768Y39480D01*
X1493115Y39619D01*
X1493466Y39749D01*
X1493819Y39871D01*
X1494176Y39984D01*
X1494535Y40088D01*
X1494897Y40183D01*
X1495261Y40270D01*
X1495627Y40347D01*
X1495995Y40416D01*
X1496364Y40475D01*
X1496734Y40525D01*
X1497106Y40567D01*
X1497479Y40599D01*
X1497852Y40622D01*
X1498226Y40635D01*
X1498600Y40640D01*
X1498974Y40635D01*
X1499348Y40622D01*
X1499721Y40599D01*
X1500094Y40567D01*
X1500466Y40525D01*
X1500836Y40475D01*
X1501205Y40416D01*
X1501573Y40347D01*
X1501939Y40270D01*
X1502303Y40183D01*
X1502665Y40088D01*
X1503024Y39984D01*
X1503381Y39871D01*
X1503734Y39749D01*
X1504085Y39619D01*
X1504432Y39480D01*
X1504776Y39333D01*
X1505116Y39177D01*
X1505452Y39013D01*
X1505784Y38840D01*
X1506112Y38660D01*
X1506435Y38472D01*
X1506753Y38276D01*
X1507067Y38072D01*
X1507375Y37860D01*
X1507678Y37641D01*
X1507976Y37414D01*
X1508268Y37181D01*
X1508554Y36940D01*
X1508835Y36692D01*
X1509109Y36438D01*
X1509376Y36176D01*
X1509638Y35909D01*
X1509892Y35635D01*
X1510140Y35354D01*
X1510381Y35068D01*
X1510614Y34776D01*
X1510841Y34478D01*
X1511060Y34175D01*
X1511272Y33867D01*
X1511476Y33553D01*
X1511672Y33235D01*
X1511860Y32912D01*
X1512040Y32584D01*
X1512213Y32252D01*
X1512377Y31916D01*
X1512533Y31576D01*
X1512680Y31232D01*
X1512819Y30885D01*
X1512949Y30534D01*
X1513071Y30181D01*
X1513184Y29824D01*
X1513288Y29465D01*
X1513383Y29103D01*
X1513470Y28739D01*
X1513547Y28373D01*
X1513616Y28005D01*
X1513675Y27636D01*
X1513725Y27266D01*
X1513767Y26894D01*
X1513799Y26521D01*
X1513822Y26148D01*
X1513835Y25774D01*
X1513840Y25400D01*
X1513835Y25026D01*
X1513822Y24652D01*
X1513799Y24279D01*
X1513767Y23906D01*
X1513725Y23534D01*
X1513675Y23164D01*
X1513616Y22795D01*
X1513547Y22427D01*
X1513470Y22061D01*
X1513383Y21697D01*
X1513288Y21335D01*
X1513184Y20976D01*
X1513071Y20619D01*
X1512949Y20266D01*
X1512819Y19915D01*
X1512680Y19568D01*
X1512533Y19224D01*
X1512377Y18884D01*
X1512213Y18548D01*
X1512040Y18216D01*
X1511860Y17888D01*
X1511672Y17565D01*
X1511476Y17247D01*
X1511272Y16933D01*
X1511060Y16625D01*
X1510841Y16322D01*
X1510614Y16024D01*
X1510381Y15732D01*
X1510140Y15446D01*
X1509892Y15165D01*
X1509638Y14891D01*
X1509376Y14624D01*
X1509109Y14362D01*
X1508835Y14108D01*
X1508554Y13860D01*
X1508268Y13619D01*
X1507976Y13386D01*
X1507678Y13159D01*
X1507375Y12940D01*
X1507067Y12728D01*
X1506753Y12524D01*
X1506435Y12328D01*
X1506112Y12140D01*
X1505784Y11960D01*
X1505452Y11787D01*
X1505116Y11623D01*
X1504776Y11467D01*
X1504432Y11320D01*
X1504085Y11181D01*
X1503734Y11051D01*
X1503381Y10929D01*
X1503024Y10816D01*
X1502665Y10712D01*
X1502303Y10617D01*
X1501939Y10530D01*
X1501573Y10453D01*
X1501205Y10384D01*
X1500836Y10325D01*
X1500466Y10275D01*
X1500094Y10233D01*
X1499721Y10201D01*
X1499348Y10178D01*
X1498974Y10165D01*
X1498600Y10160D01*
X1498226Y10165D01*
X1497852Y10178D01*
X1497479Y10201D01*
X1497106Y10233D01*
X1496734Y10275D01*
X1496364Y10325D01*
X1495995Y10384D01*
X1495627Y10453D01*
X1495261Y10530D01*
X1494897Y10617D01*
X1494535Y10712D01*
X1494176Y10816D01*
X1493819Y10929D01*
X1493466Y11051D01*
X1493115Y11181D01*
X1492768Y11320D01*
X1492424Y11467D01*
X1492084Y11623D01*
X1491748Y11787D01*
X1491416Y11960D01*
X1491088Y12140D01*
X1490765Y12328D01*
X1490447Y12524D01*
X1490133Y12728D01*
X1489825Y12940D01*
X1489522Y13159D01*
X1489224Y13386D01*
X1488932Y13619D01*
X1488646Y13860D01*
X1488365Y14108D01*
X1488091Y14362D01*
X1487824Y14624D01*
X1487562Y14891D01*
X1487308Y15165D01*
X1487060Y15446D01*
X1486819Y15732D01*
X1486586Y16024D01*
X1486359Y16322D01*
X1486140Y16625D01*
X1485928Y16933D01*
X1485724Y17247D01*
X1485528Y17565D01*
X1485340Y17888D01*
X1485160Y18216D01*
X1484987Y18548D01*
X1484823Y18884D01*
X1484667Y19224D01*
X1484520Y19568D01*
X1484381Y19915D01*
X1484251Y20266D01*
X1484129Y20619D01*
X1484016Y20976D01*
X1483912Y21335D01*
X1483817Y21697D01*
X1483730Y22061D01*
X1483653Y22427D01*
X1483584Y22795D01*
X1483525Y23164D01*
X1483475Y23534D01*
X1483433Y23906D01*
X1483401Y24279D01*
X1483378Y24652D01*
X1483365Y25026D01*
X1483360Y25400D01*
X1483360Y990600D02*
X1483365Y990974D01*
X1483378Y991348D01*
X1483401Y991721D01*
X1483433Y992094D01*
X1483475Y992466D01*
X1483525Y992836D01*
X1483584Y993205D01*
X1483653Y993573D01*
X1483730Y993939D01*
X1483817Y994303D01*
X1483912Y994665D01*
X1484016Y995024D01*
X1484129Y995381D01*
X1484251Y995734D01*
X1484381Y996085D01*
X1484520Y996432D01*
X1484667Y996776D01*
X1484823Y997116D01*
X1484987Y997452D01*
X1485160Y997784D01*
X1485340Y998112D01*
X1485528Y998435D01*
X1485724Y998753D01*
X1485928Y999067D01*
X1486140Y999375D01*
X1486359Y999678D01*
X1486586Y999976D01*
X1486819Y1000268D01*
X1487060Y1000554D01*
X1487308Y1000835D01*
X1487562Y1001109D01*
X1487824Y1001376D01*
X1488091Y1001638D01*
X1488365Y1001892D01*
X1488646Y1002140D01*
X1488932Y1002381D01*
X1489224Y1002614D01*
X1489522Y1002841D01*
X1489825Y1003060D01*
X1490133Y1003272D01*
X1490447Y1003476D01*
X1490765Y1003672D01*
X1491088Y1003860D01*
X1491416Y1004040D01*
X1491748Y1004213D01*
X1492084Y1004377D01*
X1492424Y1004533D01*
X1492768Y1004680D01*
X1493115Y1004819D01*
X1493466Y1004949D01*
X1493819Y1005071D01*
X1494176Y1005184D01*
X1494535Y1005288D01*
X1494897Y1005383D01*
X1495261Y1005470D01*
X1495627Y1005547D01*
X1495995Y1005616D01*
X1496364Y1005675D01*
X1496734Y1005725D01*
X1497106Y1005767D01*
X1497479Y1005799D01*
X1497852Y1005822D01*
X1498226Y1005835D01*
X1498600Y1005840D01*
X1498974Y1005835D01*
X1499348Y1005822D01*
X1499721Y1005799D01*
X1500094Y1005767D01*
X1500466Y1005725D01*
X1500836Y1005675D01*
X1501205Y1005616D01*
X1501573Y1005547D01*
X1501939Y1005470D01*
X1502303Y1005383D01*
X1502665Y1005288D01*
X1503024Y1005184D01*
X1503381Y1005071D01*
X1503734Y1004949D01*
X1504085Y1004819D01*
X1504432Y1004680D01*
X1504776Y1004533D01*
X1505116Y1004377D01*
X1505452Y1004213D01*
X1505784Y1004040D01*
X1506112Y1003860D01*
X1506435Y1003672D01*
X1506753Y1003476D01*
X1507067Y1003272D01*
X1507375Y1003060D01*
X1507678Y1002841D01*
X1507976Y1002614D01*
X1508268Y1002381D01*
X1508554Y1002140D01*
X1508835Y1001892D01*
X1509109Y1001638D01*
X1509376Y1001376D01*
X1509638Y1001109D01*
X1509892Y1000835D01*
X1510140Y1000554D01*
X1510381Y1000268D01*
X1510614Y999976D01*
X1510841Y999678D01*
X1511060Y999375D01*
X1511272Y999067D01*
X1511476Y998753D01*
X1511672Y998435D01*
X1511860Y998112D01*
X1512040Y997784D01*
X1512213Y997452D01*
X1512377Y997116D01*
X1512533Y996776D01*
X1512680Y996432D01*
X1512819Y996085D01*
X1512949Y995734D01*
X1513071Y995381D01*
X1513184Y995024D01*
X1513288Y994665D01*
X1513383Y994303D01*
X1513470Y993939D01*
X1513547Y993573D01*
X1513616Y993205D01*
X1513675Y992836D01*
X1513725Y992466D01*
X1513767Y992094D01*
X1513799Y991721D01*
X1513822Y991348D01*
X1513835Y990974D01*
X1513840Y990600D01*
X1513835Y990226D01*
X1513822Y989852D01*
X1513799Y989479D01*
X1513767Y989106D01*
X1513725Y988734D01*
X1513675Y988364D01*
X1513616Y987995D01*
X1513547Y987627D01*
X1513470Y987261D01*
X1513383Y986897D01*
X1513288Y986535D01*
X1513184Y986176D01*
X1513071Y985819D01*
X1512949Y985466D01*
X1512819Y985115D01*
X1512680Y984768D01*
X1512533Y984424D01*
X1512377Y984084D01*
X1512213Y983748D01*
X1512040Y983416D01*
X1511860Y983088D01*
X1511672Y982765D01*
X1511476Y982447D01*
X1511272Y982133D01*
X1511060Y981825D01*
X1510841Y981522D01*
X1510614Y981224D01*
X1510381Y980932D01*
X1510140Y980646D01*
X1509892Y980365D01*
X1509638Y980091D01*
X1509376Y979824D01*
X1509109Y979562D01*
X1508835Y979308D01*
X1508554Y979060D01*
X1508268Y978819D01*
X1507976Y978586D01*
X1507678Y978359D01*
X1507375Y978140D01*
X1507067Y977928D01*
X1506753Y977724D01*
X1506435Y977528D01*
X1506112Y977340D01*
X1505784Y977160D01*
X1505452Y976987D01*
X1505116Y976823D01*
X1504776Y976667D01*
X1504432Y976520D01*
X1504085Y976381D01*
X1503734Y976251D01*
X1503381Y976129D01*
X1503024Y976016D01*
X1502665Y975912D01*
X1502303Y975817D01*
X1501939Y975730D01*
X1501573Y975653D01*
X1501205Y975584D01*
X1500836Y975525D01*
X1500466Y975475D01*
X1500094Y975433D01*
X1499721Y975401D01*
X1499348Y975378D01*
X1498974Y975365D01*
X1498600Y975360D01*
X1498226Y975365D01*
X1497852Y975378D01*
X1497479Y975401D01*
X1497106Y975433D01*
X1496734Y975475D01*
X1496364Y975525D01*
X1495995Y975584D01*
X1495627Y975653D01*
X1495261Y975730D01*
X1494897Y975817D01*
X1494535Y975912D01*
X1494176Y976016D01*
X1493819Y976129D01*
X1493466Y976251D01*
X1493115Y976381D01*
X1492768Y976520D01*
X1492424Y976667D01*
X1492084Y976823D01*
X1491748Y976987D01*
X1491416Y977160D01*
X1491088Y977340D01*
X1490765Y977528D01*
X1490447Y977724D01*
X1490133Y977928D01*
X1489825Y978140D01*
X1489522Y978359D01*
X1489224Y978586D01*
X1488932Y978819D01*
X1488646Y979060D01*
X1488365Y979308D01*
X1488091Y979562D01*
X1487824Y979824D01*
X1487562Y980091D01*
X1487308Y980365D01*
X1487060Y980646D01*
X1486819Y980932D01*
X1486586Y981224D01*
X1486359Y981522D01*
X1486140Y981825D01*
X1485928Y982133D01*
X1485724Y982447D01*
X1485528Y982765D01*
X1485340Y983088D01*
X1485160Y983416D01*
X1484987Y983748D01*
X1484823Y984084D01*
X1484667Y984424D01*
X1484520Y984768D01*
X1484381Y985115D01*
X1484251Y985466D01*
X1484129Y985819D01*
X1484016Y986176D01*
X1483912Y986535D01*
X1483817Y986897D01*
X1483730Y987261D01*
X1483653Y987627D01*
X1483584Y987995D01*
X1483525Y988364D01*
X1483475Y988734D01*
X1483433Y989106D01*
X1483401Y989479D01*
X1483378Y989852D01*
X1483365Y990226D01*
X1483360Y990600D01*
X10160Y990600D02*
X10165Y990974D01*
X10178Y991348D01*
X10201Y991721D01*
X10233Y992094D01*
X10275Y992466D01*
X10325Y992836D01*
X10384Y993205D01*
X10453Y993573D01*
X10530Y993939D01*
X10617Y994303D01*
X10712Y994665D01*
X10816Y995024D01*
X10929Y995381D01*
X11051Y995734D01*
X11181Y996085D01*
X11320Y996432D01*
X11467Y996776D01*
X11623Y997116D01*
X11787Y997452D01*
X11960Y997784D01*
X12140Y998112D01*
X12328Y998435D01*
X12524Y998753D01*
X12728Y999067D01*
X12940Y999375D01*
X13159Y999678D01*
X13386Y999976D01*
X13619Y1000268D01*
X13860Y1000554D01*
X14108Y1000835D01*
X14362Y1001109D01*
X14624Y1001376D01*
X14891Y1001638D01*
X15165Y1001892D01*
X15446Y1002140D01*
X15732Y1002381D01*
X16024Y1002614D01*
X16322Y1002841D01*
X16625Y1003060D01*
X16933Y1003272D01*
X17247Y1003476D01*
X17565Y1003672D01*
X17888Y1003860D01*
X18216Y1004040D01*
X18548Y1004213D01*
X18884Y1004377D01*
X19224Y1004533D01*
X19568Y1004680D01*
X19915Y1004819D01*
X20266Y1004949D01*
X20619Y1005071D01*
X20976Y1005184D01*
X21335Y1005288D01*
X21697Y1005383D01*
X22061Y1005470D01*
X22427Y1005547D01*
X22795Y1005616D01*
X23164Y1005675D01*
X23534Y1005725D01*
X23906Y1005767D01*
X24279Y1005799D01*
X24652Y1005822D01*
X25026Y1005835D01*
X25400Y1005840D01*
X25774Y1005835D01*
X26148Y1005822D01*
X26521Y1005799D01*
X26894Y1005767D01*
X27266Y1005725D01*
X27636Y1005675D01*
X28005Y1005616D01*
X28373Y1005547D01*
X28739Y1005470D01*
X29103Y1005383D01*
X29465Y1005288D01*
X29824Y1005184D01*
X30181Y1005071D01*
X30534Y1004949D01*
X30885Y1004819D01*
X31232Y1004680D01*
X31576Y1004533D01*
X31916Y1004377D01*
X32252Y1004213D01*
X32584Y1004040D01*
X32912Y1003860D01*
X33235Y1003672D01*
X33553Y1003476D01*
X33867Y1003272D01*
X34175Y1003060D01*
X34478Y1002841D01*
X34776Y1002614D01*
X35068Y1002381D01*
X35354Y1002140D01*
X35635Y1001892D01*
X35909Y1001638D01*
X36176Y1001376D01*
X36438Y1001109D01*
X36692Y1000835D01*
X36940Y1000554D01*
X37181Y1000268D01*
X37414Y999976D01*
X37641Y999678D01*
X37860Y999375D01*
X38072Y999067D01*
X38276Y998753D01*
X38472Y998435D01*
X38660Y998112D01*
X38840Y997784D01*
X39013Y997452D01*
X39177Y997116D01*
X39333Y996776D01*
X39480Y996432D01*
X39619Y996085D01*
X39749Y995734D01*
X39871Y995381D01*
X39984Y995024D01*
X40088Y994665D01*
X40183Y994303D01*
X40270Y993939D01*
X40347Y993573D01*
X40416Y993205D01*
X40475Y992836D01*
X40525Y992466D01*
X40567Y992094D01*
X40599Y991721D01*
X40622Y991348D01*
X40635Y990974D01*
X40640Y990600D01*
X40635Y990226D01*
X40622Y989852D01*
X40599Y989479D01*
X40567Y989106D01*
X40525Y988734D01*
X40475Y988364D01*
X40416Y987995D01*
X40347Y987627D01*
X40270Y987261D01*
X40183Y986897D01*
X40088Y986535D01*
X39984Y986176D01*
X39871Y985819D01*
X39749Y985466D01*
X39619Y985115D01*
X39480Y984768D01*
X39333Y984424D01*
X39177Y984084D01*
X39013Y983748D01*
X38840Y983416D01*
X38660Y983088D01*
X38472Y982765D01*
X38276Y982447D01*
X38072Y982133D01*
X37860Y981825D01*
X37641Y981522D01*
X37414Y981224D01*
X37181Y980932D01*
X36940Y980646D01*
X36692Y980365D01*
X36438Y980091D01*
X36176Y979824D01*
X35909Y979562D01*
X35635Y979308D01*
X35354Y979060D01*
X35068Y978819D01*
X34776Y978586D01*
X34478Y978359D01*
X34175Y978140D01*
X33867Y977928D01*
X33553Y977724D01*
X33235Y977528D01*
X32912Y977340D01*
X32584Y977160D01*
X32252Y976987D01*
X31916Y976823D01*
X31576Y976667D01*
X31232Y976520D01*
X30885Y976381D01*
X30534Y976251D01*
X30181Y976129D01*
X29824Y976016D01*
X29465Y975912D01*
X29103Y975817D01*
X28739Y975730D01*
X28373Y975653D01*
X28005Y975584D01*
X27636Y975525D01*
X27266Y975475D01*
X26894Y975433D01*
X26521Y975401D01*
X26148Y975378D01*
X25774Y975365D01*
X25400Y975360D01*
X25026Y975365D01*
X24652Y975378D01*
X24279Y975401D01*
X23906Y975433D01*
X23534Y975475D01*
X23164Y975525D01*
X22795Y975584D01*
X22427Y975653D01*
X22061Y975730D01*
X21697Y975817D01*
X21335Y975912D01*
X20976Y976016D01*
X20619Y976129D01*
X20266Y976251D01*
X19915Y976381D01*
X19568Y976520D01*
X19224Y976667D01*
X18884Y976823D01*
X18548Y976987D01*
X18216Y977160D01*
X17888Y977340D01*
X17565Y977528D01*
X17247Y977724D01*
X16933Y977928D01*
X16625Y978140D01*
X16322Y978359D01*
X16024Y978586D01*
X15732Y978819D01*
X15446Y979060D01*
X15165Y979308D01*
X14891Y979562D01*
X14624Y979824D01*
X14362Y980091D01*
X14108Y980365D01*
X13860Y980646D01*
X13619Y980932D01*
X13386Y981224D01*
X13159Y981522D01*
X12940Y981825D01*
X12728Y982133D01*
X12524Y982447D01*
X12328Y982765D01*
X12140Y983088D01*
X11960Y983416D01*
X11787Y983748D01*
X11623Y984084D01*
X11467Y984424D01*
X11320Y984768D01*
X11181Y985115D01*
X11051Y985466D01*
X10929Y985819D01*
X10816Y986176D01*
X10712Y986535D01*
X10617Y986897D01*
X10530Y987261D01*
X10453Y987627D01*
X10384Y987995D01*
X10325Y988364D01*
X10275Y988734D01*
X10233Y989106D01*
X10201Y989479D01*
X10178Y989852D01*
X10165Y990226D01*
X10160Y990600D01*
X1110850Y49050D02*
X1110852Y49163D01*
X1110858Y49277D01*
X1110868Y49390D01*
X1110882Y49502D01*
X1110899Y49614D01*
X1110921Y49726D01*
X1110947Y49836D01*
X1110976Y49946D01*
X1111009Y50054D01*
X1111046Y50162D01*
X1111087Y50267D01*
X1111131Y50372D01*
X1111179Y50475D01*
X1111230Y50576D01*
X1111285Y50675D01*
X1111344Y50772D01*
X1111406Y50867D01*
X1111471Y50960D01*
X1111539Y51051D01*
X1111610Y51139D01*
X1111685Y51225D01*
X1111762Y51308D01*
X1111842Y51388D01*
X1111925Y51465D01*
X1112011Y51540D01*
X1112099Y51611D01*
X1112190Y51679D01*
X1112283Y51744D01*
X1112378Y51806D01*
X1112475Y51865D01*
X1112574Y51920D01*
X1112675Y51971D01*
X1112778Y52019D01*
X1112883Y52063D01*
X1112988Y52104D01*
X1113096Y52141D01*
X1113204Y52174D01*
X1113314Y52203D01*
X1113424Y52229D01*
X1113536Y52251D01*
X1113648Y52268D01*
X1113760Y52282D01*
X1113873Y52292D01*
X1113987Y52298D01*
X1114100Y52300D01*
X1114213Y52298D01*
X1114327Y52292D01*
X1114440Y52282D01*
X1114552Y52268D01*
X1114664Y52251D01*
X1114776Y52229D01*
X1114886Y52203D01*
X1114996Y52174D01*
X1115104Y52141D01*
X1115212Y52104D01*
X1115317Y52063D01*
X1115422Y52019D01*
X1115525Y51971D01*
X1115626Y51920D01*
X1115725Y51865D01*
X1115822Y51806D01*
X1115917Y51744D01*
X1116010Y51679D01*
X1116101Y51611D01*
X1116189Y51540D01*
X1116275Y51465D01*
X1116358Y51388D01*
X1116438Y51308D01*
X1116515Y51225D01*
X1116590Y51139D01*
X1116661Y51051D01*
X1116729Y50960D01*
X1116794Y50867D01*
X1116856Y50772D01*
X1116915Y50675D01*
X1116970Y50576D01*
X1117021Y50475D01*
X1117069Y50372D01*
X1117113Y50267D01*
X1117154Y50162D01*
X1117191Y50054D01*
X1117224Y49946D01*
X1117253Y49836D01*
X1117279Y49726D01*
X1117301Y49614D01*
X1117318Y49502D01*
X1117332Y49390D01*
X1117342Y49277D01*
X1117348Y49163D01*
X1117350Y49050D01*
X1117348Y48937D01*
X1117342Y48823D01*
X1117332Y48710D01*
X1117318Y48598D01*
X1117301Y48486D01*
X1117279Y48374D01*
X1117253Y48264D01*
X1117224Y48154D01*
X1117191Y48046D01*
X1117154Y47938D01*
X1117113Y47833D01*
X1117069Y47728D01*
X1117021Y47625D01*
X1116970Y47524D01*
X1116915Y47425D01*
X1116856Y47328D01*
X1116794Y47233D01*
X1116729Y47140D01*
X1116661Y47049D01*
X1116590Y46961D01*
X1116515Y46875D01*
X1116438Y46792D01*
X1116358Y46712D01*
X1116275Y46635D01*
X1116189Y46560D01*
X1116101Y46489D01*
X1116010Y46421D01*
X1115917Y46356D01*
X1115822Y46294D01*
X1115725Y46235D01*
X1115626Y46180D01*
X1115525Y46129D01*
X1115422Y46081D01*
X1115317Y46037D01*
X1115212Y45996D01*
X1115104Y45959D01*
X1114996Y45926D01*
X1114886Y45897D01*
X1114776Y45871D01*
X1114664Y45849D01*
X1114552Y45832D01*
X1114440Y45818D01*
X1114327Y45808D01*
X1114213Y45802D01*
X1114100Y45800D01*
X1113987Y45802D01*
X1113873Y45808D01*
X1113760Y45818D01*
X1113648Y45832D01*
X1113536Y45849D01*
X1113424Y45871D01*
X1113314Y45897D01*
X1113204Y45926D01*
X1113096Y45959D01*
X1112988Y45996D01*
X1112883Y46037D01*
X1112778Y46081D01*
X1112675Y46129D01*
X1112574Y46180D01*
X1112475Y46235D01*
X1112378Y46294D01*
X1112283Y46356D01*
X1112190Y46421D01*
X1112099Y46489D01*
X1112011Y46560D01*
X1111925Y46635D01*
X1111842Y46712D01*
X1111762Y46792D01*
X1111685Y46875D01*
X1111610Y46961D01*
X1111539Y47049D01*
X1111471Y47140D01*
X1111406Y47233D01*
X1111344Y47328D01*
X1111285Y47425D01*
X1111230Y47524D01*
X1111179Y47625D01*
X1111131Y47728D01*
X1111087Y47833D01*
X1111046Y47938D01*
X1111009Y48046D01*
X1110976Y48154D01*
X1110947Y48264D01*
X1110921Y48374D01*
X1110899Y48486D01*
X1110882Y48598D01*
X1110868Y48710D01*
X1110858Y48823D01*
X1110852Y48937D01*
X1110850Y49050D01*
X1168650Y49050D02*
X1168652Y49163D01*
X1168658Y49277D01*
X1168668Y49390D01*
X1168682Y49502D01*
X1168699Y49614D01*
X1168721Y49726D01*
X1168747Y49836D01*
X1168776Y49946D01*
X1168809Y50054D01*
X1168846Y50162D01*
X1168887Y50267D01*
X1168931Y50372D01*
X1168979Y50475D01*
X1169030Y50576D01*
X1169085Y50675D01*
X1169144Y50772D01*
X1169206Y50867D01*
X1169271Y50960D01*
X1169339Y51051D01*
X1169410Y51139D01*
X1169485Y51225D01*
X1169562Y51308D01*
X1169642Y51388D01*
X1169725Y51465D01*
X1169811Y51540D01*
X1169899Y51611D01*
X1169990Y51679D01*
X1170083Y51744D01*
X1170178Y51806D01*
X1170275Y51865D01*
X1170374Y51920D01*
X1170475Y51971D01*
X1170578Y52019D01*
X1170683Y52063D01*
X1170788Y52104D01*
X1170896Y52141D01*
X1171004Y52174D01*
X1171114Y52203D01*
X1171224Y52229D01*
X1171336Y52251D01*
X1171448Y52268D01*
X1171560Y52282D01*
X1171673Y52292D01*
X1171787Y52298D01*
X1171900Y52300D01*
X1172013Y52298D01*
X1172127Y52292D01*
X1172240Y52282D01*
X1172352Y52268D01*
X1172464Y52251D01*
X1172576Y52229D01*
X1172686Y52203D01*
X1172796Y52174D01*
X1172904Y52141D01*
X1173012Y52104D01*
X1173117Y52063D01*
X1173222Y52019D01*
X1173325Y51971D01*
X1173426Y51920D01*
X1173525Y51865D01*
X1173622Y51806D01*
X1173717Y51744D01*
X1173810Y51679D01*
X1173901Y51611D01*
X1173989Y51540D01*
X1174075Y51465D01*
X1174158Y51388D01*
X1174238Y51308D01*
X1174315Y51225D01*
X1174390Y51139D01*
X1174461Y51051D01*
X1174529Y50960D01*
X1174594Y50867D01*
X1174656Y50772D01*
X1174715Y50675D01*
X1174770Y50576D01*
X1174821Y50475D01*
X1174869Y50372D01*
X1174913Y50267D01*
X1174954Y50162D01*
X1174991Y50054D01*
X1175024Y49946D01*
X1175053Y49836D01*
X1175079Y49726D01*
X1175101Y49614D01*
X1175118Y49502D01*
X1175132Y49390D01*
X1175142Y49277D01*
X1175148Y49163D01*
X1175150Y49050D01*
X1175148Y48937D01*
X1175142Y48823D01*
X1175132Y48710D01*
X1175118Y48598D01*
X1175101Y48486D01*
X1175079Y48374D01*
X1175053Y48264D01*
X1175024Y48154D01*
X1174991Y48046D01*
X1174954Y47938D01*
X1174913Y47833D01*
X1174869Y47728D01*
X1174821Y47625D01*
X1174770Y47524D01*
X1174715Y47425D01*
X1174656Y47328D01*
X1174594Y47233D01*
X1174529Y47140D01*
X1174461Y47049D01*
X1174390Y46961D01*
X1174315Y46875D01*
X1174238Y46792D01*
X1174158Y46712D01*
X1174075Y46635D01*
X1173989Y46560D01*
X1173901Y46489D01*
X1173810Y46421D01*
X1173717Y46356D01*
X1173622Y46294D01*
X1173525Y46235D01*
X1173426Y46180D01*
X1173325Y46129D01*
X1173222Y46081D01*
X1173117Y46037D01*
X1173012Y45996D01*
X1172904Y45959D01*
X1172796Y45926D01*
X1172686Y45897D01*
X1172576Y45871D01*
X1172464Y45849D01*
X1172352Y45832D01*
X1172240Y45818D01*
X1172127Y45808D01*
X1172013Y45802D01*
X1171900Y45800D01*
X1171787Y45802D01*
X1171673Y45808D01*
X1171560Y45818D01*
X1171448Y45832D01*
X1171336Y45849D01*
X1171224Y45871D01*
X1171114Y45897D01*
X1171004Y45926D01*
X1170896Y45959D01*
X1170788Y45996D01*
X1170683Y46037D01*
X1170578Y46081D01*
X1170475Y46129D01*
X1170374Y46180D01*
X1170275Y46235D01*
X1170178Y46294D01*
X1170083Y46356D01*
X1169990Y46421D01*
X1169899Y46489D01*
X1169811Y46560D01*
X1169725Y46635D01*
X1169642Y46712D01*
X1169562Y46792D01*
X1169485Y46875D01*
X1169410Y46961D01*
X1169339Y47049D01*
X1169271Y47140D01*
X1169206Y47233D01*
X1169144Y47328D01*
X1169085Y47425D01*
X1169030Y47524D01*
X1168979Y47625D01*
X1168931Y47728D01*
X1168887Y47833D01*
X1168846Y47938D01*
X1168809Y48046D01*
X1168776Y48154D01*
X1168747Y48264D01*
X1168721Y48374D01*
X1168699Y48486D01*
X1168682Y48598D01*
X1168668Y48710D01*
X1168658Y48823D01*
X1168652Y48937D01*
X1168650Y49050D01*
D11*
X1099820Y48850D02*
X1099820Y59850D01*
X1186180Y59850D02*
X1186180Y48850D01*
X1099820Y15700D02*
X1099820Y9500D01*
X1186180Y9500D02*
X1186180Y15700D01*
D15*
X406500Y20320D02*
X406502Y20461D01*
X406508Y20602D01*
X406518Y20742D01*
X406532Y20882D01*
X406550Y21022D01*
X406571Y21161D01*
X406597Y21300D01*
X406626Y21438D01*
X406660Y21574D01*
X406697Y21710D01*
X406738Y21845D01*
X406783Y21979D01*
X406832Y22111D01*
X406884Y22242D01*
X406940Y22371D01*
X407000Y22498D01*
X407063Y22624D01*
X407129Y22748D01*
X407200Y22871D01*
X407273Y22991D01*
X407350Y23109D01*
X407430Y23225D01*
X407514Y23338D01*
X407600Y23449D01*
X407690Y23558D01*
X407783Y23664D01*
X407878Y23767D01*
X407977Y23868D01*
X408078Y23966D01*
X408182Y24061D01*
X408289Y24153D01*
X408398Y24242D01*
X408510Y24327D01*
X408624Y24410D01*
X408740Y24490D01*
X408859Y24566D01*
X408980Y24638D01*
X409102Y24708D01*
X409227Y24773D01*
X409353Y24836D01*
X409481Y24894D01*
X409611Y24949D01*
X409742Y25001D01*
X409875Y25048D01*
X410009Y25092D01*
X410144Y25133D01*
X410280Y25169D01*
X410417Y25201D01*
X410555Y25230D01*
X410693Y25255D01*
X410833Y25275D01*
X410973Y25292D01*
X411113Y25305D01*
X411254Y25314D01*
X411394Y25319D01*
X411535Y25320D01*
X411676Y25317D01*
X411817Y25310D01*
X411957Y25299D01*
X412097Y25284D01*
X412237Y25265D01*
X412376Y25243D01*
X412514Y25216D01*
X412652Y25186D01*
X412788Y25151D01*
X412924Y25113D01*
X413058Y25071D01*
X413192Y25025D01*
X413324Y24976D01*
X413454Y24922D01*
X413583Y24865D01*
X413710Y24805D01*
X413836Y24741D01*
X413959Y24673D01*
X414081Y24602D01*
X414201Y24528D01*
X414318Y24450D01*
X414433Y24369D01*
X414546Y24285D01*
X414657Y24198D01*
X414765Y24107D01*
X414870Y24014D01*
X414973Y23917D01*
X415073Y23818D01*
X415170Y23716D01*
X415264Y23611D01*
X415355Y23504D01*
X415443Y23394D01*
X415528Y23282D01*
X415610Y23167D01*
X415689Y23050D01*
X415764Y22931D01*
X415836Y22810D01*
X415904Y22687D01*
X415969Y22562D01*
X416031Y22435D01*
X416088Y22306D01*
X416143Y22176D01*
X416193Y22045D01*
X416240Y21912D01*
X416283Y21778D01*
X416322Y21642D01*
X416357Y21506D01*
X416389Y21369D01*
X416416Y21231D01*
X416440Y21092D01*
X416460Y20952D01*
X416476Y20812D01*
X416488Y20672D01*
X416496Y20531D01*
X416500Y20390D01*
X416500Y20250D01*
X416496Y20109D01*
X416488Y19968D01*
X416476Y19828D01*
X416460Y19688D01*
X416440Y19548D01*
X416416Y19409D01*
X416389Y19271D01*
X416357Y19134D01*
X416322Y18998D01*
X416283Y18862D01*
X416240Y18728D01*
X416193Y18595D01*
X416143Y18464D01*
X416088Y18334D01*
X416031Y18205D01*
X415969Y18078D01*
X415904Y17953D01*
X415836Y17830D01*
X415764Y17709D01*
X415689Y17590D01*
X415610Y17473D01*
X415528Y17358D01*
X415443Y17246D01*
X415355Y17136D01*
X415264Y17029D01*
X415170Y16924D01*
X415073Y16822D01*
X414973Y16723D01*
X414870Y16626D01*
X414765Y16533D01*
X414657Y16442D01*
X414546Y16355D01*
X414433Y16271D01*
X414318Y16190D01*
X414201Y16112D01*
X414081Y16038D01*
X413959Y15967D01*
X413836Y15899D01*
X413710Y15835D01*
X413583Y15775D01*
X413454Y15718D01*
X413324Y15664D01*
X413192Y15615D01*
X413058Y15569D01*
X412924Y15527D01*
X412788Y15489D01*
X412652Y15454D01*
X412514Y15424D01*
X412376Y15397D01*
X412237Y15375D01*
X412097Y15356D01*
X411957Y15341D01*
X411817Y15330D01*
X411676Y15323D01*
X411535Y15320D01*
X411394Y15321D01*
X411254Y15326D01*
X411113Y15335D01*
X410973Y15348D01*
X410833Y15365D01*
X410693Y15385D01*
X410555Y15410D01*
X410417Y15439D01*
X410280Y15471D01*
X410144Y15507D01*
X410009Y15548D01*
X409875Y15592D01*
X409742Y15639D01*
X409611Y15691D01*
X409481Y15746D01*
X409353Y15804D01*
X409227Y15867D01*
X409102Y15932D01*
X408980Y16002D01*
X408859Y16074D01*
X408740Y16150D01*
X408624Y16230D01*
X408510Y16313D01*
X408398Y16398D01*
X408289Y16487D01*
X408182Y16579D01*
X408078Y16674D01*
X407977Y16772D01*
X407878Y16873D01*
X407783Y16976D01*
X407690Y17082D01*
X407600Y17191D01*
X407514Y17302D01*
X407430Y17415D01*
X407350Y17531D01*
X407273Y17649D01*
X407200Y17769D01*
X407129Y17892D01*
X407063Y18016D01*
X407000Y18142D01*
X406940Y18269D01*
X406884Y18398D01*
X406832Y18529D01*
X406783Y18661D01*
X406738Y18795D01*
X406697Y18930D01*
X406660Y19066D01*
X406626Y19202D01*
X406597Y19340D01*
X406571Y19479D01*
X406550Y19618D01*
X406532Y19758D01*
X406518Y19898D01*
X406508Y20038D01*
X406502Y20179D01*
X406500Y20320D01*
X326500Y20320D02*
X326502Y20461D01*
X326508Y20602D01*
X326518Y20742D01*
X326532Y20882D01*
X326550Y21022D01*
X326571Y21161D01*
X326597Y21300D01*
X326626Y21438D01*
X326660Y21574D01*
X326697Y21710D01*
X326738Y21845D01*
X326783Y21979D01*
X326832Y22111D01*
X326884Y22242D01*
X326940Y22371D01*
X327000Y22498D01*
X327063Y22624D01*
X327129Y22748D01*
X327200Y22871D01*
X327273Y22991D01*
X327350Y23109D01*
X327430Y23225D01*
X327514Y23338D01*
X327600Y23449D01*
X327690Y23558D01*
X327783Y23664D01*
X327878Y23767D01*
X327977Y23868D01*
X328078Y23966D01*
X328182Y24061D01*
X328289Y24153D01*
X328398Y24242D01*
X328510Y24327D01*
X328624Y24410D01*
X328740Y24490D01*
X328859Y24566D01*
X328980Y24638D01*
X329102Y24708D01*
X329227Y24773D01*
X329353Y24836D01*
X329481Y24894D01*
X329611Y24949D01*
X329742Y25001D01*
X329875Y25048D01*
X330009Y25092D01*
X330144Y25133D01*
X330280Y25169D01*
X330417Y25201D01*
X330555Y25230D01*
X330693Y25255D01*
X330833Y25275D01*
X330973Y25292D01*
X331113Y25305D01*
X331254Y25314D01*
X331394Y25319D01*
X331535Y25320D01*
X331676Y25317D01*
X331817Y25310D01*
X331957Y25299D01*
X332097Y25284D01*
X332237Y25265D01*
X332376Y25243D01*
X332514Y25216D01*
X332652Y25186D01*
X332788Y25151D01*
X332924Y25113D01*
X333058Y25071D01*
X333192Y25025D01*
X333324Y24976D01*
X333454Y24922D01*
X333583Y24865D01*
X333710Y24805D01*
X333836Y24741D01*
X333959Y24673D01*
X334081Y24602D01*
X334201Y24528D01*
X334318Y24450D01*
X334433Y24369D01*
X334546Y24285D01*
X334657Y24198D01*
X334765Y24107D01*
X334870Y24014D01*
X334973Y23917D01*
X335073Y23818D01*
X335170Y23716D01*
X335264Y23611D01*
X335355Y23504D01*
X335443Y23394D01*
X335528Y23282D01*
X335610Y23167D01*
X335689Y23050D01*
X335764Y22931D01*
X335836Y22810D01*
X335904Y22687D01*
X335969Y22562D01*
X336031Y22435D01*
X336088Y22306D01*
X336143Y22176D01*
X336193Y22045D01*
X336240Y21912D01*
X336283Y21778D01*
X336322Y21642D01*
X336357Y21506D01*
X336389Y21369D01*
X336416Y21231D01*
X336440Y21092D01*
X336460Y20952D01*
X336476Y20812D01*
X336488Y20672D01*
X336496Y20531D01*
X336500Y20390D01*
X336500Y20250D01*
X336496Y20109D01*
X336488Y19968D01*
X336476Y19828D01*
X336460Y19688D01*
X336440Y19548D01*
X336416Y19409D01*
X336389Y19271D01*
X336357Y19134D01*
X336322Y18998D01*
X336283Y18862D01*
X336240Y18728D01*
X336193Y18595D01*
X336143Y18464D01*
X336088Y18334D01*
X336031Y18205D01*
X335969Y18078D01*
X335904Y17953D01*
X335836Y17830D01*
X335764Y17709D01*
X335689Y17590D01*
X335610Y17473D01*
X335528Y17358D01*
X335443Y17246D01*
X335355Y17136D01*
X335264Y17029D01*
X335170Y16924D01*
X335073Y16822D01*
X334973Y16723D01*
X334870Y16626D01*
X334765Y16533D01*
X334657Y16442D01*
X334546Y16355D01*
X334433Y16271D01*
X334318Y16190D01*
X334201Y16112D01*
X334081Y16038D01*
X333959Y15967D01*
X333836Y15899D01*
X333710Y15835D01*
X333583Y15775D01*
X333454Y15718D01*
X333324Y15664D01*
X333192Y15615D01*
X333058Y15569D01*
X332924Y15527D01*
X332788Y15489D01*
X332652Y15454D01*
X332514Y15424D01*
X332376Y15397D01*
X332237Y15375D01*
X332097Y15356D01*
X331957Y15341D01*
X331817Y15330D01*
X331676Y15323D01*
X331535Y15320D01*
X331394Y15321D01*
X331254Y15326D01*
X331113Y15335D01*
X330973Y15348D01*
X330833Y15365D01*
X330693Y15385D01*
X330555Y15410D01*
X330417Y15439D01*
X330280Y15471D01*
X330144Y15507D01*
X330009Y15548D01*
X329875Y15592D01*
X329742Y15639D01*
X329611Y15691D01*
X329481Y15746D01*
X329353Y15804D01*
X329227Y15867D01*
X329102Y15932D01*
X328980Y16002D01*
X328859Y16074D01*
X328740Y16150D01*
X328624Y16230D01*
X328510Y16313D01*
X328398Y16398D01*
X328289Y16487D01*
X328182Y16579D01*
X328078Y16674D01*
X327977Y16772D01*
X327878Y16873D01*
X327783Y16976D01*
X327690Y17082D01*
X327600Y17191D01*
X327514Y17302D01*
X327430Y17415D01*
X327350Y17531D01*
X327273Y17649D01*
X327200Y17769D01*
X327129Y17892D01*
X327063Y18016D01*
X327000Y18142D01*
X326940Y18269D01*
X326884Y18398D01*
X326832Y18529D01*
X326783Y18661D01*
X326738Y18795D01*
X326697Y18930D01*
X326660Y19066D01*
X326626Y19202D01*
X326597Y19340D01*
X326571Y19479D01*
X326550Y19618D01*
X326532Y19758D01*
X326518Y19898D01*
X326508Y20038D01*
X326502Y20179D01*
X326500Y20320D01*
X10160Y25400D02*
X10165Y25774D01*
X10178Y26148D01*
X10201Y26521D01*
X10233Y26894D01*
X10275Y27266D01*
X10325Y27636D01*
X10384Y28005D01*
X10453Y28373D01*
X10530Y28739D01*
X10617Y29103D01*
X10712Y29465D01*
X10816Y29824D01*
X10929Y30181D01*
X11051Y30534D01*
X11181Y30885D01*
X11320Y31232D01*
X11467Y31576D01*
X11623Y31916D01*
X11787Y32252D01*
X11960Y32584D01*
X12140Y32912D01*
X12328Y33235D01*
X12524Y33553D01*
X12728Y33867D01*
X12940Y34175D01*
X13159Y34478D01*
X13386Y34776D01*
X13619Y35068D01*
X13860Y35354D01*
X14108Y35635D01*
X14362Y35909D01*
X14624Y36176D01*
X14891Y36438D01*
X15165Y36692D01*
X15446Y36940D01*
X15732Y37181D01*
X16024Y37414D01*
X16322Y37641D01*
X16625Y37860D01*
X16933Y38072D01*
X17247Y38276D01*
X17565Y38472D01*
X17888Y38660D01*
X18216Y38840D01*
X18548Y39013D01*
X18884Y39177D01*
X19224Y39333D01*
X19568Y39480D01*
X19915Y39619D01*
X20266Y39749D01*
X20619Y39871D01*
X20976Y39984D01*
X21335Y40088D01*
X21697Y40183D01*
X22061Y40270D01*
X22427Y40347D01*
X22795Y40416D01*
X23164Y40475D01*
X23534Y40525D01*
X23906Y40567D01*
X24279Y40599D01*
X24652Y40622D01*
X25026Y40635D01*
X25400Y40640D01*
X25774Y40635D01*
X26148Y40622D01*
X26521Y40599D01*
X26894Y40567D01*
X27266Y40525D01*
X27636Y40475D01*
X28005Y40416D01*
X28373Y40347D01*
X28739Y40270D01*
X29103Y40183D01*
X29465Y40088D01*
X29824Y39984D01*
X30181Y39871D01*
X30534Y39749D01*
X30885Y39619D01*
X31232Y39480D01*
X31576Y39333D01*
X31916Y39177D01*
X32252Y39013D01*
X32584Y38840D01*
X32912Y38660D01*
X33235Y38472D01*
X33553Y38276D01*
X33867Y38072D01*
X34175Y37860D01*
X34478Y37641D01*
X34776Y37414D01*
X35068Y37181D01*
X35354Y36940D01*
X35635Y36692D01*
X35909Y36438D01*
X36176Y36176D01*
X36438Y35909D01*
X36692Y35635D01*
X36940Y35354D01*
X37181Y35068D01*
X37414Y34776D01*
X37641Y34478D01*
X37860Y34175D01*
X38072Y33867D01*
X38276Y33553D01*
X38472Y33235D01*
X38660Y32912D01*
X38840Y32584D01*
X39013Y32252D01*
X39177Y31916D01*
X39333Y31576D01*
X39480Y31232D01*
X39619Y30885D01*
X39749Y30534D01*
X39871Y30181D01*
X39984Y29824D01*
X40088Y29465D01*
X40183Y29103D01*
X40270Y28739D01*
X40347Y28373D01*
X40416Y28005D01*
X40475Y27636D01*
X40525Y27266D01*
X40567Y26894D01*
X40599Y26521D01*
X40622Y26148D01*
X40635Y25774D01*
X40640Y25400D01*
X40635Y25026D01*
X40622Y24652D01*
X40599Y24279D01*
X40567Y23906D01*
X40525Y23534D01*
X40475Y23164D01*
X40416Y22795D01*
X40347Y22427D01*
X40270Y22061D01*
X40183Y21697D01*
X40088Y21335D01*
X39984Y20976D01*
X39871Y20619D01*
X39749Y20266D01*
X39619Y19915D01*
X39480Y19568D01*
X39333Y19224D01*
X39177Y18884D01*
X39013Y18548D01*
X38840Y18216D01*
X38660Y17888D01*
X38472Y17565D01*
X38276Y17247D01*
X38072Y16933D01*
X37860Y16625D01*
X37641Y16322D01*
X37414Y16024D01*
X37181Y15732D01*
X36940Y15446D01*
X36692Y15165D01*
X36438Y14891D01*
X36176Y14624D01*
X35909Y14362D01*
X35635Y14108D01*
X35354Y13860D01*
X35068Y13619D01*
X34776Y13386D01*
X34478Y13159D01*
X34175Y12940D01*
X33867Y12728D01*
X33553Y12524D01*
X33235Y12328D01*
X32912Y12140D01*
X32584Y11960D01*
X32252Y11787D01*
X31916Y11623D01*
X31576Y11467D01*
X31232Y11320D01*
X30885Y11181D01*
X30534Y11051D01*
X30181Y10929D01*
X29824Y10816D01*
X29465Y10712D01*
X29103Y10617D01*
X28739Y10530D01*
X28373Y10453D01*
X28005Y10384D01*
X27636Y10325D01*
X27266Y10275D01*
X26894Y10233D01*
X26521Y10201D01*
X26148Y10178D01*
X25774Y10165D01*
X25400Y10160D01*
X25026Y10165D01*
X24652Y10178D01*
X24279Y10201D01*
X23906Y10233D01*
X23534Y10275D01*
X23164Y10325D01*
X22795Y10384D01*
X22427Y10453D01*
X22061Y10530D01*
X21697Y10617D01*
X21335Y10712D01*
X20976Y10816D01*
X20619Y10929D01*
X20266Y11051D01*
X19915Y11181D01*
X19568Y11320D01*
X19224Y11467D01*
X18884Y11623D01*
X18548Y11787D01*
X18216Y11960D01*
X17888Y12140D01*
X17565Y12328D01*
X17247Y12524D01*
X16933Y12728D01*
X16625Y12940D01*
X16322Y13159D01*
X16024Y13386D01*
X15732Y13619D01*
X15446Y13860D01*
X15165Y14108D01*
X14891Y14362D01*
X14624Y14624D01*
X14362Y14891D01*
X14108Y15165D01*
X13860Y15446D01*
X13619Y15732D01*
X13386Y16024D01*
X13159Y16322D01*
X12940Y16625D01*
X12728Y16933D01*
X12524Y17247D01*
X12328Y17565D01*
X12140Y17888D01*
X11960Y18216D01*
X11787Y18548D01*
X11623Y18884D01*
X11467Y19224D01*
X11320Y19568D01*
X11181Y19915D01*
X11051Y20266D01*
X10929Y20619D01*
X10816Y20976D01*
X10712Y21335D01*
X10617Y21697D01*
X10530Y22061D01*
X10453Y22427D01*
X10384Y22795D01*
X10325Y23164D01*
X10275Y23534D01*
X10233Y23906D01*
X10201Y24279D01*
X10178Y24652D01*
X10165Y25026D01*
X10160Y25400D01*
X1364850Y49050D02*
X1364852Y49163D01*
X1364858Y49277D01*
X1364868Y49390D01*
X1364882Y49502D01*
X1364899Y49614D01*
X1364921Y49726D01*
X1364947Y49836D01*
X1364976Y49946D01*
X1365009Y50054D01*
X1365046Y50162D01*
X1365087Y50267D01*
X1365131Y50372D01*
X1365179Y50475D01*
X1365230Y50576D01*
X1365285Y50675D01*
X1365344Y50772D01*
X1365406Y50867D01*
X1365471Y50960D01*
X1365539Y51051D01*
X1365610Y51139D01*
X1365685Y51225D01*
X1365762Y51308D01*
X1365842Y51388D01*
X1365925Y51465D01*
X1366011Y51540D01*
X1366099Y51611D01*
X1366190Y51679D01*
X1366283Y51744D01*
X1366378Y51806D01*
X1366475Y51865D01*
X1366574Y51920D01*
X1366675Y51971D01*
X1366778Y52019D01*
X1366883Y52063D01*
X1366988Y52104D01*
X1367096Y52141D01*
X1367204Y52174D01*
X1367314Y52203D01*
X1367424Y52229D01*
X1367536Y52251D01*
X1367648Y52268D01*
X1367760Y52282D01*
X1367873Y52292D01*
X1367987Y52298D01*
X1368100Y52300D01*
X1368213Y52298D01*
X1368327Y52292D01*
X1368440Y52282D01*
X1368552Y52268D01*
X1368664Y52251D01*
X1368776Y52229D01*
X1368886Y52203D01*
X1368996Y52174D01*
X1369104Y52141D01*
X1369212Y52104D01*
X1369317Y52063D01*
X1369422Y52019D01*
X1369525Y51971D01*
X1369626Y51920D01*
X1369725Y51865D01*
X1369822Y51806D01*
X1369917Y51744D01*
X1370010Y51679D01*
X1370101Y51611D01*
X1370189Y51540D01*
X1370275Y51465D01*
X1370358Y51388D01*
X1370438Y51308D01*
X1370515Y51225D01*
X1370590Y51139D01*
X1370661Y51051D01*
X1370729Y50960D01*
X1370794Y50867D01*
X1370856Y50772D01*
X1370915Y50675D01*
X1370970Y50576D01*
X1371021Y50475D01*
X1371069Y50372D01*
X1371113Y50267D01*
X1371154Y50162D01*
X1371191Y50054D01*
X1371224Y49946D01*
X1371253Y49836D01*
X1371279Y49726D01*
X1371301Y49614D01*
X1371318Y49502D01*
X1371332Y49390D01*
X1371342Y49277D01*
X1371348Y49163D01*
X1371350Y49050D01*
X1371348Y48937D01*
X1371342Y48823D01*
X1371332Y48710D01*
X1371318Y48598D01*
X1371301Y48486D01*
X1371279Y48374D01*
X1371253Y48264D01*
X1371224Y48154D01*
X1371191Y48046D01*
X1371154Y47938D01*
X1371113Y47833D01*
X1371069Y47728D01*
X1371021Y47625D01*
X1370970Y47524D01*
X1370915Y47425D01*
X1370856Y47328D01*
X1370794Y47233D01*
X1370729Y47140D01*
X1370661Y47049D01*
X1370590Y46961D01*
X1370515Y46875D01*
X1370438Y46792D01*
X1370358Y46712D01*
X1370275Y46635D01*
X1370189Y46560D01*
X1370101Y46489D01*
X1370010Y46421D01*
X1369917Y46356D01*
X1369822Y46294D01*
X1369725Y46235D01*
X1369626Y46180D01*
X1369525Y46129D01*
X1369422Y46081D01*
X1369317Y46037D01*
X1369212Y45996D01*
X1369104Y45959D01*
X1368996Y45926D01*
X1368886Y45897D01*
X1368776Y45871D01*
X1368664Y45849D01*
X1368552Y45832D01*
X1368440Y45818D01*
X1368327Y45808D01*
X1368213Y45802D01*
X1368100Y45800D01*
X1367987Y45802D01*
X1367873Y45808D01*
X1367760Y45818D01*
X1367648Y45832D01*
X1367536Y45849D01*
X1367424Y45871D01*
X1367314Y45897D01*
X1367204Y45926D01*
X1367096Y45959D01*
X1366988Y45996D01*
X1366883Y46037D01*
X1366778Y46081D01*
X1366675Y46129D01*
X1366574Y46180D01*
X1366475Y46235D01*
X1366378Y46294D01*
X1366283Y46356D01*
X1366190Y46421D01*
X1366099Y46489D01*
X1366011Y46560D01*
X1365925Y46635D01*
X1365842Y46712D01*
X1365762Y46792D01*
X1365685Y46875D01*
X1365610Y46961D01*
X1365539Y47049D01*
X1365471Y47140D01*
X1365406Y47233D01*
X1365344Y47328D01*
X1365285Y47425D01*
X1365230Y47524D01*
X1365179Y47625D01*
X1365131Y47728D01*
X1365087Y47833D01*
X1365046Y47938D01*
X1365009Y48046D01*
X1364976Y48154D01*
X1364947Y48264D01*
X1364921Y48374D01*
X1364899Y48486D01*
X1364882Y48598D01*
X1364868Y48710D01*
X1364858Y48823D01*
X1364852Y48937D01*
X1364850Y49050D01*
X1422650Y49050D02*
X1422652Y49163D01*
X1422658Y49277D01*
X1422668Y49390D01*
X1422682Y49502D01*
X1422699Y49614D01*
X1422721Y49726D01*
X1422747Y49836D01*
X1422776Y49946D01*
X1422809Y50054D01*
X1422846Y50162D01*
X1422887Y50267D01*
X1422931Y50372D01*
X1422979Y50475D01*
X1423030Y50576D01*
X1423085Y50675D01*
X1423144Y50772D01*
X1423206Y50867D01*
X1423271Y50960D01*
X1423339Y51051D01*
X1423410Y51139D01*
X1423485Y51225D01*
X1423562Y51308D01*
X1423642Y51388D01*
X1423725Y51465D01*
X1423811Y51540D01*
X1423899Y51611D01*
X1423990Y51679D01*
X1424083Y51744D01*
X1424178Y51806D01*
X1424275Y51865D01*
X1424374Y51920D01*
X1424475Y51971D01*
X1424578Y52019D01*
X1424683Y52063D01*
X1424788Y52104D01*
X1424896Y52141D01*
X1425004Y52174D01*
X1425114Y52203D01*
X1425224Y52229D01*
X1425336Y52251D01*
X1425448Y52268D01*
X1425560Y52282D01*
X1425673Y52292D01*
X1425787Y52298D01*
X1425900Y52300D01*
X1426013Y52298D01*
X1426127Y52292D01*
X1426240Y52282D01*
X1426352Y52268D01*
X1426464Y52251D01*
X1426576Y52229D01*
X1426686Y52203D01*
X1426796Y52174D01*
X1426904Y52141D01*
X1427012Y52104D01*
X1427117Y52063D01*
X1427222Y52019D01*
X1427325Y51971D01*
X1427426Y51920D01*
X1427525Y51865D01*
X1427622Y51806D01*
X1427717Y51744D01*
X1427810Y51679D01*
X1427901Y51611D01*
X1427989Y51540D01*
X1428075Y51465D01*
X1428158Y51388D01*
X1428238Y51308D01*
X1428315Y51225D01*
X1428390Y51139D01*
X1428461Y51051D01*
X1428529Y50960D01*
X1428594Y50867D01*
X1428656Y50772D01*
X1428715Y50675D01*
X1428770Y50576D01*
X1428821Y50475D01*
X1428869Y50372D01*
X1428913Y50267D01*
X1428954Y50162D01*
X1428991Y50054D01*
X1429024Y49946D01*
X1429053Y49836D01*
X1429079Y49726D01*
X1429101Y49614D01*
X1429118Y49502D01*
X1429132Y49390D01*
X1429142Y49277D01*
X1429148Y49163D01*
X1429150Y49050D01*
X1429148Y48937D01*
X1429142Y48823D01*
X1429132Y48710D01*
X1429118Y48598D01*
X1429101Y48486D01*
X1429079Y48374D01*
X1429053Y48264D01*
X1429024Y48154D01*
X1428991Y48046D01*
X1428954Y47938D01*
X1428913Y47833D01*
X1428869Y47728D01*
X1428821Y47625D01*
X1428770Y47524D01*
X1428715Y47425D01*
X1428656Y47328D01*
X1428594Y47233D01*
X1428529Y47140D01*
X1428461Y47049D01*
X1428390Y46961D01*
X1428315Y46875D01*
X1428238Y46792D01*
X1428158Y46712D01*
X1428075Y46635D01*
X1427989Y46560D01*
X1427901Y46489D01*
X1427810Y46421D01*
X1427717Y46356D01*
X1427622Y46294D01*
X1427525Y46235D01*
X1427426Y46180D01*
X1427325Y46129D01*
X1427222Y46081D01*
X1427117Y46037D01*
X1427012Y45996D01*
X1426904Y45959D01*
X1426796Y45926D01*
X1426686Y45897D01*
X1426576Y45871D01*
X1426464Y45849D01*
X1426352Y45832D01*
X1426240Y45818D01*
X1426127Y45808D01*
X1426013Y45802D01*
X1425900Y45800D01*
X1425787Y45802D01*
X1425673Y45808D01*
X1425560Y45818D01*
X1425448Y45832D01*
X1425336Y45849D01*
X1425224Y45871D01*
X1425114Y45897D01*
X1425004Y45926D01*
X1424896Y45959D01*
X1424788Y45996D01*
X1424683Y46037D01*
X1424578Y46081D01*
X1424475Y46129D01*
X1424374Y46180D01*
X1424275Y46235D01*
X1424178Y46294D01*
X1424083Y46356D01*
X1423990Y46421D01*
X1423899Y46489D01*
X1423811Y46560D01*
X1423725Y46635D01*
X1423642Y46712D01*
X1423562Y46792D01*
X1423485Y46875D01*
X1423410Y46961D01*
X1423339Y47049D01*
X1423271Y47140D01*
X1423206Y47233D01*
X1423144Y47328D01*
X1423085Y47425D01*
X1423030Y47524D01*
X1422979Y47625D01*
X1422931Y47728D01*
X1422887Y47833D01*
X1422846Y47938D01*
X1422809Y48046D01*
X1422776Y48154D01*
X1422747Y48264D01*
X1422721Y48374D01*
X1422699Y48486D01*
X1422682Y48598D01*
X1422668Y48710D01*
X1422658Y48823D01*
X1422652Y48937D01*
X1422650Y49050D01*
D11*
X1353820Y48850D02*
X1353820Y59850D01*
X1440180Y59850D02*
X1440180Y48850D01*
X1353820Y15700D02*
X1353820Y9500D01*
X1440180Y9500D02*
X1440180Y15700D01*
D15*
X231400Y922020D02*
X231405Y922419D01*
X231420Y922817D01*
X231444Y923215D01*
X231478Y923613D01*
X231522Y924009D01*
X231576Y924404D01*
X231639Y924798D01*
X231712Y925190D01*
X231795Y925580D01*
X231887Y925968D01*
X231989Y926354D01*
X232100Y926737D01*
X232220Y927117D01*
X232350Y927494D01*
X232489Y927868D01*
X232637Y928239D01*
X232794Y928605D01*
X232960Y928968D01*
X233135Y929326D01*
X233319Y929680D01*
X233511Y930030D01*
X233712Y930374D01*
X233921Y930714D01*
X234139Y931048D01*
X234364Y931377D01*
X234598Y931700D01*
X234839Y932018D01*
X235089Y932329D01*
X235345Y932634D01*
X235610Y932933D01*
X235881Y933225D01*
X236160Y933510D01*
X236445Y933789D01*
X236737Y934060D01*
X237036Y934325D01*
X237341Y934581D01*
X237652Y934831D01*
X237970Y935072D01*
X238293Y935306D01*
X238622Y935531D01*
X238956Y935749D01*
X239296Y935958D01*
X239640Y936159D01*
X239990Y936351D01*
X240344Y936535D01*
X240702Y936710D01*
X241065Y936876D01*
X241431Y937033D01*
X241802Y937181D01*
X242176Y937320D01*
X242553Y937450D01*
X242933Y937570D01*
X243316Y937681D01*
X243702Y937783D01*
X244090Y937875D01*
X244480Y937958D01*
X244872Y938031D01*
X245266Y938094D01*
X245661Y938148D01*
X246057Y938192D01*
X246455Y938226D01*
X246853Y938250D01*
X247251Y938265D01*
X247650Y938270D01*
X248049Y938265D01*
X248447Y938250D01*
X248845Y938226D01*
X249243Y938192D01*
X249639Y938148D01*
X250034Y938094D01*
X250428Y938031D01*
X250820Y937958D01*
X251210Y937875D01*
X251598Y937783D01*
X251984Y937681D01*
X252367Y937570D01*
X252747Y937450D01*
X253124Y937320D01*
X253498Y937181D01*
X253869Y937033D01*
X254235Y936876D01*
X254598Y936710D01*
X254956Y936535D01*
X255310Y936351D01*
X255660Y936159D01*
X256004Y935958D01*
X256344Y935749D01*
X256678Y935531D01*
X257007Y935306D01*
X257330Y935072D01*
X257648Y934831D01*
X257959Y934581D01*
X258264Y934325D01*
X258563Y934060D01*
X258855Y933789D01*
X259140Y933510D01*
X259419Y933225D01*
X259690Y932933D01*
X259955Y932634D01*
X260211Y932329D01*
X260461Y932018D01*
X260702Y931700D01*
X260936Y931377D01*
X261161Y931048D01*
X261379Y930714D01*
X261588Y930374D01*
X261789Y930030D01*
X261981Y929680D01*
X262165Y929326D01*
X262340Y928968D01*
X262506Y928605D01*
X262663Y928239D01*
X262811Y927868D01*
X262950Y927494D01*
X263080Y927117D01*
X263200Y926737D01*
X263311Y926354D01*
X263413Y925968D01*
X263505Y925580D01*
X263588Y925190D01*
X263661Y924798D01*
X263724Y924404D01*
X263778Y924009D01*
X263822Y923613D01*
X263856Y923215D01*
X263880Y922817D01*
X263895Y922419D01*
X263900Y922020D01*
X263895Y921621D01*
X263880Y921223D01*
X263856Y920825D01*
X263822Y920427D01*
X263778Y920031D01*
X263724Y919636D01*
X263661Y919242D01*
X263588Y918850D01*
X263505Y918460D01*
X263413Y918072D01*
X263311Y917686D01*
X263200Y917303D01*
X263080Y916923D01*
X262950Y916546D01*
X262811Y916172D01*
X262663Y915801D01*
X262506Y915435D01*
X262340Y915072D01*
X262165Y914714D01*
X261981Y914360D01*
X261789Y914010D01*
X261588Y913666D01*
X261379Y913326D01*
X261161Y912992D01*
X260936Y912663D01*
X260702Y912340D01*
X260461Y912022D01*
X260211Y911711D01*
X259955Y911406D01*
X259690Y911107D01*
X259419Y910815D01*
X259140Y910530D01*
X258855Y910251D01*
X258563Y909980D01*
X258264Y909715D01*
X257959Y909459D01*
X257648Y909209D01*
X257330Y908968D01*
X257007Y908734D01*
X256678Y908509D01*
X256344Y908291D01*
X256004Y908082D01*
X255660Y907881D01*
X255310Y907689D01*
X254956Y907505D01*
X254598Y907330D01*
X254235Y907164D01*
X253869Y907007D01*
X253498Y906859D01*
X253124Y906720D01*
X252747Y906590D01*
X252367Y906470D01*
X251984Y906359D01*
X251598Y906257D01*
X251210Y906165D01*
X250820Y906082D01*
X250428Y906009D01*
X250034Y905946D01*
X249639Y905892D01*
X249243Y905848D01*
X248845Y905814D01*
X248447Y905790D01*
X248049Y905775D01*
X247650Y905770D01*
X247251Y905775D01*
X246853Y905790D01*
X246455Y905814D01*
X246057Y905848D01*
X245661Y905892D01*
X245266Y905946D01*
X244872Y906009D01*
X244480Y906082D01*
X244090Y906165D01*
X243702Y906257D01*
X243316Y906359D01*
X242933Y906470D01*
X242553Y906590D01*
X242176Y906720D01*
X241802Y906859D01*
X241431Y907007D01*
X241065Y907164D01*
X240702Y907330D01*
X240344Y907505D01*
X239990Y907689D01*
X239640Y907881D01*
X239296Y908082D01*
X238956Y908291D01*
X238622Y908509D01*
X238293Y908734D01*
X237970Y908968D01*
X237652Y909209D01*
X237341Y909459D01*
X237036Y909715D01*
X236737Y909980D01*
X236445Y910251D01*
X236160Y910530D01*
X235881Y910815D01*
X235610Y911107D01*
X235345Y911406D01*
X235089Y911711D01*
X234839Y912022D01*
X234598Y912340D01*
X234364Y912663D01*
X234139Y912992D01*
X233921Y913326D01*
X233712Y913666D01*
X233511Y914010D01*
X233319Y914360D01*
X233135Y914714D01*
X232960Y915072D01*
X232794Y915435D01*
X232637Y915801D01*
X232489Y916172D01*
X232350Y916546D01*
X232220Y916923D01*
X232100Y917303D01*
X231989Y917686D01*
X231887Y918072D01*
X231795Y918460D01*
X231712Y918850D01*
X231639Y919242D01*
X231576Y919636D01*
X231522Y920031D01*
X231478Y920427D01*
X231444Y920825D01*
X231420Y921223D01*
X231405Y921621D01*
X231400Y922020D01*
X117100Y922020D02*
X117105Y922419D01*
X117120Y922817D01*
X117144Y923215D01*
X117178Y923613D01*
X117222Y924009D01*
X117276Y924404D01*
X117339Y924798D01*
X117412Y925190D01*
X117495Y925580D01*
X117587Y925968D01*
X117689Y926354D01*
X117800Y926737D01*
X117920Y927117D01*
X118050Y927494D01*
X118189Y927868D01*
X118337Y928239D01*
X118494Y928605D01*
X118660Y928968D01*
X118835Y929326D01*
X119019Y929680D01*
X119211Y930030D01*
X119412Y930374D01*
X119621Y930714D01*
X119839Y931048D01*
X120064Y931377D01*
X120298Y931700D01*
X120539Y932018D01*
X120789Y932329D01*
X121045Y932634D01*
X121310Y932933D01*
X121581Y933225D01*
X121860Y933510D01*
X122145Y933789D01*
X122437Y934060D01*
X122736Y934325D01*
X123041Y934581D01*
X123352Y934831D01*
X123670Y935072D01*
X123993Y935306D01*
X124322Y935531D01*
X124656Y935749D01*
X124996Y935958D01*
X125340Y936159D01*
X125690Y936351D01*
X126044Y936535D01*
X126402Y936710D01*
X126765Y936876D01*
X127131Y937033D01*
X127502Y937181D01*
X127876Y937320D01*
X128253Y937450D01*
X128633Y937570D01*
X129016Y937681D01*
X129402Y937783D01*
X129790Y937875D01*
X130180Y937958D01*
X130572Y938031D01*
X130966Y938094D01*
X131361Y938148D01*
X131757Y938192D01*
X132155Y938226D01*
X132553Y938250D01*
X132951Y938265D01*
X133350Y938270D01*
X133749Y938265D01*
X134147Y938250D01*
X134545Y938226D01*
X134943Y938192D01*
X135339Y938148D01*
X135734Y938094D01*
X136128Y938031D01*
X136520Y937958D01*
X136910Y937875D01*
X137298Y937783D01*
X137684Y937681D01*
X138067Y937570D01*
X138447Y937450D01*
X138824Y937320D01*
X139198Y937181D01*
X139569Y937033D01*
X139935Y936876D01*
X140298Y936710D01*
X140656Y936535D01*
X141010Y936351D01*
X141360Y936159D01*
X141704Y935958D01*
X142044Y935749D01*
X142378Y935531D01*
X142707Y935306D01*
X143030Y935072D01*
X143348Y934831D01*
X143659Y934581D01*
X143964Y934325D01*
X144263Y934060D01*
X144555Y933789D01*
X144840Y933510D01*
X145119Y933225D01*
X145390Y932933D01*
X145655Y932634D01*
X145911Y932329D01*
X146161Y932018D01*
X146402Y931700D01*
X146636Y931377D01*
X146861Y931048D01*
X147079Y930714D01*
X147288Y930374D01*
X147489Y930030D01*
X147681Y929680D01*
X147865Y929326D01*
X148040Y928968D01*
X148206Y928605D01*
X148363Y928239D01*
X148511Y927868D01*
X148650Y927494D01*
X148780Y927117D01*
X148900Y926737D01*
X149011Y926354D01*
X149113Y925968D01*
X149205Y925580D01*
X149288Y925190D01*
X149361Y924798D01*
X149424Y924404D01*
X149478Y924009D01*
X149522Y923613D01*
X149556Y923215D01*
X149580Y922817D01*
X149595Y922419D01*
X149600Y922020D01*
X149595Y921621D01*
X149580Y921223D01*
X149556Y920825D01*
X149522Y920427D01*
X149478Y920031D01*
X149424Y919636D01*
X149361Y919242D01*
X149288Y918850D01*
X149205Y918460D01*
X149113Y918072D01*
X149011Y917686D01*
X148900Y917303D01*
X148780Y916923D01*
X148650Y916546D01*
X148511Y916172D01*
X148363Y915801D01*
X148206Y915435D01*
X148040Y915072D01*
X147865Y914714D01*
X147681Y914360D01*
X147489Y914010D01*
X147288Y913666D01*
X147079Y913326D01*
X146861Y912992D01*
X146636Y912663D01*
X146402Y912340D01*
X146161Y912022D01*
X145911Y911711D01*
X145655Y911406D01*
X145390Y911107D01*
X145119Y910815D01*
X144840Y910530D01*
X144555Y910251D01*
X144263Y909980D01*
X143964Y909715D01*
X143659Y909459D01*
X143348Y909209D01*
X143030Y908968D01*
X142707Y908734D01*
X142378Y908509D01*
X142044Y908291D01*
X141704Y908082D01*
X141360Y907881D01*
X141010Y907689D01*
X140656Y907505D01*
X140298Y907330D01*
X139935Y907164D01*
X139569Y907007D01*
X139198Y906859D01*
X138824Y906720D01*
X138447Y906590D01*
X138067Y906470D01*
X137684Y906359D01*
X137298Y906257D01*
X136910Y906165D01*
X136520Y906082D01*
X136128Y906009D01*
X135734Y905946D01*
X135339Y905892D01*
X134943Y905848D01*
X134545Y905814D01*
X134147Y905790D01*
X133749Y905775D01*
X133350Y905770D01*
X132951Y905775D01*
X132553Y905790D01*
X132155Y905814D01*
X131757Y905848D01*
X131361Y905892D01*
X130966Y905946D01*
X130572Y906009D01*
X130180Y906082D01*
X129790Y906165D01*
X129402Y906257D01*
X129016Y906359D01*
X128633Y906470D01*
X128253Y906590D01*
X127876Y906720D01*
X127502Y906859D01*
X127131Y907007D01*
X126765Y907164D01*
X126402Y907330D01*
X126044Y907505D01*
X125690Y907689D01*
X125340Y907881D01*
X124996Y908082D01*
X124656Y908291D01*
X124322Y908509D01*
X123993Y908734D01*
X123670Y908968D01*
X123352Y909209D01*
X123041Y909459D01*
X122736Y909715D01*
X122437Y909980D01*
X122145Y910251D01*
X121860Y910530D01*
X121581Y910815D01*
X121310Y911107D01*
X121045Y911406D01*
X120789Y911711D01*
X120539Y912022D01*
X120298Y912340D01*
X120064Y912663D01*
X119839Y912992D01*
X119621Y913326D01*
X119412Y913666D01*
X119211Y914010D01*
X119019Y914360D01*
X118835Y914714D01*
X118660Y915072D01*
X118494Y915435D01*
X118337Y915801D01*
X118189Y916172D01*
X118050Y916546D01*
X117920Y916923D01*
X117800Y917303D01*
X117689Y917686D01*
X117587Y918072D01*
X117495Y918460D01*
X117412Y918850D01*
X117339Y919242D01*
X117276Y919636D01*
X117222Y920031D01*
X117178Y920427D01*
X117144Y920825D01*
X117120Y921223D01*
X117105Y921621D01*
X117100Y922020D01*
X638810Y101600D02*
X638815Y101974D01*
X638828Y102348D01*
X638851Y102721D01*
X638883Y103094D01*
X638925Y103466D01*
X638975Y103836D01*
X639034Y104205D01*
X639103Y104573D01*
X639180Y104939D01*
X639267Y105303D01*
X639362Y105665D01*
X639466Y106024D01*
X639579Y106381D01*
X639701Y106734D01*
X639831Y107085D01*
X639970Y107432D01*
X640117Y107776D01*
X640273Y108116D01*
X640437Y108452D01*
X640610Y108784D01*
X640790Y109112D01*
X640978Y109435D01*
X641174Y109753D01*
X641378Y110067D01*
X641590Y110375D01*
X641809Y110678D01*
X642036Y110976D01*
X642269Y111268D01*
X642510Y111554D01*
X642758Y111835D01*
X643012Y112109D01*
X643274Y112376D01*
X643541Y112638D01*
X643815Y112892D01*
X644096Y113140D01*
X644382Y113381D01*
X644674Y113614D01*
X644972Y113841D01*
X645275Y114060D01*
X645583Y114272D01*
X645897Y114476D01*
X646215Y114672D01*
X646538Y114860D01*
X646866Y115040D01*
X647198Y115213D01*
X647534Y115377D01*
X647874Y115533D01*
X648218Y115680D01*
X648565Y115819D01*
X648916Y115949D01*
X649269Y116071D01*
X649626Y116184D01*
X649985Y116288D01*
X650347Y116383D01*
X650711Y116470D01*
X651077Y116547D01*
X651445Y116616D01*
X651814Y116675D01*
X652184Y116725D01*
X652556Y116767D01*
X652929Y116799D01*
X653302Y116822D01*
X653676Y116835D01*
X654050Y116840D01*
X654424Y116835D01*
X654798Y116822D01*
X655171Y116799D01*
X655544Y116767D01*
X655916Y116725D01*
X656286Y116675D01*
X656655Y116616D01*
X657023Y116547D01*
X657389Y116470D01*
X657753Y116383D01*
X658115Y116288D01*
X658474Y116184D01*
X658831Y116071D01*
X659184Y115949D01*
X659535Y115819D01*
X659882Y115680D01*
X660226Y115533D01*
X660566Y115377D01*
X660902Y115213D01*
X661234Y115040D01*
X661562Y114860D01*
X661885Y114672D01*
X662203Y114476D01*
X662517Y114272D01*
X662825Y114060D01*
X663128Y113841D01*
X663426Y113614D01*
X663718Y113381D01*
X664004Y113140D01*
X664285Y112892D01*
X664559Y112638D01*
X664826Y112376D01*
X665088Y112109D01*
X665342Y111835D01*
X665590Y111554D01*
X665831Y111268D01*
X666064Y110976D01*
X666291Y110678D01*
X666510Y110375D01*
X666722Y110067D01*
X666926Y109753D01*
X667122Y109435D01*
X667310Y109112D01*
X667490Y108784D01*
X667663Y108452D01*
X667827Y108116D01*
X667983Y107776D01*
X668130Y107432D01*
X668269Y107085D01*
X668399Y106734D01*
X668521Y106381D01*
X668634Y106024D01*
X668738Y105665D01*
X668833Y105303D01*
X668920Y104939D01*
X668997Y104573D01*
X669066Y104205D01*
X669125Y103836D01*
X669175Y103466D01*
X669217Y103094D01*
X669249Y102721D01*
X669272Y102348D01*
X669285Y101974D01*
X669290Y101600D01*
X669285Y101226D01*
X669272Y100852D01*
X669249Y100479D01*
X669217Y100106D01*
X669175Y99734D01*
X669125Y99364D01*
X669066Y98995D01*
X668997Y98627D01*
X668920Y98261D01*
X668833Y97897D01*
X668738Y97535D01*
X668634Y97176D01*
X668521Y96819D01*
X668399Y96466D01*
X668269Y96115D01*
X668130Y95768D01*
X667983Y95424D01*
X667827Y95084D01*
X667663Y94748D01*
X667490Y94416D01*
X667310Y94088D01*
X667122Y93765D01*
X666926Y93447D01*
X666722Y93133D01*
X666510Y92825D01*
X666291Y92522D01*
X666064Y92224D01*
X665831Y91932D01*
X665590Y91646D01*
X665342Y91365D01*
X665088Y91091D01*
X664826Y90824D01*
X664559Y90562D01*
X664285Y90308D01*
X664004Y90060D01*
X663718Y89819D01*
X663426Y89586D01*
X663128Y89359D01*
X662825Y89140D01*
X662517Y88928D01*
X662203Y88724D01*
X661885Y88528D01*
X661562Y88340D01*
X661234Y88160D01*
X660902Y87987D01*
X660566Y87823D01*
X660226Y87667D01*
X659882Y87520D01*
X659535Y87381D01*
X659184Y87251D01*
X658831Y87129D01*
X658474Y87016D01*
X658115Y86912D01*
X657753Y86817D01*
X657389Y86730D01*
X657023Y86653D01*
X656655Y86584D01*
X656286Y86525D01*
X655916Y86475D01*
X655544Y86433D01*
X655171Y86401D01*
X654798Y86378D01*
X654424Y86365D01*
X654050Y86360D01*
X653676Y86365D01*
X653302Y86378D01*
X652929Y86401D01*
X652556Y86433D01*
X652184Y86475D01*
X651814Y86525D01*
X651445Y86584D01*
X651077Y86653D01*
X650711Y86730D01*
X650347Y86817D01*
X649985Y86912D01*
X649626Y87016D01*
X649269Y87129D01*
X648916Y87251D01*
X648565Y87381D01*
X648218Y87520D01*
X647874Y87667D01*
X647534Y87823D01*
X647198Y87987D01*
X646866Y88160D01*
X646538Y88340D01*
X646215Y88528D01*
X645897Y88724D01*
X645583Y88928D01*
X645275Y89140D01*
X644972Y89359D01*
X644674Y89586D01*
X644382Y89819D01*
X644096Y90060D01*
X643815Y90308D01*
X643541Y90562D01*
X643274Y90824D01*
X643012Y91091D01*
X642758Y91365D01*
X642510Y91646D01*
X642269Y91932D01*
X642036Y92224D01*
X641809Y92522D01*
X641590Y92825D01*
X641378Y93133D01*
X641174Y93447D01*
X640978Y93765D01*
X640790Y94088D01*
X640610Y94416D01*
X640437Y94748D01*
X640273Y95084D01*
X640117Y95424D01*
X639970Y95768D01*
X639831Y96115D01*
X639701Y96466D01*
X639579Y96819D01*
X639466Y97176D01*
X639362Y97535D01*
X639267Y97897D01*
X639180Y98261D01*
X639103Y98627D01*
X639034Y98995D01*
X638975Y99364D01*
X638925Y99734D01*
X638883Y100106D01*
X638851Y100479D01*
X638828Y100852D01*
X638815Y101226D01*
X638810Y101600D01*
X854710Y101600D02*
X854715Y101974D01*
X854728Y102348D01*
X854751Y102721D01*
X854783Y103094D01*
X854825Y103466D01*
X854875Y103836D01*
X854934Y104205D01*
X855003Y104573D01*
X855080Y104939D01*
X855167Y105303D01*
X855262Y105665D01*
X855366Y106024D01*
X855479Y106381D01*
X855601Y106734D01*
X855731Y107085D01*
X855870Y107432D01*
X856017Y107776D01*
X856173Y108116D01*
X856337Y108452D01*
X856510Y108784D01*
X856690Y109112D01*
X856878Y109435D01*
X857074Y109753D01*
X857278Y110067D01*
X857490Y110375D01*
X857709Y110678D01*
X857936Y110976D01*
X858169Y111268D01*
X858410Y111554D01*
X858658Y111835D01*
X858912Y112109D01*
X859174Y112376D01*
X859441Y112638D01*
X859715Y112892D01*
X859996Y113140D01*
X860282Y113381D01*
X860574Y113614D01*
X860872Y113841D01*
X861175Y114060D01*
X861483Y114272D01*
X861797Y114476D01*
X862115Y114672D01*
X862438Y114860D01*
X862766Y115040D01*
X863098Y115213D01*
X863434Y115377D01*
X863774Y115533D01*
X864118Y115680D01*
X864465Y115819D01*
X864816Y115949D01*
X865169Y116071D01*
X865526Y116184D01*
X865885Y116288D01*
X866247Y116383D01*
X866611Y116470D01*
X866977Y116547D01*
X867345Y116616D01*
X867714Y116675D01*
X868084Y116725D01*
X868456Y116767D01*
X868829Y116799D01*
X869202Y116822D01*
X869576Y116835D01*
X869950Y116840D01*
X870324Y116835D01*
X870698Y116822D01*
X871071Y116799D01*
X871444Y116767D01*
X871816Y116725D01*
X872186Y116675D01*
X872555Y116616D01*
X872923Y116547D01*
X873289Y116470D01*
X873653Y116383D01*
X874015Y116288D01*
X874374Y116184D01*
X874731Y116071D01*
X875084Y115949D01*
X875435Y115819D01*
X875782Y115680D01*
X876126Y115533D01*
X876466Y115377D01*
X876802Y115213D01*
X877134Y115040D01*
X877462Y114860D01*
X877785Y114672D01*
X878103Y114476D01*
X878417Y114272D01*
X878725Y114060D01*
X879028Y113841D01*
X879326Y113614D01*
X879618Y113381D01*
X879904Y113140D01*
X880185Y112892D01*
X880459Y112638D01*
X880726Y112376D01*
X880988Y112109D01*
X881242Y111835D01*
X881490Y111554D01*
X881731Y111268D01*
X881964Y110976D01*
X882191Y110678D01*
X882410Y110375D01*
X882622Y110067D01*
X882826Y109753D01*
X883022Y109435D01*
X883210Y109112D01*
X883390Y108784D01*
X883563Y108452D01*
X883727Y108116D01*
X883883Y107776D01*
X884030Y107432D01*
X884169Y107085D01*
X884299Y106734D01*
X884421Y106381D01*
X884534Y106024D01*
X884638Y105665D01*
X884733Y105303D01*
X884820Y104939D01*
X884897Y104573D01*
X884966Y104205D01*
X885025Y103836D01*
X885075Y103466D01*
X885117Y103094D01*
X885149Y102721D01*
X885172Y102348D01*
X885185Y101974D01*
X885190Y101600D01*
X885185Y101226D01*
X885172Y100852D01*
X885149Y100479D01*
X885117Y100106D01*
X885075Y99734D01*
X885025Y99364D01*
X884966Y98995D01*
X884897Y98627D01*
X884820Y98261D01*
X884733Y97897D01*
X884638Y97535D01*
X884534Y97176D01*
X884421Y96819D01*
X884299Y96466D01*
X884169Y96115D01*
X884030Y95768D01*
X883883Y95424D01*
X883727Y95084D01*
X883563Y94748D01*
X883390Y94416D01*
X883210Y94088D01*
X883022Y93765D01*
X882826Y93447D01*
X882622Y93133D01*
X882410Y92825D01*
X882191Y92522D01*
X881964Y92224D01*
X881731Y91932D01*
X881490Y91646D01*
X881242Y91365D01*
X880988Y91091D01*
X880726Y90824D01*
X880459Y90562D01*
X880185Y90308D01*
X879904Y90060D01*
X879618Y89819D01*
X879326Y89586D01*
X879028Y89359D01*
X878725Y89140D01*
X878417Y88928D01*
X878103Y88724D01*
X877785Y88528D01*
X877462Y88340D01*
X877134Y88160D01*
X876802Y87987D01*
X876466Y87823D01*
X876126Y87667D01*
X875782Y87520D01*
X875435Y87381D01*
X875084Y87251D01*
X874731Y87129D01*
X874374Y87016D01*
X874015Y86912D01*
X873653Y86817D01*
X873289Y86730D01*
X872923Y86653D01*
X872555Y86584D01*
X872186Y86525D01*
X871816Y86475D01*
X871444Y86433D01*
X871071Y86401D01*
X870698Y86378D01*
X870324Y86365D01*
X869950Y86360D01*
X869576Y86365D01*
X869202Y86378D01*
X868829Y86401D01*
X868456Y86433D01*
X868084Y86475D01*
X867714Y86525D01*
X867345Y86584D01*
X866977Y86653D01*
X866611Y86730D01*
X866247Y86817D01*
X865885Y86912D01*
X865526Y87016D01*
X865169Y87129D01*
X864816Y87251D01*
X864465Y87381D01*
X864118Y87520D01*
X863774Y87667D01*
X863434Y87823D01*
X863098Y87987D01*
X862766Y88160D01*
X862438Y88340D01*
X862115Y88528D01*
X861797Y88724D01*
X861483Y88928D01*
X861175Y89140D01*
X860872Y89359D01*
X860574Y89586D01*
X860282Y89819D01*
X859996Y90060D01*
X859715Y90308D01*
X859441Y90562D01*
X859174Y90824D01*
X858912Y91091D01*
X858658Y91365D01*
X858410Y91646D01*
X858169Y91932D01*
X857936Y92224D01*
X857709Y92522D01*
X857490Y92825D01*
X857278Y93133D01*
X857074Y93447D01*
X856878Y93765D01*
X856690Y94088D01*
X856510Y94416D01*
X856337Y94748D01*
X856173Y95084D01*
X856017Y95424D01*
X855870Y95768D01*
X855731Y96115D01*
X855601Y96466D01*
X855479Y96819D01*
X855366Y97176D01*
X855262Y97535D01*
X855167Y97897D01*
X855080Y98261D01*
X855003Y98627D01*
X854934Y98995D01*
X854875Y99364D01*
X854825Y99734D01*
X854783Y100106D01*
X854751Y100479D01*
X854728Y100852D01*
X854715Y101226D01*
X854710Y101600D01*
X848360Y203200D02*
X848365Y203574D01*
X848378Y203948D01*
X848401Y204321D01*
X848433Y204694D01*
X848475Y205066D01*
X848525Y205436D01*
X848584Y205805D01*
X848653Y206173D01*
X848730Y206539D01*
X848817Y206903D01*
X848912Y207265D01*
X849016Y207624D01*
X849129Y207981D01*
X849251Y208334D01*
X849381Y208685D01*
X849520Y209032D01*
X849667Y209376D01*
X849823Y209716D01*
X849987Y210052D01*
X850160Y210384D01*
X850340Y210712D01*
X850528Y211035D01*
X850724Y211353D01*
X850928Y211667D01*
X851140Y211975D01*
X851359Y212278D01*
X851586Y212576D01*
X851819Y212868D01*
X852060Y213154D01*
X852308Y213435D01*
X852562Y213709D01*
X852824Y213976D01*
X853091Y214238D01*
X853365Y214492D01*
X853646Y214740D01*
X853932Y214981D01*
X854224Y215214D01*
X854522Y215441D01*
X854825Y215660D01*
X855133Y215872D01*
X855447Y216076D01*
X855765Y216272D01*
X856088Y216460D01*
X856416Y216640D01*
X856748Y216813D01*
X857084Y216977D01*
X857424Y217133D01*
X857768Y217280D01*
X858115Y217419D01*
X858466Y217549D01*
X858819Y217671D01*
X859176Y217784D01*
X859535Y217888D01*
X859897Y217983D01*
X860261Y218070D01*
X860627Y218147D01*
X860995Y218216D01*
X861364Y218275D01*
X861734Y218325D01*
X862106Y218367D01*
X862479Y218399D01*
X862852Y218422D01*
X863226Y218435D01*
X863600Y218440D01*
X863974Y218435D01*
X864348Y218422D01*
X864721Y218399D01*
X865094Y218367D01*
X865466Y218325D01*
X865836Y218275D01*
X866205Y218216D01*
X866573Y218147D01*
X866939Y218070D01*
X867303Y217983D01*
X867665Y217888D01*
X868024Y217784D01*
X868381Y217671D01*
X868734Y217549D01*
X869085Y217419D01*
X869432Y217280D01*
X869776Y217133D01*
X870116Y216977D01*
X870452Y216813D01*
X870784Y216640D01*
X871112Y216460D01*
X871435Y216272D01*
X871753Y216076D01*
X872067Y215872D01*
X872375Y215660D01*
X872678Y215441D01*
X872976Y215214D01*
X873268Y214981D01*
X873554Y214740D01*
X873835Y214492D01*
X874109Y214238D01*
X874376Y213976D01*
X874638Y213709D01*
X874892Y213435D01*
X875140Y213154D01*
X875381Y212868D01*
X875614Y212576D01*
X875841Y212278D01*
X876060Y211975D01*
X876272Y211667D01*
X876476Y211353D01*
X876672Y211035D01*
X876860Y210712D01*
X877040Y210384D01*
X877213Y210052D01*
X877377Y209716D01*
X877533Y209376D01*
X877680Y209032D01*
X877819Y208685D01*
X877949Y208334D01*
X878071Y207981D01*
X878184Y207624D01*
X878288Y207265D01*
X878383Y206903D01*
X878470Y206539D01*
X878547Y206173D01*
X878616Y205805D01*
X878675Y205436D01*
X878725Y205066D01*
X878767Y204694D01*
X878799Y204321D01*
X878822Y203948D01*
X878835Y203574D01*
X878840Y203200D01*
X878835Y202826D01*
X878822Y202452D01*
X878799Y202079D01*
X878767Y201706D01*
X878725Y201334D01*
X878675Y200964D01*
X878616Y200595D01*
X878547Y200227D01*
X878470Y199861D01*
X878383Y199497D01*
X878288Y199135D01*
X878184Y198776D01*
X878071Y198419D01*
X877949Y198066D01*
X877819Y197715D01*
X877680Y197368D01*
X877533Y197024D01*
X877377Y196684D01*
X877213Y196348D01*
X877040Y196016D01*
X876860Y195688D01*
X876672Y195365D01*
X876476Y195047D01*
X876272Y194733D01*
X876060Y194425D01*
X875841Y194122D01*
X875614Y193824D01*
X875381Y193532D01*
X875140Y193246D01*
X874892Y192965D01*
X874638Y192691D01*
X874376Y192424D01*
X874109Y192162D01*
X873835Y191908D01*
X873554Y191660D01*
X873268Y191419D01*
X872976Y191186D01*
X872678Y190959D01*
X872375Y190740D01*
X872067Y190528D01*
X871753Y190324D01*
X871435Y190128D01*
X871112Y189940D01*
X870784Y189760D01*
X870452Y189587D01*
X870116Y189423D01*
X869776Y189267D01*
X869432Y189120D01*
X869085Y188981D01*
X868734Y188851D01*
X868381Y188729D01*
X868024Y188616D01*
X867665Y188512D01*
X867303Y188417D01*
X866939Y188330D01*
X866573Y188253D01*
X866205Y188184D01*
X865836Y188125D01*
X865466Y188075D01*
X865094Y188033D01*
X864721Y188001D01*
X864348Y187978D01*
X863974Y187965D01*
X863600Y187960D01*
X863226Y187965D01*
X862852Y187978D01*
X862479Y188001D01*
X862106Y188033D01*
X861734Y188075D01*
X861364Y188125D01*
X860995Y188184D01*
X860627Y188253D01*
X860261Y188330D01*
X859897Y188417D01*
X859535Y188512D01*
X859176Y188616D01*
X858819Y188729D01*
X858466Y188851D01*
X858115Y188981D01*
X857768Y189120D01*
X857424Y189267D01*
X857084Y189423D01*
X856748Y189587D01*
X856416Y189760D01*
X856088Y189940D01*
X855765Y190128D01*
X855447Y190324D01*
X855133Y190528D01*
X854825Y190740D01*
X854522Y190959D01*
X854224Y191186D01*
X853932Y191419D01*
X853646Y191660D01*
X853365Y191908D01*
X853091Y192162D01*
X852824Y192424D01*
X852562Y192691D01*
X852308Y192965D01*
X852060Y193246D01*
X851819Y193532D01*
X851586Y193824D01*
X851359Y194122D01*
X851140Y194425D01*
X850928Y194733D01*
X850724Y195047D01*
X850528Y195365D01*
X850340Y195688D01*
X850160Y196016D01*
X849987Y196348D01*
X849823Y196684D01*
X849667Y197024D01*
X849520Y197368D01*
X849381Y197715D01*
X849251Y198066D01*
X849129Y198419D01*
X849016Y198776D01*
X848912Y199135D01*
X848817Y199497D01*
X848730Y199861D01*
X848653Y200227D01*
X848584Y200595D01*
X848525Y200964D01*
X848475Y201334D01*
X848433Y201706D01*
X848401Y202079D01*
X848378Y202452D01*
X848365Y202826D01*
X848360Y203200D01*
X848360Y406400D02*
X848365Y406774D01*
X848378Y407148D01*
X848401Y407521D01*
X848433Y407894D01*
X848475Y408266D01*
X848525Y408636D01*
X848584Y409005D01*
X848653Y409373D01*
X848730Y409739D01*
X848817Y410103D01*
X848912Y410465D01*
X849016Y410824D01*
X849129Y411181D01*
X849251Y411534D01*
X849381Y411885D01*
X849520Y412232D01*
X849667Y412576D01*
X849823Y412916D01*
X849987Y413252D01*
X850160Y413584D01*
X850340Y413912D01*
X850528Y414235D01*
X850724Y414553D01*
X850928Y414867D01*
X851140Y415175D01*
X851359Y415478D01*
X851586Y415776D01*
X851819Y416068D01*
X852060Y416354D01*
X852308Y416635D01*
X852562Y416909D01*
X852824Y417176D01*
X853091Y417438D01*
X853365Y417692D01*
X853646Y417940D01*
X853932Y418181D01*
X854224Y418414D01*
X854522Y418641D01*
X854825Y418860D01*
X855133Y419072D01*
X855447Y419276D01*
X855765Y419472D01*
X856088Y419660D01*
X856416Y419840D01*
X856748Y420013D01*
X857084Y420177D01*
X857424Y420333D01*
X857768Y420480D01*
X858115Y420619D01*
X858466Y420749D01*
X858819Y420871D01*
X859176Y420984D01*
X859535Y421088D01*
X859897Y421183D01*
X860261Y421270D01*
X860627Y421347D01*
X860995Y421416D01*
X861364Y421475D01*
X861734Y421525D01*
X862106Y421567D01*
X862479Y421599D01*
X862852Y421622D01*
X863226Y421635D01*
X863600Y421640D01*
X863974Y421635D01*
X864348Y421622D01*
X864721Y421599D01*
X865094Y421567D01*
X865466Y421525D01*
X865836Y421475D01*
X866205Y421416D01*
X866573Y421347D01*
X866939Y421270D01*
X867303Y421183D01*
X867665Y421088D01*
X868024Y420984D01*
X868381Y420871D01*
X868734Y420749D01*
X869085Y420619D01*
X869432Y420480D01*
X869776Y420333D01*
X870116Y420177D01*
X870452Y420013D01*
X870784Y419840D01*
X871112Y419660D01*
X871435Y419472D01*
X871753Y419276D01*
X872067Y419072D01*
X872375Y418860D01*
X872678Y418641D01*
X872976Y418414D01*
X873268Y418181D01*
X873554Y417940D01*
X873835Y417692D01*
X874109Y417438D01*
X874376Y417176D01*
X874638Y416909D01*
X874892Y416635D01*
X875140Y416354D01*
X875381Y416068D01*
X875614Y415776D01*
X875841Y415478D01*
X876060Y415175D01*
X876272Y414867D01*
X876476Y414553D01*
X876672Y414235D01*
X876860Y413912D01*
X877040Y413584D01*
X877213Y413252D01*
X877377Y412916D01*
X877533Y412576D01*
X877680Y412232D01*
X877819Y411885D01*
X877949Y411534D01*
X878071Y411181D01*
X878184Y410824D01*
X878288Y410465D01*
X878383Y410103D01*
X878470Y409739D01*
X878547Y409373D01*
X878616Y409005D01*
X878675Y408636D01*
X878725Y408266D01*
X878767Y407894D01*
X878799Y407521D01*
X878822Y407148D01*
X878835Y406774D01*
X878840Y406400D01*
X878835Y406026D01*
X878822Y405652D01*
X878799Y405279D01*
X878767Y404906D01*
X878725Y404534D01*
X878675Y404164D01*
X878616Y403795D01*
X878547Y403427D01*
X878470Y403061D01*
X878383Y402697D01*
X878288Y402335D01*
X878184Y401976D01*
X878071Y401619D01*
X877949Y401266D01*
X877819Y400915D01*
X877680Y400568D01*
X877533Y400224D01*
X877377Y399884D01*
X877213Y399548D01*
X877040Y399216D01*
X876860Y398888D01*
X876672Y398565D01*
X876476Y398247D01*
X876272Y397933D01*
X876060Y397625D01*
X875841Y397322D01*
X875614Y397024D01*
X875381Y396732D01*
X875140Y396446D01*
X874892Y396165D01*
X874638Y395891D01*
X874376Y395624D01*
X874109Y395362D01*
X873835Y395108D01*
X873554Y394860D01*
X873268Y394619D01*
X872976Y394386D01*
X872678Y394159D01*
X872375Y393940D01*
X872067Y393728D01*
X871753Y393524D01*
X871435Y393328D01*
X871112Y393140D01*
X870784Y392960D01*
X870452Y392787D01*
X870116Y392623D01*
X869776Y392467D01*
X869432Y392320D01*
X869085Y392181D01*
X868734Y392051D01*
X868381Y391929D01*
X868024Y391816D01*
X867665Y391712D01*
X867303Y391617D01*
X866939Y391530D01*
X866573Y391453D01*
X866205Y391384D01*
X865836Y391325D01*
X865466Y391275D01*
X865094Y391233D01*
X864721Y391201D01*
X864348Y391178D01*
X863974Y391165D01*
X863600Y391160D01*
X863226Y391165D01*
X862852Y391178D01*
X862479Y391201D01*
X862106Y391233D01*
X861734Y391275D01*
X861364Y391325D01*
X860995Y391384D01*
X860627Y391453D01*
X860261Y391530D01*
X859897Y391617D01*
X859535Y391712D01*
X859176Y391816D01*
X858819Y391929D01*
X858466Y392051D01*
X858115Y392181D01*
X857768Y392320D01*
X857424Y392467D01*
X857084Y392623D01*
X856748Y392787D01*
X856416Y392960D01*
X856088Y393140D01*
X855765Y393328D01*
X855447Y393524D01*
X855133Y393728D01*
X854825Y393940D01*
X854522Y394159D01*
X854224Y394386D01*
X853932Y394619D01*
X853646Y394860D01*
X853365Y395108D01*
X853091Y395362D01*
X852824Y395624D01*
X852562Y395891D01*
X852308Y396165D01*
X852060Y396446D01*
X851819Y396732D01*
X851586Y397024D01*
X851359Y397322D01*
X851140Y397625D01*
X850928Y397933D01*
X850724Y398247D01*
X850528Y398565D01*
X850340Y398888D01*
X850160Y399216D01*
X849987Y399548D01*
X849823Y399884D01*
X849667Y400224D01*
X849520Y400568D01*
X849381Y400915D01*
X849251Y401266D01*
X849129Y401619D01*
X849016Y401976D01*
X848912Y402335D01*
X848817Y402697D01*
X848730Y403061D01*
X848653Y403427D01*
X848584Y403795D01*
X848525Y404164D01*
X848475Y404534D01*
X848433Y404906D01*
X848401Y405279D01*
X848378Y405652D01*
X848365Y406026D01*
X848360Y406400D01*
X645160Y203200D02*
X645165Y203574D01*
X645178Y203948D01*
X645201Y204321D01*
X645233Y204694D01*
X645275Y205066D01*
X645325Y205436D01*
X645384Y205805D01*
X645453Y206173D01*
X645530Y206539D01*
X645617Y206903D01*
X645712Y207265D01*
X645816Y207624D01*
X645929Y207981D01*
X646051Y208334D01*
X646181Y208685D01*
X646320Y209032D01*
X646467Y209376D01*
X646623Y209716D01*
X646787Y210052D01*
X646960Y210384D01*
X647140Y210712D01*
X647328Y211035D01*
X647524Y211353D01*
X647728Y211667D01*
X647940Y211975D01*
X648159Y212278D01*
X648386Y212576D01*
X648619Y212868D01*
X648860Y213154D01*
X649108Y213435D01*
X649362Y213709D01*
X649624Y213976D01*
X649891Y214238D01*
X650165Y214492D01*
X650446Y214740D01*
X650732Y214981D01*
X651024Y215214D01*
X651322Y215441D01*
X651625Y215660D01*
X651933Y215872D01*
X652247Y216076D01*
X652565Y216272D01*
X652888Y216460D01*
X653216Y216640D01*
X653548Y216813D01*
X653884Y216977D01*
X654224Y217133D01*
X654568Y217280D01*
X654915Y217419D01*
X655266Y217549D01*
X655619Y217671D01*
X655976Y217784D01*
X656335Y217888D01*
X656697Y217983D01*
X657061Y218070D01*
X657427Y218147D01*
X657795Y218216D01*
X658164Y218275D01*
X658534Y218325D01*
X658906Y218367D01*
X659279Y218399D01*
X659652Y218422D01*
X660026Y218435D01*
X660400Y218440D01*
X660774Y218435D01*
X661148Y218422D01*
X661521Y218399D01*
X661894Y218367D01*
X662266Y218325D01*
X662636Y218275D01*
X663005Y218216D01*
X663373Y218147D01*
X663739Y218070D01*
X664103Y217983D01*
X664465Y217888D01*
X664824Y217784D01*
X665181Y217671D01*
X665534Y217549D01*
X665885Y217419D01*
X666232Y217280D01*
X666576Y217133D01*
X666916Y216977D01*
X667252Y216813D01*
X667584Y216640D01*
X667912Y216460D01*
X668235Y216272D01*
X668553Y216076D01*
X668867Y215872D01*
X669175Y215660D01*
X669478Y215441D01*
X669776Y215214D01*
X670068Y214981D01*
X670354Y214740D01*
X670635Y214492D01*
X670909Y214238D01*
X671176Y213976D01*
X671438Y213709D01*
X671692Y213435D01*
X671940Y213154D01*
X672181Y212868D01*
X672414Y212576D01*
X672641Y212278D01*
X672860Y211975D01*
X673072Y211667D01*
X673276Y211353D01*
X673472Y211035D01*
X673660Y210712D01*
X673840Y210384D01*
X674013Y210052D01*
X674177Y209716D01*
X674333Y209376D01*
X674480Y209032D01*
X674619Y208685D01*
X674749Y208334D01*
X674871Y207981D01*
X674984Y207624D01*
X675088Y207265D01*
X675183Y206903D01*
X675270Y206539D01*
X675347Y206173D01*
X675416Y205805D01*
X675475Y205436D01*
X675525Y205066D01*
X675567Y204694D01*
X675599Y204321D01*
X675622Y203948D01*
X675635Y203574D01*
X675640Y203200D01*
X675635Y202826D01*
X675622Y202452D01*
X675599Y202079D01*
X675567Y201706D01*
X675525Y201334D01*
X675475Y200964D01*
X675416Y200595D01*
X675347Y200227D01*
X675270Y199861D01*
X675183Y199497D01*
X675088Y199135D01*
X674984Y198776D01*
X674871Y198419D01*
X674749Y198066D01*
X674619Y197715D01*
X674480Y197368D01*
X674333Y197024D01*
X674177Y196684D01*
X674013Y196348D01*
X673840Y196016D01*
X673660Y195688D01*
X673472Y195365D01*
X673276Y195047D01*
X673072Y194733D01*
X672860Y194425D01*
X672641Y194122D01*
X672414Y193824D01*
X672181Y193532D01*
X671940Y193246D01*
X671692Y192965D01*
X671438Y192691D01*
X671176Y192424D01*
X670909Y192162D01*
X670635Y191908D01*
X670354Y191660D01*
X670068Y191419D01*
X669776Y191186D01*
X669478Y190959D01*
X669175Y190740D01*
X668867Y190528D01*
X668553Y190324D01*
X668235Y190128D01*
X667912Y189940D01*
X667584Y189760D01*
X667252Y189587D01*
X666916Y189423D01*
X666576Y189267D01*
X666232Y189120D01*
X665885Y188981D01*
X665534Y188851D01*
X665181Y188729D01*
X664824Y188616D01*
X664465Y188512D01*
X664103Y188417D01*
X663739Y188330D01*
X663373Y188253D01*
X663005Y188184D01*
X662636Y188125D01*
X662266Y188075D01*
X661894Y188033D01*
X661521Y188001D01*
X661148Y187978D01*
X660774Y187965D01*
X660400Y187960D01*
X660026Y187965D01*
X659652Y187978D01*
X659279Y188001D01*
X658906Y188033D01*
X658534Y188075D01*
X658164Y188125D01*
X657795Y188184D01*
X657427Y188253D01*
X657061Y188330D01*
X656697Y188417D01*
X656335Y188512D01*
X655976Y188616D01*
X655619Y188729D01*
X655266Y188851D01*
X654915Y188981D01*
X654568Y189120D01*
X654224Y189267D01*
X653884Y189423D01*
X653548Y189587D01*
X653216Y189760D01*
X652888Y189940D01*
X652565Y190128D01*
X652247Y190324D01*
X651933Y190528D01*
X651625Y190740D01*
X651322Y190959D01*
X651024Y191186D01*
X650732Y191419D01*
X650446Y191660D01*
X650165Y191908D01*
X649891Y192162D01*
X649624Y192424D01*
X649362Y192691D01*
X649108Y192965D01*
X648860Y193246D01*
X648619Y193532D01*
X648386Y193824D01*
X648159Y194122D01*
X647940Y194425D01*
X647728Y194733D01*
X647524Y195047D01*
X647328Y195365D01*
X647140Y195688D01*
X646960Y196016D01*
X646787Y196348D01*
X646623Y196684D01*
X646467Y197024D01*
X646320Y197368D01*
X646181Y197715D01*
X646051Y198066D01*
X645929Y198419D01*
X645816Y198776D01*
X645712Y199135D01*
X645617Y199497D01*
X645530Y199861D01*
X645453Y200227D01*
X645384Y200595D01*
X645325Y200964D01*
X645275Y201334D01*
X645233Y201706D01*
X645201Y202079D01*
X645178Y202452D01*
X645165Y202826D01*
X645160Y203200D01*
X645160Y406400D02*
X645165Y406774D01*
X645178Y407148D01*
X645201Y407521D01*
X645233Y407894D01*
X645275Y408266D01*
X645325Y408636D01*
X645384Y409005D01*
X645453Y409373D01*
X645530Y409739D01*
X645617Y410103D01*
X645712Y410465D01*
X645816Y410824D01*
X645929Y411181D01*
X646051Y411534D01*
X646181Y411885D01*
X646320Y412232D01*
X646467Y412576D01*
X646623Y412916D01*
X646787Y413252D01*
X646960Y413584D01*
X647140Y413912D01*
X647328Y414235D01*
X647524Y414553D01*
X647728Y414867D01*
X647940Y415175D01*
X648159Y415478D01*
X648386Y415776D01*
X648619Y416068D01*
X648860Y416354D01*
X649108Y416635D01*
X649362Y416909D01*
X649624Y417176D01*
X649891Y417438D01*
X650165Y417692D01*
X650446Y417940D01*
X650732Y418181D01*
X651024Y418414D01*
X651322Y418641D01*
X651625Y418860D01*
X651933Y419072D01*
X652247Y419276D01*
X652565Y419472D01*
X652888Y419660D01*
X653216Y419840D01*
X653548Y420013D01*
X653884Y420177D01*
X654224Y420333D01*
X654568Y420480D01*
X654915Y420619D01*
X655266Y420749D01*
X655619Y420871D01*
X655976Y420984D01*
X656335Y421088D01*
X656697Y421183D01*
X657061Y421270D01*
X657427Y421347D01*
X657795Y421416D01*
X658164Y421475D01*
X658534Y421525D01*
X658906Y421567D01*
X659279Y421599D01*
X659652Y421622D01*
X660026Y421635D01*
X660400Y421640D01*
X660774Y421635D01*
X661148Y421622D01*
X661521Y421599D01*
X661894Y421567D01*
X662266Y421525D01*
X662636Y421475D01*
X663005Y421416D01*
X663373Y421347D01*
X663739Y421270D01*
X664103Y421183D01*
X664465Y421088D01*
X664824Y420984D01*
X665181Y420871D01*
X665534Y420749D01*
X665885Y420619D01*
X666232Y420480D01*
X666576Y420333D01*
X666916Y420177D01*
X667252Y420013D01*
X667584Y419840D01*
X667912Y419660D01*
X668235Y419472D01*
X668553Y419276D01*
X668867Y419072D01*
X669175Y418860D01*
X669478Y418641D01*
X669776Y418414D01*
X670068Y418181D01*
X670354Y417940D01*
X670635Y417692D01*
X670909Y417438D01*
X671176Y417176D01*
X671438Y416909D01*
X671692Y416635D01*
X671940Y416354D01*
X672181Y416068D01*
X672414Y415776D01*
X672641Y415478D01*
X672860Y415175D01*
X673072Y414867D01*
X673276Y414553D01*
X673472Y414235D01*
X673660Y413912D01*
X673840Y413584D01*
X674013Y413252D01*
X674177Y412916D01*
X674333Y412576D01*
X674480Y412232D01*
X674619Y411885D01*
X674749Y411534D01*
X674871Y411181D01*
X674984Y410824D01*
X675088Y410465D01*
X675183Y410103D01*
X675270Y409739D01*
X675347Y409373D01*
X675416Y409005D01*
X675475Y408636D01*
X675525Y408266D01*
X675567Y407894D01*
X675599Y407521D01*
X675622Y407148D01*
X675635Y406774D01*
X675640Y406400D01*
X675635Y406026D01*
X675622Y405652D01*
X675599Y405279D01*
X675567Y404906D01*
X675525Y404534D01*
X675475Y404164D01*
X675416Y403795D01*
X675347Y403427D01*
X675270Y403061D01*
X675183Y402697D01*
X675088Y402335D01*
X674984Y401976D01*
X674871Y401619D01*
X674749Y401266D01*
X674619Y400915D01*
X674480Y400568D01*
X674333Y400224D01*
X674177Y399884D01*
X674013Y399548D01*
X673840Y399216D01*
X673660Y398888D01*
X673472Y398565D01*
X673276Y398247D01*
X673072Y397933D01*
X672860Y397625D01*
X672641Y397322D01*
X672414Y397024D01*
X672181Y396732D01*
X671940Y396446D01*
X671692Y396165D01*
X671438Y395891D01*
X671176Y395624D01*
X670909Y395362D01*
X670635Y395108D01*
X670354Y394860D01*
X670068Y394619D01*
X669776Y394386D01*
X669478Y394159D01*
X669175Y393940D01*
X668867Y393728D01*
X668553Y393524D01*
X668235Y393328D01*
X667912Y393140D01*
X667584Y392960D01*
X667252Y392787D01*
X666916Y392623D01*
X666576Y392467D01*
X666232Y392320D01*
X665885Y392181D01*
X665534Y392051D01*
X665181Y391929D01*
X664824Y391816D01*
X664465Y391712D01*
X664103Y391617D01*
X663739Y391530D01*
X663373Y391453D01*
X663005Y391384D01*
X662636Y391325D01*
X662266Y391275D01*
X661894Y391233D01*
X661521Y391201D01*
X661148Y391178D01*
X660774Y391165D01*
X660400Y391160D01*
X660026Y391165D01*
X659652Y391178D01*
X659279Y391201D01*
X658906Y391233D01*
X658534Y391275D01*
X658164Y391325D01*
X657795Y391384D01*
X657427Y391453D01*
X657061Y391530D01*
X656697Y391617D01*
X656335Y391712D01*
X655976Y391816D01*
X655619Y391929D01*
X655266Y392051D01*
X654915Y392181D01*
X654568Y392320D01*
X654224Y392467D01*
X653884Y392623D01*
X653548Y392787D01*
X653216Y392960D01*
X652888Y393140D01*
X652565Y393328D01*
X652247Y393524D01*
X651933Y393728D01*
X651625Y393940D01*
X651322Y394159D01*
X651024Y394386D01*
X650732Y394619D01*
X650446Y394860D01*
X650165Y395108D01*
X649891Y395362D01*
X649624Y395624D01*
X649362Y395891D01*
X649108Y396165D01*
X648860Y396446D01*
X648619Y396732D01*
X648386Y397024D01*
X648159Y397322D01*
X647940Y397625D01*
X647728Y397933D01*
X647524Y398247D01*
X647328Y398565D01*
X647140Y398888D01*
X646960Y399216D01*
X646787Y399548D01*
X646623Y399884D01*
X646467Y400224D01*
X646320Y400568D01*
X646181Y400915D01*
X646051Y401266D01*
X645929Y401619D01*
X645816Y401976D01*
X645712Y402335D01*
X645617Y402697D01*
X645530Y403061D01*
X645453Y403427D01*
X645384Y403795D01*
X645325Y404164D01*
X645275Y404534D01*
X645233Y404906D01*
X645201Y405279D01*
X645178Y405652D01*
X645165Y406026D01*
X645160Y406400D01*
X406650Y966950D02*
X406652Y967063D01*
X406658Y967177D01*
X406668Y967290D01*
X406682Y967402D01*
X406699Y967514D01*
X406721Y967626D01*
X406747Y967736D01*
X406776Y967846D01*
X406809Y967954D01*
X406846Y968062D01*
X406887Y968167D01*
X406931Y968272D01*
X406979Y968375D01*
X407030Y968476D01*
X407085Y968575D01*
X407144Y968672D01*
X407206Y968767D01*
X407271Y968860D01*
X407339Y968951D01*
X407410Y969039D01*
X407485Y969125D01*
X407562Y969208D01*
X407642Y969288D01*
X407725Y969365D01*
X407811Y969440D01*
X407899Y969511D01*
X407990Y969579D01*
X408083Y969644D01*
X408178Y969706D01*
X408275Y969765D01*
X408374Y969820D01*
X408475Y969871D01*
X408578Y969919D01*
X408683Y969963D01*
X408788Y970004D01*
X408896Y970041D01*
X409004Y970074D01*
X409114Y970103D01*
X409224Y970129D01*
X409336Y970151D01*
X409448Y970168D01*
X409560Y970182D01*
X409673Y970192D01*
X409787Y970198D01*
X409900Y970200D01*
X410013Y970198D01*
X410127Y970192D01*
X410240Y970182D01*
X410352Y970168D01*
X410464Y970151D01*
X410576Y970129D01*
X410686Y970103D01*
X410796Y970074D01*
X410904Y970041D01*
X411012Y970004D01*
X411117Y969963D01*
X411222Y969919D01*
X411325Y969871D01*
X411426Y969820D01*
X411525Y969765D01*
X411622Y969706D01*
X411717Y969644D01*
X411810Y969579D01*
X411901Y969511D01*
X411989Y969440D01*
X412075Y969365D01*
X412158Y969288D01*
X412238Y969208D01*
X412315Y969125D01*
X412390Y969039D01*
X412461Y968951D01*
X412529Y968860D01*
X412594Y968767D01*
X412656Y968672D01*
X412715Y968575D01*
X412770Y968476D01*
X412821Y968375D01*
X412869Y968272D01*
X412913Y968167D01*
X412954Y968062D01*
X412991Y967954D01*
X413024Y967846D01*
X413053Y967736D01*
X413079Y967626D01*
X413101Y967514D01*
X413118Y967402D01*
X413132Y967290D01*
X413142Y967177D01*
X413148Y967063D01*
X413150Y966950D01*
X413148Y966837D01*
X413142Y966723D01*
X413132Y966610D01*
X413118Y966498D01*
X413101Y966386D01*
X413079Y966274D01*
X413053Y966164D01*
X413024Y966054D01*
X412991Y965946D01*
X412954Y965838D01*
X412913Y965733D01*
X412869Y965628D01*
X412821Y965525D01*
X412770Y965424D01*
X412715Y965325D01*
X412656Y965228D01*
X412594Y965133D01*
X412529Y965040D01*
X412461Y964949D01*
X412390Y964861D01*
X412315Y964775D01*
X412238Y964692D01*
X412158Y964612D01*
X412075Y964535D01*
X411989Y964460D01*
X411901Y964389D01*
X411810Y964321D01*
X411717Y964256D01*
X411622Y964194D01*
X411525Y964135D01*
X411426Y964080D01*
X411325Y964029D01*
X411222Y963981D01*
X411117Y963937D01*
X411012Y963896D01*
X410904Y963859D01*
X410796Y963826D01*
X410686Y963797D01*
X410576Y963771D01*
X410464Y963749D01*
X410352Y963732D01*
X410240Y963718D01*
X410127Y963708D01*
X410013Y963702D01*
X409900Y963700D01*
X409787Y963702D01*
X409673Y963708D01*
X409560Y963718D01*
X409448Y963732D01*
X409336Y963749D01*
X409224Y963771D01*
X409114Y963797D01*
X409004Y963826D01*
X408896Y963859D01*
X408788Y963896D01*
X408683Y963937D01*
X408578Y963981D01*
X408475Y964029D01*
X408374Y964080D01*
X408275Y964135D01*
X408178Y964194D01*
X408083Y964256D01*
X407990Y964321D01*
X407899Y964389D01*
X407811Y964460D01*
X407725Y964535D01*
X407642Y964612D01*
X407562Y964692D01*
X407485Y964775D01*
X407410Y964861D01*
X407339Y964949D01*
X407271Y965040D01*
X407206Y965133D01*
X407144Y965228D01*
X407085Y965325D01*
X407030Y965424D01*
X406979Y965525D01*
X406931Y965628D01*
X406887Y965733D01*
X406846Y965838D01*
X406809Y965946D01*
X406776Y966054D01*
X406747Y966164D01*
X406721Y966274D01*
X406699Y966386D01*
X406682Y966498D01*
X406668Y966610D01*
X406658Y966723D01*
X406652Y966837D01*
X406650Y966950D01*
X348850Y966950D02*
X348852Y967063D01*
X348858Y967177D01*
X348868Y967290D01*
X348882Y967402D01*
X348899Y967514D01*
X348921Y967626D01*
X348947Y967736D01*
X348976Y967846D01*
X349009Y967954D01*
X349046Y968062D01*
X349087Y968167D01*
X349131Y968272D01*
X349179Y968375D01*
X349230Y968476D01*
X349285Y968575D01*
X349344Y968672D01*
X349406Y968767D01*
X349471Y968860D01*
X349539Y968951D01*
X349610Y969039D01*
X349685Y969125D01*
X349762Y969208D01*
X349842Y969288D01*
X349925Y969365D01*
X350011Y969440D01*
X350099Y969511D01*
X350190Y969579D01*
X350283Y969644D01*
X350378Y969706D01*
X350475Y969765D01*
X350574Y969820D01*
X350675Y969871D01*
X350778Y969919D01*
X350883Y969963D01*
X350988Y970004D01*
X351096Y970041D01*
X351204Y970074D01*
X351314Y970103D01*
X351424Y970129D01*
X351536Y970151D01*
X351648Y970168D01*
X351760Y970182D01*
X351873Y970192D01*
X351987Y970198D01*
X352100Y970200D01*
X352213Y970198D01*
X352327Y970192D01*
X352440Y970182D01*
X352552Y970168D01*
X352664Y970151D01*
X352776Y970129D01*
X352886Y970103D01*
X352996Y970074D01*
X353104Y970041D01*
X353212Y970004D01*
X353317Y969963D01*
X353422Y969919D01*
X353525Y969871D01*
X353626Y969820D01*
X353725Y969765D01*
X353822Y969706D01*
X353917Y969644D01*
X354010Y969579D01*
X354101Y969511D01*
X354189Y969440D01*
X354275Y969365D01*
X354358Y969288D01*
X354438Y969208D01*
X354515Y969125D01*
X354590Y969039D01*
X354661Y968951D01*
X354729Y968860D01*
X354794Y968767D01*
X354856Y968672D01*
X354915Y968575D01*
X354970Y968476D01*
X355021Y968375D01*
X355069Y968272D01*
X355113Y968167D01*
X355154Y968062D01*
X355191Y967954D01*
X355224Y967846D01*
X355253Y967736D01*
X355279Y967626D01*
X355301Y967514D01*
X355318Y967402D01*
X355332Y967290D01*
X355342Y967177D01*
X355348Y967063D01*
X355350Y966950D01*
X355348Y966837D01*
X355342Y966723D01*
X355332Y966610D01*
X355318Y966498D01*
X355301Y966386D01*
X355279Y966274D01*
X355253Y966164D01*
X355224Y966054D01*
X355191Y965946D01*
X355154Y965838D01*
X355113Y965733D01*
X355069Y965628D01*
X355021Y965525D01*
X354970Y965424D01*
X354915Y965325D01*
X354856Y965228D01*
X354794Y965133D01*
X354729Y965040D01*
X354661Y964949D01*
X354590Y964861D01*
X354515Y964775D01*
X354438Y964692D01*
X354358Y964612D01*
X354275Y964535D01*
X354189Y964460D01*
X354101Y964389D01*
X354010Y964321D01*
X353917Y964256D01*
X353822Y964194D01*
X353725Y964135D01*
X353626Y964080D01*
X353525Y964029D01*
X353422Y963981D01*
X353317Y963937D01*
X353212Y963896D01*
X353104Y963859D01*
X352996Y963826D01*
X352886Y963797D01*
X352776Y963771D01*
X352664Y963749D01*
X352552Y963732D01*
X352440Y963718D01*
X352327Y963708D01*
X352213Y963702D01*
X352100Y963700D01*
X351987Y963702D01*
X351873Y963708D01*
X351760Y963718D01*
X351648Y963732D01*
X351536Y963749D01*
X351424Y963771D01*
X351314Y963797D01*
X351204Y963826D01*
X351096Y963859D01*
X350988Y963896D01*
X350883Y963937D01*
X350778Y963981D01*
X350675Y964029D01*
X350574Y964080D01*
X350475Y964135D01*
X350378Y964194D01*
X350283Y964256D01*
X350190Y964321D01*
X350099Y964389D01*
X350011Y964460D01*
X349925Y964535D01*
X349842Y964612D01*
X349762Y964692D01*
X349685Y964775D01*
X349610Y964861D01*
X349539Y964949D01*
X349471Y965040D01*
X349406Y965133D01*
X349344Y965228D01*
X349285Y965325D01*
X349230Y965424D01*
X349179Y965525D01*
X349131Y965628D01*
X349087Y965733D01*
X349046Y965838D01*
X349009Y965946D01*
X348976Y966054D01*
X348947Y966164D01*
X348921Y966274D01*
X348899Y966386D01*
X348882Y966498D01*
X348868Y966610D01*
X348858Y966723D01*
X348852Y966837D01*
X348850Y966950D01*
D11*
X424180Y967150D02*
X424180Y956150D01*
X337820Y956150D02*
X337820Y967150D01*
X424180Y1000300D02*
X424180Y1006500D01*
X337820Y1006500D02*
X337820Y1000300D01*
D16*
X-68580Y-119380D02*
X1592580Y-119380D01*
X1592580Y1135380D01*
X-68580Y1135380D01*
X-68580Y-119380D01*
X-5080Y-55880D02*
X1529080Y-55880D01*
X1529080Y1071880D01*
X-5080Y1071880D01*
X-5080Y-55880D01*
X0Y0D02*
X635000Y0D01*
X635000Y63500D01*
X635048Y64607D01*
X635193Y65705D01*
X635433Y66787D01*
X635766Y67844D01*
X636190Y68867D01*
X636701Y69850D01*
X637297Y70784D01*
X637971Y71663D01*
X638720Y72480D01*
X639537Y73229D01*
X640416Y73903D01*
X641350Y74499D01*
X642333Y75010D01*
X643356Y75434D01*
X644413Y75767D01*
X645495Y76007D01*
X646593Y76152D01*
X647700Y76200D01*
X876300Y76200D01*
X877407Y76152D01*
X878505Y76007D01*
X879587Y75767D01*
X880644Y75434D01*
X881667Y75010D01*
X882650Y74499D01*
X883584Y73903D01*
X884463Y73229D01*
X885280Y72480D01*
X886029Y71663D01*
X886703Y70784D01*
X887299Y69850D01*
X887810Y68867D01*
X888234Y67844D01*
X888567Y66787D01*
X888807Y65705D01*
X888952Y64607D01*
X889000Y63500D01*
X889000Y0D01*
X1524000Y0D01*
X1524000Y1016000D01*
X0Y1016000D01*
X0Y0D01*
X1513840Y24856D02*
X1513762Y23770D01*
X1513607Y22692D01*
X1513376Y21629D01*
X1513069Y20584D01*
X1512689Y19564D01*
X1512237Y18574D01*
X1511715Y17619D01*
X1511126Y16703D01*
X1510474Y15831D01*
X1509761Y15009D01*
X1508991Y14239D01*
X1508169Y13526D01*
X1507297Y12874D01*
X1506381Y12285D01*
X1505426Y11763D01*
X1504436Y11311D01*
X1503416Y10931D01*
X1502371Y10624D01*
X1501308Y10393D01*
X1500230Y10238D01*
X1499144Y10160D01*
X1498056Y10160D01*
X1496970Y10238D01*
X1495892Y10393D01*
X1494829Y10624D01*
X1493784Y10931D01*
X1492764Y11311D01*
X1491774Y11763D01*
X1490819Y12285D01*
X1489903Y12874D01*
X1489031Y13526D01*
X1488209Y14239D01*
X1487439Y15009D01*
X1486726Y15831D01*
X1486074Y16703D01*
X1485485Y17619D01*
X1484963Y18574D01*
X1484511Y19564D01*
X1484131Y20584D01*
X1483824Y21629D01*
X1483593Y22692D01*
X1483438Y23770D01*
X1483360Y24856D01*
X1483360Y25944D01*
X1483438Y27030D01*
X1483593Y28108D01*
X1483824Y29171D01*
X1484131Y30216D01*
X1484511Y31236D01*
X1484963Y32226D01*
X1485485Y33181D01*
X1486074Y34097D01*
X1486726Y34969D01*
X1487439Y35791D01*
X1488209Y36561D01*
X1489031Y37274D01*
X1489903Y37926D01*
X1490819Y38515D01*
X1491774Y39037D01*
X1492764Y39489D01*
X1493784Y39869D01*
X1494829Y40176D01*
X1495892Y40407D01*
X1496970Y40562D01*
X1498056Y40640D01*
X1499144Y40640D01*
X1500230Y40562D01*
X1501308Y40407D01*
X1502371Y40176D01*
X1503416Y39869D01*
X1504436Y39489D01*
X1505426Y39037D01*
X1506381Y38515D01*
X1507297Y37926D01*
X1508169Y37274D01*
X1508991Y36561D01*
X1509761Y35791D01*
X1510474Y34969D01*
X1511126Y34097D01*
X1511715Y33181D01*
X1512237Y32226D01*
X1512689Y31236D01*
X1513069Y30216D01*
X1513376Y29171D01*
X1513607Y28108D01*
X1513762Y27030D01*
X1513840Y25944D01*
X1513840Y24856D01*
X1513840Y990056D02*
X1513762Y988970D01*
X1513607Y987892D01*
X1513376Y986829D01*
X1513069Y985784D01*
X1512689Y984764D01*
X1512237Y983774D01*
X1511715Y982819D01*
X1511126Y981903D01*
X1510474Y981031D01*
X1509761Y980209D01*
X1508991Y979439D01*
X1508169Y978726D01*
X1507297Y978074D01*
X1506381Y977485D01*
X1505426Y976963D01*
X1504436Y976511D01*
X1503416Y976131D01*
X1502371Y975824D01*
X1501308Y975593D01*
X1500230Y975438D01*
X1499144Y975360D01*
X1498056Y975360D01*
X1496970Y975438D01*
X1495892Y975593D01*
X1494829Y975824D01*
X1493784Y976131D01*
X1492764Y976511D01*
X1491774Y976963D01*
X1490819Y977485D01*
X1489903Y978074D01*
X1489031Y978726D01*
X1488209Y979439D01*
X1487439Y980209D01*
X1486726Y981031D01*
X1486074Y981903D01*
X1485485Y982819D01*
X1484963Y983774D01*
X1484511Y984764D01*
X1484131Y985784D01*
X1483824Y986829D01*
X1483593Y987892D01*
X1483438Y988970D01*
X1483360Y990056D01*
X1483360Y991144D01*
X1483438Y992230D01*
X1483593Y993308D01*
X1483824Y994371D01*
X1484131Y995416D01*
X1484511Y996436D01*
X1484963Y997426D01*
X1485485Y998381D01*
X1486074Y999297D01*
X1486726Y1000169D01*
X1487439Y1000991D01*
X1488209Y1001761D01*
X1489031Y1002474D01*
X1489903Y1003126D01*
X1490819Y1003715D01*
X1491774Y1004237D01*
X1492764Y1004689D01*
X1493784Y1005069D01*
X1494829Y1005376D01*
X1495892Y1005607D01*
X1496970Y1005762D01*
X1498056Y1005840D01*
X1499144Y1005840D01*
X1500230Y1005762D01*
X1501308Y1005607D01*
X1502371Y1005376D01*
X1503416Y1005069D01*
X1504436Y1004689D01*
X1505426Y1004237D01*
X1506381Y1003715D01*
X1507297Y1003126D01*
X1508169Y1002474D01*
X1508991Y1001761D01*
X1509761Y1000991D01*
X1510474Y1000169D01*
X1511126Y999297D01*
X1511715Y998381D01*
X1512237Y997426D01*
X1512689Y996436D01*
X1513069Y995416D01*
X1513376Y994371D01*
X1513607Y993308D01*
X1513762Y992230D01*
X1513840Y991144D01*
X1513840Y990056D01*
X40640Y990056D02*
X40562Y988970D01*
X40407Y987892D01*
X40176Y986829D01*
X39869Y985784D01*
X39489Y984764D01*
X39037Y983774D01*
X38515Y982819D01*
X37926Y981903D01*
X37274Y981031D01*
X36561Y980209D01*
X35791Y979439D01*
X34969Y978726D01*
X34097Y978074D01*
X33181Y977485D01*
X32226Y976963D01*
X31236Y976511D01*
X30216Y976131D01*
X29171Y975824D01*
X28108Y975593D01*
X27030Y975438D01*
X25944Y975360D01*
X24856Y975360D01*
X23770Y975438D01*
X22692Y975593D01*
X21629Y975824D01*
X20584Y976131D01*
X19564Y976511D01*
X18574Y976963D01*
X17619Y977485D01*
X16703Y978074D01*
X15831Y978726D01*
X15009Y979439D01*
X14239Y980209D01*
X13526Y981031D01*
X12874Y981903D01*
X12285Y982819D01*
X11763Y983774D01*
X11311Y984764D01*
X10931Y985784D01*
X10624Y986829D01*
X10393Y987892D01*
X10238Y988970D01*
X10160Y990056D01*
X10160Y991144D01*
X10238Y992230D01*
X10393Y993308D01*
X10624Y994371D01*
X10931Y995416D01*
X11311Y996436D01*
X11763Y997426D01*
X12285Y998381D01*
X12874Y999297D01*
X13526Y1000169D01*
X14239Y1000991D01*
X15009Y1001761D01*
X15831Y1002474D01*
X16703Y1003126D01*
X17619Y1003715D01*
X18574Y1004237D01*
X19564Y1004689D01*
X20584Y1005069D01*
X21629Y1005376D01*
X22692Y1005607D01*
X23770Y1005762D01*
X24856Y1005840D01*
X25944Y1005840D01*
X27030Y1005762D01*
X28108Y1005607D01*
X29171Y1005376D01*
X30216Y1005069D01*
X31236Y1004689D01*
X32226Y1004237D01*
X33181Y1003715D01*
X34097Y1003126D01*
X34969Y1002474D01*
X35791Y1001761D01*
X36561Y1000991D01*
X37274Y1000169D01*
X37926Y999297D01*
X38515Y998381D01*
X39037Y997426D01*
X39489Y996436D01*
X39869Y995416D01*
X40176Y994371D01*
X40407Y993308D01*
X40562Y992230D01*
X40640Y991144D01*
X40640Y990056D01*
X1117350Y48837D02*
X1117294Y48415D01*
X1117184Y48003D01*
X1117021Y47609D01*
X1116808Y47241D01*
X1116549Y46903D01*
X1116247Y46601D01*
X1115909Y46342D01*
X1115541Y46129D01*
X1115147Y45966D01*
X1114735Y45856D01*
X1114313Y45800D01*
X1113887Y45800D01*
X1113465Y45856D01*
X1113053Y45966D01*
X1112659Y46129D01*
X1112291Y46342D01*
X1111953Y46601D01*
X1111651Y46903D01*
X1111392Y47241D01*
X1111179Y47609D01*
X1111016Y48003D01*
X1110906Y48415D01*
X1110850Y48837D01*
X1110850Y49263D01*
X1110906Y49685D01*
X1111016Y50097D01*
X1111179Y50491D01*
X1111392Y50859D01*
X1111651Y51197D01*
X1111953Y51499D01*
X1112291Y51758D01*
X1112659Y51971D01*
X1113053Y52134D01*
X1113465Y52244D01*
X1113887Y52300D01*
X1114313Y52300D01*
X1114735Y52244D01*
X1115147Y52134D01*
X1115541Y51971D01*
X1115909Y51758D01*
X1116247Y51499D01*
X1116549Y51197D01*
X1116808Y50859D01*
X1117021Y50491D01*
X1117184Y50097D01*
X1117294Y49685D01*
X1117350Y49263D01*
X1117350Y48837D01*
X1175150Y48837D02*
X1175094Y48415D01*
X1174984Y48003D01*
X1174821Y47609D01*
X1174608Y47241D01*
X1174349Y46903D01*
X1174047Y46601D01*
X1173709Y46342D01*
X1173341Y46129D01*
X1172947Y45966D01*
X1172535Y45856D01*
X1172113Y45800D01*
X1171687Y45800D01*
X1171265Y45856D01*
X1170853Y45966D01*
X1170459Y46129D01*
X1170091Y46342D01*
X1169753Y46601D01*
X1169451Y46903D01*
X1169192Y47241D01*
X1168979Y47609D01*
X1168816Y48003D01*
X1168706Y48415D01*
X1168650Y48837D01*
X1168650Y49263D01*
X1168706Y49685D01*
X1168816Y50097D01*
X1168979Y50491D01*
X1169192Y50859D01*
X1169451Y51197D01*
X1169753Y51499D01*
X1170091Y51758D01*
X1170459Y51971D01*
X1170853Y52134D01*
X1171265Y52244D01*
X1171687Y52300D01*
X1172113Y52300D01*
X1172535Y52244D01*
X1172947Y52134D01*
X1173341Y51971D01*
X1173709Y51758D01*
X1174047Y51499D01*
X1174349Y51197D01*
X1174608Y50859D01*
X1174821Y50491D01*
X1174984Y50097D01*
X1175094Y49685D01*
X1175150Y49263D01*
X1175150Y48837D01*
X416500Y20039D02*
X416437Y19481D01*
X416312Y18934D01*
X416127Y18404D01*
X415883Y17898D01*
X415584Y17422D01*
X415234Y16983D01*
X414837Y16586D01*
X414398Y16236D01*
X413922Y15937D01*
X413416Y15693D01*
X412886Y15508D01*
X412339Y15383D01*
X411781Y15320D01*
X411219Y15320D01*
X410661Y15383D01*
X410114Y15508D01*
X409584Y15693D01*
X409078Y15937D01*
X408602Y16236D01*
X408163Y16586D01*
X407766Y16983D01*
X407416Y17422D01*
X407117Y17898D01*
X406873Y18404D01*
X406688Y18934D01*
X406563Y19481D01*
X406500Y20039D01*
X406500Y20601D01*
X406563Y21159D01*
X406688Y21706D01*
X406873Y22236D01*
X407117Y22742D01*
X407416Y23218D01*
X407766Y23657D01*
X408163Y24054D01*
X408602Y24404D01*
X409078Y24703D01*
X409584Y24947D01*
X410114Y25132D01*
X410661Y25257D01*
X411219Y25320D01*
X411781Y25320D01*
X412339Y25257D01*
X412886Y25132D01*
X413416Y24947D01*
X413922Y24703D01*
X414398Y24404D01*
X414837Y24054D01*
X415234Y23657D01*
X415584Y23218D01*
X415883Y22742D01*
X416127Y22236D01*
X416312Y21706D01*
X416437Y21159D01*
X416500Y20601D01*
X416500Y20039D01*
X336500Y20039D02*
X336437Y19481D01*
X336312Y18934D01*
X336127Y18404D01*
X335883Y17898D01*
X335584Y17422D01*
X335234Y16983D01*
X334837Y16586D01*
X334398Y16236D01*
X333922Y15937D01*
X333416Y15693D01*
X332886Y15508D01*
X332339Y15383D01*
X331781Y15320D01*
X331219Y15320D01*
X330661Y15383D01*
X330114Y15508D01*
X329584Y15693D01*
X329078Y15937D01*
X328602Y16236D01*
X328163Y16586D01*
X327766Y16983D01*
X327416Y17422D01*
X327117Y17898D01*
X326873Y18404D01*
X326688Y18934D01*
X326563Y19481D01*
X326500Y20039D01*
X326500Y20601D01*
X326563Y21159D01*
X326688Y21706D01*
X326873Y22236D01*
X327117Y22742D01*
X327416Y23218D01*
X327766Y23657D01*
X328163Y24054D01*
X328602Y24404D01*
X329078Y24703D01*
X329584Y24947D01*
X330114Y25132D01*
X330661Y25257D01*
X331219Y25320D01*
X331781Y25320D01*
X332339Y25257D01*
X332886Y25132D01*
X333416Y24947D01*
X333922Y24703D01*
X334398Y24404D01*
X334837Y24054D01*
X335234Y23657D01*
X335584Y23218D01*
X335883Y22742D01*
X336127Y22236D01*
X336312Y21706D01*
X336437Y21159D01*
X336500Y20601D01*
X336500Y20039D01*
X40640Y24856D02*
X40562Y23770D01*
X40407Y22692D01*
X40176Y21629D01*
X39869Y20584D01*
X39489Y19564D01*
X39037Y18574D01*
X38515Y17619D01*
X37926Y16703D01*
X37274Y15831D01*
X36561Y15009D01*
X35791Y14239D01*
X34969Y13526D01*
X34097Y12874D01*
X33181Y12285D01*
X32226Y11763D01*
X31236Y11311D01*
X30216Y10931D01*
X29171Y10624D01*
X28108Y10393D01*
X27030Y10238D01*
X25944Y10160D01*
X24856Y10160D01*
X23770Y10238D01*
X22692Y10393D01*
X21629Y10624D01*
X20584Y10931D01*
X19564Y11311D01*
X18574Y11763D01*
X17619Y12285D01*
X16703Y12874D01*
X15831Y13526D01*
X15009Y14239D01*
X14239Y15009D01*
X13526Y15831D01*
X12874Y16703D01*
X12285Y17619D01*
X11763Y18574D01*
X11311Y19564D01*
X10931Y20584D01*
X10624Y21629D01*
X10393Y22692D01*
X10238Y23770D01*
X10160Y24856D01*
X10160Y25944D01*
X10238Y27030D01*
X10393Y28108D01*
X10624Y29171D01*
X10931Y30216D01*
X11311Y31236D01*
X11763Y32226D01*
X12285Y33181D01*
X12874Y34097D01*
X13526Y34969D01*
X14239Y35791D01*
X15009Y36561D01*
X15831Y37274D01*
X16703Y37926D01*
X17619Y38515D01*
X18574Y39037D01*
X19564Y39489D01*
X20584Y39869D01*
X21629Y40176D01*
X22692Y40407D01*
X23770Y40562D01*
X24856Y40640D01*
X25944Y40640D01*
X27030Y40562D01*
X28108Y40407D01*
X29171Y40176D01*
X30216Y39869D01*
X31236Y39489D01*
X32226Y39037D01*
X33181Y38515D01*
X34097Y37926D01*
X34969Y37274D01*
X35791Y36561D01*
X36561Y35791D01*
X37274Y34969D01*
X37926Y34097D01*
X38515Y33181D01*
X39037Y32226D01*
X39489Y31236D01*
X39869Y30216D01*
X40176Y29171D01*
X40407Y28108D01*
X40562Y27030D01*
X40640Y25944D01*
X40640Y24856D01*
X1371350Y48837D02*
X1371294Y48415D01*
X1371184Y48003D01*
X1371021Y47609D01*
X1370808Y47241D01*
X1370549Y46903D01*
X1370247Y46601D01*
X1369909Y46342D01*
X1369541Y46129D01*
X1369147Y45966D01*
X1368735Y45856D01*
X1368313Y45800D01*
X1367887Y45800D01*
X1367465Y45856D01*
X1367053Y45966D01*
X1366659Y46129D01*
X1366291Y46342D01*
X1365953Y46601D01*
X1365651Y46903D01*
X1365392Y47241D01*
X1365179Y47609D01*
X1365016Y48003D01*
X1364906Y48415D01*
X1364850Y48837D01*
X1364850Y49263D01*
X1364906Y49685D01*
X1365016Y50097D01*
X1365179Y50491D01*
X1365392Y50859D01*
X1365651Y51197D01*
X1365953Y51499D01*
X1366291Y51758D01*
X1366659Y51971D01*
X1367053Y52134D01*
X1367465Y52244D01*
X1367887Y52300D01*
X1368313Y52300D01*
X1368735Y52244D01*
X1369147Y52134D01*
X1369541Y51971D01*
X1369909Y51758D01*
X1370247Y51499D01*
X1370549Y51197D01*
X1370808Y50859D01*
X1371021Y50491D01*
X1371184Y50097D01*
X1371294Y49685D01*
X1371350Y49263D01*
X1371350Y48837D01*
X1429150Y48837D02*
X1429094Y48415D01*
X1428984Y48003D01*
X1428821Y47609D01*
X1428608Y47241D01*
X1428349Y46903D01*
X1428047Y46601D01*
X1427709Y46342D01*
X1427341Y46129D01*
X1426947Y45966D01*
X1426535Y45856D01*
X1426113Y45800D01*
X1425687Y45800D01*
X1425265Y45856D01*
X1424853Y45966D01*
X1424459Y46129D01*
X1424091Y46342D01*
X1423753Y46601D01*
X1423451Y46903D01*
X1423192Y47241D01*
X1422979Y47609D01*
X1422816Y48003D01*
X1422706Y48415D01*
X1422650Y48837D01*
X1422650Y49263D01*
X1422706Y49685D01*
X1422816Y50097D01*
X1422979Y50491D01*
X1423192Y50859D01*
X1423451Y51197D01*
X1423753Y51499D01*
X1424091Y51758D01*
X1424459Y51971D01*
X1424853Y52134D01*
X1425265Y52244D01*
X1425687Y52300D01*
X1426113Y52300D01*
X1426535Y52244D01*
X1426947Y52134D01*
X1427341Y51971D01*
X1427709Y51758D01*
X1428047Y51499D01*
X1428349Y51197D01*
X1428608Y50859D01*
X1428821Y50491D01*
X1428984Y50097D01*
X1429094Y49685D01*
X1429150Y49263D01*
X1429150Y48837D01*
X231400Y922552D02*
X231470Y923614D01*
X231608Y924668D01*
X231816Y925712D01*
X232091Y926740D01*
X232433Y927747D01*
X232841Y928730D01*
X233311Y929684D01*
X233843Y930606D01*
X234434Y931490D01*
X235082Y932334D01*
X235783Y933134D01*
X236536Y933887D01*
X237336Y934588D01*
X238180Y935236D01*
X239064Y935827D01*
X239986Y936359D01*
X240940Y936829D01*
X241923Y937237D01*
X242930Y937579D01*
X243958Y937854D01*
X245002Y938062D01*
X246056Y938200D01*
X247118Y938270D01*
X248182Y938270D01*
X249244Y938200D01*
X250298Y938062D01*
X251342Y937854D01*
X252370Y937579D01*
X253377Y937237D01*
X254360Y936829D01*
X255314Y936359D01*
X256236Y935827D01*
X257120Y935236D01*
X257964Y934588D01*
X258764Y933887D01*
X259517Y933134D01*
X260218Y932334D01*
X260866Y931490D01*
X261457Y930606D01*
X261989Y929684D01*
X262459Y928730D01*
X262867Y927747D01*
X263209Y926740D01*
X263484Y925712D01*
X263692Y924668D01*
X263830Y923614D01*
X263900Y922552D01*
X263900Y921488D01*
X263830Y920426D01*
X263692Y919372D01*
X263484Y918328D01*
X263209Y917300D01*
X262867Y916293D01*
X262459Y915310D01*
X261989Y914356D01*
X261457Y913434D01*
X260866Y912550D01*
X260218Y911706D01*
X259517Y910906D01*
X258764Y910153D01*
X257964Y909452D01*
X257120Y908804D01*
X256236Y908213D01*
X255314Y907681D01*
X254360Y907211D01*
X253377Y906803D01*
X252370Y906461D01*
X251342Y906186D01*
X250298Y905978D01*
X249244Y905840D01*
X248182Y905770D01*
X247118Y905770D01*
X246056Y905840D01*
X245002Y905978D01*
X243958Y906186D01*
X242930Y906461D01*
X241923Y906803D01*
X240940Y907211D01*
X239986Y907681D01*
X239064Y908213D01*
X238180Y908804D01*
X237336Y909452D01*
X236536Y910153D01*
X235783Y910906D01*
X235082Y911706D01*
X234434Y912550D01*
X233843Y913434D01*
X233311Y914356D01*
X232841Y915310D01*
X232433Y916293D01*
X232091Y917300D01*
X231816Y918328D01*
X231608Y919372D01*
X231470Y920426D01*
X231400Y921488D01*
X231400Y922552D01*
X117100Y922552D02*
X117170Y923614D01*
X117308Y924668D01*
X117516Y925712D01*
X117791Y926740D01*
X118133Y927747D01*
X118541Y928730D01*
X119011Y929684D01*
X119543Y930606D01*
X120134Y931490D01*
X120782Y932334D01*
X121483Y933134D01*
X122236Y933887D01*
X123036Y934588D01*
X123880Y935236D01*
X124764Y935827D01*
X125686Y936359D01*
X126640Y936829D01*
X127623Y937237D01*
X128630Y937579D01*
X129658Y937854D01*
X130702Y938062D01*
X131756Y938200D01*
X132818Y938270D01*
X133882Y938270D01*
X134944Y938200D01*
X135998Y938062D01*
X137042Y937854D01*
X138070Y937579D01*
X139077Y937237D01*
X140060Y936829D01*
X141014Y936359D01*
X141936Y935827D01*
X142820Y935236D01*
X143664Y934588D01*
X144464Y933887D01*
X145217Y933134D01*
X145918Y932334D01*
X146566Y931490D01*
X147157Y930606D01*
X147689Y929684D01*
X148159Y928730D01*
X148567Y927747D01*
X148909Y926740D01*
X149184Y925712D01*
X149392Y924668D01*
X149530Y923614D01*
X149600Y922552D01*
X149600Y921488D01*
X149530Y920426D01*
X149392Y919372D01*
X149184Y918328D01*
X148909Y917300D01*
X148567Y916293D01*
X148159Y915310D01*
X147689Y914356D01*
X147157Y913434D01*
X146566Y912550D01*
X145918Y911706D01*
X145217Y910906D01*
X144464Y910153D01*
X143664Y909452D01*
X142820Y908804D01*
X141936Y908213D01*
X141014Y907681D01*
X140060Y907211D01*
X139077Y906803D01*
X138070Y906461D01*
X137042Y906186D01*
X135998Y905978D01*
X134944Y905840D01*
X133882Y905770D01*
X132818Y905770D01*
X131756Y905840D01*
X130702Y905978D01*
X129658Y906186D01*
X128630Y906461D01*
X127623Y906803D01*
X126640Y907211D01*
X125686Y907681D01*
X124764Y908213D01*
X123880Y908804D01*
X123036Y909452D01*
X122236Y910153D01*
X121483Y910906D01*
X120782Y911706D01*
X120134Y912550D01*
X119543Y913434D01*
X119011Y914356D01*
X118541Y915310D01*
X118133Y916293D01*
X117791Y917300D01*
X117516Y918328D01*
X117308Y919372D01*
X117170Y920426D01*
X117100Y921488D01*
X117100Y922552D01*
X669290Y101056D02*
X669212Y99970D01*
X669057Y98892D01*
X668826Y97829D01*
X668519Y96784D01*
X668139Y95764D01*
X667687Y94774D01*
X667165Y93819D01*
X666576Y92903D01*
X665924Y92031D01*
X665211Y91209D01*
X664441Y90439D01*
X663619Y89726D01*
X662747Y89074D01*
X661831Y88485D01*
X660876Y87963D01*
X659886Y87511D01*
X658866Y87131D01*
X657821Y86824D01*
X656758Y86593D01*
X655680Y86438D01*
X654594Y86360D01*
X653506Y86360D01*
X652420Y86438D01*
X651342Y86593D01*
X650279Y86824D01*
X649234Y87131D01*
X648214Y87511D01*
X647224Y87963D01*
X646269Y88485D01*
X645353Y89074D01*
X644481Y89726D01*
X643659Y90439D01*
X642889Y91209D01*
X642176Y92031D01*
X641524Y92903D01*
X640935Y93819D01*
X640413Y94774D01*
X639961Y95764D01*
X639581Y96784D01*
X639274Y97829D01*
X639043Y98892D01*
X638888Y99970D01*
X638810Y101056D01*
X638810Y102144D01*
X638888Y103230D01*
X639043Y104308D01*
X639274Y105371D01*
X639581Y106416D01*
X639961Y107436D01*
X640413Y108426D01*
X640935Y109381D01*
X641524Y110297D01*
X642176Y111169D01*
X642889Y111991D01*
X643659Y112761D01*
X644481Y113474D01*
X645353Y114126D01*
X646269Y114715D01*
X647224Y115237D01*
X648214Y115689D01*
X649234Y116069D01*
X650279Y116376D01*
X651342Y116607D01*
X652420Y116762D01*
X653506Y116840D01*
X654594Y116840D01*
X655680Y116762D01*
X656758Y116607D01*
X657821Y116376D01*
X658866Y116069D01*
X659886Y115689D01*
X660876Y115237D01*
X661831Y114715D01*
X662747Y114126D01*
X663619Y113474D01*
X664441Y112761D01*
X665211Y111991D01*
X665924Y111169D01*
X666576Y110297D01*
X667165Y109381D01*
X667687Y108426D01*
X668139Y107436D01*
X668519Y106416D01*
X668826Y105371D01*
X669057Y104308D01*
X669212Y103230D01*
X669290Y102144D01*
X669290Y101056D01*
X885190Y101056D02*
X885112Y99970D01*
X884957Y98892D01*
X884726Y97829D01*
X884419Y96784D01*
X884039Y95764D01*
X883587Y94774D01*
X883065Y93819D01*
X882476Y92903D01*
X881824Y92031D01*
X881111Y91209D01*
X880341Y90439D01*
X879519Y89726D01*
X878647Y89074D01*
X877731Y88485D01*
X876776Y87963D01*
X875786Y87511D01*
X874766Y87131D01*
X873721Y86824D01*
X872658Y86593D01*
X871580Y86438D01*
X870494Y86360D01*
X869406Y86360D01*
X868320Y86438D01*
X867242Y86593D01*
X866179Y86824D01*
X865134Y87131D01*
X864114Y87511D01*
X863124Y87963D01*
X862169Y88485D01*
X861253Y89074D01*
X860381Y89726D01*
X859559Y90439D01*
X858789Y91209D01*
X858076Y92031D01*
X857424Y92903D01*
X856835Y93819D01*
X856313Y94774D01*
X855861Y95764D01*
X855481Y96784D01*
X855174Y97829D01*
X854943Y98892D01*
X854788Y99970D01*
X854710Y101056D01*
X854710Y102144D01*
X854788Y103230D01*
X854943Y104308D01*
X855174Y105371D01*
X855481Y106416D01*
X855861Y107436D01*
X856313Y108426D01*
X856835Y109381D01*
X857424Y110297D01*
X858076Y111169D01*
X858789Y111991D01*
X859559Y112761D01*
X860381Y113474D01*
X861253Y114126D01*
X862169Y114715D01*
X863124Y115237D01*
X864114Y115689D01*
X865134Y116069D01*
X866179Y116376D01*
X867242Y116607D01*
X868320Y116762D01*
X869406Y116840D01*
X870494Y116840D01*
X871580Y116762D01*
X872658Y116607D01*
X873721Y116376D01*
X874766Y116069D01*
X875786Y115689D01*
X876776Y115237D01*
X877731Y114715D01*
X878647Y114126D01*
X879519Y113474D01*
X880341Y112761D01*
X881111Y111991D01*
X881824Y111169D01*
X882476Y110297D01*
X883065Y109381D01*
X883587Y108426D01*
X884039Y107436D01*
X884419Y106416D01*
X884726Y105371D01*
X884957Y104308D01*
X885112Y103230D01*
X885190Y102144D01*
X885190Y101056D01*
X878840Y202656D02*
X878762Y201570D01*
X878607Y200492D01*
X878376Y199429D01*
X878069Y198384D01*
X877689Y197364D01*
X877237Y196374D01*
X876715Y195419D01*
X876126Y194503D01*
X875474Y193631D01*
X874761Y192809D01*
X873991Y192039D01*
X873169Y191326D01*
X872297Y190674D01*
X871381Y190085D01*
X870426Y189563D01*
X869436Y189111D01*
X868416Y188731D01*
X867371Y188424D01*
X866308Y188193D01*
X865230Y188038D01*
X864144Y187960D01*
X863056Y187960D01*
X861970Y188038D01*
X860892Y188193D01*
X859829Y188424D01*
X858784Y188731D01*
X857764Y189111D01*
X856774Y189563D01*
X855819Y190085D01*
X854903Y190674D01*
X854031Y191326D01*
X853209Y192039D01*
X852439Y192809D01*
X851726Y193631D01*
X851074Y194503D01*
X850485Y195419D01*
X849963Y196374D01*
X849511Y197364D01*
X849131Y198384D01*
X848824Y199429D01*
X848593Y200492D01*
X848438Y201570D01*
X848360Y202656D01*
X848360Y203744D01*
X848438Y204830D01*
X848593Y205908D01*
X848824Y206971D01*
X849131Y208016D01*
X849511Y209036D01*
X849963Y210026D01*
X850485Y210981D01*
X851074Y211897D01*
X851726Y212769D01*
X852439Y213591D01*
X853209Y214361D01*
X854031Y215074D01*
X854903Y215726D01*
X855819Y216315D01*
X856774Y216837D01*
X857764Y217289D01*
X858784Y217669D01*
X859829Y217976D01*
X860892Y218207D01*
X861970Y218362D01*
X863056Y218440D01*
X864144Y218440D01*
X865230Y218362D01*
X866308Y218207D01*
X867371Y217976D01*
X868416Y217669D01*
X869436Y217289D01*
X870426Y216837D01*
X871381Y216315D01*
X872297Y215726D01*
X873169Y215074D01*
X873991Y214361D01*
X874761Y213591D01*
X875474Y212769D01*
X876126Y211897D01*
X876715Y210981D01*
X877237Y210026D01*
X877689Y209036D01*
X878069Y208016D01*
X878376Y206971D01*
X878607Y205908D01*
X878762Y204830D01*
X878840Y203744D01*
X878840Y202656D01*
X878840Y405856D02*
X878762Y404770D01*
X878607Y403692D01*
X878376Y402629D01*
X878069Y401584D01*
X877689Y400564D01*
X877237Y399574D01*
X876715Y398619D01*
X876126Y397703D01*
X875474Y396831D01*
X874761Y396009D01*
X873991Y395239D01*
X873169Y394526D01*
X872297Y393874D01*
X871381Y393285D01*
X870426Y392763D01*
X869436Y392311D01*
X868416Y391931D01*
X867371Y391624D01*
X866308Y391393D01*
X865230Y391238D01*
X864144Y391160D01*
X863056Y391160D01*
X861970Y391238D01*
X860892Y391393D01*
X859829Y391624D01*
X858784Y391931D01*
X857764Y392311D01*
X856774Y392763D01*
X855819Y393285D01*
X854903Y393874D01*
X854031Y394526D01*
X853209Y395239D01*
X852439Y396009D01*
X851726Y396831D01*
X851074Y397703D01*
X850485Y398619D01*
X849963Y399574D01*
X849511Y400564D01*
X849131Y401584D01*
X848824Y402629D01*
X848593Y403692D01*
X848438Y404770D01*
X848360Y405856D01*
X848360Y406944D01*
X848438Y408030D01*
X848593Y409108D01*
X848824Y410171D01*
X849131Y411216D01*
X849511Y412236D01*
X849963Y413226D01*
X850485Y414181D01*
X851074Y415097D01*
X851726Y415969D01*
X852439Y416791D01*
X853209Y417561D01*
X854031Y418274D01*
X854903Y418926D01*
X855819Y419515D01*
X856774Y420037D01*
X857764Y420489D01*
X858784Y420869D01*
X859829Y421176D01*
X860892Y421407D01*
X861970Y421562D01*
X863056Y421640D01*
X864144Y421640D01*
X865230Y421562D01*
X866308Y421407D01*
X867371Y421176D01*
X868416Y420869D01*
X869436Y420489D01*
X870426Y420037D01*
X871381Y419515D01*
X872297Y418926D01*
X873169Y418274D01*
X873991Y417561D01*
X874761Y416791D01*
X875474Y415969D01*
X876126Y415097D01*
X876715Y414181D01*
X877237Y413226D01*
X877689Y412236D01*
X878069Y411216D01*
X878376Y410171D01*
X878607Y409108D01*
X878762Y408030D01*
X878840Y406944D01*
X878840Y405856D01*
X675640Y202656D02*
X675562Y201570D01*
X675407Y200492D01*
X675176Y199429D01*
X674869Y198384D01*
X674489Y197364D01*
X674037Y196374D01*
X673515Y195419D01*
X672926Y194503D01*
X672274Y193631D01*
X671561Y192809D01*
X670791Y192039D01*
X669969Y191326D01*
X669097Y190674D01*
X668181Y190085D01*
X667226Y189563D01*
X666236Y189111D01*
X665216Y188731D01*
X664171Y188424D01*
X663108Y188193D01*
X662030Y188038D01*
X660944Y187960D01*
X659856Y187960D01*
X658770Y188038D01*
X657692Y188193D01*
X656629Y188424D01*
X655584Y188731D01*
X654564Y189111D01*
X653574Y189563D01*
X652619Y190085D01*
X651703Y190674D01*
X650831Y191326D01*
X650009Y192039D01*
X649239Y192809D01*
X648526Y193631D01*
X647874Y194503D01*
X647285Y195419D01*
X646763Y196374D01*
X646311Y197364D01*
X645931Y198384D01*
X645624Y199429D01*
X645393Y200492D01*
X645238Y201570D01*
X645160Y202656D01*
X645160Y203744D01*
X645238Y204830D01*
X645393Y205908D01*
X645624Y206971D01*
X645931Y208016D01*
X646311Y209036D01*
X646763Y210026D01*
X647285Y210981D01*
X647874Y211897D01*
X648526Y212769D01*
X649239Y213591D01*
X650009Y214361D01*
X650831Y215074D01*
X651703Y215726D01*
X652619Y216315D01*
X653574Y216837D01*
X654564Y217289D01*
X655584Y217669D01*
X656629Y217976D01*
X657692Y218207D01*
X658770Y218362D01*
X659856Y218440D01*
X660944Y218440D01*
X662030Y218362D01*
X663108Y218207D01*
X664171Y217976D01*
X665216Y217669D01*
X666236Y217289D01*
X667226Y216837D01*
X668181Y216315D01*
X669097Y215726D01*
X669969Y215074D01*
X670791Y214361D01*
X671561Y213591D01*
X672274Y212769D01*
X672926Y211897D01*
X673515Y210981D01*
X674037Y210026D01*
X674489Y209036D01*
X674869Y208016D01*
X675176Y206971D01*
X675407Y205908D01*
X675562Y204830D01*
X675640Y203744D01*
X675640Y202656D01*
X675640Y405856D02*
X675562Y404770D01*
X675407Y403692D01*
X675176Y402629D01*
X674869Y401584D01*
X674489Y400564D01*
X674037Y399574D01*
X673515Y398619D01*
X672926Y397703D01*
X672274Y396831D01*
X671561Y396009D01*
X670791Y395239D01*
X669969Y394526D01*
X669097Y393874D01*
X668181Y393285D01*
X667226Y392763D01*
X666236Y392311D01*
X665216Y391931D01*
X664171Y391624D01*
X663108Y391393D01*
X662030Y391238D01*
X660944Y391160D01*
X659856Y391160D01*
X658770Y391238D01*
X657692Y391393D01*
X656629Y391624D01*
X655584Y391931D01*
X654564Y392311D01*
X653574Y392763D01*
X652619Y393285D01*
X651703Y393874D01*
X650831Y394526D01*
X650009Y395239D01*
X649239Y396009D01*
X648526Y396831D01*
X647874Y397703D01*
X647285Y398619D01*
X646763Y399574D01*
X646311Y400564D01*
X645931Y401584D01*
X645624Y402629D01*
X645393Y403692D01*
X645238Y404770D01*
X645160Y405856D01*
X645160Y406944D01*
X645238Y408030D01*
X645393Y409108D01*
X645624Y410171D01*
X645931Y411216D01*
X646311Y412236D01*
X646763Y413226D01*
X647285Y414181D01*
X647874Y415097D01*
X648526Y415969D01*
X649239Y416791D01*
X650009Y417561D01*
X650831Y418274D01*
X651703Y418926D01*
X652619Y419515D01*
X653574Y420037D01*
X654564Y420489D01*
X655584Y420869D01*
X656629Y421176D01*
X657692Y421407D01*
X658770Y421562D01*
X659856Y421640D01*
X660944Y421640D01*
X662030Y421562D01*
X663108Y421407D01*
X664171Y421176D01*
X665216Y420869D01*
X666236Y420489D01*
X667226Y420037D01*
X668181Y419515D01*
X669097Y418926D01*
X669969Y418274D01*
X670791Y417561D01*
X671561Y416791D01*
X672274Y415969D01*
X672926Y415097D01*
X673515Y414181D01*
X674037Y413226D01*
X674489Y412236D01*
X674869Y411216D01*
X675176Y410171D01*
X675407Y409108D01*
X675562Y408030D01*
X675640Y406944D01*
X675640Y405856D01*
X406650Y967163D02*
X406706Y967585D01*
X406816Y967997D01*
X406979Y968391D01*
X407192Y968759D01*
X407451Y969097D01*
X407753Y969399D01*
X408091Y969658D01*
X408459Y969871D01*
X408853Y970034D01*
X409265Y970144D01*
X409687Y970200D01*
X410113Y970200D01*
X410535Y970144D01*
X410947Y970034D01*
X411341Y969871D01*
X411709Y969658D01*
X412047Y969399D01*
X412349Y969097D01*
X412608Y968759D01*
X412821Y968391D01*
X412984Y967997D01*
X413094Y967585D01*
X413150Y967163D01*
X413150Y966737D01*
X413094Y966315D01*
X412984Y965903D01*
X412821Y965509D01*
X412608Y965141D01*
X412349Y964803D01*
X412047Y964501D01*
X411709Y964242D01*
X411341Y964029D01*
X410947Y963866D01*
X410535Y963756D01*
X410113Y963700D01*
X409687Y963700D01*
X409265Y963756D01*
X408853Y963866D01*
X408459Y964029D01*
X408091Y964242D01*
X407753Y964501D01*
X407451Y964803D01*
X407192Y965141D01*
X406979Y965509D01*
X406816Y965903D01*
X406706Y966315D01*
X406650Y966737D01*
X406650Y967163D01*
X348850Y967163D02*
X348906Y967585D01*
X349016Y967997D01*
X349179Y968391D01*
X349392Y968759D01*
X349651Y969097D01*
X349953Y969399D01*
X350291Y969658D01*
X350659Y969871D01*
X351053Y970034D01*
X351465Y970144D01*
X351887Y970200D01*
X352313Y970200D01*
X352735Y970144D01*
X353147Y970034D01*
X353541Y969871D01*
X353909Y969658D01*
X354247Y969399D01*
X354549Y969097D01*
X354808Y968759D01*
X355021Y968391D01*
X355184Y967997D01*
X355294Y967585D01*
X355350Y967163D01*
X355350Y966737D01*
X355294Y966315D01*
X355184Y965903D01*
X355021Y965509D01*
X354808Y965141D01*
X354549Y964803D01*
X354247Y964501D01*
X353909Y964242D01*
X353541Y964029D01*
X353147Y963866D01*
X352735Y963756D01*
X352313Y963700D01*
X351887Y963700D01*
X351465Y963756D01*
X351053Y963866D01*
X350659Y964029D01*
X350291Y964242D01*
X349953Y964501D01*
X349651Y964803D01*
X349392Y965141D01*
X349179Y965509D01*
X349016Y965903D01*
X348906Y966315D01*
X348850Y966737D01*
X348850Y967163D01*
M02*
