M48
;GenerationSoftware,Autodesk,EAGLE,9.6.2*%
;CreationDate,2023-03-21T13:35:53Z*%
FMAT,2
ICI,OFF
METRIC,TZ,000.000
T12C0.300
T11C0.400
T10C0.650
T9C0.900
T8C0.950
T7C1.000
T6C1.016
T5C1.200
T4C1.400
T3C1.700
T2C3.048
T1C3.250
%
G90
M71
T1
X24447Y92202
X13017Y92202
T2
X86678Y10160
X149543Y2540
X149543Y99060
X2223Y99060
X65723Y40640
X2223Y2540
X65087Y10160
X86043Y20320
X86043Y40640
X65723Y20320
T3
X26607Y89152
X10858Y89152
T4
X61742Y94990
X58242Y94990
X51242Y94990
X54742Y94990
X65242Y94990
X68743Y94990
X72243Y94990
X75743Y94990
X79243Y94990
X82743Y94990
T5
X104782Y6310
X97782Y6310
X130182Y5421
X123182Y5421
T6
X116522Y60960
X9843Y77470
X119062Y60960
X9843Y80010
X7302Y77470
X7302Y80010
X42863Y43180
X40323Y43180
T7
X32833Y2032
X99032Y3810
X13652Y5635
X11112Y5635
X40833Y2032
X103532Y3810
X128932Y2921
X124432Y2921
T8
X40323Y16510
X115252Y50800
X35243Y16510
X33973Y19050
X36513Y19050
X39053Y19050
X30162Y16510
X51752Y49530
X102552Y68580
X145733Y60960
X102552Y76200
X78423Y77470
X102552Y63500
X68263Y49530
X68263Y55880
X105092Y74930
X47942Y16510
X47942Y69850
X40323Y36830
X37783Y36830
X136843Y68580
X134303Y68580
X134303Y82550
X120332Y80010
X120332Y74930
X102552Y78740
X102552Y71120
X102552Y73660
X94932Y55880
X94932Y46990
X119062Y82550
X115252Y54610
X33973Y43180
X40323Y49530
X101282Y24130
X101282Y16510
X78423Y67310
X78423Y73660
X78423Y69850
X78423Y64770
X102552Y66040
X105092Y67310
X37783Y16510
X32702Y16510
X31432Y19050
T9
X15557Y85852
X16828Y83312
X18098Y85852
X19368Y83312
X22822Y96262
X12102Y96262
X25362Y96262
X14642Y96262
X13017Y85852
X24447Y83312
X20638Y85852
X21907Y83312
X23177Y85852
X14287Y83312
T10
X111092Y4905
X116872Y4905
X136493Y4905
X142273Y4905
X40673Y96695
X34893Y96695
T11
X33465Y100345
X33465Y96165
X42101Y96165
X42101Y100345
X135065Y5435
X143701Y5435
X143701Y1255
X135065Y1255
X109664Y5435
X118300Y5435
X118300Y1255
X109664Y1255
T12
X26987Y66675
X26987Y65405
X26987Y64135
X26987Y62865
X28257Y62865
X28257Y64135
X28257Y65405
X28257Y66675
X28257Y67945
X28257Y69215
X26987Y61595
X28257Y61595
X28257Y60325
X26987Y60325
X17463Y45720
X18733Y45720
X20003Y45720
X20638Y45085
X19368Y45085
X18098Y45085
X18098Y46355
X19368Y46355
X20638Y46355
X20003Y46990
X18733Y46990
X17463Y46990
X16828Y46355
X16828Y45085
X20638Y41275
X19368Y41275
X18098Y41275
X16828Y41275
X15557Y41275
X15557Y42545
X15557Y43815
X15557Y45085
X15557Y46355
X16192Y45720
X16192Y46990
X14922Y45720
X14922Y46990
X14922Y44450
X14922Y43180
X14922Y41910
X14922Y40640
X16192Y40640
X17463Y40640
X18733Y40640
X20003Y40640
X20638Y40005
X19368Y40005
X18098Y40005
X16828Y40005
X15557Y40005
X14922Y39370
X16192Y39370
X17463Y39370
X18733Y39370
X20003Y39370
X32702Y57150
X35243Y57150
X45402Y57150
X47942Y57150
X33973Y57150
X46672Y57150
X23812Y49784
X23812Y50927
X23812Y48387
X23812Y47625
X23812Y45847
X92392Y96520
X97472Y96520
X92392Y93980
X97472Y93980
X97472Y91440
X92392Y91440
X92392Y88900
X97472Y88900
X97472Y86995
X94932Y86995
X92392Y86995
X111442Y3810
X116522Y4064
X39053Y82550
X42863Y82550
X54292Y72390
X53022Y72390
X51752Y72390
X49212Y64770
X53022Y64770
X56832Y64770
X58737Y64770
X54927Y64770
X51117Y64770
X42863Y71120
X42863Y69215
X42863Y73025
X64452Y73660
X64452Y71755
X68898Y75311
X56832Y74168
X73343Y81280
X73343Y83185
X73343Y71755
X37783Y71120
X37783Y77470
X73343Y77470
X97472Y80010
X101282Y81280
X100012Y81280
X98742Y81280
X97472Y81280
X83503Y80010
X83503Y81280
X82233Y81280
X80963Y81280
X79693Y81280
X84773Y63500
X83503Y63500
X83503Y60960
X83503Y62230
X87313Y76200
X88582Y76200
X89852Y76200
X91122Y76200
X92392Y74930
X92392Y73660
X92392Y69850
X117030Y79248
X120332Y84836
X119062Y87630
X116268Y91440
X115252Y92710
X119697Y96520
X119062Y94615
X119062Y92710
X115252Y94615
X114617Y96520
X131128Y78740
X131128Y74930
X124142Y76200
X125412Y80645
X122872Y71120
X134938Y75057
X107632Y16510
X108902Y29210
X110807Y29210
X34481Y13970
X28892Y12700
X28892Y1270
X46672Y1270
X46672Y12700
X50482Y21590
X48958Y24130
X50482Y29210
X32067Y21463
X30162Y26670
X34608Y32385
X34608Y33909
X86043Y49530
X93027Y48260
X97472Y43180
X56832Y46990
X53022Y57150
X56832Y57150
X54927Y57150
X30797Y40005
X78423Y12700
X78423Y11430
X97472Y40640
X97472Y39370
X106997Y17272
X136081Y49530
X130492Y49530
X145733Y58420
X136208Y78740
X118681Y90424
X28892Y74930
X37783Y84455
X49212Y85090
X64452Y46990
X66358Y46990
X64452Y52070
X66358Y52070
X60642Y49530
X60642Y54610
X51752Y73660
X51752Y77470
X56832Y83820
X26352Y80645
X37783Y81280
X32702Y76200
X49212Y27305
X94932Y52070
X105092Y76835
X135954Y67310
X45402Y88900
X45402Y91440
X64452Y86360
X64452Y83820
X69533Y16129
X115252Y64135
X113982Y90170
X113982Y87630
X68898Y77089
X131763Y49530
X134938Y49530
X137097Y49530
X86043Y54610
X106997Y72390
X106997Y70485
X106997Y68580
X107124Y78740
X78423Y83820
X78423Y82550
X73343Y79375
X78423Y75565
X134303Y73025
X136843Y73025
X107632Y25400
X112077Y25400
X39688Y33274
X39688Y32385
X98742Y52070
X68263Y48260
X59372Y52070
X58102Y52070
X115252Y66040
X113982Y13970
X116522Y7620
X111442Y7620
X33973Y93980
X117792Y8890
X39053Y35560
X113195Y7620
X114270Y7620
X109029Y75057
X109664Y76200
X110807Y21717
X112077Y21717
X39688Y25654
X100012Y22225
X56832Y19050
X56832Y25654
X69533Y66040
X56832Y30480
X69533Y62230
X77153Y62230
X102552Y18415
X105092Y18415
X105092Y63500
X51498Y85598
X53530Y85344
X55562Y85598
X59753Y73660
X59753Y71755
X43371Y67310
X64452Y57150
X61912Y57150
X47307Y30480
X47307Y27305
X47307Y23495
X36830Y13970
X76391Y13970
X92900Y43180
X36830Y14732
X70803Y12700
X35243Y93980
X35243Y92710
X40323Y93980
X40323Y92710
X40323Y50800
X36005Y24146
X72708Y51435
X110172Y82042
X110172Y73660
X101028Y73660
X107533Y73660
X107632Y48260
X109537Y82550
X109537Y77470
X102552Y77470
X108013Y77470
X108013Y55880
X94170Y49530
X127317Y90170
X126047Y90170
X124777Y90170
X125412Y89535
X124777Y88900
X124777Y87630
X124777Y86360
X124777Y85090
X124777Y83820
X124777Y82550
X126047Y88900
X127317Y88900
X126047Y87630
X127317Y87630
X127317Y86360
X126047Y86360
X126047Y85090
X127317Y85090
X127317Y83820
X126047Y83820
X126047Y82550
X127317Y82550
X125412Y88265
X125412Y86995
X125412Y85725
X125412Y84455
X125412Y83185
X126682Y83185
X126682Y84455
X126682Y85725
X126682Y86995
X126682Y88265
X126682Y89535
X126682Y90805
X125412Y90805
X125412Y81915
X126682Y81915
X53022Y50800
X111442Y88900
X110172Y87630
X108902Y86360
X127190Y78740
X127190Y74930
X120332Y88900
X119062Y88900
X39942Y22225
X74613Y60325
X34608Y24130
X72073Y62865
X41593Y29210
X70803Y58420
X34608Y26670
X41593Y27305
X75248Y63500
X35751Y22324
X73978Y59690
X35878Y26670
X71438Y59055
X41085Y21590
X34608Y25400
X59372Y78740
X79693Y68580
X145733Y53340
X114490Y67945
X114109Y53340
X60515Y79756
X145733Y50800
X113347Y73025
X113347Y50800
X60007Y80264
X145733Y52070
X108521Y78077
X108521Y52705
X61023Y79248
X145733Y54610
X113982Y71120
X113982Y57150
X111315Y84074
X111315Y66167
X110680Y84559
X110680Y67056
X40704Y24638
X73343Y66040
X61531Y78260
X145733Y57150
X136843Y7620
X135573Y8890
X141923Y7620
X139383Y13970
X143193Y8890
X41593Y36830
X145733Y55880
X77153Y60960
X70803Y60960
X70803Y66040
X39053Y80010
X42863Y80010
X39053Y81280
X42863Y81280
X32702Y80645
X32702Y78740
X47942Y72644
X47942Y74168
X47942Y76200
X49212Y80010
X37783Y82550
X52641Y80518
X53530Y80518
X54419Y80518
X37783Y80010
X43117Y78486
X39053Y72644
X43117Y76520
X32702Y69215
X11112Y69850
X9843Y69850
X9208Y69215
X9843Y68580
X11112Y68580
X11112Y67310
X11112Y66040
X10478Y65405
X139383Y8890
X9208Y65405
X10478Y66675
X9208Y66675
X10478Y67945
X9208Y67945
X9843Y67310
X10478Y69215
X11112Y63500
X9843Y63500
X8573Y63500
X8573Y62230
X9843Y62230
X11112Y62230
X11112Y60960
X9843Y60960
X8573Y60960
X8573Y59690
X9843Y59690
X11112Y59690
X9208Y60325
X10478Y60325
X10478Y61595
X9208Y61595
X9208Y62865
X10478Y62865
X98742Y53086
X98742Y51054
X118173Y84582
X117157Y91440
X115379Y79248
X119062Y71120
X144844Y63881
X112077Y83566
X112077Y52070
X112712Y83058
X112712Y54610
X134811Y78740
X37783Y45720
X39053Y45720
X37783Y44450
X39053Y44450
X37783Y41910
X40323Y44704
X39053Y41910
X40323Y41656
X39053Y40640
X38799Y43180
X64452Y67945
X64452Y69850
X70168Y64770
X145733Y59436
X31432Y13970
X77153Y64008
X71438Y76200
X79693Y76200
X135573Y13970
X143193Y13970
X143193Y7620
X135573Y7620
X131763Y44450
X134938Y44450
X136843Y44450
X140653Y49530
X126986Y54320
X131187Y54320
X135387Y54320
X139587Y54320
X126986Y58420
X126986Y62520
X131187Y62520
X135387Y62520
X139587Y62520
X131187Y58420
X135287Y58420
X127952Y67310
X126682Y67310
X138113Y67310
X140653Y67310
X139383Y64516
X138113Y69850
X138113Y72390
X138113Y74930
X138113Y77470
X138113Y80010
X138113Y82550
X138113Y85090
X140653Y85090
X110172Y8890
X140653Y82550
X140653Y80010
X140653Y77470
X140653Y74930
X140653Y72390
X140653Y69850
X140653Y87630
X140653Y90170
X140653Y92710
X141923Y95250
X143193Y96520
X143193Y99060
X135573Y99060
X135573Y96520
X136843Y95250
X138113Y92710
X138113Y90170
X138113Y87630
X135573Y90170
X135573Y16510
X135573Y19050
X135573Y21590
X135573Y24130
X135573Y26670
X135319Y28956
X135573Y31750
X135573Y34290
X135573Y36830
X135573Y39370
X135573Y41910
X139383Y39370
X139383Y41910
X140653Y44450
X139383Y36830
X138875Y34290
X139383Y31750
X139256Y28956
X139383Y26670
X139383Y24130
X139383Y21590
X139383Y19050
X139383Y16510
X136843Y3810
X141923Y4064
X113982Y8890
X110172Y13970
X117792Y13970
X117792Y7620
X110172Y7620
X28892Y73660
X28892Y72390
X28892Y71120
X28892Y69850
X27622Y69850
X21273Y78740
X41593Y93980
X36259Y96774
X39307Y96774
X39053Y88900
X36513Y88900
X26352Y69850
X26352Y68580
X27622Y68580
X28892Y68580
X26352Y67310
X27622Y67310
X28892Y67310
X26352Y66040
X27622Y66040
X28892Y66040
X26352Y64770
X27622Y64770
X28892Y64770
X26352Y63500
X27622Y63500
X28892Y63500
X28892Y62230
X27622Y62230
X26352Y62230
X26352Y60960
X27622Y60960
X28892Y60960
X28892Y59690
X27622Y59690
X26352Y59690
X26987Y69215
X26987Y67945
X9843Y66040
M30