G04 EAGLE Gerber RS-274X export*
G75*
%MOMM*%
%FSLAX34Y34*%
%LPD*%
%IN*%
%IPPOS*%
%AMOC8*
5,1,8,0,0,1.08239X$1,22.5*%
G01*
%ADD10C,0.200000*%
%ADD11C,0.000000*%
%ADD12C,0.254000*%


D10*
X-1000000Y-400000D02*
X-999971Y-402416D01*
X-999883Y-404831D01*
X-999737Y-407243D01*
X-999533Y-409651D01*
X-999271Y-412054D01*
X-998951Y-414449D01*
X-998573Y-416836D01*
X-998137Y-419213D01*
X-997644Y-421578D01*
X-997094Y-423932D01*
X-996488Y-426271D01*
X-995825Y-428595D01*
X-995106Y-430902D01*
X-994331Y-433191D01*
X-993502Y-435460D01*
X-992617Y-437709D01*
X-991679Y-439936D01*
X-990687Y-442140D01*
X-989643Y-444319D01*
X-988546Y-446472D01*
X-987397Y-448598D01*
X-986197Y-450696D01*
X-984947Y-452764D01*
X-983647Y-454801D01*
X-982298Y-456806D01*
X-980902Y-458779D01*
X-979458Y-460716D01*
X-977967Y-462619D01*
X-976432Y-464484D01*
X-974851Y-466312D01*
X-973227Y-468102D01*
X-971560Y-469851D01*
X-969851Y-471560D01*
X-968102Y-473227D01*
X-966312Y-474851D01*
X-964484Y-476432D01*
X-962619Y-477967D01*
X-960716Y-479458D01*
X-958779Y-480902D01*
X-956806Y-482298D01*
X-954801Y-483647D01*
X-952764Y-484947D01*
X-950696Y-486197D01*
X-948598Y-487397D01*
X-946472Y-488546D01*
X-944319Y-489643D01*
X-942140Y-490687D01*
X-939936Y-491679D01*
X-937709Y-492617D01*
X-935460Y-493502D01*
X-933191Y-494331D01*
X-930902Y-495106D01*
X-928595Y-495825D01*
X-926271Y-496488D01*
X-923932Y-497094D01*
X-921578Y-497644D01*
X-919213Y-498137D01*
X-916836Y-498573D01*
X-914449Y-498951D01*
X-912054Y-499271D01*
X-909651Y-499533D01*
X-907243Y-499737D01*
X-904831Y-499883D01*
X-902416Y-499971D01*
X-900000Y-500000D01*
X900000Y-500000D01*
X902416Y-499971D01*
X904831Y-499883D01*
X907243Y-499737D01*
X909651Y-499533D01*
X912054Y-499271D01*
X914449Y-498951D01*
X916836Y-498573D01*
X919213Y-498137D01*
X921578Y-497644D01*
X923932Y-497094D01*
X926271Y-496488D01*
X928595Y-495825D01*
X930902Y-495106D01*
X933191Y-494331D01*
X935460Y-493502D01*
X937709Y-492617D01*
X939936Y-491679D01*
X942140Y-490687D01*
X944319Y-489643D01*
X946472Y-488546D01*
X948598Y-487397D01*
X950696Y-486197D01*
X952764Y-484947D01*
X954801Y-483647D01*
X956806Y-482298D01*
X958779Y-480902D01*
X960716Y-479458D01*
X962619Y-477967D01*
X964484Y-476432D01*
X966312Y-474851D01*
X968102Y-473227D01*
X969851Y-471560D01*
X971560Y-469851D01*
X973227Y-468102D01*
X974851Y-466312D01*
X976432Y-464484D01*
X977967Y-462619D01*
X979458Y-460716D01*
X980902Y-458779D01*
X982298Y-456806D01*
X983647Y-454801D01*
X984947Y-452764D01*
X986197Y-450696D01*
X987397Y-448598D01*
X988546Y-446472D01*
X989643Y-444319D01*
X990687Y-442140D01*
X991679Y-439936D01*
X992617Y-437709D01*
X993502Y-435460D01*
X994331Y-433191D01*
X995106Y-430902D01*
X995825Y-428595D01*
X996488Y-426271D01*
X997094Y-423932D01*
X997644Y-421578D01*
X998137Y-419213D01*
X998573Y-416836D01*
X998951Y-414449D01*
X999271Y-412054D01*
X999533Y-409651D01*
X999737Y-407243D01*
X999883Y-404831D01*
X999971Y-402416D01*
X1000000Y-400000D01*
X1000000Y400000D01*
X1000001Y400000D02*
X1000094Y402297D01*
X1000131Y404596D01*
X1000113Y406894D01*
X1000040Y409192D01*
X999911Y411487D01*
X999726Y413779D01*
X999486Y416065D01*
X999191Y418345D01*
X998841Y420617D01*
X998437Y422880D01*
X997977Y425133D01*
X997464Y427374D01*
X996896Y429601D01*
X996275Y431815D01*
X995600Y434013D01*
X994873Y436193D01*
X994093Y438356D01*
X993261Y440499D01*
X992377Y442621D01*
X991442Y444722D01*
X990457Y446799D01*
X989422Y448852D01*
X988338Y450879D01*
X987205Y452879D01*
X986024Y454851D01*
X984796Y456795D01*
X983521Y458708D01*
X982200Y460590D01*
X980835Y462439D01*
X979425Y464254D01*
X977971Y466035D01*
X976475Y467781D01*
X974937Y469490D01*
X973358Y471161D01*
X971740Y472793D01*
X970082Y474386D01*
X968386Y475939D01*
X966654Y477449D01*
X964885Y478918D01*
X963081Y480344D01*
X961244Y481725D01*
X959373Y483062D01*
X957471Y484353D01*
X955539Y485597D01*
X953576Y486795D01*
X951586Y487945D01*
X949568Y489047D01*
X947524Y490099D01*
X945455Y491102D01*
X943363Y492054D01*
X941248Y492956D01*
X939112Y493806D01*
X936956Y494604D01*
X934782Y495350D01*
X932590Y496043D01*
X930382Y496683D01*
X928159Y497270D01*
X925923Y497803D01*
X923674Y498281D01*
X921415Y498705D01*
X919146Y499074D01*
X916868Y499389D01*
X914584Y499648D01*
X912294Y499852D01*
X910000Y500001D01*
X910000Y500000D02*
X-890000Y500000D01*
X-892539Y500090D01*
X-895079Y500119D01*
X-897619Y500086D01*
X-900157Y499992D01*
X-902693Y499837D01*
X-905224Y499621D01*
X-907749Y499343D01*
X-910266Y499005D01*
X-912775Y498605D01*
X-915273Y498145D01*
X-917760Y497625D01*
X-920233Y497046D01*
X-922692Y496406D01*
X-925134Y495707D01*
X-927558Y494950D01*
X-929964Y494134D01*
X-932349Y493260D01*
X-934713Y492329D01*
X-937053Y491341D01*
X-939369Y490297D01*
X-941658Y489197D01*
X-943921Y488042D01*
X-946155Y486832D01*
X-948359Y485569D01*
X-950532Y484254D01*
X-952672Y482886D01*
X-954779Y481466D01*
X-956851Y479997D01*
X-958887Y478477D01*
X-960885Y476909D01*
X-962845Y475293D01*
X-964766Y473630D01*
X-966645Y471922D01*
X-968483Y470168D01*
X-970278Y468370D01*
X-972029Y466530D01*
X-973735Y464648D01*
X-975395Y462725D01*
X-977008Y460763D01*
X-978573Y458762D01*
X-980089Y456724D01*
X-981556Y454650D01*
X-982972Y452541D01*
X-984337Y450398D01*
X-985649Y448223D01*
X-986909Y446017D01*
X-988115Y443781D01*
X-989266Y441517D01*
X-990363Y439226D01*
X-991404Y436909D01*
X-992388Y434567D01*
X-993316Y432202D01*
X-994186Y429816D01*
X-994998Y427409D01*
X-995752Y424983D01*
X-996447Y422540D01*
X-997083Y420080D01*
X-997659Y417606D01*
X-998176Y415119D01*
X-998632Y412620D01*
X-999027Y410111D01*
X-999362Y407593D01*
X-999636Y405067D01*
X-999849Y402536D01*
X-1000000Y400000D01*
X-1000000Y-400000D01*
X-784000Y-90000D02*
X-784000Y90000D01*
X-678000Y-196000D02*
X678000Y-196000D01*
X784000Y-90000D02*
X784000Y90000D01*
X678000Y196000D02*
X-678000Y196000D01*
X706500Y-167500D02*
X706514Y-166316D01*
X706557Y-165133D01*
X706629Y-163951D01*
X706729Y-162771D01*
X706857Y-161594D01*
X707014Y-160420D01*
X707199Y-159251D01*
X707413Y-158086D01*
X707654Y-156927D01*
X707924Y-155774D01*
X708221Y-154627D01*
X708546Y-153489D01*
X708898Y-152358D01*
X709278Y-151237D01*
X709684Y-150124D01*
X710117Y-149022D01*
X710577Y-147931D01*
X711063Y-146851D01*
X711575Y-145784D01*
X712113Y-144729D01*
X712676Y-143687D01*
X713263Y-142659D01*
X713876Y-141646D01*
X714513Y-140647D01*
X715174Y-139665D01*
X715858Y-138699D01*
X716566Y-137749D01*
X717296Y-136817D01*
X718049Y-135903D01*
X718823Y-135007D01*
X719619Y-134130D01*
X720436Y-133273D01*
X721273Y-132436D01*
X722130Y-131619D01*
X723007Y-130823D01*
X723903Y-130049D01*
X724817Y-129296D01*
X725749Y-128566D01*
X726699Y-127858D01*
X727665Y-127174D01*
X728647Y-126513D01*
X729646Y-125876D01*
X730659Y-125263D01*
X731687Y-124676D01*
X732729Y-124113D01*
X733784Y-123575D01*
X734851Y-123063D01*
X735931Y-122577D01*
X737022Y-122117D01*
X738124Y-121684D01*
X739237Y-121278D01*
X740358Y-120898D01*
X741489Y-120546D01*
X742627Y-120221D01*
X743774Y-119924D01*
X744927Y-119654D01*
X746086Y-119413D01*
X747251Y-119199D01*
X748420Y-119014D01*
X749594Y-118857D01*
X750771Y-118729D01*
X751951Y-118629D01*
X753133Y-118557D01*
X754316Y-118514D01*
X755500Y-118500D01*
X706500Y-167500D02*
X706492Y-168189D01*
X706467Y-168877D01*
X706425Y-169564D01*
X706367Y-170251D01*
X706292Y-170935D01*
X706201Y-171618D01*
X706093Y-172298D01*
X705969Y-172976D01*
X705829Y-173650D01*
X705672Y-174320D01*
X705499Y-174987D01*
X705310Y-175649D01*
X705105Y-176307D01*
X704884Y-176959D01*
X704648Y-177606D01*
X704396Y-178247D01*
X704129Y-178882D01*
X703846Y-179510D01*
X703548Y-180131D01*
X703235Y-180745D01*
X702908Y-181351D01*
X702566Y-181948D01*
X702210Y-182538D01*
X701839Y-183118D01*
X701455Y-183690D01*
X701057Y-184252D01*
X700645Y-184804D01*
X700221Y-185346D01*
X699783Y-185878D01*
X699333Y-186399D01*
X698870Y-186909D01*
X698395Y-187408D01*
X697908Y-187895D01*
X697409Y-188370D01*
X696899Y-188833D01*
X696378Y-189283D01*
X695846Y-189721D01*
X695304Y-190145D01*
X694752Y-190557D01*
X694190Y-190955D01*
X693618Y-191339D01*
X693038Y-191710D01*
X692448Y-192066D01*
X691851Y-192408D01*
X691245Y-192735D01*
X690631Y-193048D01*
X690010Y-193346D01*
X689382Y-193629D01*
X688747Y-193896D01*
X688106Y-194148D01*
X687459Y-194384D01*
X686807Y-194605D01*
X686149Y-194810D01*
X685487Y-194999D01*
X684820Y-195172D01*
X684150Y-195329D01*
X683476Y-195469D01*
X682798Y-195593D01*
X682118Y-195701D01*
X681435Y-195792D01*
X680751Y-195867D01*
X680064Y-195925D01*
X679377Y-195967D01*
X678689Y-195992D01*
X678000Y-196000D01*
X755500Y-118500D02*
X756189Y-118492D01*
X756877Y-118467D01*
X757564Y-118425D01*
X758251Y-118367D01*
X758935Y-118292D01*
X759618Y-118201D01*
X760298Y-118093D01*
X760976Y-117969D01*
X761650Y-117829D01*
X762320Y-117672D01*
X762987Y-117499D01*
X763649Y-117310D01*
X764307Y-117105D01*
X764959Y-116884D01*
X765606Y-116648D01*
X766247Y-116396D01*
X766882Y-116129D01*
X767510Y-115846D01*
X768131Y-115548D01*
X768745Y-115235D01*
X769351Y-114908D01*
X769948Y-114566D01*
X770538Y-114210D01*
X771118Y-113839D01*
X771690Y-113455D01*
X772252Y-113057D01*
X772804Y-112645D01*
X773346Y-112221D01*
X773878Y-111783D01*
X774399Y-111333D01*
X774909Y-110870D01*
X775408Y-110395D01*
X775895Y-109908D01*
X776370Y-109409D01*
X776833Y-108899D01*
X777283Y-108378D01*
X777721Y-107846D01*
X778145Y-107304D01*
X778557Y-106752D01*
X778955Y-106190D01*
X779339Y-105618D01*
X779710Y-105038D01*
X780066Y-104448D01*
X780408Y-103851D01*
X780735Y-103245D01*
X781048Y-102631D01*
X781346Y-102010D01*
X781629Y-101382D01*
X781896Y-100747D01*
X782148Y-100106D01*
X782384Y-99459D01*
X782605Y-98807D01*
X782810Y-98149D01*
X782999Y-97487D01*
X783172Y-96820D01*
X783329Y-96150D01*
X783469Y-95476D01*
X783593Y-94798D01*
X783701Y-94118D01*
X783792Y-93435D01*
X783867Y-92751D01*
X783925Y-92064D01*
X783967Y-91377D01*
X783992Y-90689D01*
X784000Y-90000D01*
X755500Y118500D02*
X754316Y118514D01*
X753133Y118557D01*
X751951Y118629D01*
X750771Y118729D01*
X749594Y118857D01*
X748420Y119014D01*
X747251Y119199D01*
X746086Y119413D01*
X744927Y119654D01*
X743774Y119924D01*
X742627Y120221D01*
X741489Y120546D01*
X740358Y120898D01*
X739237Y121278D01*
X738124Y121684D01*
X737022Y122117D01*
X735931Y122577D01*
X734851Y123063D01*
X733784Y123575D01*
X732729Y124113D01*
X731687Y124676D01*
X730659Y125263D01*
X729646Y125876D01*
X728647Y126513D01*
X727665Y127174D01*
X726699Y127858D01*
X725749Y128566D01*
X724817Y129296D01*
X723903Y130049D01*
X723007Y130823D01*
X722130Y131619D01*
X721273Y132436D01*
X720436Y133273D01*
X719619Y134130D01*
X718823Y135007D01*
X718049Y135903D01*
X717296Y136817D01*
X716566Y137749D01*
X715858Y138699D01*
X715174Y139665D01*
X714513Y140647D01*
X713876Y141646D01*
X713263Y142659D01*
X712676Y143687D01*
X712113Y144729D01*
X711575Y145784D01*
X711063Y146851D01*
X710577Y147931D01*
X710117Y149022D01*
X709684Y150124D01*
X709278Y151237D01*
X708898Y152358D01*
X708546Y153489D01*
X708221Y154627D01*
X707924Y155774D01*
X707654Y156927D01*
X707413Y158086D01*
X707199Y159251D01*
X707014Y160420D01*
X706857Y161594D01*
X706729Y162771D01*
X706629Y163951D01*
X706557Y165133D01*
X706514Y166316D01*
X706500Y167500D01*
X755500Y118500D02*
X756189Y118492D01*
X756877Y118467D01*
X757564Y118425D01*
X758251Y118367D01*
X758935Y118292D01*
X759618Y118201D01*
X760298Y118093D01*
X760976Y117969D01*
X761650Y117829D01*
X762320Y117672D01*
X762987Y117499D01*
X763649Y117310D01*
X764307Y117105D01*
X764959Y116884D01*
X765606Y116648D01*
X766247Y116396D01*
X766882Y116129D01*
X767510Y115846D01*
X768131Y115548D01*
X768745Y115235D01*
X769351Y114908D01*
X769948Y114566D01*
X770538Y114210D01*
X771118Y113839D01*
X771690Y113455D01*
X772252Y113057D01*
X772804Y112645D01*
X773346Y112221D01*
X773878Y111783D01*
X774399Y111333D01*
X774909Y110870D01*
X775408Y110395D01*
X775895Y109908D01*
X776370Y109409D01*
X776833Y108899D01*
X777283Y108378D01*
X777721Y107846D01*
X778145Y107304D01*
X778557Y106752D01*
X778955Y106190D01*
X779339Y105618D01*
X779710Y105038D01*
X780066Y104448D01*
X780408Y103851D01*
X780735Y103245D01*
X781048Y102631D01*
X781346Y102010D01*
X781629Y101382D01*
X781896Y100747D01*
X782148Y100106D01*
X782384Y99459D01*
X782605Y98807D01*
X782810Y98149D01*
X782999Y97487D01*
X783172Y96820D01*
X783329Y96150D01*
X783469Y95476D01*
X783593Y94798D01*
X783701Y94118D01*
X783792Y93435D01*
X783867Y92751D01*
X783925Y92064D01*
X783967Y91377D01*
X783992Y90689D01*
X784000Y90000D01*
X706500Y167500D02*
X706492Y168189D01*
X706467Y168877D01*
X706425Y169564D01*
X706367Y170251D01*
X706292Y170935D01*
X706201Y171618D01*
X706093Y172298D01*
X705969Y172976D01*
X705829Y173650D01*
X705672Y174320D01*
X705499Y174987D01*
X705310Y175649D01*
X705105Y176307D01*
X704884Y176959D01*
X704648Y177606D01*
X704396Y178247D01*
X704129Y178882D01*
X703846Y179510D01*
X703548Y180131D01*
X703235Y180745D01*
X702908Y181351D01*
X702566Y181948D01*
X702210Y182538D01*
X701839Y183118D01*
X701455Y183690D01*
X701057Y184252D01*
X700645Y184804D01*
X700221Y185346D01*
X699783Y185878D01*
X699333Y186399D01*
X698870Y186909D01*
X698395Y187408D01*
X697908Y187895D01*
X697409Y188370D01*
X696899Y188833D01*
X696378Y189283D01*
X695846Y189721D01*
X695304Y190145D01*
X694752Y190557D01*
X694190Y190955D01*
X693618Y191339D01*
X693038Y191710D01*
X692448Y192066D01*
X691851Y192408D01*
X691245Y192735D01*
X690631Y193048D01*
X690010Y193346D01*
X689382Y193629D01*
X688747Y193896D01*
X688106Y194148D01*
X687459Y194384D01*
X686807Y194605D01*
X686149Y194810D01*
X685487Y194999D01*
X684820Y195172D01*
X684150Y195329D01*
X683476Y195469D01*
X682798Y195593D01*
X682118Y195701D01*
X681435Y195792D01*
X680751Y195867D01*
X680064Y195925D01*
X679377Y195967D01*
X678689Y195992D01*
X678000Y196000D01*
X-706500Y167500D02*
X-706514Y166316D01*
X-706557Y165133D01*
X-706629Y163951D01*
X-706729Y162771D01*
X-706857Y161594D01*
X-707014Y160420D01*
X-707199Y159251D01*
X-707413Y158086D01*
X-707654Y156927D01*
X-707924Y155774D01*
X-708221Y154627D01*
X-708546Y153489D01*
X-708898Y152358D01*
X-709278Y151237D01*
X-709684Y150124D01*
X-710117Y149022D01*
X-710577Y147931D01*
X-711063Y146851D01*
X-711575Y145784D01*
X-712113Y144729D01*
X-712676Y143687D01*
X-713263Y142659D01*
X-713876Y141646D01*
X-714513Y140647D01*
X-715174Y139665D01*
X-715858Y138699D01*
X-716566Y137749D01*
X-717296Y136817D01*
X-718049Y135903D01*
X-718823Y135007D01*
X-719619Y134130D01*
X-720436Y133273D01*
X-721273Y132436D01*
X-722130Y131619D01*
X-723007Y130823D01*
X-723903Y130049D01*
X-724817Y129296D01*
X-725749Y128566D01*
X-726699Y127858D01*
X-727665Y127174D01*
X-728647Y126513D01*
X-729646Y125876D01*
X-730659Y125263D01*
X-731687Y124676D01*
X-732729Y124113D01*
X-733784Y123575D01*
X-734851Y123063D01*
X-735931Y122577D01*
X-737022Y122117D01*
X-738124Y121684D01*
X-739237Y121278D01*
X-740358Y120898D01*
X-741489Y120546D01*
X-742627Y120221D01*
X-743774Y119924D01*
X-744927Y119654D01*
X-746086Y119413D01*
X-747251Y119199D01*
X-748420Y119014D01*
X-749594Y118857D01*
X-750771Y118729D01*
X-751951Y118629D01*
X-753133Y118557D01*
X-754316Y118514D01*
X-755500Y118500D01*
X-706500Y167500D02*
X-706492Y168189D01*
X-706467Y168877D01*
X-706425Y169564D01*
X-706367Y170251D01*
X-706292Y170935D01*
X-706201Y171618D01*
X-706093Y172298D01*
X-705969Y172976D01*
X-705829Y173650D01*
X-705672Y174320D01*
X-705499Y174987D01*
X-705310Y175649D01*
X-705105Y176307D01*
X-704884Y176959D01*
X-704648Y177606D01*
X-704396Y178247D01*
X-704129Y178882D01*
X-703846Y179510D01*
X-703548Y180131D01*
X-703235Y180745D01*
X-702908Y181351D01*
X-702566Y181948D01*
X-702210Y182538D01*
X-701839Y183118D01*
X-701455Y183690D01*
X-701057Y184252D01*
X-700645Y184804D01*
X-700221Y185346D01*
X-699783Y185878D01*
X-699333Y186399D01*
X-698870Y186909D01*
X-698395Y187408D01*
X-697908Y187895D01*
X-697409Y188370D01*
X-696899Y188833D01*
X-696378Y189283D01*
X-695846Y189721D01*
X-695304Y190145D01*
X-694752Y190557D01*
X-694190Y190955D01*
X-693618Y191339D01*
X-693038Y191710D01*
X-692448Y192066D01*
X-691851Y192408D01*
X-691245Y192735D01*
X-690631Y193048D01*
X-690010Y193346D01*
X-689382Y193629D01*
X-688747Y193896D01*
X-688106Y194148D01*
X-687459Y194384D01*
X-686807Y194605D01*
X-686149Y194810D01*
X-685487Y194999D01*
X-684820Y195172D01*
X-684150Y195329D01*
X-683476Y195469D01*
X-682798Y195593D01*
X-682118Y195701D01*
X-681435Y195792D01*
X-680751Y195867D01*
X-680064Y195925D01*
X-679377Y195967D01*
X-678689Y195992D01*
X-678000Y196000D01*
X-755500Y118500D02*
X-756189Y118492D01*
X-756877Y118467D01*
X-757564Y118425D01*
X-758251Y118367D01*
X-758935Y118292D01*
X-759618Y118201D01*
X-760298Y118093D01*
X-760976Y117969D01*
X-761650Y117829D01*
X-762320Y117672D01*
X-762987Y117499D01*
X-763649Y117310D01*
X-764307Y117105D01*
X-764959Y116884D01*
X-765606Y116648D01*
X-766247Y116396D01*
X-766882Y116129D01*
X-767510Y115846D01*
X-768131Y115548D01*
X-768745Y115235D01*
X-769351Y114908D01*
X-769948Y114566D01*
X-770538Y114210D01*
X-771118Y113839D01*
X-771690Y113455D01*
X-772252Y113057D01*
X-772804Y112645D01*
X-773346Y112221D01*
X-773878Y111783D01*
X-774399Y111333D01*
X-774909Y110870D01*
X-775408Y110395D01*
X-775895Y109908D01*
X-776370Y109409D01*
X-776833Y108899D01*
X-777283Y108378D01*
X-777721Y107846D01*
X-778145Y107304D01*
X-778557Y106752D01*
X-778955Y106190D01*
X-779339Y105618D01*
X-779710Y105038D01*
X-780066Y104448D01*
X-780408Y103851D01*
X-780735Y103245D01*
X-781048Y102631D01*
X-781346Y102010D01*
X-781629Y101382D01*
X-781896Y100747D01*
X-782148Y100106D01*
X-782384Y99459D01*
X-782605Y98807D01*
X-782810Y98149D01*
X-782999Y97487D01*
X-783172Y96820D01*
X-783329Y96150D01*
X-783469Y95476D01*
X-783593Y94798D01*
X-783701Y94118D01*
X-783792Y93435D01*
X-783867Y92751D01*
X-783925Y92064D01*
X-783967Y91377D01*
X-783992Y90689D01*
X-784000Y90000D01*
X-755500Y-118500D02*
X-754316Y-118514D01*
X-753133Y-118557D01*
X-751951Y-118629D01*
X-750771Y-118729D01*
X-749594Y-118857D01*
X-748420Y-119014D01*
X-747251Y-119199D01*
X-746086Y-119413D01*
X-744927Y-119654D01*
X-743774Y-119924D01*
X-742627Y-120221D01*
X-741489Y-120546D01*
X-740358Y-120898D01*
X-739237Y-121278D01*
X-738124Y-121684D01*
X-737022Y-122117D01*
X-735931Y-122577D01*
X-734851Y-123063D01*
X-733784Y-123575D01*
X-732729Y-124113D01*
X-731687Y-124676D01*
X-730659Y-125263D01*
X-729646Y-125876D01*
X-728647Y-126513D01*
X-727665Y-127174D01*
X-726699Y-127858D01*
X-725749Y-128566D01*
X-724817Y-129296D01*
X-723903Y-130049D01*
X-723007Y-130823D01*
X-722130Y-131619D01*
X-721273Y-132436D01*
X-720436Y-133273D01*
X-719619Y-134130D01*
X-718823Y-135007D01*
X-718049Y-135903D01*
X-717296Y-136817D01*
X-716566Y-137749D01*
X-715858Y-138699D01*
X-715174Y-139665D01*
X-714513Y-140647D01*
X-713876Y-141646D01*
X-713263Y-142659D01*
X-712676Y-143687D01*
X-712113Y-144729D01*
X-711575Y-145784D01*
X-711063Y-146851D01*
X-710577Y-147931D01*
X-710117Y-149022D01*
X-709684Y-150124D01*
X-709278Y-151237D01*
X-708898Y-152358D01*
X-708546Y-153489D01*
X-708221Y-154627D01*
X-707924Y-155774D01*
X-707654Y-156927D01*
X-707413Y-158086D01*
X-707199Y-159251D01*
X-707014Y-160420D01*
X-706857Y-161594D01*
X-706729Y-162771D01*
X-706629Y-163951D01*
X-706557Y-165133D01*
X-706514Y-166316D01*
X-706500Y-167500D01*
X-755500Y-118500D02*
X-756189Y-118492D01*
X-756877Y-118467D01*
X-757564Y-118425D01*
X-758251Y-118367D01*
X-758935Y-118292D01*
X-759618Y-118201D01*
X-760298Y-118093D01*
X-760976Y-117969D01*
X-761650Y-117829D01*
X-762320Y-117672D01*
X-762987Y-117499D01*
X-763649Y-117310D01*
X-764307Y-117105D01*
X-764959Y-116884D01*
X-765606Y-116648D01*
X-766247Y-116396D01*
X-766882Y-116129D01*
X-767510Y-115846D01*
X-768131Y-115548D01*
X-768745Y-115235D01*
X-769351Y-114908D01*
X-769948Y-114566D01*
X-770538Y-114210D01*
X-771118Y-113839D01*
X-771690Y-113455D01*
X-772252Y-113057D01*
X-772804Y-112645D01*
X-773346Y-112221D01*
X-773878Y-111783D01*
X-774399Y-111333D01*
X-774909Y-110870D01*
X-775408Y-110395D01*
X-775895Y-109908D01*
X-776370Y-109409D01*
X-776833Y-108899D01*
X-777283Y-108378D01*
X-777721Y-107846D01*
X-778145Y-107304D01*
X-778557Y-106752D01*
X-778955Y-106190D01*
X-779339Y-105618D01*
X-779710Y-105038D01*
X-780066Y-104448D01*
X-780408Y-103851D01*
X-780735Y-103245D01*
X-781048Y-102631D01*
X-781346Y-102010D01*
X-781629Y-101382D01*
X-781896Y-100747D01*
X-782148Y-100106D01*
X-782384Y-99459D01*
X-782605Y-98807D01*
X-782810Y-98149D01*
X-782999Y-97487D01*
X-783172Y-96820D01*
X-783329Y-96150D01*
X-783469Y-95476D01*
X-783593Y-94798D01*
X-783701Y-94118D01*
X-783792Y-93435D01*
X-783867Y-92751D01*
X-783925Y-92064D01*
X-783967Y-91377D01*
X-783992Y-90689D01*
X-784000Y-90000D01*
X-706500Y-167500D02*
X-706492Y-168189D01*
X-706467Y-168877D01*
X-706425Y-169564D01*
X-706367Y-170251D01*
X-706292Y-170935D01*
X-706201Y-171618D01*
X-706093Y-172298D01*
X-705969Y-172976D01*
X-705829Y-173650D01*
X-705672Y-174320D01*
X-705499Y-174987D01*
X-705310Y-175649D01*
X-705105Y-176307D01*
X-704884Y-176959D01*
X-704648Y-177606D01*
X-704396Y-178247D01*
X-704129Y-178882D01*
X-703846Y-179510D01*
X-703548Y-180131D01*
X-703235Y-180745D01*
X-702908Y-181351D01*
X-702566Y-181948D01*
X-702210Y-182538D01*
X-701839Y-183118D01*
X-701455Y-183690D01*
X-701057Y-184252D01*
X-700645Y-184804D01*
X-700221Y-185346D01*
X-699783Y-185878D01*
X-699333Y-186399D01*
X-698870Y-186909D01*
X-698395Y-187408D01*
X-697908Y-187895D01*
X-697409Y-188370D01*
X-696899Y-188833D01*
X-696378Y-189283D01*
X-695846Y-189721D01*
X-695304Y-190145D01*
X-694752Y-190557D01*
X-694190Y-190955D01*
X-693618Y-191339D01*
X-693038Y-191710D01*
X-692448Y-192066D01*
X-691851Y-192408D01*
X-691245Y-192735D01*
X-690631Y-193048D01*
X-690010Y-193346D01*
X-689382Y-193629D01*
X-688747Y-193896D01*
X-688106Y-194148D01*
X-687459Y-194384D01*
X-686807Y-194605D01*
X-686149Y-194810D01*
X-685487Y-194999D01*
X-684820Y-195172D01*
X-684150Y-195329D01*
X-683476Y-195469D01*
X-682798Y-195593D01*
X-682118Y-195701D01*
X-681435Y-195792D01*
X-680751Y-195867D01*
X-680064Y-195925D01*
X-679377Y-195967D01*
X-678689Y-195992D01*
X-678000Y-196000D01*
D11*
X-930000Y400000D02*
X-929991Y400736D01*
X-929964Y401472D01*
X-929919Y402207D01*
X-929856Y402941D01*
X-929774Y403672D01*
X-929675Y404402D01*
X-929558Y405129D01*
X-929424Y405853D01*
X-929271Y406573D01*
X-929101Y407289D01*
X-928913Y408001D01*
X-928708Y408709D01*
X-928486Y409410D01*
X-928246Y410107D01*
X-927990Y410797D01*
X-927716Y411481D01*
X-927426Y412157D01*
X-927120Y412827D01*
X-926797Y413488D01*
X-926458Y414142D01*
X-926103Y414787D01*
X-925732Y415423D01*
X-925346Y416050D01*
X-924944Y416667D01*
X-924528Y417274D01*
X-924096Y417871D01*
X-923650Y418457D01*
X-923190Y419032D01*
X-922716Y419595D01*
X-922229Y420147D01*
X-921727Y420686D01*
X-921213Y421213D01*
X-920686Y421727D01*
X-920147Y422229D01*
X-919595Y422716D01*
X-919032Y423190D01*
X-918457Y423650D01*
X-917871Y424096D01*
X-917274Y424528D01*
X-916667Y424944D01*
X-916050Y425346D01*
X-915423Y425732D01*
X-914787Y426103D01*
X-914142Y426458D01*
X-913488Y426797D01*
X-912827Y427120D01*
X-912157Y427426D01*
X-911481Y427716D01*
X-910797Y427990D01*
X-910107Y428246D01*
X-909410Y428486D01*
X-908709Y428708D01*
X-908001Y428913D01*
X-907289Y429101D01*
X-906573Y429271D01*
X-905853Y429424D01*
X-905129Y429558D01*
X-904402Y429675D01*
X-903672Y429774D01*
X-902941Y429856D01*
X-902207Y429919D01*
X-901472Y429964D01*
X-900736Y429991D01*
X-900000Y430000D01*
X-899264Y429991D01*
X-898528Y429964D01*
X-897793Y429919D01*
X-897059Y429856D01*
X-896328Y429774D01*
X-895598Y429675D01*
X-894871Y429558D01*
X-894147Y429424D01*
X-893427Y429271D01*
X-892711Y429101D01*
X-891999Y428913D01*
X-891291Y428708D01*
X-890590Y428486D01*
X-889893Y428246D01*
X-889203Y427990D01*
X-888519Y427716D01*
X-887843Y427426D01*
X-887173Y427120D01*
X-886512Y426797D01*
X-885858Y426458D01*
X-885213Y426103D01*
X-884577Y425732D01*
X-883950Y425346D01*
X-883333Y424944D01*
X-882726Y424528D01*
X-882129Y424096D01*
X-881543Y423650D01*
X-880968Y423190D01*
X-880405Y422716D01*
X-879853Y422229D01*
X-879314Y421727D01*
X-878787Y421213D01*
X-878273Y420686D01*
X-877771Y420147D01*
X-877284Y419595D01*
X-876810Y419032D01*
X-876350Y418457D01*
X-875904Y417871D01*
X-875472Y417274D01*
X-875056Y416667D01*
X-874654Y416050D01*
X-874268Y415423D01*
X-873897Y414787D01*
X-873542Y414142D01*
X-873203Y413488D01*
X-872880Y412827D01*
X-872574Y412157D01*
X-872284Y411481D01*
X-872010Y410797D01*
X-871754Y410107D01*
X-871514Y409410D01*
X-871292Y408709D01*
X-871087Y408001D01*
X-870899Y407289D01*
X-870729Y406573D01*
X-870576Y405853D01*
X-870442Y405129D01*
X-870325Y404402D01*
X-870226Y403672D01*
X-870144Y402941D01*
X-870081Y402207D01*
X-870036Y401472D01*
X-870009Y400736D01*
X-870000Y400000D01*
X-870009Y399264D01*
X-870036Y398528D01*
X-870081Y397793D01*
X-870144Y397059D01*
X-870226Y396328D01*
X-870325Y395598D01*
X-870442Y394871D01*
X-870576Y394147D01*
X-870729Y393427D01*
X-870899Y392711D01*
X-871087Y391999D01*
X-871292Y391291D01*
X-871514Y390590D01*
X-871754Y389893D01*
X-872010Y389203D01*
X-872284Y388519D01*
X-872574Y387843D01*
X-872880Y387173D01*
X-873203Y386512D01*
X-873542Y385858D01*
X-873897Y385213D01*
X-874268Y384577D01*
X-874654Y383950D01*
X-875056Y383333D01*
X-875472Y382726D01*
X-875904Y382129D01*
X-876350Y381543D01*
X-876810Y380968D01*
X-877284Y380405D01*
X-877771Y379853D01*
X-878273Y379314D01*
X-878787Y378787D01*
X-879314Y378273D01*
X-879853Y377771D01*
X-880405Y377284D01*
X-880968Y376810D01*
X-881543Y376350D01*
X-882129Y375904D01*
X-882726Y375472D01*
X-883333Y375056D01*
X-883950Y374654D01*
X-884577Y374268D01*
X-885213Y373897D01*
X-885858Y373542D01*
X-886512Y373203D01*
X-887173Y372880D01*
X-887843Y372574D01*
X-888519Y372284D01*
X-889203Y372010D01*
X-889893Y371754D01*
X-890590Y371514D01*
X-891291Y371292D01*
X-891999Y371087D01*
X-892711Y370899D01*
X-893427Y370729D01*
X-894147Y370576D01*
X-894871Y370442D01*
X-895598Y370325D01*
X-896328Y370226D01*
X-897059Y370144D01*
X-897793Y370081D01*
X-898528Y370036D01*
X-899264Y370009D01*
X-900000Y370000D01*
X-900736Y370009D01*
X-901472Y370036D01*
X-902207Y370081D01*
X-902941Y370144D01*
X-903672Y370226D01*
X-904402Y370325D01*
X-905129Y370442D01*
X-905853Y370576D01*
X-906573Y370729D01*
X-907289Y370899D01*
X-908001Y371087D01*
X-908709Y371292D01*
X-909410Y371514D01*
X-910107Y371754D01*
X-910797Y372010D01*
X-911481Y372284D01*
X-912157Y372574D01*
X-912827Y372880D01*
X-913488Y373203D01*
X-914142Y373542D01*
X-914787Y373897D01*
X-915423Y374268D01*
X-916050Y374654D01*
X-916667Y375056D01*
X-917274Y375472D01*
X-917871Y375904D01*
X-918457Y376350D01*
X-919032Y376810D01*
X-919595Y377284D01*
X-920147Y377771D01*
X-920686Y378273D01*
X-921213Y378787D01*
X-921727Y379314D01*
X-922229Y379853D01*
X-922716Y380405D01*
X-923190Y380968D01*
X-923650Y381543D01*
X-924096Y382129D01*
X-924528Y382726D01*
X-924944Y383333D01*
X-925346Y383950D01*
X-925732Y384577D01*
X-926103Y385213D01*
X-926458Y385858D01*
X-926797Y386512D01*
X-927120Y387173D01*
X-927426Y387843D01*
X-927716Y388519D01*
X-927990Y389203D01*
X-928246Y389893D01*
X-928486Y390590D01*
X-928708Y391291D01*
X-928913Y391999D01*
X-929101Y392711D01*
X-929271Y393427D01*
X-929424Y394147D01*
X-929558Y394871D01*
X-929675Y395598D01*
X-929774Y396328D01*
X-929856Y397059D01*
X-929919Y397793D01*
X-929964Y398528D01*
X-929991Y399264D01*
X-930000Y400000D01*
X870000Y400000D02*
X870009Y400736D01*
X870036Y401472D01*
X870081Y402207D01*
X870144Y402941D01*
X870226Y403672D01*
X870325Y404402D01*
X870442Y405129D01*
X870576Y405853D01*
X870729Y406573D01*
X870899Y407289D01*
X871087Y408001D01*
X871292Y408709D01*
X871514Y409410D01*
X871754Y410107D01*
X872010Y410797D01*
X872284Y411481D01*
X872574Y412157D01*
X872880Y412827D01*
X873203Y413488D01*
X873542Y414142D01*
X873897Y414787D01*
X874268Y415423D01*
X874654Y416050D01*
X875056Y416667D01*
X875472Y417274D01*
X875904Y417871D01*
X876350Y418457D01*
X876810Y419032D01*
X877284Y419595D01*
X877771Y420147D01*
X878273Y420686D01*
X878787Y421213D01*
X879314Y421727D01*
X879853Y422229D01*
X880405Y422716D01*
X880968Y423190D01*
X881543Y423650D01*
X882129Y424096D01*
X882726Y424528D01*
X883333Y424944D01*
X883950Y425346D01*
X884577Y425732D01*
X885213Y426103D01*
X885858Y426458D01*
X886512Y426797D01*
X887173Y427120D01*
X887843Y427426D01*
X888519Y427716D01*
X889203Y427990D01*
X889893Y428246D01*
X890590Y428486D01*
X891291Y428708D01*
X891999Y428913D01*
X892711Y429101D01*
X893427Y429271D01*
X894147Y429424D01*
X894871Y429558D01*
X895598Y429675D01*
X896328Y429774D01*
X897059Y429856D01*
X897793Y429919D01*
X898528Y429964D01*
X899264Y429991D01*
X900000Y430000D01*
X900736Y429991D01*
X901472Y429964D01*
X902207Y429919D01*
X902941Y429856D01*
X903672Y429774D01*
X904402Y429675D01*
X905129Y429558D01*
X905853Y429424D01*
X906573Y429271D01*
X907289Y429101D01*
X908001Y428913D01*
X908709Y428708D01*
X909410Y428486D01*
X910107Y428246D01*
X910797Y427990D01*
X911481Y427716D01*
X912157Y427426D01*
X912827Y427120D01*
X913488Y426797D01*
X914142Y426458D01*
X914787Y426103D01*
X915423Y425732D01*
X916050Y425346D01*
X916667Y424944D01*
X917274Y424528D01*
X917871Y424096D01*
X918457Y423650D01*
X919032Y423190D01*
X919595Y422716D01*
X920147Y422229D01*
X920686Y421727D01*
X921213Y421213D01*
X921727Y420686D01*
X922229Y420147D01*
X922716Y419595D01*
X923190Y419032D01*
X923650Y418457D01*
X924096Y417871D01*
X924528Y417274D01*
X924944Y416667D01*
X925346Y416050D01*
X925732Y415423D01*
X926103Y414787D01*
X926458Y414142D01*
X926797Y413488D01*
X927120Y412827D01*
X927426Y412157D01*
X927716Y411481D01*
X927990Y410797D01*
X928246Y410107D01*
X928486Y409410D01*
X928708Y408709D01*
X928913Y408001D01*
X929101Y407289D01*
X929271Y406573D01*
X929424Y405853D01*
X929558Y405129D01*
X929675Y404402D01*
X929774Y403672D01*
X929856Y402941D01*
X929919Y402207D01*
X929964Y401472D01*
X929991Y400736D01*
X930000Y400000D01*
X929991Y399264D01*
X929964Y398528D01*
X929919Y397793D01*
X929856Y397059D01*
X929774Y396328D01*
X929675Y395598D01*
X929558Y394871D01*
X929424Y394147D01*
X929271Y393427D01*
X929101Y392711D01*
X928913Y391999D01*
X928708Y391291D01*
X928486Y390590D01*
X928246Y389893D01*
X927990Y389203D01*
X927716Y388519D01*
X927426Y387843D01*
X927120Y387173D01*
X926797Y386512D01*
X926458Y385858D01*
X926103Y385213D01*
X925732Y384577D01*
X925346Y383950D01*
X924944Y383333D01*
X924528Y382726D01*
X924096Y382129D01*
X923650Y381543D01*
X923190Y380968D01*
X922716Y380405D01*
X922229Y379853D01*
X921727Y379314D01*
X921213Y378787D01*
X920686Y378273D01*
X920147Y377771D01*
X919595Y377284D01*
X919032Y376810D01*
X918457Y376350D01*
X917871Y375904D01*
X917274Y375472D01*
X916667Y375056D01*
X916050Y374654D01*
X915423Y374268D01*
X914787Y373897D01*
X914142Y373542D01*
X913488Y373203D01*
X912827Y372880D01*
X912157Y372574D01*
X911481Y372284D01*
X910797Y372010D01*
X910107Y371754D01*
X909410Y371514D01*
X908709Y371292D01*
X908001Y371087D01*
X907289Y370899D01*
X906573Y370729D01*
X905853Y370576D01*
X905129Y370442D01*
X904402Y370325D01*
X903672Y370226D01*
X902941Y370144D01*
X902207Y370081D01*
X901472Y370036D01*
X900736Y370009D01*
X900000Y370000D01*
X899264Y370009D01*
X898528Y370036D01*
X897793Y370081D01*
X897059Y370144D01*
X896328Y370226D01*
X895598Y370325D01*
X894871Y370442D01*
X894147Y370576D01*
X893427Y370729D01*
X892711Y370899D01*
X891999Y371087D01*
X891291Y371292D01*
X890590Y371514D01*
X889893Y371754D01*
X889203Y372010D01*
X888519Y372284D01*
X887843Y372574D01*
X887173Y372880D01*
X886512Y373203D01*
X885858Y373542D01*
X885213Y373897D01*
X884577Y374268D01*
X883950Y374654D01*
X883333Y375056D01*
X882726Y375472D01*
X882129Y375904D01*
X881543Y376350D01*
X880968Y376810D01*
X880405Y377284D01*
X879853Y377771D01*
X879314Y378273D01*
X878787Y378787D01*
X878273Y379314D01*
X877771Y379853D01*
X877284Y380405D01*
X876810Y380968D01*
X876350Y381543D01*
X875904Y382129D01*
X875472Y382726D01*
X875056Y383333D01*
X874654Y383950D01*
X874268Y384577D01*
X873897Y385213D01*
X873542Y385858D01*
X873203Y386512D01*
X872880Y387173D01*
X872574Y387843D01*
X872284Y388519D01*
X872010Y389203D01*
X871754Y389893D01*
X871514Y390590D01*
X871292Y391291D01*
X871087Y391999D01*
X870899Y392711D01*
X870729Y393427D01*
X870576Y394147D01*
X870442Y394871D01*
X870325Y395598D01*
X870226Y396328D01*
X870144Y397059D01*
X870081Y397793D01*
X870036Y398528D01*
X870009Y399264D01*
X870000Y400000D01*
X870000Y-400000D02*
X870009Y-399264D01*
X870036Y-398528D01*
X870081Y-397793D01*
X870144Y-397059D01*
X870226Y-396328D01*
X870325Y-395598D01*
X870442Y-394871D01*
X870576Y-394147D01*
X870729Y-393427D01*
X870899Y-392711D01*
X871087Y-391999D01*
X871292Y-391291D01*
X871514Y-390590D01*
X871754Y-389893D01*
X872010Y-389203D01*
X872284Y-388519D01*
X872574Y-387843D01*
X872880Y-387173D01*
X873203Y-386512D01*
X873542Y-385858D01*
X873897Y-385213D01*
X874268Y-384577D01*
X874654Y-383950D01*
X875056Y-383333D01*
X875472Y-382726D01*
X875904Y-382129D01*
X876350Y-381543D01*
X876810Y-380968D01*
X877284Y-380405D01*
X877771Y-379853D01*
X878273Y-379314D01*
X878787Y-378787D01*
X879314Y-378273D01*
X879853Y-377771D01*
X880405Y-377284D01*
X880968Y-376810D01*
X881543Y-376350D01*
X882129Y-375904D01*
X882726Y-375472D01*
X883333Y-375056D01*
X883950Y-374654D01*
X884577Y-374268D01*
X885213Y-373897D01*
X885858Y-373542D01*
X886512Y-373203D01*
X887173Y-372880D01*
X887843Y-372574D01*
X888519Y-372284D01*
X889203Y-372010D01*
X889893Y-371754D01*
X890590Y-371514D01*
X891291Y-371292D01*
X891999Y-371087D01*
X892711Y-370899D01*
X893427Y-370729D01*
X894147Y-370576D01*
X894871Y-370442D01*
X895598Y-370325D01*
X896328Y-370226D01*
X897059Y-370144D01*
X897793Y-370081D01*
X898528Y-370036D01*
X899264Y-370009D01*
X900000Y-370000D01*
X900736Y-370009D01*
X901472Y-370036D01*
X902207Y-370081D01*
X902941Y-370144D01*
X903672Y-370226D01*
X904402Y-370325D01*
X905129Y-370442D01*
X905853Y-370576D01*
X906573Y-370729D01*
X907289Y-370899D01*
X908001Y-371087D01*
X908709Y-371292D01*
X909410Y-371514D01*
X910107Y-371754D01*
X910797Y-372010D01*
X911481Y-372284D01*
X912157Y-372574D01*
X912827Y-372880D01*
X913488Y-373203D01*
X914142Y-373542D01*
X914787Y-373897D01*
X915423Y-374268D01*
X916050Y-374654D01*
X916667Y-375056D01*
X917274Y-375472D01*
X917871Y-375904D01*
X918457Y-376350D01*
X919032Y-376810D01*
X919595Y-377284D01*
X920147Y-377771D01*
X920686Y-378273D01*
X921213Y-378787D01*
X921727Y-379314D01*
X922229Y-379853D01*
X922716Y-380405D01*
X923190Y-380968D01*
X923650Y-381543D01*
X924096Y-382129D01*
X924528Y-382726D01*
X924944Y-383333D01*
X925346Y-383950D01*
X925732Y-384577D01*
X926103Y-385213D01*
X926458Y-385858D01*
X926797Y-386512D01*
X927120Y-387173D01*
X927426Y-387843D01*
X927716Y-388519D01*
X927990Y-389203D01*
X928246Y-389893D01*
X928486Y-390590D01*
X928708Y-391291D01*
X928913Y-391999D01*
X929101Y-392711D01*
X929271Y-393427D01*
X929424Y-394147D01*
X929558Y-394871D01*
X929675Y-395598D01*
X929774Y-396328D01*
X929856Y-397059D01*
X929919Y-397793D01*
X929964Y-398528D01*
X929991Y-399264D01*
X930000Y-400000D01*
X929991Y-400736D01*
X929964Y-401472D01*
X929919Y-402207D01*
X929856Y-402941D01*
X929774Y-403672D01*
X929675Y-404402D01*
X929558Y-405129D01*
X929424Y-405853D01*
X929271Y-406573D01*
X929101Y-407289D01*
X928913Y-408001D01*
X928708Y-408709D01*
X928486Y-409410D01*
X928246Y-410107D01*
X927990Y-410797D01*
X927716Y-411481D01*
X927426Y-412157D01*
X927120Y-412827D01*
X926797Y-413488D01*
X926458Y-414142D01*
X926103Y-414787D01*
X925732Y-415423D01*
X925346Y-416050D01*
X924944Y-416667D01*
X924528Y-417274D01*
X924096Y-417871D01*
X923650Y-418457D01*
X923190Y-419032D01*
X922716Y-419595D01*
X922229Y-420147D01*
X921727Y-420686D01*
X921213Y-421213D01*
X920686Y-421727D01*
X920147Y-422229D01*
X919595Y-422716D01*
X919032Y-423190D01*
X918457Y-423650D01*
X917871Y-424096D01*
X917274Y-424528D01*
X916667Y-424944D01*
X916050Y-425346D01*
X915423Y-425732D01*
X914787Y-426103D01*
X914142Y-426458D01*
X913488Y-426797D01*
X912827Y-427120D01*
X912157Y-427426D01*
X911481Y-427716D01*
X910797Y-427990D01*
X910107Y-428246D01*
X909410Y-428486D01*
X908709Y-428708D01*
X908001Y-428913D01*
X907289Y-429101D01*
X906573Y-429271D01*
X905853Y-429424D01*
X905129Y-429558D01*
X904402Y-429675D01*
X903672Y-429774D01*
X902941Y-429856D01*
X902207Y-429919D01*
X901472Y-429964D01*
X900736Y-429991D01*
X900000Y-430000D01*
X899264Y-429991D01*
X898528Y-429964D01*
X897793Y-429919D01*
X897059Y-429856D01*
X896328Y-429774D01*
X895598Y-429675D01*
X894871Y-429558D01*
X894147Y-429424D01*
X893427Y-429271D01*
X892711Y-429101D01*
X891999Y-428913D01*
X891291Y-428708D01*
X890590Y-428486D01*
X889893Y-428246D01*
X889203Y-427990D01*
X888519Y-427716D01*
X887843Y-427426D01*
X887173Y-427120D01*
X886512Y-426797D01*
X885858Y-426458D01*
X885213Y-426103D01*
X884577Y-425732D01*
X883950Y-425346D01*
X883333Y-424944D01*
X882726Y-424528D01*
X882129Y-424096D01*
X881543Y-423650D01*
X880968Y-423190D01*
X880405Y-422716D01*
X879853Y-422229D01*
X879314Y-421727D01*
X878787Y-421213D01*
X878273Y-420686D01*
X877771Y-420147D01*
X877284Y-419595D01*
X876810Y-419032D01*
X876350Y-418457D01*
X875904Y-417871D01*
X875472Y-417274D01*
X875056Y-416667D01*
X874654Y-416050D01*
X874268Y-415423D01*
X873897Y-414787D01*
X873542Y-414142D01*
X873203Y-413488D01*
X872880Y-412827D01*
X872574Y-412157D01*
X872284Y-411481D01*
X872010Y-410797D01*
X871754Y-410107D01*
X871514Y-409410D01*
X871292Y-408709D01*
X871087Y-408001D01*
X870899Y-407289D01*
X870729Y-406573D01*
X870576Y-405853D01*
X870442Y-405129D01*
X870325Y-404402D01*
X870226Y-403672D01*
X870144Y-402941D01*
X870081Y-402207D01*
X870036Y-401472D01*
X870009Y-400736D01*
X870000Y-400000D01*
X-930000Y-400000D02*
X-929991Y-399264D01*
X-929964Y-398528D01*
X-929919Y-397793D01*
X-929856Y-397059D01*
X-929774Y-396328D01*
X-929675Y-395598D01*
X-929558Y-394871D01*
X-929424Y-394147D01*
X-929271Y-393427D01*
X-929101Y-392711D01*
X-928913Y-391999D01*
X-928708Y-391291D01*
X-928486Y-390590D01*
X-928246Y-389893D01*
X-927990Y-389203D01*
X-927716Y-388519D01*
X-927426Y-387843D01*
X-927120Y-387173D01*
X-926797Y-386512D01*
X-926458Y-385858D01*
X-926103Y-385213D01*
X-925732Y-384577D01*
X-925346Y-383950D01*
X-924944Y-383333D01*
X-924528Y-382726D01*
X-924096Y-382129D01*
X-923650Y-381543D01*
X-923190Y-380968D01*
X-922716Y-380405D01*
X-922229Y-379853D01*
X-921727Y-379314D01*
X-921213Y-378787D01*
X-920686Y-378273D01*
X-920147Y-377771D01*
X-919595Y-377284D01*
X-919032Y-376810D01*
X-918457Y-376350D01*
X-917871Y-375904D01*
X-917274Y-375472D01*
X-916667Y-375056D01*
X-916050Y-374654D01*
X-915423Y-374268D01*
X-914787Y-373897D01*
X-914142Y-373542D01*
X-913488Y-373203D01*
X-912827Y-372880D01*
X-912157Y-372574D01*
X-911481Y-372284D01*
X-910797Y-372010D01*
X-910107Y-371754D01*
X-909410Y-371514D01*
X-908709Y-371292D01*
X-908001Y-371087D01*
X-907289Y-370899D01*
X-906573Y-370729D01*
X-905853Y-370576D01*
X-905129Y-370442D01*
X-904402Y-370325D01*
X-903672Y-370226D01*
X-902941Y-370144D01*
X-902207Y-370081D01*
X-901472Y-370036D01*
X-900736Y-370009D01*
X-900000Y-370000D01*
X-899264Y-370009D01*
X-898528Y-370036D01*
X-897793Y-370081D01*
X-897059Y-370144D01*
X-896328Y-370226D01*
X-895598Y-370325D01*
X-894871Y-370442D01*
X-894147Y-370576D01*
X-893427Y-370729D01*
X-892711Y-370899D01*
X-891999Y-371087D01*
X-891291Y-371292D01*
X-890590Y-371514D01*
X-889893Y-371754D01*
X-889203Y-372010D01*
X-888519Y-372284D01*
X-887843Y-372574D01*
X-887173Y-372880D01*
X-886512Y-373203D01*
X-885858Y-373542D01*
X-885213Y-373897D01*
X-884577Y-374268D01*
X-883950Y-374654D01*
X-883333Y-375056D01*
X-882726Y-375472D01*
X-882129Y-375904D01*
X-881543Y-376350D01*
X-880968Y-376810D01*
X-880405Y-377284D01*
X-879853Y-377771D01*
X-879314Y-378273D01*
X-878787Y-378787D01*
X-878273Y-379314D01*
X-877771Y-379853D01*
X-877284Y-380405D01*
X-876810Y-380968D01*
X-876350Y-381543D01*
X-875904Y-382129D01*
X-875472Y-382726D01*
X-875056Y-383333D01*
X-874654Y-383950D01*
X-874268Y-384577D01*
X-873897Y-385213D01*
X-873542Y-385858D01*
X-873203Y-386512D01*
X-872880Y-387173D01*
X-872574Y-387843D01*
X-872284Y-388519D01*
X-872010Y-389203D01*
X-871754Y-389893D01*
X-871514Y-390590D01*
X-871292Y-391291D01*
X-871087Y-391999D01*
X-870899Y-392711D01*
X-870729Y-393427D01*
X-870576Y-394147D01*
X-870442Y-394871D01*
X-870325Y-395598D01*
X-870226Y-396328D01*
X-870144Y-397059D01*
X-870081Y-397793D01*
X-870036Y-398528D01*
X-870009Y-399264D01*
X-870000Y-400000D01*
X-870009Y-400736D01*
X-870036Y-401472D01*
X-870081Y-402207D01*
X-870144Y-402941D01*
X-870226Y-403672D01*
X-870325Y-404402D01*
X-870442Y-405129D01*
X-870576Y-405853D01*
X-870729Y-406573D01*
X-870899Y-407289D01*
X-871087Y-408001D01*
X-871292Y-408709D01*
X-871514Y-409410D01*
X-871754Y-410107D01*
X-872010Y-410797D01*
X-872284Y-411481D01*
X-872574Y-412157D01*
X-872880Y-412827D01*
X-873203Y-413488D01*
X-873542Y-414142D01*
X-873897Y-414787D01*
X-874268Y-415423D01*
X-874654Y-416050D01*
X-875056Y-416667D01*
X-875472Y-417274D01*
X-875904Y-417871D01*
X-876350Y-418457D01*
X-876810Y-419032D01*
X-877284Y-419595D01*
X-877771Y-420147D01*
X-878273Y-420686D01*
X-878787Y-421213D01*
X-879314Y-421727D01*
X-879853Y-422229D01*
X-880405Y-422716D01*
X-880968Y-423190D01*
X-881543Y-423650D01*
X-882129Y-424096D01*
X-882726Y-424528D01*
X-883333Y-424944D01*
X-883950Y-425346D01*
X-884577Y-425732D01*
X-885213Y-426103D01*
X-885858Y-426458D01*
X-886512Y-426797D01*
X-887173Y-427120D01*
X-887843Y-427426D01*
X-888519Y-427716D01*
X-889203Y-427990D01*
X-889893Y-428246D01*
X-890590Y-428486D01*
X-891291Y-428708D01*
X-891999Y-428913D01*
X-892711Y-429101D01*
X-893427Y-429271D01*
X-894147Y-429424D01*
X-894871Y-429558D01*
X-895598Y-429675D01*
X-896328Y-429774D01*
X-897059Y-429856D01*
X-897793Y-429919D01*
X-898528Y-429964D01*
X-899264Y-429991D01*
X-900000Y-430000D01*
X-900736Y-429991D01*
X-901472Y-429964D01*
X-902207Y-429919D01*
X-902941Y-429856D01*
X-903672Y-429774D01*
X-904402Y-429675D01*
X-905129Y-429558D01*
X-905853Y-429424D01*
X-906573Y-429271D01*
X-907289Y-429101D01*
X-908001Y-428913D01*
X-908709Y-428708D01*
X-909410Y-428486D01*
X-910107Y-428246D01*
X-910797Y-427990D01*
X-911481Y-427716D01*
X-912157Y-427426D01*
X-912827Y-427120D01*
X-913488Y-426797D01*
X-914142Y-426458D01*
X-914787Y-426103D01*
X-915423Y-425732D01*
X-916050Y-425346D01*
X-916667Y-424944D01*
X-917274Y-424528D01*
X-917871Y-424096D01*
X-918457Y-423650D01*
X-919032Y-423190D01*
X-919595Y-422716D01*
X-920147Y-422229D01*
X-920686Y-421727D01*
X-921213Y-421213D01*
X-921727Y-420686D01*
X-922229Y-420147D01*
X-922716Y-419595D01*
X-923190Y-419032D01*
X-923650Y-418457D01*
X-924096Y-417871D01*
X-924528Y-417274D01*
X-924944Y-416667D01*
X-925346Y-416050D01*
X-925732Y-415423D01*
X-926103Y-414787D01*
X-926458Y-414142D01*
X-926797Y-413488D01*
X-927120Y-412827D01*
X-927426Y-412157D01*
X-927716Y-411481D01*
X-927990Y-410797D01*
X-928246Y-410107D01*
X-928486Y-409410D01*
X-928708Y-408709D01*
X-928913Y-408001D01*
X-929101Y-407289D01*
X-929271Y-406573D01*
X-929424Y-405853D01*
X-929558Y-405129D01*
X-929675Y-404402D01*
X-929774Y-403672D01*
X-929856Y-402941D01*
X-929919Y-402207D01*
X-929964Y-401472D01*
X-929991Y-400736D01*
X-930000Y-400000D01*
D12*
X-1000000Y-400000D02*
X-999619Y-408716D01*
X-998481Y-417365D01*
X-996593Y-425882D01*
X-993969Y-434202D01*
X-990631Y-442262D01*
X-986603Y-450000D01*
X-981915Y-457358D01*
X-976604Y-464279D01*
X-970711Y-470711D01*
X-964279Y-476604D01*
X-957358Y-481915D01*
X-950000Y-486603D01*
X-942262Y-490631D01*
X-934202Y-493969D01*
X-925882Y-496593D01*
X-917365Y-498481D01*
X-908716Y-499619D01*
X-900000Y-500000D01*
X900000Y-500000D01*
X908716Y-499619D01*
X917365Y-498481D01*
X925882Y-496593D01*
X934202Y-493969D01*
X942262Y-490631D01*
X950000Y-486603D01*
X957358Y-481915D01*
X964279Y-476604D01*
X970711Y-470711D01*
X976604Y-464279D01*
X981915Y-457358D01*
X986603Y-450000D01*
X990631Y-442262D01*
X993969Y-434202D01*
X996593Y-425882D01*
X998481Y-417365D01*
X999619Y-408716D01*
X1000000Y-400000D01*
X1000000Y400000D01*
X1000074Y408299D01*
X999425Y416573D01*
X998057Y424758D01*
X995981Y432793D01*
X993212Y440617D01*
X989772Y448170D01*
X985687Y455394D01*
X980988Y462235D01*
X975711Y468640D01*
X969895Y474560D01*
X963586Y479952D01*
X956830Y484772D01*
X949680Y488986D01*
X942190Y492561D01*
X934417Y495469D01*
X926421Y497689D01*
X918261Y499203D01*
X910000Y500000D01*
X-890000Y500000D01*
X-899170Y500036D01*
X-908309Y499273D01*
X-917346Y497716D01*
X-926214Y495378D01*
X-934843Y492275D01*
X-943170Y488433D01*
X-951130Y483879D01*
X-958662Y478649D01*
X-965711Y472782D01*
X-972221Y466323D01*
X-978143Y459321D01*
X-983433Y451830D01*
X-988049Y443906D01*
X-991958Y435611D01*
X-995128Y427006D01*
X-997537Y418157D01*
X-999165Y409132D01*
X-1000000Y400000D01*
X-1000000Y-400000D01*
X-784000Y-90000D02*
X-783892Y-92484D01*
X-783567Y-94949D01*
X-783029Y-97376D01*
X-782281Y-99748D01*
X-781330Y-102045D01*
X-780182Y-104250D01*
X-778846Y-106347D01*
X-777332Y-108319D01*
X-775653Y-110153D01*
X-773819Y-111832D01*
X-771847Y-113346D01*
X-769750Y-114682D01*
X-767545Y-115830D01*
X-765248Y-116781D01*
X-762876Y-117529D01*
X-760449Y-118067D01*
X-757984Y-118392D01*
X-755500Y-118500D01*
X-751229Y-118686D01*
X-746991Y-119244D01*
X-742818Y-120170D01*
X-738741Y-121455D01*
X-734792Y-123091D01*
X-731000Y-125065D01*
X-727395Y-127362D01*
X-724003Y-129964D01*
X-720852Y-132852D01*
X-717964Y-136003D01*
X-715362Y-139395D01*
X-713065Y-143000D01*
X-711091Y-146792D01*
X-709455Y-150741D01*
X-708170Y-154818D01*
X-707244Y-158991D01*
X-706686Y-163229D01*
X-706500Y-167500D01*
X-706392Y-169984D01*
X-706067Y-172449D01*
X-705529Y-174876D01*
X-704781Y-177248D01*
X-703830Y-179545D01*
X-702682Y-181750D01*
X-701346Y-183847D01*
X-699832Y-185819D01*
X-698153Y-187653D01*
X-696319Y-189332D01*
X-694347Y-190846D01*
X-692250Y-192182D01*
X-690045Y-193330D01*
X-687748Y-194281D01*
X-685376Y-195029D01*
X-682949Y-195567D01*
X-680484Y-195892D01*
X-678000Y-196000D01*
X678000Y-196000D01*
X680484Y-195892D01*
X682949Y-195567D01*
X685376Y-195029D01*
X687748Y-194281D01*
X690045Y-193330D01*
X692250Y-192182D01*
X694347Y-190846D01*
X696319Y-189332D01*
X698153Y-187653D01*
X699832Y-185819D01*
X701346Y-183847D01*
X702682Y-181750D01*
X703830Y-179545D01*
X704781Y-177248D01*
X705529Y-174876D01*
X706067Y-172449D01*
X706392Y-169984D01*
X706500Y-167500D01*
X706686Y-163229D01*
X707244Y-158991D01*
X708170Y-154818D01*
X709455Y-150741D01*
X711091Y-146792D01*
X713065Y-143000D01*
X715362Y-139395D01*
X717964Y-136003D01*
X720852Y-132852D01*
X724003Y-129964D01*
X727395Y-127362D01*
X731000Y-125065D01*
X734792Y-123091D01*
X738741Y-121455D01*
X742818Y-120170D01*
X746991Y-119244D01*
X751229Y-118686D01*
X755500Y-118500D01*
X757984Y-118392D01*
X760449Y-118067D01*
X762876Y-117529D01*
X765248Y-116781D01*
X767545Y-115830D01*
X769750Y-114682D01*
X771847Y-113346D01*
X773819Y-111832D01*
X775653Y-110153D01*
X777332Y-108319D01*
X778846Y-106347D01*
X780182Y-104250D01*
X781330Y-102045D01*
X782281Y-99748D01*
X783029Y-97376D01*
X783567Y-94949D01*
X783892Y-92484D01*
X784000Y-90000D01*
X784000Y90000D01*
X783892Y92484D01*
X783567Y94949D01*
X783029Y97376D01*
X782281Y99748D01*
X781330Y102045D01*
X780182Y104250D01*
X778846Y106347D01*
X777332Y108319D01*
X775653Y110153D01*
X773819Y111832D01*
X771847Y113346D01*
X769750Y114682D01*
X767545Y115830D01*
X765248Y116781D01*
X762876Y117529D01*
X760449Y118067D01*
X757984Y118392D01*
X755500Y118500D01*
X751229Y118686D01*
X746991Y119244D01*
X742818Y120170D01*
X738741Y121455D01*
X734792Y123091D01*
X731000Y125065D01*
X727395Y127362D01*
X724003Y129964D01*
X720852Y132852D01*
X717964Y136003D01*
X715362Y139395D01*
X713065Y143000D01*
X711091Y146792D01*
X709455Y150741D01*
X708170Y154818D01*
X707244Y158991D01*
X706686Y163229D01*
X706500Y167500D01*
X706392Y169984D01*
X706067Y172449D01*
X705529Y174876D01*
X704781Y177248D01*
X703830Y179545D01*
X702682Y181750D01*
X701346Y183847D01*
X699832Y185819D01*
X698153Y187653D01*
X696319Y189332D01*
X694347Y190846D01*
X692250Y192182D01*
X690045Y193330D01*
X687748Y194281D01*
X685376Y195029D01*
X682949Y195567D01*
X680484Y195892D01*
X678000Y196000D01*
X-678000Y196000D01*
X-680484Y195892D01*
X-682949Y195567D01*
X-685376Y195029D01*
X-687748Y194281D01*
X-690045Y193330D01*
X-692250Y192182D01*
X-694347Y190846D01*
X-696319Y189332D01*
X-698153Y187653D01*
X-699832Y185819D01*
X-701346Y183847D01*
X-702682Y181750D01*
X-703830Y179545D01*
X-704781Y177248D01*
X-705529Y174876D01*
X-706067Y172449D01*
X-706392Y169984D01*
X-706500Y167500D01*
X-706686Y163229D01*
X-707244Y158991D01*
X-708170Y154818D01*
X-709455Y150741D01*
X-711091Y146792D01*
X-713065Y143000D01*
X-715362Y139395D01*
X-717964Y136003D01*
X-720852Y132852D01*
X-724003Y129964D01*
X-727395Y127362D01*
X-731000Y125065D01*
X-734792Y123091D01*
X-738741Y121455D01*
X-742818Y120170D01*
X-746991Y119244D01*
X-751229Y118686D01*
X-755500Y118500D01*
X-757984Y118392D01*
X-760449Y118067D01*
X-762876Y117529D01*
X-765248Y116781D01*
X-767545Y115830D01*
X-769750Y114682D01*
X-771847Y113346D01*
X-773819Y111832D01*
X-775653Y110153D01*
X-777332Y108319D01*
X-778846Y106347D01*
X-780182Y104250D01*
X-781330Y102045D01*
X-782281Y99748D01*
X-783029Y97376D01*
X-783567Y94949D01*
X-783892Y92484D01*
X-784000Y90000D01*
X-784000Y-90000D01*
X-870000Y399264D02*
X-870072Y397792D01*
X-870217Y396327D01*
X-870433Y394870D01*
X-870720Y393425D01*
X-871078Y391996D01*
X-871506Y390587D01*
X-872002Y389200D01*
X-872565Y387839D01*
X-873195Y386508D01*
X-873890Y385209D01*
X-874647Y383945D01*
X-875465Y382721D01*
X-876342Y381538D01*
X-877277Y380399D01*
X-878266Y379308D01*
X-879308Y378266D01*
X-880399Y377277D01*
X-881538Y376342D01*
X-882721Y375465D01*
X-883945Y374647D01*
X-885209Y373890D01*
X-886508Y373195D01*
X-887839Y372565D01*
X-889200Y372002D01*
X-890587Y371506D01*
X-891996Y371078D01*
X-893425Y370720D01*
X-894870Y370433D01*
X-896327Y370217D01*
X-897792Y370072D01*
X-899264Y370000D01*
X-900736Y370000D01*
X-902208Y370072D01*
X-903673Y370217D01*
X-905130Y370433D01*
X-906575Y370720D01*
X-908004Y371078D01*
X-909413Y371506D01*
X-910800Y372002D01*
X-912161Y372565D01*
X-913492Y373195D01*
X-914791Y373890D01*
X-916055Y374647D01*
X-917279Y375465D01*
X-918463Y376342D01*
X-919601Y377277D01*
X-920692Y378266D01*
X-921734Y379308D01*
X-922723Y380399D01*
X-923658Y381538D01*
X-924535Y382721D01*
X-925353Y383945D01*
X-926110Y385209D01*
X-926805Y386508D01*
X-927435Y387839D01*
X-927998Y389200D01*
X-928494Y390587D01*
X-928922Y391996D01*
X-929280Y393425D01*
X-929567Y394870D01*
X-929783Y396327D01*
X-929928Y397792D01*
X-930000Y399264D01*
X-930000Y400736D01*
X-929928Y402208D01*
X-929783Y403673D01*
X-929567Y405130D01*
X-929280Y406575D01*
X-928922Y408004D01*
X-928494Y409413D01*
X-927998Y410800D01*
X-927435Y412161D01*
X-926805Y413492D01*
X-926110Y414791D01*
X-925353Y416055D01*
X-924535Y417279D01*
X-923658Y418463D01*
X-922723Y419601D01*
X-921734Y420692D01*
X-920692Y421734D01*
X-919601Y422723D01*
X-918463Y423658D01*
X-917279Y424535D01*
X-916055Y425353D01*
X-914791Y426110D01*
X-913492Y426805D01*
X-912161Y427435D01*
X-910800Y427998D01*
X-909413Y428494D01*
X-908004Y428922D01*
X-906575Y429280D01*
X-905130Y429567D01*
X-903673Y429783D01*
X-902208Y429928D01*
X-900736Y430000D01*
X-899264Y430000D01*
X-897792Y429928D01*
X-896327Y429783D01*
X-894870Y429567D01*
X-893425Y429280D01*
X-891996Y428922D01*
X-890587Y428494D01*
X-889200Y427998D01*
X-887839Y427435D01*
X-886508Y426805D01*
X-885209Y426110D01*
X-883945Y425353D01*
X-882721Y424535D01*
X-881538Y423658D01*
X-880399Y422723D01*
X-879308Y421734D01*
X-878266Y420692D01*
X-877277Y419601D01*
X-876342Y418463D01*
X-875465Y417279D01*
X-874647Y416055D01*
X-873890Y414791D01*
X-873195Y413492D01*
X-872565Y412161D01*
X-872002Y410800D01*
X-871506Y409413D01*
X-871078Y408004D01*
X-870720Y406575D01*
X-870433Y405130D01*
X-870217Y403673D01*
X-870072Y402208D01*
X-870000Y400736D01*
X-870000Y399264D01*
X930000Y399264D02*
X929928Y397792D01*
X929783Y396327D01*
X929567Y394870D01*
X929280Y393425D01*
X928922Y391996D01*
X928494Y390587D01*
X927998Y389200D01*
X927435Y387839D01*
X926805Y386508D01*
X926110Y385209D01*
X925353Y383945D01*
X924535Y382721D01*
X923658Y381538D01*
X922723Y380399D01*
X921734Y379308D01*
X920692Y378266D01*
X919601Y377277D01*
X918463Y376342D01*
X917279Y375465D01*
X916055Y374647D01*
X914791Y373890D01*
X913492Y373195D01*
X912161Y372565D01*
X910800Y372002D01*
X909413Y371506D01*
X908004Y371078D01*
X906575Y370720D01*
X905130Y370433D01*
X903673Y370217D01*
X902208Y370072D01*
X900736Y370000D01*
X899264Y370000D01*
X897792Y370072D01*
X896327Y370217D01*
X894870Y370433D01*
X893425Y370720D01*
X891996Y371078D01*
X890587Y371506D01*
X889200Y372002D01*
X887839Y372565D01*
X886508Y373195D01*
X885209Y373890D01*
X883945Y374647D01*
X882721Y375465D01*
X881538Y376342D01*
X880399Y377277D01*
X879308Y378266D01*
X878266Y379308D01*
X877277Y380399D01*
X876342Y381538D01*
X875465Y382721D01*
X874647Y383945D01*
X873890Y385209D01*
X873195Y386508D01*
X872565Y387839D01*
X872002Y389200D01*
X871506Y390587D01*
X871078Y391996D01*
X870720Y393425D01*
X870433Y394870D01*
X870217Y396327D01*
X870072Y397792D01*
X870000Y399264D01*
X870000Y400736D01*
X870072Y402208D01*
X870217Y403673D01*
X870433Y405130D01*
X870720Y406575D01*
X871078Y408004D01*
X871506Y409413D01*
X872002Y410800D01*
X872565Y412161D01*
X873195Y413492D01*
X873890Y414791D01*
X874647Y416055D01*
X875465Y417279D01*
X876342Y418463D01*
X877277Y419601D01*
X878266Y420692D01*
X879308Y421734D01*
X880399Y422723D01*
X881538Y423658D01*
X882721Y424535D01*
X883945Y425353D01*
X885209Y426110D01*
X886508Y426805D01*
X887839Y427435D01*
X889200Y427998D01*
X890587Y428494D01*
X891996Y428922D01*
X893425Y429280D01*
X894870Y429567D01*
X896327Y429783D01*
X897792Y429928D01*
X899264Y430000D01*
X900736Y430000D01*
X902208Y429928D01*
X903673Y429783D01*
X905130Y429567D01*
X906575Y429280D01*
X908004Y428922D01*
X909413Y428494D01*
X910800Y427998D01*
X912161Y427435D01*
X913492Y426805D01*
X914791Y426110D01*
X916055Y425353D01*
X917279Y424535D01*
X918463Y423658D01*
X919601Y422723D01*
X920692Y421734D01*
X921734Y420692D01*
X922723Y419601D01*
X923658Y418463D01*
X924535Y417279D01*
X925353Y416055D01*
X926110Y414791D01*
X926805Y413492D01*
X927435Y412161D01*
X927998Y410800D01*
X928494Y409413D01*
X928922Y408004D01*
X929280Y406575D01*
X929567Y405130D01*
X929783Y403673D01*
X929928Y402208D01*
X930000Y400736D01*
X930000Y399264D01*
X930000Y-400736D02*
X929928Y-402208D01*
X929783Y-403673D01*
X929567Y-405130D01*
X929280Y-406575D01*
X928922Y-408004D01*
X928494Y-409413D01*
X927998Y-410800D01*
X927435Y-412161D01*
X926805Y-413492D01*
X926110Y-414791D01*
X925353Y-416055D01*
X924535Y-417279D01*
X923658Y-418463D01*
X922723Y-419601D01*
X921734Y-420692D01*
X920692Y-421734D01*
X919601Y-422723D01*
X918463Y-423658D01*
X917279Y-424535D01*
X916055Y-425353D01*
X914791Y-426110D01*
X913492Y-426805D01*
X912161Y-427435D01*
X910800Y-427998D01*
X909413Y-428494D01*
X908004Y-428922D01*
X906575Y-429280D01*
X905130Y-429567D01*
X903673Y-429783D01*
X902208Y-429928D01*
X900736Y-430000D01*
X899264Y-430000D01*
X897792Y-429928D01*
X896327Y-429783D01*
X894870Y-429567D01*
X893425Y-429280D01*
X891996Y-428922D01*
X890587Y-428494D01*
X889200Y-427998D01*
X887839Y-427435D01*
X886508Y-426805D01*
X885209Y-426110D01*
X883945Y-425353D01*
X882721Y-424535D01*
X881538Y-423658D01*
X880399Y-422723D01*
X879308Y-421734D01*
X878266Y-420692D01*
X877277Y-419601D01*
X876342Y-418463D01*
X875465Y-417279D01*
X874647Y-416055D01*
X873890Y-414791D01*
X873195Y-413492D01*
X872565Y-412161D01*
X872002Y-410800D01*
X871506Y-409413D01*
X871078Y-408004D01*
X870720Y-406575D01*
X870433Y-405130D01*
X870217Y-403673D01*
X870072Y-402208D01*
X870000Y-400736D01*
X870000Y-399264D01*
X870072Y-397792D01*
X870217Y-396327D01*
X870433Y-394870D01*
X870720Y-393425D01*
X871078Y-391996D01*
X871506Y-390587D01*
X872002Y-389200D01*
X872565Y-387839D01*
X873195Y-386508D01*
X873890Y-385209D01*
X874647Y-383945D01*
X875465Y-382721D01*
X876342Y-381538D01*
X877277Y-380399D01*
X878266Y-379308D01*
X879308Y-378266D01*
X880399Y-377277D01*
X881538Y-376342D01*
X882721Y-375465D01*
X883945Y-374647D01*
X885209Y-373890D01*
X886508Y-373195D01*
X887839Y-372565D01*
X889200Y-372002D01*
X890587Y-371506D01*
X891996Y-371078D01*
X893425Y-370720D01*
X894870Y-370433D01*
X896327Y-370217D01*
X897792Y-370072D01*
X899264Y-370000D01*
X900736Y-370000D01*
X902208Y-370072D01*
X903673Y-370217D01*
X905130Y-370433D01*
X906575Y-370720D01*
X908004Y-371078D01*
X909413Y-371506D01*
X910800Y-372002D01*
X912161Y-372565D01*
X913492Y-373195D01*
X914791Y-373890D01*
X916055Y-374647D01*
X917279Y-375465D01*
X918463Y-376342D01*
X919601Y-377277D01*
X920692Y-378266D01*
X921734Y-379308D01*
X922723Y-380399D01*
X923658Y-381538D01*
X924535Y-382721D01*
X925353Y-383945D01*
X926110Y-385209D01*
X926805Y-386508D01*
X927435Y-387839D01*
X927998Y-389200D01*
X928494Y-390587D01*
X928922Y-391996D01*
X929280Y-393425D01*
X929567Y-394870D01*
X929783Y-396327D01*
X929928Y-397792D01*
X930000Y-399264D01*
X930000Y-400736D01*
X-870000Y-400736D02*
X-870072Y-402208D01*
X-870217Y-403673D01*
X-870433Y-405130D01*
X-870720Y-406575D01*
X-871078Y-408004D01*
X-871506Y-409413D01*
X-872002Y-410800D01*
X-872565Y-412161D01*
X-873195Y-413492D01*
X-873890Y-414791D01*
X-874647Y-416055D01*
X-875465Y-417279D01*
X-876342Y-418463D01*
X-877277Y-419601D01*
X-878266Y-420692D01*
X-879308Y-421734D01*
X-880399Y-422723D01*
X-881538Y-423658D01*
X-882721Y-424535D01*
X-883945Y-425353D01*
X-885209Y-426110D01*
X-886508Y-426805D01*
X-887839Y-427435D01*
X-889200Y-427998D01*
X-890587Y-428494D01*
X-891996Y-428922D01*
X-893425Y-429280D01*
X-894870Y-429567D01*
X-896327Y-429783D01*
X-897792Y-429928D01*
X-899264Y-430000D01*
X-900736Y-430000D01*
X-902208Y-429928D01*
X-903673Y-429783D01*
X-905130Y-429567D01*
X-906575Y-429280D01*
X-908004Y-428922D01*
X-909413Y-428494D01*
X-910800Y-427998D01*
X-912161Y-427435D01*
X-913492Y-426805D01*
X-914791Y-426110D01*
X-916055Y-425353D01*
X-917279Y-424535D01*
X-918463Y-423658D01*
X-919601Y-422723D01*
X-920692Y-421734D01*
X-921734Y-420692D01*
X-922723Y-419601D01*
X-923658Y-418463D01*
X-924535Y-417279D01*
X-925353Y-416055D01*
X-926110Y-414791D01*
X-926805Y-413492D01*
X-927435Y-412161D01*
X-927998Y-410800D01*
X-928494Y-409413D01*
X-928922Y-408004D01*
X-929280Y-406575D01*
X-929567Y-405130D01*
X-929783Y-403673D01*
X-929928Y-402208D01*
X-930000Y-400736D01*
X-930000Y-399264D01*
X-929928Y-397792D01*
X-929783Y-396327D01*
X-929567Y-394870D01*
X-929280Y-393425D01*
X-928922Y-391996D01*
X-928494Y-390587D01*
X-927998Y-389200D01*
X-927435Y-387839D01*
X-926805Y-386508D01*
X-926110Y-385209D01*
X-925353Y-383945D01*
X-924535Y-382721D01*
X-923658Y-381538D01*
X-922723Y-380399D01*
X-921734Y-379308D01*
X-920692Y-378266D01*
X-919601Y-377277D01*
X-918463Y-376342D01*
X-917279Y-375465D01*
X-916055Y-374647D01*
X-914791Y-373890D01*
X-913492Y-373195D01*
X-912161Y-372565D01*
X-910800Y-372002D01*
X-909413Y-371506D01*
X-908004Y-371078D01*
X-906575Y-370720D01*
X-905130Y-370433D01*
X-903673Y-370217D01*
X-902208Y-370072D01*
X-900736Y-370000D01*
X-899264Y-370000D01*
X-897792Y-370072D01*
X-896327Y-370217D01*
X-894870Y-370433D01*
X-893425Y-370720D01*
X-891996Y-371078D01*
X-890587Y-371506D01*
X-889200Y-372002D01*
X-887839Y-372565D01*
X-886508Y-373195D01*
X-885209Y-373890D01*
X-883945Y-374647D01*
X-882721Y-375465D01*
X-881538Y-376342D01*
X-880399Y-377277D01*
X-879308Y-378266D01*
X-878266Y-379308D01*
X-877277Y-380399D01*
X-876342Y-381538D01*
X-875465Y-382721D01*
X-874647Y-383945D01*
X-873890Y-385209D01*
X-873195Y-386508D01*
X-872565Y-387839D01*
X-872002Y-389200D01*
X-871506Y-390587D01*
X-871078Y-391996D01*
X-870720Y-393425D01*
X-870433Y-394870D01*
X-870217Y-396327D01*
X-870072Y-397792D01*
X-870000Y-399264D01*
X-870000Y-400736D01*
M02*
