0
SECTION
2
HEADER
9
$ANGDIR
70
1
9
$AUNITS
70
0
9
$PROJECTNAME
1
CORS_Rear_Panel
9
$TDCREATE
40
2459943.82745575
9
$INSUNITS
70
4
0
ENDSEC
0
SECTION
2
ENTITIES
0
POLYLINE
66
1
8
outline
10
0.0
20
0.0
30
0.0
70
1
0
VERTEX
8
0
10
-78.3
20
3.5
30
0
0
VERTEX
8
0
10
-78.289534375
20
3.2603218750000003
30
0
0
VERTEX
8
0
10
-78.258221875
20
3.0224687500000003
30
0
0
VERTEX
8
0
10
-78.206296875
20
2.788246875
30
0
0
VERTEX
8
0
10
-78.13415625
20
2.5594437500000002
30
0
0
VERTEX
8
0
10
-78.042346875
20
2.3378
30
0
0
VERTEX
8
0
10
-77.93156875
20
2.125
30
0
0
VERTEX
8
0
10
-77.80266875000001
20
1.922665625
30
0
0
VERTEX
8
0
10
-77.656621875
20
1.732334375
30
0
0
VERTEX
8
0
10
-77.49454375
20
1.55545625
30
0
0
VERTEX
8
0
10
-77.317665625
20
1.3933781250000001
30
0
0
VERTEX
8
0
10
-77.127334375
20
1.24733125
30
0
0
VERTEX
8
0
10
-76.925
20
1.11843125
30
0
0
VERTEX
8
0
10
-76.71220000000001
20
1.007653125
30
0
0
VERTEX
8
0
10
-76.49055625
20
0.9158437500000001
30
0
0
VERTEX
8
0
10
-76.261753125
20
0.843703125
30
0
0
VERTEX
8
0
10
-76.02753125000001
20
0.791778125
30
0
0
VERTEX
8
0
10
-75.78967812500001
20
0.760465625
30
0
0
VERTEX
8
0
10
-75.55
20
0.75
30
0
0
VERTEX
8
0
10
-75.114221875
20
0.730975
30
0
0
VERTEX
8
0
10
-74.681759375
20
0.6740375000000001
30
0
0
VERTEX
8
0
10
-74.25590625000001
20
0.579628125
30
0
0
VERTEX
8
0
10
-73.8399
20
0.44846250000000004
30
0
0
VERTEX
8
0
10
-73.436909375
20
0.2815375
30
0
0
VERTEX
8
0
10
-73.05
20
0.08012812500000001
30
0
0
VERTEX
8
0
10
-72.68211875
20
-0.15424062500000002
30
0
0
VERTEX
8
0
10
-72.3360625
20
-0.419778125
30
0
0
VERTEX
8
0
10
-72.014465625
20
-0.714465625
30
0
0
VERTEX
8
0
10
-71.719778125
20
-1.0360625
30
0
0
VERTEX
8
0
10
-71.454240625
20
-1.38211875
30
0
0
VERTEX
8
0
10
-71.21987187500001
20
-1.75
30
0
0
VERTEX
8
0
10
-71.0184625
20
-2.136909375
30
0
0
VERTEX
8
0
10
-70.8515375
20
-2.5399000000000003
30
0
0
VERTEX
8
0
10
-70.720371875
20
-2.95590625
30
0
0
VERTEX
8
0
10
-70.6259625
20
-3.381759375
30
0
0
VERTEX
8
0
10
-70.569025
20
-3.8142218750000003
30
0
0
VERTEX
8
0
10
-70.55
20
-4.25
30
0
0
VERTEX
8
0
10
-70.539534375
20
-4.489678125
30
0
0
VERTEX
8
0
10
-70.508221875
20
-4.72753125
30
0
0
VERTEX
8
0
10
-70.456296875
20
-4.961753125
30
0
0
VERTEX
8
0
10
-70.38415625
20
-5.19055625
30
0
0
VERTEX
8
0
10
-70.292346875
20
-5.4122
30
0
0
VERTEX
8
0
10
-70.18156875
20
-5.625
30
0
0
VERTEX
8
0
10
-70.05266875000001
20
-5.827334375
30
0
0
VERTEX
8
0
10
-69.906621875
20
-6.017665625
30
0
0
VERTEX
8
0
10
-69.74454375
20
-6.19454375
30
0
0
VERTEX
8
0
10
-69.567665625
20
-6.356621875
30
0
0
VERTEX
8
0
10
-69.377334375
20
-6.502668750000001
30
0
0
VERTEX
8
0
10
-69.175
20
-6.6315687500000005
30
0
0
VERTEX
8
0
10
-68.96220000000001
20
-6.742346875
30
0
0
VERTEX
8
0
10
-68.74055625
20
-6.83415625
30
0
0
VERTEX
8
0
10
-68.511753125
20
-6.906296875000001
30
0
0
VERTEX
8
0
10
-68.27753125000001
20
-6.9582218750000004
30
0
0
VERTEX
8
0
10
-68.03967812500001
20
-6.989534375000001
30
0
0
VERTEX
8
0
10
-67.8
20
-7
30
0
0
VERTEX
8
0
10
67.8
20
-7
30
0
0
VERTEX
8
0
10
68.03967812500001
20
-6.989534375000001
30
0
0
VERTEX
8
0
10
68.27753125000001
20
-6.9582218750000004
30
0
0
VERTEX
8
0
10
68.511753125
20
-6.906296875000001
30
0
0
VERTEX
8
0
10
68.74055625
20
-6.83415625
30
0
0
VERTEX
8
0
10
68.96220000000001
20
-6.742346875
30
0
0
VERTEX
8
0
10
69.175
20
-6.6315687500000005
30
0
0
VERTEX
8
0
10
69.377334375
20
-6.502668750000001
30
0
0
VERTEX
8
0
10
69.567665625
20
-6.356621875
30
0
0
VERTEX
8
0
10
69.74454375
20
-6.19454375
30
0
0
VERTEX
8
0
10
69.906621875
20
-6.017665625
30
0
0
VERTEX
8
0
10
70.05266875000001
20
-5.827334375
30
0
0
VERTEX
8
0
10
70.18156875
20
-5.625
30
0
0
VERTEX
8
0
10
70.292346875
20
-5.4122
30
0
0
VERTEX
8
0
10
70.38415625
20
-5.19055625
30
0
0
VERTEX
8
0
10
70.456296875
20
-4.961753125
30
0
0
VERTEX
8
0
10
70.508221875
20
-4.72753125
30
0
0
VERTEX
8
0
10
70.539534375
20
-4.489678125
30
0
0
VERTEX
8
0
10
70.55
20
-4.25
30
0
0
VERTEX
8
0
10
70.569025
20
-3.8142218750000003
30
0
0
VERTEX
8
0
10
70.6259625
20
-3.381759375
30
0
0
VERTEX
8
0
10
70.720371875
20
-2.95590625
30
0
0
VERTEX
8
0
10
70.8515375
20
-2.5399000000000003
30
0
0
VERTEX
8
0
10
71.0184625
20
-2.136909375
30
0
0
VERTEX
8
0
10
71.21987187500001
20
-1.75
30
0
0
VERTEX
8
0
10
71.454240625
20
-1.38211875
30
0
0
VERTEX
8
0
10
71.719778125
20
-1.0360625
30
0
0
VERTEX
8
0
10
72.014465625
20
-0.714465625
30
0
0
VERTEX
8
0
10
72.3360625
20
-0.419778125
30
0
0
VERTEX
8
0
10
72.68211875
20
-0.15424062500000002
30
0
0
VERTEX
8
0
10
73.05
20
0.08012812500000001
30
0
0
VERTEX
8
0
10
73.436909375
20
0.2815375
30
0
0
VERTEX
8
0
10
73.8399
20
0.44846250000000004
30
0
0
VERTEX
8
0
10
74.25590625000001
20
0.579628125
30
0
0
VERTEX
8
0
10
74.681759375
20
0.6740375000000001
30
0
0
VERTEX
8
0
10
75.114221875
20
0.730975
30
0
0
VERTEX
8
0
10
75.55
20
0.75
30
0
0
VERTEX
8
0
10
75.78967812500001
20
0.760465625
30
0
0
VERTEX
8
0
10
76.02753125000001
20
0.791778125
30
0
0
VERTEX
8
0
10
76.261753125
20
0.843703125
30
0
0
VERTEX
8
0
10
76.49055625
20
0.9158437500000001
30
0
0
VERTEX
8
0
10
76.71220000000001
20
1.007653125
30
0
0
VERTEX
8
0
10
76.925
20
1.11843125
30
0
0
VERTEX
8
0
10
77.127334375
20
1.24733125
30
0
0
VERTEX
8
0
10
77.317665625
20
1.3933781250000001
30
0
0
VERTEX
8
0
10
77.49454375
20
1.55545625
30
0
0
VERTEX
8
0
10
77.656621875
20
1.732334375
30
0
0
VERTEX
8
0
10
77.80266875000001
20
1.922665625
30
0
0
VERTEX
8
0
10
77.93156875
20
2.125
30
0
0
VERTEX
8
0
10
78.042346875
20
2.3378
30
0
0
VERTEX
8
0
10
78.13415625
20
2.5594437500000002
30
0
0
VERTEX
8
0
10
78.206296875
20
2.788246875
30
0
0
VERTEX
8
0
10
78.258221875
20
3.0224687500000003
30
0
0
VERTEX
8
0
10
78.289534375
20
3.2603218750000003
30
0
0
VERTEX
8
0
10
78.3
20
3.5
30
0
0
VERTEX
8
0
10
78.3
20
21.5
30
0
0
VERTEX
8
0
10
78.289534375
20
21.739678125
30
0
0
VERTEX
8
0
10
78.258221875
20
21.977531250000002
30
0
0
VERTEX
8
0
10
78.206296875
20
22.211753125
30
0
0
VERTEX
8
0
10
78.13415625
20
22.44055625
30
0
0
VERTEX
8
0
10
78.042346875
20
22.662200000000002
30
0
0
VERTEX
8
0
10
77.93156875
20
22.875
30
0
0
VERTEX
8
0
10
77.80266875000001
20
23.077334375
30
0
0
VERTEX
8
0
10
77.656621875
20
23.267665625
30
0
0
VERTEX
8
0
10
77.49454375
20
23.44454375
30
0
0
VERTEX
8
0
10
77.317665625
20
23.606621875000002
30
0
0
VERTEX
8
0
10
77.127334375
20
23.75266875
30
0
0
VERTEX
8
0
10
76.925
20
23.88156875
30
0
0
VERTEX
8
0
10
76.71220000000001
20
23.992346875000003
30
0
0
VERTEX
8
0
10
76.49055625
20
24.08415625
30
0
0
VERTEX
8
0
10
76.261753125
20
24.156296875000002
30
0
0
VERTEX
8
0
10
76.02753125000001
20
24.208221875
30
0
0
VERTEX
8
0
10
75.78967812500001
20
24.239534375
30
0
0
VERTEX
8
0
10
75.55
20
24.25
30
0
0
VERTEX
8
0
10
75.114221875
20
24.269025000000003
30
0
0
VERTEX
8
0
10
74.681759375
20
24.325962500000003
30
0
0
VERTEX
8
0
10
74.25590625000001
20
24.420371875
30
0
0
VERTEX
8
0
10
73.8399
20
24.551537500000002
30
0
0
VERTEX
8
0
10
73.436909375
20
24.7184625
30
0
0
VERTEX
8
0
10
73.05
20
24.919871875000002
30
0
0
VERTEX
8
0
10
72.68211875
20
25.154240625
30
0
0
VERTEX
8
0
10
72.3360625
20
25.419778125
30
0
0
VERTEX
8
0
10
72.014465625
20
25.714465625000003
30
0
0
VERTEX
8
0
10
71.719778125
20
26.0360625
30
0
0
VERTEX
8
0
10
71.454240625
20
26.38211875
30
0
0
VERTEX
8
0
10
71.21987187500001
20
26.75
30
0
0
VERTEX
8
0
10
71.0184625
20
27.136909375000002
30
0
0
VERTEX
8
0
10
70.8515375
20
27.539900000000003
30
0
0
VERTEX
8
0
10
70.720371875
20
27.95590625
30
0
0
VERTEX
8
0
10
70.6259625
20
28.381759375
30
0
0
VERTEX
8
0
10
70.569025
20
28.814221875
30
0
0
VERTEX
8
0
10
70.55
20
29.25
30
0
0
VERTEX
8
0
10
70.539534375
20
29.489678125
30
0
0
VERTEX
8
0
10
70.508221875
20
29.727531250000002
30
0
0
VERTEX
8
0
10
70.456296875
20
29.961753125
30
0
0
VERTEX
8
0
10
70.38415625
20
30.19055625
30
0
0
VERTEX
8
0
10
70.292346875
20
30.412200000000002
30
0
0
VERTEX
8
0
10
70.18156875
20
30.625
30
0
0
VERTEX
8
0
10
70.05266875000001
20
30.827334375000003
30
0
0
VERTEX
8
0
10
69.906621875
20
31.017665625000003
30
0
0
VERTEX
8
0
10
69.74454375
20
31.19454375
30
0
0
VERTEX
8
0
10
69.567665625
20
31.356621875000002
30
0
0
VERTEX
8
0
10
69.377334375
20
31.50266875
30
0
0
VERTEX
8
0
10
69.175
20
31.631568750000003
30
0
0
VERTEX
8
0
10
68.96220000000001
20
31.742346875000003
30
0
0
VERTEX
8
0
10
68.74055625
20
31.834156250000003
30
0
0
VERTEX
8
0
10
68.511753125
20
31.906296875000002
30
0
0
VERTEX
8
0
10
68.27753125000001
20
31.958221875000003
30
0
0
VERTEX
8
0
10
68.03967812500001
20
31.989534375
30
0
0
VERTEX
8
0
10
67.8
20
32
30
0
0
VERTEX
8
0
10
-67.8
20
32
30
0
0
VERTEX
8
0
10
-68.03967812500001
20
31.989534375
30
0
0
VERTEX
8
0
10
-68.27753125000001
20
31.958221875000003
30
0
0
VERTEX
8
0
10
-68.511753125
20
31.906296875000002
30
0
0
VERTEX
8
0
10
-68.74055625
20
31.834156250000003
30
0
0
VERTEX
8
0
10
-68.96220000000001
20
31.742346875000003
30
0
0
VERTEX
8
0
10
-69.175
20
31.631568750000003
30
0
0
VERTEX
8
0
10
-69.377334375
20
31.50266875
30
0
0
VERTEX
8
0
10
-69.567665625
20
31.356621875000002
30
0
0
VERTEX
8
0
10
-69.74454375
20
31.19454375
30
0
0
VERTEX
8
0
10
-69.906621875
20
31.017665625000003
30
0
0
VERTEX
8
0
10
-70.05266875000001
20
30.827334375000003
30
0
0
VERTEX
8
0
10
-70.18156875
20
30.625
30
0
0
VERTEX
8
0
10
-70.292346875
20
30.412200000000002
30
0
0
VERTEX
8
0
10
-70.38415625
20
30.19055625
30
0
0
VERTEX
8
0
10
-70.456296875
20
29.961753125
30
0
0
VERTEX
8
0
10
-70.508221875
20
29.727531250000002
30
0
0
VERTEX
8
0
10
-70.539534375
20
29.489678125
30
0
0
VERTEX
8
0
10
-70.55
20
29.25
30
0
0
VERTEX
8
0
10
-70.569025
20
28.814221875
30
0
0
VERTEX
8
0
10
-70.6259625
20
28.381759375
30
0
0
VERTEX
8
0
10
-70.720371875
20
27.95590625
30
0
0
VERTEX
8
0
10
-70.8515375
20
27.539900000000003
30
0
0
VERTEX
8
0
10
-71.0184625
20
27.136909375000002
30
0
0
VERTEX
8
0
10
-71.21987187500001
20
26.75
30
0
0
VERTEX
8
0
10
-71.454240625
20
26.38211875
30
0
0
VERTEX
8
0
10
-71.719778125
20
26.0360625
30
0
0
VERTEX
8
0
10
-72.014465625
20
25.714465625000003
30
0
0
VERTEX
8
0
10
-72.3360625
20
25.419778125
30
0
0
VERTEX
8
0
10
-72.68211875
20
25.154240625
30
0
0
VERTEX
8
0
10
-73.05
20
24.919871875000002
30
0
0
VERTEX
8
0
10
-73.436909375
20
24.7184625
30
0
0
VERTEX
8
0
10
-73.8399
20
24.551537500000002
30
0
0
VERTEX
8
0
10
-74.25590625000001
20
24.420371875
30
0
0
VERTEX
8
0
10
-74.681759375
20
24.325962500000003
30
0
0
VERTEX
8
0
10
-75.114221875
20
24.269025000000003
30
0
0
VERTEX
8
0
10
-75.55
20
24.25
30
0
0
VERTEX
8
0
10
-75.78967812500001
20
24.239534375
30
0
0
VERTEX
8
0
10
-76.02753125000001
20
24.208221875
30
0
0
VERTEX
8
0
10
-76.261753125
20
24.156296875000002
30
0
0
VERTEX
8
0
10
-76.49055625
20
24.08415625
30
0
0
VERTEX
8
0
10
-76.71220000000001
20
23.992346875000003
30
0
0
VERTEX
8
0
10
-76.925
20
23.88156875
30
0
0
VERTEX
8
0
10
-77.127334375
20
23.75266875
30
0
0
VERTEX
8
0
10
-77.317665625
20
23.606621875000002
30
0
0
VERTEX
8
0
10
-77.49454375
20
23.44454375
30
0
0
VERTEX
8
0
10
-77.656621875
20
23.267665625
30
0
0
VERTEX
8
0
10
-77.80266875000001
20
23.077334375
30
0
0
VERTEX
8
0
10
-77.93156875
20
22.875
30
0
0
VERTEX
8
0
10
-78.042346875
20
22.662200000000002
30
0
0
VERTEX
8
0
10
-78.13415625
20
22.44055625
30
0
0
VERTEX
8
0
10
-78.206296875
20
22.211753125
30
0
0
VERTEX
8
0
10
-78.258221875
20
21.977531250000002
30
0
0
VERTEX
8
0
10
-78.289534375
20
21.739678125
30
0
0
VERTEX
8
0
10
-78.3
20
21.5
30
0
0
VERTEX
8
0
10
-78.3
20
3.5
30
0
0
SEQEND
0
POLYLINE
66
1
8
holes
10
0.0
20
0.0
30
0.0
70
1
0
VERTEX
8
0
10
48.02
20
0.5
30
0
0
VERTEX
8
0
10
48.023809375
20
0.412840625
30
0
0
VERTEX
8
0
10
48.035196875000004
20
0.32635000000000003
30
0
0
VERTEX
8
0
10
48.054078125000004
20
0.24117812500000002
30
0
0
VERTEX
8
0
10
48.080309375
20
0.157978125
30
0
0
VERTEX
8
0
10
48.11369375
20
0.07738125
30
0
0
VERTEX
8
0
10
48.153978125
20
-3.125e-6
30
0
0
VERTEX
8
0
10
48.20085
20
-0.07357812500000001
30
0
0
VERTEX
8
0
10
48.253959375
20
-0.1427875
30
0
0
VERTEX
8
0
10
48.312896875
20
-0.20710625000000002
30
0
0
VERTEX
8
0
10
48.377215625000005
20
-0.26604375
30
0
0
VERTEX
8
0
10
48.446425000000005
20
-0.31915312500000004
30
0
0
VERTEX
8
0
10
48.520003125
20
-0.36602500000000004
30
0
0
VERTEX
8
0
10
48.597384375000004
20
-0.40630937500000003
30
0
0
VERTEX
8
0
10
48.67798125
20
-0.43969375
30
0
0
VERTEX
8
0
10
48.76118125
20
-0.46592500000000003
30
0
0
VERTEX
8
0
10
48.846353125
20
-0.48480625000000005
30
0
0
VERTEX
8
0
10
48.93284375
20
-0.49619375000000004
30
0
0
VERTEX
8
0
10
49.02
20
-0.5
30
0
0
VERTEX
8
0
10
65.28
20
-0.5
30
0
0
VERTEX
8
0
10
65.367159375
20
-0.49619687500000004
30
0
0
VERTEX
8
0
10
65.45365
20
-0.48480937500000004
30
0
0
VERTEX
8
0
10
65.538821875
20
-0.465928125
30
0
0
VERTEX
8
0
10
65.622021875
20
-0.43969375
30
0
0
VERTEX
8
0
10
65.702621875
20
-0.40630937500000003
30
0
0
VERTEX
8
0
10
65.78000312500001
20
-0.36602812500000004
30
0
0
VERTEX
8
0
10
65.853578125
20
-0.31915312500000004
30
0
0
VERTEX
8
0
10
65.922790625
20
-0.266046875
30
0
0
VERTEX
8
0
10
65.987109375
20
-0.20710625000000002
30
0
0
VERTEX
8
0
10
66.046046875
20
-0.1427875
30
0
0
VERTEX
8
0
10
66.099153125
20
-0.07357812500000001
30
0
0
VERTEX
8
0
10
66.146028125
20
0
30
0
0
VERTEX
8
0
10
66.18630937500001
20
0.07738125
30
0
0
VERTEX
8
0
10
66.21969375
20
0.157978125
30
0
0
VERTEX
8
0
10
66.245928125
20
0.24118125
30
0
0
VERTEX
8
0
10
66.264809375
20
0.326353125
30
0
0
VERTEX
8
0
10
66.27619375
20
0.41284375
30
0
0
VERTEX
8
0
10
66.28
20
0.5
30
0
0
VERTEX
8
0
10
66.28
20
13.84
30
0
0
VERTEX
8
0
10
66.27619375
20
13.927156250000001
30
0
0
VERTEX
8
0
10
66.26480625
20
14.013646875000001
30
0
0
VERTEX
8
0
10
66.245925
20
14.098818750000001
30
0
0
VERTEX
8
0
10
66.21969375
20
14.182018750000001
30
0
0
VERTEX
8
0
10
66.18630625
20
14.262618750000001
30
0
0
VERTEX
8
0
10
66.14602500000001
20
14.34
30
0
0
VERTEX
8
0
10
66.099153125
20
14.413575
30
0
0
VERTEX
8
0
10
66.04604375000001
20
14.4827875
30
0
0
VERTEX
8
0
10
65.98710625
20
14.54710625
30
0
0
VERTEX
8
0
10
65.9227875
20
14.606043750000001
30
0
0
VERTEX
8
0
10
65.853575
20
14.659153125000001
30
0
0
VERTEX
8
0
10
65.78
20
14.706025
30
0
0
VERTEX
8
0
10
65.70261875
20
14.74630625
30
0
0
VERTEX
8
0
10
65.62201875000001
20
14.77969375
30
0
0
VERTEX
8
0
10
65.53881875
20
14.805925
30
0
0
VERTEX
8
0
10
65.453646875
20
14.82480625
30
0
0
VERTEX
8
0
10
65.36715625000001
20
14.836193750000001
30
0
0
VERTEX
8
0
10
65.28
20
14.84
30
0
0
VERTEX
8
0
10
49.02
20
14.84
30
0
0
VERTEX
8
0
10
48.93284375
20
14.836193750000001
30
0
0
VERTEX
8
0
10
48.846353125
20
14.82480625
30
0
0
VERTEX
8
0
10
48.76118125
20
14.805925
30
0
0
VERTEX
8
0
10
48.67798125
20
14.77969375
30
0
0
VERTEX
8
0
10
48.597381250000005
20
14.74630625
30
0
0
VERTEX
8
0
10
48.52
20
14.706025
30
0
0
VERTEX
8
0
10
48.446425000000005
20
14.659153125000001
30
0
0
VERTEX
8
0
10
48.3772125
20
14.606043750000001
30
0
0
VERTEX
8
0
10
48.31289375
20
14.54710625
30
0
0
VERTEX
8
0
10
48.25395625
20
14.4827875
30
0
0
VERTEX
8
0
10
48.200846875
20
14.413575
30
0
0
VERTEX
8
0
10
48.153975
20
14.34
30
0
0
VERTEX
8
0
10
48.11369375
20
14.262618750000001
30
0
0
VERTEX
8
0
10
48.08030625
20
14.182018750000001
30
0
0
VERTEX
8
0
10
48.054075000000005
20
14.098818750000001
30
0
0
VERTEX
8
0
10
48.035193750000005
20
14.013646875000001
30
0
0
VERTEX
8
0
10
48.02380625
20
13.927156250000001
30
0
0
VERTEX
8
0
10
48.02
20
13.84
30
0
0
VERTEX
8
0
10
48.02
20
0.5
30
0
0
SEQEND
0
POLYLINE
66
1
8
holes
10
0.0
20
0.0
30
0.0
70
1
0
VERTEX
8
0
10
-9.76
20
0.5
30
0
0
VERTEX
8
0
10
-9.756190625
20
0.412840625
30
0
0
VERTEX
8
0
10
-9.744803125
20
0.32635000000000003
30
0
0
VERTEX
8
0
10
-9.725921875000001
20
0.24117812500000002
30
0
0
VERTEX
8
0
10
-9.699690625
20
0.157978125
30
0
0
VERTEX
8
0
10
-9.66630625
20
0.07738125
30
0
0
VERTEX
8
0
10
-9.626021875000001
20
-3.125e-6
30
0
0
VERTEX
8
0
10
-9.57915
20
-0.07357812500000001
30
0
0
VERTEX
8
0
10
-9.526040625
20
-0.1427875
30
0
0
VERTEX
8
0
10
-9.467103125000001
20
-0.20710625000000002
30
0
0
VERTEX
8
0
10
-9.402784375000001
20
-0.26604375
30
0
0
VERTEX
8
0
10
-9.333575
20
-0.31915312500000004
30
0
0
VERTEX
8
0
10
-9.259996875
20
-0.36602500000000004
30
0
0
VERTEX
8
0
10
-9.182615625
20
-0.40630937500000003
30
0
0
VERTEX
8
0
10
-9.102018750000001
20
-0.43969375
30
0
0
VERTEX
8
0
10
-9.018818750000001
20
-0.46592500000000003
30
0
0
VERTEX
8
0
10
-8.933646875
20
-0.48480625000000005
30
0
0
VERTEX
8
0
10
-8.847156250000001
20
-0.49619375000000004
30
0
0
VERTEX
8
0
10
-8.76
20
-0.5
30
0
0
VERTEX
8
0
10
26.540000000000003
20
-0.5
30
0
0
VERTEX
8
0
10
26.627159375
20
-0.49619687500000004
30
0
0
VERTEX
8
0
10
26.71365
20
-0.48480937500000004
30
0
0
VERTEX
8
0
10
26.798821875
20
-0.465928125
30
0
0
VERTEX
8
0
10
26.882021875000003
20
-0.43969375
30
0
0
VERTEX
8
0
10
26.962621875
20
-0.40630937500000003
30
0
0
VERTEX
8
0
10
27.040003125000002
20
-0.36602812500000004
30
0
0
VERTEX
8
0
10
27.113578125
20
-0.31915312500000004
30
0
0
VERTEX
8
0
10
27.182790625000003
20
-0.266046875
30
0
0
VERTEX
8
0
10
27.247109375
20
-0.20710625000000002
30
0
0
VERTEX
8
0
10
27.306046875
20
-0.1427875
30
0
0
VERTEX
8
0
10
27.359153125000002
20
-0.07357812500000001
30
0
0
VERTEX
8
0
10
27.406028125000002
20
0
30
0
0
VERTEX
8
0
10
27.446309375000002
20
0.07738125
30
0
0
VERTEX
8
0
10
27.479693750000003
20
0.157978125
30
0
0
VERTEX
8
0
10
27.505928125
20
0.24118125
30
0
0
VERTEX
8
0
10
27.524809375
20
0.326353125
30
0
0
VERTEX
8
0
10
27.536193750000002
20
0.41284375
30
0
0
VERTEX
8
0
10
27.540000000000003
20
0.5
30
0
0
VERTEX
8
0
10
27.540000000000003
20
6.7
30
0
0
VERTEX
8
0
10
27.536193750000002
20
6.787156250000001
30
0
0
VERTEX
8
0
10
27.52480625
20
6.873646875
30
0
0
VERTEX
8
0
10
27.505925
20
6.958818750000001
30
0
0
VERTEX
8
0
10
27.479693750000003
20
7.04201875
30
0
0
VERTEX
8
0
10
27.446306250000003
20
7.12261875
30
0
0
VERTEX
8
0
10
27.406025
20
7.2
30
0
0
VERTEX
8
0
10
27.359153125000002
20
7.273575
30
0
0
VERTEX
8
0
10
27.30604375
20
7.3427875
30
0
0
VERTEX
8
0
10
27.24710625
20
7.40710625
30
0
0
VERTEX
8
0
10
27.1827875
20
7.466043750000001
30
0
0
VERTEX
8
0
10
27.113575
20
7.519153125000001
30
0
0
VERTEX
8
0
10
27.040000000000003
20
7.566025000000001
30
0
0
VERTEX
8
0
10
26.96261875
20
7.60630625
30
0
0
VERTEX
8
0
10
26.88201875
20
7.63969375
30
0
0
VERTEX
8
0
10
26.798818750000002
20
7.6659250000000005
30
0
0
VERTEX
8
0
10
26.713646875000002
20
7.68480625
30
0
0
VERTEX
8
0
10
26.627156250000002
20
7.69619375
30
0
0
VERTEX
8
0
10
26.540000000000003
20
7.7
30
0
0
VERTEX
8
0
10
-8.76
20
7.7
30
0
0
VERTEX
8
0
10
-8.847156250000001
20
7.69619375
30
0
0
VERTEX
8
0
10
-8.933646875
20
7.68480625
30
0
0
VERTEX
8
0
10
-9.018818750000001
20
7.6659250000000005
30
0
0
VERTEX
8
0
10
-9.102018750000001
20
7.63969375
30
0
0
VERTEX
8
0
10
-9.18261875
20
7.60630625
30
0
0
VERTEX
8
0
10
-9.26
20
7.566025000000001
30
0
0
VERTEX
8
0
10
-9.333575
20
7.519153125000001
30
0
0
VERTEX
8
0
10
-9.4027875
20
7.466043750000001
30
0
0
VERTEX
8
0
10
-9.46710625
20
7.40710625
30
0
0
VERTEX
8
0
10
-9.526043750000001
20
7.3427875
30
0
0
VERTEX
8
0
10
-9.579153125000001
20
7.273575
30
0
0
VERTEX
8
0
10
-9.626025
20
7.2
30
0
0
VERTEX
8
0
10
-9.66630625
20
7.12261875
30
0
0
VERTEX
8
0
10
-9.69969375
20
7.04201875
30
0
0
VERTEX
8
0
10
-9.725925
20
6.958818750000001
30
0
0
VERTEX
8
0
10
-9.74480625
20
6.873646875
30
0
0
VERTEX
8
0
10
-9.756193750000001
20
6.787156250000001
30
0
0
VERTEX
8
0
10
-9.76
20
6.7
30
0
0
VERTEX
8
0
10
-9.76
20
0.5
30
0
0
SEQEND
0
POLYLINE
66
1
8
holes
10
0.0
20
0.0
30
0.0
70
1
0
VERTEX
8
0
10
33.1
20
1
30
0
0
VERTEX
8
0
10
33.105709375
20
0.869265625
30
0
0
VERTEX
8
0
10
33.1227875
20
0.739528125
30
0
0
VERTEX
8
0
10
33.1511125
20
0.6117718750000001
30
0
0
VERTEX
8
0
10
33.1904625
20
0.48696875
30
0
0
VERTEX
8
0
10
33.2405375
20
0.366071875
30
0
0
VERTEX
8
0
10
33.300962500000004
20
0.25
30
0
0
VERTEX
8
0
10
33.371271875000005
20
0.139634375
30
0
0
VERTEX
8
0
10
33.450934375
20
0.03581875
30
0
0
VERTEX
8
0
10
33.539340625
20
-0.060659375
30
0
0
VERTEX
8
0
10
33.63581875
20
-0.149065625
30
0
0
VERTEX
8
0
10
33.739634375
20
-0.228728125
30
0
0
VERTEX
8
0
10
33.85
20
-0.2990375
30
0
0
VERTEX
8
0
10
33.966071875000004
20
-0.3594625
30
0
0
VERTEX
8
0
10
34.086968750000004
20
-0.4095375
30
0
0
VERTEX
8
0
10
34.211771875000004
20
-0.4488875
30
0
0
VERTEX
8
0
10
34.339528125
20
-0.47721250000000004
30
0
0
VERTEX
8
0
10
34.469265625
20
-0.49429062500000004
30
0
0
VERTEX
8
0
10
34.6
20
-0.5
30
0
0
VERTEX
8
0
10
41.6
20
-0.5
30
0
0
VERTEX
8
0
10
41.730734375000004
20
-0.49429062500000004
30
0
0
VERTEX
8
0
10
41.860471875
20
-0.47721250000000004
30
0
0
VERTEX
8
0
10
41.988228125
20
-0.4488875
30
0
0
VERTEX
8
0
10
42.11303125
20
-0.4095375
30
0
0
VERTEX
8
0
10
42.233928125
20
-0.3594625
30
0
0
VERTEX
8
0
10
42.35
20
-0.2990375
30
0
0
VERTEX
8
0
10
42.460365625
20
-0.228728125
30
0
0
VERTEX
8
0
10
42.564181250000004
20
-0.149065625
30
0
0
VERTEX
8
0
10
42.660659375
20
-0.060659375
30
0
0
VERTEX
8
0
10
42.749065625
20
0.03581875
30
0
0
VERTEX
8
0
10
42.828728125000005
20
0.139634375
30
0
0
VERTEX
8
0
10
42.8990375
20
0.25
30
0
0
VERTEX
8
0
10
42.9594625
20
0.366071875
30
0
0
VERTEX
8
0
10
43.0095375
20
0.48696875
30
0
0
VERTEX
8
0
10
43.0488875
20
0.6117718750000001
30
0
0
VERTEX
8
0
10
43.0772125
20
0.739528125
30
0
0
VERTEX
8
0
10
43.094290625
20
0.869265625
30
0
0
VERTEX
8
0
10
43.1
20
1
30
0
0
VERTEX
8
0
10
43.1
20
2.2
30
0
0
VERTEX
8
0
10
43.094290625
20
2.330734375
30
0
0
VERTEX
8
0
10
43.0772125
20
2.460471875
30
0
0
VERTEX
8
0
10
43.0488875
20
2.588228125
30
0
0
VERTEX
8
0
10
43.0095375
20
2.7130312500000002
30
0
0
VERTEX
8
0
10
42.9594625
20
2.8339281250000004
30
0
0
VERTEX
8
0
10
42.8990375
20
2.95
30
0
0
VERTEX
8
0
10
42.828728125000005
20
3.060365625
30
0
0
VERTEX
8
0
10
42.749065625
20
3.16418125
30
0
0
VERTEX
8
0
10
42.660659375
20
3.2606593750000004
30
0
0
VERTEX
8
0
10
42.564181250000004
20
3.349065625
30
0
0
VERTEX
8
0
10
42.460365625
20
3.428728125
30
0
0
VERTEX
8
0
10
42.35
20
3.4990375
30
0
0
VERTEX
8
0
10
42.233928125
20
3.5594625
30
0
0
VERTEX
8
0
10
42.11303125
20
3.6095375
30
0
0
VERTEX
8
0
10
41.988228125
20
3.6488875000000003
30
0
0
VERTEX
8
0
10
41.860471875
20
3.6772125
30
0
0
VERTEX
8
0
10
41.730734375000004
20
3.6942906250000003
30
0
0
VERTEX
8
0
10
41.6
20
3.7
30
0
0
VERTEX
8
0
10
34.6
20
3.7
30
0
0
VERTEX
8
0
10
34.469265625
20
3.6942906250000003
30
0
0
VERTEX
8
0
10
34.339528125
20
3.6772125
30
0
0
VERTEX
8
0
10
34.211771875000004
20
3.6488875000000003
30
0
0
VERTEX
8
0
10
34.086968750000004
20
3.6095375
30
0
0
VERTEX
8
0
10
33.966071875000004
20
3.5594625
30
0
0
VERTEX
8
0
10
33.85
20
3.4990375
30
0
0
VERTEX
8
0
10
33.739634375
20
3.428728125
30
0
0
VERTEX
8
0
10
33.63581875
20
3.349065625
30
0
0
VERTEX
8
0
10
33.539340625
20
3.2606593750000004
30
0
0
VERTEX
8
0
10
33.450934375
20
3.16418125
30
0
0
VERTEX
8
0
10
33.371271875000005
20
3.060365625
30
0
0
VERTEX
8
0
10
33.300962500000004
20
2.95
30
0
0
VERTEX
8
0
10
33.2405375
20
2.8339281250000004
30
0
0
VERTEX
8
0
10
33.1904625
20
2.7130312500000002
30
0
0
VERTEX
8
0
10
33.1511125
20
2.588228125
30
0
0
VERTEX
8
0
10
33.1227875
20
2.460471875
30
0
0
VERTEX
8
0
10
33.105709375
20
2.330734375
30
0
0
VERTEX
8
0
10
33.1
20
2.2
30
0
0
VERTEX
8
0
10
33.1
20
1
30
0
0
SEQEND
0
POLYLINE
66
1
8
holes
10
0.0
20
0.0
30
0.0
70
1
0
VERTEX
8
0
10
-59
20
0.541978125
30
0
0
VERTEX
8
0
10
-59.0076875
20
0.35609687500000003
30
0
0
VERTEX
8
0
10
-59.023050000000005
20
0.170690625
30
0
0
VERTEX
8
0
10
-59.046062500000005
20
-0.013921875
30
0
0
VERTEX
8
0
10
-59.076684375000006
20
-0.197428125
30
0
0
VERTEX
8
0
10
-59.1148625
20
-0.37950937500000004
30
0
0
VERTEX
8
0
10
-59.160534375000005
20
-0.559859375
30
0
0
VERTEX
8
0
10
-59.21361875
20
-0.738165625
30
0
0
VERTEX
8
0
10
-59.274025
20
-0.9141281250000001
30
0
0
VERTEX
8
0
10
-59.341653125
20
-1.08744375
30
0
0
VERTEX
8
0
10
-59.416387500000006
20
-1.257815625
30
0
0
VERTEX
8
0
10
-59.49809375
20
-1.424953125
30
0
0
VERTEX
8
0
10
-59.586640625
20
-1.588571875
30
0
0
VERTEX
8
0
10
-59.681871875000006
20
-1.7483937500000002
30
0
0
VERTEX
8
0
10
-59.783628125
20
-1.9041406250000001
30
0
0
VERTEX
8
0
10
-59.891734375000006
20
-2.05555
30
0
0
VERTEX
8
0
10
-60.006003125
20
-2.2023625
30
0
0
VERTEX
8
0
10
-60.126240625
20
-2.344328125
30
0
0
VERTEX
8
0
10
-60.252243750000005
20
-2.48120625
30
0
0
VERTEX
8
0
10
-60.38379375
20
-2.6127562500000003
30
0
0
VERTEX
8
0
10
-60.520671875000005
20
-2.7387593750000003
30
0
0
VERTEX
8
0
10
-60.6626375
20
-2.8589968750000003
30
0
0
VERTEX
8
0
10
-60.809450000000005
20
-2.9732656250000002
30
0
0
VERTEX
8
0
10
-60.960859375000005
20
-3.0813718750000003
30
0
0
VERTEX
8
0
10
-61.116606250000004
20
-3.183128125
30
0
0
VERTEX
8
0
10
-61.276428125
20
-3.278359375
30
0
0
VERTEX
8
0
10
-61.440046875
20
-3.36690625
30
0
0
VERTEX
8
0
10
-61.607184375
20
-3.4486125000000003
30
0
0
VERTEX
8
0
10
-61.77755625
20
-3.523346875
30
0
0
VERTEX
8
0
10
-61.950871875000004
20
-3.5909750000000003
30
0
0
VERTEX
8
0
10
-62.126834375
20
-3.65138125
30
0
0
VERTEX
8
0
10
-62.305140625
20
-3.704465625
30
0
0
VERTEX
8
0
10
-62.485490625000004
20
-3.7501375
30
0
0
VERTEX
8
0
10
-62.667571875
20
-3.788315625
30
0
0
VERTEX
8
0
10
-62.851078125
20
-3.8189375
30
0
0
VERTEX
8
0
10
-63.035690625
20
-3.84195
30
0
0
VERTEX
8
0
10
-63.221096875
20
-3.8573125000000004
30
0
0
VERTEX
8
0
10
-63.406978125
20
-3.865
30
0
0
VERTEX
8
0
10
-63.593021875000005
20
-3.865
30
0
0
VERTEX
8
0
10
-63.77890312500001
20
-3.8573125000000004
30
0
0
VERTEX
8
0
10
-63.964309375000006
20
-3.84195
30
0
0
VERTEX
8
0
10
-64.148921875
20
-3.8189375
30
0
0
VERTEX
8
0
10
-64.332428125
20
-3.788315625
30
0
0
VERTEX
8
0
10
-64.514509375
20
-3.7501375
30
0
0
VERTEX
8
0
10
-64.69485937500001
20
-3.704465625
30
0
0
VERTEX
8
0
10
-64.873165625
20
-3.65138125
30
0
0
VERTEX
8
0
10
-65.04912812500001
20
-3.5909750000000003
30
0
0
VERTEX
8
0
10
-65.22244375
20
-3.523346875
30
0
0
VERTEX
8
0
10
-65.392815625
20
-3.4486125000000003
30
0
0
VERTEX
8
0
10
-65.559953125
20
-3.36690625
30
0
0
VERTEX
8
0
10
-65.723571875
20
-3.278359375
30
0
0
VERTEX
8
0
10
-65.88339375
20
-3.183128125
30
0
0
VERTEX
8
0
10
-66.039140625
20
-3.0813718750000003
30
0
0
VERTEX
8
0
10
-66.19055
20
-2.9732656250000002
30
0
0
VERTEX
8
0
10
-66.3373625
20
-2.8589968750000003
30
0
0
VERTEX
8
0
10
-66.47932812500001
20
-2.7387593750000003
30
0
0
VERTEX
8
0
10
-66.61620625
20
-2.6127562500000003
30
0
0
VERTEX
8
0
10
-66.74775625000001
20
-2.48120625
30
0
0
VERTEX
8
0
10
-66.873759375
20
-2.344328125
30
0
0
VERTEX
8
0
10
-66.99399687500001
20
-2.2023625
30
0
0
VERTEX
8
0
10
-67.108265625
20
-2.05555
30
0
0
VERTEX
8
0
10
-67.21637187500001
20
-1.9041406250000001
30
0
0
VERTEX
8
0
10
-67.318128125
20
-1.7483937500000002
30
0
0
VERTEX
8
0
10
-67.413359375
20
-1.588571875
30
0
0
VERTEX
8
0
10
-67.50190625
20
-1.424953125
30
0
0
VERTEX
8
0
10
-67.5836125
20
-1.257815625
30
0
0
VERTEX
8
0
10
-67.658346875
20
-1.08744375
30
0
0
VERTEX
8
0
10
-67.725975
20
-0.9141281250000001
30
0
0
VERTEX
8
0
10
-67.78638125
20
-0.738165625
30
0
0
VERTEX
8
0
10
-67.839465625
20
-0.559859375
30
0
0
VERTEX
8
0
10
-67.8851375
20
-0.37950937500000004
30
0
0
VERTEX
8
0
10
-67.923315625
20
-0.197428125
30
0
0
VERTEX
8
0
10
-67.95393750000001
20
-0.013921875
30
0
0
VERTEX
8
0
10
-67.97695
20
0.170690625
30
0
0
VERTEX
8
0
10
-67.9923125
20
0.35609687500000003
30
0
0
VERTEX
8
0
10
-68
20
0.541978125
30
0
0
VERTEX
8
0
10
-68
20
0.728021875
30
0
0
VERTEX
8
0
10
-67.9923125
20
0.913903125
30
0
0
VERTEX
8
0
10
-67.97695
20
1.099309375
30
0
0
VERTEX
8
0
10
-67.95393750000001
20
1.283921875
30
0
0
VERTEX
8
0
10
-67.923315625
20
1.467428125
30
0
0
VERTEX
8
0
10
-67.8851375
20
1.649509375
30
0
0
VERTEX
8
0
10
-67.839465625
20
1.829859375
30
0
0
VERTEX
8
0
10
-67.78638125
20
2.008165625
30
0
0
VERTEX
8
0
10
-67.725975
20
2.184128125
30
0
0
VERTEX
8
0
10
-67.658346875
20
2.3574437500000003
30
0
0
VERTEX
8
0
10
-67.5836125
20
2.527815625
30
0
0
VERTEX
8
0
10
-67.50190625
20
2.694953125
30
0
0
VERTEX
8
0
10
-67.413359375
20
2.858571875
30
0
0
VERTEX
8
0
10
-67.318128125
20
3.01839375
30
0
0
VERTEX
8
0
10
-67.21637187500001
20
3.174140625
30
0
0
VERTEX
8
0
10
-67.108265625
20
3.3255500000000002
30
0
0
VERTEX
8
0
10
-66.99399687500001
20
3.4723625
30
0
0
VERTEX
8
0
10
-66.873759375
20
3.614328125
30
0
0
VERTEX
8
0
10
-66.74775625000001
20
3.75120625
30
0
0
VERTEX
8
0
10
-66.61620625
20
3.8827562500000004
30
0
0
VERTEX
8
0
10
-66.47932812500001
20
4.008759375
30
0
0
VERTEX
8
0
10
-66.3373625
20
4.128996875
30
0
0
VERTEX
8
0
10
-66.19055
20
4.243265625
30
0
0
VERTEX
8
0
10
-66.039140625
20
4.351371875
30
0
0
VERTEX
8
0
10
-65.88339375
20
4.453128125
30
0
0
VERTEX
8
0
10
-65.723571875
20
4.548359375
30
0
0
VERTEX
8
0
10
-65.559953125
20
4.63690625
30
0
0
VERTEX
8
0
10
-65.392815625
20
4.7186125
30
0
0
VERTEX
8
0
10
-65.22244375
20
4.793346875
30
0
0
VERTEX
8
0
10
-65.04912812500001
20
4.860975
30
0
0
VERTEX
8
0
10
-64.873165625
20
4.9213812500000005
30
0
0
VERTEX
8
0
10
-64.69485937500001
20
4.974465625000001
30
0
0
VERTEX
8
0
10
-64.514509375
20
5.020137500000001
30
0
0
VERTEX
8
0
10
-64.332428125
20
5.0583156250000005
30
0
0
VERTEX
8
0
10
-64.148921875
20
5.0889375
30
0
0
VERTEX
8
0
10
-63.964309375000006
20
5.11195
30
0
0
VERTEX
8
0
10
-63.77890312500001
20
5.1273125
30
0
0
VERTEX
8
0
10
-63.593021875000005
20
5.135000000000001
30
0
0
VERTEX
8
0
10
-63.406978125
20
5.135000000000001
30
0
0
VERTEX
8
0
10
-63.221096875
20
5.1273125
30
0
0
VERTEX
8
0
10
-63.035690625
20
5.11195
30
0
0
VERTEX
8
0
10
-62.851078125
20
5.0889375
30
0
0
VERTEX
8
0
10
-62.667571875
20
5.0583156250000005
30
0
0
VERTEX
8
0
10
-62.485490625000004
20
5.020137500000001
30
0
0
VERTEX
8
0
10
-62.305140625
20
4.974465625000001
30
0
0
VERTEX
8
0
10
-62.126834375
20
4.9213812500000005
30
0
0
VERTEX
8
0
10
-61.950871875000004
20
4.860975
30
0
0
VERTEX
8
0
10
-61.77755625
20
4.793346875
30
0
0
VERTEX
8
0
10
-61.607184375
20
4.7186125
30
0
0
VERTEX
8
0
10
-61.440046875
20
4.63690625
30
0
0
VERTEX
8
0
10
-61.276428125
20
4.548359375
30
0
0
VERTEX
8
0
10
-61.116606250000004
20
4.453128125
30
0
0
VERTEX
8
0
10
-60.960859375000005
20
4.351371875
30
0
0
VERTEX
8
0
10
-60.809450000000005
20
4.243265625
30
0
0
VERTEX
8
0
10
-60.6626375
20
4.128996875
30
0
0
VERTEX
8
0
10
-60.520671875000005
20
4.008759375
30
0
0
VERTEX
8
0
10
-60.38379375
20
3.8827562500000004
30
0
0
VERTEX
8
0
10
-60.252243750000005
20
3.75120625
30
0
0
VERTEX
8
0
10
-60.126240625
20
3.614328125
30
0
0
VERTEX
8
0
10
-60.006003125
20
3.4723625
30
0
0
VERTEX
8
0
10
-59.891734375000006
20
3.3255500000000002
30
0
0
VERTEX
8
0
10
-59.783628125
20
3.174140625
30
0
0
VERTEX
8
0
10
-59.681871875000006
20
3.01839375
30
0
0
VERTEX
8
0
10
-59.586640625
20
2.858571875
30
0
0
VERTEX
8
0
10
-59.49809375
20
2.694953125
30
0
0
VERTEX
8
0
10
-59.416387500000006
20
2.527815625
30
0
0
VERTEX
8
0
10
-59.341653125
20
2.3574437500000003
30
0
0
VERTEX
8
0
10
-59.274025
20
2.184128125
30
0
0
VERTEX
8
0
10
-59.21361875
20
2.008165625
30
0
0
VERTEX
8
0
10
-59.160534375000005
20
1.829859375
30
0
0
VERTEX
8
0
10
-59.1148625
20
1.649509375
30
0
0
VERTEX
8
0
10
-59.076684375000006
20
1.467428125
30
0
0
VERTEX
8
0
10
-59.046062500000005
20
1.283921875
30
0
0
VERTEX
8
0
10
-59.023050000000005
20
1.099309375
30
0
0
VERTEX
8
0
10
-59.0076875
20
0.913903125
30
0
0
VERTEX
8
0
10
-59
20
0.728021875
30
0
0
VERTEX
8
0
10
-59
20
0.541978125
30
0
0
SEQEND
0
POLYLINE
66
1
8
holes
10
0.0
20
0.0
30
0.0
70
1
0
VERTEX
8
0
10
-36.775
20
0.541978125
30
0
0
VERTEX
8
0
10
-36.7826875
20
0.35609687500000003
30
0
0
VERTEX
8
0
10
-36.79805
20
0.170690625
30
0
0
VERTEX
8
0
10
-36.821062500000004
20
-0.013921875
30
0
0
VERTEX
8
0
10
-36.851684375000005
20
-0.197428125
30
0
0
VERTEX
8
0
10
-36.8898625
20
-0.37950937500000004
30
0
0
VERTEX
8
0
10
-36.935534375
20
-0.559859375
30
0
0
VERTEX
8
0
10
-36.98861875
20
-0.738165625
30
0
0
VERTEX
8
0
10
-37.049025
20
-0.9141281250000001
30
0
0
VERTEX
8
0
10
-37.116653125
20
-1.08744375
30
0
0
VERTEX
8
0
10
-37.191387500000005
20
-1.257815625
30
0
0
VERTEX
8
0
10
-37.27309375
20
-1.424953125
30
0
0
VERTEX
8
0
10
-37.361640625
20
-1.588571875
30
0
0
VERTEX
8
0
10
-37.456871875000004
20
-1.7483937500000002
30
0
0
VERTEX
8
0
10
-37.558628125
20
-1.9041406250000001
30
0
0
VERTEX
8
0
10
-37.666734375000004
20
-2.05555
30
0
0
VERTEX
8
0
10
-37.781003125000005
20
-2.2023625
30
0
0
VERTEX
8
0
10
-37.901240625
20
-2.344328125
30
0
0
VERTEX
8
0
10
-38.027243750000004
20
-2.48120625
30
0
0
VERTEX
8
0
10
-38.15879375
20
-2.6127562500000003
30
0
0
VERTEX
8
0
10
-38.295671875000004
20
-2.7387593750000003
30
0
0
VERTEX
8
0
10
-38.4376375
20
-2.8589968750000003
30
0
0
VERTEX
8
0
10
-38.584450000000004
20
-2.9732656250000002
30
0
0
VERTEX
8
0
10
-38.735859375000004
20
-3.0813718750000003
30
0
0
VERTEX
8
0
10
-38.89160625
20
-3.183128125
30
0
0
VERTEX
8
0
10
-39.051428125
20
-3.278359375
30
0
0
VERTEX
8
0
10
-39.215046875
20
-3.36690625
30
0
0
VERTEX
8
0
10
-39.382184375
20
-3.4486125000000003
30
0
0
VERTEX
8
0
10
-39.55255625
20
-3.523346875
30
0
0
VERTEX
8
0
10
-39.725871875
20
-3.5909750000000003
30
0
0
VERTEX
8
0
10
-39.901834375
20
-3.65138125
30
0
0
VERTEX
8
0
10
-40.080140625
20
-3.704465625
30
0
0
VERTEX
8
0
10
-40.260490625
20
-3.7501375
30
0
0
VERTEX
8
0
10
-40.442571875
20
-3.788315625
30
0
0
VERTEX
8
0
10
-40.626078125
20
-3.8189375
30
0
0
VERTEX
8
0
10
-40.810690625
20
-3.84195
30
0
0
VERTEX
8
0
10
-40.996096875
20
-3.8573125000000004
30
0
0
VERTEX
8
0
10
-41.181978125
20
-3.865
30
0
0
VERTEX
8
0
10
-41.368021875000004
20
-3.865
30
0
0
VERTEX
8
0
10
-41.553903125000005
20
-3.8573125000000004
30
0
0
VERTEX
8
0
10
-41.739309375000005
20
-3.84195
30
0
0
VERTEX
8
0
10
-41.923921875000005
20
-3.8189375
30
0
0
VERTEX
8
0
10
-42.107428125000006
20
-3.788315625
30
0
0
VERTEX
8
0
10
-42.289509375
20
-3.7501375
30
0
0
VERTEX
8
0
10
-42.469859375
20
-3.704465625
30
0
0
VERTEX
8
0
10
-42.648165625000004
20
-3.65138125
30
0
0
VERTEX
8
0
10
-42.824128125
20
-3.5909750000000003
30
0
0
VERTEX
8
0
10
-42.99744375
20
-3.523346875
30
0
0
VERTEX
8
0
10
-43.167815625
20
-3.4486125000000003
30
0
0
VERTEX
8
0
10
-43.334953125000006
20
-3.36690625
30
0
0
VERTEX
8
0
10
-43.498571875
20
-3.278359375
30
0
0
VERTEX
8
0
10
-43.65839375
20
-3.183128125
30
0
0
VERTEX
8
0
10
-43.814140625
20
-3.0813718750000003
30
0
0
VERTEX
8
0
10
-43.96555
20
-2.9732656250000002
30
0
0
VERTEX
8
0
10
-44.1123625
20
-2.8589968750000003
30
0
0
VERTEX
8
0
10
-44.254328125
20
-2.7387593750000003
30
0
0
VERTEX
8
0
10
-44.39120625
20
-2.6127562500000003
30
0
0
VERTEX
8
0
10
-44.52275625
20
-2.48120625
30
0
0
VERTEX
8
0
10
-44.648759375000004
20
-2.344328125
30
0
0
VERTEX
8
0
10
-44.768996875
20
-2.2023625
30
0
0
VERTEX
8
0
10
-44.883265625
20
-2.05555
30
0
0
VERTEX
8
0
10
-44.991371875
20
-1.9041406250000001
30
0
0
VERTEX
8
0
10
-45.093128125
20
-1.7483937500000002
30
0
0
VERTEX
8
0
10
-45.188359375000005
20
-1.588571875
30
0
0
VERTEX
8
0
10
-45.27690625
20
-1.424953125
30
0
0
VERTEX
8
0
10
-45.3586125
20
-1.257815625
30
0
0
VERTEX
8
0
10
-45.433346875000005
20
-1.08744375
30
0
0
VERTEX
8
0
10
-45.500975000000004
20
-0.9141281250000001
30
0
0
VERTEX
8
0
10
-45.561381250000004
20
-0.738165625
30
0
0
VERTEX
8
0
10
-45.614465625
20
-0.559859375
30
0
0
VERTEX
8
0
10
-45.660137500000005
20
-0.37950937500000004
30
0
0
VERTEX
8
0
10
-45.698315625
20
-0.197428125
30
0
0
VERTEX
8
0
10
-45.7289375
20
-0.013921875
30
0
0
VERTEX
8
0
10
-45.75195
20
0.170690625
30
0
0
VERTEX
8
0
10
-45.7673125
20
0.35609687500000003
30
0
0
VERTEX
8
0
10
-45.775000000000006
20
0.541978125
30
0
0
VERTEX
8
0
10
-45.775000000000006
20
0.728021875
30
0
0
VERTEX
8
0
10
-45.7673125
20
0.913903125
30
0
0
VERTEX
8
0
10
-45.75195
20
1.099309375
30
0
0
VERTEX
8
0
10
-45.7289375
20
1.283921875
30
0
0
VERTEX
8
0
10
-45.698315625
20
1.467428125
30
0
0
VERTEX
8
0
10
-45.660137500000005
20
1.649509375
30
0
0
VERTEX
8
0
10
-45.614465625
20
1.829859375
30
0
0
VERTEX
8
0
10
-45.561381250000004
20
2.008165625
30
0
0
VERTEX
8
0
10
-45.500975000000004
20
2.184128125
30
0
0
VERTEX
8
0
10
-45.433346875000005
20
2.3574437500000003
30
0
0
VERTEX
8
0
10
-45.3586125
20
2.527815625
30
0
0
VERTEX
8
0
10
-45.27690625
20
2.694953125
30
0
0
VERTEX
8
0
10
-45.188359375000005
20
2.858571875
30
0
0
VERTEX
8
0
10
-45.093128125
20
3.01839375
30
0
0
VERTEX
8
0
10
-44.991371875
20
3.174140625
30
0
0
VERTEX
8
0
10
-44.883265625
20
3.3255500000000002
30
0
0
VERTEX
8
0
10
-44.768996875
20
3.4723625
30
0
0
VERTEX
8
0
10
-44.648759375000004
20
3.614328125
30
0
0
VERTEX
8
0
10
-44.52275625
20
3.75120625
30
0
0
VERTEX
8
0
10
-44.39120625
20
3.8827562500000004
30
0
0
VERTEX
8
0
10
-44.254328125
20
4.008759375
30
0
0
VERTEX
8
0
10
-44.1123625
20
4.128996875
30
0
0
VERTEX
8
0
10
-43.96555
20
4.243265625
30
0
0
VERTEX
8
0
10
-43.814140625
20
4.351371875
30
0
0
VERTEX
8
0
10
-43.65839375
20
4.453128125
30
0
0
VERTEX
8
0
10
-43.498571875
20
4.548359375
30
0
0
VERTEX
8
0
10
-43.334953125000006
20
4.63690625
30
0
0
VERTEX
8
0
10
-43.167815625
20
4.7186125
30
0
0
VERTEX
8
0
10
-42.99744375
20
4.793346875
30
0
0
VERTEX
8
0
10
-42.824128125
20
4.860975
30
0
0
VERTEX
8
0
10
-42.648165625000004
20
4.9213812500000005
30
0
0
VERTEX
8
0
10
-42.469859375
20
4.974465625000001
30
0
0
VERTEX
8
0
10
-42.289509375
20
5.020137500000001
30
0
0
VERTEX
8
0
10
-42.107428125000006
20
5.0583156250000005
30
0
0
VERTEX
8
0
10
-41.923921875000005
20
5.0889375
30
0
0
VERTEX
8
0
10
-41.739309375000005
20
5.11195
30
0
0
VERTEX
8
0
10
-41.553903125000005
20
5.1273125
30
0
0
VERTEX
8
0
10
-41.368021875000004
20
5.135000000000001
30
0
0
VERTEX
8
0
10
-41.181978125
20
5.135000000000001
30
0
0
VERTEX
8
0
10
-40.996096875
20
5.1273125
30
0
0
VERTEX
8
0
10
-40.810690625
20
5.11195
30
0
0
VERTEX
8
0
10
-40.626078125
20
5.0889375
30
0
0
VERTEX
8
0
10
-40.442571875
20
5.0583156250000005
30
0
0
VERTEX
8
0
10
-40.260490625
20
5.020137500000001
30
0
0
VERTEX
8
0
10
-40.080140625
20
4.974465625000001
30
0
0
VERTEX
8
0
10
-39.901834375
20
4.9213812500000005
30
0
0
VERTEX
8
0
10
-39.725871875
20
4.860975
30
0
0
VERTEX
8
0
10
-39.55255625
20
4.793346875
30
0
0
VERTEX
8
0
10
-39.382184375
20
4.7186125
30
0
0
VERTEX
8
0
10
-39.215046875
20
4.63690625
30
0
0
VERTEX
8
0
10
-39.051428125
20
4.548359375
30
0
0
VERTEX
8
0
10
-38.89160625
20
4.453128125
30
0
0
VERTEX
8
0
10
-38.735859375000004
20
4.351371875
30
0
0
VERTEX
8
0
10
-38.584450000000004
20
4.243265625
30
0
0
VERTEX
8
0
10
-38.4376375
20
4.128996875
30
0
0
VERTEX
8
0
10
-38.295671875000004
20
4.008759375
30
0
0
VERTEX
8
0
10
-38.15879375
20
3.8827562500000004
30
0
0
VERTEX
8
0
10
-38.027243750000004
20
3.75120625
30
0
0
VERTEX
8
0
10
-37.901240625
20
3.614328125
30
0
0
VERTEX
8
0
10
-37.781003125000005
20
3.4723625
30
0
0
VERTEX
8
0
10
-37.666734375000004
20
3.3255500000000002
30
0
0
VERTEX
8
0
10
-37.558628125
20
3.174140625
30
0
0
VERTEX
8
0
10
-37.456871875000004
20
3.01839375
30
0
0
VERTEX
8
0
10
-37.361640625
20
2.858571875
30
0
0
VERTEX
8
0
10
-37.27309375
20
2.694953125
30
0
0
VERTEX
8
0
10
-37.191387500000005
20
2.527815625
30
0
0
VERTEX
8
0
10
-37.116653125
20
2.3574437500000003
30
0
0
VERTEX
8
0
10
-37.049025
20
2.184128125
30
0
0
VERTEX
8
0
10
-36.98861875
20
2.008165625
30
0
0
VERTEX
8
0
10
-36.935534375
20
1.829859375
30
0
0
VERTEX
8
0
10
-36.8898625
20
1.649509375
30
0
0
VERTEX
8
0
10
-36.851684375000005
20
1.467428125
30
0
0
VERTEX
8
0
10
-36.821062500000004
20
1.283921875
30
0
0
VERTEX
8
0
10
-36.79805
20
1.099309375
30
0
0
VERTEX
8
0
10
-36.7826875
20
0.913903125
30
0
0
VERTEX
8
0
10
-36.775
20
0.728021875
30
0
0
VERTEX
8
0
10
-36.775
20
0.541978125
30
0
0
SEQEND
0
POLYLINE
66
1
8
holes
10
0.0
20
0.0
30
0.0
70
1
0
VERTEX
8
0
10
-14.55
20
0.541978125
30
0
0
VERTEX
8
0
10
-14.5576875
20
0.35609687500000003
30
0
0
VERTEX
8
0
10
-14.57305
20
0.170690625
30
0
0
VERTEX
8
0
10
-14.5960625
20
-0.013921875
30
0
0
VERTEX
8
0
10
-14.626684375
20
-0.197428125
30
0
0
VERTEX
8
0
10
-14.6648625
20
-0.37950937500000004
30
0
0
VERTEX
8
0
10
-14.710534375
20
-0.559859375
30
0
0
VERTEX
8
0
10
-14.763618750000001
20
-0.738165625
30
0
0
VERTEX
8
0
10
-14.824025
20
-0.9141281250000001
30
0
0
VERTEX
8
0
10
-14.891653125000001
20
-1.08744375
30
0
0
VERTEX
8
0
10
-14.966387500000002
20
-1.257815625
30
0
0
VERTEX
8
0
10
-15.048093750000001
20
-1.424953125
30
0
0
VERTEX
8
0
10
-15.136640625
20
-1.588571875
30
0
0
VERTEX
8
0
10
-15.231871875000001
20
-1.7483937500000002
30
0
0
VERTEX
8
0
10
-15.333628125
20
-1.9041406250000001
30
0
0
VERTEX
8
0
10
-15.441734375000001
20
-2.05555
30
0
0
VERTEX
8
0
10
-15.556003125
20
-2.2023625
30
0
0
VERTEX
8
0
10
-15.676240625
20
-2.344328125
30
0
0
VERTEX
8
0
10
-15.80224375
20
-2.48120625
30
0
0
VERTEX
8
0
10
-15.933793750000001
20
-2.6127562500000003
30
0
0
VERTEX
8
0
10
-16.070671875000002
20
-2.7387593750000003
30
0
0
VERTEX
8
0
10
-16.2126375
20
-2.8589968750000003
30
0
0
VERTEX
8
0
10
-16.359450000000002
20
-2.9732656250000002
30
0
0
VERTEX
8
0
10
-16.510859375000003
20
-3.0813718750000003
30
0
0
VERTEX
8
0
10
-16.66660625
20
-3.183128125
30
0
0
VERTEX
8
0
10
-16.826428125
20
-3.278359375
30
0
0
VERTEX
8
0
10
-16.990046875
20
-3.36690625
30
0
0
VERTEX
8
0
10
-17.157184375
20
-3.4486125000000003
30
0
0
VERTEX
8
0
10
-17.32755625
20
-3.523346875
30
0
0
VERTEX
8
0
10
-17.500871875
20
-3.5909750000000003
30
0
0
VERTEX
8
0
10
-17.676834375000002
20
-3.65138125
30
0
0
VERTEX
8
0
10
-17.855140625
20
-3.704465625
30
0
0
VERTEX
8
0
10
-18.035490625
20
-3.7501375
30
0
0
VERTEX
8
0
10
-18.217571875
20
-3.788315625
30
0
0
VERTEX
8
0
10
-18.401078125
20
-3.8189375
30
0
0
VERTEX
8
0
10
-18.585690625
20
-3.84195
30
0
0
VERTEX
8
0
10
-18.771096875
20
-3.8573125000000004
30
0
0
VERTEX
8
0
10
-18.956978125000003
20
-3.865
30
0
0
VERTEX
8
0
10
-19.143021875000002
20
-3.865
30
0
0
VERTEX
8
0
10
-19.328903125
20
-3.8573125000000004
30
0
0
VERTEX
8
0
10
-19.514309375
20
-3.84195
30
0
0
VERTEX
8
0
10
-19.698921875
20
-3.8189375
30
0
0
VERTEX
8
0
10
-19.882428125
20
-3.788315625
30
0
0
VERTEX
8
0
10
-20.064509375
20
-3.7501375
30
0
0
VERTEX
8
0
10
-20.244859375
20
-3.704465625
30
0
0
VERTEX
8
0
10
-20.423165625
20
-3.65138125
30
0
0
VERTEX
8
0
10
-20.599128125
20
-3.5909750000000003
30
0
0
VERTEX
8
0
10
-20.77244375
20
-3.523346875
30
0
0
VERTEX
8
0
10
-20.942815625
20
-3.4486125000000003
30
0
0
VERTEX
8
0
10
-21.109953125
20
-3.36690625
30
0
0
VERTEX
8
0
10
-21.273571875000002
20
-3.278359375
30
0
0
VERTEX
8
0
10
-21.43339375
20
-3.183128125
30
0
0
VERTEX
8
0
10
-21.589140625000002
20
-3.0813718750000003
30
0
0
VERTEX
8
0
10
-21.740550000000002
20
-2.9732656250000002
30
0
0
VERTEX
8
0
10
-21.887362500000002
20
-2.8589968750000003
30
0
0
VERTEX
8
0
10
-22.029328125000003
20
-2.7387593750000003
30
0
0
VERTEX
8
0
10
-22.166206250000002
20
-2.6127562500000003
30
0
0
VERTEX
8
0
10
-22.297756250000003
20
-2.48120625
30
0
0
VERTEX
8
0
10
-22.423759375
20
-2.344328125
30
0
0
VERTEX
8
0
10
-22.543996875
20
-2.2023625
30
0
0
VERTEX
8
0
10
-22.658265625000002
20
-2.05555
30
0
0
VERTEX
8
0
10
-22.766371875
20
-1.9041406250000001
30
0
0
VERTEX
8
0
10
-22.868128125000002
20
-1.7483937500000002
30
0
0
VERTEX
8
0
10
-22.963359375
20
-1.588571875
30
0
0
VERTEX
8
0
10
-23.051906250000002
20
-1.424953125
30
0
0
VERTEX
8
0
10
-23.1336125
20
-1.257815625
30
0
0
VERTEX
8
0
10
-23.208346875
20
-1.08744375
30
0
0
VERTEX
8
0
10
-23.275975000000003
20
-0.9141281250000001
30
0
0
VERTEX
8
0
10
-23.336381250000002
20
-0.738165625
30
0
0
VERTEX
8
0
10
-23.389465625
20
-0.559859375
30
0
0
VERTEX
8
0
10
-23.4351375
20
-0.37950937500000004
30
0
0
VERTEX
8
0
10
-23.473315625
20
-0.197428125
30
0
0
VERTEX
8
0
10
-23.503937500000003
20
-0.013921875
30
0
0
VERTEX
8
0
10
-23.52695
20
0.170690625
30
0
0
VERTEX
8
0
10
-23.5423125
20
0.35609687500000003
30
0
0
VERTEX
8
0
10
-23.55
20
0.541978125
30
0
0
VERTEX
8
0
10
-23.55
20
0.728021875
30
0
0
VERTEX
8
0
10
-23.5423125
20
0.913903125
30
0
0
VERTEX
8
0
10
-23.52695
20
1.099309375
30
0
0
VERTEX
8
0
10
-23.503937500000003
20
1.283921875
30
0
0
VERTEX
8
0
10
-23.473315625
20
1.467428125
30
0
0
VERTEX
8
0
10
-23.4351375
20
1.649509375
30
0
0
VERTEX
8
0
10
-23.389465625
20
1.829859375
30
0
0
VERTEX
8
0
10
-23.336381250000002
20
2.008165625
30
0
0
VERTEX
8
0
10
-23.275975000000003
20
2.184128125
30
0
0
VERTEX
8
0
10
-23.208346875
20
2.3574437500000003
30
0
0
VERTEX
8
0
10
-23.1336125
20
2.527815625
30
0
0
VERTEX
8
0
10
-23.051906250000002
20
2.694953125
30
0
0
VERTEX
8
0
10
-22.963359375
20
2.858571875
30
0
0
VERTEX
8
0
10
-22.868128125000002
20
3.01839375
30
0
0
VERTEX
8
0
10
-22.766371875
20
3.174140625
30
0
0
VERTEX
8
0
10
-22.658265625000002
20
3.3255500000000002
30
0
0
VERTEX
8
0
10
-22.543996875
20
3.4723625
30
0
0
VERTEX
8
0
10
-22.423759375
20
3.614328125
30
0
0
VERTEX
8
0
10
-22.297756250000003
20
3.75120625
30
0
0
VERTEX
8
0
10
-22.166206250000002
20
3.8827562500000004
30
0
0
VERTEX
8
0
10
-22.029328125000003
20
4.008759375
30
0
0
VERTEX
8
0
10
-21.887362500000002
20
4.128996875
30
0
0
VERTEX
8
0
10
-21.740550000000002
20
4.243265625
30
0
0
VERTEX
8
0
10
-21.589140625000002
20
4.351371875
30
0
0
VERTEX
8
0
10
-21.43339375
20
4.453128125
30
0
0
VERTEX
8
0
10
-21.273571875000002
20
4.548359375
30
0
0
VERTEX
8
0
10
-21.109953125
20
4.63690625
30
0
0
VERTEX
8
0
10
-20.942815625
20
4.7186125
30
0
0
VERTEX
8
0
10
-20.77244375
20
4.793346875
30
0
0
VERTEX
8
0
10
-20.599128125
20
4.860975
30
0
0
VERTEX
8
0
10
-20.423165625
20
4.9213812500000005
30
0
0
VERTEX
8
0
10
-20.244859375
20
4.974465625000001
30
0
0
VERTEX
8
0
10
-20.064509375
20
5.020137500000001
30
0
0
VERTEX
8
0
10
-19.882428125
20
5.0583156250000005
30
0
0
VERTEX
8
0
10
-19.698921875
20
5.0889375
30
0
0
VERTEX
8
0
10
-19.514309375
20
5.11195
30
0
0
VERTEX
8
0
10
-19.328903125
20
5.1273125
30
0
0
VERTEX
8
0
10
-19.143021875000002
20
5.135000000000001
30
0
0
VERTEX
8
0
10
-18.956978125000003
20
5.135000000000001
30
0
0
VERTEX
8
0
10
-18.771096875
20
5.1273125
30
0
0
VERTEX
8
0
10
-18.585690625
20
5.11195
30
0
0
VERTEX
8
0
10
-18.401078125
20
5.0889375
30
0
0
VERTEX
8
0
10
-18.217571875
20
5.0583156250000005
30
0
0
VERTEX
8
0
10
-18.035490625
20
5.020137500000001
30
0
0
VERTEX
8
0
10
-17.855140625
20
4.974465625000001
30
0
0
VERTEX
8
0
10
-17.676834375000002
20
4.9213812500000005
30
0
0
VERTEX
8
0
10
-17.500871875
20
4.860975
30
0
0
VERTEX
8
0
10
-17.32755625
20
4.793346875
30
0
0
VERTEX
8
0
10
-17.157184375
20
4.7186125
30
0
0
VERTEX
8
0
10
-16.990046875
20
4.63690625
30
0
0
VERTEX
8
0
10
-16.826428125
20
4.548359375
30
0
0
VERTEX
8
0
10
-16.66660625
20
4.453128125
30
0
0
VERTEX
8
0
10
-16.510859375000003
20
4.351371875
30
0
0
VERTEX
8
0
10
-16.359450000000002
20
4.243265625
30
0
0
VERTEX
8
0
10
-16.2126375
20
4.128996875
30
0
0
VERTEX
8
0
10
-16.070671875000002
20
4.008759375
30
0
0
VERTEX
8
0
10
-15.933793750000001
20
3.8827562500000004
30
0
0
VERTEX
8
0
10
-15.80224375
20
3.75120625
30
0
0
VERTEX
8
0
10
-15.676240625
20
3.614328125
30
0
0
VERTEX
8
0
10
-15.556003125
20
3.4723625
30
0
0
VERTEX
8
0
10
-15.441734375000001
20
3.3255500000000002
30
0
0
VERTEX
8
0
10
-15.333628125
20
3.174140625
30
0
0
VERTEX
8
0
10
-15.231871875000001
20
3.01839375
30
0
0
VERTEX
8
0
10
-15.136640625
20
2.858571875
30
0
0
VERTEX
8
0
10
-15.048093750000001
20
2.694953125
30
0
0
VERTEX
8
0
10
-14.966387500000002
20
2.527815625
30
0
0
VERTEX
8
0
10
-14.891653125000001
20
2.3574437500000003
30
0
0
VERTEX
8
0
10
-14.824025
20
2.184128125
30
0
0
VERTEX
8
0
10
-14.763618750000001
20
2.008165625
30
0
0
VERTEX
8
0
10
-14.710534375
20
1.829859375
30
0
0
VERTEX
8
0
10
-14.6648625
20
1.649509375
30
0
0
VERTEX
8
0
10
-14.626684375
20
1.467428125
30
0
0
VERTEX
8
0
10
-14.5960625
20
1.283921875
30
0
0
VERTEX
8
0
10
-14.57305
20
1.099309375
30
0
0
VERTEX
8
0
10
-14.5576875
20
0.913903125
30
0
0
VERTEX
8
0
10
-14.55
20
0.728021875
30
0
0
VERTEX
8
0
10
-14.55
20
0.541978125
30
0
0
SEQEND
0
CIRCLE
8
drills_NPTH
10
-63.5
20
0.635
30
0
40
4.5
0
CIRCLE
8
drills_NPTH
10
-41.275
20
0.635
30
0
40
4.5
0
CIRCLE
8
drills_NPTH
10
-19.05
20
0.635
30
0
40
4.5
0
ENDSEC
0
EOF