999
dxfrw 0.6.3
  0
SECTION
  2
HEADER
  9
$ACADVER
  1
AC1021
  9
$DWGCODEPAGE
  3
ANSI_1252
  9
$INSBASE
 10
0
 20
0
 30
0
  9
$EXTMIN
 10
-78.3
 20
-7
 30
0
  9
$EXTMAX
 10
78.3
 20
32
 30
0
  9
$LIMMIN
 10
0
 20
0
  9
$LIMMAX
 10
420
 20
297
  9
$ORTHOMODE
 70
    0
  9
$REGENMODE
 70
    1
  9
$FILLMODE
 70
    1
  9
$QTEXTMODE
 70
    0
  9
$MIRRTEXT
 70
    0
  9
$LTSCALE
 40
1
  9
$ATTMODE
 70
    0
  9
$TEXTSIZE
 40
2.5
  9
$TRACEWID
 40
15.68
  9
$TEXTSTYLE
  7
STANDARD
  9
$CLAYER
  8
0
  9
$CELTYPE
  6
BYLAYER
  9
$CECOLOR
 62
  256
  9
$CELTSCALE
 40
1
  9
$DISPSILH
 70
    0
  9
$DIMSCALE
 40
2.5
  9
$DIMASZ
 40
2.5
  9
$DIMEXO
 40
0.625
  9
$DIMDLI
 40
3.75
  9
$DIMRND
 40
0
  9
$DIMDLE
 40
0
  9
$DIMEXE
 40
1.25
  9
$DIMTP
 40
0
  9
$DIMTM
 40
0
  9
$DIMTXT
 40
2.5
  9
$DIMCEN
 40
2.5
  9
$DIMTSZ
 40
0
  9
$DIMTOL
 70
    0
  9
$DIMLIM
 70
    0
  9
$DIMTIH
 70
    0
  9
$DIMTOH
 70
    0
  9
$DIMSE1
 70
    0
  9
$DIMSE2
 70
    0
  9
$DIMTAD
 70
    1
  9
$DIMZIN
 70
    8
  9
$DIMBLK
  1

  9
$DIMASO
 70
    1
  9
$DIMSHO
 70
    1
  9
$DIMPOST
  1

  9
$DIMAPOST
  1

  9
$DIMALT
 70
    0
  9
$DIMALTD
 70
    3
  9
$DIMALTF
 40
0.03937
  9
$DIMLFAC
 40
1
  9
$DIMTOFL
 70
    1
  9
$DIMTVP
 40
0
  9
$DIMTIX
 70
    0
  9
$DIMSOXD
 70
    0
  9
$DIMSAH
 70
    0
  9
$DIMBLK1
  1

  9
$DIMBLK2
  1

  9
$DIMSTYLE
  2
Standard
  9
$DIMCLRD
 70
    0
  9
$DIMCLRE
 70
    0
  9
$DIMCLRT
 70
    0
  9
$DIMTFAC
 40
1
  9
$DIMGAP
 40
0.625
  9
$DIMJUST
 70
    0
  9
$DIMSD1
 70
    0
  9
$DIMSD2
 70
    0
  9
$DIMTOLJ
 70
    0
  9
$DIMTZIN
 70
    8
  9
$DIMALTZ
 70
    0
  9
$DIMALTTZ
 70
    0
  9
$DIMUPT
 70
    0
  9
$DIMDEC
 70
    2
  9
$DIMTDEC
 70
    2
  9
$DIMALTU
 70
    2
  9
$DIMALTTD
 70
    3
  9
$DIMTXSTY
  7
STANDARD
  9
$DIMAUNIT
 70
    0
  9
$DIMADEC
 70
    0
  9
$DIMALTRND
 40
0
  9
$DIMAZIN
 70
    0
  9
$DIMDSEP
 70
   44
  9
$DIMATFIT
 70
    3
  9
$DIMFRAC
 70
    0
  9
$DIMLDRBLK
  1
STANDARD
  9
$DIMLUNIT
 70
    2
  9
$DIMLWD
 70
   -2
  9
$DIMLWE
 70
   -2
  9
$DIMTMOVE
 70
    0
  9
$DIMFXL
 40
1
  9
$DIMFXLON
 70
    0
  9
$DIMJOGANG
 40
0.7854
  9
$DIMTFILL
 70
    0
  9
$DIMTFILLCLR
 70
    0
  9
$DIMARCSYM
 70
    0
  9
$DIMLTYPE
  6

  9
$DIMLTEX1
  6

  9
$DIMLTEX2
  6

  9
$LUNITS
 70
    2
  9
$LUPREC
 70
    4
  9
$SKETCHINC
 40
1
  9
$FILLETRAD
 40
0
  9
$AUNITS
 70
    0
  9
$AUPREC
 70
    2
  9
$MENU
  1
.
  9
$ELEVATION
 40
0
  9
$PELEVATION
 40
0
  9
$THICKNESS
 40
0
  9
$LIMCHECK
 70
    0
  9
$CHAMFERA
 40
0
  9
$CHAMFERB
 40
0
  9
$CHAMFERC
 40
0
  9
$CHAMFERD
 40
0
  9
$SKPOLY
 70
    0
  9
$USRTIMER
 70
    1
  9
$ANGBASE
 50
0
  9
$ANGDIR
 70
    1
  9
$PDMODE
 70
   34
  9
$PDSIZE
 40
0
  9
$PLINEWID
 40
0
  9
$SPLFRAME
 70
    0
  9
$SPLINETYPE
 70
    2
  9
$SPLINESEGS
 70
    8
  9
$HANDSEED
  5
20000
  9
$SURFTAB1
 70
    6
  9
$SURFTAB2
 70
    6
  9
$SURFTYPE
 70
    6
  9
$SURFU
 70
    6
  9
$SURFV
 70
    6
  9
$UCSBASE
  2

  9
$UCSNAME
  2

  9
$UCSORG
 10
0
 20
0
 30
0
  9
$UCSXDIR
 10
1
 20
0
 30
0
  9
$UCSYDIR
 10
0
 20
1
 30
0
  9
$UCSORTHOREF
  2

  9
$UCSORTHOVIEW
 70
    0
  9
$UCSORGTOP
 10
0
 20
0
 30
0
  9
$UCSORGBOTTOM
 10
0
 20
0
 30
0
  9
$UCSORGLEFT
 10
0
 20
0
 30
0
  9
$UCSORGRIGHT
 10
0
 20
0
 30
0
  9
$UCSORGFRONT
 10
0
 20
0
 30
0
  9
$UCSORGBACK
 10
0
 20
0
 30
0
  9
$PUCSBASE
  2

  9
$PUCSNAME
  2

  9
$PUCSORG
 10
0
 20
0
 30
0
  9
$PUCSXDIR
 10
1
 20
0
 30
0
  9
$PUCSYDIR
 10
0
 20
1
 30
0
  9
$PUCSORTHOREF
  2

  9
$PUCSORTHOVIEW
 70
    0
  9
$PUCSORGTOP
 10
0
 20
0
 30
0
  9
$PUCSORGBOTTOM
 10
0
 20
0
 30
0
  9
$PUCSORGLEFT
 10
0
 20
0
 30
0
  9
$PUCSORGRIGHT
 10
0
 20
0
 30
0
  9
$PUCSORGFRONT
 10
0
 20
0
 30
0
  9
$PUCSORGBACK
 10
0
 20
0
 30
0
  9
$USERI1
 70
    0
  9
$USERI2
 70
    0
  9
$USERI3
 70
    0
  9
$USERI4
 70
    0
  9
$USERI5
 70
    0
  9
$USERR1
 40
0
  9
$USERR2
 40
0
  9
$USERR3
 40
0
  9
$USERR4
 40
0
  9
$USERR5
 40
0
  9
$WORLDVIEW
 70
    1
  9
$SHADEDGE
 70
    3
  9
$SHADEDIF
 70
   70
  9
$TILEMODE
 70
    1
  9
$MAXACTVP
 70
   64
  9
$PINSBASE
 10
0
 20
0
 30
0
  9
$PLIMCHECK
 70
    0
  9
$PEXTMIN
 10
0
 20
0
 30
0
  9
$PEXTMAX
 10
0
 20
0
 30
0
  9
$PLIMMIN
 10
0
 20
0
  9
$PLIMMAX
 10
356
 20
216
  9
$UNITMODE
 70
    0
  9
$VISRETAIN
 70
    1
  9
$PLINEGEN
 70
    0
  9
$PSLTSCALE
 70
    1
  9
$TREEDEPTH
 70
 3020
  9
$CMLSTYLE
  2
Standard
  9
$CMLJUST
 70
    0
  9
$CMLSCALE
 40
20
  9
$PROXYGRAPHICS
 70
    1
  9
$MEASUREMENT
 70
    1
  9
$CELWEIGHT
370
   -1
  9
$ENDCAPS
280
    0
  9
$JOINSTYLE
280
    0
  9
$LWDISPLAY
290
    0
  9
$INSUNITS
 70
    4
  9
$HYPERLINKBASE
  1

  9
$STYLESHEET
  1

  9
$XEDIT
290
    1
  9
$CEPSNTYPE
380
    0
  9
$PSTYLEMODE
290
    1
  9
$EXTNAMES
290
    1
  9
$PSVPSCALE
 40
1
  9
$OLESTARTUP
290
    0
  9
$SORTENTS
280
  127
  9
$INDEXCTL
280
    0
  9
$HIDETEXT
280
    1
  9
$XCLIPFRAME
290
    0
  9
$HALOGAP
280
    0
  9
$OBSCOLOR
 70
  257
  9
$OBSLTYPE
280
    0
  9
$INTERSECTIONDISPLAY
280
    0
  9
$INTERSECTIONCOLOR
 70
  257
  9
$DIMASSOC
280
    1
  9
$PROJECTNAME
  1
CORS_Rear_Panel
  9
$CAMERADISPLAY
290
    0
  9
$LENSLENGTH
 40
50
  9
$CAMERAHEIGHT
 40
0
  9
$STEPSPERSEC
 40
2
  9
$STEPSIZE
 40
50
  9
$3DDWFPREC
 40
2
  9
$PSOLWIDTH
 40
5
  9
$PSOLHEIGHT
 40
80
  9
$LOFTANG1
 40
1.570796326794897
  9
$LOFTANG2
 40
1.570796326794897
  9
$LOFTMAG1
 40
0
  9
$LOFTMAG2
 40
0
  9
$LOFTPARAM
 70
    7
  9
$LOFTNORMALS
280
    1
  9
$LATITUDE
 40
1
  9
$LONGITUDE
 40
1
  9
$NORTHDIRECTION
 40
0
  9
$TIMEZONE
 70
-8000
  9
$LIGHTGLYPHDISPLAY
280
    1
  9
$TILEMODELIGHTSYNCH
280
    1
  9
$SOLIDHIST
280
    1
  9
$SHOWHIST
280
    1
  9
$DWFFRAME
280
    2
  9
$DGNFRAME
280
    0
  9
$REALWORLDSCALE
290
    1
  9
$INTERFERECOLOR
 62
    1
  9
$CSHADOW
280
    0
  9
$SHADOWPLANELOCATION
 40
0
  0
ENDSEC
  0
SECTION
  2
CLASSES
  0
ENDSEC
  0
SECTION
  2
TABLES
  0
TABLE
  2
VPORT
  5
8
330
0
100
AcDbSymbolTable
 70
    1
  0
VPORT
  5
31
330
2
100
AcDbSymbolTableRecord
100
AcDbViewportTableRecord
  2
*ACTIVE
 70
    0
 10
0
 20
0
 11
1
 21
1
 12
39.65
 22
27.75
 13
0
 23
0
 14
10
 24
10
 15
10
 25
10
 16
0
 26
0
 36
1
 17
0
 27
0
 37
0
 40
85.90000000000001
 41
1.846332945285215
 42
50
 43
0
 44
0
 50
0
 51
0
 71
    0
 72
  100
 73
    1
 74
    3
 75
    0
 76
    1
 77
    0
 78
    0
281
    0
 65
    1
110
0
120
0
130
0
111
1
121
0
131
0
112
0
122
1
132
0
 79
    0
146
0
348
10020
 60
    7
 61
    5
292
1
282
    1
141
0
142
0
 63
  250
421
3358443
  0
ENDTAB
  0
TABLE
  2
LTYPE
  5
5
330
0
100
AcDbSymbolTable
 70
    4
  0
LTYPE
  5
14
330
5
100
AcDbSymbolTableRecord
100
AcDbLinetypeTableRecord
  2
ByBlock
 70
    0
  3

 72
   65
 73
    0
 40
0
  0
LTYPE
  5
15
330
5
100
AcDbSymbolTableRecord
100
AcDbLinetypeTableRecord
  2
ByLayer
 70
    0
  3

 72
   65
 73
    0
 40
0
  0
LTYPE
  5
16
330
5
100
AcDbSymbolTableRecord
100
AcDbLinetypeTableRecord
  2
Continuous
 70
    0
  3
Solid line
 72
   65
 73
    0
 40
0
  0
LTYPE
  5
32
330
5
100
AcDbSymbolTableRecord
100
AcDbLinetypeTableRecord
  2
DOT
 70
    0
  3
Dot . . . . . . . . . . . . . . . . . . . . . .
 72
   65
 73
    2
 40
6.35
 49
0
 74
    0
 49
-6.35
 74
    0
  0
LTYPE
  5
33
330
5
100
AcDbSymbolTableRecord
100
AcDbLinetypeTableRecord
  2
DOTTINY
 70
    0
  3
Dot (.15x) .....................................
 72
   65
 73
    2
 40
0.9525
 49
0
 74
    0
 49
-0.9525
 74
    0
  0
LTYPE
  5
34
330
5
100
AcDbSymbolTableRecord
100
AcDbLinetypeTableRecord
  2
DOT2
 70
    0
  3
Dot (.5x) .....................................
 72
   65
 73
    2
 40
3.175
 49
0
 74
    0
 49
-3.175
 74
    0
  0
LTYPE
  5
35
330
5
100
AcDbSymbolTableRecord
100
AcDbLinetypeTableRecord
  2
DOTX2
 70
    0
  3
Dot (2x) .  .  .  .  .  .  .  .  .  .  .  .  .
 72
   65
 73
    2
 40
12.7
 49
0
 74
    0
 49
-12.7
 74
    0
  0
LTYPE
  5
36
330
5
100
AcDbSymbolTableRecord
100
AcDbLinetypeTableRecord
  2
DASHED
 70
    0
  3
Dashed _ _ _ _ _ _ _ _ _ _ _ _ _ _ _ _ _
 72
   65
 73
    2
 40
19.05
 49
12.7
 74
    0
 49
-6.35
 74
    0
  0
LTYPE
  5
37
330
5
100
AcDbSymbolTableRecord
100
AcDbLinetypeTableRecord
  2
DASHEDTINY
 70
    0
  3
Dashed (.15x) _ _ _ _ _ _ _ _ _ _ _ _ _ _ _ _ _
 72
   65
 73
    2
 40
2.8575
 49
1.905
 74
    0
 49
-0.9525
 74
    0
  0
LTYPE
  5
38
330
5
100
AcDbSymbolTableRecord
100
AcDbLinetypeTableRecord
  2
DASHED2
 70
    0
  3
Dashed (.5x) _ _ _ _ _ _ _ _ _ _ _ _ _ _ _ _ _
 72
   65
 73
    2
 40
9.524999999999999
 49
6.35
 74
    0
 49
-3.175
 74
    0
  0
LTYPE
  5
39
330
5
100
AcDbSymbolTableRecord
100
AcDbLinetypeTableRecord
  2
DASHEDX2
 70
    0
  3
Dashed (2x) ____  ____  ____  ____  ____  ___
 72
   65
 73
    2
 40
38.09999999999999
 49
25.4
 74
    0
 49
-12.7
 74
    0
  0
LTYPE
  5
3A
330
5
100
AcDbSymbolTableRecord
100
AcDbLinetypeTableRecord
  2
DASHDOT
 70
    0
  3
Dash dot __ . __ . __ . __ . __ . __ . __ . __
 72
   65
 73
    4
 40
25.4
 49
12.7
 74
    0
 49
-6.35
 74
    0
 49
0
 74
    0
 49
-6.35
 74
    0
  0
LTYPE
  5
3B
330
5
100
AcDbSymbolTableRecord
100
AcDbLinetypeTableRecord
  2
DASHDOTTINY
 70
    0
  3
Dash dot (.15x) _._._._._._._._._._._._._._._.
 72
   65
 73
    4
 40
3.81
 49
1.905
 74
    0
 49
-0.9525
 74
    0
 49
0
 74
    0
 49
-0.9525
 74
    0
  0
LTYPE
  5
3C
330
5
100
AcDbSymbolTableRecord
100
AcDbLinetypeTableRecord
  2
DASHDOT2
 70
    0
  3
Dash dot (.5x) _._._._._._._._._._._._._._._.
 72
   65
 73
    4
 40
12.7
 49
6.35
 74
    0
 49
-3.175
 74
    0
 49
0
 74
    0
 49
-3.175
 74
    0
  0
LTYPE
  5
3D
330
5
100
AcDbSymbolTableRecord
100
AcDbLinetypeTableRecord
  2
DASHDOTX2
 70
    0
  3
Dash dot (2x) ____  .  ____  .  ____  .  ___
 72
   65
 73
    4
 40
50.8
 49
25.4
 74
    0
 49
-12.7
 74
    0
 49
0
 74
    0
 49
-12.7
 74
    0
  0
LTYPE
  5
3E
330
5
100
AcDbSymbolTableRecord
100
AcDbLinetypeTableRecord
  2
DIVIDE
 70
    0
  3
Divide ____ . . ____ . . ____ . . ____ . . ____
 72
   65
 73
    6
 40
31.75
 49
12.7
 74
    0
 49
-6.35
 74
    0
 49
0
 74
    0
 49
-6.35
 74
    0
 49
0
 74
    0
 49
-6.35
 74
    0
  0
LTYPE
  5
3F
330
5
100
AcDbSymbolTableRecord
100
AcDbLinetypeTableRecord
  2
DIVIDETINY
 70
    0
  3
Divide (.15x) __..__..__..__..__..__..__..__.._
 72
   65
 73
    6
 40
4.7625
 49
1.905
 74
    0
 49
-0.9525
 74
    0
 49
0
 74
    0
 49
-0.9525
 74
    0
 49
0
 74
    0
 49
-0.9525
 74
    0
  0
LTYPE
  5
40
330
5
100
AcDbSymbolTableRecord
100
AcDbLinetypeTableRecord
  2
DIVIDE2
 70
    0
  3
Divide (.5x) __..__..__..__..__..__..__..__.._
 72
   65
 73
    6
 40
15.875
 49
6.35
 74
    0
 49
-3.175
 74
    0
 49
0
 74
    0
 49
-3.175
 74
    0
 49
0
 74
    0
 49
-3.175
 74
    0
  0
LTYPE
  5
41
330
5
100
AcDbSymbolTableRecord
100
AcDbLinetypeTableRecord
  2
DIVIDEX2
 70
    0
  3
Divide (2x) ________  .  .  ________  .  .  _
 72
   65
 73
    6
 40
63.5
 49
25.4
 74
    0
 49
-12.7
 74
    0
 49
0
 74
    0
 49
-12.7
 74
    0
 49
0
 74
    0
 49
-12.7
 74
    0
  0
LTYPE
  5
42
330
5
100
AcDbSymbolTableRecord
100
AcDbLinetypeTableRecord
  2
BORDER
 70
    0
  3
Border __ __ . __ __ . __ __ . __ __ . __ __ .
 72
   65
 73
    6
 40
44.45
 49
12.7
 74
    0
 49
-6.35
 74
    0
 49
12.7
 74
    0
 49
-6.35
 74
    0
 49
0
 74
    0
 49
-6.35
 74
    0
  0
LTYPE
  5
43
330
5
100
AcDbSymbolTableRecord
100
AcDbLinetypeTableRecord
  2
BORDERTINY
 70
    0
  3
Border (.15x) __.__.__.__.__.__.__.__.__.__.__.
 72
   65
 73
    6
 40
6.6675
 49
1.905
 74
    0
 49
-0.9525
 74
    0
 49
1.905
 74
    0
 49
-0.9525
 74
    0
 49
0
 74
    0
 49
-0.9525
 74
    0
  0
LTYPE
  5
44
330
5
100
AcDbSymbolTableRecord
100
AcDbLinetypeTableRecord
  2
BORDER2
 70
    0
  3
Border (.5x) __.__.__.__.__.__.__.__.__.__.__.
 72
   65
 73
    6
 40
22.225
 49
6.35
 74
    0
 49
-3.175
 74
    0
 49
6.35
 74
    0
 49
-3.175
 74
    0
 49
0
 74
    0
 49
-3.175
 74
    0
  0
LTYPE
  5
45
330
5
100
AcDbSymbolTableRecord
100
AcDbLinetypeTableRecord
  2
BORDERX2
 70
    0
  3
Border (2x) ____  ____  .  ____  ____  .  ___
 72
   65
 73
    6
 40
88.89999999999999
 49
25.4
 74
    0
 49
-12.7
 74
    0
 49
25.4
 74
    0
 49
-12.7
 74
    0
 49
0
 74
    0
 49
-12.7
 74
    0
  0
LTYPE
  5
46
330
5
100
AcDbSymbolTableRecord
100
AcDbLinetypeTableRecord
  2
CENTER
 70
    0
  3
Center ____ _ ____ _ ____ _ ____ _ ____ _ ____
 72
   65
 73
    4
 40
50.8
 49
31.75
 74
    0
 49
-6.35
 74
    0
 49
6.35
 74
    0
 49
-6.35
 74
    0
  0
LTYPE
  5
47
330
5
100
AcDbSymbolTableRecord
100
AcDbLinetypeTableRecord
  2
CENTERTINY
 70
    0
  3
Center (.15x) ___ _ ___ _ ___ _ ___ _ ___ _ ___
 72
   65
 73
    4
 40
7.62
 49
4.7625
 74
    0
 49
-0.9525
 74
    0
 49
0.9525
 74
    0
 49
-0.9525
 74
    0
  0
LTYPE
  5
48
330
5
100
AcDbSymbolTableRecord
100
AcDbLinetypeTableRecord
  2
CENTER2
 70
    0
  3
Center (.5x) ___ _ ___ _ ___ _ ___ _ ___ _ ___
 72
   65
 73
    4
 40
28.575
 49
19.05
 74
    0
 49
-3.175
 74
    0
 49
3.175
 74
    0
 49
-3.175
 74
    0
  0
LTYPE
  5
49
330
5
100
AcDbSymbolTableRecord
100
AcDbLinetypeTableRecord
  2
CENTERX2
 70
    0
  3
Center (2x) ________  __  ________  __  _____
 72
   65
 73
    4
 40
101.6
 49
63.5
 74
    0
 49
-12.7
 74
    0
 49
12.7
 74
    0
 49
-12.7
 74
    0
  0
ENDTAB
  0
TABLE
  2
LAYER
  5
2
330
0
100
AcDbSymbolTable
 70
    1
  0
LAYER
  5
10
330
2
100
AcDbSymbolTableRecord
100
AcDbLayerTableRecord
  2
0
 70
    0
 62
    7
  6
CONTINUOUS
370
    0
390
F
  0
LAYER
  5
4A
330
2
100
AcDbSymbolTableRecord
100
AcDbLayerTableRecord
  2
drills_NPTH
 70
    0
 62
    7
  6
CONTINUOUS
370
   -3
390
F
  0
LAYER
  5
4B
330
2
100
AcDbSymbolTableRecord
100
AcDbLayerTableRecord
  2
holes
 70
    0
 62
    7
  6
CONTINUOUS
370
   -3
390
F
  0
LAYER
  5
4C
330
2
100
AcDbSymbolTableRecord
100
AcDbLayerTableRecord
  2
outline
 70
    0
 62
    7
  6
CONTINUOUS
370
   -3
390
F
  0
ENDTAB
  0
TABLE
  2
STYLE
  5
3
330
0
100
AcDbSymbolTable
 70
    3
  0
STYLE
  5
4D
330
2
100
AcDbSymbolTableRecord
100
AcDbTextStyleTableRecord
  2
Standard
 70
    0
 40
0
 41
1
 50
0
 71
    0
 42
1
  3
txt
  4

  0
ENDTAB
  0
TABLE
  2
VIEW
  5
6
330
0
100
AcDbSymbolTable
 70
    0
  0
ENDTAB
  0
TABLE
  2
UCS
  5
7
330
0
100
AcDbSymbolTable
 70
    0
  0
ENDTAB
  0
TABLE
  2
APPID
  5
9
330
0
100
AcDbSymbolTable
 70
    1
  0
APPID
  5
12
330
9
100
AcDbSymbolTableRecord
100
AcDbRegAppTableRecord
  2
ACAD
 70
    0
  0
APPID
  5
4E
330
9
100
AcDbSymbolTableRecord
100
AcDbRegAppTableRecord
  2
LibreCad
 70
    0
  0
ENDTAB
  0
TABLE
  2
DIMSTYLE
  5
A
330
0
100
AcDbSymbolTable
 70
    1
100
AcDbDimStyleTable
 71
    1
  0
DIMSTYLE
105
4F
330
A
100
AcDbSymbolTableRecord
100
AcDbDimStyleTableRecord
  2
Standard
 70
    0
 40
1
 41
2.5
 42
0.625
 43
0.38
 44
1.25
 45
0
 46
0
 47
0
 48
0
 49
1
140
2.5
141
0.09
142
2.5
143
25.4
144
1
145
0
146
1
147
0.625
148
0
 71
    0
 72
    0
 73
    0
 74
    1
 75
    0
 76
    0
 77
    0
 78
    1
 79
    0
170
    0
171
    2
172
    0
173
    0
174
    0
175
    0
176
    0
177
    0
178
    0
179
    0
271
    2
272
    4
273
    2
274
    2
275
    0
276
    0
277
    2
278
    0
279
    0
280
    0
281
    0
282
    0
283
    1
284
    0
285
    0
286
    0
288
    0
289
    3
340
standard
341

371
   -2
372
   -2
  0
ENDTAB
  0
TABLE
  2
BLOCK_RECORD
  5
1
330
0
100
AcDbSymbolTable
 70
    2
  0
BLOCK_RECORD
  5
1F
330
1
100
AcDbSymbolTableRecord
100
AcDbBlockTableRecord
  2
*Model_Space
 70
    0
280
    1
281
    0
  0
BLOCK_RECORD
  5
1E
330
1
100
AcDbSymbolTableRecord
100
AcDbBlockTableRecord
  2
*Paper_Space
 70
    0
280
    1
281
    0
  0
ENDTAB
  0
ENDSEC
  0
SECTION
  2
BLOCKS
  0
BLOCK
  5
20
330
1F
100
AcDbEntity
  8
0
100
AcDbBlockBegin
  2
*Model_Space
 70
    0
 10
0
 20
0
 30
0
  3
*Model_Space
  1

  0
ENDBLK
  5
21
330
1F
100
AcDbEntity
  8
0
100
AcDbBlockEnd
  0
BLOCK
  5
1C
330
1B
100
AcDbEntity
  8
0
100
AcDbBlockBegin
  2
*Paper_Space
 70
    0
 10
0
 20
0
 30
0
  3
*Paper_Space
  1

  0
ENDBLK
  5
1D
330
1F
100
AcDbEntity
  8
0
100
AcDbBlockEnd
  0
ENDSEC
  0
SECTION
  2
ENTITIES
  0
LWPOLYLINE
  5
50
100
AcDbEntity
  8
outline
  6
ByLayer
 62
  256
370
   -1
100
AcDbPolyline
 90
  220
 70
    1
 43
0
 10
-78.3
 20
3.5
 10
-78.289534375
 20
3.260321875
 10
-78.258221875
 20
3.02246875
 10
-78.20629687500001
 20
2.788246875
 10
-78.13415625
 20
2.55944375
 10
-78.04234687500001
 20
2.3378
 10
-77.93156875
 20
2.125
 10
-77.80266875000001
 20
1.922665625
 10
-77.656621875
 20
1.732334375
 10
-77.49454375000001
 20
1.55545625
 10
-77.317665625
 20
1.393378125
 10
-77.127334375
 20
1.24733125
 10
-76.925
 20
1.11843125
 10
-76.71220000000001
 20
1.007653125
 10
-76.49055625
 20
0.9158437500000001
 10
-76.261753125
 20
0.843703125
 10
-76.02753125000001
 20
0.791778125
 10
-75.78967812500001
 20
0.760465625
 10
-75.55
 20
0.75
 10
-75.114221875
 20
0.730975
 10
-74.681759375
 20
0.6740375000000001
 10
-74.25590625000001
 20
0.579628125
 10
-73.8399
 20
0.4484625
 10
-73.436909375
 20
0.2815375
 10
-73.05
 20
0.08012812500000001
 10
-72.68211875
 20
-0.154240625
 10
-72.3360625
 20
-0.419778125
 10
-72.014465625
 20
-0.714465625
 10
-71.719778125
 20
-1.0360625
 10
-71.454240625
 20
-1.38211875
 10
-71.21987187500001
 20
-1.75
 10
-71.0184625
 20
-2.136909375
 10
-70.85153750000001
 20
-2.5399
 10
-70.720371875
 20
-2.95590625
 10
-70.6259625
 20
-3.381759375
 10
-70.569025
 20
-3.814221875
 10
-70.55
 20
-4.25
 10
-70.539534375
 20
-4.489678125
 10
-70.508221875
 20
-4.72753125
 10
-70.45629687500001
 20
-4.961753125
 10
-70.38415625
 20
-5.19055625
 10
-70.29234687500001
 20
-5.4122
 10
-70.18156875
 20
-5.625
 10
-70.05266875000001
 20
-5.827334375
 10
-69.906621875
 20
-6.017665625
 10
-69.74454375000001
 20
-6.19454375
 10
-69.567665625
 20
-6.356621875
 10
-69.377334375
 20
-6.502668750000001
 10
-69.175
 20
-6.63156875
 10
-68.96220000000001
 20
-6.742346875
 10
-68.74055625
 20
-6.83415625
 10
-68.511753125
 20
-6.906296875000001
 10
-68.27753125000001
 20
-6.958221875
 10
-68.03967812500001
 20
-6.989534375000001
 10
-67.8
 20
-7
 10
67.8
 20
-7
 10
68.03967812500001
 20
-6.989534375000001
 10
68.27753125000001
 20
-6.958221875
 10
68.511753125
 20
-6.906296875000001
 10
68.74055625
 20
-6.83415625
 10
68.96220000000001
 20
-6.742346875
 10
69.175
 20
-6.63156875
 10
69.377334375
 20
-6.502668750000001
 10
69.567665625
 20
-6.356621875
 10
69.74454375000001
 20
-6.19454375
 10
69.906621875
 20
-6.017665625
 10
70.05266875000001
 20
-5.827334375
 10
70.18156875
 20
-5.625
 10
70.29234687500001
 20
-5.4122
 10
70.38415625
 20
-5.19055625
 10
70.45629687500001
 20
-4.961753125
 10
70.508221875
 20
-4.72753125
 10
70.539534375
 20
-4.489678125
 10
70.55
 20
-4.25
 10
70.569025
 20
-3.814221875
 10
70.6259625
 20
-3.381759375
 10
70.720371875
 20
-2.95590625
 10
70.85153750000001
 20
-2.5399
 10
71.0184625
 20
-2.136909375
 10
71.21987187500001
 20
-1.75
 10
71.454240625
 20
-1.38211875
 10
71.719778125
 20
-1.0360625
 10
72.014465625
 20
-0.714465625
 10
72.3360625
 20
-0.419778125
 10
72.68211875
 20
-0.154240625
 10
73.05
 20
0.08012812500000001
 10
73.436909375
 20
0.2815375
 10
73.8399
 20
0.4484625
 10
74.25590625000001
 20
0.579628125
 10
74.681759375
 20
0.6740375000000001
 10
75.114221875
 20
0.730975
 10
75.55
 20
0.75
 10
75.78967812500001
 20
0.760465625
 10
76.02753125000001
 20
0.791778125
 10
76.261753125
 20
0.843703125
 10
76.49055625
 20
0.9158437500000001
 10
76.71220000000001
 20
1.007653125
 10
76.925
 20
1.11843125
 10
77.127334375
 20
1.24733125
 10
77.317665625
 20
1.393378125
 10
77.49454375000001
 20
1.55545625
 10
77.656621875
 20
1.732334375
 10
77.80266875000001
 20
1.922665625
 10
77.93156875
 20
2.125
 10
78.04234687500001
 20
2.3378
 10
78.13415625
 20
2.55944375
 10
78.20629687500001
 20
2.788246875
 10
78.258221875
 20
3.02246875
 10
78.289534375
 20
3.260321875
 10
78.3
 20
3.5
 10
78.3
 20
21.5
 10
78.289534375
 20
21.739678125
 10
78.258221875
 20
21.97753125
 10
78.20629687500001
 20
22.211753125
 10
78.13415625
 20
22.44055625
 10
78.04234687500001
 20
22.6622
 10
77.93156875
 20
22.875
 10
77.80266875000001
 20
23.077334375
 10
77.656621875
 20
23.267665625
 10
77.49454375000001
 20
23.44454375
 10
77.317665625
 20
23.606621875
 10
77.127334375
 20
23.75266875
 10
76.925
 20
23.88156875
 10
76.71220000000001
 20
23.992346875
 10
76.49055625
 20
24.08415625
 10
76.261753125
 20
24.156296875
 10
76.02753125000001
 20
24.208221875
 10
75.78967812500001
 20
24.239534375
 10
75.55
 20
24.25
 10
75.114221875
 20
24.269025
 10
74.681759375
 20
24.3259625
 10
74.25590625000001
 20
24.420371875
 10
73.8399
 20
24.5515375
 10
73.436909375
 20
24.7184625
 10
73.05
 20
24.919871875
 10
72.68211875
 20
25.154240625
 10
72.3360625
 20
25.419778125
 10
72.014465625
 20
25.714465625
 10
71.719778125
 20
26.0360625
 10
71.454240625
 20
26.38211875
 10
71.21987187500001
 20
26.75
 10
71.0184625
 20
27.136909375
 10
70.85153750000001
 20
27.5399
 10
70.720371875
 20
27.95590625
 10
70.6259625
 20
28.381759375
 10
70.569025
 20
28.814221875
 10
70.55
 20
29.25
 10
70.539534375
 20
29.489678125
 10
70.508221875
 20
29.72753125
 10
70.45629687500001
 20
29.961753125
 10
70.38415625
 20
30.19055625
 10
70.29234687500001
 20
30.4122
 10
70.18156875
 20
30.625
 10
70.05266875000001
 20
30.827334375
 10
69.906621875
 20
31.017665625
 10
69.74454375000001
 20
31.19454375
 10
69.567665625
 20
31.356621875
 10
69.377334375
 20
31.50266875
 10
69.175
 20
31.63156875
 10
68.96220000000001
 20
31.742346875
 10
68.74055625
 20
31.83415625
 10
68.511753125
 20
31.906296875
 10
68.27753125000001
 20
31.958221875
 10
68.03967812500001
 20
31.989534375
 10
67.8
 20
32
 10
-67.8
 20
32
 10
-68.03967812500001
 20
31.989534375
 10
-68.27753125000001
 20
31.958221875
 10
-68.511753125
 20
31.906296875
 10
-68.74055625
 20
31.83415625
 10
-68.96220000000001
 20
31.742346875
 10
-69.175
 20
31.63156875
 10
-69.377334375
 20
31.50266875
 10
-69.567665625
 20
31.356621875
 10
-69.74454375000001
 20
31.19454375
 10
-69.906621875
 20
31.017665625
 10
-70.05266875000001
 20
30.827334375
 10
-70.18156875
 20
30.625
 10
-70.29234687500001
 20
30.4122
 10
-70.38415625
 20
30.19055625
 10
-70.45629687500001
 20
29.961753125
 10
-70.508221875
 20
29.72753125
 10
-70.539534375
 20
29.489678125
 10
-70.55
 20
29.25
 10
-70.569025
 20
28.814221875
 10
-70.6259625
 20
28.381759375
 10
-70.720371875
 20
27.95590625
 10
-70.85153750000001
 20
27.5399
 10
-71.0184625
 20
27.136909375
 10
-71.21987187500001
 20
26.75
 10
-71.454240625
 20
26.38211875
 10
-71.719778125
 20
26.0360625
 10
-72.014465625
 20
25.714465625
 10
-72.3360625
 20
25.419778125
 10
-72.68211875
 20
25.154240625
 10
-73.05
 20
24.919871875
 10
-73.436909375
 20
24.7184625
 10
-73.8399
 20
24.5515375
 10
-74.25590625000001
 20
24.420371875
 10
-74.681759375
 20
24.3259625
 10
-75.114221875
 20
24.269025
 10
-75.55
 20
24.25
 10
-75.78967812500001
 20
24.239534375
 10
-76.02753125000001
 20
24.208221875
 10
-76.261753125
 20
24.156296875
 10
-76.49055625
 20
24.08415625
 10
-76.71220000000001
 20
23.992346875
 10
-76.925
 20
23.88156875
 10
-77.127334375
 20
23.75266875
 10
-77.317665625
 20
23.606621875
 10
-77.49454375000001
 20
23.44454375
 10
-77.656621875
 20
23.267665625
 10
-77.80266875000001
 20
23.077334375
 10
-77.93156875
 20
22.875
 10
-78.04234687500001
 20
22.6622
 10
-78.13415625
 20
22.44055625
 10
-78.20629687500001
 20
22.211753125
 10
-78.258221875
 20
21.97753125
 10
-78.289534375
 20
21.739678125
 10
-78.3
 20
21.5
  0
LWPOLYLINE
  5
51
100
AcDbEntity
  8
holes
  6
ByLayer
 62
  256
370
   -1
100
AcDbPolyline
 90
   76
 70
    1
 43
0
 10
48.02
 20
0.5
 10
48.02380625
 20
0.41284375
 10
48.03519062500001
 20
0.326353125
 10
48.05407187500001
 20
0.24118125
 10
48.08030625
 20
0.157978125
 10
48.113690625
 20
0.07738125
 10
48.153971875
 20
0
 10
48.200846875
 20
-0.07357812500000001
 10
48.253953125
 20
-0.1427875
 10
48.312890625
 20
-0.20710625
 10
48.377209375
 20
-0.266046875
 10
48.44642187500001
 20
-0.319153125
 10
48.519996875
 20
-0.366028125
 10
48.59737812500001
 20
-0.406309375
 10
48.677978125
 20
-0.43969375
 10
48.761178125
 20
-0.465928125
 10
48.84635
 20
-0.484809375
 10
48.932840625
 20
-0.496196875
 10
49.02
 20
-0.5
 10
65.28
 20
-0.5
 10
65.36715625000001
 20
-0.49619375
 10
65.453646875
 20
-0.48480625
 10
65.53881875
 20
-0.465925
 10
65.62201875000001
 20
-0.43969375
 10
65.70261562500001
 20
-0.406309375
 10
65.77999687500001
 20
-0.366025
 10
65.85357500000001
 20
-0.319153125
 10
65.92278437500001
 20
-0.26604375
 10
65.987103125
 20
-0.20710625
 10
66.046040625
 20
-0.1427875
 10
66.09915000000001
 20
-0.07357812500000001
 10
66.146021875
 20
-3.125e-06
 10
66.18630625
 20
0.07738125
 10
66.219690625
 20
0.157978125
 10
66.24592187500001
 20
0.241178125
 10
66.264803125
 20
0.32635
 10
66.276190625
 20
0.412840625
 10
66.28
 20
0.5
 10
66.28
 20
12.84
 10
66.272390625
 20
13.0143125
 10
66.249615625
 20
13.187296875
 10
66.211853125
 20
13.3576375
 10
66.159384375
 20
13.524040625
 10
66.09261562500001
 20
13.6852375
 10
66.01205
 20
13.84
 10
65.91830312500001
 20
13.987153125
 10
65.8120875
 20
14.125575
 10
65.69421250000001
 20
14.2542125
 10
65.56557500000001
 20
14.3720875
 10
65.427153125
 20
14.478303125
 10
65.28
 20
14.57205
 10
65.1252375
 20
14.652615625
 10
64.96404062500001
 20
14.719384375
 10
64.79763750000001
 20
14.771853125
 10
64.627296875
 20
14.809615625
 10
64.4543125
 20
14.832390625
 10
64.28
 20
14.84
 10
50.02
 20
14.84
 10
49.8456875
 20
14.832390625
 10
49.67270312500001
 20
14.809615625
 10
49.5023625
 20
14.771853125
 10
49.335959375
 20
14.719384375
 10
49.1747625
 20
14.652615625
 10
49.02
 20
14.57205
 10
48.872846875
 20
14.478303125
 10
48.734425
 20
14.3720875
 10
48.60578750000001
 20
14.2542125
 10
48.4879125
 20
14.125575
 10
48.381696875
 20
13.987153125
 10
48.28795
 20
13.84
 10
48.207384375
 20
13.6852375
 10
48.140615625
 20
13.524040625
 10
48.088146875
 20
13.3576375
 10
48.050384375
 20
13.187296875
 10
48.027609375
 20
13.0143125
 10
48.02
 20
12.84
  0
LWPOLYLINE
  5
52
100
AcDbEntity
  8
holes
  6
ByLayer
 62
  256
370
   -1
100
AcDbPolyline
 90
   76
 70
    1
 43
0
 10
-9.76
 20
0.5
 10
-9.756190625
 20
0.412840625
 10
-9.744803125000001
 20
0.32635
 10
-9.725921875000001
 20
0.241178125
 10
-9.699690625000001
 20
0.157978125
 10
-9.66630625
 20
0.07738125
 10
-9.626021875000001
 20
-3.125e-06
 10
-9.57915
 20
-0.07357812500000001
 10
-9.526040625
 20
-0.1427875
 10
-9.467103125000001
 20
-0.20710625
 10
-9.402784375000001
 20
-0.26604375
 10
-9.333575
 20
-0.319153125
 10
-9.259996875000001
 20
-0.366025
 10
-9.182615625
 20
-0.406309375
 10
-9.102018750000001
 20
-0.43969375
 10
-9.018818750000001
 20
-0.465925
 10
-8.933646875000001
 20
-0.48480625
 10
-8.847156250000001
 20
-0.49619375
 10
-8.76
 20
-0.5
 10
26.54
 20
-0.5
 10
26.627159375
 20
-0.496196875
 10
26.71365
 20
-0.484809375
 10
26.798821875
 20
-0.465928125
 10
26.882021875
 20
-0.43969375
 10
26.962621875
 20
-0.406309375
 10
27.040003125
 20
-0.366028125
 10
27.113578125
 20
-0.319153125
 10
27.182790625
 20
-0.266046875
 10
27.247109375
 20
-0.20710625
 10
27.306046875
 20
-0.1427875
 10
27.359153125
 20
-0.07357812500000001
 10
27.406028125
 20
0
 10
27.446309375
 20
0.07738125
 10
27.47969375
 20
0.157978125
 10
27.505928125
 20
0.24118125
 10
27.524809375
 20
0.326353125
 10
27.53619375
 20
0.41284375
 10
27.54
 20
0.5
 10
27.54
 20
6.7
 10
27.53619375
 20
6.787156250000001
 10
27.52480625
 20
6.873646875
 10
27.505925
 20
6.958818750000001
 10
27.47969375
 20
7.04201875
 10
27.44630625
 20
7.12261875
 10
27.406025
 20
7.2
 10
27.359153125
 20
7.273575
 10
27.30604375
 20
7.3427875
 10
27.24710625
 20
7.40710625
 10
27.1827875
 20
7.466043750000001
 10
27.113575
 20
7.519153125000001
 10
27.04
 20
7.566025000000001
 10
26.96261875
 20
7.60630625
 10
26.88201875
 20
7.63969375
 10
26.79881875
 20
7.665925000000001
 10
26.713646875
 20
7.68480625
 10
26.62715625
 20
7.69619375
 10
26.54
 20
7.7
 10
-8.76
 20
7.7
 10
-8.847156250000001
 20
7.69619375
 10
-8.933646875000001
 20
7.68480625
 10
-9.018818750000001
 20
7.665925000000001
 10
-9.102018750000001
 20
7.63969375
 10
-9.18261875
 20
7.60630625
 10
-9.26
 20
7.566025000000001
 10
-9.333575
 20
7.519153125000001
 10
-9.402787500000001
 20
7.466043750000001
 10
-9.467106250000001
 20
7.40710625
 10
-9.526043750000001
 20
7.3427875
 10
-9.579153125000001
 20
7.273575
 10
-9.626025
 20
7.2
 10
-9.66630625
 20
7.12261875
 10
-9.69969375
 20
7.04201875
 10
-9.725925
 20
6.958818750000001
 10
-9.74480625
 20
6.873646875
 10
-9.756193750000001
 20
6.787156250000001
 10
-9.76
 20
6.7
  0
LWPOLYLINE
  5
53
100
AcDbEntity
  8
holes
  6
ByLayer
 62
  256
370
   -1
100
AcDbPolyline
 90
   76
 70
    1
 43
0
 10
33.1
 20
1
 10
33.105709375
 20
0.869265625
 10
33.1227875
 20
0.739528125
 10
33.1511125
 20
0.6117718750000001
 10
33.1904625
 20
0.48696875
 10
33.2405375
 20
0.366071875
 10
33.3009625
 20
0.25
 10
33.37127187500001
 20
0.139634375
 10
33.450934375
 20
0.03581875
 10
33.539340625
 20
-0.060659375
 10
33.63581875
 20
-0.149065625
 10
33.739634375
 20
-0.228728125
 10
33.85
 20
-0.2990375
 10
33.966071875
 20
-0.3594625
 10
34.08696875
 20
-0.4095375
 10
34.211771875
 20
-0.4488875
 10
34.339528125
 20
-0.4772125
 10
34.469265625
 20
-0.494290625
 10
34.6
 20
-0.5
 10
41.6
 20
-0.5
 10
41.730734375
 20
-0.494290625
 10
41.860471875
 20
-0.4772125
 10
41.988228125
 20
-0.4488875
 10
42.11303125
 20
-0.4095375
 10
42.233928125
 20
-0.3594625
 10
42.35
 20
-0.2990375
 10
42.460365625
 20
-0.228728125
 10
42.56418125
 20
-0.149065625
 10
42.660659375
 20
-0.060659375
 10
42.749065625
 20
0.03581875
 10
42.828728125
 20
0.139634375
 10
42.8990375
 20
0.25
 10
42.9594625
 20
0.366071875
 10
43.0095375
 20
0.48696875
 10
43.0488875
 20
0.6117718750000001
 10
43.0772125
 20
0.739528125
 10
43.094290625
 20
0.869265625
 10
43.1
 20
1
 10
43.1
 20
2.2
 10
43.094290625
 20
2.330734375
 10
43.0772125
 20
2.460471875
 10
43.0488875
 20
2.588228125
 10
43.0095375
 20
2.71303125
 10
42.9594625
 20
2.833928125
 10
42.8990375
 20
2.95
 10
42.828728125
 20
3.060365625
 10
42.749065625
 20
3.16418125
 10
42.660659375
 20
3.260659375
 10
42.56418125
 20
3.349065625
 10
42.460365625
 20
3.428728125
 10
42.35
 20
3.4990375
 10
42.233928125
 20
3.5594625
 10
42.11303125
 20
3.6095375
 10
41.988228125
 20
3.6488875
 10
41.860471875
 20
3.6772125
 10
41.730734375
 20
3.694290625
 10
41.6
 20
3.7
 10
34.6
 20
3.7
 10
34.469265625
 20
3.694290625
 10
34.339528125
 20
3.6772125
 10
34.211771875
 20
3.6488875
 10
34.08696875
 20
3.6095375
 10
33.966071875
 20
3.5594625
 10
33.85
 20
3.4990375
 10
33.739634375
 20
3.428728125
 10
33.63581875
 20
3.349065625
 10
33.539340625
 20
3.260659375
 10
33.450934375
 20
3.16418125
 10
33.37127187500001
 20
3.060365625
 10
33.3009625
 20
2.95
 10
33.2405375
 20
2.833928125
 10
33.1904625
 20
2.71303125
 10
33.1511125
 20
2.588228125
 10
33.1227875
 20
2.460471875
 10
33.105709375
 20
2.330734375
 10
33.1
 20
2.2
  0
LWPOLYLINE
  5
54
100
AcDbEntity
  8
holes
  6
ByLayer
 62
  256
370
   -1
100
AcDbPolyline
 90
  152
 70
    1
 43
0
 10
-59
 20
0.541978125
 10
-59.0076875
 20
0.356096875
 10
-59.02305
 20
0.170690625
 10
-59.04606250000001
 20
-0.013921875
 10
-59.07668437500001
 20
-0.197428125
 10
-59.1148625
 20
-0.379509375
 10
-59.160534375
 20
-0.559859375
 10
-59.21361875
 20
-0.738165625
 10
-59.274025
 20
-0.9141281250000001
 10
-59.341653125
 20
-1.08744375
 10
-59.41638750000001
 20
-1.257815625
 10
-59.49809375
 20
-1.424953125
 10
-59.586640625
 20
-1.588571875
 10
-59.68187187500001
 20
-1.74839375
 10
-59.783628125
 20
-1.904140625
 10
-59.89173437500001
 20
-2.05555
 10
-60.006003125
 20
-2.2023625
 10
-60.126240625
 20
-2.344328125
 10
-60.25224375000001
 20
-2.48120625
 10
-60.38379375
 20
-2.61275625
 10
-60.52067187500001
 20
-2.738759375
 10
-60.6626375
 20
-2.858996875
 10
-60.80945000000001
 20
-2.973265625
 10
-60.96085937500001
 20
-3.081371875
 10
-61.11660625
 20
-3.183128125
 10
-61.276428125
 20
-3.278359375
 10
-61.440046875
 20
-3.36690625
 10
-61.607184375
 20
-3.4486125
 10
-61.77755625
 20
-3.523346875
 10
-61.950871875
 20
-3.590975
 10
-62.126834375
 20
-3.65138125
 10
-62.305140625
 20
-3.704465625
 10
-62.485490625
 20
-3.7501375
 10
-62.667571875
 20
-3.788315625
 10
-62.851078125
 20
-3.8189375
 10
-63.035690625
 20
-3.84195
 10
-63.221096875
 20
-3.8573125
 10
-63.406978125
 20
-3.865
 10
-63.59302187500001
 20
-3.865
 10
-63.77890312500001
 20
-3.8573125
 10
-63.96430937500001
 20
-3.84195
 10
-64.148921875
 20
-3.8189375
 10
-64.33242812500001
 20
-3.788315625
 10
-64.514509375
 20
-3.7501375
 10
-64.69485937500001
 20
-3.704465625
 10
-64.873165625
 20
-3.65138125
 10
-65.04912812500001
 20
-3.590975
 10
-65.22244375
 20
-3.523346875
 10
-65.392815625
 20
-3.4486125
 10
-65.55995312500001
 20
-3.36690625
 10
-65.723571875
 20
-3.278359375
 10
-65.88339375
 20
-3.183128125
 10
-66.039140625
 20
-3.081371875
 10
-66.19055
 20
-2.973265625
 10
-66.3373625
 20
-2.858996875
 10
-66.47932812500001
 20
-2.738759375
 10
-66.61620625
 20
-2.61275625
 10
-66.74775625000001
 20
-2.48120625
 10
-66.87375937500001
 20
-2.344328125
 10
-66.99399687500001
 20
-2.2023625
 10
-67.108265625
 20
-2.05555
 10
-67.21637187500001
 20
-1.904140625
 10
-67.318128125
 20
-1.74839375
 10
-67.413359375
 20
-1.588571875
 10
-67.50190625
 20
-1.424953125
 10
-67.5836125
 20
-1.257815625
 10
-67.65834687500001
 20
-1.08744375
 10
-67.72597500000001
 20
-0.9141281250000001
 10
-67.78638125000001
 20
-0.738165625
 10
-67.839465625
 20
-0.559859375
 10
-67.8851375
 20
-0.379509375
 10
-67.923315625
 20
-0.197428125
 10
-67.95393750000001
 20
-0.013921875
 10
-67.97695
 20
0.170690625
 10
-67.9923125
 20
0.356096875
 10
-68
 20
0.541978125
 10
-68
 20
0.728021875
 10
-67.9923125
 20
0.913903125
 10
-67.97695
 20
1.099309375
 10
-67.95393750000001
 20
1.283921875
 10
-67.923315625
 20
1.467428125
 10
-67.8851375
 20
1.649509375
 10
-67.839465625
 20
1.829859375
 10
-67.78638125000001
 20
2.008165625
 10
-67.72597500000001
 20
2.184128125
 10
-67.65834687500001
 20
2.35744375
 10
-67.5836125
 20
2.527815625
 10
-67.50190625
 20
2.694953125
 10
-67.413359375
 20
2.858571875
 10
-67.318128125
 20
3.01839375
 10
-67.21637187500001
 20
3.174140625
 10
-67.108265625
 20
3.32555
 10
-66.99399687500001
 20
3.4723625
 10
-66.87375937500001
 20
3.614328125
 10
-66.74775625000001
 20
3.75120625
 10
-66.61620625
 20
3.88275625
 10
-66.47932812500001
 20
4.008759375
 10
-66.3373625
 20
4.128996875
 10
-66.19055
 20
4.243265625
 10
-66.039140625
 20
4.351371875
 10
-65.88339375
 20
4.453128125
 10
-65.723571875
 20
4.548359375
 10
-65.55995312500001
 20
4.63690625
 10
-65.392815625
 20
4.7186125
 10
-65.22244375
 20
4.793346875
 10
-65.04912812500001
 20
4.860975
 10
-64.873165625
 20
4.92138125
 10
-64.69485937500001
 20
4.974465625000001
 10
-64.514509375
 20
5.020137500000001
 10
-64.33242812500001
 20
5.058315625000001
 10
-64.148921875
 20
5.0889375
 10
-63.96430937500001
 20
5.11195
 10
-63.77890312500001
 20
5.1273125
 10
-63.59302187500001
 20
5.135000000000001
 10
-63.406978125
 20
5.135000000000001
 10
-63.221096875
 20
5.1273125
 10
-63.035690625
 20
5.11195
 10
-62.851078125
 20
5.0889375
 10
-62.667571875
 20
5.058315625000001
 10
-62.485490625
 20
5.020137500000001
 10
-62.305140625
 20
4.974465625000001
 10
-62.126834375
 20
4.92138125
 10
-61.950871875
 20
4.860975
 10
-61.77755625
 20
4.793346875
 10
-61.607184375
 20
4.7186125
 10
-61.440046875
 20
4.63690625
 10
-61.276428125
 20
4.548359375
 10
-61.11660625
 20
4.453128125
 10
-60.96085937500001
 20
4.351371875
 10
-60.80945000000001
 20
4.243265625
 10
-60.6626375
 20
4.128996875
 10
-60.52067187500001
 20
4.008759375
 10
-60.38379375
 20
3.88275625
 10
-60.25224375000001
 20
3.75120625
 10
-60.126240625
 20
3.614328125
 10
-60.006003125
 20
3.4723625
 10
-59.89173437500001
 20
3.32555
 10
-59.783628125
 20
3.174140625
 10
-59.68187187500001
 20
3.01839375
 10
-59.586640625
 20
2.858571875
 10
-59.49809375
 20
2.694953125
 10
-59.41638750000001
 20
2.527815625
 10
-59.341653125
 20
2.35744375
 10
-59.274025
 20
2.184128125
 10
-59.21361875
 20
2.008165625
 10
-59.160534375
 20
1.829859375
 10
-59.1148625
 20
1.649509375
 10
-59.07668437500001
 20
1.467428125
 10
-59.04606250000001
 20
1.283921875
 10
-59.02305
 20
1.099309375
 10
-59.0076875
 20
0.913903125
 10
-59
 20
0.728021875
  0
LWPOLYLINE
  5
55
100
AcDbEntity
  8
holes
  6
ByLayer
 62
  256
370
   -1
100
AcDbPolyline
 90
  152
 70
    1
 43
0
 10
-36.775
 20
0.541978125
 10
-36.7826875
 20
0.356096875
 10
-36.79805
 20
0.170690625
 10
-36.8210625
 20
-0.013921875
 10
-36.851684375
 20
-0.197428125
 10
-36.8898625
 20
-0.379509375
 10
-36.935534375
 20
-0.559859375
 10
-36.98861875
 20
-0.738165625
 10
-37.049025
 20
-0.9141281250000001
 10
-37.116653125
 20
-1.08744375
 10
-37.1913875
 20
-1.257815625
 10
-37.27309375
 20
-1.424953125
 10
-37.361640625
 20
-1.588571875
 10
-37.456871875
 20
-1.74839375
 10
-37.558628125
 20
-1.904140625
 10
-37.666734375
 20
-2.05555
 10
-37.78100312500001
 20
-2.2023625
 10
-37.901240625
 20
-2.344328125
 10
-38.02724375
 20
-2.48120625
 10
-38.15879375
 20
-2.61275625
 10
-38.295671875
 20
-2.738759375
 10
-38.4376375
 20
-2.858996875
 10
-38.58445
 20
-2.973265625
 10
-38.735859375
 20
-3.081371875
 10
-38.89160625
 20
-3.183128125
 10
-39.051428125
 20
-3.278359375
 10
-39.215046875
 20
-3.36690625
 10
-39.382184375
 20
-3.4486125
 10
-39.55255625
 20
-3.523346875
 10
-39.725871875
 20
-3.590975
 10
-39.901834375
 20
-3.65138125
 10
-40.080140625
 20
-3.704465625
 10
-40.260490625
 20
-3.7501375
 10
-40.442571875
 20
-3.788315625
 10
-40.626078125
 20
-3.8189375
 10
-40.810690625
 20
-3.84195
 10
-40.996096875
 20
-3.8573125
 10
-41.181978125
 20
-3.865
 10
-41.368021875
 20
-3.865
 10
-41.55390312500001
 20
-3.8573125
 10
-41.739309375
 20
-3.84195
 10
-41.923921875
 20
-3.8189375
 10
-42.10742812500001
 20
-3.788315625
 10
-42.289509375
 20
-3.7501375
 10
-42.469859375
 20
-3.704465625
 10
-42.648165625
 20
-3.65138125
 10
-42.824128125
 20
-3.590975
 10
-42.99744375
 20
-3.523346875
 10
-43.167815625
 20
-3.4486125
 10
-43.33495312500001
 20
-3.36690625
 10
-43.498571875
 20
-3.278359375
 10
-43.65839375
 20
-3.183128125
 10
-43.814140625
 20
-3.081371875
 10
-43.96555
 20
-2.973265625
 10
-44.1123625
 20
-2.858996875
 10
-44.254328125
 20
-2.738759375
 10
-44.39120625
 20
-2.61275625
 10
-44.52275625
 20
-2.48120625
 10
-44.648759375
 20
-2.344328125
 10
-44.768996875
 20
-2.2023625
 10
-44.883265625
 20
-2.05555
 10
-44.991371875
 20
-1.904140625
 10
-45.093128125
 20
-1.74839375
 10
-45.188359375
 20
-1.588571875
 10
-45.27690625
 20
-1.424953125
 10
-45.3586125
 20
-1.257815625
 10
-45.43334687500001
 20
-1.08744375
 10
-45.500975
 20
-0.9141281250000001
 10
-45.56138125
 20
-0.738165625
 10
-45.614465625
 20
-0.559859375
 10
-45.6601375
 20
-0.379509375
 10
-45.698315625
 20
-0.197428125
 10
-45.7289375
 20
-0.013921875
 10
-45.75195
 20
0.170690625
 10
-45.7673125
 20
0.356096875
 10
-45.77500000000001
 20
0.541978125
 10
-45.77500000000001
 20
0.728021875
 10
-45.7673125
 20
0.913903125
 10
-45.75195
 20
1.099309375
 10
-45.7289375
 20
1.283921875
 10
-45.698315625
 20
1.467428125
 10
-45.6601375
 20
1.649509375
 10
-45.614465625
 20
1.829859375
 10
-45.56138125
 20
2.008165625
 10
-45.500975
 20
2.184128125
 10
-45.43334687500001
 20
2.35744375
 10
-45.3586125
 20
2.527815625
 10
-45.27690625
 20
2.694953125
 10
-45.188359375
 20
2.858571875
 10
-45.093128125
 20
3.01839375
 10
-44.991371875
 20
3.174140625
 10
-44.883265625
 20
3.32555
 10
-44.768996875
 20
3.4723625
 10
-44.648759375
 20
3.614328125
 10
-44.52275625
 20
3.75120625
 10
-44.39120625
 20
3.88275625
 10
-44.254328125
 20
4.008759375
 10
-44.1123625
 20
4.128996875
 10
-43.96555
 20
4.243265625
 10
-43.814140625
 20
4.351371875
 10
-43.65839375
 20
4.453128125
 10
-43.498571875
 20
4.548359375
 10
-43.33495312500001
 20
4.63690625
 10
-43.167815625
 20
4.7186125
 10
-42.99744375
 20
4.793346875
 10
-42.824128125
 20
4.860975
 10
-42.648165625
 20
4.92138125
 10
-42.469859375
 20
4.974465625000001
 10
-42.289509375
 20
5.020137500000001
 10
-42.10742812500001
 20
5.058315625000001
 10
-41.923921875
 20
5.0889375
 10
-41.739309375
 20
5.11195
 10
-41.55390312500001
 20
5.1273125
 10
-41.368021875
 20
5.135000000000001
 10
-41.181978125
 20
5.135000000000001
 10
-40.996096875
 20
5.1273125
 10
-40.810690625
 20
5.11195
 10
-40.626078125
 20
5.0889375
 10
-40.442571875
 20
5.058315625000001
 10
-40.260490625
 20
5.020137500000001
 10
-40.080140625
 20
4.974465625000001
 10
-39.901834375
 20
4.92138125
 10
-39.725871875
 20
4.860975
 10
-39.55255625
 20
4.793346875
 10
-39.382184375
 20
4.7186125
 10
-39.215046875
 20
4.63690625
 10
-39.051428125
 20
4.548359375
 10
-38.89160625
 20
4.453128125
 10
-38.735859375
 20
4.351371875
 10
-38.58445
 20
4.243265625
 10
-38.4376375
 20
4.128996875
 10
-38.295671875
 20
4.008759375
 10
-38.15879375
 20
3.88275625
 10
-38.02724375
 20
3.75120625
 10
-37.901240625
 20
3.614328125
 10
-37.78100312500001
 20
3.4723625
 10
-37.666734375
 20
3.32555
 10
-37.558628125
 20
3.174140625
 10
-37.456871875
 20
3.01839375
 10
-37.361640625
 20
2.858571875
 10
-37.27309375
 20
2.694953125
 10
-37.1913875
 20
2.527815625
 10
-37.116653125
 20
2.35744375
 10
-37.049025
 20
2.184128125
 10
-36.98861875
 20
2.008165625
 10
-36.935534375
 20
1.829859375
 10
-36.8898625
 20
1.649509375
 10
-36.851684375
 20
1.467428125
 10
-36.8210625
 20
1.283921875
 10
-36.79805
 20
1.099309375
 10
-36.7826875
 20
0.913903125
 10
-36.775
 20
0.728021875
  0
LWPOLYLINE
  5
56
100
AcDbEntity
  8
holes
  6
ByLayer
 62
  256
370
   -1
100
AcDbPolyline
 90
  152
 70
    1
 43
0
 10
-14.55
 20
0.541978125
 10
-14.5576875
 20
0.356096875
 10
-14.57305
 20
0.170690625
 10
-14.5960625
 20
-0.013921875
 10
-14.626684375
 20
-0.197428125
 10
-14.6648625
 20
-0.379509375
 10
-14.710534375
 20
-0.559859375
 10
-14.76361875
 20
-0.738165625
 10
-14.824025
 20
-0.9141281250000001
 10
-14.891653125
 20
-1.08744375
 10
-14.9663875
 20
-1.257815625
 10
-15.04809375
 20
-1.424953125
 10
-15.136640625
 20
-1.588571875
 10
-15.231871875
 20
-1.74839375
 10
-15.333628125
 20
-1.904140625
 10
-15.441734375
 20
-2.05555
 10
-15.556003125
 20
-2.2023625
 10
-15.676240625
 20
-2.344328125
 10
-15.80224375
 20
-2.48120625
 10
-15.93379375
 20
-2.61275625
 10
-16.070671875
 20
-2.738759375
 10
-16.2126375
 20
-2.858996875
 10
-16.35945
 20
-2.973265625
 10
-16.510859375
 20
-3.081371875
 10
-16.66660625
 20
-3.183128125
 10
-16.826428125
 20
-3.278359375
 10
-16.990046875
 20
-3.36690625
 10
-17.157184375
 20
-3.4486125
 10
-17.32755625
 20
-3.523346875
 10
-17.500871875
 20
-3.590975
 10
-17.676834375
 20
-3.65138125
 10
-17.855140625
 20
-3.704465625
 10
-18.035490625
 20
-3.7501375
 10
-18.217571875
 20
-3.788315625
 10
-18.401078125
 20
-3.8189375
 10
-18.585690625
 20
-3.84195
 10
-18.771096875
 20
-3.8573125
 10
-18.956978125
 20
-3.865
 10
-19.143021875
 20
-3.865
 10
-19.328903125
 20
-3.8573125
 10
-19.514309375
 20
-3.84195
 10
-19.698921875
 20
-3.8189375
 10
-19.882428125
 20
-3.788315625
 10
-20.064509375
 20
-3.7501375
 10
-20.244859375
 20
-3.704465625
 10
-20.423165625
 20
-3.65138125
 10
-20.599128125
 20
-3.590975
 10
-20.77244375
 20
-3.523346875
 10
-20.942815625
 20
-3.4486125
 10
-21.109953125
 20
-3.36690625
 10
-21.273571875
 20
-3.278359375
 10
-21.43339375
 20
-3.183128125
 10
-21.589140625
 20
-3.081371875
 10
-21.74055
 20
-2.973265625
 10
-21.8873625
 20
-2.858996875
 10
-22.029328125
 20
-2.738759375
 10
-22.16620625
 20
-2.61275625
 10
-22.29775625
 20
-2.48120625
 10
-22.423759375
 20
-2.344328125
 10
-22.543996875
 20
-2.2023625
 10
-22.658265625
 20
-2.05555
 10
-22.766371875
 20
-1.904140625
 10
-22.868128125
 20
-1.74839375
 10
-22.963359375
 20
-1.588571875
 10
-23.05190625
 20
-1.424953125
 10
-23.1336125
 20
-1.257815625
 10
-23.208346875
 20
-1.08744375
 10
-23.275975
 20
-0.9141281250000001
 10
-23.33638125
 20
-0.738165625
 10
-23.389465625
 20
-0.559859375
 10
-23.4351375
 20
-0.379509375
 10
-23.473315625
 20
-0.197428125
 10
-23.5039375
 20
-0.013921875
 10
-23.52695
 20
0.170690625
 10
-23.5423125
 20
0.356096875
 10
-23.55
 20
0.541978125
 10
-23.55
 20
0.728021875
 10
-23.5423125
 20
0.913903125
 10
-23.52695
 20
1.099309375
 10
-23.5039375
 20
1.283921875
 10
-23.473315625
 20
1.467428125
 10
-23.4351375
 20
1.649509375
 10
-23.389465625
 20
1.829859375
 10
-23.33638125
 20
2.008165625
 10
-23.275975
 20
2.184128125
 10
-23.208346875
 20
2.35744375
 10
-23.1336125
 20
2.527815625
 10
-23.05190625
 20
2.694953125
 10
-22.963359375
 20
2.858571875
 10
-22.868128125
 20
3.01839375
 10
-22.766371875
 20
3.174140625
 10
-22.658265625
 20
3.32555
 10
-22.543996875
 20
3.4723625
 10
-22.423759375
 20
3.614328125
 10
-22.29775625
 20
3.75120625
 10
-22.16620625
 20
3.88275625
 10
-22.029328125
 20
4.008759375
 10
-21.8873625
 20
4.128996875
 10
-21.74055
 20
4.243265625
 10
-21.589140625
 20
4.351371875
 10
-21.43339375
 20
4.453128125
 10
-21.273571875
 20
4.548359375
 10
-21.109953125
 20
4.63690625
 10
-20.942815625
 20
4.7186125
 10
-20.77244375
 20
4.793346875
 10
-20.599128125
 20
4.860975
 10
-20.423165625
 20
4.92138125
 10
-20.244859375
 20
4.974465625000001
 10
-20.064509375
 20
5.020137500000001
 10
-19.882428125
 20
5.058315625000001
 10
-19.698921875
 20
5.0889375
 10
-19.514309375
 20
5.11195
 10
-19.328903125
 20
5.1273125
 10
-19.143021875
 20
5.135000000000001
 10
-18.956978125
 20
5.135000000000001
 10
-18.771096875
 20
5.1273125
 10
-18.585690625
 20
5.11195
 10
-18.401078125
 20
5.0889375
 10
-18.217571875
 20
5.058315625000001
 10
-18.035490625
 20
5.020137500000001
 10
-17.855140625
 20
4.974465625000001
 10
-17.676834375
 20
4.92138125
 10
-17.500871875
 20
4.860975
 10
-17.32755625
 20
4.793346875
 10
-17.157184375
 20
4.7186125
 10
-16.990046875
 20
4.63690625
 10
-16.826428125
 20
4.548359375
 10
-16.66660625
 20
4.453128125
 10
-16.510859375
 20
4.351371875
 10
-16.35945
 20
4.243265625
 10
-16.2126375
 20
4.128996875
 10
-16.070671875
 20
4.008759375
 10
-15.93379375
 20
3.88275625
 10
-15.80224375
 20
3.75120625
 10
-15.676240625
 20
3.614328125
 10
-15.556003125
 20
3.4723625
 10
-15.441734375
 20
3.32555
 10
-15.333628125
 20
3.174140625
 10
-15.231871875
 20
3.01839375
 10
-15.136640625
 20
2.858571875
 10
-15.04809375
 20
2.694953125
 10
-14.9663875
 20
2.527815625
 10
-14.891653125
 20
2.35744375
 10
-14.824025
 20
2.184128125
 10
-14.76361875
 20
2.008165625
 10
-14.710534375
 20
1.829859375
 10
-14.6648625
 20
1.649509375
 10
-14.626684375
 20
1.467428125
 10
-14.5960625
 20
1.283921875
 10
-14.57305
 20
1.099309375
 10
-14.5576875
 20
0.913903125
 10
-14.55
 20
0.728021875
  0
CIRCLE
  5
57
100
AcDbEntity
  8
drills_NPTH
  6
ByLayer
 62
  256
370
   -1
100
AcDbCircle
 10
-63.5
 20
0.635
 40
4.5
  0
CIRCLE
  5
58
100
AcDbEntity
  8
drills_NPTH
  6
ByLayer
 62
  256
370
   -1
100
AcDbCircle
 10
-41.275
 20
0.635
 40
4.5
  0
CIRCLE
  5
59
100
AcDbEntity
  8
drills_NPTH
  6
ByLayer
 62
  256
370
   -1
100
AcDbCircle
 10
-19.05
 20
0.635
 40
4.5
  0
ENDSEC
  0
SECTION
  2
OBJECTS
  0
DICTIONARY
  5
C
330
0
100
AcDbDictionary
281
    1
  3
ACAD_GROUP
350
D
  0
DICTIONARY
  5
D
330
C
100
AcDbDictionary
281
    1
  0
PLOTSETTINGS
  5
5A
100
AcDbPlotSettings
  6
1x1
 40
0
 41
0
 42
0
 43
0
  0
ENDSEC
  0
EOF
