0
SECTION
2
HEADER
9
$ANGDIR
70
1
9
$AUNITS
70
0
9
$PROJECTNAME
1
CORS_Rear_Panel
9
$TDCREATE
40
2459985.93004717
9
$INSUNITS
70
4
0
ENDSEC
0
SECTION
2
ENTITIES
0
POLYLINE
66
1
8
outline
10
0.0
20
0.0
30
0.0
70
1
0
VERTEX
8
0
10
-78.3
20
3.5
30
0
0
VERTEX
8
0
10
-78.289534375
20
3.2603218750000003
30
0
0
VERTEX
8
0
10
-78.258221875
20
3.0224687500000003
30
0
0
VERTEX
8
0
10
-78.206296875
20
2.788246875
30
0
0
VERTEX
8
0
10
-78.13415625
20
2.5594437500000002
30
0
0
VERTEX
8
0
10
-78.042346875
20
2.3378
30
0
0
VERTEX
8
0
10
-77.93156875
20
2.125
30
0
0
VERTEX
8
0
10
-77.80266875000001
20
1.922665625
30
0
0
VERTEX
8
0
10
-77.656621875
20
1.732334375
30
0
0
VERTEX
8
0
10
-77.49454375
20
1.55545625
30
0
0
VERTEX
8
0
10
-77.317665625
20
1.3933781250000001
30
0
0
VERTEX
8
0
10
-77.127334375
20
1.24733125
30
0
0
VERTEX
8
0
10
-76.925
20
1.11843125
30
0
0
VERTEX
8
0
10
-76.71220000000001
20
1.007653125
30
0
0
VERTEX
8
0
10
-76.49055625
20
0.9158437500000001
30
0
0
VERTEX
8
0
10
-76.261753125
20
0.843703125
30
0
0
VERTEX
8
0
10
-76.02753125000001
20
0.791778125
30
0
0
VERTEX
8
0
10
-75.78967812500001
20
0.760465625
30
0
0
VERTEX
8
0
10
-75.55
20
0.75
30
0
0
VERTEX
8
0
10
-75.114221875
20
0.730975
30
0
0
VERTEX
8
0
10
-74.681759375
20
0.6740375000000001
30
0
0
VERTEX
8
0
10
-74.25590625000001
20
0.579628125
30
0
0
VERTEX
8
0
10
-73.8399
20
0.44846250000000004
30
0
0
VERTEX
8
0
10
-73.436909375
20
0.2815375
30
0
0
VERTEX
8
0
10
-73.05
20
0.08012812500000001
30
0
0
VERTEX
8
0
10
-72.68211875
20
-0.15424062500000002
30
0
0
VERTEX
8
0
10
-72.3360625
20
-0.419778125
30
0
0
VERTEX
8
0
10
-72.014465625
20
-0.714465625
30
0
0
VERTEX
8
0
10
-71.719778125
20
-1.0360625
30
0
0
VERTEX
8
0
10
-71.454240625
20
-1.38211875
30
0
0
VERTEX
8
0
10
-71.21987187500001
20
-1.75
30
0
0
VERTEX
8
0
10
-71.0184625
20
-2.136909375
30
0
0
VERTEX
8
0
10
-70.8515375
20
-2.5399000000000003
30
0
0
VERTEX
8
0
10
-70.720371875
20
-2.95590625
30
0
0
VERTEX
8
0
10
-70.6259625
20
-3.381759375
30
0
0
VERTEX
8
0
10
-70.569025
20
-3.8142218750000003
30
0
0
VERTEX
8
0
10
-70.55
20
-4.25
30
0
0
VERTEX
8
0
10
-70.539534375
20
-4.489678125
30
0
0
VERTEX
8
0
10
-70.508221875
20
-4.72753125
30
0
0
VERTEX
8
0
10
-70.456296875
20
-4.961753125
30
0
0
VERTEX
8
0
10
-70.38415625
20
-5.19055625
30
0
0
VERTEX
8
0
10
-70.292346875
20
-5.4122
30
0
0
VERTEX
8
0
10
-70.18156875
20
-5.625
30
0
0
VERTEX
8
0
10
-70.05266875000001
20
-5.827334375
30
0
0
VERTEX
8
0
10
-69.906621875
20
-6.017665625
30
0
0
VERTEX
8
0
10
-69.74454375
20
-6.19454375
30
0
0
VERTEX
8
0
10
-69.567665625
20
-6.356621875
30
0
0
VERTEX
8
0
10
-69.377334375
20
-6.502668750000001
30
0
0
VERTEX
8
0
10
-69.175
20
-6.6315687500000005
30
0
0
VERTEX
8
0
10
-68.96220000000001
20
-6.742346875
30
0
0
VERTEX
8
0
10
-68.74055625
20
-6.83415625
30
0
0
VERTEX
8
0
10
-68.511753125
20
-6.906296875000001
30
0
0
VERTEX
8
0
10
-68.27753125000001
20
-6.9582218750000004
30
0
0
VERTEX
8
0
10
-68.03967812500001
20
-6.989534375000001
30
0
0
VERTEX
8
0
10
-67.8
20
-7
30
0
0
VERTEX
8
0
10
67.8
20
-7
30
0
0
VERTEX
8
0
10
68.03967812500001
20
-6.989534375000001
30
0
0
VERTEX
8
0
10
68.27753125000001
20
-6.9582218750000004
30
0
0
VERTEX
8
0
10
68.511753125
20
-6.906296875000001
30
0
0
VERTEX
8
0
10
68.74055625
20
-6.83415625
30
0
0
VERTEX
8
0
10
68.96220000000001
20
-6.742346875
30
0
0
VERTEX
8
0
10
69.175
20
-6.6315687500000005
30
0
0
VERTEX
8
0
10
69.377334375
20
-6.502668750000001
30
0
0
VERTEX
8
0
10
69.567665625
20
-6.356621875
30
0
0
VERTEX
8
0
10
69.74454375
20
-6.19454375
30
0
0
VERTEX
8
0
10
69.906621875
20
-6.017665625
30
0
0
VERTEX
8
0
10
70.05266875000001
20
-5.827334375
30
0
0
VERTEX
8
0
10
70.18156875
20
-5.625
30
0
0
VERTEX
8
0
10
70.292346875
20
-5.4122
30
0
0
VERTEX
8
0
10
70.38415625
20
-5.19055625
30
0
0
VERTEX
8
0
10
70.456296875
20
-4.961753125
30
0
0
VERTEX
8
0
10
70.508221875
20
-4.72753125
30
0
0
VERTEX
8
0
10
70.539534375
20
-4.489678125
30
0
0
VERTEX
8
0
10
70.55
20
-4.25
30
0
0
VERTEX
8
0
10
70.569025
20
-3.8142218750000003
30
0
0
VERTEX
8
0
10
70.6259625
20
-3.381759375
30
0
0
VERTEX
8
0
10
70.720371875
20
-2.95590625
30
0
0
VERTEX
8
0
10
70.8515375
20
-2.5399000000000003
30
0
0
VERTEX
8
0
10
71.0184625
20
-2.136909375
30
0
0
VERTEX
8
0
10
71.21987187500001
20
-1.75
30
0
0
VERTEX
8
0
10
71.454240625
20
-1.38211875
30
0
0
VERTEX
8
0
10
71.719778125
20
-1.0360625
30
0
0
VERTEX
8
0
10
72.014465625
20
-0.714465625
30
0
0
VERTEX
8
0
10
72.3360625
20
-0.419778125
30
0
0
VERTEX
8
0
10
72.68211875
20
-0.15424062500000002
30
0
0
VERTEX
8
0
10
73.05
20
0.08012812500000001
30
0
0
VERTEX
8
0
10
73.436909375
20
0.2815375
30
0
0
VERTEX
8
0
10
73.8399
20
0.44846250000000004
30
0
0
VERTEX
8
0
10
74.25590625000001
20
0.579628125
30
0
0
VERTEX
8
0
10
74.681759375
20
0.6740375000000001
30
0
0
VERTEX
8
0
10
75.114221875
20
0.730975
30
0
0
VERTEX
8
0
10
75.55
20
0.75
30
0
0
VERTEX
8
0
10
75.78967812500001
20
0.760465625
30
0
0
VERTEX
8
0
10
76.02753125000001
20
0.791778125
30
0
0
VERTEX
8
0
10
76.261753125
20
0.843703125
30
0
0
VERTEX
8
0
10
76.49055625
20
0.9158437500000001
30
0
0
VERTEX
8
0
10
76.71220000000001
20
1.007653125
30
0
0
VERTEX
8
0
10
76.925
20
1.11843125
30
0
0
VERTEX
8
0
10
77.127334375
20
1.24733125
30
0
0
VERTEX
8
0
10
77.317665625
20
1.3933781250000001
30
0
0
VERTEX
8
0
10
77.49454375
20
1.55545625
30
0
0
VERTEX
8
0
10
77.656621875
20
1.732334375
30
0
0
VERTEX
8
0
10
77.80266875000001
20
1.922665625
30
0
0
VERTEX
8
0
10
77.93156875
20
2.125
30
0
0
VERTEX
8
0
10
78.042346875
20
2.3378
30
0
0
VERTEX
8
0
10
78.13415625
20
2.5594437500000002
30
0
0
VERTEX
8
0
10
78.206296875
20
2.788246875
30
0
0
VERTEX
8
0
10
78.258221875
20
3.0224687500000003
30
0
0
VERTEX
8
0
10
78.289534375
20
3.2603218750000003
30
0
0
VERTEX
8
0
10
78.3
20
3.5
30
0
0
VERTEX
8
0
10
78.3
20
21.5
30
0
0
VERTEX
8
0
10
78.289534375
20
21.739678125
30
0
0
VERTEX
8
0
10
78.258221875
20
21.977531250000002
30
0
0
VERTEX
8
0
10
78.206296875
20
22.211753125
30
0
0
VERTEX
8
0
10
78.13415625
20
22.44055625
30
0
0
VERTEX
8
0
10
78.042346875
20
22.662200000000002
30
0
0
VERTEX
8
0
10
77.93156875
20
22.875
30
0
0
VERTEX
8
0
10
77.80266875000001
20
23.077334375
30
0
0
VERTEX
8
0
10
77.656621875
20
23.267665625
30
0
0
VERTEX
8
0
10
77.49454375
20
23.44454375
30
0
0
VERTEX
8
0
10
77.317665625
20
23.606621875000002
30
0
0
VERTEX
8
0
10
77.127334375
20
23.75266875
30
0
0
VERTEX
8
0
10
76.925
20
23.88156875
30
0
0
VERTEX
8
0
10
76.71220000000001
20
23.992346875000003
30
0
0
VERTEX
8
0
10
76.49055625
20
24.08415625
30
0
0
VERTEX
8
0
10
76.261753125
20
24.156296875000002
30
0
0
VERTEX
8
0
10
76.02753125000001
20
24.208221875
30
0
0
VERTEX
8
0
10
75.78967812500001
20
24.239534375
30
0
0
VERTEX
8
0
10
75.55
20
24.25
30
0
0
VERTEX
8
0
10
75.114221875
20
24.269025000000003
30
0
0
VERTEX
8
0
10
74.681759375
20
24.325962500000003
30
0
0
VERTEX
8
0
10
74.25590625000001
20
24.420371875
30
0
0
VERTEX
8
0
10
73.8399
20
24.551537500000002
30
0
0
VERTEX
8
0
10
73.436909375
20
24.7184625
30
0
0
VERTEX
8
0
10
73.05
20
24.919871875000002
30
0
0
VERTEX
8
0
10
72.68211875
20
25.154240625
30
0
0
VERTEX
8
0
10
72.3360625
20
25.419778125
30
0
0
VERTEX
8
0
10
72.014465625
20
25.714465625000003
30
0
0
VERTEX
8
0
10
71.719778125
20
26.0360625
30
0
0
VERTEX
8
0
10
71.454240625
20
26.38211875
30
0
0
VERTEX
8
0
10
71.21987187500001
20
26.75
30
0
0
VERTEX
8
0
10
71.0184625
20
27.136909375000002
30
0
0
VERTEX
8
0
10
70.8515375
20
27.539900000000003
30
0
0
VERTEX
8
0
10
70.720371875
20
27.95590625
30
0
0
VERTEX
8
0
10
70.6259625
20
28.381759375
30
0
0
VERTEX
8
0
10
70.569025
20
28.814221875
30
0
0
VERTEX
8
0
10
70.55
20
29.25
30
0
0
VERTEX
8
0
10
70.539534375
20
29.489678125
30
0
0
VERTEX
8
0
10
70.508221875
20
29.727531250000002
30
0
0
VERTEX
8
0
10
70.456296875
20
29.961753125
30
0
0
VERTEX
8
0
10
70.38415625
20
30.19055625
30
0
0
VERTEX
8
0
10
70.292346875
20
30.412200000000002
30
0
0
VERTEX
8
0
10
70.18156875
20
30.625
30
0
0
VERTEX
8
0
10
70.05266875000001
20
30.827334375000003
30
0
0
VERTEX
8
0
10
69.906621875
20
31.017665625000003
30
0
0
VERTEX
8
0
10
69.74454375
20
31.19454375
30
0
0
VERTEX
8
0
10
69.567665625
20
31.356621875000002
30
0
0
VERTEX
8
0
10
69.377334375
20
31.50266875
30
0
0
VERTEX
8
0
10
69.175
20
31.631568750000003
30
0
0
VERTEX
8
0
10
68.96220000000001
20
31.742346875000003
30
0
0
VERTEX
8
0
10
68.74055625
20
31.834156250000003
30
0
0
VERTEX
8
0
10
68.511753125
20
31.906296875000002
30
0
0
VERTEX
8
0
10
68.27753125000001
20
31.958221875000003
30
0
0
VERTEX
8
0
10
68.03967812500001
20
31.989534375
30
0
0
VERTEX
8
0
10
67.8
20
32
30
0
0
VERTEX
8
0
10
-67.8
20
32
30
0
0
VERTEX
8
0
10
-68.03967812500001
20
31.989534375
30
0
0
VERTEX
8
0
10
-68.27753125000001
20
31.958221875000003
30
0
0
VERTEX
8
0
10
-68.511753125
20
31.906296875000002
30
0
0
VERTEX
8
0
10
-68.74055625
20
31.834156250000003
30
0
0
VERTEX
8
0
10
-68.96220000000001
20
31.742346875000003
30
0
0
VERTEX
8
0
10
-69.175
20
31.631568750000003
30
0
0
VERTEX
8
0
10
-69.377334375
20
31.50266875
30
0
0
VERTEX
8
0
10
-69.567665625
20
31.356621875000002
30
0
0
VERTEX
8
0
10
-69.74454375
20
31.19454375
30
0
0
VERTEX
8
0
10
-69.906621875
20
31.017665625000003
30
0
0
VERTEX
8
0
10
-70.05266875000001
20
30.827334375000003
30
0
0
VERTEX
8
0
10
-70.18156875
20
30.625
30
0
0
VERTEX
8
0
10
-70.292346875
20
30.412200000000002
30
0
0
VERTEX
8
0
10
-70.38415625
20
30.19055625
30
0
0
VERTEX
8
0
10
-70.456296875
20
29.961753125
30
0
0
VERTEX
8
0
10
-70.508221875
20
29.727531250000002
30
0
0
VERTEX
8
0
10
-70.539534375
20
29.489678125
30
0
0
VERTEX
8
0
10
-70.55
20
29.25
30
0
0
VERTEX
8
0
10
-70.569025
20
28.814221875
30
0
0
VERTEX
8
0
10
-70.6259625
20
28.381759375
30
0
0
VERTEX
8
0
10
-70.720371875
20
27.95590625
30
0
0
VERTEX
8
0
10
-70.8515375
20
27.539900000000003
30
0
0
VERTEX
8
0
10
-71.0184625
20
27.136909375000002
30
0
0
VERTEX
8
0
10
-71.21987187500001
20
26.75
30
0
0
VERTEX
8
0
10
-71.454240625
20
26.38211875
30
0
0
VERTEX
8
0
10
-71.719778125
20
26.0360625
30
0
0
VERTEX
8
0
10
-72.014465625
20
25.714465625000003
30
0
0
VERTEX
8
0
10
-72.3360625
20
25.419778125
30
0
0
VERTEX
8
0
10
-72.68211875
20
25.154240625
30
0
0
VERTEX
8
0
10
-73.05
20
24.919871875000002
30
0
0
VERTEX
8
0
10
-73.436909375
20
24.7184625
30
0
0
VERTEX
8
0
10
-73.8399
20
24.551537500000002
30
0
0
VERTEX
8
0
10
-74.25590625000001
20
24.420371875
30
0
0
VERTEX
8
0
10
-74.681759375
20
24.325962500000003
30
0
0
VERTEX
8
0
10
-75.114221875
20
24.269025000000003
30
0
0
VERTEX
8
0
10
-75.55
20
24.25
30
0
0
VERTEX
8
0
10
-75.78967812500001
20
24.239534375
30
0
0
VERTEX
8
0
10
-76.02753125000001
20
24.208221875
30
0
0
VERTEX
8
0
10
-76.261753125
20
24.156296875000002
30
0
0
VERTEX
8
0
10
-76.49055625
20
24.08415625
30
0
0
VERTEX
8
0
10
-76.71220000000001
20
23.992346875000003
30
0
0
VERTEX
8
0
10
-76.925
20
23.88156875
30
0
0
VERTEX
8
0
10
-77.127334375
20
23.75266875
30
0
0
VERTEX
8
0
10
-77.317665625
20
23.606621875000002
30
0
0
VERTEX
8
0
10
-77.49454375
20
23.44454375
30
0
0
VERTEX
8
0
10
-77.656621875
20
23.267665625
30
0
0
VERTEX
8
0
10
-77.80266875000001
20
23.077334375
30
0
0
VERTEX
8
0
10
-77.93156875
20
22.875
30
0
0
VERTEX
8
0
10
-78.042346875
20
22.662200000000002
30
0
0
VERTEX
8
0
10
-78.13415625
20
22.44055625
30
0
0
VERTEX
8
0
10
-78.206296875
20
22.211753125
30
0
0
VERTEX
8
0
10
-78.258221875
20
21.977531250000002
30
0
0
VERTEX
8
0
10
-78.289534375
20
21.739678125
30
0
0
VERTEX
8
0
10
-78.3
20
21.5
30
0
0
VERTEX
8
0
10
-78.3
20
3.5
30
0
0
SEQEND
0
POLYLINE
66
1
8
holes
10
0.0
20
0.0
30
0.0
70
1
0
VERTEX
8
0
10
48.52
20
0.5
30
0
0
VERTEX
8
0
10
48.523809375
20
0.412840625
30
0
0
VERTEX
8
0
10
48.535196875000004
20
0.32635000000000003
30
0
0
VERTEX
8
0
10
48.554078125000004
20
0.24117812500000002
30
0
0
VERTEX
8
0
10
48.580309375
20
0.157978125
30
0
0
VERTEX
8
0
10
48.61369375
20
0.07738125
30
0
0
VERTEX
8
0
10
48.653978125
20
-3.125e-6
30
0
0
VERTEX
8
0
10
48.70085
20
-0.07357812500000001
30
0
0
VERTEX
8
0
10
48.753959375
20
-0.1427875
30
0
0
VERTEX
8
0
10
48.812896875
20
-0.20710625000000002
30
0
0
VERTEX
8
0
10
48.877215625000005
20
-0.26604375
30
0
0
VERTEX
8
0
10
48.946425000000005
20
-0.31915312500000004
30
0
0
VERTEX
8
0
10
49.020003125
20
-0.36602500000000004
30
0
0
VERTEX
8
0
10
49.097384375000004
20
-0.40630937500000003
30
0
0
VERTEX
8
0
10
49.17798125
20
-0.43969375
30
0
0
VERTEX
8
0
10
49.26118125
20
-0.46592500000000003
30
0
0
VERTEX
8
0
10
49.346353125
20
-0.48480625000000005
30
0
0
VERTEX
8
0
10
49.43284375
20
-0.49619375000000004
30
0
0
VERTEX
8
0
10
49.52
20
-0.5
30
0
0
VERTEX
8
0
10
64.78
20
-0.5
30
0
0
VERTEX
8
0
10
64.867159375
20
-0.49619687500000004
30
0
0
VERTEX
8
0
10
64.95365
20
-0.48480937500000004
30
0
0
VERTEX
8
0
10
65.038821875
20
-0.465928125
30
0
0
VERTEX
8
0
10
65.122021875
20
-0.43969375
30
0
0
VERTEX
8
0
10
65.202621875
20
-0.40630937500000003
30
0
0
VERTEX
8
0
10
65.28000312500001
20
-0.36602812500000004
30
0
0
VERTEX
8
0
10
65.353578125
20
-0.31915312500000004
30
0
0
VERTEX
8
0
10
65.422790625
20
-0.266046875
30
0
0
VERTEX
8
0
10
65.487109375
20
-0.20710625000000002
30
0
0
VERTEX
8
0
10
65.546046875
20
-0.1427875
30
0
0
VERTEX
8
0
10
65.599153125
20
-0.07357812500000001
30
0
0
VERTEX
8
0
10
65.646028125
20
0
30
0
0
VERTEX
8
0
10
65.68630937500001
20
0.07738125
30
0
0
VERTEX
8
0
10
65.71969375
20
0.157978125
30
0
0
VERTEX
8
0
10
65.745928125
20
0.24118125
30
0
0
VERTEX
8
0
10
65.764809375
20
0.326353125
30
0
0
VERTEX
8
0
10
65.77619375
20
0.41284375
30
0
0
VERTEX
8
0
10
65.78
20
0.5
30
0
0
VERTEX
8
0
10
65.78
20
13.34
30
0
0
VERTEX
8
0
10
65.77619375
20
13.427156250000001
30
0
0
VERTEX
8
0
10
65.76480625
20
13.513646875000001
30
0
0
VERTEX
8
0
10
65.745925
20
13.598818750000001
30
0
0
VERTEX
8
0
10
65.71969375
20
13.682018750000001
30
0
0
VERTEX
8
0
10
65.68630625
20
13.762618750000001
30
0
0
VERTEX
8
0
10
65.64602500000001
20
13.84
30
0
0
VERTEX
8
0
10
65.599153125
20
13.913575
30
0
0
VERTEX
8
0
10
65.54604375000001
20
13.9827875
30
0
0
VERTEX
8
0
10
65.48710625
20
14.04710625
30
0
0
VERTEX
8
0
10
65.4227875
20
14.106043750000001
30
0
0
VERTEX
8
0
10
65.353575
20
14.159153125000001
30
0
0
VERTEX
8
0
10
65.28
20
14.206025
30
0
0
VERTEX
8
0
10
65.20261875
20
14.24630625
30
0
0
VERTEX
8
0
10
65.12201875000001
20
14.27969375
30
0
0
VERTEX
8
0
10
65.03881875
20
14.305925
30
0
0
VERTEX
8
0
10
64.953646875
20
14.32480625
30
0
0
VERTEX
8
0
10
64.86715625000001
20
14.336193750000001
30
0
0
VERTEX
8
0
10
64.78
20
14.34
30
0
0
VERTEX
8
0
10
49.52
20
14.34
30
0
0
VERTEX
8
0
10
49.43284375
20
14.336193750000001
30
0
0
VERTEX
8
0
10
49.346353125
20
14.32480625
30
0
0
VERTEX
8
0
10
49.26118125
20
14.305925
30
0
0
VERTEX
8
0
10
49.17798125
20
14.27969375
30
0
0
VERTEX
8
0
10
49.097381250000005
20
14.24630625
30
0
0
VERTEX
8
0
10
49.02
20
14.206025
30
0
0
VERTEX
8
0
10
48.946425000000005
20
14.159153125000001
30
0
0
VERTEX
8
0
10
48.8772125
20
14.106043750000001
30
0
0
VERTEX
8
0
10
48.81289375
20
14.04710625
30
0
0
VERTEX
8
0
10
48.75395625
20
13.9827875
30
0
0
VERTEX
8
0
10
48.700846875
20
13.913575
30
0
0
VERTEX
8
0
10
48.653975
20
13.84
30
0
0
VERTEX
8
0
10
48.61369375
20
13.762618750000001
30
0
0
VERTEX
8
0
10
48.58030625
20
13.682018750000001
30
0
0
VERTEX
8
0
10
48.554075000000005
20
13.598818750000001
30
0
0
VERTEX
8
0
10
48.535193750000005
20
13.513646875000001
30
0
0
VERTEX
8
0
10
48.52380625
20
13.427156250000001
30
0
0
VERTEX
8
0
10
48.52
20
13.34
30
0
0
VERTEX
8
0
10
48.52
20
0.5
30
0
0
SEQEND
0
POLYLINE
66
1
8
holes
10
0.0
20
0.0
30
0.0
70
1
0
VERTEX
8
0
10
-9.76
20
0.5
30
0
0
VERTEX
8
0
10
-9.756190625
20
0.412840625
30
0
0
VERTEX
8
0
10
-9.744803125
20
0.32635000000000003
30
0
0
VERTEX
8
0
10
-9.725921875000001
20
0.24117812500000002
30
0
0
VERTEX
8
0
10
-9.699690625
20
0.157978125
30
0
0
VERTEX
8
0
10
-9.66630625
20
0.07738125
30
0
0
VERTEX
8
0
10
-9.626021875000001
20
-3.125e-6
30
0
0
VERTEX
8
0
10
-9.57915
20
-0.07357812500000001
30
0
0
VERTEX
8
0
10
-9.526040625
20
-0.1427875
30
0
0
VERTEX
8
0
10
-9.467103125000001
20
-0.20710625000000002
30
0
0
VERTEX
8
0
10
-9.402784375000001
20
-0.26604375
30
0
0
VERTEX
8
0
10
-9.333575
20
-0.31915312500000004
30
0
0
VERTEX
8
0
10
-9.259996875
20
-0.36602500000000004
30
0
0
VERTEX
8
0
10
-9.182615625
20
-0.40630937500000003
30
0
0
VERTEX
8
0
10
-9.102018750000001
20
-0.43969375
30
0
0
VERTEX
8
0
10
-9.018818750000001
20
-0.46592500000000003
30
0
0
VERTEX
8
0
10
-8.933646875
20
-0.48480625000000005
30
0
0
VERTEX
8
0
10
-8.847156250000001
20
-0.49619375000000004
30
0
0
VERTEX
8
0
10
-8.76
20
-0.5
30
0
0
VERTEX
8
0
10
26.540000000000003
20
-0.5
30
0
0
VERTEX
8
0
10
26.627159375
20
-0.49619687500000004
30
0
0
VERTEX
8
0
10
26.71365
20
-0.48480937500000004
30
0
0
VERTEX
8
0
10
26.798821875
20
-0.465928125
30
0
0
VERTEX
8
0
10
26.882021875000003
20
-0.43969375
30
0
0
VERTEX
8
0
10
26.962621875
20
-0.40630937500000003
30
0
0
VERTEX
8
0
10
27.040003125000002
20
-0.36602812500000004
30
0
0
VERTEX
8
0
10
27.113578125
20
-0.31915312500000004
30
0
0
VERTEX
8
0
10
27.182790625000003
20
-0.266046875
30
0
0
VERTEX
8
0
10
27.247109375
20
-0.20710625000000002
30
0
0
VERTEX
8
0
10
27.306046875
20
-0.1427875
30
0
0
VERTEX
8
0
10
27.359153125000002
20
-0.07357812500000001
30
0
0
VERTEX
8
0
10
27.406028125000002
20
0
30
0
0
VERTEX
8
0
10
27.446309375000002
20
0.07738125
30
0
0
VERTEX
8
0
10
27.479693750000003
20
0.157978125
30
0
0
VERTEX
8
0
10
27.505928125
20
0.24118125
30
0
0
VERTEX
8
0
10
27.524809375
20
0.326353125
30
0
0
VERTEX
8
0
10
27.536193750000002
20
0.41284375
30
0
0
VERTEX
8
0
10
27.540000000000003
20
0.5
30
0
0
VERTEX
8
0
10
27.540000000000003
20
6.7
30
0
0
VERTEX
8
0
10
27.536193750000002
20
6.787156250000001
30
0
0
VERTEX
8
0
10
27.52480625
20
6.873646875
30
0
0
VERTEX
8
0
10
27.505925
20
6.958818750000001
30
0
0
VERTEX
8
0
10
27.479693750000003
20
7.04201875
30
0
0
VERTEX
8
0
10
27.446306250000003
20
7.12261875
30
0
0
VERTEX
8
0
10
27.406025
20
7.2
30
0
0
VERTEX
8
0
10
27.359153125000002
20
7.273575
30
0
0
VERTEX
8
0
10
27.30604375
20
7.3427875
30
0
0
VERTEX
8
0
10
27.24710625
20
7.40710625
30
0
0
VERTEX
8
0
10
27.1827875
20
7.466043750000001
30
0
0
VERTEX
8
0
10
27.113575
20
7.519153125000001
30
0
0
VERTEX
8
0
10
27.040000000000003
20
7.566025000000001
30
0
0
VERTEX
8
0
10
26.96261875
20
7.60630625
30
0
0
VERTEX
8
0
10
26.88201875
20
7.63969375
30
0
0
VERTEX
8
0
10
26.798818750000002
20
7.6659250000000005
30
0
0
VERTEX
8
0
10
26.713646875000002
20
7.68480625
30
0
0
VERTEX
8
0
10
26.627156250000002
20
7.69619375
30
0
0
VERTEX
8
0
10
26.540000000000003
20
7.7
30
0
0
VERTEX
8
0
10
-8.76
20
7.7
30
0
0
VERTEX
8
0
10
-8.847156250000001
20
7.69619375
30
0
0
VERTEX
8
0
10
-8.933646875
20
7.68480625
30
0
0
VERTEX
8
0
10
-9.018818750000001
20
7.6659250000000005
30
0
0
VERTEX
8
0
10
-9.102018750000001
20
7.63969375
30
0
0
VERTEX
8
0
10
-9.18261875
20
7.60630625
30
0
0
VERTEX
8
0
10
-9.26
20
7.566025000000001
30
0
0
VERTEX
8
0
10
-9.333575
20
7.519153125000001
30
0
0
VERTEX
8
0
10
-9.4027875
20
7.466043750000001
30
0
0
VERTEX
8
0
10
-9.46710625
20
7.40710625
30
0
0
VERTEX
8
0
10
-9.526043750000001
20
7.3427875
30
0
0
VERTEX
8
0
10
-9.579153125000001
20
7.273575
30
0
0
VERTEX
8
0
10
-9.626025
20
7.2
30
0
0
VERTEX
8
0
10
-9.66630625
20
7.12261875
30
0
0
VERTEX
8
0
10
-9.69969375
20
7.04201875
30
0
0
VERTEX
8
0
10
-9.725925
20
6.958818750000001
30
0
0
VERTEX
8
0
10
-9.74480625
20
6.873646875
30
0
0
VERTEX
8
0
10
-9.756193750000001
20
6.787156250000001
30
0
0
VERTEX
8
0
10
-9.76
20
6.7
30
0
0
VERTEX
8
0
10
-9.76
20
0.5
30
0
0
SEQEND
0
POLYLINE
66
1
8
holes
10
0.0
20
0.0
30
0.0
70
1
0
VERTEX
8
0
10
33.35
20
1
30
0
0
VERTEX
8
0
10
33.35475625
20
0.89105625
30
0
0
VERTEX
8
0
10
33.368990625
20
0.7829406250000001
30
0
0
VERTEX
8
0
10
33.39259375
20
0.676475
30
0
0
VERTEX
8
0
10
33.425384375
20
0.5724750000000001
30
0
0
VERTEX
8
0
10
33.467115625
20
0.471728125
30
0
0
VERTEX
8
0
10
33.51746875
20
0.375
30
0
0
VERTEX
8
0
10
33.576059375
20
0.283028125
30
0
0
VERTEX
8
0
10
33.64244375
20
0.196515625
30
0
0
VERTEX
8
0
10
33.716115625
20
0.116115625
30
0
0
VERTEX
8
0
10
33.796515625000005
20
0.04244375
30
0
0
VERTEX
8
0
10
33.883028125
20
-0.023940625
30
0
0
VERTEX
8
0
10
33.975
20
-0.08253125
30
0
0
VERTEX
8
0
10
34.071728125
20
-0.132884375
30
0
0
VERTEX
8
0
10
34.172475
20
-0.174615625
30
0
0
VERTEX
8
0
10
34.276475000000005
20
-0.20740625000000001
30
0
0
VERTEX
8
0
10
34.382940625
20
-0.23100937500000002
30
0
0
VERTEX
8
0
10
34.49105625
20
-0.24524375
30
0
0
VERTEX
8
0
10
34.6
20
-0.25
30
0
0
VERTEX
8
0
10
41.6
20
-0.25
30
0
0
VERTEX
8
0
10
41.70894375
20
-0.24524375
30
0
0
VERTEX
8
0
10
41.817059375
20
-0.23100937500000002
30
0
0
VERTEX
8
0
10
41.923525000000005
20
-0.20740625000000001
30
0
0
VERTEX
8
0
10
42.027525000000004
20
-0.174615625
30
0
0
VERTEX
8
0
10
42.128271875
20
-0.132884375
30
0
0
VERTEX
8
0
10
42.225
20
-0.08253125
30
0
0
VERTEX
8
0
10
42.316971875
20
-0.023940625
30
0
0
VERTEX
8
0
10
42.403484375000005
20
0.04244375
30
0
0
VERTEX
8
0
10
42.483884375
20
0.116115625
30
0
0
VERTEX
8
0
10
42.557556250000005
20
0.196515625
30
0
0
VERTEX
8
0
10
42.623940625
20
0.283028125
30
0
0
VERTEX
8
0
10
42.682531250000004
20
0.375
30
0
0
VERTEX
8
0
10
42.732884375000005
20
0.471728125
30
0
0
VERTEX
8
0
10
42.774615625
20
0.5724750000000001
30
0
0
VERTEX
8
0
10
42.80740625
20
0.676475
30
0
0
VERTEX
8
0
10
42.831009375
20
0.7829406250000001
30
0
0
VERTEX
8
0
10
42.84524375
20
0.89105625
30
0
0
VERTEX
8
0
10
42.85
20
1
30
0
0
VERTEX
8
0
10
42.85
20
2.2
30
0
0
VERTEX
8
0
10
42.84524375
20
2.30894375
30
0
0
VERTEX
8
0
10
42.831009375
20
2.417059375
30
0
0
VERTEX
8
0
10
42.80740625
20
2.5235250000000002
30
0
0
VERTEX
8
0
10
42.774615625
20
2.6275250000000003
30
0
0
VERTEX
8
0
10
42.732884375000005
20
2.7282718750000003
30
0
0
VERTEX
8
0
10
42.682531250000004
20
2.825
30
0
0
VERTEX
8
0
10
42.623940625
20
2.916971875
30
0
0
VERTEX
8
0
10
42.557556250000005
20
3.003484375
30
0
0
VERTEX
8
0
10
42.483884375
20
3.0838843750000002
30
0
0
VERTEX
8
0
10
42.403484375000005
20
3.1575562500000003
30
0
0
VERTEX
8
0
10
42.316971875
20
3.223940625
30
0
0
VERTEX
8
0
10
42.225
20
3.2825312500000003
30
0
0
VERTEX
8
0
10
42.128271875
20
3.3328843750000003
30
0
0
VERTEX
8
0
10
42.027525000000004
20
3.374615625
30
0
0
VERTEX
8
0
10
41.923525000000005
20
3.40740625
30
0
0
VERTEX
8
0
10
41.817059375
20
3.4310093750000004
30
0
0
VERTEX
8
0
10
41.70894375
20
3.4452437500000004
30
0
0
VERTEX
8
0
10
41.6
20
3.45
30
0
0
VERTEX
8
0
10
34.6
20
3.45
30
0
0
VERTEX
8
0
10
34.49105625
20
3.4452437500000004
30
0
0
VERTEX
8
0
10
34.382940625
20
3.4310093750000004
30
0
0
VERTEX
8
0
10
34.276475000000005
20
3.40740625
30
0
0
VERTEX
8
0
10
34.172475
20
3.374615625
30
0
0
VERTEX
8
0
10
34.071728125
20
3.3328843750000003
30
0
0
VERTEX
8
0
10
33.975
20
3.2825312500000003
30
0
0
VERTEX
8
0
10
33.883028125
20
3.223940625
30
0
0
VERTEX
8
0
10
33.796515625000005
20
3.1575562500000003
30
0
0
VERTEX
8
0
10
33.716115625
20
3.0838843750000002
30
0
0
VERTEX
8
0
10
33.64244375
20
3.003484375
30
0
0
VERTEX
8
0
10
33.576059375
20
2.916971875
30
0
0
VERTEX
8
0
10
33.51746875
20
2.825
30
0
0
VERTEX
8
0
10
33.467115625
20
2.7282718750000003
30
0
0
VERTEX
8
0
10
33.425384375
20
2.6275250000000003
30
0
0
VERTEX
8
0
10
33.39259375
20
2.5235250000000002
30
0
0
VERTEX
8
0
10
33.368990625
20
2.417059375
30
0
0
VERTEX
8
0
10
33.35475625
20
2.30894375
30
0
0
VERTEX
8
0
10
33.35
20
2.2
30
0
0
VERTEX
8
0
10
33.35
20
1
30
0
0
SEQEND
0
POLYLINE
66
1
8
holes
10
0.0
20
0.0
30
0.0
70
1
0
VERTEX
8
0
10
-59.125
20
0.5445625000000001
30
0
0
VERTEX
8
0
10
-59.132475
20
0.36384375
30
0
0
VERTEX
8
0
10
-59.1474125
20
0.18358750000000001
30
0
0
VERTEX
8
0
10
-59.169784375000006
20
0.004103125
30
0
0
VERTEX
8
0
10
-59.19955625
20
-0.17430625
30
0
0
VERTEX
8
0
10
-59.236671875000006
20
-0.351328125
30
0
0
VERTEX
8
0
10
-59.281075
20
-0.52666875
30
0
0
VERTEX
8
0
10
-59.332684375
20
-0.700021875
30
0
0
VERTEX
8
0
10
-59.391415625
20
-0.871096875
30
0
0
VERTEX
8
0
10
-59.4571625
20
-1.039596875
30
0
0
VERTEX
8
0
10
-59.529818750000004
20
-1.2052375
30
0
0
VERTEX
8
0
10
-59.609259375
20
-1.3677343750000002
30
0
0
VERTEX
8
0
10
-59.695346875000006
20
-1.5268062500000001
30
0
0
VERTEX
8
0
10
-59.78793125
20
-1.6821875000000002
30
0
0
VERTEX
8
0
10
-59.8868625
20
-1.833609375
30
0
0
VERTEX
8
0
10
-59.9919625
20
-1.9808125
30
0
0
VERTEX
8
0
10
-60.103059375
20
-2.123546875
30
0
0
VERTEX
8
0
10
-60.21995625
20
-2.26156875
30
0
0
VERTEX
8
0
10
-60.342459375000004
20
-2.39464375
30
0
0
VERTEX
8
0
10
-60.47035625
20
-2.522540625
30
0
0
VERTEX
8
0
10
-60.60343125
20
-2.64504375
30
0
0
VERTEX
8
0
10
-60.741453125
20
-2.7619406250000003
30
0
0
VERTEX
8
0
10
-60.8841875
20
-2.8730375
30
0
0
VERTEX
8
0
10
-61.031390625
20
-2.9781375000000003
30
0
0
VERTEX
8
0
10
-61.182812500000004
20
-3.07706875
30
0
0
VERTEX
8
0
10
-61.33819375
20
-3.169653125
30
0
0
VERTEX
8
0
10
-61.497265625000004
20
-3.255740625
30
0
0
VERTEX
8
0
10
-61.65976250000001
20
-3.33518125
30
0
0
VERTEX
8
0
10
-61.825403125
20
-3.4078375000000003
30
0
0
VERTEX
8
0
10
-61.993903125
20
-3.473584375
30
0
0
VERTEX
8
0
10
-62.164978125000005
20
-3.5323156250000003
30
0
0
VERTEX
8
0
10
-62.33833125
20
-3.5839250000000002
30
0
0
VERTEX
8
0
10
-62.513671875
20
-3.6283281250000003
30
0
0
VERTEX
8
0
10
-62.69069375
20
-3.66544375
30
0
0
VERTEX
8
0
10
-62.869103125
20
-3.6952156250000003
30
0
0
VERTEX
8
0
10
-63.048587500000004
20
-3.7175875
30
0
0
VERTEX
8
0
10
-63.22884375
20
-3.7325250000000003
30
0
0
VERTEX
8
0
10
-63.4095625
20
-3.74
30
0
0
VERTEX
8
0
10
-63.5904375
20
-3.74
30
0
0
VERTEX
8
0
10
-63.771156250000004
20
-3.7325250000000003
30
0
0
VERTEX
8
0
10
-63.9514125
20
-3.7175875
30
0
0
VERTEX
8
0
10
-64.130896875
20
-3.6952156250000003
30
0
0
VERTEX
8
0
10
-64.30930625
20
-3.66544375
30
0
0
VERTEX
8
0
10
-64.486328125
20
-3.6283281250000003
30
0
0
VERTEX
8
0
10
-64.66166875
20
-3.5839250000000002
30
0
0
VERTEX
8
0
10
-64.83502187500001
20
-3.5323156250000003
30
0
0
VERTEX
8
0
10
-65.006096875
20
-3.473584375
30
0
0
VERTEX
8
0
10
-65.174596875
20
-3.4078375000000003
30
0
0
VERTEX
8
0
10
-65.3402375
20
-3.33518125
30
0
0
VERTEX
8
0
10
-65.502734375
20
-3.255740625
30
0
0
VERTEX
8
0
10
-65.66180625
20
-3.169653125
30
0
0
VERTEX
8
0
10
-65.8171875
20
-3.07706875
30
0
0
VERTEX
8
0
10
-65.968609375
20
-2.9781375000000003
30
0
0
VERTEX
8
0
10
-66.1158125
20
-2.8730375
30
0
0
VERTEX
8
0
10
-66.25854687500001
20
-2.7619406250000003
30
0
0
VERTEX
8
0
10
-66.39656875
20
-2.64504375
30
0
0
VERTEX
8
0
10
-66.52964375
20
-2.522540625
30
0
0
VERTEX
8
0
10
-66.65754062500001
20
-2.39464375
30
0
0
VERTEX
8
0
10
-66.78004375
20
-2.26156875
30
0
0
VERTEX
8
0
10
-66.896940625
20
-2.123546875
30
0
0
VERTEX
8
0
10
-67.0080375
20
-1.9808125
30
0
0
VERTEX
8
0
10
-67.11313750000001
20
-1.833609375
30
0
0
VERTEX
8
0
10
-67.21206875
20
-1.6821875000000002
30
0
0
VERTEX
8
0
10
-67.304653125
20
-1.5268062500000001
30
0
0
VERTEX
8
0
10
-67.390740625
20
-1.3677343750000002
30
0
0
VERTEX
8
0
10
-67.47018125000001
20
-1.2052375
30
0
0
VERTEX
8
0
10
-67.5428375
20
-1.039596875
30
0
0
VERTEX
8
0
10
-67.608584375
20
-0.871096875
30
0
0
VERTEX
8
0
10
-67.667315625
20
-0.700021875
30
0
0
VERTEX
8
0
10
-67.718925
20
-0.52666875
30
0
0
VERTEX
8
0
10
-67.763328125
20
-0.351328125
30
0
0
VERTEX
8
0
10
-67.80044375
20
-0.17430625
30
0
0
VERTEX
8
0
10
-67.83021562500001
20
0.004103125
30
0
0
VERTEX
8
0
10
-67.8525875
20
0.18358750000000001
30
0
0
VERTEX
8
0
10
-67.867525
20
0.36384375
30
0
0
VERTEX
8
0
10
-67.875
20
0.5445625000000001
30
0
0
VERTEX
8
0
10
-67.875
20
0.7254375000000001
30
0
0
VERTEX
8
0
10
-67.867525
20
0.90615625
30
0
0
VERTEX
8
0
10
-67.8525875
20
1.0864125
30
0
0
VERTEX
8
0
10
-67.83021562500001
20
1.2658968750000001
30
0
0
VERTEX
8
0
10
-67.80044375
20
1.4443062500000001
30
0
0
VERTEX
8
0
10
-67.763328125
20
1.621328125
30
0
0
VERTEX
8
0
10
-67.718925
20
1.79666875
30
0
0
VERTEX
8
0
10
-67.667315625
20
1.970021875
30
0
0
VERTEX
8
0
10
-67.608584375
20
2.141096875
30
0
0
VERTEX
8
0
10
-67.5428375
20
2.309596875
30
0
0
VERTEX
8
0
10
-67.47018125000001
20
2.4752375
30
0
0
VERTEX
8
0
10
-67.390740625
20
2.637734375
30
0
0
VERTEX
8
0
10
-67.304653125
20
2.79680625
30
0
0
VERTEX
8
0
10
-67.21206875
20
2.9521875
30
0
0
VERTEX
8
0
10
-67.11313750000001
20
3.103609375
30
0
0
VERTEX
8
0
10
-67.0080375
20
3.2508125000000003
30
0
0
VERTEX
8
0
10
-66.896940625
20
3.393546875
30
0
0
VERTEX
8
0
10
-66.78004375
20
3.5315687500000004
30
0
0
VERTEX
8
0
10
-66.65754062500001
20
3.66464375
30
0
0
VERTEX
8
0
10
-66.52964375
20
3.792540625
30
0
0
VERTEX
8
0
10
-66.39656875
20
3.91504375
30
0
0
VERTEX
8
0
10
-66.25854687500001
20
4.031940625
30
0
0
VERTEX
8
0
10
-66.1158125
20
4.1430375
30
0
0
VERTEX
8
0
10
-65.968609375
20
4.2481375
30
0
0
VERTEX
8
0
10
-65.8171875
20
4.34706875
30
0
0
VERTEX
8
0
10
-65.66180625
20
4.439653125
30
0
0
VERTEX
8
0
10
-65.502734375
20
4.525740625
30
0
0
VERTEX
8
0
10
-65.3402375
20
4.60518125
30
0
0
VERTEX
8
0
10
-65.174596875
20
4.6778375
30
0
0
VERTEX
8
0
10
-65.006096875
20
4.743584375
30
0
0
VERTEX
8
0
10
-64.83502187500001
20
4.802315625
30
0
0
VERTEX
8
0
10
-64.66166875
20
4.853925
30
0
0
VERTEX
8
0
10
-64.486328125
20
4.898328125
30
0
0
VERTEX
8
0
10
-64.30930625
20
4.93544375
30
0
0
VERTEX
8
0
10
-64.130896875
20
4.965215625
30
0
0
VERTEX
8
0
10
-63.9514125
20
4.9875875
30
0
0
VERTEX
8
0
10
-63.771156250000004
20
5.002525
30
0
0
VERTEX
8
0
10
-63.5904375
20
5.010000000000001
30
0
0
VERTEX
8
0
10
-63.4095625
20
5.010000000000001
30
0
0
VERTEX
8
0
10
-63.22884375
20
5.002525
30
0
0
VERTEX
8
0
10
-63.048587500000004
20
4.9875875
30
0
0
VERTEX
8
0
10
-62.869103125
20
4.965215625
30
0
0
VERTEX
8
0
10
-62.69069375
20
4.93544375
30
0
0
VERTEX
8
0
10
-62.513671875
20
4.898328125
30
0
0
VERTEX
8
0
10
-62.33833125
20
4.853925
30
0
0
VERTEX
8
0
10
-62.164978125000005
20
4.802315625
30
0
0
VERTEX
8
0
10
-61.993903125
20
4.743584375
30
0
0
VERTEX
8
0
10
-61.825403125
20
4.6778375
30
0
0
VERTEX
8
0
10
-61.65976250000001
20
4.60518125
30
0
0
VERTEX
8
0
10
-61.497265625000004
20
4.525740625
30
0
0
VERTEX
8
0
10
-61.33819375
20
4.439653125
30
0
0
VERTEX
8
0
10
-61.182812500000004
20
4.34706875
30
0
0
VERTEX
8
0
10
-61.031390625
20
4.2481375
30
0
0
VERTEX
8
0
10
-60.8841875
20
4.1430375
30
0
0
VERTEX
8
0
10
-60.741453125
20
4.031940625
30
0
0
VERTEX
8
0
10
-60.60343125
20
3.91504375
30
0
0
VERTEX
8
0
10
-60.47035625
20
3.792540625
30
0
0
VERTEX
8
0
10
-60.342459375000004
20
3.66464375
30
0
0
VERTEX
8
0
10
-60.21995625
20
3.5315687500000004
30
0
0
VERTEX
8
0
10
-60.103059375
20
3.393546875
30
0
0
VERTEX
8
0
10
-59.9919625
20
3.2508125000000003
30
0
0
VERTEX
8
0
10
-59.8868625
20
3.103609375
30
0
0
VERTEX
8
0
10
-59.78793125
20
2.9521875
30
0
0
VERTEX
8
0
10
-59.695346875000006
20
2.79680625
30
0
0
VERTEX
8
0
10
-59.609259375
20
2.637734375
30
0
0
VERTEX
8
0
10
-59.529818750000004
20
2.4752375
30
0
0
VERTEX
8
0
10
-59.4571625
20
2.309596875
30
0
0
VERTEX
8
0
10
-59.391415625
20
2.141096875
30
0
0
VERTEX
8
0
10
-59.332684375
20
1.970021875
30
0
0
VERTEX
8
0
10
-59.281075
20
1.79666875
30
0
0
VERTEX
8
0
10
-59.236671875000006
20
1.621328125
30
0
0
VERTEX
8
0
10
-59.19955625
20
1.4443062500000001
30
0
0
VERTEX
8
0
10
-59.169784375000006
20
1.2658968750000001
30
0
0
VERTEX
8
0
10
-59.1474125
20
1.0864125
30
0
0
VERTEX
8
0
10
-59.132475
20
0.90615625
30
0
0
VERTEX
8
0
10
-59.125
20
0.7254375000000001
30
0
0
VERTEX
8
0
10
-59.125
20
0.5445625000000001
30
0
0
SEQEND
0
POLYLINE
66
1
8
holes
10
0.0
20
0.0
30
0.0
70
1
0
VERTEX
8
0
10
-36.9
20
0.5445625000000001
30
0
0
VERTEX
8
0
10
-36.907475000000005
20
0.36384375
30
0
0
VERTEX
8
0
10
-36.9224125
20
0.18358750000000001
30
0
0
VERTEX
8
0
10
-36.944784375000005
20
0.004103125
30
0
0
VERTEX
8
0
10
-36.97455625
20
-0.17430625
30
0
0
VERTEX
8
0
10
-37.011671875000005
20
-0.351328125
30
0
0
VERTEX
8
0
10
-37.056075
20
-0.52666875
30
0
0
VERTEX
8
0
10
-37.107684375000005
20
-0.700021875
30
0
0
VERTEX
8
0
10
-37.166415625
20
-0.871096875
30
0
0
VERTEX
8
0
10
-37.2321625
20
-1.039596875
30
0
0
VERTEX
8
0
10
-37.30481875
20
-1.2052375
30
0
0
VERTEX
8
0
10
-37.384259375
20
-1.3677343750000002
30
0
0
VERTEX
8
0
10
-37.470346875000004
20
-1.5268062500000001
30
0
0
VERTEX
8
0
10
-37.56293125
20
-1.6821875000000002
30
0
0
VERTEX
8
0
10
-37.661862500000005
20
-1.833609375
30
0
0
VERTEX
8
0
10
-37.766962500000005
20
-1.9808125
30
0
0
VERTEX
8
0
10
-37.878059375
20
-2.123546875
30
0
0
VERTEX
8
0
10
-37.99495625
20
-2.26156875
30
0
0
VERTEX
8
0
10
-38.117459375
20
-2.39464375
30
0
0
VERTEX
8
0
10
-38.24535625
20
-2.522540625
30
0
0
VERTEX
8
0
10
-38.37843125
20
-2.64504375
30
0
0
VERTEX
8
0
10
-38.516453125000005
20
-2.7619406250000003
30
0
0
VERTEX
8
0
10
-38.6591875
20
-2.8730375
30
0
0
VERTEX
8
0
10
-38.806390625
20
-2.9781375000000003
30
0
0
VERTEX
8
0
10
-38.9578125
20
-3.07706875
30
0
0
VERTEX
8
0
10
-39.11319375
20
-3.169653125
30
0
0
VERTEX
8
0
10
-39.272265625
20
-3.255740625
30
0
0
VERTEX
8
0
10
-39.434762500000005
20
-3.33518125
30
0
0
VERTEX
8
0
10
-39.600403125
20
-3.4078375000000003
30
0
0
VERTEX
8
0
10
-39.768903125
20
-3.473584375
30
0
0
VERTEX
8
0
10
-39.939978125
20
-3.5323156250000003
30
0
0
VERTEX
8
0
10
-40.11333125
20
-3.5839250000000002
30
0
0
VERTEX
8
0
10
-40.288671875
20
-3.6283281250000003
30
0
0
VERTEX
8
0
10
-40.46569375
20
-3.66544375
30
0
0
VERTEX
8
0
10
-40.644103125
20
-3.6952156250000003
30
0
0
VERTEX
8
0
10
-40.8235875
20
-3.7175875
30
0
0
VERTEX
8
0
10
-41.00384375
20
-3.7325250000000003
30
0
0
VERTEX
8
0
10
-41.184562500000006
20
-3.74
30
0
0
VERTEX
8
0
10
-41.3654375
20
-3.74
30
0
0
VERTEX
8
0
10
-41.54615625
20
-3.7325250000000003
30
0
0
VERTEX
8
0
10
-41.7264125
20
-3.7175875
30
0
0
VERTEX
8
0
10
-41.905896875
20
-3.6952156250000003
30
0
0
VERTEX
8
0
10
-42.084306250000004
20
-3.66544375
30
0
0
VERTEX
8
0
10
-42.261328125
20
-3.6283281250000003
30
0
0
VERTEX
8
0
10
-42.43666875
20
-3.5839250000000002
30
0
0
VERTEX
8
0
10
-42.610021875
20
-3.5323156250000003
30
0
0
VERTEX
8
0
10
-42.781096875
20
-3.473584375
30
0
0
VERTEX
8
0
10
-42.949596875000005
20
-3.4078375000000003
30
0
0
VERTEX
8
0
10
-43.1152375
20
-3.33518125
30
0
0
VERTEX
8
0
10
-43.277734375
20
-3.255740625
30
0
0
VERTEX
8
0
10
-43.436806250000004
20
-3.169653125
30
0
0
VERTEX
8
0
10
-43.5921875
20
-3.07706875
30
0
0
VERTEX
8
0
10
-43.743609375000005
20
-2.9781375000000003
30
0
0
VERTEX
8
0
10
-43.8908125
20
-2.8730375
30
0
0
VERTEX
8
0
10
-44.033546875
20
-2.7619406250000003
30
0
0
VERTEX
8
0
10
-44.17156875
20
-2.64504375
30
0
0
VERTEX
8
0
10
-44.304643750000004
20
-2.522540625
30
0
0
VERTEX
8
0
10
-44.432540625
20
-2.39464375
30
0
0
VERTEX
8
0
10
-44.55504375
20
-2.26156875
30
0
0
VERTEX
8
0
10
-44.671940625000005
20
-2.123546875
30
0
0
VERTEX
8
0
10
-44.7830375
20
-1.9808125
30
0
0
VERTEX
8
0
10
-44.8881375
20
-1.833609375
30
0
0
VERTEX
8
0
10
-44.98706875
20
-1.6821875000000002
30
0
0
VERTEX
8
0
10
-45.079653125
20
-1.5268062500000001
30
0
0
VERTEX
8
0
10
-45.165740625000005
20
-1.3677343750000002
30
0
0
VERTEX
8
0
10
-45.24518125
20
-1.2052375
30
0
0
VERTEX
8
0
10
-45.3178375
20
-1.039596875
30
0
0
VERTEX
8
0
10
-45.383584375000005
20
-0.871096875
30
0
0
VERTEX
8
0
10
-45.442315625
20
-0.700021875
30
0
0
VERTEX
8
0
10
-45.493925000000004
20
-0.52666875
30
0
0
VERTEX
8
0
10
-45.538328125
20
-0.351328125
30
0
0
VERTEX
8
0
10
-45.575443750000005
20
-0.17430625
30
0
0
VERTEX
8
0
10
-45.605215625
20
0.004103125
30
0
0
VERTEX
8
0
10
-45.627587500000004
20
0.18358750000000001
30
0
0
VERTEX
8
0
10
-45.642525
20
0.36384375
30
0
0
VERTEX
8
0
10
-45.650000000000006
20
0.5445625000000001
30
0
0
VERTEX
8
0
10
-45.650000000000006
20
0.7254375000000001
30
0
0
VERTEX
8
0
10
-45.642525
20
0.90615625
30
0
0
VERTEX
8
0
10
-45.627587500000004
20
1.0864125
30
0
0
VERTEX
8
0
10
-45.605215625
20
1.2658968750000001
30
0
0
VERTEX
8
0
10
-45.575443750000005
20
1.4443062500000001
30
0
0
VERTEX
8
0
10
-45.538328125
20
1.621328125
30
0
0
VERTEX
8
0
10
-45.493925000000004
20
1.79666875
30
0
0
VERTEX
8
0
10
-45.442315625
20
1.970021875
30
0
0
VERTEX
8
0
10
-45.383584375000005
20
2.141096875
30
0
0
VERTEX
8
0
10
-45.3178375
20
2.309596875
30
0
0
VERTEX
8
0
10
-45.24518125
20
2.4752375
30
0
0
VERTEX
8
0
10
-45.165740625000005
20
2.637734375
30
0
0
VERTEX
8
0
10
-45.079653125
20
2.79680625
30
0
0
VERTEX
8
0
10
-44.98706875
20
2.9521875
30
0
0
VERTEX
8
0
10
-44.8881375
20
3.103609375
30
0
0
VERTEX
8
0
10
-44.7830375
20
3.2508125000000003
30
0
0
VERTEX
8
0
10
-44.671940625000005
20
3.393546875
30
0
0
VERTEX
8
0
10
-44.55504375
20
3.5315687500000004
30
0
0
VERTEX
8
0
10
-44.432540625
20
3.66464375
30
0
0
VERTEX
8
0
10
-44.304643750000004
20
3.792540625
30
0
0
VERTEX
8
0
10
-44.17156875
20
3.91504375
30
0
0
VERTEX
8
0
10
-44.033546875
20
4.031940625
30
0
0
VERTEX
8
0
10
-43.8908125
20
4.1430375
30
0
0
VERTEX
8
0
10
-43.743609375000005
20
4.2481375
30
0
0
VERTEX
8
0
10
-43.5921875
20
4.34706875
30
0
0
VERTEX
8
0
10
-43.436806250000004
20
4.439653125
30
0
0
VERTEX
8
0
10
-43.277734375
20
4.525740625
30
0
0
VERTEX
8
0
10
-43.1152375
20
4.60518125
30
0
0
VERTEX
8
0
10
-42.949596875000005
20
4.6778375
30
0
0
VERTEX
8
0
10
-42.781096875
20
4.743584375
30
0
0
VERTEX
8
0
10
-42.610021875
20
4.802315625
30
0
0
VERTEX
8
0
10
-42.43666875
20
4.853925
30
0
0
VERTEX
8
0
10
-42.261328125
20
4.898328125
30
0
0
VERTEX
8
0
10
-42.084306250000004
20
4.93544375
30
0
0
VERTEX
8
0
10
-41.905896875
20
4.965215625
30
0
0
VERTEX
8
0
10
-41.7264125
20
4.9875875
30
0
0
VERTEX
8
0
10
-41.54615625
20
5.002525
30
0
0
VERTEX
8
0
10
-41.3654375
20
5.010000000000001
30
0
0
VERTEX
8
0
10
-41.184562500000006
20
5.010000000000001
30
0
0
VERTEX
8
0
10
-41.00384375
20
5.002525
30
0
0
VERTEX
8
0
10
-40.8235875
20
4.9875875
30
0
0
VERTEX
8
0
10
-40.644103125
20
4.965215625
30
0
0
VERTEX
8
0
10
-40.46569375
20
4.93544375
30
0
0
VERTEX
8
0
10
-40.288671875
20
4.898328125
30
0
0
VERTEX
8
0
10
-40.11333125
20
4.853925
30
0
0
VERTEX
8
0
10
-39.939978125
20
4.802315625
30
0
0
VERTEX
8
0
10
-39.768903125
20
4.743584375
30
0
0
VERTEX
8
0
10
-39.600403125
20
4.6778375
30
0
0
VERTEX
8
0
10
-39.434762500000005
20
4.60518125
30
0
0
VERTEX
8
0
10
-39.272265625
20
4.525740625
30
0
0
VERTEX
8
0
10
-39.11319375
20
4.439653125
30
0
0
VERTEX
8
0
10
-38.9578125
20
4.34706875
30
0
0
VERTEX
8
0
10
-38.806390625
20
4.2481375
30
0
0
VERTEX
8
0
10
-38.6591875
20
4.1430375
30
0
0
VERTEX
8
0
10
-38.516453125000005
20
4.031940625
30
0
0
VERTEX
8
0
10
-38.37843125
20
3.91504375
30
0
0
VERTEX
8
0
10
-38.24535625
20
3.792540625
30
0
0
VERTEX
8
0
10
-38.117459375
20
3.66464375
30
0
0
VERTEX
8
0
10
-37.99495625
20
3.5315687500000004
30
0
0
VERTEX
8
0
10
-37.878059375
20
3.393546875
30
0
0
VERTEX
8
0
10
-37.766962500000005
20
3.2508125000000003
30
0
0
VERTEX
8
0
10
-37.661862500000005
20
3.103609375
30
0
0
VERTEX
8
0
10
-37.56293125
20
2.9521875
30
0
0
VERTEX
8
0
10
-37.470346875000004
20
2.79680625
30
0
0
VERTEX
8
0
10
-37.384259375
20
2.637734375
30
0
0
VERTEX
8
0
10
-37.30481875
20
2.4752375
30
0
0
VERTEX
8
0
10
-37.2321625
20
2.309596875
30
0
0
VERTEX
8
0
10
-37.166415625
20
2.141096875
30
0
0
VERTEX
8
0
10
-37.107684375000005
20
1.970021875
30
0
0
VERTEX
8
0
10
-37.056075
20
1.79666875
30
0
0
VERTEX
8
0
10
-37.011671875000005
20
1.621328125
30
0
0
VERTEX
8
0
10
-36.97455625
20
1.4443062500000001
30
0
0
VERTEX
8
0
10
-36.944784375000005
20
1.2658968750000001
30
0
0
VERTEX
8
0
10
-36.9224125
20
1.0864125
30
0
0
VERTEX
8
0
10
-36.907475000000005
20
0.90615625
30
0
0
VERTEX
8
0
10
-36.9
20
0.7254375000000001
30
0
0
VERTEX
8
0
10
-36.9
20
0.5445625000000001
30
0
0
SEQEND
0
POLYLINE
66
1
8
holes
10
0.0
20
0.0
30
0.0
70
1
0
VERTEX
8
0
10
-14.675
20
0.5445625000000001
30
0
0
VERTEX
8
0
10
-14.682475
20
0.36384375
30
0
0
VERTEX
8
0
10
-14.6974125
20
0.18358750000000001
30
0
0
VERTEX
8
0
10
-14.719784375000001
20
0.004103125
30
0
0
VERTEX
8
0
10
-14.749556250000001
20
-0.17430625
30
0
0
VERTEX
8
0
10
-14.786671875000001
20
-0.351328125
30
0
0
VERTEX
8
0
10
-14.831075
20
-0.52666875
30
0
0
VERTEX
8
0
10
-14.882684375
20
-0.700021875
30
0
0
VERTEX
8
0
10
-14.941415625000001
20
-0.871096875
30
0
0
VERTEX
8
0
10
-15.007162500000002
20
-1.039596875
30
0
0
VERTEX
8
0
10
-15.079818750000001
20
-1.2052375
30
0
0
VERTEX
8
0
10
-15.159259375000001
20
-1.3677343750000002
30
0
0
VERTEX
8
0
10
-15.245346875000001
20
-1.5268062500000001
30
0
0
VERTEX
8
0
10
-15.33793125
20
-1.6821875000000002
30
0
0
VERTEX
8
0
10
-15.4368625
20
-1.833609375
30
0
0
VERTEX
8
0
10
-15.5419625
20
-1.9808125
30
0
0
VERTEX
8
0
10
-15.653059375000002
20
-2.123546875
30
0
0
VERTEX
8
0
10
-15.76995625
20
-2.26156875
30
0
0
VERTEX
8
0
10
-15.892459375000001
20
-2.39464375
30
0
0
VERTEX
8
0
10
-16.020356250000003
20
-2.522540625
30
0
0
VERTEX
8
0
10
-16.15343125
20
-2.64504375
30
0
0
VERTEX
8
0
10
-16.291453125
20
-2.7619406250000003
30
0
0
VERTEX
8
0
10
-16.4341875
20
-2.8730375
30
0
0
VERTEX
8
0
10
-16.581390625
20
-2.9781375000000003
30
0
0
VERTEX
8
0
10
-16.7328125
20
-3.07706875
30
0
0
VERTEX
8
0
10
-16.88819375
20
-3.169653125
30
0
0
VERTEX
8
0
10
-17.047265625
20
-3.255740625
30
0
0
VERTEX
8
0
10
-17.2097625
20
-3.33518125
30
0
0
VERTEX
8
0
10
-17.375403125000002
20
-3.4078375000000003
30
0
0
VERTEX
8
0
10
-17.543903125
20
-3.473584375
30
0
0
VERTEX
8
0
10
-17.714978125000002
20
-3.5323156250000003
30
0
0
VERTEX
8
0
10
-17.88833125
20
-3.5839250000000002
30
0
0
VERTEX
8
0
10
-18.063671875
20
-3.6283281250000003
30
0
0
VERTEX
8
0
10
-18.240693750000002
20
-3.66544375
30
0
0
VERTEX
8
0
10
-18.419103125
20
-3.6952156250000003
30
0
0
VERTEX
8
0
10
-18.5985875
20
-3.7175875
30
0
0
VERTEX
8
0
10
-18.77884375
20
-3.7325250000000003
30
0
0
VERTEX
8
0
10
-18.9595625
20
-3.74
30
0
0
VERTEX
8
0
10
-19.1404375
20
-3.74
30
0
0
VERTEX
8
0
10
-19.32115625
20
-3.7325250000000003
30
0
0
VERTEX
8
0
10
-19.5014125
20
-3.7175875
30
0
0
VERTEX
8
0
10
-19.680896875000002
20
-3.6952156250000003
30
0
0
VERTEX
8
0
10
-19.85930625
20
-3.66544375
30
0
0
VERTEX
8
0
10
-20.036328125
20
-3.6283281250000003
30
0
0
VERTEX
8
0
10
-20.21166875
20
-3.5839250000000002
30
0
0
VERTEX
8
0
10
-20.385021875
20
-3.5323156250000003
30
0
0
VERTEX
8
0
10
-20.556096875
20
-3.473584375
30
0
0
VERTEX
8
0
10
-20.724596875
20
-3.4078375000000003
30
0
0
VERTEX
8
0
10
-20.8902375
20
-3.33518125
30
0
0
VERTEX
8
0
10
-21.052734375
20
-3.255740625
30
0
0
VERTEX
8
0
10
-21.211806250000002
20
-3.169653125
30
0
0
VERTEX
8
0
10
-21.3671875
20
-3.07706875
30
0
0
VERTEX
8
0
10
-21.518609375
20
-2.9781375000000003
30
0
0
VERTEX
8
0
10
-21.6658125
20
-2.8730375
30
0
0
VERTEX
8
0
10
-21.808546875
20
-2.7619406250000003
30
0
0
VERTEX
8
0
10
-21.94656875
20
-2.64504375
30
0
0
VERTEX
8
0
10
-22.079643750000002
20
-2.522540625
30
0
0
VERTEX
8
0
10
-22.207540625
20
-2.39464375
30
0
0
VERTEX
8
0
10
-22.33004375
20
-2.26156875
30
0
0
VERTEX
8
0
10
-22.446940625
20
-2.123546875
30
0
0
VERTEX
8
0
10
-22.5580375
20
-1.9808125
30
0
0
VERTEX
8
0
10
-22.6631375
20
-1.833609375
30
0
0
VERTEX
8
0
10
-22.76206875
20
-1.6821875000000002
30
0
0
VERTEX
8
0
10
-22.854653125000002
20
-1.5268062500000001
30
0
0
VERTEX
8
0
10
-22.940740625
20
-1.3677343750000002
30
0
0
VERTEX
8
0
10
-23.02018125
20
-1.2052375
30
0
0
VERTEX
8
0
10
-23.0928375
20
-1.039596875
30
0
0
VERTEX
8
0
10
-23.158584375
20
-0.871096875
30
0
0
VERTEX
8
0
10
-23.217315625
20
-0.700021875
30
0
0
VERTEX
8
0
10
-23.268925
20
-0.52666875
30
0
0
VERTEX
8
0
10
-23.313328125
20
-0.351328125
30
0
0
VERTEX
8
0
10
-23.35044375
20
-0.17430625
30
0
0
VERTEX
8
0
10
-23.380215625
20
0.004103125
30
0
0
VERTEX
8
0
10
-23.402587500000003
20
0.18358750000000001
30
0
0
VERTEX
8
0
10
-23.417525
20
0.36384375
30
0
0
VERTEX
8
0
10
-23.425
20
0.5445625000000001
30
0
0
VERTEX
8
0
10
-23.425
20
0.7254375000000001
30
0
0
VERTEX
8
0
10
-23.417525
20
0.90615625
30
0
0
VERTEX
8
0
10
-23.402587500000003
20
1.0864125
30
0
0
VERTEX
8
0
10
-23.380215625
20
1.2658968750000001
30
0
0
VERTEX
8
0
10
-23.35044375
20
1.4443062500000001
30
0
0
VERTEX
8
0
10
-23.313328125
20
1.621328125
30
0
0
VERTEX
8
0
10
-23.268925
20
1.79666875
30
0
0
VERTEX
8
0
10
-23.217315625
20
1.970021875
30
0
0
VERTEX
8
0
10
-23.158584375
20
2.141096875
30
0
0
VERTEX
8
0
10
-23.0928375
20
2.309596875
30
0
0
VERTEX
8
0
10
-23.02018125
20
2.4752375
30
0
0
VERTEX
8
0
10
-22.940740625
20
2.637734375
30
0
0
VERTEX
8
0
10
-22.854653125000002
20
2.79680625
30
0
0
VERTEX
8
0
10
-22.76206875
20
2.9521875
30
0
0
VERTEX
8
0
10
-22.6631375
20
3.103609375
30
0
0
VERTEX
8
0
10
-22.5580375
20
3.2508125000000003
30
0
0
VERTEX
8
0
10
-22.446940625
20
3.393546875
30
0
0
VERTEX
8
0
10
-22.33004375
20
3.5315687500000004
30
0
0
VERTEX
8
0
10
-22.207540625
20
3.66464375
30
0
0
VERTEX
8
0
10
-22.079643750000002
20
3.792540625
30
0
0
VERTEX
8
0
10
-21.94656875
20
3.91504375
30
0
0
VERTEX
8
0
10
-21.808546875
20
4.031940625
30
0
0
VERTEX
8
0
10
-21.6658125
20
4.1430375
30
0
0
VERTEX
8
0
10
-21.518609375
20
4.2481375
30
0
0
VERTEX
8
0
10
-21.3671875
20
4.34706875
30
0
0
VERTEX
8
0
10
-21.211806250000002
20
4.439653125
30
0
0
VERTEX
8
0
10
-21.052734375
20
4.525740625
30
0
0
VERTEX
8
0
10
-20.8902375
20
4.60518125
30
0
0
VERTEX
8
0
10
-20.724596875
20
4.6778375
30
0
0
VERTEX
8
0
10
-20.556096875
20
4.743584375
30
0
0
VERTEX
8
0
10
-20.385021875
20
4.802315625
30
0
0
VERTEX
8
0
10
-20.21166875
20
4.853925
30
0
0
VERTEX
8
0
10
-20.036328125
20
4.898328125
30
0
0
VERTEX
8
0
10
-19.85930625
20
4.93544375
30
0
0
VERTEX
8
0
10
-19.680896875000002
20
4.965215625
30
0
0
VERTEX
8
0
10
-19.5014125
20
4.9875875
30
0
0
VERTEX
8
0
10
-19.32115625
20
5.002525
30
0
0
VERTEX
8
0
10
-19.1404375
20
5.010000000000001
30
0
0
VERTEX
8
0
10
-18.9595625
20
5.010000000000001
30
0
0
VERTEX
8
0
10
-18.77884375
20
5.002525
30
0
0
VERTEX
8
0
10
-18.5985875
20
4.9875875
30
0
0
VERTEX
8
0
10
-18.419103125
20
4.965215625
30
0
0
VERTEX
8
0
10
-18.240693750000002
20
4.93544375
30
0
0
VERTEX
8
0
10
-18.063671875
20
4.898328125
30
0
0
VERTEX
8
0
10
-17.88833125
20
4.853925
30
0
0
VERTEX
8
0
10
-17.714978125000002
20
4.802315625
30
0
0
VERTEX
8
0
10
-17.543903125
20
4.743584375
30
0
0
VERTEX
8
0
10
-17.375403125000002
20
4.6778375
30
0
0
VERTEX
8
0
10
-17.2097625
20
4.60518125
30
0
0
VERTEX
8
0
10
-17.047265625
20
4.525740625
30
0
0
VERTEX
8
0
10
-16.88819375
20
4.439653125
30
0
0
VERTEX
8
0
10
-16.7328125
20
4.34706875
30
0
0
VERTEX
8
0
10
-16.581390625
20
4.2481375
30
0
0
VERTEX
8
0
10
-16.4341875
20
4.1430375
30
0
0
VERTEX
8
0
10
-16.291453125
20
4.031940625
30
0
0
VERTEX
8
0
10
-16.15343125
20
3.91504375
30
0
0
VERTEX
8
0
10
-16.020356250000003
20
3.792540625
30
0
0
VERTEX
8
0
10
-15.892459375000001
20
3.66464375
30
0
0
VERTEX
8
0
10
-15.76995625
20
3.5315687500000004
30
0
0
VERTEX
8
0
10
-15.653059375000002
20
3.393546875
30
0
0
VERTEX
8
0
10
-15.5419625
20
3.2508125000000003
30
0
0
VERTEX
8
0
10
-15.4368625
20
3.103609375
30
0
0
VERTEX
8
0
10
-15.33793125
20
2.9521875
30
0
0
VERTEX
8
0
10
-15.245346875000001
20
2.79680625
30
0
0
VERTEX
8
0
10
-15.159259375000001
20
2.637734375
30
0
0
VERTEX
8
0
10
-15.079818750000001
20
2.4752375
30
0
0
VERTEX
8
0
10
-15.007162500000002
20
2.309596875
30
0
0
VERTEX
8
0
10
-14.941415625000001
20
2.141096875
30
0
0
VERTEX
8
0
10
-14.882684375
20
1.970021875
30
0
0
VERTEX
8
0
10
-14.831075
20
1.79666875
30
0
0
VERTEX
8
0
10
-14.786671875000001
20
1.621328125
30
0
0
VERTEX
8
0
10
-14.749556250000001
20
1.4443062500000001
30
0
0
VERTEX
8
0
10
-14.719784375000001
20
1.2658968750000001
30
0
0
VERTEX
8
0
10
-14.6974125
20
1.0864125
30
0
0
VERTEX
8
0
10
-14.682475
20
0.90615625
30
0
0
VERTEX
8
0
10
-14.675
20
0.7254375000000001
30
0
0
VERTEX
8
0
10
-14.675
20
0.5445625000000001
30
0
0
SEQEND
0
POLYLINE
66
1
8
1_copper
10
0.0
20
0.0
30
0.0
70
1
0
VERTEX
8
0
10
0.0640875
20
16.677809375000002
30
0
42
0.9999999999999999
0
VERTEX
8
0
10
-0.0640875
20
17.322190625
30
0
0
VERTEX
8
0
10
-0.10559375
20
17.31106875
30
0
42
0.8769752497576353
0
VERTEX
8
0
10
0.021484375
20
16.6722
30
0
0
SEQEND
0
POLYLINE
66
1
8
16_copper
10
0.0
20
0.0
30
0.0
70
1
0
VERTEX
8
0
10
0.0640875
20
16.677809375000002
30
0
42
0.9999999999999999
0
VERTEX
8
0
10
-0.0640875
20
17.322190625
30
0
0
VERTEX
8
0
10
-0.10559375
20
17.31106875
30
0
42
0.8769752497576353
0
VERTEX
8
0
10
0.021484375
20
16.6722
30
0
0
SEQEND
0
CIRCLE
8
drills_NPTH
10
-63.5
20
0.635
30
0
40
4.375
0
CIRCLE
8
drills_NPTH
10
-41.275
20
0.635
30
0
40
4.375
0
CIRCLE
8
drills_NPTH
10
-19.05
20
0.635
30
0
40
4.375
0
CIRCLE
8
drills_via_1_16
10
0
20
17
30
0
40
0.15
0
ENDSEC
0
EOF