999
dxfrw 0.6.3
  0
SECTION
  2
HEADER
  9
$ACADVER
  1
AC1014
  9
$DWGCODEPAGE
  3
ANSI_1252
  9
$INSBASE
 10
0
 20
0
 30
0
  9
$EXTMIN
 10
-87.81385538069186
 20
-51.25
 30
0
  9
$EXTMAX
 10
101.25
 20
63.125
 30
0
  9
$LIMMIN
 10
0
 20
0
  9
$LIMMAX
 10
420
 20
297
  9
$ORTHOMODE
 70
    0
  9
$REGENMODE
 70
    1
  9
$FILLMODE
 70
    1
  9
$QTEXTMODE
 70
    0
  9
$MIRRTEXT
 70
    0
  9
$LTSCALE
 40
1
  9
$ATTMODE
 70
    0
  9
$TEXTSIZE
 40
2.5
  9
$TRACEWID
 40
15.68
  9
$TEXTSTYLE
  7
STANDARD
  9
$CLAYER
  8
Dimensions
  9
$CELTYPE
  6
BYLAYER
  9
$CECOLOR
 62
  256
  9
$CELTSCALE
 40
1
  9
$DISPSILH
 70
    0
  9
$DIMSCALE
 40
1
  9
$DIMASZ
 40
2.5
  9
$DIMEXO
 40
0.625
  9
$DIMDLI
 40
3.75
  9
$DIMRND
 40
0
  9
$DIMDLE
 40
0
  9
$DIMEXE
 40
1.25
  9
$DIMTP
 40
0
  9
$DIMTM
 40
0
  9
$DIMTXT
 40
2.5
  9
$DIMCEN
 40
2.5
  9
$DIMTSZ
 40
0
  9
$DIMTOL
 70
    0
  9
$DIMLIM
 70
    0
  9
$DIMTIH
 70
    0
  9
$DIMTOH
 70
    0
  9
$DIMSE1
 70
    0
  9
$DIMSE2
 70
    0
  9
$DIMTAD
 70
    1
  9
$DIMZIN
 70
    1
  9
$DIMBLK
  1

  9
$DIMASO
 70
    1
  9
$DIMSHO
 70
    1
  9
$DIMPOST
  1

  9
$DIMAPOST
  1

  9
$DIMALT
 70
    0
  9
$DIMALTD
 70
    3
  9
$DIMALTF
 40
0.03937
  9
$DIMLFAC
 40
1
  9
$DIMTOFL
 70
    1
  9
$DIMTVP
 40
0
  9
$DIMTIX
 70
    0
  9
$DIMSOXD
 70
    0
  9
$DIMSAH
 70
    0
  9
$DIMBLK1
  1

  9
$DIMBLK2
  1

  9
$DIMSTYLE
  2
Standard
  9
$DIMCLRD
 70
    0
  9
$DIMCLRE
 70
    0
  9
$DIMCLRT
 70
    0
  9
$DIMTFAC
 40
1
  9
$DIMGAP
 40
0.625
  9
$DIMJUST
 70
    0
  9
$DIMSD1
 70
    0
  9
$DIMSD2
 70
    0
  9
$DIMTOLJ
 70
    0
  9
$DIMTZIN
 70
    8
  9
$DIMALTZ
 70
    0
  9
$DIMALTTZ
 70
    0
  9
$DIMUPT
 70
    0
  9
$DIMDEC
 70
    2
  9
$DIMTDEC
 70
    2
  9
$DIMALTU
 70
    2
  9
$DIMALTTD
 70
    3
  9
$DIMTXSTY
  7
standard
  9
$DIMAUNIT
 70
    0
  9
$DIMADEC
 70
    2
  9
$DIMALTRND
 40
0
  9
$DIMAZIN
 70
    0
  9
$DIMDSEP
 70
    0
  9
$DIMATFIT
 70
    3
  9
$DIMFRAC
 70
    0
  9
$DIMLDRBLK
  1
STANDARD
  9
$DIMUNIT
 70
    2
  9
$DIMLWD
 70
   -2
  9
$DIMLWE
 70
   -2
  9
$DIMTMOVE
 70
    0
  9
$LUNITS
 70
    2
  9
$LUPREC
 70
    4
  9
$SKETCHINC
 40
1
  9
$FILLETRAD
 40
0
  9
$AUNITS
 70
    0
  9
$AUPREC
 70
    2
  9
$MENU
  1
.
  9
$ELEVATION
 40
0
  9
$PELEVATION
 40
0
  9
$THICKNESS
 40
0
  9
$LIMCHECK
 70
    0
  9
$BLIPMODE
 70
    0
  9
$CHAMFERA
 40
0
  9
$CHAMFERB
 40
0
  9
$CHAMFERC
 40
0
  9
$CHAMFERD
 40
0
  9
$SKPOLY
 70
    0
  9
$USRTIMER
 70
    1
  9
$ANGBASE
 50
0
  9
$ANGDIR
 70
    1
  9
$PDMODE
 70
   34
  9
$PDSIZE
 40
0
  9
$PLINEWID
 40
0
  9
$SPLFRAME
 70
    0
  9
$SPLINETYPE
 70
    2
  9
$SPLINESEGS
 70
    8
  9
$HANDSEED
  5
20000
  9
$SURFTAB1
 70
    6
  9
$SURFTAB2
 70
    6
  9
$SURFTYPE
 70
    6
  9
$SURFU
 70
    6
  9
$SURFV
 70
    6
  9
$UCSBASE
  2

  9
$UCSNAME
  2

  9
$UCSORG
 10
0
 20
0
 30
0
  9
$UCSXDIR
 10
1
 20
0
 30
0
  9
$UCSYDIR
 10
0
 20
1
 30
0
  9
$UCSORTHOREF
  2

  9
$UCSORTHOVIEW
 70
    0
  9
$UCSORGTOP
 10
0
 20
0
 30
0
  9
$UCSORGBOTTOM
 10
0
 20
0
 30
0
  9
$UCSORGLEFT
 10
0
 20
0
 30
0
  9
$UCSORGRIGHT
 10
0
 20
0
 30
0
  9
$UCSORGFRONT
 10
0
 20
0
 30
0
  9
$UCSORGBACK
 10
0
 20
0
 30
0
  9
$PUCSBASE
  2

  9
$PUCSNAME
  2

  9
$PUCSORG
 10
0
 20
0
 30
0
  9
$PUCSXDIR
 10
1
 20
0
 30
0
  9
$PUCSYDIR
 10
0
 20
1
 30
0
  9
$PUCSORTHOREF
  2

  9
$PUCSORTHOVIEW
 70
    0
  9
$PUCSORGTOP
 10
0
 20
0
 30
0
  9
$PUCSORGBOTTOM
 10
0
 20
0
 30
0
  9
$PUCSORGLEFT
 10
0
 20
0
 30
0
  9
$PUCSORGRIGHT
 10
0
 20
0
 30
0
  9
$PUCSORGFRONT
 10
0
 20
0
 30
0
  9
$PUCSORGBACK
 10
0
 20
0
 30
0
  9
$USERI1
 70
    0
  9
$USERI2
 70
    0
  9
$USERI3
 70
    0
  9
$USERI4
 70
    0
  9
$USERI5
 70
    0
  9
$USERR1
 40
0
  9
$USERR2
 40
0
  9
$USERR3
 40
0
  9
$USERR4
 40
0
  9
$USERR5
 40
0
  9
$WORLDVIEW
 70
    1
  9
$SHADEDGE
 70
    3
  9
$SHADEDIF
 70
   70
  9
$TILEMODE
 70
    1
  9
$MAXACTVP
 70
   64
  9
$PINSBASE
 10
137.9465947922745
 20
95.67279413905312
 30
0
  9
$PLIMCHECK
 70
    0
  9
$PEXTMIN
 10
0
 20
0
 30
0
  9
$PEXTMAX
 10
0
 20
0
 30
0
  9
$GRIDMODE
 70
    1
  9
$SNAPSTYLE
 70
    0
  9
$GRIDUNIT
 10
0
 20
0
  9
$PLIMMIN
 10
0
 20
0
  9
$PLIMMAX
 10
297
 20
210
  9
$UNITMODE
 70
    0
  9
$VISRETAIN
 70
    1
  9
$PLINEGEN
 70
    0
  9
$PSLTSCALE
 70
    1
  9
$TREEDEPTH
 70
 3020
  9
$CMLSTYLE
  2
Standard
  9
$CMLJUST
 70
    0
  9
$CMLSCALE
 40
20
  9
$PROXYGRAPHICS
 70
    1
  9
$MEASUREMENT
 70
    1
  9
$CELWEIGHT
370
   -1
  9
$ENDCAPS
280
    0
  9
$JOINSTYLE
280
    0
  9
$LWDISPLAY
290
    0
  9
$HYPERLINKBASE
  1

  9
$STYLESHEET
  1

  9
$XEDIT
290
    1
  9
$CEPSNTYPE
380
    0
  9
$PSTYLEMODE
290
    1
  9
$EXTNAMES
290
    1
  9
$PSVPSCALE
 40
1.570897829212104
  9
$OLESTARTUP
290
    0
  0
ENDSEC
  0
SECTION
  2
CLASSES
  0
ENDSEC
  0
SECTION
  2
TABLES
  0
TABLE
  2
VPORT
  5
8
100
AcDbSymbolTable
 70
    1
  0
VPORT
  5
31
330
2
100
AcDbSymbolTableRecord
100
AcDbViewportTableRecord
  2
*ACTIVE
 70
    0
 10
0
 20
0
 11
1
 21
1
 12
57.46014600715137
 22
32.30855184743743
 13
0
 23
0
 14
10
 24
10
 15
10
 25
10
 16
0
 26
0
 36
1
 17
0
 27
0
 37
0
 40
117.1014600715137
 41
1.846332945285215
 42
50
 43
0
 44
0
 50
0
 51
0
 71
    0
 72
  100
 73
    1
 74
    3
 75
    0
 76
    1
 77
    0
 78
    0
  0
ENDTAB
  0
TABLE
  2
LTYPE
  5
5
100
AcDbSymbolTable
 70
    4
  0
LTYPE
  5
14
100
AcDbSymbolTableRecord
100
AcDbLinetypeTableRecord
  2
ByBlock
 70
    0
  3

 72
   65
 73
    0
 40
0
  0
LTYPE
  5
15
100
AcDbSymbolTableRecord
100
AcDbLinetypeTableRecord
  2
ByLayer
 70
    0
  3

 72
   65
 73
    0
 40
0
  0
LTYPE
  5
16
100
AcDbSymbolTableRecord
100
AcDbLinetypeTableRecord
  2
Continuous
 70
    0
  3
Solid line
 72
   65
 73
    0
 40
0
  0
LTYPE
  5
32
330
5
100
AcDbSymbolTableRecord
100
AcDbLinetypeTableRecord
  2
DOT
 70
    0
  3
Dot . . . . . . . . . . . . . . . . . . . . . .
 72
   65
 73
    2
 40
6.35
 49
0
 74
    0
 49
-6.35
 74
    0
  0
LTYPE
  5
33
330
5
100
AcDbSymbolTableRecord
100
AcDbLinetypeTableRecord
  2
DOTTINY
 70
    0
  3
Dot (.15x) .....................................
 72
   65
 73
    2
 40
0.9525
 49
0
 74
    0
 49
-0.9525
 74
    0
  0
LTYPE
  5
34
330
5
100
AcDbSymbolTableRecord
100
AcDbLinetypeTableRecord
  2
DOT2
 70
    0
  3
Dot (.5x) .....................................
 72
   65
 73
    2
 40
3.175
 49
0
 74
    0
 49
-3.175
 74
    0
  0
LTYPE
  5
35
330
5
100
AcDbSymbolTableRecord
100
AcDbLinetypeTableRecord
  2
DOTX2
 70
    0
  3
Dot (2x) .  .  .  .  .  .  .  .  .  .  .  .  .
 72
   65
 73
    2
 40
12.7
 49
0
 74
    0
 49
-12.7
 74
    0
  0
LTYPE
  5
36
330
5
100
AcDbSymbolTableRecord
100
AcDbLinetypeTableRecord
  2
DASHED
 70
    0
  3
Dashed _ _ _ _ _ _ _ _ _ _ _ _ _ _ _ _ _
 72
   65
 73
    2
 40
19.05
 49
12.7
 74
    0
 49
-6.35
 74
    0
  0
LTYPE
  5
37
330
5
100
AcDbSymbolTableRecord
100
AcDbLinetypeTableRecord
  2
DASHEDTINY
 70
    0
  3
Dashed (.15x) _ _ _ _ _ _ _ _ _ _ _ _ _ _ _ _ _
 72
   65
 73
    2
 40
2.8575
 49
1.905
 74
    0
 49
-0.9525
 74
    0
  0
LTYPE
  5
38
330
5
100
AcDbSymbolTableRecord
100
AcDbLinetypeTableRecord
  2
DASHED2
 70
    0
  3
Dashed (.5x) _ _ _ _ _ _ _ _ _ _ _ _ _ _ _ _ _
 72
   65
 73
    2
 40
9.524999999999999
 49
6.35
 74
    0
 49
-3.175
 74
    0
  0
LTYPE
  5
39
330
5
100
AcDbSymbolTableRecord
100
AcDbLinetypeTableRecord
  2
DASHEDX2
 70
    0
  3
Dashed (2x) ____  ____  ____  ____  ____  ___
 72
   65
 73
    2
 40
38.09999999999999
 49
25.4
 74
    0
 49
-12.7
 74
    0
  0
LTYPE
  5
3A
330
5
100
AcDbSymbolTableRecord
100
AcDbLinetypeTableRecord
  2
DASHDOT
 70
    0
  3
Dash dot __ . __ . __ . __ . __ . __ . __ . __
 72
   65
 73
    4
 40
25.4
 49
12.7
 74
    0
 49
-6.35
 74
    0
 49
0
 74
    0
 49
-6.35
 74
    0
  0
LTYPE
  5
3B
330
5
100
AcDbSymbolTableRecord
100
AcDbLinetypeTableRecord
  2
DASHDOTTINY
 70
    0
  3
Dash dot (.15x) _._._._._._._._._._._._._._._.
 72
   65
 73
    4
 40
3.81
 49
1.905
 74
    0
 49
-0.9525
 74
    0
 49
0
 74
    0
 49
-0.9525
 74
    0
  0
LTYPE
  5
3C
330
5
100
AcDbSymbolTableRecord
100
AcDbLinetypeTableRecord
  2
DASHDOT2
 70
    0
  3
Dash dot (.5x) _._._._._._._._._._._._._._._.
 72
   65
 73
    4
 40
12.7
 49
6.35
 74
    0
 49
-3.175
 74
    0
 49
0
 74
    0
 49
-3.175
 74
    0
  0
LTYPE
  5
3D
330
5
100
AcDbSymbolTableRecord
100
AcDbLinetypeTableRecord
  2
DASHDOTX2
 70
    0
  3
Dash dot (2x) ____  .  ____  .  ____  .  ___
 72
   65
 73
    4
 40
50.8
 49
25.4
 74
    0
 49
-12.7
 74
    0
 49
0
 74
    0
 49
-12.7
 74
    0
  0
LTYPE
  5
3E
330
5
100
AcDbSymbolTableRecord
100
AcDbLinetypeTableRecord
  2
DIVIDE
 70
    0
  3
Divide ____ . . ____ . . ____ . . ____ . . ____
 72
   65
 73
    6
 40
31.75
 49
12.7
 74
    0
 49
-6.35
 74
    0
 49
0
 74
    0
 49
-6.35
 74
    0
 49
0
 74
    0
 49
-6.35
 74
    0
  0
LTYPE
  5
3F
330
5
100
AcDbSymbolTableRecord
100
AcDbLinetypeTableRecord
  2
DIVIDETINY
 70
    0
  3
Divide (.15x) __..__..__..__..__..__..__..__.._
 72
   65
 73
    6
 40
4.7625
 49
1.905
 74
    0
 49
-0.9525
 74
    0
 49
0
 74
    0
 49
-0.9525
 74
    0
 49
0
 74
    0
 49
-0.9525
 74
    0
  0
LTYPE
  5
40
330
5
100
AcDbSymbolTableRecord
100
AcDbLinetypeTableRecord
  2
DIVIDE2
 70
    0
  3
Divide (.5x) __..__..__..__..__..__..__..__.._
 72
   65
 73
    6
 40
15.875
 49
6.35
 74
    0
 49
-3.175
 74
    0
 49
0
 74
    0
 49
-3.175
 74
    0
 49
0
 74
    0
 49
-3.175
 74
    0
  0
LTYPE
  5
41
330
5
100
AcDbSymbolTableRecord
100
AcDbLinetypeTableRecord
  2
DIVIDEX2
 70
    0
  3
Divide (2x) ________  .  .  ________  .  .  _
 72
   65
 73
    6
 40
63.5
 49
25.4
 74
    0
 49
-12.7
 74
    0
 49
0
 74
    0
 49
-12.7
 74
    0
 49
0
 74
    0
 49
-12.7
 74
    0
  0
LTYPE
  5
42
330
5
100
AcDbSymbolTableRecord
100
AcDbLinetypeTableRecord
  2
BORDER
 70
    0
  3
Border __ __ . __ __ . __ __ . __ __ . __ __ .
 72
   65
 73
    6
 40
44.45
 49
12.7
 74
    0
 49
-6.35
 74
    0
 49
12.7
 74
    0
 49
-6.35
 74
    0
 49
0
 74
    0
 49
-6.35
 74
    0
  0
LTYPE
  5
43
330
5
100
AcDbSymbolTableRecord
100
AcDbLinetypeTableRecord
  2
BORDERTINY
 70
    0
  3
Border (.15x) __.__.__.__.__.__.__.__.__.__.__.
 72
   65
 73
    6
 40
6.6675
 49
1.905
 74
    0
 49
-0.9525
 74
    0
 49
1.905
 74
    0
 49
-0.9525
 74
    0
 49
0
 74
    0
 49
-0.9525
 74
    0
  0
LTYPE
  5
44
330
5
100
AcDbSymbolTableRecord
100
AcDbLinetypeTableRecord
  2
BORDER2
 70
    0
  3
Border (.5x) __.__.__.__.__.__.__.__.__.__.__.
 72
   65
 73
    6
 40
22.225
 49
6.35
 74
    0
 49
-3.175
 74
    0
 49
6.35
 74
    0
 49
-3.175
 74
    0
 49
0
 74
    0
 49
-3.175
 74
    0
  0
LTYPE
  5
45
330
5
100
AcDbSymbolTableRecord
100
AcDbLinetypeTableRecord
  2
BORDERX2
 70
    0
  3
Border (2x) ____  ____  .  ____  ____  .  ___
 72
   65
 73
    6
 40
88.89999999999999
 49
25.4
 74
    0
 49
-12.7
 74
    0
 49
25.4
 74
    0
 49
-12.7
 74
    0
 49
0
 74
    0
 49
-12.7
 74
    0
  0
LTYPE
  5
46
330
5
100
AcDbSymbolTableRecord
100
AcDbLinetypeTableRecord
  2
CENTER
 70
    0
  3
Center ____ _ ____ _ ____ _ ____ _ ____ _ ____
 72
   65
 73
    4
 40
50.8
 49
31.75
 74
    0
 49
-6.35
 74
    0
 49
6.35
 74
    0
 49
-6.35
 74
    0
  0
LTYPE
  5
47
330
5
100
AcDbSymbolTableRecord
100
AcDbLinetypeTableRecord
  2
CENTERTINY
 70
    0
  3
Center (.15x) ___ _ ___ _ ___ _ ___ _ ___ _ ___
 72
   65
 73
    4
 40
7.62
 49
4.7625
 74
    0
 49
-0.9525
 74
    0
 49
0.9525
 74
    0
 49
-0.9525
 74
    0
  0
LTYPE
  5
48
330
5
100
AcDbSymbolTableRecord
100
AcDbLinetypeTableRecord
  2
CENTER2
 70
    0
  3
Center (.5x) ___ _ ___ _ ___ _ ___ _ ___ _ ___
 72
   65
 73
    4
 40
28.575
 49
19.05
 74
    0
 49
-3.175
 74
    0
 49
3.175
 74
    0
 49
-3.175
 74
    0
  0
LTYPE
  5
49
330
5
100
AcDbSymbolTableRecord
100
AcDbLinetypeTableRecord
  2
CENTERX2
 70
    0
  3
Center (2x) ________  __  ________  __  _____
 72
   65
 73
    4
 40
101.6
 49
63.5
 74
    0
 49
-12.7
 74
    0
 49
12.7
 74
    0
 49
-12.7
 74
    0
  0
ENDTAB
  0
TABLE
  2
LAYER
  5
2
100
AcDbSymbolTable
 70
    1
  0
LAYER
  5
10
330
2
100
AcDbSymbolTableRecord
100
AcDbLayerTableRecord
  2
0
 70
    0
 62
    7
  6
CONTINUOUS
370
    0
390
F
  0
LAYER
  5
4A
330
2
100
AcDbSymbolTableRecord
100
AcDbLayerTableRecord
  2
Dimensions
 70
    0
 62
    5
  6
CONTINUOUS
370
    0
390
F
  0
ENDTAB
  0
TABLE
  2
STYLE
  5
3
100
AcDbSymbolTable
 70
    3
  0
STYLE
  5
4B
330
2
100
AcDbSymbolTableRecord
100
AcDbTextStyleTableRecord
  2
Standard
 70
    0
 40
0
 41
1
 50
0
 71
    0
 42
1
  3
txt
  4

  0
ENDTAB
  0
TABLE
  2
VIEW
  5
6
100
AcDbSymbolTable
 70
    0
  0
ENDTAB
  0
TABLE
  2
UCS
  5
7
100
AcDbSymbolTable
 70
    0
  0
ENDTAB
  0
TABLE
  2
APPID
  5
9
100
AcDbSymbolTable
 70
    1
  0
APPID
  5
12
100
AcDbSymbolTableRecord
100
AcDbRegAppTableRecord
  2
ACAD
 70
    0
  0
APPID
  5
4C
100
AcDbSymbolTableRecord
100
AcDbRegAppTableRecord
  2
LibreCad
 70
    0
  0
ENDTAB
  0
TABLE
  2
DIMSTYLE
  5
A
100
AcDbSymbolTable
 70
    1
  0
DIMSTYLE
105
4D
330
A
100
AcDbSymbolTableRecord
100
AcDbDimStyleTableRecord
  2
Standard
 70
    0
 40
1
 41
2.5
 42
0.625
 43
0.38
 44
1.25
 45
0
 46
0
 47
0
 48
0
 49
1
140
2.5
141
0.09
142
0
143
25.4
144
1
145
0
146
1
147
0.625
 71
    0
 72
    0
 73
    0
 74
    1
 75
    0
 76
    0
 77
    0
 78
    1
170
    0
171
    2
172
    0
173
    0
174
    0
175
    0
176
    0
177
    0
178
    0
270
    2
271
    2
272
    4
273
    2
274
    2
275
    0
280
    0
281
    0
282
    0
283
    1
284
    0
285
    0
286
    0
287
    3
288
    0
340
standard
  0
ENDTAB
  0
TABLE
  2
BLOCK_RECORD
  5
1
100
AcDbSymbolTable
 70
    2
  0
BLOCK_RECORD
  5
1F
100
AcDbSymbolTableRecord
100
AcDbBlockTableRecord
  2
*Model_Space
  0
BLOCK_RECORD
  5
1E
100
AcDbSymbolTableRecord
100
AcDbBlockTableRecord
  2
*Paper_Space
  0
BLOCK_RECORD
  5
4E
100
AcDbSymbolTableRecord
100
AcDbBlockTableRecord
  2
*D28
  0
BLOCK_RECORD
  5
51
100
AcDbSymbolTableRecord
100
AcDbBlockTableRecord
  2
*D7
  0
BLOCK_RECORD
  5
54
100
AcDbSymbolTableRecord
100
AcDbBlockTableRecord
  2
*D20
  0
BLOCK_RECORD
  5
57
100
AcDbSymbolTableRecord
100
AcDbBlockTableRecord
  2
*D26
  0
BLOCK_RECORD
  5
5A
100
AcDbSymbolTableRecord
100
AcDbBlockTableRecord
  2
*D2
  0
BLOCK_RECORD
  5
5D
100
AcDbSymbolTableRecord
100
AcDbBlockTableRecord
  2
*D15
  0
BLOCK_RECORD
  5
60
100
AcDbSymbolTableRecord
100
AcDbBlockTableRecord
  2
*D21
  0
BLOCK_RECORD
  5
63
100
AcDbSymbolTableRecord
100
AcDbBlockTableRecord
  2
*D1
  0
BLOCK_RECORD
  5
66
100
AcDbSymbolTableRecord
100
AcDbBlockTableRecord
  2
*D12
  0
BLOCK_RECORD
  5
69
100
AcDbSymbolTableRecord
100
AcDbBlockTableRecord
  2
*D14
  0
BLOCK_RECORD
  5
6C
100
AcDbSymbolTableRecord
100
AcDbBlockTableRecord
  2
*D11
  0
BLOCK_RECORD
  5
6F
100
AcDbSymbolTableRecord
100
AcDbBlockTableRecord
  2
*D5
  0
BLOCK_RECORD
  5
72
100
AcDbSymbolTableRecord
100
AcDbBlockTableRecord
  2
*D23
  0
BLOCK_RECORD
  5
75
100
AcDbSymbolTableRecord
100
AcDbBlockTableRecord
  2
*D9
  0
BLOCK_RECORD
  5
78
100
AcDbSymbolTableRecord
100
AcDbBlockTableRecord
  2
*D24
  0
BLOCK_RECORD
  5
7B
100
AcDbSymbolTableRecord
100
AcDbBlockTableRecord
  2
*D3
  0
BLOCK_RECORD
  5
7E
100
AcDbSymbolTableRecord
100
AcDbBlockTableRecord
  2
*D25
  0
BLOCK_RECORD
  5
81
100
AcDbSymbolTableRecord
100
AcDbBlockTableRecord
  2
*D22
  0
BLOCK_RECORD
  5
84
100
AcDbSymbolTableRecord
100
AcDbBlockTableRecord
  2
*D4
  0
BLOCK_RECORD
  5
87
100
AcDbSymbolTableRecord
100
AcDbBlockTableRecord
  2
*D27
  0
BLOCK_RECORD
  5
8A
100
AcDbSymbolTableRecord
100
AcDbBlockTableRecord
  2
*D6
  0
BLOCK_RECORD
  5
8D
100
AcDbSymbolTableRecord
100
AcDbBlockTableRecord
  2
*D8
  0
BLOCK_RECORD
  5
90
100
AcDbSymbolTableRecord
100
AcDbBlockTableRecord
  2
*D10
  0
BLOCK_RECORD
  5
93
100
AcDbSymbolTableRecord
100
AcDbBlockTableRecord
  2
*D13
  0
BLOCK_RECORD
  5
96
100
AcDbSymbolTableRecord
100
AcDbBlockTableRecord
  2
*D19
  0
BLOCK_RECORD
  5
99
100
AcDbSymbolTableRecord
100
AcDbBlockTableRecord
  2
*D18
  0
BLOCK_RECORD
  5
9C
100
AcDbSymbolTableRecord
100
AcDbBlockTableRecord
  2
*D17
  0
BLOCK_RECORD
  5
9F
100
AcDbSymbolTableRecord
100
AcDbBlockTableRecord
  2
*D16
  0
ENDTAB
  0
ENDSEC
  0
SECTION
  2
BLOCKS
  0
BLOCK
  5
20
100
AcDbEntity
  8
0
100
AcDbBlockBegin
  2
*Model_Space
 70
    0
 10
0
 20
0
 30
0
  3
*Model_Space
  1

  0
ENDBLK
  5
21
100
AcDbEntity
  8
0
100
AcDbBlockEnd
  0
BLOCK
  5
1C
100
AcDbEntity
  8
0
100
AcDbBlockBegin
  2
*Paper_Space
 70
    0
 10
0
 20
0
 30
0
  3
*Paper_Space
  1

  0
ENDBLK
  5
1D
100
AcDbEntity
  8
0
100
AcDbBlockEnd
  0
BLOCK
  5
4F
100
AcDbEntity
  8
0
100
AcDbBlockBegin
  2
*D28
 70
    1
 10
0
 20
0
  3
*D28
  1

  0
SOLID
  5
A2
100
AcDbEntity
  8
Dimensions
  6
ByBlock
 62
    0
100
AcDbTrace
 10
-69.5850779944158
 20
38.34188827470601
 30
0
 11
-71.52453835098835
 21
39.97338649461939
 31
0
 12
-70.89121399132652
 22
40.51382328153082
 32
0
 13
-70.89121399132652
 23
40.51382328153082
 33
0
  0
LINE
  5
A3
100
AcDbEntity
  8
Dimensions
  6
ByBlock
 62
    0
100
AcDbLine
 10
-67.8
 20
36.25
 11
-76.61720342696299
 21
46.58266026597221
  0
MTEXT
  5
A4
100
AcDbEntity
  8
Dimensions
  6
CONTINUOUS
 62
    0
100
AcDbMText
 10
-71.67485325066257
 20
43.67937290289534
 30
0
 40
2.5
 41
5.833333333333488
 71
    5
 72
    1
  1
2.75
  7
standard
210
0
220
0
230
1
 50
310.4752315271659
 73
    2
 44
1
  0
ENDBLK
  5
50
100
AcDbEntity
  8
0
100
AcDbBlockEnd
  0
BLOCK
  5
52
100
AcDbEntity
  8
0
100
AcDbBlockBegin
  2
*D7
 70
    1
 10
0
 20
0
  3
*D7
  1

  0
LINE
  5
A5
100
AcDbEntity
  8
Dimensions
  6
ByBlock
 62
    0
100
AcDbLine
 10
38
 20
6.75
 11
38
 21
9.037215420448785e-17
  0
MTEXT
  5
A6
100
AcDbEntity
  8
Dimensions
  6
CONTINUOUS
 62
    0
100
AcDbMText
 10
36.125
 20
3.375
 30
0
 40
2.5
 41
5.833333333333643
 71
    5
 72
    1
  1
6.75
  7
standard
210
0
220
0
230
1
 50
90
 73
    2
 44
1
  0
SOLID
  5
A7
100
AcDbEntity
  8
Dimensions
  6
ByBlock
 62
    0
100
AcDbTrace
 10
38
 20
6.75
 30
0
 11
38.41628465777284
 21
4.25
 31
0
 12
37.58371534222716
 22
4.25
 32
0
 13
37.58371534222716
 23
4.25
 33
0
  0
SOLID
  5
A8
100
AcDbEntity
  8
Dimensions
  6
ByBlock
 62
    0
100
AcDbTrace
 10
38
 20
9.037215420448785e-17
 30
0
 11
37.58371534222716
 21
2.5
 31
0
 12
38.41628465777284
 22
2.5
 32
0
 13
38.41628465777284
 23
2.5
 33
0
  0
LINE
  5
A9
100
AcDbEntity
  8
Dimensions
  6
ByBlock
 62
    0
100
AcDbLine
 10
37.475
 20
6.75
 11
36.75
 21
6.75
  0
LINE
  5
AA
100
AcDbEntity
  8
Dimensions
  6
ByBlock
 62
    0
100
AcDbLine
 10
37.475
 20
1.598046239607853e-16
 11
36.75
 21
2.43447948432285e-16
  0
ENDBLK
  5
53
100
AcDbEntity
  8
0
100
AcDbBlockEnd
  0
BLOCK
  5
55
100
AcDbEntity
  8
0
100
AcDbBlockBegin
  2
*D20
 70
    1
 10
0
 20
0
  3
*D20
  1

  0
SOLID
  5
AB
100
AcDbEntity
  8
Dimensions
  6
ByBlock
 62
    0
100
AcDbTrace
 10
48.81289321881346
 20
21.04710678118655
 30
0
 11
46.75076856143199
 21
22.52051602973782
 31
0
 12
47.33948397026219
 22
23.10923143856801
 32
0
 13
47.33948397026219
 23
23.10923143856801
 33
0
  0
LINE
  5
AC
100
AcDbEntity
  8
Dimensions
  6
ByBlock
 62
    0
100
AcDbLine
 10
49.52
 20
20.34
 11
38.40271005134484
 21
31.45728994865516
  0
MTEXT
  5
AD
100
AcDbEntity
  8
Dimensions
  6
CONTINUOUS
 62
    0
100
AcDbMText
 10
44.93362684980393
 20
27.57802357964563
 30
0
 40
2.5
 41
9.722222222222221
 71
    5
 72
    1
  1
4-R1.0
  7
standard
210
0
220
0
230
1
 50
315
 73
    2
 44
1
  0
ENDBLK
  5
56
100
AcDbEntity
  8
0
100
AcDbBlockEnd
  0
BLOCK
  5
58
100
AcDbEntity
  8
0
100
AcDbBlockBegin
  2
*D26
 70
    1
 10
0
 20
0
  3
*D26
  1

  0
SOLID
  5
AE
100
AcDbEntity
  8
Dimensions
  6
ByBlock
 62
    0
100
AcDbTrace
 10
-78.03286642676581
 20
29.68231734607896
 30
0
 11
-80.46899247720431
 21
30.3813043149646
 31
0
 12
-80.11104297044695
 22
31.13299827915506
 32
0
 13
-80.11104297044695
 23
31.13299827915506
 33
0
  0
LINE
  5
AF
100
AcDbEntity
  8
Dimensions
  6
ByBlock
 62
    0
100
AcDbLine
 10
-75.55
 20
28.5
 11
-87.81385538069186
 21
34.33993113366279
  0
MTEXT
  5
B0
100
AcDbEntity
  8
Dimensions
  6
CONTINUOUS
 62
    0
100
AcDbMText
 10
-82.11723544049319
 20
33.70398771266574
 30
0
 40
2.5
 41
5.833333333333488
 71
    5
 72
    1
  1
2.75
  7
standard
210
0
220
0
230
1
 50
334.5366549381284
 73
    2
 44
1
  0
ENDBLK
  5
59
100
AcDbEntity
  8
0
100
AcDbBlockEnd
  0
BLOCK
  5
5B
100
AcDbEntity
  8
0
100
AcDbBlockBegin
  2
*D2
 70
    1
 10
0
 20
0
  3
*D2
  1

  0
LINE
  5
B1
100
AcDbEntity
  8
Dimensions
  6
ByBlock
 62
    0
100
AcDbLine
 10
-9.759999999999998
 20
20
 11
27.54
 21
20
  0
MTEXT
  5
B2
100
AcDbEntity
  8
Dimensions
  6
CONTINUOUS
 62
    0
100
AcDbMText
 10
8.890000000000001
 20
21.875
 30
0
 40
2.5
 41
7.777777777778088
 71
    5
 72
    1
  1
37.30
  7
standard
210
0
220
0
230
1
 50
0
 73
    2
 44
1
  0
SOLID
  5
B3
100
AcDbEntity
  8
Dimensions
  6
ByBlock
 62
    0
100
AcDbTrace
 10
-9.759999999999998
 20
20
 30
0
 11
-7.259999999999998
 21
20.41628465777284
 31
0
 12
-7.259999999999998
 22
19.58371534222716
 32
0
 13
-7.259999999999998
 23
19.58371534222716
 33
0
  0
SOLID
  5
B4
100
AcDbEntity
  8
Dimensions
  6
ByBlock
 62
    0
100
AcDbTrace
 10
27.54
 20
20
 30
0
 11
25.04
 21
19.58371534222716
 31
0
 12
25.04
 22
20.41628465777284
 32
0
 13
25.04
 23
20.41628465777284
 33
0
  0
LINE
  5
B5
100
AcDbEntity
  8
Dimensions
  6
ByBlock
 62
    0
100
AcDbLine
 10
-9.76
 20
14.325
 11
-9.759999999999998
 21
21.25
  0
LINE
  5
B6
100
AcDbEntity
  8
Dimensions
  6
ByBlock
 62
    0
100
AcDbLine
 10
27.54
 20
14.325
 11
27.54
 21
21.25
  0
ENDBLK
  5
5C
100
AcDbEntity
  8
0
100
AcDbBlockEnd
  0
BLOCK
  5
5E
100
AcDbEntity
  8
0
100
AcDbBlockBegin
  2
*D15
 70
    1
 10
0
 20
0
  3
*D15
  1

  0
LINE
  5
B7
100
AcDbEntity
  8
Dimensions
  6
ByBlock
 62
    0
100
AcDbLine
 10
0
 20
-20.00000000000001
 11
48.52
 21
-20.00000000000001
  0
MTEXT
  5
B8
100
AcDbEntity
  8
Dimensions
  6
CONTINUOUS
 62
    0
100
AcDbMText
 10
24.26
 20
-18.12500000000001
 30
0
 40
2.5
 41
8.05555555555571
 71
    5
 72
    1
  1
48.52
  7
standard
210
0
220
0
230
1
 50
0
 73
    2
 44
1
  0
SOLID
  5
B9
100
AcDbEntity
  8
Dimensions
  6
ByBlock
 62
    0
100
AcDbTrace
 10
0
 20
-20.00000000000001
 30
0
 11
2.5
 21
-19.58371534222717
 31
0
 12
2.5
 22
-20.41628465777285
 32
0
 13
2.5
 23
-20.41628465777285
 33
0
  0
SOLID
  5
BA
100
AcDbEntity
  8
Dimensions
  6
ByBlock
 62
    0
100
AcDbTrace
 10
48.52
 20
-20.00000000000001
 30
0
 11
46.02
 21
-20.41628465777285
 31
0
 12
46.02
 22
-19.58371534222717
 32
0
 13
46.02
 23
-19.58371534222717
 33
0
  0
LINE
  5
BB
100
AcDbEntity
  8
Dimensions
  6
ByBlock
 62
    0
100
AcDbLine
 10
-1.148068456708479e-16
 20
-0.625
 11
-2.296136913416957e-16
 21
-21.25000000000001
  0
LINE
  5
BC
100
AcDbEntity
  8
Dimensions
  6
ByBlock
 62
    0
100
AcDbLine
 10
48.52
 20
6.875
 11
48.52
 21
-21.25000000000001
  0
ENDBLK
  5
5F
100
AcDbEntity
  8
0
100
AcDbBlockEnd
  0
BLOCK
  5
61
100
AcDbEntity
  8
0
100
AcDbBlockBegin
  2
*D21
 70
    1
 10
0
 20
0
  3
*D21
  1

  0
LINE
  5
BD
100
AcDbEntity
  8
Dimensions
  6
ByBlock
 62
    0
100
AcDbLine
 10
0
 20
-50
 11
-78.3
 21
-50
  0
MTEXT
  5
BE
100
AcDbEntity
  8
Dimensions
  6
CONTINUOUS
 62
    0
100
AcDbMText
 10
-39.15
 20
-48.125
 30
0
 40
2.5
 41
7.777777777777933
 71
    5
 72
    1
  1
78.30
  7
standard
210
0
220
0
230
1
 50
0
 73
    2
 44
1
  0
SOLID
  5
BF
100
AcDbEntity
  8
Dimensions
  6
ByBlock
 62
    0
100
AcDbTrace
 10
0
 20
-50
 30
0
 11
-2.5
 21
-50.41628465777284
 31
0
 12
-2.5
 22
-49.58371534222716
 32
0
 13
-2.5
 23
-49.58371534222716
 33
0
  0
SOLID
  5
C0
100
AcDbEntity
  8
Dimensions
  6
ByBlock
 62
    0
100
AcDbTrace
 10
-78.3
 20
-50
 30
0
 11
-75.8
 21
-49.58371534222716
 31
0
 12
-75.8
 22
-50.41628465777284
 32
0
 13
-75.8
 23
-50.41628465777284
 33
0
  0
LINE
  5
C1
100
AcDbEntity
  8
Dimensions
  6
ByBlock
 62
    0
100
AcDbLine
 10
-1.148068456708479e-16
 20
-0.625
 11
-2.296136913416957e-16
 21
-51.25
  0
LINE
  5
C2
100
AcDbEntity
  8
Dimensions
  6
ByBlock
 62
    0
100
AcDbLine
 10
-78.3
 20
9.875
 11
-78.3
 21
-51.25
  0
ENDBLK
  5
62
100
AcDbEntity
  8
0
100
AcDbBlockEnd
  0
BLOCK
  5
64
100
AcDbEntity
  8
0
100
AcDbBlockBegin
  2
*D1
 70
    1
 10
0
 20
0
  3
*D1
  1

  0
LINE
  5
C3
100
AcDbEntity
  8
Dimensions
  6
ByBlock
 62
    0
100
AcDbLine
 10
0
 20
-10
 11
-9.76
 21
-10
  0
MTEXT
  5
C4
100
AcDbEntity
  8
Dimensions
  6
CONTINUOUS
 62
    0
100
AcDbMText
 10
-4.88
 20
-8.125
 30
0
 40
2.5
 41
5.833333333333644
 71
    5
 72
    1
  1
9.76
  7
standard
210
0
220
0
230
1
 50
0
 73
    2
 44
1
  0
SOLID
  5
C5
100
AcDbEntity
  8
Dimensions
  6
ByBlock
 62
    0
100
AcDbTrace
 10
0
 20
-10
 30
0
 11
-2.5
 21
-10.41628465777284
 31
0
 12
-2.5
 22
-9.58371534222716
 32
0
 13
-2.5
 23
-9.58371534222716
 33
0
  0
SOLID
  5
C6
100
AcDbEntity
  8
Dimensions
  6
ByBlock
 62
    0
100
AcDbTrace
 10
-9.76
 20
-10
 30
0
 11
-7.26
 21
-9.58371534222716
 31
0
 12
-7.26
 22
-10.41628465777284
 32
0
 13
-7.26
 23
-10.41628465777284
 33
0
  0
LINE
  5
C7
100
AcDbEntity
  8
Dimensions
  6
ByBlock
 62
    0
100
AcDbLine
 10
-1.148068456708479e-16
 20
-0.625
 11
-2.296136913416957e-16
 21
-11.25
  0
LINE
  5
C8
100
AcDbEntity
  8
Dimensions
  6
ByBlock
 62
    0
100
AcDbLine
 10
-9.76
 20
6.875
 11
-9.76
 21
-11.25
  0
ENDBLK
  5
65
100
AcDbEntity
  8
0
100
AcDbBlockEnd
  0
BLOCK
  5
67
100
AcDbEntity
  8
0
100
AcDbBlockBegin
  2
*D12
 70
    1
 10
0
 20
0
  3
*D12
  1

  0
LINE
  5
C9
100
AcDbEntity
  8
Dimensions
  6
ByBlock
 62
    0
100
AcDbLine
 10
0
 20
-40
 11
-63.5
 21
-40
  0
MTEXT
  5
CA
100
AcDbEntity
  8
Dimensions
  6
CONTINUOUS
 62
    0
100
AcDbMText
 10
-31.75
 20
-38.125
 30
0
 40
2.5
 41
7.777777777778243
 71
    5
 72
    1
  1
63.50
  7
standard
210
0
220
0
230
1
 50
0
 73
    2
 44
1
  0
SOLID
  5
CB
100
AcDbEntity
  8
Dimensions
  6
ByBlock
 62
    0
100
AcDbTrace
 10
0
 20
-40
 30
0
 11
-2.5
 21
-40.41628465777284
 31
0
 12
-2.5
 22
-39.58371534222716
 32
0
 13
-2.5
 23
-39.58371534222716
 33
0
  0
SOLID
  5
CC
100
AcDbEntity
  8
Dimensions
  6
ByBlock
 62
    0
100
AcDbTrace
 10
-63.5
 20
-40
 30
0
 11
-61
 21
-39.58371534222716
 31
0
 12
-61
 22
-40.41628465777284
 32
0
 13
-61
 23
-40.41628465777284
 33
0
  0
LINE
  5
CD
100
AcDbEntity
  8
Dimensions
  6
ByBlock
 62
    0
100
AcDbLine
 10
-1.148068456708479e-16
 20
-0.625
 11
-2.296136913416957e-16
 21
-41.25
  0
LINE
  5
CE
100
AcDbEntity
  8
Dimensions
  6
ByBlock
 62
    0
100
AcDbLine
 10
-63.5
 20
7.01
 11
-63.5
 21
-41.25
  0
ENDBLK
  5
68
100
AcDbEntity
  8
0
100
AcDbBlockEnd
  0
BLOCK
  5
6A
100
AcDbEntity
  8
0
100
AcDbBlockBegin
  2
*D14
 70
    1
 10
0
 20
0
  3
*D14
  1

  0
LINE
  5
CF
100
AcDbEntity
  8
Dimensions
  6
ByBlock
 62
    0
100
AcDbLine
 10
-44.00142478715009
 20
4.21341661214964
 11
-38.5485752128499
 21
11.05658338785036
  0
MTEXT
  5
D0
100
AcDbEntity
  8
Dimensions
  6
CONTINUOUS
 62
    0
100
AcDbMText
 10
-35.81713945282441
 20
17.49320335411298
 30
0
 40
2.5
 41
12.22222222222253
 71
    5
 72
    1
  1
3-%%C8.75
  7
standard
210
0
220
0
230
1
 50
51.45106562592341
 73
    2
 44
1
  0
SOLID
  5
D1
100
AcDbEntity
  8
Dimensions
  6
ByBlock
 62
    0
100
AcDbTrace
 10
-44.00142478715009
 20
4.21341661214964
 30
0
 11
-42.76903409041347
 21
6.428028561655484
 31
0
 12
-42.11790144142946
 22
5.909185677329922
 32
0
 13
-42.11790144142946
 23
5.909185677329922
 33
0
  0
SOLID
  5
D2
100
AcDbEntity
  8
Dimensions
  6
ByBlock
 62
    0
100
AcDbTrace
 10
-38.5485752128499
 20
11.05658338785036
 30
0
 11
-39.78096590958652
 21
8.841971438344515
 31
0
 12
-40.43209855857053
 22
9.360814322670077
 32
0
 13
-40.43209855857053
 23
9.360814322670077
 33
0
  0
ENDBLK
  5
6B
100
AcDbEntity
  8
0
100
AcDbBlockEnd
  0
BLOCK
  5
6D
100
AcDbEntity
  8
0
100
AcDbBlockBegin
  2
*D11
 70
    1
 10
0
 20
0
  3
*D11
  1

  0
LINE
  5
D3
100
AcDbEntity
  8
Dimensions
  6
ByBlock
 62
    0
100
AcDbLine
 10
0
 20
-29.99999999999999
 11
-41.275
 21
-29.99999999999999
  0
MTEXT
  5
D4
100
AcDbEntity
  8
Dimensions
  6
CONTINUOUS
 62
    0
100
AcDbMText
 10
-20.6375
 20
-28.12499999999999
 30
0
 40
2.5
 41
7.5
 71
    5
 72
    1
  1
41.27
  7
standard
210
0
220
0
230
1
 50
0
 73
    2
 44
1
  0
SOLID
  5
D5
100
AcDbEntity
  8
Dimensions
  6
ByBlock
 62
    0
100
AcDbTrace
 10
0
 20
-29.99999999999999
 30
0
 11
-2.5
 21
-30.41628465777283
 31
0
 12
-2.5
 22
-29.58371534222715
 32
0
 13
-2.5
 23
-29.58371534222715
 33
0
  0
SOLID
  5
D6
100
AcDbEntity
  8
Dimensions
  6
ByBlock
 62
    0
100
AcDbTrace
 10
-41.275
 20
-29.99999999999999
 30
0
 11
-38.775
 21
-29.58371534222715
 31
0
 12
-38.775
 22
-30.41628465777283
 32
0
 13
-38.775
 23
-30.41628465777283
 33
0
  0
LINE
  5
D7
100
AcDbEntity
  8
Dimensions
  6
ByBlock
 62
    0
100
AcDbLine
 10
-1.148068456708479e-16
 20
-0.625
 11
-2.296136913416957e-16
 21
-31.24999999999999
  0
LINE
  5
D8
100
AcDbEntity
  8
Dimensions
  6
ByBlock
 62
    0
100
AcDbLine
 10
-41.275
 20
7.01
 11
-41.275
 21
-31.24999999999999
  0
ENDBLK
  5
6E
100
AcDbEntity
  8
0
100
AcDbBlockEnd
  0
BLOCK
  5
70
100
AcDbEntity
  8
0
100
AcDbBlockBegin
  2
*D5
 70
    1
 10
0
 20
0
  3
*D5
  1

  0
LINE
  5
D9
100
AcDbEntity
  8
Dimensions
  6
ByBlock
 62
    0
100
AcDbLine
 10
0
 20
-10
 11
33.35
 21
-10
  0
MTEXT
  5
DA
100
AcDbEntity
  8
Dimensions
  6
CONTINUOUS
 62
    0
100
AcDbMText
 10
16.675
 20
-8.125
 30
0
 40
2.5
 41
7.777777777778397
 71
    5
 72
    1
  1
33.35
  7
standard
210
0
220
0
230
1
 50
0
 73
    2
 44
1
  0
SOLID
  5
DB
100
AcDbEntity
  8
Dimensions
  6
ByBlock
 62
    0
100
AcDbTrace
 10
0
 20
-10
 30
0
 11
2.5
 21
-9.58371534222716
 31
0
 12
2.5
 22
-10.41628465777284
 32
0
 13
2.5
 23
-10.41628465777284
 33
0
  0
SOLID
  5
DC
100
AcDbEntity
  8
Dimensions
  6
ByBlock
 62
    0
100
AcDbTrace
 10
33.35
 20
-10
 30
0
 11
30.85
 21
-10.41628465777284
 31
0
 12
30.85
 22
-9.58371534222716
 32
0
 13
30.85
 23
-9.58371534222716
 33
0
  0
LINE
  5
DD
100
AcDbEntity
  8
Dimensions
  6
ByBlock
 62
    0
100
AcDbLine
 10
-1.148068456708479e-16
 20
-0.625
 11
-2.296136913416957e-16
 21
-11.25
  0
LINE
  5
DE
100
AcDbEntity
  8
Dimensions
  6
ByBlock
 62
    0
100
AcDbLine
 10
33.35
 20
7.375
 11
33.35
 21
-11.25
  0
ENDBLK
  5
71
100
AcDbEntity
  8
0
100
AcDbBlockEnd
  0
BLOCK
  5
73
100
AcDbEntity
  8
0
100
AcDbBlockBegin
  2
*D23
 70
    1
 10
0
 20
0
  3
*D23
  1

  0
LINE
  5
DF
100
AcDbEntity
  8
Dimensions
  6
ByBlock
 62
    0
100
AcDbLine
 10
-78.3
 20
60
 11
78.3
 21
60
  0
MTEXT
  5
E0
100
AcDbEntity
  8
Dimensions
  6
CONTINUOUS
 62
    0
100
AcDbMText
 10
1.148068456708479e-16
 20
61.875
 30
0
 40
2.5
 41
9.166666666667131
 71
    5
 72
    1
  1
156.60
  7
standard
210
0
220
0
230
1
 50
0
 73
    2
 44
1
  0
SOLID
  5
E1
100
AcDbEntity
  8
Dimensions
  6
ByBlock
 62
    0
100
AcDbTrace
 10
-78.3
 20
60
 30
0
 11
-75.8
 21
60.41628465777284
 31
0
 12
-75.8
 22
59.58371534222716
 32
0
 13
-75.8
 23
59.58371534222716
 33
0
  0
SOLID
  5
E2
100
AcDbEntity
  8
Dimensions
  6
ByBlock
 62
    0
100
AcDbTrace
 10
78.3
 20
60
 30
0
 11
75.8
 21
59.58371534222716
 31
0
 12
75.8
 22
60.41628465777284
 32
0
 13
75.8
 23
60.41628465777284
 33
0
  0
LINE
  5
E3
100
AcDbEntity
  8
Dimensions
  6
ByBlock
 62
    0
100
AcDbLine
 10
-78.3
 20
29.125
 11
-78.3
 21
61.25
  0
LINE
  5
E4
100
AcDbEntity
  8
Dimensions
  6
ByBlock
 62
    0
100
AcDbLine
 10
78.3
 20
29.125
 11
78.3
 21
61.25
  0
ENDBLK
  5
74
100
AcDbEntity
  8
0
100
AcDbBlockEnd
  0
BLOCK
  5
76
100
AcDbEntity
  8
0
100
AcDbBlockBegin
  2
*D9
 70
    1
 10
0
 20
0
  3
*D9
  1

  0
SOLID
  5
E5
100
AcDbEntity
  8
Dimensions
  6
ByBlock
 62
    0
100
AcDbTrace
 10
-9.575430502654489
 20
14.27885498645226
 30
0
 11
-11.8549752092261
 21
15.38654124484785
 31
0
 12
-11.37303830935533
 22
16.06544366031797
 32
0
 13
-11.37303830935533
 23
16.06544366031797
 33
0
  0
LINE
  5
E6
100
AcDbEntity
  8
Dimensions
  6
ByBlock
 62
    0
100
AcDbLine
 10
-8.76
 20
13.7
 11
-21.58037956951225
 21
22.80088673144387
  0
MTEXT
  5
E7
100
AcDbEntity
  8
Dimensions
  6
CONTINUOUS
 62
    0
100
AcDbMText
 10
-14.49255193648538
 20
20.06880305142523
 30
0
 40
2.5
 41
9.722222222222221
 71
    5
 72
    1
  1
4-R1.0
  7
standard
210
0
220
0
230
1
 50
324.6299512777644
 73
    2
 44
1
  0
ENDBLK
  5
77
100
AcDbEntity
  8
0
100
AcDbBlockEnd
  0
BLOCK
  5
79
100
AcDbEntity
  8
0
100
AcDbBlockBegin
  2
*D24
 70
    1
 10
0
 20
0
  3
*D24
  1

  0
LINE
  5
E8
100
AcDbEntity
  8
Dimensions
  6
ByBlock
 62
    0
100
AcDbLine
 10
100
 20
7.105427357601002e-15
 11
100
 21
39
  0
MTEXT
  5
E9
100
AcDbEntity
  8
Dimensions
  6
CONTINUOUS
 62
    0
100
AcDbMText
 10
98.125
 20
19.5
 30
0
 40
2.5
 41
7.777777777777933
 71
    5
 72
    1
  1
39.00
  7
standard
210
0
220
0
230
1
 50
90
 73
    2
 44
1
  0
SOLID
  5
EA
100
AcDbEntity
  8
Dimensions
  6
ByBlock
 62
    0
100
AcDbTrace
 10
100
 20
7.105427357601002e-15
 30
0
 11
99.58371534222717
 21
2.500000000000007
 31
0
 12
100.4162846577728
 22
2.500000000000007
 32
0
 13
100.4162846577728
 23
2.500000000000007
 33
0
  0
SOLID
  5
EB
100
AcDbEntity
  8
Dimensions
  6
ByBlock
 62
    0
100
AcDbTrace
 10
100
 20
39
 30
0
 11
100.4162846577728
 21
36.5
 31
0
 12
99.58371534222717
 22
36.5
 32
0
 13
99.58371534222717
 23
36.5
 33
0
  0
LINE
  5
EC
100
AcDbEntity
  8
Dimensions
  6
ByBlock
 62
    0
100
AcDbLine
 10
68.425
 20
0
 11
101.25
 21
7.105427357601002e-15
  0
LINE
  5
ED
100
AcDbEntity
  8
Dimensions
  6
ByBlock
 62
    0
100
AcDbLine
 10
68.425
 20
39
 11
101.25
 21
39
  0
ENDBLK
  5
7A
100
AcDbEntity
  8
0
100
AcDbBlockEnd
  0
BLOCK
  5
7C
100
AcDbEntity
  8
0
100
AcDbBlockBegin
  2
*D3
 70
    1
 10
0
 20
0
  3
*D3
  1

  0
LINE
  5
EE
100
AcDbEntity
  8
Dimensions
  6
ByBlock
 62
    0
100
AcDbLine
 10
10
 20
6.5
 11
10
 21
-3.086420008457933e-17
  0
MTEXT
  5
EF
100
AcDbEntity
  8
Dimensions
  6
CONTINUOUS
 62
    0
100
AcDbMText
 10
8.125
 20
3.25
 30
0
 40
2.5
 41
5.833333333333643
 71
    5
 72
    1
  1
6.50
  7
standard
210
0
220
0
230
1
 50
90
 73
    2
 44
1
  0
SOLID
  5
F0
100
AcDbEntity
  8
Dimensions
  6
ByBlock
 62
    0
100
AcDbTrace
 10
10
 20
6.5
 30
0
 11
10.41628465777284
 21
4
 31
0
 12
9.58371534222716
 22
4
 32
0
 13
9.58371534222716
 23
4
 33
0
  0
SOLID
  5
F1
100
AcDbEntity
  8
Dimensions
  6
ByBlock
 62
    0
100
AcDbTrace
 10
10
 20
-3.086420008457933e-17
 30
0
 11
9.58371534222716
 21
2.5
 31
0
 12
10.41628465777284
 22
2.5
 32
0
 13
10.41628465777284
 23
2.5
 33
0
  0
LINE
  5
F2
100
AcDbEntity
  8
Dimensions
  6
ByBlock
 62
    0
100
AcDbLine
 10
9.514999999999999
 20
6.5
 11
11.25
 21
6.5
  0
LINE
  5
F3
100
AcDbEntity
  8
Dimensions
  6
ByBlock
 62
    0
100
AcDbLine
 10
9.525
 20
2.775557561562891e-17
 11
11.25
 21
-3.086420008457933e-17
  0
ENDBLK
  5
7D
100
AcDbEntity
  8
0
100
AcDbBlockEnd
  0
BLOCK
  5
7F
100
AcDbEntity
  8
0
100
AcDbBlockBegin
  2
*D25
 70
    1
 10
0
 20
0
  3
*D25
  1

  0
LINE
  5
F4
100
AcDbEntity
  8
Dimensions
  6
ByBlock
 62
    0
100
AcDbLine
 10
90
 20
28.5
 11
90
 21
10.5
  0
MTEXT
  5
F5
100
AcDbEntity
  8
Dimensions
  6
CONTINUOUS
 62
    0
100
AcDbMText
 10
88.125
 20
19.5
 30
0
 40
2.5
 41
7.222222222222222
 71
    5
 72
    1
  1
18.00
  7
standard
210
0
220
0
230
1
 50
90
 73
    2
 44
1
  0
SOLID
  5
F6
100
AcDbEntity
  8
Dimensions
  6
ByBlock
 62
    0
100
AcDbTrace
 10
90
 20
28.5
 30
0
 11
90.41628465777283
 21
26
 31
0
 12
89.58371534222717
 22
26
 32
0
 13
89.58371534222717
 23
26
 33
0
  0
SOLID
  5
F7
100
AcDbEntity
  8
Dimensions
  6
ByBlock
 62
    0
100
AcDbTrace
 10
90
 20
10.5
 30
0
 11
89.58371534222717
 21
13
 31
0
 12
90.41628465777283
 22
13
 32
0
 13
90.41628465777283
 23
13
 33
0
  0
LINE
  5
F8
100
AcDbEntity
  8
Dimensions
  6
ByBlock
 62
    0
100
AcDbLine
 10
78.925
 20
28.5
 11
91.25
 21
28.5
  0
LINE
  5
F9
100
AcDbEntity
  8
Dimensions
  6
ByBlock
 62
    0
100
AcDbLine
 10
78.925
 20
10.5
 11
91.25
 21
10.5
  0
ENDBLK
  5
80
100
AcDbEntity
  8
0
100
AcDbBlockEnd
  0
BLOCK
  5
82
100
AcDbEntity
  8
0
100
AcDbBlockBegin
  2
*D22
 70
    1
 10
0
 20
0
  3
*D22
  1

  0
LINE
  5
FA
100
AcDbEntity
  8
Dimensions
  6
ByBlock
 62
    0
100
AcDbLine
 10
-67.8
 20
50
 11
67.8
 21
50
  0
MTEXT
  5
FB
100
AcDbEntity
  8
Dimensions
  6
CONTINUOUS
 62
    0
100
AcDbMText
 10
1.148068456708479e-16
 20
51.875
 30
0
 40
2.5
 41
9.166666666667131
 71
    5
 72
    1
  1
135.60
  7
standard
210
0
220
0
230
1
 50
0
 73
    2
 44
1
  0
SOLID
  5
FC
100
AcDbEntity
  8
Dimensions
  6
ByBlock
 62
    0
100
AcDbTrace
 10
-67.8
 20
50
 30
0
 11
-65.3
 21
50.41628465777284
 31
0
 12
-65.3
 22
49.58371534222716
 32
0
 13
-65.3
 23
49.58371534222716
 33
0
  0
SOLID
  5
FD
100
AcDbEntity
  8
Dimensions
  6
ByBlock
 62
    0
100
AcDbTrace
 10
67.8
 20
50
 30
0
 11
65.3
 21
49.58371534222716
 31
0
 12
65.3
 22
50.41628465777284
 32
0
 13
65.3
 23
50.41628465777284
 33
0
  0
LINE
  5
FE
100
AcDbEntity
  8
Dimensions
  6
ByBlock
 62
    0
100
AcDbLine
 10
-67.8
 20
39.625
 11
-67.8
 21
51.25
  0
LINE
  5
FF
100
AcDbEntity
  8
Dimensions
  6
ByBlock
 62
    0
100
AcDbLine
 10
67.8
 20
39.625
 11
67.8
 21
51.25
  0
ENDBLK
  5
83
100
AcDbEntity
  8
0
100
AcDbBlockEnd
  0
BLOCK
  5
85
100
AcDbEntity
  8
0
100
AcDbBlockBegin
  2
*D4
 70
    1
 10
0
 20
0
  3
*D4
  1

  0
LINE
  5
100
100
AcDbEntity
  8
Dimensions
  6
ByBlock
 62
    0
100
AcDbLine
 10
31
 20
6.5
 11
31
 21
14.7
  0
MTEXT
  5
101
100
AcDbEntity
  8
Dimensions
  6
CONTINUOUS
 62
    0
100
AcDbMText
 10
29.125
 20
10.6
 30
0
 40
2.5
 41
5.833333333333334
 71
    5
 72
    1
  1
8.20
  7
standard
210
0
220
0
230
1
 50
90
 73
    2
 44
1
  0
SOLID
  5
102
100
AcDbEntity
  8
Dimensions
  6
ByBlock
 62
    0
100
AcDbTrace
 10
31
 20
6.5
 30
0
 11
30.58371534222716
 21
9
 31
0
 12
31.41628465777284
 22
9
 32
0
 13
31.41628465777284
 23
9
 33
0
  0
SOLID
  5
103
100
AcDbEntity
  8
Dimensions
  6
ByBlock
 62
    0
100
AcDbTrace
 10
31
 20
14.7
 30
0
 11
31.41628465777284
 21
12.2
 31
0
 12
30.58371534222716
 22
12.2
 32
0
 13
30.58371534222716
 23
12.2
 33
0
  0
LINE
  5
104
100
AcDbEntity
  8
Dimensions
  6
ByBlock
 62
    0
100
AcDbLine
 10
27.165
 20
6.5
 11
32.25
 21
6.5
  0
LINE
  5
105
100
AcDbEntity
  8
Dimensions
  6
ByBlock
 62
    0
100
AcDbLine
 10
27.165
 20
14.7
 11
32.25
 21
14.7
  0
ENDBLK
  5
86
100
AcDbEntity
  8
0
100
AcDbBlockEnd
  0
BLOCK
  5
88
100
AcDbEntity
  8
0
100
AcDbBlockBegin
  2
*D27
 70
    1
 10
0
 20
0
  3
*D27
  1

  0
SOLID
  5
106
100
AcDbEntity
  8
Dimensions
  6
ByBlock
 62
    0
100
AcDbTrace
 10
-71.93259543157986
 20
32.79827808356857
 30
0
 11
-69.83651337202805
 21
31.37359112991099
 31
0
 12
-70.41127292271152
 22
30.77124312079471
 32
0
 13
-70.41127292271152
 23
30.77124312079471
 33
0
  0
LINE
  5
107
100
AcDbEntity
  8
Dimensions
  6
ByBlock
 62
    0
100
AcDbLine
 10
-75.55
 20
36.25
 11
-64.0948855333361
 21
25.31954726463369
  0
MTEXT
  5
108
100
AcDbEntity
  8
Dimensions
  6
CONTINUOUS
 62
    0
100
AcDbMText
 10
-66.71934476379619
 20
30.41543938725868
 30
0
 40
2.5
 41
5.833333333333488
 71
    5
 72
    1
  1
5.00
  7
standard
210
0
220
0
230
1
 50
316.3426240265378
 73
    2
 44
1
  0
ENDBLK
  5
89
100
AcDbEntity
  8
0
100
AcDbBlockEnd
  0
BLOCK
  5
8B
100
AcDbEntity
  8
0
100
AcDbBlockBegin
  2
*D6
 70
    1
 10
0
 20
0
  3
*D6
  1

  0
LINE
  5
109
100
AcDbEntity
  8
Dimensions
  6
ByBlock
 62
    0
100
AcDbLine
 10
33.35
 20
-10.25
 11
42.85
 21
-10.25
  0
MTEXT
  5
10A
100
AcDbEntity
  8
Dimensions
  6
CONTINUOUS
 62
    0
100
AcDbMText
 10
38.1
 20
-8.375
 30
0
 40
2.5
 41
5.833333333333645
 71
    5
 72
    1
  1
9.50
  7
standard
210
0
220
0
230
1
 50
0
 73
    2
 44
1
  0
SOLID
  5
10B
100
AcDbEntity
  8
Dimensions
  6
ByBlock
 62
    0
100
AcDbTrace
 10
33.35
 20
-10.25
 30
0
 11
35.85
 21
-9.83371534222716
 31
0
 12
35.85
 22
-10.66628465777284
 32
0
 13
35.85
 23
-10.66628465777284
 33
0
  0
SOLID
  5
10C
100
AcDbEntity
  8
Dimensions
  6
ByBlock
 62
    0
100
AcDbTrace
 10
42.85
 20
-10.25
 30
0
 11
40.35
 21
-10.66628465777284
 31
0
 12
40.35
 22
-9.83371534222716
 32
0
 13
40.35
 23
-9.83371534222716
 33
0
  0
LINE
  5
10D
100
AcDbEntity
  8
Dimensions
  6
ByBlock
 62
    0
100
AcDbLine
 10
33.35
 20
7.375
 11
33.35
 21
-11.5
  0
LINE
  5
10E
100
AcDbEntity
  8
Dimensions
  6
ByBlock
 62
    0
100
AcDbLine
 10
42.85
 20
7.375
 11
42.85
 21
-11.5
  0
ENDBLK
  5
8C
100
AcDbEntity
  8
0
100
AcDbBlockEnd
  0
BLOCK
  5
8E
100
AcDbEntity
  8
0
100
AcDbBlockBegin
  2
*D8
 70
    1
 10
0
 20
0
  3
*D8
  1

  0
LINE
  5
10F
100
AcDbEntity
  8
Dimensions
  6
ByBlock
 62
    0
100
AcDbLine
 10
44
 20
1.75
 11
44
 21
15.45
  0
MTEXT
  5
110
100
AcDbEntity
  8
Dimensions
  6
CONTINUOUS
 62
    0
100
AcDbMText
 10
42.125
 20
13.99166666666674
 30
0
 40
2.5
 41
5.833333333333488
 71
    5
 72
    1
  1
3.70
  7
standard
210
0
220
0
230
1
 50
90
 73
    2
 44
1
  0
SOLID
  5
111
100
AcDbEntity
  8
Dimensions
  6
ByBlock
 62
    0
100
AcDbTrace
 10
44
 20
6.75
 30
0
 11
44.41628465777284
 21
4.25
 31
0
 12
43.58371534222716
 22
4.25
 32
0
 13
43.58371534222716
 23
4.25
 33
0
  0
SOLID
  5
112
100
AcDbEntity
  8
Dimensions
  6
ByBlock
 62
    0
100
AcDbTrace
 10
44
 20
10.45
 30
0
 11
43.58371534222716
 21
12.95
 31
0
 12
44.41628465777284
 22
12.95
 32
0
 13
44.41628465777284
 23
12.95
 33
0
  0
LINE
  5
113
100
AcDbEntity
  8
Dimensions
  6
ByBlock
 62
    0
100
AcDbLine
 10
42.225
 20
6.75
 11
45.25
 21
6.75
  0
LINE
  5
114
100
AcDbEntity
  8
Dimensions
  6
ByBlock
 62
    0
100
AcDbLine
 10
42.225
 20
10.45
 11
45.25
 21
10.45
  0
ENDBLK
  5
8F
100
AcDbEntity
  8
0
100
AcDbBlockEnd
  0
BLOCK
  5
91
100
AcDbEntity
  8
0
100
AcDbBlockBegin
  2
*D10
 70
    1
 10
0
 20
0
  3
*D10
  1

  0
LINE
  5
115
100
AcDbEntity
  8
Dimensions
  6
ByBlock
 62
    0
100
AcDbLine
 10
0
 20
-19.99999999999999
 11
-19.05
 21
-19.99999999999999
  0
MTEXT
  5
116
100
AcDbEntity
  8
Dimensions
  6
CONTINUOUS
 62
    0
100
AcDbMText
 10
-9.525
 20
-18.12499999999999
 30
0
 40
2.5
 41
7.222222222222378
 71
    5
 72
    1
  1
19.05
  7
standard
210
0
220
0
230
1
 50
0
 73
    2
 44
1
  0
SOLID
  5
117
100
AcDbEntity
  8
Dimensions
  6
ByBlock
 62
    0
100
AcDbTrace
 10
0
 20
-19.99999999999999
 30
0
 11
-2.5
 21
-20.41628465777283
 31
0
 12
-2.5
 22
-19.58371534222715
 32
0
 13
-2.5
 23
-19.58371534222715
 33
0
  0
SOLID
  5
118
100
AcDbEntity
  8
Dimensions
  6
ByBlock
 62
    0
100
AcDbTrace
 10
-19.05
 20
-19.99999999999999
 30
0
 11
-16.55
 21
-19.58371534222715
 31
0
 12
-16.55
 22
-20.41628465777283
 32
0
 13
-16.55
 23
-20.41628465777283
 33
0
  0
LINE
  5
119
100
AcDbEntity
  8
Dimensions
  6
ByBlock
 62
    0
100
AcDbLine
 10
-1.148068456708479e-16
 20
-0.625
 11
-2.296136913416957e-16
 21
-21.24999999999999
  0
LINE
  5
11A
100
AcDbEntity
  8
Dimensions
  6
ByBlock
 62
    0
100
AcDbLine
 10
-19.05
 20
7.01
 11
-19.05
 21
-21.24999999999999
  0
ENDBLK
  5
92
100
AcDbEntity
  8
0
100
AcDbBlockEnd
  0
BLOCK
  5
94
100
AcDbEntity
  8
0
100
AcDbBlockBegin
  2
*D13
 70
    1
 10
0
 20
0
  3
*D13
  1

  0
LINE
  5
11B
100
AcDbEntity
  8
Dimensions
  6
ByBlock
 62
    0
100
AcDbLine
 10
-50
 20
7.635000000000001
 11
-50
 21
5.626610288800291e-16
  0
MTEXT
  5
11C
100
AcDbEntity
  8
Dimensions
  6
CONTINUOUS
 62
    0
100
AcDbMText
 10
-51.875
 20
3.817500000000001
 30
0
 40
2.5
 41
5.833333333333645
 71
    5
 72
    1
  1
7.63
  7
standard
210
0
220
0
230
1
 50
90
 73
    2
 44
1
  0
SOLID
  5
11D
100
AcDbEntity
  8
Dimensions
  6
ByBlock
 62
    0
100
AcDbTrace
 10
-50
 20
7.635000000000001
 30
0
 11
-49.58371534222716
 21
5.135000000000001
 31
0
 12
-50.41628465777284
 22
5.135000000000001
 32
0
 13
-50.41628465777284
 23
5.135000000000001
 33
0
  0
SOLID
  5
11E
100
AcDbEntity
  8
Dimensions
  6
ByBlock
 62
    0
100
AcDbTrace
 10
-50
 20
5.626610288800291e-16
 30
0
 11
-50.41628465777284
 21
2.5
 31
0
 12
-49.58371534222716
 22
2.5
 32
0
 13
-49.58371534222716
 23
2.5
 33
0
  0
LINE
  5
11F
100
AcDbEntity
  8
Dimensions
  6
ByBlock
 62
    0
100
AcDbLine
 10
-41.9
 20
7.635
 11
-51.25
 21
7.635000000000001
  0
LINE
  5
120
100
AcDbEntity
  8
Dimensions
  6
ByBlock
 62
    0
100
AcDbLine
 10
-41.925
 20
2.102674588264075e-17
 11
-51.25
 21
7.157368231078263e-16
  0
ENDBLK
  5
95
100
AcDbEntity
  8
0
100
AcDbBlockEnd
  0
BLOCK
  5
97
100
AcDbEntity
  8
0
100
AcDbBlockBegin
  2
*D19
 70
    1
 10
0
 20
0
  3
*D19
  1

  0
SOLID
  5
121
100
AcDbEntity
  8
Dimensions
  6
ByBlock
 62
    0
100
AcDbTrace
 10
34.33808863908641
 20
10.42225301759676
 30
0
 11
33.40722177394554
 21
12.7795353077945
 31
0
 12
34.22131006057289
 22
12.95398279778607
 32
0
 13
34.22131006057289
 23
12.95398279778607
 33
0
  0
LINE
  5
122
100
AcDbEntity
  8
Dimensions
  6
ByBlock
 62
    0
100
AcDbLine
 10
34.6
 20
9.200000000000001
 11
30.84593716023845
 21
26.71895991888707
  0
MTEXT
  5
123
100
AcDbEntity
  8
Dimensions
  6
CONTINUOUS
 62
    0
100
AcDbMText
 10
34.42539242605757
 20
18.9634735096123
 30
0
 40
2.5
 41
11.66666666666682
 71
    5
 72
    1
  1
4-R1.25
  7
standard
210
0
220
0
230
1
 50
282.0947570770122
 73
    2
 44
1
  0
ENDBLK
  5
98
100
AcDbEntity
  8
0
100
AcDbBlockEnd
  0
BLOCK
  5
9A
100
AcDbEntity
  8
0
100
AcDbBlockBegin
  2
*D18
 70
    1
 10
0
 20
0
  3
*D18
  1

  0
LINE
  5
124
100
AcDbEntity
  8
Dimensions
  6
ByBlock
 62
    0
100
AcDbLine
 10
70
 20
6.5
 11
70
 21
21.34
  0
MTEXT
  5
125
100
AcDbEntity
  8
Dimensions
  6
CONTINUOUS
 62
    0
100
AcDbMText
 10
68.125
 20
13.92
 30
0
 40
2.5
 41
7.777777777777779
 71
    5
 72
    1
  1
14.84
  7
standard
210
0
220
0
230
1
 50
90
 73
    2
 44
1
  0
SOLID
  5
126
100
AcDbEntity
  8
Dimensions
  6
ByBlock
 62
    0
100
AcDbTrace
 10
70
 20
6.5
 30
0
 11
69.58371534222717
 21
9
 31
0
 12
70.41628465777283
 22
9
 32
0
 13
70.41628465777283
 23
9
 33
0
  0
SOLID
  5
127
100
AcDbEntity
  8
Dimensions
  6
ByBlock
 62
    0
100
AcDbTrace
 10
70
 20
21.34
 30
0
 11
70.41628465777283
 21
18.84
 31
0
 12
69.58371534222717
 22
18.84
 32
0
 13
69.58371534222717
 23
18.84
 33
0
  0
LINE
  5
128
100
AcDbEntity
  8
Dimensions
  6
ByBlock
 62
    0
100
AcDbLine
 10
65.405
 20
6.5
 11
71.25
 21
6.5
  0
LINE
  5
129
100
AcDbEntity
  8
Dimensions
  6
ByBlock
 62
    0
100
AcDbLine
 10
65.405
 20
21.34
 11
71.25
 21
21.34
  0
ENDBLK
  5
9B
100
AcDbEntity
  8
0
100
AcDbBlockEnd
  0
BLOCK
  5
9D
100
AcDbEntity
  8
0
100
AcDbBlockBegin
  2
*D17
 70
    1
 10
0
 20
0
  3
*D17
  1

  0
LINE
  5
12A
100
AcDbEntity
  8
Dimensions
  6
ByBlock
 62
    0
100
AcDbLine
 10
58
 20
6.5
 11
58
 21
-3.619327060277999e-17
  0
MTEXT
  5
12B
100
AcDbEntity
  8
Dimensions
  6
CONTINUOUS
 62
    0
100
AcDbMText
 10
56.125
 20
3.25
 30
0
 40
2.5
 41
5.833333333333643
 71
    5
 72
    1
  1
6.50
  7
standard
210
0
220
0
230
1
 50
90
 73
    2
 44
1
  0
SOLID
  5
12C
100
AcDbEntity
  8
Dimensions
  6
ByBlock
 62
    0
100
AcDbTrace
 10
58
 20
6.5
 30
0
 11
58.41628465777284
 21
4
 31
0
 12
57.58371534222716
 22
4
 32
0
 13
57.58371534222716
 23
4
 33
0
  0
SOLID
  5
12D
100
AcDbEntity
  8
Dimensions
  6
ByBlock
 62
    0
100
AcDbTrace
 10
58
 20
-3.619327060277999e-17
 30
0
 11
57.58371534222716
 21
2.5
 31
0
 12
58.41628465777284
 22
2.5
 32
0
 13
58.41628465777284
 23
2.5
 33
0
  0
LINE
  5
12E
100
AcDbEntity
  8
Dimensions
  6
ByBlock
 62
    0
100
AcDbLine
 10
57.77500000000001
 20
6.5
 11
59.25
 21
6.5
  0
LINE
  5
12F
100
AcDbEntity
  8
Dimensions
  6
ByBlock
 62
    0
100
AcDbLine
 10
57.725
 20
2.775557561562891e-17
 11
59.25
 21
-3.619327060277999e-17
  0
ENDBLK
  5
9E
100
AcDbEntity
  8
0
100
AcDbBlockEnd
  0
BLOCK
  5
A0
100
AcDbEntity
  8
0
100
AcDbBlockBegin
  2
*D16
 70
    1
 10
0
 20
0
  3
*D16
  1

  0
LINE
  5
130
100
AcDbEntity
  8
Dimensions
  6
ByBlock
 62
    0
100
AcDbLine
 10
48.52
 20
-20.25000000000001
 11
65.78
 21
-20.25000000000001
  0
MTEXT
  5
131
100
AcDbEntity
  8
Dimensions
  6
CONTINUOUS
 62
    0
100
AcDbMText
 10
57.15000000000001
 20
-18.37500000000001
 30
0
 40
2.5
 41
7.222222222222378
 71
    5
 72
    1
  1
17.26
  7
standard
210
0
220
0
230
1
 50
0
 73
    2
 44
1
  0
SOLID
  5
132
100
AcDbEntity
  8
Dimensions
  6
ByBlock
 62
    0
100
AcDbTrace
 10
48.52
 20
-20.25000000000001
 30
0
 11
51.02
 21
-19.83371534222717
 31
0
 12
51.02
 22
-20.66628465777285
 32
0
 13
51.02
 23
-20.66628465777285
 33
0
  0
SOLID
  5
133
100
AcDbEntity
  8
Dimensions
  6
ByBlock
 62
    0
100
AcDbTrace
 10
65.78
 20
-20.25000000000001
 30
0
 11
63.28
 21
-20.66628465777285
 31
0
 12
63.28
 22
-19.83371534222717
 32
0
 13
63.28
 23
-19.83371534222717
 33
0
  0
LINE
  5
134
100
AcDbEntity
  8
Dimensions
  6
ByBlock
 62
    0
100
AcDbLine
 10
48.52
 20
6.875
 11
48.52
 21
-21.50000000000001
  0
LINE
  5
135
100
AcDbEntity
  8
Dimensions
  6
ByBlock
 62
    0
100
AcDbLine
 10
65.78
 20
6.875
 11
65.78
 21
-21.50000000000001
  0
ENDBLK
  5
A1
100
AcDbEntity
  8
0
100
AcDbBlockEnd
  0
ENDSEC
  0
SECTION
  2
ENTITIES
  0
CIRCLE
  5
136
100
AcDbEntity
  8
0
  6
ByLayer
 62
  256
100
AcDbCircle
 10
-63.5
 20
7.635
 40
4.375
  0
CIRCLE
  5
137
100
AcDbEntity
  8
0
  6
ByLayer
 62
  256
100
AcDbCircle
 10
-41.275
 20
7.635
 40
4.375
  0
CIRCLE
  5
138
100
AcDbEntity
  8
0
  6
ByLayer
 62
  256
100
AcDbCircle
 10
-19.05
 20
7.635
 40
4.375
  0
LINE
  5
139
100
AcDbEntity
  8
0
  6
ByLayer
 62
  256
100
AcDbLine
 10
-67.8
 20
0
 11
67.8
 21
0
  0
LINE
  5
13A
100
AcDbEntity
  8
0
  6
ByLayer
 62
  256
100
AcDbLine
 10
-78.3
 20
28.5
 11
-78.3
 21
10.5
  0
ARC
  5
13B
100
AcDbEntity
  8
0
  6
ByLayer
 62
  256
100
AcDbCircle
 10
-67.8
 20
36.25
 40
2.75
100
AcDbArc
 50
90
 51
180
  0
ARC
  5
13C
100
AcDbEntity
  8
0
  6
ByLayer
 62
  256
100
AcDbCircle
 10
-75.55
 20
28.5
 40
2.75
100
AcDbArc
 50
90
 51
180
  0
ARC
  5
13D
100
AcDbEntity
  8
0
  6
ByLayer
 62
  256
100
AcDbCircle
 10
-75.55
 20
36.25
 40
5
100
AcDbArc
 50
270
 51
0
  0
ARC
  5
13E
100
AcDbEntity
  8
0
  6
ByLayer
 62
  256
100
AcDbCircle
 10
75.55
 20
28.5
 40
2.75
100
AcDbArc
 50
0
 51
90
  0
LINE
  5
13F
100
AcDbEntity
  8
0
  6
ByLayer
 62
  256
100
AcDbLine
 10
-67.8
 20
39
 11
67.8
 21
39
  0
ARC
  5
140
100
AcDbEntity
  8
0
  6
ByLayer
 62
  256
100
AcDbCircle
 10
67.8
 20
36.25
 40
2.75
100
AcDbArc
 50
0
 51
90
  0
ARC
  5
141
100
AcDbEntity
  8
0
  6
ByLayer
 62
  256
100
AcDbCircle
 10
75.55
 20
36.25
 40
5
100
AcDbArc
 50
180
 51
270
  0
LINE
  5
142
100
AcDbEntity
  8
0
  6
ByLayer
 62
  256
100
AcDbLine
 10
78.3
 20
28.5
 11
78.3
 21
10.5
  0
ARC
  5
143
100
AcDbEntity
  8
0
  6
ByLayer
 62
  256
100
AcDbCircle
 10
67.8
 20
2.75
 40
2.75
100
AcDbArc
 50
270
 51
0
  0
ARC
  5
144
100
AcDbEntity
  8
0
  6
ByLayer
 62
  256
100
AcDbCircle
 10
75.55
 20
2.75
 40
5
100
AcDbArc
 50
90
 51
180
  0
ARC
  5
145
100
AcDbEntity
  8
0
  6
ByLayer
 62
  256
100
AcDbCircle
 10
75.55
 20
10.5
 40
2.75
100
AcDbArc
 50
270
 51
0
  0
ARC
  5
146
100
AcDbEntity
  8
0
  6
ByLayer
 62
  256
100
AcDbCircle
 10
-67.8
 20
2.75
 40
2.75
100
AcDbArc
 50
180
 51
270
  0
ARC
  5
147
100
AcDbEntity
  8
0
  6
ByLayer
 62
  256
100
AcDbCircle
 10
-75.55
 20
2.75
 40
5
100
AcDbArc
 50
0
 51
90
  0
ARC
  5
148
100
AcDbEntity
  8
0
  6
ByLayer
 62
  256
100
AcDbCircle
 10
-75.55
 20
10.5
 40
2.75
100
AcDbArc
 50
180
 51
270
  0
LINE
  5
149
100
AcDbEntity
  8
0
  6
ByLayer
 62
  256
100
AcDbLine
 10
-9.76
 20
13.7
 11
-9.76
 21
7.5
  0
LINE
  5
14A
100
AcDbEntity
  8
0
  6
ByLayer
 62
  256
100
AcDbLine
 10
-8.76
 20
14.7
 11
26.54
 21
14.7
  0
ARC
  5
14B
100
AcDbEntity
  8
0
  6
ByLayer
 62
  256
100
AcDbCircle
 10
-8.76
 20
13.7
 40
1
100
AcDbArc
 50
90
 51
180
  0
LINE
  5
14C
100
AcDbEntity
  8
0
  6
ByLayer
 62
  256
100
AcDbLine
 10
-8.76
 20
6.5
 11
26.54
 21
6.5
  0
ARC
  5
14D
100
AcDbEntity
  8
0
  6
ByLayer
 62
  256
100
AcDbCircle
 10
-8.76
 20
7.5
 40
1
100
AcDbArc
 50
180
 51
270
  0
LINE
  5
14E
100
AcDbEntity
  8
0
  6
ByLayer
 62
  256
100
AcDbLine
 10
27.54
 20
13.7
 11
27.54
 21
7.5
  0
ARC
  5
14F
100
AcDbEntity
  8
0
  6
ByLayer
 62
  256
100
AcDbCircle
 10
26.54
 20
7.5
 40
1
100
AcDbArc
 50
270
 51
0
  0
ARC
  5
150
100
AcDbEntity
  8
0
  6
ByLayer
 62
  256
100
AcDbCircle
 10
26.54
 20
13.7
 40
1
100
AcDbArc
 50
0
 51
90
  0
LINE
  5
151
100
AcDbEntity
  8
0
  6
ByLayer
 62
  256
100
AcDbLine
 10
34.6
 20
6.75
 11
41.6
 21
6.75
  0
LINE
  5
152
100
AcDbEntity
  8
0
  6
ByLayer
 62
  256
100
AcDbLine
 10
34.6
 20
10.45
 11
41.6
 21
10.45
  0
LINE
  5
153
100
AcDbEntity
  8
0
  6
ByLayer
 62
  256
100
AcDbLine
 10
42.85
 20
9.199999999999999
 11
42.85
 21
8
  0
LINE
  5
154
100
AcDbEntity
  8
0
  6
ByLayer
 62
  256
100
AcDbLine
 10
33.35
 20
9.199999999999999
 11
33.35
 21
8
  0
ARC
  5
155
100
AcDbEntity
  8
0
  6
ByLayer
 62
  256
100
AcDbCircle
 10
34.6
 20
9.200000000000001
 40
1.249999999999998
100
AcDbArc
 50
90
 51
180
  0
ARC
  5
156
100
AcDbEntity
  8
0
  6
ByLayer
 62
  256
100
AcDbCircle
 10
34.6
 20
8
 40
1.25
100
AcDbArc
 50
180
 51
270
  0
ARC
  5
157
100
AcDbEntity
  8
0
  6
ByLayer
 62
  256
100
AcDbCircle
 10
41.6
 20
8
 40
1.25
100
AcDbArc
 50
270
 51
0
  0
ARC
  5
158
100
AcDbEntity
  8
0
  6
ByLayer
 62
  256
100
AcDbCircle
 10
41.6
 20
9.199999999999999
 40
1.25
100
AcDbArc
 50
0
 51
90
  0
LINE
  5
159
100
AcDbEntity
  8
0
  6
ByLayer
 62
  256
100
AcDbLine
 10
48.52
 20
20.34
 11
48.52
 21
7.5
  0
LINE
  5
15A
100
AcDbEntity
  8
0
  6
ByLayer
 62
  256
100
AcDbLine
 10
49.52
 20
21.34
 11
64.78
 21
21.34
  0
ARC
  5
15B
100
AcDbEntity
  8
0
  6
ByLayer
 62
  256
100
AcDbCircle
 10
49.52
 20
20.34
 40
1
100
AcDbArc
 50
90
 51
180
  0
LINE
  5
15C
100
AcDbEntity
  8
0
  6
ByLayer
 62
  256
100
AcDbLine
 10
65.78
 20
7.5
 11
65.78
 21
20.34
  0
ARC
  5
15D
100
AcDbEntity
  8
0
  6
ByLayer
 62
  256
100
AcDbCircle
 10
64.78
 20
20.34
 40
1
100
AcDbArc
 50
0
 51
90
  0
LINE
  5
15E
100
AcDbEntity
  8
0
  6
ByLayer
 62
  256
100
AcDbLine
 10
49.52
 20
6.5
 11
64.78
 21
6.5
  0
ARC
  5
15F
100
AcDbEntity
  8
0
  6
ByLayer
 62
  256
100
AcDbCircle
 10
64.78
 20
7.5
 40
1
100
AcDbArc
 50
270
 51
0
  0
ARC
  5
160
100
AcDbEntity
  8
0
  6
ByLayer
 62
  256
100
AcDbCircle
 10
49.52
 20
7.5
 40
1
100
AcDbArc
 50
180
 51
270
  0
DIMENSION
  5
161
100
AcDbEntity
  8
Dimensions
  6
ByLayer
 62
  256
100
AcDbDimension
  2
*D1
 10
-9.760000000000002
 20
-10
 30
0
 11
-4.88
 21
-8.125
 31
0
 70
   32
 71
    5
  3
Standard
 53
0
210
0
220
0
230
1
100
AcDbAlignedDimension
 13
0
 23
0
 33
0
 14
-9.76
 24
7.5
 34
0
100
AcDbRotatedDimension
  0
DIMENSION
  5
162
100
AcDbEntity
  8
Dimensions
  6
ByLayer
 62
  256
100
AcDbDimension
  2
*D2
 10
27.54
 20
20
 30
0
 11
8.890000000000001
 21
21.875
 31
0
 70
   32
 71
    5
  3
Standard
 53
0
210
0
220
0
230
1
100
AcDbAlignedDimension
 13
-9.76
 23
13.7
 33
0
 14
27.54
 24
13.7
 34
0
100
AcDbRotatedDimension
  0
DIMENSION
  5
163
100
AcDbEntity
  8
Dimensions
  6
ByLayer
 62
  256
100
AcDbDimension
  2
*D3
 10
10
 20
-1.069511233048326e-16
 30
0
 11
8.125
 21
3.25
 31
0
 70
   32
 71
    5
  3
Standard
 53
0
210
0
220
0
230
1
100
AcDbAlignedDimension
 13
8.889999999999999
 23
6.5
 33
0
 14
8.9
 24
2.775557561562891e-17
 34
0
 50
90
100
AcDbRotatedDimension
  0
DIMENSION
  5
164
100
AcDbEntity
  8
Dimensions
  6
ByLayer
 62
  256
100
AcDbDimension
  2
*D4
 10
31
 20
14.7
 30
0
 11
29.125
 21
10.6
 31
0
 70
   32
 71
    5
  3
Standard
 53
0
210
0
220
0
230
1
100
AcDbAlignedDimension
 13
26.54
 23
6.5
 33
0
 14
26.54
 24
14.7
 34
0
 50
90
100
AcDbRotatedDimension
  0
DIMENSION
  5
165
100
AcDbEntity
  8
Dimensions
  6
ByLayer
 62
  256
100
AcDbDimension
  2
*D5
 10
33.35
 20
-10
 30
0
 11
16.675
 21
-8.125
 31
0
 70
   32
 71
    5
  3
Standard
 53
0
210
0
220
0
230
1
100
AcDbAlignedDimension
 13
0
 23
0
 33
0
 14
33.35
 24
8
 34
0
100
AcDbRotatedDimension
  0
DIMENSION
  5
166
100
AcDbEntity
  8
Dimensions
  6
ByLayer
 62
  256
100
AcDbDimension
  2
*D6
 10
42.85
 20
-10.25
 30
0
 11
38.1
 21
-8.375
 31
0
 70
   32
 71
    5
  3
Standard
 53
0
210
0
220
0
230
1
100
AcDbAlignedDimension
 13
33.35
 23
8
 33
0
 14
42.85
 24
8
 34
0
100
AcDbRotatedDimension
  0
DIMENSION
  5
167
100
AcDbEntity
  8
Dimensions
  6
ByLayer
 62
  256
100
AcDbDimension
  2
*D7
 10
38
 20
9.551279038511064e-17
 30
0
 11
36.125
 21
3.375
 31
0
 70
   32
 71
    5
  3
Standard
 53
0
210
0
220
0
230
1
100
AcDbAlignedDimension
 13
38.1
 23
6.75
 33
0
 14
38.1
 24
8.326672684688674e-17
 34
0
 50
90
100
AcDbRotatedDimension
  0
DIMENSION
  5
168
100
AcDbEntity
  8
Dimensions
  6
ByLayer
 62
  256
100
AcDbDimension
  2
*D8
 10
44
 20
10.45
 30
0
 11
42.125
 21
8.6
 31
0
 70
   32
 71
    5
  3
Standard
 53
0
210
0
220
0
230
1
100
AcDbAlignedDimension
 13
41.6
 23
6.75
 33
0
 14
41.6
 24
10.45
 34
0
 50
90
100
AcDbRotatedDimension
  0
DIMENSION
  5
169
100
AcDbEntity
  8
Dimensions
  6
ByLayer
 62
  256
100
AcDbDimension
  2
*D9
 10
-8.76
 20
13.7
 30
0
 11
-14.49255193648538
 21
20.06880305142523
 31
0
 70
   36
  1
4-R1.0
 71
    5
  3
Standard
 53
0
210
0
220
0
230
1
100
AcDbRadialDimension
 15
-9.575430502654489
 25
14.27885498645226
 35
0
 40
0
  0
DIMENSION
  5
16A
100
AcDbEntity
  8
Dimensions
  6
ByLayer
 62
  256
100
AcDbDimension
  2
*D10
 10
-19.05
 20
-19.99999999999999
 30
0
 11
-9.525
 21
-18.12499999999999
 31
0
 70
   32
 71
    5
  3
Standard
 53
0
210
0
220
0
230
1
100
AcDbAlignedDimension
 13
0
 23
0
 33
0
 14
-19.05
 24
7.635
 34
0
100
AcDbRotatedDimension
  0
DIMENSION
  5
16B
100
AcDbEntity
  8
Dimensions
  6
ByLayer
 62
  256
100
AcDbDimension
  2
*D11
 10
-41.275
 20
-29.99999999999999
 30
0
 11
-20.6375
 21
-28.12499999999999
 31
0
 70
   32
 71
    5
  3
Standard
 53
0
210
0
220
0
230
1
100
AcDbAlignedDimension
 13
0
 23
0
 33
0
 14
-41.275
 24
7.635
 34
0
100
AcDbRotatedDimension
  0
DIMENSION
  5
16C
100
AcDbEntity
  8
Dimensions
  6
ByLayer
 62
  256
100
AcDbDimension
  2
*D12
 10
-63.5
 20
-40
 30
0
 11
-31.75
 21
-38.125
 31
0
 70
   32
 71
    5
  3
Standard
 53
0
210
0
220
0
230
1
100
AcDbAlignedDimension
 13
0
 23
0
 33
0
 14
-63.5
 24
7.635
 34
0
100
AcDbRotatedDimension
  0
DIMENSION
  5
16D
100
AcDbEntity
  8
Dimensions
  6
ByLayer
 62
  256
100
AcDbDimension
  2
*D13
 10
-50
 20
1.00989637659421e-15
 30
0
 11
-51.875
 21
3.817500000000001
 31
0
 70
   32
 71
    5
  3
Standard
 53
0
210
0
220
0
230
1
100
AcDbAlignedDimension
 13
-41.275
 23
7.635
 33
0
 14
-41.3
 24
-5.551115123125783e-17
 34
0
 50
90
100
AcDbRotatedDimension
  0
DIMENSION
  5
16E
100
AcDbEntity
  8
Dimensions
  6
ByLayer
 62
  256
100
AcDbDimension
  2
*D14
 10
-44.00142478715009
 20
4.21341661214964
 30
0
 11
-42.74139288050729
 21
8.80346776592147
 31
0
 70
   35
  1
3-%%C8.75
 71
    5
  3
Standard
 53
0
210
0
220
0
230
1
100
AcDbDiametricDimension
 15
-38.5485752128499
 25
11.05658338785036
 35
0
 40
0
  0
DIMENSION
  5
16F
100
AcDbEntity
  8
Dimensions
  6
ByLayer
 62
  256
100
AcDbDimension
  2
*D15
 10
48.52
 20
-20.00000000000001
 30
0
 11
24.26
 21
-18.12500000000001
 31
0
 70
   32
 71
    5
  3
Standard
 53
0
210
0
220
0
230
1
100
AcDbAlignedDimension
 13
0
 23
0
 33
0
 14
48.52
 24
7.5
 34
0
100
AcDbRotatedDimension
  0
DIMENSION
  5
170
100
AcDbEntity
  8
Dimensions
  6
ByLayer
 62
  256
100
AcDbDimension
  2
*D16
 10
65.78
 20
-20.25000000000001
 30
0
 11
57.15000000000001
 21
-18.37500000000001
 31
0
 70
   32
 71
    5
  3
Standard
 53
0
210
0
220
0
230
1
100
AcDbAlignedDimension
 13
48.52
 23
7.5
 33
0
 14
65.78
 24
7.5
 34
0
100
AcDbRotatedDimension
  0
DIMENSION
  5
171
100
AcDbEntity
  8
Dimensions
  6
ByLayer
 62
  256
100
AcDbDimension
  2
*D17
 10
58
 20
-8.245899622838486e-17
 30
0
 11
56.125
 21
3.25
 31
0
 70
   32
 71
    5
  3
Standard
 53
0
210
0
220
0
230
1
100
AcDbAlignedDimension
 13
57.15000000000001
 23
6.5
 33
0
 14
57.1
 24
2.775557561562891e-17
 34
0
 50
90
100
AcDbRotatedDimension
  0
DIMENSION
  5
172
100
AcDbEntity
  8
Dimensions
  6
ByLayer
 62
  256
100
AcDbDimension
  2
*D18
 10
70
 20
21.34
 30
0
 11
68.125
 21
13.92
 31
0
 70
   32
 71
    5
  3
Standard
 53
0
210
0
220
0
230
1
100
AcDbAlignedDimension
 13
64.78
 23
6.5
 33
0
 14
64.78
 24
21.34
 34
0
 50
90
100
AcDbRotatedDimension
  0
DIMENSION
  5
173
100
AcDbEntity
  8
Dimensions
  6
ByLayer
 62
  256
100
AcDbDimension
  2
*D19
 10
34.6
 20
9.200000000000001
 30
0
 11
34.42539242605757
 21
18.9634735096123
 31
0
 70
   36
  1
4-R1.25
 71
    5
  3
Standard
 53
0
210
0
220
0
230
1
100
AcDbRadialDimension
 15
34.33808863908641
 25
10.42225301759676
 35
0
 40
0
  0
DIMENSION
  5
174
100
AcDbEntity
  8
Dimensions
  6
ByLayer
 62
  256
100
AcDbDimension
  2
*D20
 10
49.52
 20
20.34
 30
0
 11
44.93362684980393
 21
27.57802357964563
 31
0
 70
   36
  1
4-R1.0
 71
    5
  3
Standard
 53
0
210
0
220
0
230
1
100
AcDbRadialDimension
 15
48.81289321881346
 25
21.04710678118655
 35
0
 40
0
  0
DIMENSION
  5
175
100
AcDbEntity
  8
Dimensions
  6
ByLayer
 62
  256
100
AcDbDimension
  2
*D21
 10
-78.3
 20
-50
 30
0
 11
-39.15
 21
-48.125
 31
0
 70
   32
 71
    5
  3
Standard
 53
0
210
0
220
0
230
1
100
AcDbAlignedDimension
 13
0
 23
0
 33
0
 14
-78.3
 24
10.5
 34
0
100
AcDbRotatedDimension
  0
DIMENSION
  5
176
100
AcDbEntity
  8
Dimensions
  6
ByLayer
 62
  256
100
AcDbDimension
  2
*D22
 10
67.8
 20
50
 30
0
 11
1.148068456708479e-16
 21
51.875
 31
0
 70
   32
 71
    5
  3
Standard
 53
0
210
0
220
0
230
1
100
AcDbAlignedDimension
 13
-67.8
 23
39
 33
0
 14
67.8
 24
39
 34
0
100
AcDbRotatedDimension
  0
DIMENSION
  5
177
100
AcDbEntity
  8
Dimensions
  6
ByLayer
 62
  256
100
AcDbDimension
  2
*D23
 10
78.3
 20
60
 30
0
 11
1.148068456708479e-16
 21
61.875
 31
0
 70
   32
 71
    5
  3
Standard
 53
0
210
0
220
0
230
1
100
AcDbAlignedDimension
 13
-78.3
 23
28.5
 33
0
 14
78.3
 24
28.5
 34
0
100
AcDbRotatedDimension
  0
DIMENSION
  5
178
100
AcDbEntity
  8
Dimensions
  6
ByLayer
 62
  256
100
AcDbDimension
  2
*D24
 10
100
 20
38.99999999999999
 30
0
 11
98.125
 21
19.5
 31
0
 70
   32
 71
    5
  3
Standard
 53
0
210
0
220
0
230
1
100
AcDbAlignedDimension
 13
67.8
 23
0
 33
0
 14
67.8
 24
39
 34
0
 50
90
100
AcDbRotatedDimension
  0
DIMENSION
  5
179
100
AcDbEntity
  8
Dimensions
  6
ByLayer
 62
  256
100
AcDbDimension
  2
*D25
 10
90
 20
10.5
 30
0
 11
88.125
 21
19.5
 31
0
 70
   32
 71
    5
  3
Standard
 53
0
210
0
220
0
230
1
100
AcDbAlignedDimension
 13
78.3
 23
28.5
 33
0
 14
78.3
 24
10.5
 34
0
 50
90
100
AcDbRotatedDimension
  0
DIMENSION
  5
17A
100
AcDbEntity
  8
Dimensions
  6
ByLayer
 62
  256
100
AcDbDimension
  2
*D26
 10
-75.55
 20
28.5
 30
0
 11
-82.11723544049319
 21
33.70398771266574
 31
0
 70
   36
 71
    5
  3
Standard
 53
0
210
0
220
0
230
1
100
AcDbRadialDimension
 15
-78.03286642676581
 25
29.68231734607896
 35
0
 40
0
  0
DIMENSION
  5
17B
100
AcDbEntity
  8
Dimensions
  6
ByLayer
 62
  256
100
AcDbDimension
  2
*D27
 10
-75.55
 20
36.25
 30
0
 11
-66.71934476379619
 21
30.41543938725868
 31
0
 70
   36
 71
    5
  3
Standard
 53
0
210
0
220
0
230
1
100
AcDbRadialDimension
 15
-71.93259543157986
 25
32.79827808356857
 35
0
 40
0
  0
DIMENSION
  5
17C
100
AcDbEntity
  8
Dimensions
  6
ByLayer
 62
  256
100
AcDbDimension
  2
*D28
 10
-67.8
 20
36.25
 30
0
 11
-71.67485325066257
 21
43.67937290289534
 31
0
 70
   36
 71
    5
  3
Standard
 53
0
210
0
220
0
230
1
100
AcDbRadialDimension
 15
-69.5850779944158
 25
38.34188827470601
 35
0
 40
0
  0
ENDSEC
  0
SECTION
  2
OBJECTS
  0
DICTIONARY
  5
C
100
AcDbDictionary
281
    1
  3
ACAD_GROUP
350
D
  0
DICTIONARY
  5
D
330
C
100
AcDbDictionary
281
    1
  0
PLOTSETTINGS
  5
17D
100
AcDbPlotSettings
  6
1x1
 40
0
 41
0
 42
0
 43
0
  0
ENDSEC
  0
EOF
