0
SECTION
2
HEADER
9
$ANGDIR
70
1
9
$AUNITS
70
0
9
$PROJECTNAME
1
CORS_Rear_Panel
9
$TDCREATE
40
2459943.01600036
9
$INSUNITS
70
4
0
ENDSEC
0
SECTION
2
ENTITIES
0
POLYLINE
66
1
8
outline
10
0.0
20
0.0
30
0.0
70
1
0
VERTEX
8
0
10
-79.3
20
-4.25
30
0
0
VERTEX
8
0
10
-79.28573125
20
-4.576834375
30
0
0
VERTEX
8
0
10
-79.24302812500001
20
-4.9011812500000005
30
0
0
VERTEX
8
0
10
-79.172221875
20
-5.220571875
30
0
0
VERTEX
8
0
10
-79.073846875
20
-5.5325750000000005
30
0
0
VERTEX
8
0
10
-78.948653125
20
-5.83481875
30
0
0
VERTEX
8
0
10
-78.79759375
20
-6.125
30
0
0
VERTEX
8
0
10
-78.62181875
20
-6.4009125000000004
30
0
0
VERTEX
8
0
10
-78.42266562500001
20
-6.660453125
30
0
0
VERTEX
8
0
10
-78.20165
20
-6.90165
30
0
0
VERTEX
8
0
10
-77.960453125
20
-7.122665625000001
30
0
0
VERTEX
8
0
10
-77.7009125
20
-7.32181875
30
0
0
VERTEX
8
0
10
-77.425
20
-7.49759375
30
0
0
VERTEX
8
0
10
-77.13481875000001
20
-7.648653125
30
0
0
VERTEX
8
0
10
-76.832575
20
-7.773846875
30
0
0
VERTEX
8
0
10
-76.520571875
20
-7.872221875
30
0
0
VERTEX
8
0
10
-76.20118125
20
-7.9430281250000005
30
0
0
VERTEX
8
0
10
-75.876834375
20
-7.985731250000001
30
0
0
VERTEX
8
0
10
-75.55
20
-8
30
0
0
VERTEX
8
0
10
75.55
20
-8
30
0
0
VERTEX
8
0
10
75.876834375
20
-7.985731250000001
30
0
0
VERTEX
8
0
10
76.20118125
20
-7.9430281250000005
30
0
0
VERTEX
8
0
10
76.520571875
20
-7.872221875
30
0
0
VERTEX
8
0
10
76.832575
20
-7.773846875
30
0
0
VERTEX
8
0
10
77.13481875000001
20
-7.648653125
30
0
0
VERTEX
8
0
10
77.425
20
-7.49759375
30
0
0
VERTEX
8
0
10
77.7009125
20
-7.32181875
30
0
0
VERTEX
8
0
10
77.960453125
20
-7.122665625000001
30
0
0
VERTEX
8
0
10
78.20165
20
-6.90165
30
0
0
VERTEX
8
0
10
78.42266562500001
20
-6.660453125
30
0
0
VERTEX
8
0
10
78.62181875
20
-6.4009125000000004
30
0
0
VERTEX
8
0
10
78.79759375
20
-6.125
30
0
0
VERTEX
8
0
10
78.948653125
20
-5.83481875
30
0
0
VERTEX
8
0
10
79.073846875
20
-5.5325750000000005
30
0
0
VERTEX
8
0
10
79.172221875
20
-5.220571875
30
0
0
VERTEX
8
0
10
79.24302812500001
20
-4.9011812500000005
30
0
0
VERTEX
8
0
10
79.28573125
20
-4.576834375
30
0
0
VERTEX
8
0
10
79.3
20
-4.25
30
0
0
VERTEX
8
0
10
79.3
20
29.25
30
0
0
VERTEX
8
0
10
79.28573125
20
29.576834375
30
0
0
VERTEX
8
0
10
79.24302812500001
20
29.90118125
30
0
0
VERTEX
8
0
10
79.172221875
20
30.220571875
30
0
0
VERTEX
8
0
10
79.073846875
20
30.532575
30
0
0
VERTEX
8
0
10
78.948653125
20
30.83481875
30
0
0
VERTEX
8
0
10
78.79759375
20
31.125
30
0
0
VERTEX
8
0
10
78.62181875
20
31.4009125
30
0
0
VERTEX
8
0
10
78.42266562500001
20
31.660453125
30
0
0
VERTEX
8
0
10
78.20165
20
31.90165
30
0
0
VERTEX
8
0
10
77.960453125
20
32.122665625
30
0
0
VERTEX
8
0
10
77.7009125
20
32.32181875
30
0
0
VERTEX
8
0
10
77.425
20
32.49759375
30
0
0
VERTEX
8
0
10
77.13481875000001
20
32.648653125
30
0
0
VERTEX
8
0
10
76.832575
20
32.773846875000004
30
0
0
VERTEX
8
0
10
76.520571875
20
32.872221875
30
0
0
VERTEX
8
0
10
76.20118125
20
32.943028125000005
30
0
0
VERTEX
8
0
10
75.876834375
20
32.98573125
30
0
0
VERTEX
8
0
10
75.55
20
33
30
0
0
VERTEX
8
0
10
-75.55
20
33
30
0
0
VERTEX
8
0
10
-75.876834375
20
32.98573125
30
0
0
VERTEX
8
0
10
-76.20118125
20
32.943028125000005
30
0
0
VERTEX
8
0
10
-76.520571875
20
32.872221875
30
0
0
VERTEX
8
0
10
-76.832575
20
32.773846875000004
30
0
0
VERTEX
8
0
10
-77.13481875000001
20
32.648653125
30
0
0
VERTEX
8
0
10
-77.425
20
32.49759375
30
0
0
VERTEX
8
0
10
-77.7009125
20
32.32181875
30
0
0
VERTEX
8
0
10
-77.960453125
20
32.122665625
30
0
0
VERTEX
8
0
10
-78.20165
20
31.90165
30
0
0
VERTEX
8
0
10
-78.42266562500001
20
31.660453125
30
0
0
VERTEX
8
0
10
-78.62181875
20
31.4009125
30
0
0
VERTEX
8
0
10
-78.79759375
20
31.125
30
0
0
VERTEX
8
0
10
-78.948653125
20
30.83481875
30
0
0
VERTEX
8
0
10
-79.073846875
20
30.532575
30
0
0
VERTEX
8
0
10
-79.172221875
20
30.220571875
30
0
0
VERTEX
8
0
10
-79.24302812500001
20
29.90118125
30
0
0
VERTEX
8
0
10
-79.28573125
20
29.576834375
30
0
0
VERTEX
8
0
10
-79.3
20
29.25
30
0
0
VERTEX
8
0
10
-79.3
20
-4.25
30
0
0
SEQEND
0
POLYLINE
66
1
8
holes
10
0.0
20
0.0
30
0.0
70
1
0
VERTEX
8
0
10
48.02
20
0.5
30
0
0
VERTEX
8
0
10
48.023809375
20
0.412840625
30
0
0
VERTEX
8
0
10
48.035196875000004
20
0.32635000000000003
30
0
0
VERTEX
8
0
10
48.054078125000004
20
0.24117812500000002
30
0
0
VERTEX
8
0
10
48.080309375
20
0.157978125
30
0
0
VERTEX
8
0
10
48.11369375
20
0.07738125
30
0
0
VERTEX
8
0
10
48.153978125
20
-3.125e-6
30
0
0
VERTEX
8
0
10
48.20085
20
-0.07357812500000001
30
0
0
VERTEX
8
0
10
48.253959375
20
-0.1427875
30
0
0
VERTEX
8
0
10
48.312896875
20
-0.20710625000000002
30
0
0
VERTEX
8
0
10
48.377215625000005
20
-0.26604375
30
0
0
VERTEX
8
0
10
48.446425000000005
20
-0.31915312500000004
30
0
0
VERTEX
8
0
10
48.520003125
20
-0.36602500000000004
30
0
0
VERTEX
8
0
10
48.597384375000004
20
-0.40630937500000003
30
0
0
VERTEX
8
0
10
48.67798125
20
-0.43969375
30
0
0
VERTEX
8
0
10
48.76118125
20
-0.46592500000000003
30
0
0
VERTEX
8
0
10
48.846353125
20
-0.48480625000000005
30
0
0
VERTEX
8
0
10
48.93284375
20
-0.49619375000000004
30
0
0
VERTEX
8
0
10
49.02
20
-0.5
30
0
0
VERTEX
8
0
10
65.28
20
-0.5
30
0
0
VERTEX
8
0
10
65.367159375
20
-0.49619687500000004
30
0
0
VERTEX
8
0
10
65.45365
20
-0.48480937500000004
30
0
0
VERTEX
8
0
10
65.538821875
20
-0.465928125
30
0
0
VERTEX
8
0
10
65.622021875
20
-0.43969375
30
0
0
VERTEX
8
0
10
65.702621875
20
-0.40630937500000003
30
0
0
VERTEX
8
0
10
65.78000312500001
20
-0.36602812500000004
30
0
0
VERTEX
8
0
10
65.853578125
20
-0.31915312500000004
30
0
0
VERTEX
8
0
10
65.922790625
20
-0.266046875
30
0
0
VERTEX
8
0
10
65.987109375
20
-0.20710625000000002
30
0
0
VERTEX
8
0
10
66.046046875
20
-0.1427875
30
0
0
VERTEX
8
0
10
66.099153125
20
-0.07357812500000001
30
0
0
VERTEX
8
0
10
66.146028125
20
0
30
0
0
VERTEX
8
0
10
66.18630937500001
20
0.07738125
30
0
0
VERTEX
8
0
10
66.21969375
20
0.157978125
30
0
0
VERTEX
8
0
10
66.245928125
20
0.24118125
30
0
0
VERTEX
8
0
10
66.264809375
20
0.326353125
30
0
0
VERTEX
8
0
10
66.27619375
20
0.41284375
30
0
0
VERTEX
8
0
10
66.28
20
0.5
30
0
0
VERTEX
8
0
10
66.28
20
12.84
30
0
0
VERTEX
8
0
10
66.272390625
20
13.0143125
30
0
0
VERTEX
8
0
10
66.249615625
20
13.187296875000001
30
0
0
VERTEX
8
0
10
66.211853125
20
13.357637500000001
30
0
0
VERTEX
8
0
10
66.159384375
20
13.524040625000001
30
0
0
VERTEX
8
0
10
66.09261562500001
20
13.685237500000001
30
0
0
VERTEX
8
0
10
66.01205
20
13.84
30
0
0
VERTEX
8
0
10
65.91830312500001
20
13.987153125
30
0
0
VERTEX
8
0
10
65.8120875
20
14.125575000000001
30
0
0
VERTEX
8
0
10
65.6942125
20
14.254212500000001
30
0
0
VERTEX
8
0
10
65.56557500000001
20
14.372087500000001
30
0
0
VERTEX
8
0
10
65.427153125
20
14.478303125
30
0
0
VERTEX
8
0
10
65.28
20
14.57205
30
0
0
VERTEX
8
0
10
65.1252375
20
14.652615625000001
30
0
0
VERTEX
8
0
10
64.96404062500001
20
14.719384375
30
0
0
VERTEX
8
0
10
64.79763750000001
20
14.771853125000002
30
0
0
VERTEX
8
0
10
64.627296875
20
14.809615625000001
30
0
0
VERTEX
8
0
10
64.4543125
20
14.832390625
30
0
0
VERTEX
8
0
10
64.28
20
14.84
30
0
0
VERTEX
8
0
10
50.02
20
14.84
30
0
0
VERTEX
8
0
10
49.845687500000004
20
14.832390625
30
0
0
VERTEX
8
0
10
49.672703125000005
20
14.809615625000001
30
0
0
VERTEX
8
0
10
49.502362500000004
20
14.771853125000002
30
0
0
VERTEX
8
0
10
49.335959375
20
14.719384375
30
0
0
VERTEX
8
0
10
49.1747625
20
14.652615625000001
30
0
0
VERTEX
8
0
10
49.02
20
14.57205
30
0
0
VERTEX
8
0
10
48.872846875
20
14.478303125
30
0
0
VERTEX
8
0
10
48.734425
20
14.372087500000001
30
0
0
VERTEX
8
0
10
48.605787500000005
20
14.254212500000001
30
0
0
VERTEX
8
0
10
48.4879125
20
14.125575000000001
30
0
0
VERTEX
8
0
10
48.381696875
20
13.987153125
30
0
0
VERTEX
8
0
10
48.28795
20
13.84
30
0
0
VERTEX
8
0
10
48.207384375000004
20
13.685237500000001
30
0
0
VERTEX
8
0
10
48.140615625
20
13.524040625000001
30
0
0
VERTEX
8
0
10
48.088146875
20
13.357637500000001
30
0
0
VERTEX
8
0
10
48.050384375
20
13.187296875000001
30
0
0
VERTEX
8
0
10
48.027609375000004
20
13.0143125
30
0
0
VERTEX
8
0
10
48.02
20
12.84
30
0
0
VERTEX
8
0
10
48.02
20
0.5
30
0
0
SEQEND
0
POLYLINE
66
1
8
holes
10
0.0
20
0.0
30
0.0
70
1
0
VERTEX
8
0
10
-9.76
20
0.5
30
0
0
VERTEX
8
0
10
-9.756190625
20
0.412840625
30
0
0
VERTEX
8
0
10
-9.744803125
20
0.32635000000000003
30
0
0
VERTEX
8
0
10
-9.725921875000001
20
0.24117812500000002
30
0
0
VERTEX
8
0
10
-9.699690625
20
0.157978125
30
0
0
VERTEX
8
0
10
-9.66630625
20
0.07738125
30
0
0
VERTEX
8
0
10
-9.626021875000001
20
-3.125e-6
30
0
0
VERTEX
8
0
10
-9.57915
20
-0.07357812500000001
30
0
0
VERTEX
8
0
10
-9.526040625
20
-0.1427875
30
0
0
VERTEX
8
0
10
-9.467103125000001
20
-0.20710625000000002
30
0
0
VERTEX
8
0
10
-9.402784375000001
20
-0.26604375
30
0
0
VERTEX
8
0
10
-9.333575
20
-0.31915312500000004
30
0
0
VERTEX
8
0
10
-9.259996875
20
-0.36602500000000004
30
0
0
VERTEX
8
0
10
-9.182615625
20
-0.40630937500000003
30
0
0
VERTEX
8
0
10
-9.102018750000001
20
-0.43969375
30
0
0
VERTEX
8
0
10
-9.018818750000001
20
-0.46592500000000003
30
0
0
VERTEX
8
0
10
-8.933646875
20
-0.48480625000000005
30
0
0
VERTEX
8
0
10
-8.847156250000001
20
-0.49619375000000004
30
0
0
VERTEX
8
0
10
-8.76
20
-0.5
30
0
0
VERTEX
8
0
10
26.540000000000003
20
-0.5
30
0
0
VERTEX
8
0
10
26.627159375
20
-0.49619687500000004
30
0
0
VERTEX
8
0
10
26.71365
20
-0.48480937500000004
30
0
0
VERTEX
8
0
10
26.798821875
20
-0.465928125
30
0
0
VERTEX
8
0
10
26.882021875000003
20
-0.43969375
30
0
0
VERTEX
8
0
10
26.962621875
20
-0.40630937500000003
30
0
0
VERTEX
8
0
10
27.040003125000002
20
-0.36602812500000004
30
0
0
VERTEX
8
0
10
27.113578125
20
-0.31915312500000004
30
0
0
VERTEX
8
0
10
27.182790625000003
20
-0.266046875
30
0
0
VERTEX
8
0
10
27.247109375
20
-0.20710625000000002
30
0
0
VERTEX
8
0
10
27.306046875
20
-0.1427875
30
0
0
VERTEX
8
0
10
27.359153125000002
20
-0.07357812500000001
30
0
0
VERTEX
8
0
10
27.406028125000002
20
0
30
0
0
VERTEX
8
0
10
27.446309375000002
20
0.07738125
30
0
0
VERTEX
8
0
10
27.479693750000003
20
0.157978125
30
0
0
VERTEX
8
0
10
27.505928125
20
0.24118125
30
0
0
VERTEX
8
0
10
27.524809375
20
0.326353125
30
0
0
VERTEX
8
0
10
27.536193750000002
20
0.41284375
30
0
0
VERTEX
8
0
10
27.540000000000003
20
0.5
30
0
0
VERTEX
8
0
10
27.540000000000003
20
6.7
30
0
0
VERTEX
8
0
10
27.536193750000002
20
6.787156250000001
30
0
0
VERTEX
8
0
10
27.52480625
20
6.873646875
30
0
0
VERTEX
8
0
10
27.505925
20
6.958818750000001
30
0
0
VERTEX
8
0
10
27.479693750000003
20
7.04201875
30
0
0
VERTEX
8
0
10
27.446306250000003
20
7.12261875
30
0
0
VERTEX
8
0
10
27.406025
20
7.2
30
0
0
VERTEX
8
0
10
27.359153125000002
20
7.273575
30
0
0
VERTEX
8
0
10
27.30604375
20
7.3427875
30
0
0
VERTEX
8
0
10
27.24710625
20
7.40710625
30
0
0
VERTEX
8
0
10
27.1827875
20
7.466043750000001
30
0
0
VERTEX
8
0
10
27.113575
20
7.519153125000001
30
0
0
VERTEX
8
0
10
27.040000000000003
20
7.566025000000001
30
0
0
VERTEX
8
0
10
26.96261875
20
7.60630625
30
0
0
VERTEX
8
0
10
26.88201875
20
7.63969375
30
0
0
VERTEX
8
0
10
26.798818750000002
20
7.6659250000000005
30
0
0
VERTEX
8
0
10
26.713646875000002
20
7.68480625
30
0
0
VERTEX
8
0
10
26.627156250000002
20
7.69619375
30
0
0
VERTEX
8
0
10
26.540000000000003
20
7.7
30
0
0
VERTEX
8
0
10
-8.76
20
7.7
30
0
0
VERTEX
8
0
10
-8.847156250000001
20
7.69619375
30
0
0
VERTEX
8
0
10
-8.933646875
20
7.68480625
30
0
0
VERTEX
8
0
10
-9.018818750000001
20
7.6659250000000005
30
0
0
VERTEX
8
0
10
-9.102018750000001
20
7.63969375
30
0
0
VERTEX
8
0
10
-9.18261875
20
7.60630625
30
0
0
VERTEX
8
0
10
-9.26
20
7.566025000000001
30
0
0
VERTEX
8
0
10
-9.333575
20
7.519153125000001
30
0
0
VERTEX
8
0
10
-9.4027875
20
7.466043750000001
30
0
0
VERTEX
8
0
10
-9.46710625
20
7.40710625
30
0
0
VERTEX
8
0
10
-9.526043750000001
20
7.3427875
30
0
0
VERTEX
8
0
10
-9.579153125000001
20
7.273575
30
0
0
VERTEX
8
0
10
-9.626025
20
7.2
30
0
0
VERTEX
8
0
10
-9.66630625
20
7.12261875
30
0
0
VERTEX
8
0
10
-9.69969375
20
7.04201875
30
0
0
VERTEX
8
0
10
-9.725925
20
6.958818750000001
30
0
0
VERTEX
8
0
10
-9.74480625
20
6.873646875
30
0
0
VERTEX
8
0
10
-9.756193750000001
20
6.787156250000001
30
0
0
VERTEX
8
0
10
-9.76
20
6.7
30
0
0
VERTEX
8
0
10
-9.76
20
0.5
30
0
0
SEQEND
0
POLYLINE
66
1
8
holes
10
0.0
20
0.0
30
0.0
70
1
0
VERTEX
8
0
10
33.1
20
1
30
0
0
VERTEX
8
0
10
33.105709375
20
0.869265625
30
0
0
VERTEX
8
0
10
33.1227875
20
0.739528125
30
0
0
VERTEX
8
0
10
33.1511125
20
0.6117718750000001
30
0
0
VERTEX
8
0
10
33.1904625
20
0.48696875
30
0
0
VERTEX
8
0
10
33.2405375
20
0.366071875
30
0
0
VERTEX
8
0
10
33.300962500000004
20
0.25
30
0
0
VERTEX
8
0
10
33.371271875000005
20
0.139634375
30
0
0
VERTEX
8
0
10
33.450934375
20
0.03581875
30
0
0
VERTEX
8
0
10
33.539340625
20
-0.060659375
30
0
0
VERTEX
8
0
10
33.63581875
20
-0.149065625
30
0
0
VERTEX
8
0
10
33.739634375
20
-0.228728125
30
0
0
VERTEX
8
0
10
33.85
20
-0.2990375
30
0
0
VERTEX
8
0
10
33.966071875000004
20
-0.3594625
30
0
0
VERTEX
8
0
10
34.086968750000004
20
-0.4095375
30
0
0
VERTEX
8
0
10
34.211771875000004
20
-0.4488875
30
0
0
VERTEX
8
0
10
34.339528125
20
-0.47721250000000004
30
0
0
VERTEX
8
0
10
34.469265625
20
-0.49429062500000004
30
0
0
VERTEX
8
0
10
34.6
20
-0.5
30
0
0
VERTEX
8
0
10
41.6
20
-0.5
30
0
0
VERTEX
8
0
10
41.730734375000004
20
-0.49429062500000004
30
0
0
VERTEX
8
0
10
41.860471875
20
-0.47721250000000004
30
0
0
VERTEX
8
0
10
41.988228125
20
-0.4488875
30
0
0
VERTEX
8
0
10
42.11303125
20
-0.4095375
30
0
0
VERTEX
8
0
10
42.233928125
20
-0.3594625
30
0
0
VERTEX
8
0
10
42.35
20
-0.2990375
30
0
0
VERTEX
8
0
10
42.460365625
20
-0.228728125
30
0
0
VERTEX
8
0
10
42.564181250000004
20
-0.149065625
30
0
0
VERTEX
8
0
10
42.660659375
20
-0.060659375
30
0
0
VERTEX
8
0
10
42.749065625
20
0.03581875
30
0
0
VERTEX
8
0
10
42.828728125000005
20
0.139634375
30
0
0
VERTEX
8
0
10
42.8990375
20
0.25
30
0
0
VERTEX
8
0
10
42.9594625
20
0.366071875
30
0
0
VERTEX
8
0
10
43.0095375
20
0.48696875
30
0
0
VERTEX
8
0
10
43.0488875
20
0.6117718750000001
30
0
0
VERTEX
8
0
10
43.0772125
20
0.739528125
30
0
0
VERTEX
8
0
10
43.094290625
20
0.869265625
30
0
0
VERTEX
8
0
10
43.1
20
1
30
0
0
VERTEX
8
0
10
43.1
20
2.2
30
0
0
VERTEX
8
0
10
43.094290625
20
2.330734375
30
0
0
VERTEX
8
0
10
43.0772125
20
2.460471875
30
0
0
VERTEX
8
0
10
43.0488875
20
2.588228125
30
0
0
VERTEX
8
0
10
43.0095375
20
2.7130312500000002
30
0
0
VERTEX
8
0
10
42.9594625
20
2.8339281250000004
30
0
0
VERTEX
8
0
10
42.8990375
20
2.95
30
0
0
VERTEX
8
0
10
42.828728125000005
20
3.060365625
30
0
0
VERTEX
8
0
10
42.749065625
20
3.16418125
30
0
0
VERTEX
8
0
10
42.660659375
20
3.2606593750000004
30
0
0
VERTEX
8
0
10
42.564181250000004
20
3.349065625
30
0
0
VERTEX
8
0
10
42.460365625
20
3.428728125
30
0
0
VERTEX
8
0
10
42.35
20
3.4990375
30
0
0
VERTEX
8
0
10
42.233928125
20
3.5594625
30
0
0
VERTEX
8
0
10
42.11303125
20
3.6095375
30
0
0
VERTEX
8
0
10
41.988228125
20
3.6488875000000003
30
0
0
VERTEX
8
0
10
41.860471875
20
3.6772125
30
0
0
VERTEX
8
0
10
41.730734375000004
20
3.6942906250000003
30
0
0
VERTEX
8
0
10
41.6
20
3.7
30
0
0
VERTEX
8
0
10
34.6
20
3.7
30
0
0
VERTEX
8
0
10
34.469265625
20
3.6942906250000003
30
0
0
VERTEX
8
0
10
34.339528125
20
3.6772125
30
0
0
VERTEX
8
0
10
34.211771875000004
20
3.6488875000000003
30
0
0
VERTEX
8
0
10
34.086968750000004
20
3.6095375
30
0
0
VERTEX
8
0
10
33.966071875000004
20
3.5594625
30
0
0
VERTEX
8
0
10
33.85
20
3.4990375
30
0
0
VERTEX
8
0
10
33.739634375
20
3.428728125
30
0
0
VERTEX
8
0
10
33.63581875
20
3.349065625
30
0
0
VERTEX
8
0
10
33.539340625
20
3.2606593750000004
30
0
0
VERTEX
8
0
10
33.450934375
20
3.16418125
30
0
0
VERTEX
8
0
10
33.371271875000005
20
3.060365625
30
0
0
VERTEX
8
0
10
33.300962500000004
20
2.95
30
0
0
VERTEX
8
0
10
33.2405375
20
2.8339281250000004
30
0
0
VERTEX
8
0
10
33.1904625
20
2.7130312500000002
30
0
0
VERTEX
8
0
10
33.1511125
20
2.588228125
30
0
0
VERTEX
8
0
10
33.1227875
20
2.460471875
30
0
0
VERTEX
8
0
10
33.105709375
20
2.330734375
30
0
0
VERTEX
8
0
10
33.1
20
2.2
30
0
0
VERTEX
8
0
10
33.1
20
1
30
0
0
SEQEND
0
POLYLINE
66
1
8
holes
10
0.0
20
0.0
30
0.0
70
1
0
VERTEX
8
0
10
-73.832665625
20
29.194346875
30
0
0
VERTEX
8
0
10
-73.83994375
20
29.083281250000002
30
0
0
VERTEX
8
0
10
-73.854471875
20
28.972928125000003
30
0
0
VERTEX
8
0
10
-73.8761875
20
28.8637625
30
0
0
VERTEX
8
0
10
-73.90499687500001
20
28.756253125
30
0
0
VERTEX
8
0
10
-73.94077187500001
20
28.650853125
30
0
0
VERTEX
8
0
10
-73.98336875
20
28.548021875
30
0
0
VERTEX
8
0
10
-74.03259687500001
20
28.448196875
30
0
0
VERTEX
8
0
10
-74.08825
20
28.351803125
30
0
0
VERTEX
8
0
10
-74.1500875
20
28.25925625
30
0
0
VERTEX
8
0
10
-74.21784375
20
28.170953125
30
0
0
VERTEX
8
0
10
-74.29123125000001
20
28.087271875000003
30
0
0
VERTEX
8
0
10
-74.3699375
20
28.008565625000003
30
0
0
VERTEX
8
0
10
-74.45361875
20
27.935178125
30
0
0
VERTEX
8
0
10
-74.541921875
20
27.867421875
30
0
0
VERTEX
8
0
10
-74.63446875000001
20
27.805584375000002
30
0
0
VERTEX
8
0
10
-74.7308625
20
27.749931250000003
30
0
0
VERTEX
8
0
10
-74.83068750000001
20
27.700703125
30
0
0
VERTEX
8
0
10
-74.93351875
20
27.658106250000003
30
0
0
VERTEX
8
0
10
-75.03891875000001
20
27.622331250000002
30
0
0
VERTEX
8
0
10
-75.146428125
20
27.593521875
30
0
0
VERTEX
8
0
10
-75.25559375
20
27.57180625
30
0
0
VERTEX
8
0
10
-75.365946875
20
27.557278125
30
0
0
VERTEX
8
0
10
-75.4770125
20
27.55
30
0
0
VERTEX
8
0
10
-75.58831875
20
27.55
30
0
0
VERTEX
8
0
10
-75.69938437500001
20
27.557278125
30
0
0
VERTEX
8
0
10
-75.8097375
20
27.57180625
30
0
0
VERTEX
8
0
10
-75.918903125
20
27.593521875
30
0
0
VERTEX
8
0
10
-76.0264125
20
27.622331250000002
30
0
0
VERTEX
8
0
10
-76.13181250000001
20
27.658106250000003
30
0
0
VERTEX
8
0
10
-76.23464375
20
27.700703125
30
0
0
VERTEX
8
0
10
-76.33446875
20
27.749931250000003
30
0
0
VERTEX
8
0
10
-76.4308625
20
27.805584375000002
30
0
0
VERTEX
8
0
10
-76.523409375
20
27.867421875
30
0
0
VERTEX
8
0
10
-76.61171250000001
20
27.935178125
30
0
0
VERTEX
8
0
10
-76.69539375000001
20
28.008565625000003
30
0
0
VERTEX
8
0
10
-76.7741
20
28.087271875000003
30
0
0
VERTEX
8
0
10
-76.8474875
20
28.170953125
30
0
0
VERTEX
8
0
10
-76.91524375
20
28.25925625
30
0
0
VERTEX
8
0
10
-76.97708125
20
28.351803125
30
0
0
VERTEX
8
0
10
-77.032734375
20
28.448196875
30
0
0
VERTEX
8
0
10
-77.0819625
20
28.548021875
30
0
0
VERTEX
8
0
10
-77.124559375
20
28.650853125
30
0
0
VERTEX
8
0
10
-77.160334375
20
28.756253125
30
0
0
VERTEX
8
0
10
-77.18914375
20
28.8637625
30
0
0
VERTEX
8
0
10
-77.210859375
20
28.972928125000003
30
0
0
VERTEX
8
0
10
-77.22538750000001
20
29.083281250000002
30
0
0
VERTEX
8
0
10
-77.23266562500001
20
29.194346875
30
0
0
VERTEX
8
0
10
-77.23266562500001
20
29.305653125000003
30
0
0
VERTEX
8
0
10
-77.22538750000001
20
29.41671875
30
0
0
VERTEX
8
0
10
-77.210859375
20
29.527071875
30
0
0
VERTEX
8
0
10
-77.18914375
20
29.6362375
30
0
0
VERTEX
8
0
10
-77.160334375
20
29.743746875000003
30
0
0
VERTEX
8
0
10
-77.124559375
20
29.849146875000002
30
0
0
VERTEX
8
0
10
-77.0819625
20
29.951978125
30
0
0
VERTEX
8
0
10
-77.032734375
20
30.051803125000003
30
0
0
VERTEX
8
0
10
-76.97708125
20
30.148196875
30
0
0
VERTEX
8
0
10
-76.91524375
20
30.24074375
30
0
0
VERTEX
8
0
10
-76.8474875
20
30.329046875000003
30
0
0
VERTEX
8
0
10
-76.7741
20
30.412728125
30
0
0
VERTEX
8
0
10
-76.69539375000001
20
30.491434375
30
0
0
VERTEX
8
0
10
-76.61171250000001
20
30.564821875
30
0
0
VERTEX
8
0
10
-76.523409375
20
30.632578125000002
30
0
0
VERTEX
8
0
10
-76.4308625
20
30.694415625
30
0
0
VERTEX
8
0
10
-76.33446875
20
30.75006875
30
0
0
VERTEX
8
0
10
-76.23464375
20
30.799296875000003
30
0
0
VERTEX
8
0
10
-76.13181250000001
20
30.84189375
30
0
0
VERTEX
8
0
10
-76.0264125
20
30.87766875
30
0
0
VERTEX
8
0
10
-75.918903125
20
30.906478125000003
30
0
0
VERTEX
8
0
10
-75.8097375
20
30.928193750000002
30
0
0
VERTEX
8
0
10
-75.69938437500001
20
30.942721875
30
0
0
VERTEX
8
0
10
-75.58831875
20
30.950000000000003
30
0
0
VERTEX
8
0
10
-75.4770125
20
30.950000000000003
30
0
0
VERTEX
8
0
10
-75.365946875
20
30.942721875
30
0
0
VERTEX
8
0
10
-75.25559375
20
30.928193750000002
30
0
0
VERTEX
8
0
10
-75.146428125
20
30.906478125000003
30
0
0
VERTEX
8
0
10
-75.03891875000001
20
30.87766875
30
0
0
VERTEX
8
0
10
-74.93351875
20
30.84189375
30
0
0
VERTEX
8
0
10
-74.83068750000001
20
30.799296875000003
30
0
0
VERTEX
8
0
10
-74.7308625
20
30.75006875
30
0
0
VERTEX
8
0
10
-74.63446875000001
20
30.694415625
30
0
0
VERTEX
8
0
10
-74.541921875
20
30.632578125000002
30
0
0
VERTEX
8
0
10
-74.45361875
20
30.564821875
30
0
0
VERTEX
8
0
10
-74.3699375
20
30.491434375
30
0
0
VERTEX
8
0
10
-74.29123125000001
20
30.412728125
30
0
0
VERTEX
8
0
10
-74.21784375
20
30.329046875000003
30
0
0
VERTEX
8
0
10
-74.1500875
20
30.24074375
30
0
0
VERTEX
8
0
10
-74.08825
20
30.148196875
30
0
0
VERTEX
8
0
10
-74.03259687500001
20
30.051803125000003
30
0
0
VERTEX
8
0
10
-73.98336875
20
29.951978125
30
0
0
VERTEX
8
0
10
-73.94077187500001
20
29.849146875000002
30
0
0
VERTEX
8
0
10
-73.90499687500001
20
29.743746875000003
30
0
0
VERTEX
8
0
10
-73.8761875
20
29.6362375
30
0
0
VERTEX
8
0
10
-73.854471875
20
29.527071875
30
0
0
VERTEX
8
0
10
-73.83994375
20
29.41671875
30
0
0
VERTEX
8
0
10
-73.832665625
20
29.305653125000003
30
0
0
VERTEX
8
0
10
-73.832665625
20
29.194346875
30
0
0
SEQEND
0
POLYLINE
66
1
8
holes
10
0.0
20
0.0
30
0.0
70
1
0
VERTEX
8
0
10
77.267334375
20
29.194346875
30
0
0
VERTEX
8
0
10
77.26005625
20
29.083281250000002
30
0
0
VERTEX
8
0
10
77.245528125
20
28.972928125000003
30
0
0
VERTEX
8
0
10
77.22381250000001
20
28.8637625
30
0
0
VERTEX
8
0
10
77.195003125
20
28.756253125
30
0
0
VERTEX
8
0
10
77.159228125
20
28.650853125
30
0
0
VERTEX
8
0
10
77.11663125
20
28.548021875
30
0
0
VERTEX
8
0
10
77.067403125
20
28.448196875
30
0
0
VERTEX
8
0
10
77.01175
20
28.351803125
30
0
0
VERTEX
8
0
10
76.94991250000001
20
28.25925625
30
0
0
VERTEX
8
0
10
76.88215625000001
20
28.170953125
30
0
0
VERTEX
8
0
10
76.80876875
20
28.087271875000003
30
0
0
VERTEX
8
0
10
76.7300625
20
28.008565625000003
30
0
0
VERTEX
8
0
10
76.64638125
20
27.935178125
30
0
0
VERTEX
8
0
10
76.55807812500001
20
27.867421875
30
0
0
VERTEX
8
0
10
76.46553125
20
27.805584375000002
30
0
0
VERTEX
8
0
10
76.36913750000001
20
27.749931250000003
30
0
0
VERTEX
8
0
10
76.2693125
20
27.700703125
30
0
0
VERTEX
8
0
10
76.16648125
20
27.658106250000003
30
0
0
VERTEX
8
0
10
76.06108125
20
27.622331250000002
30
0
0
VERTEX
8
0
10
75.95357187500001
20
27.593521875
30
0
0
VERTEX
8
0
10
75.84440625
20
27.57180625
30
0
0
VERTEX
8
0
10
75.734053125
20
27.557278125
30
0
0
VERTEX
8
0
10
75.62298750000001
20
27.55
30
0
0
VERTEX
8
0
10
75.51168125000001
20
27.55
30
0
0
VERTEX
8
0
10
75.400615625
20
27.557278125
30
0
0
VERTEX
8
0
10
75.2902625
20
27.57180625
30
0
0
VERTEX
8
0
10
75.18109687500001
20
27.593521875
30
0
0
VERTEX
8
0
10
75.0735875
20
27.622331250000002
30
0
0
VERTEX
8
0
10
74.9681875
20
27.658106250000003
30
0
0
VERTEX
8
0
10
74.86535625
20
27.700703125
30
0
0
VERTEX
8
0
10
74.76553125000001
20
27.749931250000003
30
0
0
VERTEX
8
0
10
74.6691375
20
27.805584375000002
30
0
0
VERTEX
8
0
10
74.57659062500001
20
27.867421875
30
0
0
VERTEX
8
0
10
74.4882875
20
27.935178125
30
0
0
VERTEX
8
0
10
74.40460625
20
28.008565625000003
30
0
0
VERTEX
8
0
10
74.3259
20
28.087271875000003
30
0
0
VERTEX
8
0
10
74.25251250000001
20
28.170953125
30
0
0
VERTEX
8
0
10
74.18475625
20
28.25925625
30
0
0
VERTEX
8
0
10
74.12291875
20
28.351803125
30
0
0
VERTEX
8
0
10
74.067265625
20
28.448196875
30
0
0
VERTEX
8
0
10
74.0180375
20
28.548021875
30
0
0
VERTEX
8
0
10
73.975440625
20
28.650853125
30
0
0
VERTEX
8
0
10
73.939665625
20
28.756253125
30
0
0
VERTEX
8
0
10
73.91085625000001
20
28.8637625
30
0
0
VERTEX
8
0
10
73.88914062500001
20
28.972928125000003
30
0
0
VERTEX
8
0
10
73.8746125
20
29.083281250000002
30
0
0
VERTEX
8
0
10
73.867334375
20
29.194346875
30
0
0
VERTEX
8
0
10
73.867334375
20
29.305653125000003
30
0
0
VERTEX
8
0
10
73.8746125
20
29.41671875
30
0
0
VERTEX
8
0
10
73.88914062500001
20
29.527071875
30
0
0
VERTEX
8
0
10
73.91085625000001
20
29.6362375
30
0
0
VERTEX
8
0
10
73.939665625
20
29.743746875000003
30
0
0
VERTEX
8
0
10
73.975440625
20
29.849146875000002
30
0
0
VERTEX
8
0
10
74.0180375
20
29.951978125
30
0
0
VERTEX
8
0
10
74.067265625
20
30.051803125000003
30
0
0
VERTEX
8
0
10
74.12291875
20
30.148196875
30
0
0
VERTEX
8
0
10
74.18475625
20
30.24074375
30
0
0
VERTEX
8
0
10
74.25251250000001
20
30.329046875000003
30
0
0
VERTEX
8
0
10
74.3259
20
30.412728125
30
0
0
VERTEX
8
0
10
74.40460625
20
30.491434375
30
0
0
VERTEX
8
0
10
74.4882875
20
30.564821875
30
0
0
VERTEX
8
0
10
74.57659062500001
20
30.632578125000002
30
0
0
VERTEX
8
0
10
74.6691375
20
30.694415625
30
0
0
VERTEX
8
0
10
74.76553125000001
20
30.75006875
30
0
0
VERTEX
8
0
10
74.86535625
20
30.799296875000003
30
0
0
VERTEX
8
0
10
74.9681875
20
30.84189375
30
0
0
VERTEX
8
0
10
75.0735875
20
30.87766875
30
0
0
VERTEX
8
0
10
75.18109687500001
20
30.906478125000003
30
0
0
VERTEX
8
0
10
75.2902625
20
30.928193750000002
30
0
0
VERTEX
8
0
10
75.400615625
20
30.942721875
30
0
0
VERTEX
8
0
10
75.51168125000001
20
30.950000000000003
30
0
0
VERTEX
8
0
10
75.62298750000001
20
30.950000000000003
30
0
0
VERTEX
8
0
10
75.734053125
20
30.942721875
30
0
0
VERTEX
8
0
10
75.84440625
20
30.928193750000002
30
0
0
VERTEX
8
0
10
75.95357187500001
20
30.906478125000003
30
0
0
VERTEX
8
0
10
76.06108125
20
30.87766875
30
0
0
VERTEX
8
0
10
76.16648125
20
30.84189375
30
0
0
VERTEX
8
0
10
76.2693125
20
30.799296875000003
30
0
0
VERTEX
8
0
10
76.36913750000001
20
30.75006875
30
0
0
VERTEX
8
0
10
76.46553125
20
30.694415625
30
0
0
VERTEX
8
0
10
76.55807812500001
20
30.632578125000002
30
0
0
VERTEX
8
0
10
76.64638125
20
30.564821875
30
0
0
VERTEX
8
0
10
76.7300625
20
30.491434375
30
0
0
VERTEX
8
0
10
76.80876875
20
30.412728125
30
0
0
VERTEX
8
0
10
76.88215625000001
20
30.329046875000003
30
0
0
VERTEX
8
0
10
76.94991250000001
20
30.24074375
30
0
0
VERTEX
8
0
10
77.01175
20
30.148196875
30
0
0
VERTEX
8
0
10
77.067403125
20
30.051803125000003
30
0
0
VERTEX
8
0
10
77.11663125
20
29.951978125
30
0
0
VERTEX
8
0
10
77.159228125
20
29.849146875000002
30
0
0
VERTEX
8
0
10
77.195003125
20
29.743746875000003
30
0
0
VERTEX
8
0
10
77.22381250000001
20
29.6362375
30
0
0
VERTEX
8
0
10
77.245528125
20
29.527071875
30
0
0
VERTEX
8
0
10
77.26005625
20
29.41671875
30
0
0
VERTEX
8
0
10
77.267334375
20
29.305653125000003
30
0
0
VERTEX
8
0
10
77.267334375
20
29.194346875
30
0
0
SEQEND
0
POLYLINE
66
1
8
holes
10
0.0
20
0.0
30
0.0
70
1
0
VERTEX
8
0
10
77.267334375
20
-4.305653125
30
0
0
VERTEX
8
0
10
77.26005625
20
-4.41671875
30
0
0
VERTEX
8
0
10
77.245528125
20
-4.527071875
30
0
0
VERTEX
8
0
10
77.22381250000001
20
-4.6362375
30
0
0
VERTEX
8
0
10
77.195003125
20
-4.743746875
30
0
0
VERTEX
8
0
10
77.159228125
20
-4.849146875000001
30
0
0
VERTEX
8
0
10
77.11663125
20
-4.951978125
30
0
0
VERTEX
8
0
10
77.067403125
20
-5.051803125
30
0
0
VERTEX
8
0
10
77.01175
20
-5.148196875
30
0
0
VERTEX
8
0
10
76.94991250000001
20
-5.24074375
30
0
0
VERTEX
8
0
10
76.88215625000001
20
-5.329046875
30
0
0
VERTEX
8
0
10
76.80876875
20
-5.412728125
30
0
0
VERTEX
8
0
10
76.7300625
20
-5.491434375
30
0
0
VERTEX
8
0
10
76.64638125
20
-5.564821875000001
30
0
0
VERTEX
8
0
10
76.55807812500001
20
-5.632578125
30
0
0
VERTEX
8
0
10
76.46553125
20
-5.694415625
30
0
0
VERTEX
8
0
10
76.36913750000001
20
-5.7500687500000005
30
0
0
VERTEX
8
0
10
76.2693125
20
-5.7992968750000005
30
0
0
VERTEX
8
0
10
76.16648125
20
-5.8418937500000006
30
0
0
VERTEX
8
0
10
76.06108125
20
-5.877668750000001
30
0
0
VERTEX
8
0
10
75.95357187500001
20
-5.9064781250000005
30
0
0
VERTEX
8
0
10
75.84440625
20
-5.92819375
30
0
0
VERTEX
8
0
10
75.734053125
20
-5.942721875
30
0
0
VERTEX
8
0
10
75.62298750000001
20
-5.95
30
0
0
VERTEX
8
0
10
75.51168125000001
20
-5.95
30
0
0
VERTEX
8
0
10
75.400615625
20
-5.942721875
30
0
0
VERTEX
8
0
10
75.2902625
20
-5.92819375
30
0
0
VERTEX
8
0
10
75.18109687500001
20
-5.9064781250000005
30
0
0
VERTEX
8
0
10
75.0735875
20
-5.877668750000001
30
0
0
VERTEX
8
0
10
74.9681875
20
-5.8418937500000006
30
0
0
VERTEX
8
0
10
74.86535625
20
-5.7992968750000005
30
0
0
VERTEX
8
0
10
74.76553125000001
20
-5.7500687500000005
30
0
0
VERTEX
8
0
10
74.6691375
20
-5.694415625
30
0
0
VERTEX
8
0
10
74.57659062500001
20
-5.632578125
30
0
0
VERTEX
8
0
10
74.4882875
20
-5.564821875000001
30
0
0
VERTEX
8
0
10
74.40460625
20
-5.491434375
30
0
0
VERTEX
8
0
10
74.3259
20
-5.412728125
30
0
0
VERTEX
8
0
10
74.25251250000001
20
-5.329046875
30
0
0
VERTEX
8
0
10
74.18475625
20
-5.24074375
30
0
0
VERTEX
8
0
10
74.12291875
20
-5.148196875
30
0
0
VERTEX
8
0
10
74.067265625
20
-5.051803125
30
0
0
VERTEX
8
0
10
74.0180375
20
-4.951978125
30
0
0
VERTEX
8
0
10
73.975440625
20
-4.849146875000001
30
0
0
VERTEX
8
0
10
73.939665625
20
-4.743746875
30
0
0
VERTEX
8
0
10
73.91085625000001
20
-4.6362375
30
0
0
VERTEX
8
0
10
73.88914062500001
20
-4.527071875
30
0
0
VERTEX
8
0
10
73.8746125
20
-4.41671875
30
0
0
VERTEX
8
0
10
73.867334375
20
-4.305653125
30
0
0
VERTEX
8
0
10
73.867334375
20
-4.194346875
30
0
0
VERTEX
8
0
10
73.8746125
20
-4.083281250000001
30
0
0
VERTEX
8
0
10
73.88914062500001
20
-3.972928125
30
0
0
VERTEX
8
0
10
73.91085625000001
20
-3.8637625
30
0
0
VERTEX
8
0
10
73.939665625
20
-3.756253125
30
0
0
VERTEX
8
0
10
73.975440625
20
-3.6508531250000003
30
0
0
VERTEX
8
0
10
74.0180375
20
-3.5480218750000003
30
0
0
VERTEX
8
0
10
74.067265625
20
-3.4481968750000003
30
0
0
VERTEX
8
0
10
74.12291875
20
-3.351803125
30
0
0
VERTEX
8
0
10
74.18475625
20
-3.25925625
30
0
0
VERTEX
8
0
10
74.25251250000001
20
-3.170953125
30
0
0
VERTEX
8
0
10
74.3259
20
-3.0872718750000003
30
0
0
VERTEX
8
0
10
74.40460625
20
-3.008565625
30
0
0
VERTEX
8
0
10
74.4882875
20
-2.935178125
30
0
0
VERTEX
8
0
10
74.57659062500001
20
-2.8674218750000002
30
0
0
VERTEX
8
0
10
74.6691375
20
-2.805584375
30
0
0
VERTEX
8
0
10
74.76553125000001
20
-2.74993125
30
0
0
VERTEX
8
0
10
74.86535625
20
-2.700703125
30
0
0
VERTEX
8
0
10
74.9681875
20
-2.6581062500000003
30
0
0
VERTEX
8
0
10
75.0735875
20
-2.6223312500000002
30
0
0
VERTEX
8
0
10
75.18109687500001
20
-2.593521875
30
0
0
VERTEX
8
0
10
75.2902625
20
-2.5718062500000003
30
0
0
VERTEX
8
0
10
75.400615625
20
-2.5572781250000003
30
0
0
VERTEX
8
0
10
75.51168125000001
20
-2.5500000000000003
30
0
0
VERTEX
8
0
10
75.62298750000001
20
-2.5500000000000003
30
0
0
VERTEX
8
0
10
75.734053125
20
-2.5572781250000003
30
0
0
VERTEX
8
0
10
75.84440625
20
-2.5718062500000003
30
0
0
VERTEX
8
0
10
75.95357187500001
20
-2.593521875
30
0
0
VERTEX
8
0
10
76.06108125
20
-2.6223312500000002
30
0
0
VERTEX
8
0
10
76.16648125
20
-2.6581062500000003
30
0
0
VERTEX
8
0
10
76.2693125
20
-2.700703125
30
0
0
VERTEX
8
0
10
76.36913750000001
20
-2.74993125
30
0
0
VERTEX
8
0
10
76.46553125
20
-2.805584375
30
0
0
VERTEX
8
0
10
76.55807812500001
20
-2.8674218750000002
30
0
0
VERTEX
8
0
10
76.64638125
20
-2.935178125
30
0
0
VERTEX
8
0
10
76.7300625
20
-3.008565625
30
0
0
VERTEX
8
0
10
76.80876875
20
-3.0872718750000003
30
0
0
VERTEX
8
0
10
76.88215625000001
20
-3.170953125
30
0
0
VERTEX
8
0
10
76.94991250000001
20
-3.25925625
30
0
0
VERTEX
8
0
10
77.01175
20
-3.351803125
30
0
0
VERTEX
8
0
10
77.067403125
20
-3.4481968750000003
30
0
0
VERTEX
8
0
10
77.11663125
20
-3.5480218750000003
30
0
0
VERTEX
8
0
10
77.159228125
20
-3.6508531250000003
30
0
0
VERTEX
8
0
10
77.195003125
20
-3.756253125
30
0
0
VERTEX
8
0
10
77.22381250000001
20
-3.8637625
30
0
0
VERTEX
8
0
10
77.245528125
20
-3.972928125
30
0
0
VERTEX
8
0
10
77.26005625
20
-4.083281250000001
30
0
0
VERTEX
8
0
10
77.267334375
20
-4.194346875
30
0
0
VERTEX
8
0
10
77.267334375
20
-4.305653125
30
0
0
SEQEND
0
POLYLINE
66
1
8
holes
10
0.0
20
0.0
30
0.0
70
1
0
VERTEX
8
0
10
-73.832665625
20
-4.305653125
30
0
0
VERTEX
8
0
10
-73.83994375
20
-4.41671875
30
0
0
VERTEX
8
0
10
-73.854471875
20
-4.527071875
30
0
0
VERTEX
8
0
10
-73.8761875
20
-4.6362375
30
0
0
VERTEX
8
0
10
-73.90499687500001
20
-4.743746875
30
0
0
VERTEX
8
0
10
-73.94077187500001
20
-4.849146875000001
30
0
0
VERTEX
8
0
10
-73.98336875
20
-4.951978125
30
0
0
VERTEX
8
0
10
-74.03259687500001
20
-5.051803125
30
0
0
VERTEX
8
0
10
-74.08825
20
-5.148196875
30
0
0
VERTEX
8
0
10
-74.1500875
20
-5.24074375
30
0
0
VERTEX
8
0
10
-74.21784375
20
-5.329046875
30
0
0
VERTEX
8
0
10
-74.29123125000001
20
-5.412728125
30
0
0
VERTEX
8
0
10
-74.3699375
20
-5.491434375
30
0
0
VERTEX
8
0
10
-74.45361875
20
-5.564821875000001
30
0
0
VERTEX
8
0
10
-74.541921875
20
-5.632578125
30
0
0
VERTEX
8
0
10
-74.63446875000001
20
-5.694415625
30
0
0
VERTEX
8
0
10
-74.7308625
20
-5.7500687500000005
30
0
0
VERTEX
8
0
10
-74.83068750000001
20
-5.7992968750000005
30
0
0
VERTEX
8
0
10
-74.93351875
20
-5.8418937500000006
30
0
0
VERTEX
8
0
10
-75.03891875000001
20
-5.877668750000001
30
0
0
VERTEX
8
0
10
-75.146428125
20
-5.9064781250000005
30
0
0
VERTEX
8
0
10
-75.25559375
20
-5.92819375
30
0
0
VERTEX
8
0
10
-75.365946875
20
-5.942721875
30
0
0
VERTEX
8
0
10
-75.4770125
20
-5.95
30
0
0
VERTEX
8
0
10
-75.58831875
20
-5.95
30
0
0
VERTEX
8
0
10
-75.69938437500001
20
-5.942721875
30
0
0
VERTEX
8
0
10
-75.8097375
20
-5.92819375
30
0
0
VERTEX
8
0
10
-75.918903125
20
-5.9064781250000005
30
0
0
VERTEX
8
0
10
-76.0264125
20
-5.877668750000001
30
0
0
VERTEX
8
0
10
-76.13181250000001
20
-5.8418937500000006
30
0
0
VERTEX
8
0
10
-76.23464375
20
-5.7992968750000005
30
0
0
VERTEX
8
0
10
-76.33446875
20
-5.7500687500000005
30
0
0
VERTEX
8
0
10
-76.4308625
20
-5.694415625
30
0
0
VERTEX
8
0
10
-76.523409375
20
-5.632578125
30
0
0
VERTEX
8
0
10
-76.61171250000001
20
-5.564821875000001
30
0
0
VERTEX
8
0
10
-76.69539375000001
20
-5.491434375
30
0
0
VERTEX
8
0
10
-76.7741
20
-5.412728125
30
0
0
VERTEX
8
0
10
-76.8474875
20
-5.329046875
30
0
0
VERTEX
8
0
10
-76.91524375
20
-5.24074375
30
0
0
VERTEX
8
0
10
-76.97708125
20
-5.148196875
30
0
0
VERTEX
8
0
10
-77.032734375
20
-5.051803125
30
0
0
VERTEX
8
0
10
-77.0819625
20
-4.951978125
30
0
0
VERTEX
8
0
10
-77.124559375
20
-4.849146875000001
30
0
0
VERTEX
8
0
10
-77.160334375
20
-4.743746875
30
0
0
VERTEX
8
0
10
-77.18914375
20
-4.6362375
30
0
0
VERTEX
8
0
10
-77.210859375
20
-4.527071875
30
0
0
VERTEX
8
0
10
-77.22538750000001
20
-4.41671875
30
0
0
VERTEX
8
0
10
-77.23266562500001
20
-4.305653125
30
0
0
VERTEX
8
0
10
-77.23266562500001
20
-4.194346875
30
0
0
VERTEX
8
0
10
-77.22538750000001
20
-4.083281250000001
30
0
0
VERTEX
8
0
10
-77.210859375
20
-3.972928125
30
0
0
VERTEX
8
0
10
-77.18914375
20
-3.8637625
30
0
0
VERTEX
8
0
10
-77.160334375
20
-3.756253125
30
0
0
VERTEX
8
0
10
-77.124559375
20
-3.6508531250000003
30
0
0
VERTEX
8
0
10
-77.0819625
20
-3.5480218750000003
30
0
0
VERTEX
8
0
10
-77.032734375
20
-3.4481968750000003
30
0
0
VERTEX
8
0
10
-76.97708125
20
-3.351803125
30
0
0
VERTEX
8
0
10
-76.91524375
20
-3.25925625
30
0
0
VERTEX
8
0
10
-76.8474875
20
-3.170953125
30
0
0
VERTEX
8
0
10
-76.7741
20
-3.0872718750000003
30
0
0
VERTEX
8
0
10
-76.69539375000001
20
-3.008565625
30
0
0
VERTEX
8
0
10
-76.61171250000001
20
-2.935178125
30
0
0
VERTEX
8
0
10
-76.523409375
20
-2.8674218750000002
30
0
0
VERTEX
8
0
10
-76.4308625
20
-2.805584375
30
0
0
VERTEX
8
0
10
-76.33446875
20
-2.74993125
30
0
0
VERTEX
8
0
10
-76.23464375
20
-2.700703125
30
0
0
VERTEX
8
0
10
-76.13181250000001
20
-2.6581062500000003
30
0
0
VERTEX
8
0
10
-76.0264125
20
-2.6223312500000002
30
0
0
VERTEX
8
0
10
-75.918903125
20
-2.593521875
30
0
0
VERTEX
8
0
10
-75.8097375
20
-2.5718062500000003
30
0
0
VERTEX
8
0
10
-75.69938437500001
20
-2.5572781250000003
30
0
0
VERTEX
8
0
10
-75.58831875
20
-2.5500000000000003
30
0
0
VERTEX
8
0
10
-75.4770125
20
-2.5500000000000003
30
0
0
VERTEX
8
0
10
-75.365946875
20
-2.5572781250000003
30
0
0
VERTEX
8
0
10
-75.25559375
20
-2.5718062500000003
30
0
0
VERTEX
8
0
10
-75.146428125
20
-2.593521875
30
0
0
VERTEX
8
0
10
-75.03891875000001
20
-2.6223312500000002
30
0
0
VERTEX
8
0
10
-74.93351875
20
-2.6581062500000003
30
0
0
VERTEX
8
0
10
-74.83068750000001
20
-2.700703125
30
0
0
VERTEX
8
0
10
-74.7308625
20
-2.74993125
30
0
0
VERTEX
8
0
10
-74.63446875000001
20
-2.805584375
30
0
0
VERTEX
8
0
10
-74.541921875
20
-2.8674218750000002
30
0
0
VERTEX
8
0
10
-74.45361875
20
-2.935178125
30
0
0
VERTEX
8
0
10
-74.3699375
20
-3.008565625
30
0
0
VERTEX
8
0
10
-74.29123125000001
20
-3.0872718750000003
30
0
0
VERTEX
8
0
10
-74.21784375
20
-3.170953125
30
0
0
VERTEX
8
0
10
-74.1500875
20
-3.25925625
30
0
0
VERTEX
8
0
10
-74.08825
20
-3.351803125
30
0
0
VERTEX
8
0
10
-74.03259687500001
20
-3.4481968750000003
30
0
0
VERTEX
8
0
10
-73.98336875
20
-3.5480218750000003
30
0
0
VERTEX
8
0
10
-73.94077187500001
20
-3.6508531250000003
30
0
0
VERTEX
8
0
10
-73.90499687500001
20
-3.756253125
30
0
0
VERTEX
8
0
10
-73.8761875
20
-3.8637625
30
0
0
VERTEX
8
0
10
-73.854471875
20
-3.972928125
30
0
0
VERTEX
8
0
10
-73.83994375
20
-4.083281250000001
30
0
0
VERTEX
8
0
10
-73.832665625
20
-4.194346875
30
0
0
VERTEX
8
0
10
-73.832665625
20
-4.305653125
30
0
0
SEQEND
0
POLYLINE
66
1
8
holes
10
0.0
20
0.0
30
0.0
70
1
0
VERTEX
8
0
10
-59
20
0.541978125
30
0
0
VERTEX
8
0
10
-59.0076875
20
0.35609687500000003
30
0
0
VERTEX
8
0
10
-59.023050000000005
20
0.170690625
30
0
0
VERTEX
8
0
10
-59.046062500000005
20
-0.013921875
30
0
0
VERTEX
8
0
10
-59.076684375000006
20
-0.197428125
30
0
0
VERTEX
8
0
10
-59.1148625
20
-0.37950937500000004
30
0
0
VERTEX
8
0
10
-59.160534375000005
20
-0.559859375
30
0
0
VERTEX
8
0
10
-59.21361875
20
-0.738165625
30
0
0
VERTEX
8
0
10
-59.274025
20
-0.9141281250000001
30
0
0
VERTEX
8
0
10
-59.341653125
20
-1.08744375
30
0
0
VERTEX
8
0
10
-59.416387500000006
20
-1.257815625
30
0
0
VERTEX
8
0
10
-59.49809375
20
-1.424953125
30
0
0
VERTEX
8
0
10
-59.586640625
20
-1.588571875
30
0
0
VERTEX
8
0
10
-59.681871875000006
20
-1.7483937500000002
30
0
0
VERTEX
8
0
10
-59.783628125
20
-1.9041406250000001
30
0
0
VERTEX
8
0
10
-59.891734375000006
20
-2.05555
30
0
0
VERTEX
8
0
10
-60.006003125
20
-2.2023625
30
0
0
VERTEX
8
0
10
-60.126240625
20
-2.344328125
30
0
0
VERTEX
8
0
10
-60.252243750000005
20
-2.48120625
30
0
0
VERTEX
8
0
10
-60.38379375
20
-2.6127562500000003
30
0
0
VERTEX
8
0
10
-60.520671875000005
20
-2.7387593750000003
30
0
0
VERTEX
8
0
10
-60.6626375
20
-2.8589968750000003
30
0
0
VERTEX
8
0
10
-60.809450000000005
20
-2.9732656250000002
30
0
0
VERTEX
8
0
10
-60.960859375000005
20
-3.0813718750000003
30
0
0
VERTEX
8
0
10
-61.116606250000004
20
-3.183128125
30
0
0
VERTEX
8
0
10
-61.276428125
20
-3.278359375
30
0
0
VERTEX
8
0
10
-61.440046875
20
-3.36690625
30
0
0
VERTEX
8
0
10
-61.607184375
20
-3.4486125000000003
30
0
0
VERTEX
8
0
10
-61.77755625
20
-3.523346875
30
0
0
VERTEX
8
0
10
-61.950871875000004
20
-3.5909750000000003
30
0
0
VERTEX
8
0
10
-62.126834375
20
-3.65138125
30
0
0
VERTEX
8
0
10
-62.305140625
20
-3.704465625
30
0
0
VERTEX
8
0
10
-62.485490625000004
20
-3.7501375
30
0
0
VERTEX
8
0
10
-62.667571875
20
-3.788315625
30
0
0
VERTEX
8
0
10
-62.851078125
20
-3.8189375
30
0
0
VERTEX
8
0
10
-63.035690625
20
-3.84195
30
0
0
VERTEX
8
0
10
-63.221096875
20
-3.8573125000000004
30
0
0
VERTEX
8
0
10
-63.406978125
20
-3.865
30
0
0
VERTEX
8
0
10
-63.593021875000005
20
-3.865
30
0
0
VERTEX
8
0
10
-63.77890312500001
20
-3.8573125000000004
30
0
0
VERTEX
8
0
10
-63.964309375000006
20
-3.84195
30
0
0
VERTEX
8
0
10
-64.148921875
20
-3.8189375
30
0
0
VERTEX
8
0
10
-64.332428125
20
-3.788315625
30
0
0
VERTEX
8
0
10
-64.514509375
20
-3.7501375
30
0
0
VERTEX
8
0
10
-64.69485937500001
20
-3.704465625
30
0
0
VERTEX
8
0
10
-64.873165625
20
-3.65138125
30
0
0
VERTEX
8
0
10
-65.04912812500001
20
-3.5909750000000003
30
0
0
VERTEX
8
0
10
-65.22244375
20
-3.523346875
30
0
0
VERTEX
8
0
10
-65.392815625
20
-3.4486125000000003
30
0
0
VERTEX
8
0
10
-65.559953125
20
-3.36690625
30
0
0
VERTEX
8
0
10
-65.723571875
20
-3.278359375
30
0
0
VERTEX
8
0
10
-65.88339375
20
-3.183128125
30
0
0
VERTEX
8
0
10
-66.039140625
20
-3.0813718750000003
30
0
0
VERTEX
8
0
10
-66.19055
20
-2.9732656250000002
30
0
0
VERTEX
8
0
10
-66.3373625
20
-2.8589968750000003
30
0
0
VERTEX
8
0
10
-66.47932812500001
20
-2.7387593750000003
30
0
0
VERTEX
8
0
10
-66.61620625
20
-2.6127562500000003
30
0
0
VERTEX
8
0
10
-66.74775625000001
20
-2.48120625
30
0
0
VERTEX
8
0
10
-66.873759375
20
-2.344328125
30
0
0
VERTEX
8
0
10
-66.99399687500001
20
-2.2023625
30
0
0
VERTEX
8
0
10
-67.108265625
20
-2.05555
30
0
0
VERTEX
8
0
10
-67.21637187500001
20
-1.9041406250000001
30
0
0
VERTEX
8
0
10
-67.318128125
20
-1.7483937500000002
30
0
0
VERTEX
8
0
10
-67.413359375
20
-1.588571875
30
0
0
VERTEX
8
0
10
-67.50190625
20
-1.424953125
30
0
0
VERTEX
8
0
10
-67.5836125
20
-1.257815625
30
0
0
VERTEX
8
0
10
-67.658346875
20
-1.08744375
30
0
0
VERTEX
8
0
10
-67.725975
20
-0.9141281250000001
30
0
0
VERTEX
8
0
10
-67.78638125
20
-0.738165625
30
0
0
VERTEX
8
0
10
-67.839465625
20
-0.559859375
30
0
0
VERTEX
8
0
10
-67.8851375
20
-0.37950937500000004
30
0
0
VERTEX
8
0
10
-67.923315625
20
-0.197428125
30
0
0
VERTEX
8
0
10
-67.95393750000001
20
-0.013921875
30
0
0
VERTEX
8
0
10
-67.97695
20
0.170690625
30
0
0
VERTEX
8
0
10
-67.9923125
20
0.35609687500000003
30
0
0
VERTEX
8
0
10
-68
20
0.541978125
30
0
0
VERTEX
8
0
10
-68
20
0.728021875
30
0
0
VERTEX
8
0
10
-67.9923125
20
0.913903125
30
0
0
VERTEX
8
0
10
-67.97695
20
1.099309375
30
0
0
VERTEX
8
0
10
-67.95393750000001
20
1.283921875
30
0
0
VERTEX
8
0
10
-67.923315625
20
1.467428125
30
0
0
VERTEX
8
0
10
-67.8851375
20
1.649509375
30
0
0
VERTEX
8
0
10
-67.839465625
20
1.829859375
30
0
0
VERTEX
8
0
10
-67.78638125
20
2.008165625
30
0
0
VERTEX
8
0
10
-67.725975
20
2.184128125
30
0
0
VERTEX
8
0
10
-67.658346875
20
2.3574437500000003
30
0
0
VERTEX
8
0
10
-67.5836125
20
2.527815625
30
0
0
VERTEX
8
0
10
-67.50190625
20
2.694953125
30
0
0
VERTEX
8
0
10
-67.413359375
20
2.858571875
30
0
0
VERTEX
8
0
10
-67.318128125
20
3.01839375
30
0
0
VERTEX
8
0
10
-67.21637187500001
20
3.174140625
30
0
0
VERTEX
8
0
10
-67.108265625
20
3.3255500000000002
30
0
0
VERTEX
8
0
10
-66.99399687500001
20
3.4723625
30
0
0
VERTEX
8
0
10
-66.873759375
20
3.614328125
30
0
0
VERTEX
8
0
10
-66.74775625000001
20
3.75120625
30
0
0
VERTEX
8
0
10
-66.61620625
20
3.8827562500000004
30
0
0
VERTEX
8
0
10
-66.47932812500001
20
4.008759375
30
0
0
VERTEX
8
0
10
-66.3373625
20
4.128996875
30
0
0
VERTEX
8
0
10
-66.19055
20
4.243265625
30
0
0
VERTEX
8
0
10
-66.039140625
20
4.351371875
30
0
0
VERTEX
8
0
10
-65.88339375
20
4.453128125
30
0
0
VERTEX
8
0
10
-65.723571875
20
4.548359375
30
0
0
VERTEX
8
0
10
-65.559953125
20
4.63690625
30
0
0
VERTEX
8
0
10
-65.392815625
20
4.7186125
30
0
0
VERTEX
8
0
10
-65.22244375
20
4.793346875
30
0
0
VERTEX
8
0
10
-65.04912812500001
20
4.860975
30
0
0
VERTEX
8
0
10
-64.873165625
20
4.9213812500000005
30
0
0
VERTEX
8
0
10
-64.69485937500001
20
4.974465625000001
30
0
0
VERTEX
8
0
10
-64.514509375
20
5.020137500000001
30
0
0
VERTEX
8
0
10
-64.332428125
20
5.0583156250000005
30
0
0
VERTEX
8
0
10
-64.148921875
20
5.0889375
30
0
0
VERTEX
8
0
10
-63.964309375000006
20
5.11195
30
0
0
VERTEX
8
0
10
-63.77890312500001
20
5.1273125
30
0
0
VERTEX
8
0
10
-63.593021875000005
20
5.135000000000001
30
0
0
VERTEX
8
0
10
-63.406978125
20
5.135000000000001
30
0
0
VERTEX
8
0
10
-63.221096875
20
5.1273125
30
0
0
VERTEX
8
0
10
-63.035690625
20
5.11195
30
0
0
VERTEX
8
0
10
-62.851078125
20
5.0889375
30
0
0
VERTEX
8
0
10
-62.667571875
20
5.0583156250000005
30
0
0
VERTEX
8
0
10
-62.485490625000004
20
5.020137500000001
30
0
0
VERTEX
8
0
10
-62.305140625
20
4.974465625000001
30
0
0
VERTEX
8
0
10
-62.126834375
20
4.9213812500000005
30
0
0
VERTEX
8
0
10
-61.950871875000004
20
4.860975
30
0
0
VERTEX
8
0
10
-61.77755625
20
4.793346875
30
0
0
VERTEX
8
0
10
-61.607184375
20
4.7186125
30
0
0
VERTEX
8
0
10
-61.440046875
20
4.63690625
30
0
0
VERTEX
8
0
10
-61.276428125
20
4.548359375
30
0
0
VERTEX
8
0
10
-61.116606250000004
20
4.453128125
30
0
0
VERTEX
8
0
10
-60.960859375000005
20
4.351371875
30
0
0
VERTEX
8
0
10
-60.809450000000005
20
4.243265625
30
0
0
VERTEX
8
0
10
-60.6626375
20
4.128996875
30
0
0
VERTEX
8
0
10
-60.520671875000005
20
4.008759375
30
0
0
VERTEX
8
0
10
-60.38379375
20
3.8827562500000004
30
0
0
VERTEX
8
0
10
-60.252243750000005
20
3.75120625
30
0
0
VERTEX
8
0
10
-60.126240625
20
3.614328125
30
0
0
VERTEX
8
0
10
-60.006003125
20
3.4723625
30
0
0
VERTEX
8
0
10
-59.891734375000006
20
3.3255500000000002
30
0
0
VERTEX
8
0
10
-59.783628125
20
3.174140625
30
0
0
VERTEX
8
0
10
-59.681871875000006
20
3.01839375
30
0
0
VERTEX
8
0
10
-59.586640625
20
2.858571875
30
0
0
VERTEX
8
0
10
-59.49809375
20
2.694953125
30
0
0
VERTEX
8
0
10
-59.416387500000006
20
2.527815625
30
0
0
VERTEX
8
0
10
-59.341653125
20
2.3574437500000003
30
0
0
VERTEX
8
0
10
-59.274025
20
2.184128125
30
0
0
VERTEX
8
0
10
-59.21361875
20
2.008165625
30
0
0
VERTEX
8
0
10
-59.160534375000005
20
1.829859375
30
0
0
VERTEX
8
0
10
-59.1148625
20
1.649509375
30
0
0
VERTEX
8
0
10
-59.076684375000006
20
1.467428125
30
0
0
VERTEX
8
0
10
-59.046062500000005
20
1.283921875
30
0
0
VERTEX
8
0
10
-59.023050000000005
20
1.099309375
30
0
0
VERTEX
8
0
10
-59.0076875
20
0.913903125
30
0
0
VERTEX
8
0
10
-59
20
0.728021875
30
0
0
VERTEX
8
0
10
-59
20
0.541978125
30
0
0
SEQEND
0
POLYLINE
66
1
8
holes
10
0.0
20
0.0
30
0.0
70
1
0
VERTEX
8
0
10
-36.775
20
0.541978125
30
0
0
VERTEX
8
0
10
-36.7826875
20
0.35609687500000003
30
0
0
VERTEX
8
0
10
-36.79805
20
0.170690625
30
0
0
VERTEX
8
0
10
-36.821062500000004
20
-0.013921875
30
0
0
VERTEX
8
0
10
-36.851684375000005
20
-0.197428125
30
0
0
VERTEX
8
0
10
-36.8898625
20
-0.37950937500000004
30
0
0
VERTEX
8
0
10
-36.935534375
20
-0.559859375
30
0
0
VERTEX
8
0
10
-36.98861875
20
-0.738165625
30
0
0
VERTEX
8
0
10
-37.049025
20
-0.9141281250000001
30
0
0
VERTEX
8
0
10
-37.116653125
20
-1.08744375
30
0
0
VERTEX
8
0
10
-37.191387500000005
20
-1.257815625
30
0
0
VERTEX
8
0
10
-37.27309375
20
-1.424953125
30
0
0
VERTEX
8
0
10
-37.361640625
20
-1.588571875
30
0
0
VERTEX
8
0
10
-37.456871875000004
20
-1.7483937500000002
30
0
0
VERTEX
8
0
10
-37.558628125
20
-1.9041406250000001
30
0
0
VERTEX
8
0
10
-37.666734375000004
20
-2.05555
30
0
0
VERTEX
8
0
10
-37.781003125000005
20
-2.2023625
30
0
0
VERTEX
8
0
10
-37.901240625
20
-2.344328125
30
0
0
VERTEX
8
0
10
-38.027243750000004
20
-2.48120625
30
0
0
VERTEX
8
0
10
-38.15879375
20
-2.6127562500000003
30
0
0
VERTEX
8
0
10
-38.295671875000004
20
-2.7387593750000003
30
0
0
VERTEX
8
0
10
-38.4376375
20
-2.8589968750000003
30
0
0
VERTEX
8
0
10
-38.584450000000004
20
-2.9732656250000002
30
0
0
VERTEX
8
0
10
-38.735859375000004
20
-3.0813718750000003
30
0
0
VERTEX
8
0
10
-38.89160625
20
-3.183128125
30
0
0
VERTEX
8
0
10
-39.051428125
20
-3.278359375
30
0
0
VERTEX
8
0
10
-39.215046875
20
-3.36690625
30
0
0
VERTEX
8
0
10
-39.382184375
20
-3.4486125000000003
30
0
0
VERTEX
8
0
10
-39.55255625
20
-3.523346875
30
0
0
VERTEX
8
0
10
-39.725871875
20
-3.5909750000000003
30
0
0
VERTEX
8
0
10
-39.901834375
20
-3.65138125
30
0
0
VERTEX
8
0
10
-40.080140625
20
-3.704465625
30
0
0
VERTEX
8
0
10
-40.260490625
20
-3.7501375
30
0
0
VERTEX
8
0
10
-40.442571875
20
-3.788315625
30
0
0
VERTEX
8
0
10
-40.626078125
20
-3.8189375
30
0
0
VERTEX
8
0
10
-40.810690625
20
-3.84195
30
0
0
VERTEX
8
0
10
-40.996096875
20
-3.8573125000000004
30
0
0
VERTEX
8
0
10
-41.181978125
20
-3.865
30
0
0
VERTEX
8
0
10
-41.368021875000004
20
-3.865
30
0
0
VERTEX
8
0
10
-41.553903125000005
20
-3.8573125000000004
30
0
0
VERTEX
8
0
10
-41.739309375000005
20
-3.84195
30
0
0
VERTEX
8
0
10
-41.923921875000005
20
-3.8189375
30
0
0
VERTEX
8
0
10
-42.107428125000006
20
-3.788315625
30
0
0
VERTEX
8
0
10
-42.289509375
20
-3.7501375
30
0
0
VERTEX
8
0
10
-42.469859375
20
-3.704465625
30
0
0
VERTEX
8
0
10
-42.648165625000004
20
-3.65138125
30
0
0
VERTEX
8
0
10
-42.824128125
20
-3.5909750000000003
30
0
0
VERTEX
8
0
10
-42.99744375
20
-3.523346875
30
0
0
VERTEX
8
0
10
-43.167815625
20
-3.4486125000000003
30
0
0
VERTEX
8
0
10
-43.334953125000006
20
-3.36690625
30
0
0
VERTEX
8
0
10
-43.498571875
20
-3.278359375
30
0
0
VERTEX
8
0
10
-43.65839375
20
-3.183128125
30
0
0
VERTEX
8
0
10
-43.814140625
20
-3.0813718750000003
30
0
0
VERTEX
8
0
10
-43.96555
20
-2.9732656250000002
30
0
0
VERTEX
8
0
10
-44.1123625
20
-2.8589968750000003
30
0
0
VERTEX
8
0
10
-44.254328125
20
-2.7387593750000003
30
0
0
VERTEX
8
0
10
-44.39120625
20
-2.6127562500000003
30
0
0
VERTEX
8
0
10
-44.52275625
20
-2.48120625
30
0
0
VERTEX
8
0
10
-44.648759375000004
20
-2.344328125
30
0
0
VERTEX
8
0
10
-44.768996875
20
-2.2023625
30
0
0
VERTEX
8
0
10
-44.883265625
20
-2.05555
30
0
0
VERTEX
8
0
10
-44.991371875
20
-1.9041406250000001
30
0
0
VERTEX
8
0
10
-45.093128125
20
-1.7483937500000002
30
0
0
VERTEX
8
0
10
-45.188359375000005
20
-1.588571875
30
0
0
VERTEX
8
0
10
-45.27690625
20
-1.424953125
30
0
0
VERTEX
8
0
10
-45.3586125
20
-1.257815625
30
0
0
VERTEX
8
0
10
-45.433346875000005
20
-1.08744375
30
0
0
VERTEX
8
0
10
-45.500975000000004
20
-0.9141281250000001
30
0
0
VERTEX
8
0
10
-45.561381250000004
20
-0.738165625
30
0
0
VERTEX
8
0
10
-45.614465625
20
-0.559859375
30
0
0
VERTEX
8
0
10
-45.660137500000005
20
-0.37950937500000004
30
0
0
VERTEX
8
0
10
-45.698315625
20
-0.197428125
30
0
0
VERTEX
8
0
10
-45.7289375
20
-0.013921875
30
0
0
VERTEX
8
0
10
-45.75195
20
0.170690625
30
0
0
VERTEX
8
0
10
-45.7673125
20
0.35609687500000003
30
0
0
VERTEX
8
0
10
-45.775000000000006
20
0.541978125
30
0
0
VERTEX
8
0
10
-45.775000000000006
20
0.728021875
30
0
0
VERTEX
8
0
10
-45.7673125
20
0.913903125
30
0
0
VERTEX
8
0
10
-45.75195
20
1.099309375
30
0
0
VERTEX
8
0
10
-45.7289375
20
1.283921875
30
0
0
VERTEX
8
0
10
-45.698315625
20
1.467428125
30
0
0
VERTEX
8
0
10
-45.660137500000005
20
1.649509375
30
0
0
VERTEX
8
0
10
-45.614465625
20
1.829859375
30
0
0
VERTEX
8
0
10
-45.561381250000004
20
2.008165625
30
0
0
VERTEX
8
0
10
-45.500975000000004
20
2.184128125
30
0
0
VERTEX
8
0
10
-45.433346875000005
20
2.3574437500000003
30
0
0
VERTEX
8
0
10
-45.3586125
20
2.527815625
30
0
0
VERTEX
8
0
10
-45.27690625
20
2.694953125
30
0
0
VERTEX
8
0
10
-45.188359375000005
20
2.858571875
30
0
0
VERTEX
8
0
10
-45.093128125
20
3.01839375
30
0
0
VERTEX
8
0
10
-44.991371875
20
3.174140625
30
0
0
VERTEX
8
0
10
-44.883265625
20
3.3255500000000002
30
0
0
VERTEX
8
0
10
-44.768996875
20
3.4723625
30
0
0
VERTEX
8
0
10
-44.648759375000004
20
3.614328125
30
0
0
VERTEX
8
0
10
-44.52275625
20
3.75120625
30
0
0
VERTEX
8
0
10
-44.39120625
20
3.8827562500000004
30
0
0
VERTEX
8
0
10
-44.254328125
20
4.008759375
30
0
0
VERTEX
8
0
10
-44.1123625
20
4.128996875
30
0
0
VERTEX
8
0
10
-43.96555
20
4.243265625
30
0
0
VERTEX
8
0
10
-43.814140625
20
4.351371875
30
0
0
VERTEX
8
0
10
-43.65839375
20
4.453128125
30
0
0
VERTEX
8
0
10
-43.498571875
20
4.548359375
30
0
0
VERTEX
8
0
10
-43.334953125000006
20
4.63690625
30
0
0
VERTEX
8
0
10
-43.167815625
20
4.7186125
30
0
0
VERTEX
8
0
10
-42.99744375
20
4.793346875
30
0
0
VERTEX
8
0
10
-42.824128125
20
4.860975
30
0
0
VERTEX
8
0
10
-42.648165625000004
20
4.9213812500000005
30
0
0
VERTEX
8
0
10
-42.469859375
20
4.974465625000001
30
0
0
VERTEX
8
0
10
-42.289509375
20
5.020137500000001
30
0
0
VERTEX
8
0
10
-42.107428125000006
20
5.0583156250000005
30
0
0
VERTEX
8
0
10
-41.923921875000005
20
5.0889375
30
0
0
VERTEX
8
0
10
-41.739309375000005
20
5.11195
30
0
0
VERTEX
8
0
10
-41.553903125000005
20
5.1273125
30
0
0
VERTEX
8
0
10
-41.368021875000004
20
5.135000000000001
30
0
0
VERTEX
8
0
10
-41.181978125
20
5.135000000000001
30
0
0
VERTEX
8
0
10
-40.996096875
20
5.1273125
30
0
0
VERTEX
8
0
10
-40.810690625
20
5.11195
30
0
0
VERTEX
8
0
10
-40.626078125
20
5.0889375
30
0
0
VERTEX
8
0
10
-40.442571875
20
5.0583156250000005
30
0
0
VERTEX
8
0
10
-40.260490625
20
5.020137500000001
30
0
0
VERTEX
8
0
10
-40.080140625
20
4.974465625000001
30
0
0
VERTEX
8
0
10
-39.901834375
20
4.9213812500000005
30
0
0
VERTEX
8
0
10
-39.725871875
20
4.860975
30
0
0
VERTEX
8
0
10
-39.55255625
20
4.793346875
30
0
0
VERTEX
8
0
10
-39.382184375
20
4.7186125
30
0
0
VERTEX
8
0
10
-39.215046875
20
4.63690625
30
0
0
VERTEX
8
0
10
-39.051428125
20
4.548359375
30
0
0
VERTEX
8
0
10
-38.89160625
20
4.453128125
30
0
0
VERTEX
8
0
10
-38.735859375000004
20
4.351371875
30
0
0
VERTEX
8
0
10
-38.584450000000004
20
4.243265625
30
0
0
VERTEX
8
0
10
-38.4376375
20
4.128996875
30
0
0
VERTEX
8
0
10
-38.295671875000004
20
4.008759375
30
0
0
VERTEX
8
0
10
-38.15879375
20
3.8827562500000004
30
0
0
VERTEX
8
0
10
-38.027243750000004
20
3.75120625
30
0
0
VERTEX
8
0
10
-37.901240625
20
3.614328125
30
0
0
VERTEX
8
0
10
-37.781003125000005
20
3.4723625
30
0
0
VERTEX
8
0
10
-37.666734375000004
20
3.3255500000000002
30
0
0
VERTEX
8
0
10
-37.558628125
20
3.174140625
30
0
0
VERTEX
8
0
10
-37.456871875000004
20
3.01839375
30
0
0
VERTEX
8
0
10
-37.361640625
20
2.858571875
30
0
0
VERTEX
8
0
10
-37.27309375
20
2.694953125
30
0
0
VERTEX
8
0
10
-37.191387500000005
20
2.527815625
30
0
0
VERTEX
8
0
10
-37.116653125
20
2.3574437500000003
30
0
0
VERTEX
8
0
10
-37.049025
20
2.184128125
30
0
0
VERTEX
8
0
10
-36.98861875
20
2.008165625
30
0
0
VERTEX
8
0
10
-36.935534375
20
1.829859375
30
0
0
VERTEX
8
0
10
-36.8898625
20
1.649509375
30
0
0
VERTEX
8
0
10
-36.851684375000005
20
1.467428125
30
0
0
VERTEX
8
0
10
-36.821062500000004
20
1.283921875
30
0
0
VERTEX
8
0
10
-36.79805
20
1.099309375
30
0
0
VERTEX
8
0
10
-36.7826875
20
0.913903125
30
0
0
VERTEX
8
0
10
-36.775
20
0.728021875
30
0
0
VERTEX
8
0
10
-36.775
20
0.541978125
30
0
0
SEQEND
0
POLYLINE
66
1
8
holes
10
0.0
20
0.0
30
0.0
70
1
0
VERTEX
8
0
10
-14.55
20
0.541978125
30
0
0
VERTEX
8
0
10
-14.5576875
20
0.35609687500000003
30
0
0
VERTEX
8
0
10
-14.57305
20
0.170690625
30
0
0
VERTEX
8
0
10
-14.5960625
20
-0.013921875
30
0
0
VERTEX
8
0
10
-14.626684375
20
-0.197428125
30
0
0
VERTEX
8
0
10
-14.6648625
20
-0.37950937500000004
30
0
0
VERTEX
8
0
10
-14.710534375
20
-0.559859375
30
0
0
VERTEX
8
0
10
-14.763618750000001
20
-0.738165625
30
0
0
VERTEX
8
0
10
-14.824025
20
-0.9141281250000001
30
0
0
VERTEX
8
0
10
-14.891653125000001
20
-1.08744375
30
0
0
VERTEX
8
0
10
-14.966387500000002
20
-1.257815625
30
0
0
VERTEX
8
0
10
-15.048093750000001
20
-1.424953125
30
0
0
VERTEX
8
0
10
-15.136640625
20
-1.588571875
30
0
0
VERTEX
8
0
10
-15.231871875000001
20
-1.7483937500000002
30
0
0
VERTEX
8
0
10
-15.333628125
20
-1.9041406250000001
30
0
0
VERTEX
8
0
10
-15.441734375000001
20
-2.05555
30
0
0
VERTEX
8
0
10
-15.556003125
20
-2.2023625
30
0
0
VERTEX
8
0
10
-15.676240625
20
-2.344328125
30
0
0
VERTEX
8
0
10
-15.80224375
20
-2.48120625
30
0
0
VERTEX
8
0
10
-15.933793750000001
20
-2.6127562500000003
30
0
0
VERTEX
8
0
10
-16.070671875000002
20
-2.7387593750000003
30
0
0
VERTEX
8
0
10
-16.2126375
20
-2.8589968750000003
30
0
0
VERTEX
8
0
10
-16.359450000000002
20
-2.9732656250000002
30
0
0
VERTEX
8
0
10
-16.510859375000003
20
-3.0813718750000003
30
0
0
VERTEX
8
0
10
-16.66660625
20
-3.183128125
30
0
0
VERTEX
8
0
10
-16.826428125
20
-3.278359375
30
0
0
VERTEX
8
0
10
-16.990046875
20
-3.36690625
30
0
0
VERTEX
8
0
10
-17.157184375
20
-3.4486125000000003
30
0
0
VERTEX
8
0
10
-17.32755625
20
-3.523346875
30
0
0
VERTEX
8
0
10
-17.500871875
20
-3.5909750000000003
30
0
0
VERTEX
8
0
10
-17.676834375000002
20
-3.65138125
30
0
0
VERTEX
8
0
10
-17.855140625
20
-3.704465625
30
0
0
VERTEX
8
0
10
-18.035490625
20
-3.7501375
30
0
0
VERTEX
8
0
10
-18.217571875
20
-3.788315625
30
0
0
VERTEX
8
0
10
-18.401078125
20
-3.8189375
30
0
0
VERTEX
8
0
10
-18.585690625
20
-3.84195
30
0
0
VERTEX
8
0
10
-18.771096875
20
-3.8573125000000004
30
0
0
VERTEX
8
0
10
-18.956978125000003
20
-3.865
30
0
0
VERTEX
8
0
10
-19.143021875000002
20
-3.865
30
0
0
VERTEX
8
0
10
-19.328903125
20
-3.8573125000000004
30
0
0
VERTEX
8
0
10
-19.514309375
20
-3.84195
30
0
0
VERTEX
8
0
10
-19.698921875
20
-3.8189375
30
0
0
VERTEX
8
0
10
-19.882428125
20
-3.788315625
30
0
0
VERTEX
8
0
10
-20.064509375
20
-3.7501375
30
0
0
VERTEX
8
0
10
-20.244859375
20
-3.704465625
30
0
0
VERTEX
8
0
10
-20.423165625
20
-3.65138125
30
0
0
VERTEX
8
0
10
-20.599128125
20
-3.5909750000000003
30
0
0
VERTEX
8
0
10
-20.77244375
20
-3.523346875
30
0
0
VERTEX
8
0
10
-20.942815625
20
-3.4486125000000003
30
0
0
VERTEX
8
0
10
-21.109953125
20
-3.36690625
30
0
0
VERTEX
8
0
10
-21.273571875000002
20
-3.278359375
30
0
0
VERTEX
8
0
10
-21.43339375
20
-3.183128125
30
0
0
VERTEX
8
0
10
-21.589140625000002
20
-3.0813718750000003
30
0
0
VERTEX
8
0
10
-21.740550000000002
20
-2.9732656250000002
30
0
0
VERTEX
8
0
10
-21.887362500000002
20
-2.8589968750000003
30
0
0
VERTEX
8
0
10
-22.029328125000003
20
-2.7387593750000003
30
0
0
VERTEX
8
0
10
-22.166206250000002
20
-2.6127562500000003
30
0
0
VERTEX
8
0
10
-22.297756250000003
20
-2.48120625
30
0
0
VERTEX
8
0
10
-22.423759375
20
-2.344328125
30
0
0
VERTEX
8
0
10
-22.543996875
20
-2.2023625
30
0
0
VERTEX
8
0
10
-22.658265625000002
20
-2.05555
30
0
0
VERTEX
8
0
10
-22.766371875
20
-1.9041406250000001
30
0
0
VERTEX
8
0
10
-22.868128125000002
20
-1.7483937500000002
30
0
0
VERTEX
8
0
10
-22.963359375
20
-1.588571875
30
0
0
VERTEX
8
0
10
-23.051906250000002
20
-1.424953125
30
0
0
VERTEX
8
0
10
-23.1336125
20
-1.257815625
30
0
0
VERTEX
8
0
10
-23.208346875
20
-1.08744375
30
0
0
VERTEX
8
0
10
-23.275975000000003
20
-0.9141281250000001
30
0
0
VERTEX
8
0
10
-23.336381250000002
20
-0.738165625
30
0
0
VERTEX
8
0
10
-23.389465625
20
-0.559859375
30
0
0
VERTEX
8
0
10
-23.4351375
20
-0.37950937500000004
30
0
0
VERTEX
8
0
10
-23.473315625
20
-0.197428125
30
0
0
VERTEX
8
0
10
-23.503937500000003
20
-0.013921875
30
0
0
VERTEX
8
0
10
-23.52695
20
0.170690625
30
0
0
VERTEX
8
0
10
-23.5423125
20
0.35609687500000003
30
0
0
VERTEX
8
0
10
-23.55
20
0.541978125
30
0
0
VERTEX
8
0
10
-23.55
20
0.728021875
30
0
0
VERTEX
8
0
10
-23.5423125
20
0.913903125
30
0
0
VERTEX
8
0
10
-23.52695
20
1.099309375
30
0
0
VERTEX
8
0
10
-23.503937500000003
20
1.283921875
30
0
0
VERTEX
8
0
10
-23.473315625
20
1.467428125
30
0
0
VERTEX
8
0
10
-23.4351375
20
1.649509375
30
0
0
VERTEX
8
0
10
-23.389465625
20
1.829859375
30
0
0
VERTEX
8
0
10
-23.336381250000002
20
2.008165625
30
0
0
VERTEX
8
0
10
-23.275975000000003
20
2.184128125
30
0
0
VERTEX
8
0
10
-23.208346875
20
2.3574437500000003
30
0
0
VERTEX
8
0
10
-23.1336125
20
2.527815625
30
0
0
VERTEX
8
0
10
-23.051906250000002
20
2.694953125
30
0
0
VERTEX
8
0
10
-22.963359375
20
2.858571875
30
0
0
VERTEX
8
0
10
-22.868128125000002
20
3.01839375
30
0
0
VERTEX
8
0
10
-22.766371875
20
3.174140625
30
0
0
VERTEX
8
0
10
-22.658265625000002
20
3.3255500000000002
30
0
0
VERTEX
8
0
10
-22.543996875
20
3.4723625
30
0
0
VERTEX
8
0
10
-22.423759375
20
3.614328125
30
0
0
VERTEX
8
0
10
-22.297756250000003
20
3.75120625
30
0
0
VERTEX
8
0
10
-22.166206250000002
20
3.8827562500000004
30
0
0
VERTEX
8
0
10
-22.029328125000003
20
4.008759375
30
0
0
VERTEX
8
0
10
-21.887362500000002
20
4.128996875
30
0
0
VERTEX
8
0
10
-21.740550000000002
20
4.243265625
30
0
0
VERTEX
8
0
10
-21.589140625000002
20
4.351371875
30
0
0
VERTEX
8
0
10
-21.43339375
20
4.453128125
30
0
0
VERTEX
8
0
10
-21.273571875000002
20
4.548359375
30
0
0
VERTEX
8
0
10
-21.109953125
20
4.63690625
30
0
0
VERTEX
8
0
10
-20.942815625
20
4.7186125
30
0
0
VERTEX
8
0
10
-20.77244375
20
4.793346875
30
0
0
VERTEX
8
0
10
-20.599128125
20
4.860975
30
0
0
VERTEX
8
0
10
-20.423165625
20
4.9213812500000005
30
0
0
VERTEX
8
0
10
-20.244859375
20
4.974465625000001
30
0
0
VERTEX
8
0
10
-20.064509375
20
5.020137500000001
30
0
0
VERTEX
8
0
10
-19.882428125
20
5.0583156250000005
30
0
0
VERTEX
8
0
10
-19.698921875
20
5.0889375
30
0
0
VERTEX
8
0
10
-19.514309375
20
5.11195
30
0
0
VERTEX
8
0
10
-19.328903125
20
5.1273125
30
0
0
VERTEX
8
0
10
-19.143021875000002
20
5.135000000000001
30
0
0
VERTEX
8
0
10
-18.956978125000003
20
5.135000000000001
30
0
0
VERTEX
8
0
10
-18.771096875
20
5.1273125
30
0
0
VERTEX
8
0
10
-18.585690625
20
5.11195
30
0
0
VERTEX
8
0
10
-18.401078125
20
5.0889375
30
0
0
VERTEX
8
0
10
-18.217571875
20
5.0583156250000005
30
0
0
VERTEX
8
0
10
-18.035490625
20
5.020137500000001
30
0
0
VERTEX
8
0
10
-17.855140625
20
4.974465625000001
30
0
0
VERTEX
8
0
10
-17.676834375000002
20
4.9213812500000005
30
0
0
VERTEX
8
0
10
-17.500871875
20
4.860975
30
0
0
VERTEX
8
0
10
-17.32755625
20
4.793346875
30
0
0
VERTEX
8
0
10
-17.157184375
20
4.7186125
30
0
0
VERTEX
8
0
10
-16.990046875
20
4.63690625
30
0
0
VERTEX
8
0
10
-16.826428125
20
4.548359375
30
0
0
VERTEX
8
0
10
-16.66660625
20
4.453128125
30
0
0
VERTEX
8
0
10
-16.510859375000003
20
4.351371875
30
0
0
VERTEX
8
0
10
-16.359450000000002
20
4.243265625
30
0
0
VERTEX
8
0
10
-16.2126375
20
4.128996875
30
0
0
VERTEX
8
0
10
-16.070671875000002
20
4.008759375
30
0
0
VERTEX
8
0
10
-15.933793750000001
20
3.8827562500000004
30
0
0
VERTEX
8
0
10
-15.80224375
20
3.75120625
30
0
0
VERTEX
8
0
10
-15.676240625
20
3.614328125
30
0
0
VERTEX
8
0
10
-15.556003125
20
3.4723625
30
0
0
VERTEX
8
0
10
-15.441734375000001
20
3.3255500000000002
30
0
0
VERTEX
8
0
10
-15.333628125
20
3.174140625
30
0
0
VERTEX
8
0
10
-15.231871875000001
20
3.01839375
30
0
0
VERTEX
8
0
10
-15.136640625
20
2.858571875
30
0
0
VERTEX
8
0
10
-15.048093750000001
20
2.694953125
30
0
0
VERTEX
8
0
10
-14.966387500000002
20
2.527815625
30
0
0
VERTEX
8
0
10
-14.891653125000001
20
2.3574437500000003
30
0
0
VERTEX
8
0
10
-14.824025
20
2.184128125
30
0
0
VERTEX
8
0
10
-14.763618750000001
20
2.008165625
30
0
0
VERTEX
8
0
10
-14.710534375
20
1.829859375
30
0
0
VERTEX
8
0
10
-14.6648625
20
1.649509375
30
0
0
VERTEX
8
0
10
-14.626684375
20
1.467428125
30
0
0
VERTEX
8
0
10
-14.5960625
20
1.283921875
30
0
0
VERTEX
8
0
10
-14.57305
20
1.099309375
30
0
0
VERTEX
8
0
10
-14.5576875
20
0.913903125
30
0
0
VERTEX
8
0
10
-14.55
20
0.728021875
30
0
0
VERTEX
8
0
10
-14.55
20
0.541978125
30
0
0
SEQEND
0
POLYLINE
66
1
8
1_copper
10
0.0
20
0.0
30
0.0
70
1
0
VERTEX
8
0
10
75.551871875
20
-7.399765625000001
30
0
0
VERTEX
8
0
10
75.556540625
20
-7.399784375
30
0
0
VERTEX
8
0
10
75.95464375
20
-7.373690625
30
0
0
VERTEX
8
0
10
75.957428125
20
-7.373153125
30
0
0
VERTEX
8
0
10
75.960290625
20
-7.3731625
30
0
0
VERTEX
8
0
10
75.973984375
20
-7.370500000000001
30
0
0
VERTEX
8
0
10
76.74306250000001
20
-7.1644250000000005
30
0
0
VERTEX
8
0
10
76.74873125
20
-7.162115625
30
0
0
VERTEX
8
0
10
76.75464062500001
20
-7.160550000000001
30
0
0
VERTEX
8
0
10
76.76515625
20
-7.155421875
30
0
0
VERTEX
8
0
10
76.76616875
20
-7.155009375000001
30
0
0
VERTEX
8
0
10
76.766490625
20
-7.154771875000001
30
0
0
VERTEX
8
0
10
76.76718125000001
20
-7.154434375
30
0
0
VERTEX
8
0
10
77.456721875
20
-6.756331250000001
30
0
0
VERTEX
8
0
10
77.46158750000001
20
-6.752640625000001
30
0
0
VERTEX
8
0
10
77.466903125
20
-6.749593750000001
30
0
0
VERTEX
8
0
10
77.4757
20
-6.74194375
30
0
0
VERTEX
8
0
10
77.47660625
20
-6.74125625
30
0
0
VERTEX
8
0
10
77.47686875000001
20
-6.740928125
30
0
0
VERTEX
8
0
10
77.47743125000001
20
-6.7404375000000005
30
0
0
VERTEX
8
0
10
78.04043750000001
20
-6.177431250000001
30
0
0
VERTEX
8
0
10
78.0441875
20
-6.17260625
30
0
0
VERTEX
8
0
10
78.048528125
20
-6.1682875
30
0
0
VERTEX
8
0
10
78.0550625
20
-6.1586
30
0
0
VERTEX
8
0
10
78.05574375
20
-6.157725
30
0
0
VERTEX
8
0
10
78.05590625
20
-6.157353125
30
0
0
VERTEX
8
0
10
78.05633125
20
-6.156721875000001
30
0
0
VERTEX
8
0
10
78.454434375
20
-5.46718125
30
0
0
VERTEX
8
0
10
78.45680625
20
-5.461546875000001
30
0
0
VERTEX
8
0
10
78.45988125000001
20
-5.45625625
30
0
0
VERTEX
8
0
10
78.46369375
20
-5.445190625
30
0
0
VERTEX
8
0
10
78.464115625
20
-5.444184375
30
0
0
VERTEX
8
0
10
78.464175
20
-5.443790625
30
0
0
VERTEX
8
0
10
78.464425
20
-5.4430625
30
0
0
VERTEX
8
0
10
78.6705
20
-4.673984375
30
0
0
VERTEX
8
0
10
78.670890625
20
-4.671153125
30
0
0
VERTEX
8
0
10
78.67180937500001
20
-4.668468750000001
30
0
0
VERTEX
8
0
10
78.673690625
20
-4.65464375
30
0
0
VERTEX
8
0
10
78.68336875
20
-4.506990625
30
0
0
VERTEX
8
0
10
78.683371875
20
-4.506975000000001
30
0
0
VERTEX
8
0
10
78.683371875
20
-4.50695625
30
0
0
VERTEX
8
0
10
78.696478125
20
-4.30699375
30
0
0
VERTEX
8
0
10
78.69648125
20
-4.306975
30
0
0
VERTEX
8
0
10
78.69648125
20
-4.30695625
30
0
0
VERTEX
8
0
10
78.69978437500001
20
-4.2565437500000005
30
0
0
VERTEX
8
0
10
78.699671875
20
-4.25468125
30
0
0
VERTEX
8
0
10
78.7
20
-4.250003125
30
0
0
VERTEX
8
0
10
78.7
20
29.25
30
0
0
VERTEX
8
0
10
78.699765625
20
29.251871875000003
30
0
0
VERTEX
8
0
10
78.69978437500001
20
29.256540625000003
30
0
0
VERTEX
8
0
10
78.673690625
20
29.65464375
30
0
0
VERTEX
8
0
10
78.673153125
20
29.657428125000003
30
0
0
VERTEX
8
0
10
78.6731625
20
29.660290625000002
30
0
0
VERTEX
8
0
10
78.6705
20
29.673984375
30
0
0
VERTEX
8
0
10
78.464425
20
30.4430625
30
0
0
VERTEX
8
0
10
78.46211562500001
20
30.44873125
30
0
0
VERTEX
8
0
10
78.46055
20
30.454640625
30
0
0
VERTEX
8
0
10
78.455421875
20
30.46515625
30
0
0
VERTEX
8
0
10
78.455009375
20
30.46616875
30
0
0
VERTEX
8
0
10
78.454771875
20
30.466490625000002
30
0
0
VERTEX
8
0
10
78.454434375
20
30.467181250000003
30
0
0
VERTEX
8
0
10
78.05633125
20
31.156721875000002
30
0
0
VERTEX
8
0
10
78.05264062500001
20
31.161587500000003
30
0
0
VERTEX
8
0
10
78.04959375
20
31.166903125
30
0
0
VERTEX
8
0
10
78.04194375
20
31.175700000000003
30
0
0
VERTEX
8
0
10
78.04125625
20
31.176606250000003
30
0
0
VERTEX
8
0
10
78.04092812500001
20
31.17686875
30
0
0
VERTEX
8
0
10
78.04043750000001
20
31.17743125
30
0
0
VERTEX
8
0
10
77.47743125000001
20
31.740437500000002
30
0
0
VERTEX
8
0
10
77.47260625
20
31.744187500000002
30
0
0
VERTEX
8
0
10
77.4682875
20
31.748528125
30
0
0
VERTEX
8
0
10
77.4586
20
31.7550625
30
0
0
VERTEX
8
0
10
77.45772500000001
20
31.75574375
30
0
0
VERTEX
8
0
10
77.457353125
20
31.755906250000002
30
0
0
VERTEX
8
0
10
77.456721875
20
31.756331250000002
30
0
0
VERTEX
8
0
10
76.76718125000001
20
32.154434375
30
0
0
VERTEX
8
0
10
76.76154687500001
20
32.15680625
30
0
0
VERTEX
8
0
10
76.75625625
20
32.159881250000005
30
0
0
VERTEX
8
0
10
76.745190625
20
32.16369375
30
0
0
VERTEX
8
0
10
76.744184375
20
32.164115625
30
0
0
VERTEX
8
0
10
76.743790625
20
32.164175
30
0
0
VERTEX
8
0
10
76.74306250000001
20
32.164425
30
0
0
VERTEX
8
0
10
75.973984375
20
32.3705
30
0
0
VERTEX
8
0
10
75.971153125
20
32.370890625
30
0
0
VERTEX
8
0
10
75.96846875
20
32.371809375
30
0
0
VERTEX
8
0
10
75.95464375
20
32.373690625
30
0
0
VERTEX
8
0
10
75.55654375
20
32.399784375
30
0
0
VERTEX
8
0
10
75.55468125
20
32.399671875
30
0
0
VERTEX
8
0
10
75.550003125
20
32.4
30
0
0
VERTEX
8
0
10
-75.55
20
32.4
30
0
0
VERTEX
8
0
10
-75.551871875
20
32.399765625
30
0
0
VERTEX
8
0
10
-75.556540625
20
32.399784375
30
0
0
VERTEX
8
0
10
-75.95464375
20
32.373690625
30
0
0
VERTEX
8
0
10
-75.957428125
20
32.373153125
30
0
0
VERTEX
8
0
10
-75.960290625
20
32.3731625
30
0
0
VERTEX
8
0
10
-75.973984375
20
32.3705
30
0
0
VERTEX
8
0
10
-76.74306250000001
20
32.164425
30
0
0
VERTEX
8
0
10
-76.74873125
20
32.162115625
30
0
0
VERTEX
8
0
10
-76.75464062500001
20
32.16055
30
0
0
VERTEX
8
0
10
-76.76515625
20
32.155421875
30
0
0
VERTEX
8
0
10
-76.76616875
20
32.155009375
30
0
0
VERTEX
8
0
10
-76.766490625
20
32.154771875
30
0
0
VERTEX
8
0
10
-76.76718125000001
20
32.154434375
30
0
0
VERTEX
8
0
10
-77.456721875
20
31.756331250000002
30
0
0
VERTEX
8
0
10
-77.46158750000001
20
31.752640625
30
0
0
VERTEX
8
0
10
-77.466903125
20
31.749593750000003
30
0
0
VERTEX
8
0
10
-77.4757
20
31.74194375
30
0
0
VERTEX
8
0
10
-77.47660625
20
31.741256250000003
30
0
0
VERTEX
8
0
10
-77.47686875000001
20
31.740928125
30
0
0
VERTEX
8
0
10
-77.47743125000001
20
31.740437500000002
30
0
0
VERTEX
8
0
10
-78.04043750000001
20
31.17743125
30
0
0
VERTEX
8
0
10
-78.0441875
20
31.17260625
30
0
0
VERTEX
8
0
10
-78.048528125
20
31.1682875
30
0
0
VERTEX
8
0
10
-78.0550625
20
31.1586
30
0
0
VERTEX
8
0
10
-78.05574375
20
31.157725000000003
30
0
0
VERTEX
8
0
10
-78.05590625
20
31.157353125
30
0
0
VERTEX
8
0
10
-78.05633125
20
31.156721875000002
30
0
0
VERTEX
8
0
10
-78.454434375
20
30.467181250000003
30
0
0
VERTEX
8
0
10
-78.45680625
20
30.461546875
30
0
0
VERTEX
8
0
10
-78.45988125000001
20
30.456256250000003
30
0
0
VERTEX
8
0
10
-78.46369375
20
30.445190625000002
30
0
0
VERTEX
8
0
10
-78.464115625
20
30.444184375000003
30
0
0
VERTEX
8
0
10
-78.464175
20
30.443790625000002
30
0
0
VERTEX
8
0
10
-78.464425
20
30.4430625
30
0
0
VERTEX
8
0
10
-78.6705
20
29.673984375
30
0
0
VERTEX
8
0
10
-78.6708875
20
29.67116875
30
0
0
VERTEX
8
0
10
-78.6718125
20
29.668468750000002
30
0
0
VERTEX
8
0
10
-78.67356562500001
20
29.655584375
30
0
0
VERTEX
8
0
10
-78.673665625
20
29.655078125000003
30
0
0
VERTEX
8
0
10
-78.67365625000001
20
29.654915625
30
0
0
VERTEX
8
0
10
-78.67369375
20
29.65464375
30
0
0
VERTEX
8
0
10
-78.68336875
20
29.507
30
0
0
VERTEX
8
0
10
-78.683375
20
29.506975
30
0
0
VERTEX
8
0
10
-78.683371875
20
29.506946875
30
0
0
VERTEX
8
0
10
-78.689925
20
29.406996875
30
0
0
VERTEX
8
0
10
-78.68992812500001
20
29.406975000000003
30
0
0
VERTEX
8
0
10
-78.68992812500001
20
29.406953125
30
0
0
VERTEX
8
0
10
-78.696478125
20
29.306990625
30
0
0
VERTEX
8
0
10
-78.69648125
20
29.306975
30
0
0
VERTEX
8
0
10
-78.69648125
20
29.306956250000002
30
0
0
VERTEX
8
0
10
-78.69978437500001
20
29.256540625000003
30
0
0
VERTEX
8
0
10
-78.699671875
20
29.254678125
30
0
0
VERTEX
8
0
10
-78.7
20
29.25
30
0
0
VERTEX
8
0
10
-78.7
20
-4.25
30
0
0
VERTEX
8
0
10
-78.699765625
20
-4.251871875
30
0
0
VERTEX
8
0
10
-78.69978437500001
20
-4.256540625
30
0
0
VERTEX
8
0
10
-78.673690625
20
-4.65464375
30
0
0
VERTEX
8
0
10
-78.673153125
20
-4.657428125
30
0
0
VERTEX
8
0
10
-78.6731625
20
-4.660290625
30
0
0
VERTEX
8
0
10
-78.6705
20
-4.673984375
30
0
0
VERTEX
8
0
10
-78.464425
20
-5.4430625
30
0
0
VERTEX
8
0
10
-78.46211562500001
20
-5.448731250000001
30
0
0
VERTEX
8
0
10
-78.46055
20
-5.454640625000001
30
0
0
VERTEX
8
0
10
-78.455421875
20
-5.465156250000001
30
0
0
VERTEX
8
0
10
-78.455009375
20
-5.4661687500000005
30
0
0
VERTEX
8
0
10
-78.454771875
20
-5.4664906250000005
30
0
0
VERTEX
8
0
10
-78.454434375
20
-5.46718125
30
0
0
VERTEX
8
0
10
-78.05633125
20
-6.156721875000001
30
0
0
VERTEX
8
0
10
-78.05264062500001
20
-6.1615906250000005
30
0
0
VERTEX
8
0
10
-78.04959375
20
-6.166903125
30
0
0
VERTEX
8
0
10
-78.04194375
20
-6.1757
30
0
0
VERTEX
8
0
10
-78.04125625
20
-6.17660625
30
0
0
VERTEX
8
0
10
-78.04092812500001
20
-6.176868750000001
30
0
0
VERTEX
8
0
10
-78.04043750000001
20
-6.177431250000001
30
0
0
VERTEX
8
0
10
-77.477434375
20
-6.7404375000000005
30
0
0
VERTEX
8
0
10
-77.472609375
20
-6.744187500000001
30
0
0
VERTEX
8
0
10
-77.46829062500001
20
-6.748528125
30
0
0
VERTEX
8
0
10
-77.45860312500001
20
-6.7550625
30
0
0
VERTEX
8
0
10
-77.457728125
20
-6.755743750000001
30
0
0
VERTEX
8
0
10
-77.45735625
20
-6.755906250000001
30
0
0
VERTEX
8
0
10
-77.456725
20
-6.756331250000001
30
0
0
VERTEX
8
0
10
-76.767184375
20
-7.154434375
30
0
0
VERTEX
8
0
10
-76.76155
20
-7.156806250000001
30
0
0
VERTEX
8
0
10
-76.756259375
20
-7.159881250000001
30
0
0
VERTEX
8
0
10
-76.74519375
20
-7.16369375
30
0
0
VERTEX
8
0
10
-76.74418750000001
20
-7.164115625
30
0
0
VERTEX
8
0
10
-76.74379375000001
20
-7.164175
30
0
0
VERTEX
8
0
10
-76.743065625
20
-7.1644250000000005
30
0
0
VERTEX
8
0
10
-75.9739875
20
-7.370500000000001
30
0
0
VERTEX
8
0
10
-75.97115625
20
-7.370890625
30
0
0
VERTEX
8
0
10
-75.968471875
20
-7.371809375000001
30
0
0
VERTEX
8
0
10
-75.95464687500001
20
-7.373690625
30
0
0
VERTEX
8
0
10
-75.556540625
20
-7.399784375
30
0
0
VERTEX
8
0
10
-75.55467812500001
20
-7.399671875
30
0
0
VERTEX
8
0
10
-75.55
20
-7.4
30
0
0
VERTEX
8
0
10
75.55
20
-7.4
30
0
0
SEQEND
0
POLYLINE
66
1
8
1_copper
10
0.0
20
0.0
30
0.0
70
1
0
VERTEX
8
0
10
75.12972500000001
20
27.05
30
0
0
VERTEX
8
0
10
74.544284375
20
27.292496875
30
0
0
VERTEX
8
0
10
74.544278125
20
27.2925
30
0
0
VERTEX
8
0
10
74.544271875
20
27.2925
30
0
0
VERTEX
8
0
10
74.321128125
20
27.38493125
30
0
0
VERTEX
8
0
10
73.70226562500001
20
28.00379375
30
0
0
VERTEX
8
0
10
73.367334375
20
28.812390625000003
30
0
0
VERTEX
8
0
10
73.367334375
20
29.68760625
30
0
0
VERTEX
8
0
10
73.70226562500001
20
30.496203125
30
0
0
VERTEX
8
0
10
74.321128125
20
31.115065625
30
0
0
VERTEX
8
0
10
75.12972500000001
20
31.449996875
30
0
0
VERTEX
8
0
10
76.004940625
20
31.449996875
30
0
0
VERTEX
8
0
10
76.81353750000001
20
31.115065625
30
0
0
VERTEX
8
0
10
77.4324
20
30.496203125
30
0
0
VERTEX
8
0
10
77.76733125
20
29.68760625
30
0
0
VERTEX
8
0
10
77.76733125
20
28.812390625000003
30
0
0
VERTEX
8
0
10
77.4324
20
28.00379375
30
0
0
VERTEX
8
0
10
76.81353750000001
20
27.38493125
30
0
0
VERTEX
8
0
10
76.004940625
20
27.05
30
0
0
SEQEND
0
POLYLINE
66
1
8
1_copper
10
0.0
20
0.0
30
0.0
70
1
0
VERTEX
8
0
10
-75.97027187500001
20
27.05
30
0
0
VERTEX
8
0
10
-76.5557125
20
27.292496875
30
0
0
VERTEX
8
0
10
-76.55571875
20
27.2925
30
0
0
VERTEX
8
0
10
-76.55572500000001
20
27.2925
30
0
0
VERTEX
8
0
10
-76.77886875
20
27.38493125
30
0
0
VERTEX
8
0
10
-77.39773125
20
28.00379375
30
0
0
VERTEX
8
0
10
-77.7326625
20
28.812390625000003
30
0
0
VERTEX
8
0
10
-77.7326625
20
29.68760625
30
0
0
VERTEX
8
0
10
-77.39773125
20
30.496203125
30
0
0
VERTEX
8
0
10
-76.77886875
20
31.115065625
30
0
0
VERTEX
8
0
10
-75.97027187500001
20
31.449996875
30
0
0
VERTEX
8
0
10
-75.09505625
20
31.449996875
30
0
0
VERTEX
8
0
10
-74.286459375
20
31.115065625
30
0
0
VERTEX
8
0
10
-73.667596875
20
30.496203125
30
0
0
VERTEX
8
0
10
-73.332665625
20
29.68760625
30
0
0
VERTEX
8
0
10
-73.332665625
20
28.812390625000003
30
0
0
VERTEX
8
0
10
-73.667596875
20
28.00379375
30
0
0
VERTEX
8
0
10
-74.286459375
20
27.38493125
30
0
0
VERTEX
8
0
10
-75.09505625
20
27.05
30
0
0
SEQEND
0
POLYLINE
66
1
8
1_copper
10
0.0
20
0.0
30
0.0
70
1
0
VERTEX
8
0
10
48.7017375
20
-1.099996875
30
0
0
VERTEX
8
0
10
48.237018750000004
20
-0.9075031250000001
30
0
0
VERTEX
8
0
10
48.237012500000006
20
-0.9075000000000001
30
0
0
VERTEX
8
0
10
48.23700625
20
-0.9075000000000001
30
0
0
VERTEX
8
0
10
48.113665625
20
-0.856409375
30
0
0
VERTEX
8
0
10
47.663587500000006
20
-0.40633125000000003
30
0
0
VERTEX
8
0
10
47.42
20
0.1817375
30
0
0
VERTEX
8
0
10
47.42
20
13.251793750000001
30
0
0
VERTEX
8
0
10
47.674509375
20
14.035096875
30
0
0
VERTEX
8
0
10
48.158606250000005
20
14.701390625
30
0
0
VERTEX
8
0
10
48.8249
20
15.1854875
30
0
0
VERTEX
8
0
10
49.608200000000004
20
15.439996875
30
0
0
VERTEX
8
0
10
64.69179687500001
20
15.439996875
30
0
0
VERTEX
8
0
10
65.475096875
20
15.1854875
30
0
0
VERTEX
8
0
10
66.141390625
20
14.701390625
30
0
0
VERTEX
8
0
10
66.6254875
20
14.035096875
30
0
0
VERTEX
8
0
10
66.879996875
20
13.251796875
30
0
0
VERTEX
8
0
10
66.879996875
20
0.1817375
30
0
0
VERTEX
8
0
10
66.636409375
20
-0.40633125000000003
30
0
0
VERTEX
8
0
10
66.18633125000001
20
-0.856409375
30
0
0
VERTEX
8
0
10
65.598259375
20
-1.099996875
30
0
0
SEQEND
0
POLYLINE
66
1
8
1_copper
10
0.0
20
0.0
30
0.0
70
1
0
VERTEX
8
0
10
-9.078259375
20
-1.099996875
30
0
0
VERTEX
8
0
10
-9.542978125000001
20
-0.9075031250000001
30
0
0
VERTEX
8
0
10
-9.542984375
20
-0.9075000000000001
30
0
0
VERTEX
8
0
10
-9.542990625
20
-0.9075000000000001
30
0
0
VERTEX
8
0
10
-9.66633125
20
-0.856409375
30
0
0
VERTEX
8
0
10
-10.116409375
20
-0.40633125000000003
30
0
0
VERTEX
8
0
10
-10.359996875
20
0.1817375
30
0
0
VERTEX
8
0
10
-10.359996875
20
7.018259375
30
0
0
VERTEX
8
0
10
-10.116409375
20
7.606328125
30
0
0
VERTEX
8
0
10
-9.66633125
20
8.056409375000001
30
0
0
VERTEX
8
0
10
-9.078259375
20
8.299996875
30
0
0
VERTEX
8
0
10
26.858259375000003
20
8.299996875
30
0
0
VERTEX
8
0
10
27.322978125000002
20
8.107503125000001
30
0
0
VERTEX
8
0
10
27.322984375
20
8.1075
30
0
0
VERTEX
8
0
10
27.322990625000003
20
8.1075
30
0
0
VERTEX
8
0
10
27.44633125
20
8.056409375000001
30
0
0
VERTEX
8
0
10
27.896409375
20
7.60633125
30
0
0
VERTEX
8
0
10
28.139996875
20
7.018259375
30
0
0
VERTEX
8
0
10
28.139996875
20
0.1817375
30
0
0
VERTEX
8
0
10
27.896409375
20
-0.40633125000000003
30
0
0
VERTEX
8
0
10
27.44633125
20
-0.856409375
30
0
0
VERTEX
8
0
10
26.858259375000003
20
-1.099996875
30
0
0
SEQEND
0
POLYLINE
66
1
8
1_copper
10
0.0
20
0.0
30
0.0
70
1
0
VERTEX
8
0
10
-19.708259375
20
-4.364996875
30
0
0
VERTEX
8
0
10
-20.979928125
20
-4.024253125
30
0
0
VERTEX
8
0
10
-22.120078125000003
20
-3.3659875
30
0
0
VERTEX
8
0
10
-23.0509875
20
-2.435078125
30
0
0
VERTEX
8
0
10
-23.709253125
20
-1.294928125
30
0
0
VERTEX
8
0
10
-24.049996875
20
-0.023259375000000002
30
0
0
VERTEX
8
0
10
-24.049996875
20
1.293259375
30
0
0
VERTEX
8
0
10
-23.709253125
20
2.5649281250000002
30
0
0
VERTEX
8
0
10
-23.0509875
20
3.705078125
30
0
0
VERTEX
8
0
10
-22.120078125000003
20
4.635987500000001
30
0
0
VERTEX
8
0
10
-20.979928125
20
5.294253125
30
0
0
VERTEX
8
0
10
-19.708259375
20
5.634996875000001
30
0
0
VERTEX
8
0
10
-18.3917375
20
5.634996875000001
30
0
0
VERTEX
8
0
10
-17.12006875
20
5.294253125
30
0
0
VERTEX
8
0
10
-15.979918750000001
20
4.635987500000001
30
0
0
VERTEX
8
0
10
-15.049009375
20
3.705078125
30
0
0
VERTEX
8
0
10
-14.39074375
20
2.5649281250000002
30
0
0
VERTEX
8
0
10
-14.05
20
1.293259375
30
0
0
VERTEX
8
0
10
-14.05
20
-0.023259375000000002
30
0
0
VERTEX
8
0
10
-14.39074375
20
-1.294928125
30
0
0
VERTEX
8
0
10
-15.049009375
20
-2.435078125
30
0
0
VERTEX
8
0
10
-15.979918750000001
20
-3.3659875
30
0
0
VERTEX
8
0
10
-17.12006875
20
-4.024253125
30
0
0
VERTEX
8
0
10
-18.3917375
20
-4.364996875
30
0
0
SEQEND
0
POLYLINE
66
1
8
1_copper
10
0.0
20
0.0
30
0.0
70
1
0
VERTEX
8
0
10
-41.933259375
20
-4.364996875
30
0
0
VERTEX
8
0
10
-43.204928125
20
-4.024253125
30
0
0
VERTEX
8
0
10
-44.345078125
20
-3.3659875
30
0
0
VERTEX
8
0
10
-45.2759875
20
-2.435078125
30
0
0
VERTEX
8
0
10
-45.934253125000005
20
-1.294928125
30
0
0
VERTEX
8
0
10
-46.274996875
20
-0.023259375000000002
30
0
0
VERTEX
8
0
10
-46.274996875
20
1.293259375
30
0
0
VERTEX
8
0
10
-45.934253125000005
20
2.5649281250000002
30
0
0
VERTEX
8
0
10
-45.2759875
20
3.705078125
30
0
0
VERTEX
8
0
10
-44.345078125
20
4.635987500000001
30
0
0
VERTEX
8
0
10
-43.204928125
20
5.294253125
30
0
0
VERTEX
8
0
10
-41.933259375
20
5.634996875000001
30
0
0
VERTEX
8
0
10
-40.6167375
20
5.634996875000001
30
0
0
VERTEX
8
0
10
-39.34506875
20
5.294253125
30
0
0
VERTEX
8
0
10
-38.204918750000004
20
4.635987500000001
30
0
0
VERTEX
8
0
10
-37.274009375
20
3.705078125
30
0
0
VERTEX
8
0
10
-36.61574375
20
2.5649281250000002
30
0
0
VERTEX
8
0
10
-36.275
20
1.293259375
30
0
0
VERTEX
8
0
10
-36.275
20
-0.023259375000000002
30
0
0
VERTEX
8
0
10
-36.61574375
20
-1.294928125
30
0
0
VERTEX
8
0
10
-37.274009375
20
-2.435078125
30
0
0
VERTEX
8
0
10
-38.204918750000004
20
-3.3659875
30
0
0
VERTEX
8
0
10
-39.34506875
20
-4.024253125
30
0
0
VERTEX
8
0
10
-40.6167375
20
-4.364996875
30
0
0
SEQEND
0
POLYLINE
66
1
8
1_copper
10
0.0
20
0.0
30
0.0
70
1
0
VERTEX
8
0
10
-64.158259375
20
-4.364996875
30
0
0
VERTEX
8
0
10
-65.429928125
20
-4.024253125
30
0
0
VERTEX
8
0
10
-66.57007812500001
20
-3.3659875
30
0
0
VERTEX
8
0
10
-67.50098750000001
20
-2.435078125
30
0
0
VERTEX
8
0
10
-68.159253125
20
-1.294928125
30
0
0
VERTEX
8
0
10
-68.49999687500001
20
-0.023259375000000002
30
0
0
VERTEX
8
0
10
-68.49999687500001
20
1.293259375
30
0
0
VERTEX
8
0
10
-68.159253125
20
2.5649281250000002
30
0
0
VERTEX
8
0
10
-67.50098750000001
20
3.705078125
30
0
0
VERTEX
8
0
10
-66.57007812500001
20
4.635987500000001
30
0
0
VERTEX
8
0
10
-65.429928125
20
5.294253125
30
0
0
VERTEX
8
0
10
-64.158259375
20
5.634996875000001
30
0
0
VERTEX
8
0
10
-62.8417375
20
5.634996875000001
30
0
0
VERTEX
8
0
10
-61.570068750000004
20
5.294253125
30
0
0
VERTEX
8
0
10
-60.429918750000006
20
4.635987500000001
30
0
0
VERTEX
8
0
10
-59.499009375
20
3.705078125
30
0
0
VERTEX
8
0
10
-58.84074375
20
2.5649281250000002
30
0
0
VERTEX
8
0
10
-58.5
20
1.293259375
30
0
0
VERTEX
8
0
10
-58.5
20
-0.023259375000000002
30
0
0
VERTEX
8
0
10
-58.84074375
20
-1.294928125
30
0
0
VERTEX
8
0
10
-59.499009375
20
-2.435078125
30
0
0
VERTEX
8
0
10
-60.429918750000006
20
-3.3659875
30
0
0
VERTEX
8
0
10
-61.570068750000004
20
-4.024253125
30
0
0
VERTEX
8
0
10
-62.8417375
20
-4.364996875
30
0
0
SEQEND
0
POLYLINE
66
1
8
1_copper
10
0.0
20
0.0
30
0.0
70
1
0
VERTEX
8
0
10
34.18228125
20
-1.099996875
30
0
0
VERTEX
8
0
10
33.476140625
20
-0.807503125
30
0
0
VERTEX
8
0
10
33.476128125
20
-0.807496875
30
0
0
VERTEX
8
0
10
33.410440625
20
-0.780290625
30
0
0
VERTEX
8
0
10
32.81970625
20
-0.18955625
30
0
0
VERTEX
8
0
10
32.5
20
0.58228125
30
0
0
VERTEX
8
0
10
32.5
20
2.617715625
30
0
0
VERTEX
8
0
10
32.81970625
20
3.389553125
30
0
0
VERTEX
8
0
10
33.410440625
20
3.9802906250000003
30
0
0
VERTEX
8
0
10
34.18228125
20
4.299996875000001
30
0
0
VERTEX
8
0
10
42.017715625
20
4.299996875000001
30
0
0
VERTEX
8
0
10
42.723856250000004
20
4.007503125
30
0
0
VERTEX
8
0
10
42.72386875
20
4.007496875
30
0
0
VERTEX
8
0
10
42.789556250000004
20
3.9802906250000003
30
0
0
VERTEX
8
0
10
43.380290625
20
3.38955625
30
0
0
VERTEX
8
0
10
43.699996875000004
20
2.617715625
30
0
0
VERTEX
8
0
10
43.699996875000004
20
0.58228125
30
0
0
VERTEX
8
0
10
43.380290625
20
-0.18955625
30
0
0
VERTEX
8
0
10
42.789556250000004
20
-0.780290625
30
0
0
VERTEX
8
0
10
42.017715625
20
-1.099996875
30
0
0
SEQEND
0
POLYLINE
66
1
8
1_copper
10
0.0
20
0.0
30
0.0
70
1
0
VERTEX
8
0
10
75.12972500000001
20
-6.449996875
30
0
0
VERTEX
8
0
10
74.321128125
20
-6.115065625000001
30
0
0
VERTEX
8
0
10
73.70226562500001
20
-5.496203125
30
0
0
VERTEX
8
0
10
73.367334375
20
-4.68760625
30
0
0
VERTEX
8
0
10
73.367334375
20
-3.8123906250000004
30
0
0
VERTEX
8
0
10
73.70226562500001
20
-3.0037937500000003
30
0
0
VERTEX
8
0
10
74.321128125
20
-2.38493125
30
0
0
VERTEX
8
0
10
75.12972500000001
20
-2.0500000000000003
30
0
0
VERTEX
8
0
10
76.004940625
20
-2.0500000000000003
30
0
0
VERTEX
8
0
10
76.59038125000001
20
-2.2924968750000003
30
0
0
VERTEX
8
0
10
76.5903875
20
-2.2925
30
0
0
VERTEX
8
0
10
76.59039375
20
-2.2925
30
0
0
VERTEX
8
0
10
76.81353750000001
20
-2.38493125
30
0
0
VERTEX
8
0
10
77.4324
20
-3.0037937500000003
30
0
0
VERTEX
8
0
10
77.76733125
20
-3.8123906250000004
30
0
0
VERTEX
8
0
10
77.76733125
20
-4.68760625
30
0
0
VERTEX
8
0
10
77.4324
20
-5.496203125
30
0
0
VERTEX
8
0
10
76.81353750000001
20
-6.115065625000001
30
0
0
VERTEX
8
0
10
76.004940625
20
-6.449996875
30
0
0
SEQEND
0
POLYLINE
66
1
8
1_copper
10
0.0
20
0.0
30
0.0
70
1
0
VERTEX
8
0
10
-75.97027187500001
20
-6.449996875
30
0
0
VERTEX
8
0
10
-76.77886875
20
-6.115065625000001
30
0
0
VERTEX
8
0
10
-77.39773125
20
-5.496203125
30
0
0
VERTEX
8
0
10
-77.7326625
20
-4.68760625
30
0
0
VERTEX
8
0
10
-77.7326625
20
-3.8123906250000004
30
0
0
VERTEX
8
0
10
-77.39773125
20
-3.0037937500000003
30
0
0
VERTEX
8
0
10
-76.77886875
20
-2.38493125
30
0
0
VERTEX
8
0
10
-75.97027187500001
20
-2.0500000000000003
30
0
0
VERTEX
8
0
10
-75.09505625
20
-2.0500000000000003
30
0
0
VERTEX
8
0
10
-74.50961562500001
20
-2.2924968750000003
30
0
0
VERTEX
8
0
10
-74.509609375
20
-2.2925
30
0
0
VERTEX
8
0
10
-74.509603125
20
-2.2925
30
0
0
VERTEX
8
0
10
-74.286459375
20
-2.38493125
30
0
0
VERTEX
8
0
10
-73.667596875
20
-3.0037937500000003
30
0
0
VERTEX
8
0
10
-73.332665625
20
-3.8123906250000004
30
0
0
VERTEX
8
0
10
-73.332665625
20
-4.68760625
30
0
0
VERTEX
8
0
10
-73.667596875
20
-5.496203125
30
0
0
VERTEX
8
0
10
-74.286459375
20
-6.115065625000001
30
0
0
VERTEX
8
0
10
-75.09505625
20
-6.449996875
30
0
0
SEQEND
0
POLYLINE
66
1
8
16_copper
10
0.0
20
0.0
30
0.0
70
1
0
VERTEX
8
0
10
75.551871875
20
-7.399765625000001
30
0
0
VERTEX
8
0
10
75.556540625
20
-7.399784375
30
0
0
VERTEX
8
0
10
75.95464375
20
-7.373690625
30
0
0
VERTEX
8
0
10
75.957428125
20
-7.373153125
30
0
0
VERTEX
8
0
10
75.960290625
20
-7.3731625
30
0
0
VERTEX
8
0
10
75.973984375
20
-7.370500000000001
30
0
0
VERTEX
8
0
10
76.74306250000001
20
-7.1644250000000005
30
0
0
VERTEX
8
0
10
76.74873125
20
-7.162115625
30
0
0
VERTEX
8
0
10
76.75464062500001
20
-7.160550000000001
30
0
0
VERTEX
8
0
10
76.76515625
20
-7.155421875
30
0
0
VERTEX
8
0
10
76.76616875
20
-7.155009375000001
30
0
0
VERTEX
8
0
10
76.766490625
20
-7.154771875000001
30
0
0
VERTEX
8
0
10
76.76718125000001
20
-7.154434375
30
0
0
VERTEX
8
0
10
77.456721875
20
-6.756331250000001
30
0
0
VERTEX
8
0
10
77.46158750000001
20
-6.752640625000001
30
0
0
VERTEX
8
0
10
77.466903125
20
-6.749593750000001
30
0
0
VERTEX
8
0
10
77.4757
20
-6.74194375
30
0
0
VERTEX
8
0
10
77.47660625
20
-6.74125625
30
0
0
VERTEX
8
0
10
77.47686875000001
20
-6.740928125
30
0
0
VERTEX
8
0
10
77.47743125000001
20
-6.7404375000000005
30
0
0
VERTEX
8
0
10
78.04043750000001
20
-6.177431250000001
30
0
0
VERTEX
8
0
10
78.0441875
20
-6.17260625
30
0
0
VERTEX
8
0
10
78.048528125
20
-6.1682875
30
0
0
VERTEX
8
0
10
78.0550625
20
-6.1586
30
0
0
VERTEX
8
0
10
78.05574375
20
-6.157725
30
0
0
VERTEX
8
0
10
78.05590625
20
-6.157353125
30
0
0
VERTEX
8
0
10
78.05633125
20
-6.156721875000001
30
0
0
VERTEX
8
0
10
78.454434375
20
-5.46718125
30
0
0
VERTEX
8
0
10
78.45680625
20
-5.461546875000001
30
0
0
VERTEX
8
0
10
78.45988125000001
20
-5.45625625
30
0
0
VERTEX
8
0
10
78.46369375
20
-5.445190625
30
0
0
VERTEX
8
0
10
78.464115625
20
-5.444184375
30
0
0
VERTEX
8
0
10
78.464175
20
-5.443790625
30
0
0
VERTEX
8
0
10
78.464425
20
-5.4430625
30
0
0
VERTEX
8
0
10
78.6705
20
-4.673984375
30
0
0
VERTEX
8
0
10
78.670890625
20
-4.671153125
30
0
0
VERTEX
8
0
10
78.67180937500001
20
-4.668468750000001
30
0
0
VERTEX
8
0
10
78.673690625
20
-4.65464375
30
0
0
VERTEX
8
0
10
78.68336875
20
-4.506990625
30
0
0
VERTEX
8
0
10
78.683371875
20
-4.506975000000001
30
0
0
VERTEX
8
0
10
78.683371875
20
-4.50695625
30
0
0
VERTEX
8
0
10
78.696478125
20
-4.30699375
30
0
0
VERTEX
8
0
10
78.69648125
20
-4.306975
30
0
0
VERTEX
8
0
10
78.69648125
20
-4.30695625
30
0
0
VERTEX
8
0
10
78.69978437500001
20
-4.2565437500000005
30
0
0
VERTEX
8
0
10
78.699671875
20
-4.25468125
30
0
0
VERTEX
8
0
10
78.7
20
-4.250003125
30
0
0
VERTEX
8
0
10
78.7
20
29.25
30
0
0
VERTEX
8
0
10
78.699765625
20
29.251871875000003
30
0
0
VERTEX
8
0
10
78.69978437500001
20
29.256540625000003
30
0
0
VERTEX
8
0
10
78.673690625
20
29.65464375
30
0
0
VERTEX
8
0
10
78.673153125
20
29.657428125000003
30
0
0
VERTEX
8
0
10
78.6731625
20
29.660290625000002
30
0
0
VERTEX
8
0
10
78.6705
20
29.673984375
30
0
0
VERTEX
8
0
10
78.464425
20
30.4430625
30
0
0
VERTEX
8
0
10
78.46211562500001
20
30.44873125
30
0
0
VERTEX
8
0
10
78.46055
20
30.454640625
30
0
0
VERTEX
8
0
10
78.455421875
20
30.46515625
30
0
0
VERTEX
8
0
10
78.455009375
20
30.46616875
30
0
0
VERTEX
8
0
10
78.454771875
20
30.466490625000002
30
0
0
VERTEX
8
0
10
78.454434375
20
30.467181250000003
30
0
0
VERTEX
8
0
10
78.05633125
20
31.156721875000002
30
0
0
VERTEX
8
0
10
78.05264062500001
20
31.161587500000003
30
0
0
VERTEX
8
0
10
78.04959375
20
31.166903125
30
0
0
VERTEX
8
0
10
78.04194375
20
31.175700000000003
30
0
0
VERTEX
8
0
10
78.04125625
20
31.176606250000003
30
0
0
VERTEX
8
0
10
78.04092812500001
20
31.17686875
30
0
0
VERTEX
8
0
10
78.04043750000001
20
31.17743125
30
0
0
VERTEX
8
0
10
77.47743125000001
20
31.740437500000002
30
0
0
VERTEX
8
0
10
77.47260625
20
31.744187500000002
30
0
0
VERTEX
8
0
10
77.4682875
20
31.748528125
30
0
0
VERTEX
8
0
10
77.4586
20
31.7550625
30
0
0
VERTEX
8
0
10
77.45772500000001
20
31.75574375
30
0
0
VERTEX
8
0
10
77.457353125
20
31.755906250000002
30
0
0
VERTEX
8
0
10
77.456721875
20
31.756331250000002
30
0
0
VERTEX
8
0
10
76.76718125000001
20
32.154434375
30
0
0
VERTEX
8
0
10
76.76154687500001
20
32.15680625
30
0
0
VERTEX
8
0
10
76.75625625
20
32.159881250000005
30
0
0
VERTEX
8
0
10
76.745190625
20
32.16369375
30
0
0
VERTEX
8
0
10
76.744184375
20
32.164115625
30
0
0
VERTEX
8
0
10
76.743790625
20
32.164175
30
0
0
VERTEX
8
0
10
76.74306250000001
20
32.164425
30
0
0
VERTEX
8
0
10
75.973984375
20
32.3705
30
0
0
VERTEX
8
0
10
75.971153125
20
32.370890625
30
0
0
VERTEX
8
0
10
75.96846875
20
32.371809375
30
0
0
VERTEX
8
0
10
75.95464375
20
32.373690625
30
0
0
VERTEX
8
0
10
75.55654375
20
32.399784375
30
0
0
VERTEX
8
0
10
75.55468125
20
32.399671875
30
0
0
VERTEX
8
0
10
75.550003125
20
32.4
30
0
0
VERTEX
8
0
10
-75.55
20
32.4
30
0
0
VERTEX
8
0
10
-75.551871875
20
32.399765625
30
0
0
VERTEX
8
0
10
-75.556540625
20
32.399784375
30
0
0
VERTEX
8
0
10
-75.95464375
20
32.373690625
30
0
0
VERTEX
8
0
10
-75.957428125
20
32.373153125
30
0
0
VERTEX
8
0
10
-75.960290625
20
32.3731625
30
0
0
VERTEX
8
0
10
-75.973984375
20
32.3705
30
0
0
VERTEX
8
0
10
-76.74306250000001
20
32.164425
30
0
0
VERTEX
8
0
10
-76.74873125
20
32.162115625
30
0
0
VERTEX
8
0
10
-76.75464062500001
20
32.16055
30
0
0
VERTEX
8
0
10
-76.76515625
20
32.155421875
30
0
0
VERTEX
8
0
10
-76.76616875
20
32.155009375
30
0
0
VERTEX
8
0
10
-76.766490625
20
32.154771875
30
0
0
VERTEX
8
0
10
-76.76718125000001
20
32.154434375
30
0
0
VERTEX
8
0
10
-77.456721875
20
31.756331250000002
30
0
0
VERTEX
8
0
10
-77.46158750000001
20
31.752640625
30
0
0
VERTEX
8
0
10
-77.466903125
20
31.749593750000003
30
0
0
VERTEX
8
0
10
-77.4757
20
31.74194375
30
0
0
VERTEX
8
0
10
-77.47660625
20
31.741256250000003
30
0
0
VERTEX
8
0
10
-77.47686875000001
20
31.740928125
30
0
0
VERTEX
8
0
10
-77.47743125000001
20
31.740437500000002
30
0
0
VERTEX
8
0
10
-78.04043750000001
20
31.17743125
30
0
0
VERTEX
8
0
10
-78.0441875
20
31.17260625
30
0
0
VERTEX
8
0
10
-78.048528125
20
31.1682875
30
0
0
VERTEX
8
0
10
-78.0550625
20
31.1586
30
0
0
VERTEX
8
0
10
-78.05574375
20
31.157725000000003
30
0
0
VERTEX
8
0
10
-78.05590625
20
31.157353125
30
0
0
VERTEX
8
0
10
-78.05633125
20
31.156721875000002
30
0
0
VERTEX
8
0
10
-78.454434375
20
30.467181250000003
30
0
0
VERTEX
8
0
10
-78.45680625
20
30.461546875
30
0
0
VERTEX
8
0
10
-78.45988125000001
20
30.456256250000003
30
0
0
VERTEX
8
0
10
-78.46369375
20
30.445190625000002
30
0
0
VERTEX
8
0
10
-78.464115625
20
30.444184375000003
30
0
0
VERTEX
8
0
10
-78.464175
20
30.443790625000002
30
0
0
VERTEX
8
0
10
-78.464425
20
30.4430625
30
0
0
VERTEX
8
0
10
-78.6705
20
29.673984375
30
0
0
VERTEX
8
0
10
-78.6708875
20
29.67116875
30
0
0
VERTEX
8
0
10
-78.6718125
20
29.668468750000002
30
0
0
VERTEX
8
0
10
-78.67356562500001
20
29.655584375
30
0
0
VERTEX
8
0
10
-78.673665625
20
29.655078125000003
30
0
0
VERTEX
8
0
10
-78.67365625000001
20
29.654915625
30
0
0
VERTEX
8
0
10
-78.67369375
20
29.65464375
30
0
0
VERTEX
8
0
10
-78.68336875
20
29.507
30
0
0
VERTEX
8
0
10
-78.683375
20
29.506975
30
0
0
VERTEX
8
0
10
-78.683371875
20
29.506946875
30
0
0
VERTEX
8
0
10
-78.689925
20
29.406996875
30
0
0
VERTEX
8
0
10
-78.68992812500001
20
29.406975000000003
30
0
0
VERTEX
8
0
10
-78.68992812500001
20
29.406953125
30
0
0
VERTEX
8
0
10
-78.696478125
20
29.306990625
30
0
0
VERTEX
8
0
10
-78.69648125
20
29.306975
30
0
0
VERTEX
8
0
10
-78.69648125
20
29.306956250000002
30
0
0
VERTEX
8
0
10
-78.69978437500001
20
29.256540625000003
30
0
0
VERTEX
8
0
10
-78.699671875
20
29.254678125
30
0
0
VERTEX
8
0
10
-78.7
20
29.25
30
0
0
VERTEX
8
0
10
-78.7
20
-4.25
30
0
0
VERTEX
8
0
10
-78.699765625
20
-4.251871875
30
0
0
VERTEX
8
0
10
-78.69978437500001
20
-4.256540625
30
0
0
VERTEX
8
0
10
-78.673690625
20
-4.65464375
30
0
0
VERTEX
8
0
10
-78.673153125
20
-4.657428125
30
0
0
VERTEX
8
0
10
-78.6731625
20
-4.660290625
30
0
0
VERTEX
8
0
10
-78.6705
20
-4.673984375
30
0
0
VERTEX
8
0
10
-78.464425
20
-5.4430625
30
0
0
VERTEX
8
0
10
-78.46211562500001
20
-5.448731250000001
30
0
0
VERTEX
8
0
10
-78.46055
20
-5.454640625000001
30
0
0
VERTEX
8
0
10
-78.455421875
20
-5.465156250000001
30
0
0
VERTEX
8
0
10
-78.455009375
20
-5.4661687500000005
30
0
0
VERTEX
8
0
10
-78.454771875
20
-5.4664906250000005
30
0
0
VERTEX
8
0
10
-78.454434375
20
-5.46718125
30
0
0
VERTEX
8
0
10
-78.05633125
20
-6.156721875000001
30
0
0
VERTEX
8
0
10
-78.05264062500001
20
-6.1615906250000005
30
0
0
VERTEX
8
0
10
-78.04959375
20
-6.166903125
30
0
0
VERTEX
8
0
10
-78.04194375
20
-6.1757
30
0
0
VERTEX
8
0
10
-78.04125625
20
-6.17660625
30
0
0
VERTEX
8
0
10
-78.04092812500001
20
-6.176868750000001
30
0
0
VERTEX
8
0
10
-78.04043750000001
20
-6.177431250000001
30
0
0
VERTEX
8
0
10
-77.477434375
20
-6.7404375000000005
30
0
0
VERTEX
8
0
10
-77.472609375
20
-6.744187500000001
30
0
0
VERTEX
8
0
10
-77.46829062500001
20
-6.748528125
30
0
0
VERTEX
8
0
10
-77.45860312500001
20
-6.7550625
30
0
0
VERTEX
8
0
10
-77.457728125
20
-6.755743750000001
30
0
0
VERTEX
8
0
10
-77.45735625
20
-6.755906250000001
30
0
0
VERTEX
8
0
10
-77.456725
20
-6.756331250000001
30
0
0
VERTEX
8
0
10
-76.767184375
20
-7.154434375
30
0
0
VERTEX
8
0
10
-76.76155
20
-7.156806250000001
30
0
0
VERTEX
8
0
10
-76.756259375
20
-7.159881250000001
30
0
0
VERTEX
8
0
10
-76.74519375
20
-7.16369375
30
0
0
VERTEX
8
0
10
-76.74418750000001
20
-7.164115625
30
0
0
VERTEX
8
0
10
-76.74379375000001
20
-7.164175
30
0
0
VERTEX
8
0
10
-76.743065625
20
-7.1644250000000005
30
0
0
VERTEX
8
0
10
-75.9739875
20
-7.370500000000001
30
0
0
VERTEX
8
0
10
-75.97115625
20
-7.370890625
30
0
0
VERTEX
8
0
10
-75.968471875
20
-7.371809375000001
30
0
0
VERTEX
8
0
10
-75.95464687500001
20
-7.373690625
30
0
0
VERTEX
8
0
10
-75.556540625
20
-7.399784375
30
0
0
VERTEX
8
0
10
-75.55467812500001
20
-7.399671875
30
0
0
VERTEX
8
0
10
-75.55
20
-7.4
30
0
0
VERTEX
8
0
10
75.55
20
-7.4
30
0
0
SEQEND
0
POLYLINE
66
1
8
16_copper
10
0.0
20
0.0
30
0.0
70
1
0
VERTEX
8
0
10
75.12972500000001
20
27.05
30
0
0
VERTEX
8
0
10
74.544284375
20
27.292496875
30
0
0
VERTEX
8
0
10
74.544278125
20
27.2925
30
0
0
VERTEX
8
0
10
74.544271875
20
27.2925
30
0
0
VERTEX
8
0
10
74.321128125
20
27.38493125
30
0
0
VERTEX
8
0
10
73.70226562500001
20
28.00379375
30
0
0
VERTEX
8
0
10
73.367334375
20
28.812390625000003
30
0
0
VERTEX
8
0
10
73.367334375
20
29.68760625
30
0
0
VERTEX
8
0
10
73.70226562500001
20
30.496203125
30
0
0
VERTEX
8
0
10
74.321128125
20
31.115065625
30
0
0
VERTEX
8
0
10
75.12972500000001
20
31.449996875
30
0
0
VERTEX
8
0
10
76.004940625
20
31.449996875
30
0
0
VERTEX
8
0
10
76.81353750000001
20
31.115065625
30
0
0
VERTEX
8
0
10
77.4324
20
30.496203125
30
0
0
VERTEX
8
0
10
77.76733125
20
29.68760625
30
0
0
VERTEX
8
0
10
77.76733125
20
28.812390625000003
30
0
0
VERTEX
8
0
10
77.4324
20
28.00379375
30
0
0
VERTEX
8
0
10
76.81353750000001
20
27.38493125
30
0
0
VERTEX
8
0
10
76.004940625
20
27.05
30
0
0
SEQEND
0
POLYLINE
66
1
8
16_copper
10
0.0
20
0.0
30
0.0
70
1
0
VERTEX
8
0
10
-75.97027187500001
20
27.05
30
0
0
VERTEX
8
0
10
-76.5557125
20
27.292496875
30
0
0
VERTEX
8
0
10
-76.55571875
20
27.2925
30
0
0
VERTEX
8
0
10
-76.55572500000001
20
27.2925
30
0
0
VERTEX
8
0
10
-76.77886875
20
27.38493125
30
0
0
VERTEX
8
0
10
-77.39773125
20
28.00379375
30
0
0
VERTEX
8
0
10
-77.7326625
20
28.812390625000003
30
0
0
VERTEX
8
0
10
-77.7326625
20
29.68760625
30
0
0
VERTEX
8
0
10
-77.39773125
20
30.496203125
30
0
0
VERTEX
8
0
10
-76.77886875
20
31.115065625
30
0
0
VERTEX
8
0
10
-75.97027187500001
20
31.449996875
30
0
0
VERTEX
8
0
10
-75.09505625
20
31.449996875
30
0
0
VERTEX
8
0
10
-74.286459375
20
31.115065625
30
0
0
VERTEX
8
0
10
-73.667596875
20
30.496203125
30
0
0
VERTEX
8
0
10
-73.332665625
20
29.68760625
30
0
0
VERTEX
8
0
10
-73.332665625
20
28.812390625000003
30
0
0
VERTEX
8
0
10
-73.667596875
20
28.00379375
30
0
0
VERTEX
8
0
10
-74.286459375
20
27.38493125
30
0
0
VERTEX
8
0
10
-75.09505625
20
27.05
30
0
0
SEQEND
0
POLYLINE
66
1
8
16_copper
10
0.0
20
0.0
30
0.0
70
1
0
VERTEX
8
0
10
48.7017375
20
-1.099996875
30
0
0
VERTEX
8
0
10
48.237018750000004
20
-0.9075031250000001
30
0
0
VERTEX
8
0
10
48.237012500000006
20
-0.9075000000000001
30
0
0
VERTEX
8
0
10
48.23700625
20
-0.9075000000000001
30
0
0
VERTEX
8
0
10
48.11366875
20
-0.856409375
30
0
0
VERTEX
8
0
10
47.663587500000006
20
-0.40633125000000003
30
0
0
VERTEX
8
0
10
47.42
20
0.18174062500000002
30
0
0
VERTEX
8
0
10
47.42
20
13.251796875
30
0
0
VERTEX
8
0
10
47.674509375
20
14.035096875
30
0
0
VERTEX
8
0
10
48.158606250000005
20
14.701390625
30
0
0
VERTEX
8
0
10
48.8249
20
15.1854875
30
0
0
VERTEX
8
0
10
49.608200000000004
20
15.439996875
30
0
0
VERTEX
8
0
10
64.69179687500001
20
15.439996875
30
0
0
VERTEX
8
0
10
65.475096875
20
15.1854875
30
0
0
VERTEX
8
0
10
66.141390625
20
14.701390625
30
0
0
VERTEX
8
0
10
66.6254875
20
14.035096875
30
0
0
VERTEX
8
0
10
66.879996875
20
13.251796875
30
0
0
VERTEX
8
0
10
66.879996875
20
0.1817375
30
0
0
VERTEX
8
0
10
66.636409375
20
-0.40633125000000003
30
0
0
VERTEX
8
0
10
66.18633125000001
20
-0.856409375
30
0
0
VERTEX
8
0
10
65.598259375
20
-1.099996875
30
0
0
SEQEND
0
POLYLINE
66
1
8
16_copper
10
0.0
20
0.0
30
0.0
70
1
0
VERTEX
8
0
10
-9.078259375
20
-1.099996875
30
0
0
VERTEX
8
0
10
-9.542978125000001
20
-0.9075031250000001
30
0
0
VERTEX
8
0
10
-9.542984375
20
-0.9075000000000001
30
0
0
VERTEX
8
0
10
-9.542990625
20
-0.9075000000000001
30
0
0
VERTEX
8
0
10
-9.66633125
20
-0.856409375
30
0
0
VERTEX
8
0
10
-10.116409375
20
-0.40633125000000003
30
0
0
VERTEX
8
0
10
-10.359996875
20
0.1817375
30
0
0
VERTEX
8
0
10
-10.359996875
20
7.018259375
30
0
0
VERTEX
8
0
10
-10.116409375
20
7.60633125
30
0
0
VERTEX
8
0
10
-9.66633125
20
8.056409375000001
30
0
0
VERTEX
8
0
10
-9.078259375
20
8.299996875
30
0
0
VERTEX
8
0
10
26.858259375000003
20
8.299996875
30
0
0
VERTEX
8
0
10
27.322978125000002
20
8.107503125000001
30
0
0
VERTEX
8
0
10
27.322984375
20
8.1075
30
0
0
VERTEX
8
0
10
27.322990625000003
20
8.1075
30
0
0
VERTEX
8
0
10
27.44633125
20
8.056409375000001
30
0
0
VERTEX
8
0
10
27.896409375
20
7.60633125
30
0
0
VERTEX
8
0
10
28.139996875
20
7.018259375
30
0
0
VERTEX
8
0
10
28.139996875
20
0.1817375
30
0
0
VERTEX
8
0
10
27.896409375
20
-0.40633125000000003
30
0
0
VERTEX
8
0
10
27.44633125
20
-0.856409375
30
0
0
VERTEX
8
0
10
26.858259375000003
20
-1.099996875
30
0
0
SEQEND
0
POLYLINE
66
1
8
16_copper
10
0.0
20
0.0
30
0.0
70
1
0
VERTEX
8
0
10
-19.708259375
20
-4.364996875
30
0
0
VERTEX
8
0
10
-20.979928125
20
-4.024253125
30
0
0
VERTEX
8
0
10
-22.120078125000003
20
-3.3659875
30
0
0
VERTEX
8
0
10
-23.0509875
20
-2.435078125
30
0
0
VERTEX
8
0
10
-23.709253125
20
-1.294928125
30
0
0
VERTEX
8
0
10
-24.049996875
20
-0.023259375000000002
30
0
0
VERTEX
8
0
10
-24.049996875
20
1.293259375
30
0
0
VERTEX
8
0
10
-23.709253125
20
2.5649281250000002
30
0
0
VERTEX
8
0
10
-23.0509875
20
3.705078125
30
0
0
VERTEX
8
0
10
-22.120078125000003
20
4.635987500000001
30
0
0
VERTEX
8
0
10
-20.979928125
20
5.294253125
30
0
0
VERTEX
8
0
10
-19.708259375
20
5.634996875000001
30
0
0
VERTEX
8
0
10
-18.3917375
20
5.634996875000001
30
0
0
VERTEX
8
0
10
-17.12006875
20
5.294253125
30
0
0
VERTEX
8
0
10
-15.979918750000001
20
4.635987500000001
30
0
0
VERTEX
8
0
10
-15.049009375
20
3.705078125
30
0
0
VERTEX
8
0
10
-14.39074375
20
2.5649281250000002
30
0
0
VERTEX
8
0
10
-14.05
20
1.293259375
30
0
0
VERTEX
8
0
10
-14.05
20
-0.023259375000000002
30
0
0
VERTEX
8
0
10
-14.39074375
20
-1.294928125
30
0
0
VERTEX
8
0
10
-15.049009375
20
-2.435078125
30
0
0
VERTEX
8
0
10
-15.979918750000001
20
-3.3659875
30
0
0
VERTEX
8
0
10
-17.12006875
20
-4.024253125
30
0
0
VERTEX
8
0
10
-18.3917375
20
-4.364996875
30
0
0
SEQEND
0
POLYLINE
66
1
8
16_copper
10
0.0
20
0.0
30
0.0
70
1
0
VERTEX
8
0
10
-41.933259375
20
-4.364996875
30
0
0
VERTEX
8
0
10
-43.204928125
20
-4.024253125
30
0
0
VERTEX
8
0
10
-44.345078125
20
-3.3659875
30
0
0
VERTEX
8
0
10
-45.2759875
20
-2.435078125
30
0
0
VERTEX
8
0
10
-45.934253125000005
20
-1.294928125
30
0
0
VERTEX
8
0
10
-46.274996875
20
-0.023259375000000002
30
0
0
VERTEX
8
0
10
-46.274996875
20
1.293259375
30
0
0
VERTEX
8
0
10
-45.934253125000005
20
2.5649281250000002
30
0
0
VERTEX
8
0
10
-45.2759875
20
3.705078125
30
0
0
VERTEX
8
0
10
-44.345078125
20
4.635987500000001
30
0
0
VERTEX
8
0
10
-43.204928125
20
5.294253125
30
0
0
VERTEX
8
0
10
-41.933259375
20
5.634996875000001
30
0
0
VERTEX
8
0
10
-40.6167375
20
5.634996875000001
30
0
0
VERTEX
8
0
10
-39.34506875
20
5.294253125
30
0
0
VERTEX
8
0
10
-38.204918750000004
20
4.635987500000001
30
0
0
VERTEX
8
0
10
-37.274009375
20
3.705078125
30
0
0
VERTEX
8
0
10
-36.61574375
20
2.5649281250000002
30
0
0
VERTEX
8
0
10
-36.275
20
1.293259375
30
0
0
VERTEX
8
0
10
-36.275
20
-0.023259375000000002
30
0
0
VERTEX
8
0
10
-36.61574375
20
-1.294928125
30
0
0
VERTEX
8
0
10
-37.274009375
20
-2.435078125
30
0
0
VERTEX
8
0
10
-38.204918750000004
20
-3.3659875
30
0
0
VERTEX
8
0
10
-39.34506875
20
-4.024253125
30
0
0
VERTEX
8
0
10
-40.6167375
20
-4.364996875
30
0
0
SEQEND
0
POLYLINE
66
1
8
16_copper
10
0.0
20
0.0
30
0.0
70
1
0
VERTEX
8
0
10
-64.158259375
20
-4.364996875
30
0
0
VERTEX
8
0
10
-65.429928125
20
-4.024253125
30
0
0
VERTEX
8
0
10
-66.57007812500001
20
-3.3659875
30
0
0
VERTEX
8
0
10
-67.50098750000001
20
-2.435078125
30
0
0
VERTEX
8
0
10
-68.159253125
20
-1.294928125
30
0
0
VERTEX
8
0
10
-68.49999687500001
20
-0.023259375000000002
30
0
0
VERTEX
8
0
10
-68.49999687500001
20
1.293259375
30
0
0
VERTEX
8
0
10
-68.159253125
20
2.5649281250000002
30
0
0
VERTEX
8
0
10
-67.50098750000001
20
3.705078125
30
0
0
VERTEX
8
0
10
-66.57007812500001
20
4.635987500000001
30
0
0
VERTEX
8
0
10
-65.429928125
20
5.294253125
30
0
0
VERTEX
8
0
10
-64.158259375
20
5.634996875000001
30
0
0
VERTEX
8
0
10
-62.8417375
20
5.634996875000001
30
0
0
VERTEX
8
0
10
-61.570068750000004
20
5.294253125
30
0
0
VERTEX
8
0
10
-60.429918750000006
20
4.635987500000001
30
0
0
VERTEX
8
0
10
-59.499009375
20
3.705078125
30
0
0
VERTEX
8
0
10
-58.84074375
20
2.5649281250000002
30
0
0
VERTEX
8
0
10
-58.5
20
1.293259375
30
0
0
VERTEX
8
0
10
-58.5
20
-0.023259375000000002
30
0
0
VERTEX
8
0
10
-58.84074375
20
-1.294928125
30
0
0
VERTEX
8
0
10
-59.499009375
20
-2.435078125
30
0
0
VERTEX
8
0
10
-60.429918750000006
20
-3.3659875
30
0
0
VERTEX
8
0
10
-61.570068750000004
20
-4.024253125
30
0
0
VERTEX
8
0
10
-62.8417375
20
-4.364996875
30
0
0
SEQEND
0
POLYLINE
66
1
8
16_copper
10
0.0
20
0.0
30
0.0
70
1
0
VERTEX
8
0
10
34.18228125
20
-1.099996875
30
0
0
VERTEX
8
0
10
33.476140625
20
-0.807503125
30
0
0
VERTEX
8
0
10
33.476128125
20
-0.807496875
30
0
0
VERTEX
8
0
10
33.410440625
20
-0.780290625
30
0
0
VERTEX
8
0
10
32.81970625
20
-0.18955625
30
0
0
VERTEX
8
0
10
32.5
20
0.58228125
30
0
0
VERTEX
8
0
10
32.5
20
2.617715625
30
0
0
VERTEX
8
0
10
32.81970625
20
3.38955625
30
0
0
VERTEX
8
0
10
33.410440625
20
3.9802906250000003
30
0
0
VERTEX
8
0
10
34.18228125
20
4.299996875000001
30
0
0
VERTEX
8
0
10
42.017715625
20
4.299996875000001
30
0
0
VERTEX
8
0
10
42.723856250000004
20
4.007503125
30
0
0
VERTEX
8
0
10
42.72386875
20
4.007496875
30
0
0
VERTEX
8
0
10
42.789556250000004
20
3.9802906250000003
30
0
0
VERTEX
8
0
10
43.380290625
20
3.38955625
30
0
0
VERTEX
8
0
10
43.699996875000004
20
2.617715625
30
0
0
VERTEX
8
0
10
43.699996875000004
20
0.58228125
30
0
0
VERTEX
8
0
10
43.380290625
20
-0.18955625
30
0
0
VERTEX
8
0
10
42.789556250000004
20
-0.780290625
30
0
0
VERTEX
8
0
10
42.017715625
20
-1.099996875
30
0
0
SEQEND
0
POLYLINE
66
1
8
16_copper
10
0.0
20
0.0
30
0.0
70
1
0
VERTEX
8
0
10
75.12972500000001
20
-6.449996875
30
0
0
VERTEX
8
0
10
74.321128125
20
-6.115065625000001
30
0
0
VERTEX
8
0
10
73.70226562500001
20
-5.496203125
30
0
0
VERTEX
8
0
10
73.367334375
20
-4.68760625
30
0
0
VERTEX
8
0
10
73.367334375
20
-3.8123906250000004
30
0
0
VERTEX
8
0
10
73.70226562500001
20
-3.0037937500000003
30
0
0
VERTEX
8
0
10
74.321128125
20
-2.38493125
30
0
0
VERTEX
8
0
10
75.12972500000001
20
-2.0500000000000003
30
0
0
VERTEX
8
0
10
76.004940625
20
-2.0500000000000003
30
0
0
VERTEX
8
0
10
76.59038125000001
20
-2.2924968750000003
30
0
0
VERTEX
8
0
10
76.5903875
20
-2.2925
30
0
0
VERTEX
8
0
10
76.59039375
20
-2.2925
30
0
0
VERTEX
8
0
10
76.81353750000001
20
-2.38493125
30
0
0
VERTEX
8
0
10
77.4324
20
-3.0037937500000003
30
0
0
VERTEX
8
0
10
77.76733125
20
-3.8123906250000004
30
0
0
VERTEX
8
0
10
77.76733125
20
-4.68760625
30
0
0
VERTEX
8
0
10
77.4324
20
-5.496203125
30
0
0
VERTEX
8
0
10
76.81353750000001
20
-6.115065625000001
30
0
0
VERTEX
8
0
10
76.004940625
20
-6.449996875
30
0
0
SEQEND
0
POLYLINE
66
1
8
16_copper
10
0.0
20
0.0
30
0.0
70
1
0
VERTEX
8
0
10
-75.97027187500001
20
-6.449996875
30
0
0
VERTEX
8
0
10
-76.77886875
20
-6.115065625000001
30
0
0
VERTEX
8
0
10
-77.39773125
20
-5.496203125
30
0
0
VERTEX
8
0
10
-77.7326625
20
-4.68760625
30
0
0
VERTEX
8
0
10
-77.7326625
20
-3.8123906250000004
30
0
0
VERTEX
8
0
10
-77.39773125
20
-3.0037937500000003
30
0
0
VERTEX
8
0
10
-76.77886875
20
-2.38493125
30
0
0
VERTEX
8
0
10
-75.97027187500001
20
-2.0500000000000003
30
0
0
VERTEX
8
0
10
-75.09505625
20
-2.0500000000000003
30
0
0
VERTEX
8
0
10
-74.50961562500001
20
-2.2924968750000003
30
0
0
VERTEX
8
0
10
-74.509609375
20
-2.2925
30
0
0
VERTEX
8
0
10
-74.509603125
20
-2.2925
30
0
0
VERTEX
8
0
10
-74.286459375
20
-2.38493125
30
0
0
VERTEX
8
0
10
-73.667596875
20
-3.0037937500000003
30
0
0
VERTEX
8
0
10
-73.332665625
20
-3.8123906250000004
30
0
0
VERTEX
8
0
10
-73.332665625
20
-4.68760625
30
0
0
VERTEX
8
0
10
-73.667596875
20
-5.496203125
30
0
0
VERTEX
8
0
10
-74.286459375
20
-6.115065625000001
30
0
0
VERTEX
8
0
10
-75.09505625
20
-6.449996875
30
0
0
SEQEND
0
POLYLINE
66
1
8
16_copper
10
0.0
20
0.0
30
0.0
70
1
0
VERTEX
8
0
10
1.692925
20
-5.502146875
30
0
0
VERTEX
8
0
10
1.692825
20
-5.502153125
30
0
0
VERTEX
8
0
10
1.6927
20
-5.5021281250000005
30
0
0
VERTEX
8
0
10
1.6787500000000002
20
-5.502146875
30
0
0
VERTEX
8
0
10
1.602646875
20
-5.50755625
30
0
0
VERTEX
8
0
10
1.5695125
20
-5.4965093750000005
30
0
0
VERTEX
8
0
10
1.564034375
20
-5.495418750000001
30
0
0
VERTEX
8
0
10
1.5587875
20
-5.4935875
30
0
0
VERTEX
8
0
10
1.5450937500000002
20
-5.491643750000001
30
0
0
VERTEX
8
0
10
1.5450406250000002
20
-5.491634375
30
0
0
VERTEX
8
0
10
1.545025
20
-5.491634375
30
0
0
VERTEX
8
0
10
1.544975
20
-5.491628125
30
0
0
VERTEX
8
0
10
1.5101375000000001
20
-5.4891531250000005
30
0
0
VERTEX
8
0
10
1.441909375
20
-5.4550375
30
0
0
VERTEX
8
0
10
1.4418
20
-5.455
30
0
0
VERTEX
8
0
10
1.441703125
20
-5.454934375000001
30
0
0
VERTEX
8
0
10
1.4288093750000002
20
-5.4496093750000005
30
0
0
VERTEX
8
0
10
1.35641875
20
-5.425481250000001
30
0
0
VERTEX
8
0
10
1.3300375
20
-5.4026000000000005
30
0
0
VERTEX
8
0
10
1.325415625
20
-5.399509375
30
0
0
VERTEX
8
0
10
1.32125
20
-5.39579375
30
0
0
VERTEX
8
0
10
1.30936875
20
-5.388778125
30
0
0
VERTEX
8
0
10
1.309296875
20
-5.38873125
30
0
0
VERTEX
8
0
10
1.309271875
20
-5.388721875
30
0
0
VERTEX
8
0
10
1.3092343750000002
20
-5.3887
30
0
0
VERTEX
8
0
10
1.2780093750000001
20
-5.3730875000000005
30
0
0
VERTEX
8
0
10
1.2280250000000001
20
-5.315453125
30
0
0
VERTEX
8
0
10
1.227934375
20
-5.315371875
30
0
0
VERTEX
8
0
10
1.2278718750000002
20
-5.315278125
30
0
0
VERTEX
8
0
10
1.21799375
20
-5.3054250000000005
30
0
0
VERTEX
8
0
10
1.160346875
20
-5.25543125
30
0
0
VERTEX
8
0
10
1.14473125
20
-5.2241968750000005
30
0
0
VERTEX
8
0
10
1.1416375
20
-5.2195625
30
0
0
VERTEX
8
0
10
1.1392125
20
-5.214540625000001
30
0
0
VERTEX
8
0
10
1.130940625
20
-5.203534375
30
0
0
VERTEX
8
0
10
1.130878125
20
-5.20344375
30
0
0
VERTEX
8
0
10
1.130853125
20
-5.203421875
30
0
0
VERTEX
8
0
10
1.130828125
20
-5.2033875
30
0
0
VERTEX
8
0
10
1.107953125
20
-5.177015625
30
0
0
VERTEX
8
0
10
1.0982156250000001
20
-5.147803125
30
0
42
0.5258420900350091
0
VERTEX
8
0
10
0.9398968750000001
20
-5.102134375
30
0
0
VERTEX
8
0
10
0.9365375
20
-5.105309375
30
0
42
0.009694029426511281
0
VERTEX
8
0
10
0.933725
20
-5.107965625
30
0
0
VERTEX
8
0
10
0.9297562500000001
20
-5.111715625
30
0
0
VERTEX
8
0
10
0.72773125
20
-5.33129375
30
0
0
VERTEX
8
0
10
0.3432625
20
-5.499996875
30
0
0
VERTEX
8
0
10
-0.0765875
20
-5.499996875
30
0
0
VERTEX
8
0
10
-0.46105937500000005
20
-5.331290625
30
0
0
VERTEX
8
0
10
-0.49626562500000004
20
-5.293025
30
0
42
0.38579258606721245
0
VERTEX
8
0
10
-0.6300375
20
-5.280868750000001
30
0
0
VERTEX
8
0
10
-0.63145625
20
-5.282103125
30
0
0
VERTEX
8
0
10
-0.632265625
20
-5.282596875
30
0
0
VERTEX
8
0
10
-0.63358125
20
-5.283946875
30
0
0
VERTEX
8
0
10
-0.64056875
20
-5.290021875
30
0
0
VERTEX
8
0
10
-0.75121875
20
-5.400675000000001
30
0
0
VERTEX
8
0
10
-0.991
20
-5.499996875
30
0
0
VERTEX
8
0
10
-2.192321875
20
-5.499996875
30
0
0
VERTEX
8
0
10
-2.432109375
20
-5.4006718750000005
30
0
0
VERTEX
8
0
10
-2.615621875
20
-5.2171593750000005
30
0
0
VERTEX
8
0
10
-2.7149468750000003
20
-4.977371875
30
0
0
VERTEX
8
0
10
-2.7149468750000003
20
-4.717825
30
0
0
VERTEX
8
0
10
-2.615621875
20
-4.4780375
30
0
0
VERTEX
8
0
10
-2.432109375
20
-4.294525
30
0
0
VERTEX
8
0
10
-2.305790625
20
-4.2422031250000005
30
0
0
VERTEX
8
0
10
-2.304140625
20
-4.2412625
30
0
0
VERTEX
8
0
10
-2.302325
20
-4.240690625
30
0
42
0.25551175558135103
0
VERTEX
8
0
10
-2.2450312500000003
20
-4.163734375
30
0
0
VERTEX
8
0
10
-2.244059375
20
-4.1498156250000005
30
0
0
VERTEX
8
0
10
-2.244059375
20
-3.19406875
30
0
0
VERTEX
8
0
10
-2.2442968750000003
20
-3.1921875
30
0
0
VERTEX
8
0
10
-2.2446718750000003
20
-3.183025
30
0
0
VERTEX
8
0
10
-2.2544
20
-3.09546875
30
0
0
VERTEX
8
0
10
-2.248009375
20
-3.073415625
30
0
0
VERTEX
8
0
10
-2.246896875
20
-3.066384375
30
0
0
VERTEX
8
0
10
-2.2450312500000003
20
-3.059503125
30
0
0
VERTEX
8
0
10
-2.24441875
20
-3.0507218750000002
30
0
0
VERTEX
8
0
10
-2.2441093750000003
20
-3.0487718750000004
30
0
0
VERTEX
8
0
10
-2.244209375
20
-3.047715625
30
0
0
VERTEX
8
0
10
-2.244059375
20
-3.0455843750000002
30
0
0
VERTEX
8
0
10
-2.244059375
20
-3.022625
30
0
0
VERTEX
8
0
10
-2.210346875
20
-2.9412406250000003
30
0
0
VERTEX
8
0
10
-2.20984375
20
-2.9394093750000003
30
0
0
VERTEX
8
0
10
-2.206684375
20
-2.930803125
30
0
0
VERTEX
8
0
10
-2.1821625
20
-2.8461781250000002
30
0
0
VERTEX
8
0
10
-2.167825
20
-2.82825625
30
0
0
VERTEX
8
0
10
-2.1641
20
-2.8221812500000003
30
0
0
VERTEX
8
0
10
-2.159740625
20
-2.81653125
30
0
0
VERTEX
8
0
10
-2.15581875
20
-2.808665625
30
0
0
VERTEX
8
0
10
-2.1547875000000003
20
-2.80698125
30
0
0
VERTEX
8
0
10
-2.154475
20
-2.8059656250000002
30
0
0
VERTEX
8
0
10
-2.1535156250000003
20
-2.80404375
30
0
0
VERTEX
8
0
10
-2.144734375
20
-2.782840625
30
0
0
VERTEX
8
0
10
-2.0824375
20
-2.720546875
30
0
0
VERTEX
8
0
10
-2.08126875
20
-2.71904375
30
0
0
VERTEX
8
0
10
-2.075059375
20
-2.712303125
30
0
0
VERTEX
8
0
10
-2.02003125
20
-2.643515625
30
0
0
VERTEX
8
0
10
-1.9999250000000002
20
-2.63244375
30
0
0
VERTEX
8
0
10
-1.9941718750000001
20
-2.6282625
30
0
0
VERTEX
8
0
10
-1.98798125
20
-2.6247125000000002
30
0
0
VERTEX
8
0
10
-1.9813437500000002
20
-2.618940625
30
0
0
VERTEX
8
0
10
-1.979740625
20
-2.617775
30
0
0
VERTEX
8
0
10
-1.979059375
20
-2.616953125
30
0
0
VERTEX
8
0
10
-1.977453125
20
-2.61555625
30
0
0
VERTEX
8
0
10
-1.9612218750000001
20
-2.5993250000000003
30
0
0
VERTEX
8
0
10
-1.87981875
20
-2.56560625
30
0
0
VERTEX
8
0
10
-1.8781562500000002
20
-2.564659375
30
0
0
VERTEX
8
0
10
-1.86985
20
-2.560815625
30
0
0
VERTEX
8
0
10
-1.7926781250000001
20
-2.51831875
30
0
0
VERTEX
8
0
10
-1.769865625
20
-2.515784375
30
0
0
VERTEX
8
0
10
-1.76294375
20
-2.5141218750000003
30
0
0
VERTEX
8
0
10
-1.7558718750000002
20
-2.5132125000000003
30
0
0
VERTEX
8
0
10
-1.7475375000000002
20
-2.510421875
30
0
0
VERTEX
8
0
10
-1.74560625
20
-2.509959375
30
0
0
VERTEX
8
0
10
-1.7446625
20
-2.5094625
30
0
0
VERTEX
8
0
10
-1.7426406250000002
20
-2.5087843750000003
30
0
0
VERTEX
8
0
10
-1.721434375
20
-2.5
30
0
0
VERTEX
8
0
10
-1.6333312500000001
20
-2.5
30
0
0
VERTEX
8
0
10
-1.63145
20
-2.4997625
30
0
0
VERTEX
8
0
10
-1.6222875
20
-2.4993875
30
0
0
VERTEX
8
0
10
-1.53473125
20
-2.489659375
30
0
0
VERTEX
8
0
10
-1.512678125
20
-2.4960500000000003
30
0
0
VERTEX
8
0
10
-1.505646875
20
-2.4971625
30
0
0
VERTEX
8
0
10
-1.498765625
20
-2.499028125
30
0
0
VERTEX
8
0
10
-1.4899843750000001
20
-2.499640625
30
0
0
VERTEX
8
0
10
-1.488034375
20
-2.49995
30
0
0
VERTEX
8
0
10
-1.486978125
20
-2.49985
30
0
0
VERTEX
8
0
10
-1.4848468750000001
20
-2.5
30
0
0
VERTEX
8
0
10
-1.4618875
20
-2.5
30
0
0
VERTEX
8
0
10
-1.3805031250000002
20
-2.5337125
30
0
0
VERTEX
8
0
10
-1.378671875
20
-2.5342156250000003
30
0
0
VERTEX
8
0
10
-1.370065625
20
-2.537375
30
0
0
VERTEX
8
0
10
-1.2854375
20
-2.561896875
30
0
0
VERTEX
8
0
10
-1.2675125
20
-2.5762375
30
0
0
VERTEX
8
0
10
-1.2614375
20
-2.579959375
30
0
0
VERTEX
8
0
10
-1.25579375
20
-2.5843156250000003
30
0
0
VERTEX
8
0
10
-1.247925
20
-2.5882375
30
0
0
VERTEX
8
0
10
-1.2462375
20
-2.589271875
30
0
0
VERTEX
8
0
10
-1.2452218750000001
20
-2.5895843750000003
30
0
0
VERTEX
8
0
10
-1.24330625
20
-2.590540625
30
0
0
VERTEX
8
0
10
-1.238596875
20
-2.592490625
30
0
0
VERTEX
8
0
10
-1.23858125
20
-2.5925000000000002
30
0
0
VERTEX
8
0
10
-1.2385656250000001
20
-2.592503125
30
0
0
VERTEX
8
0
10
-1.222109375
20
-2.5993218750000002
30
0
0
VERTEX
8
0
10
-1.1598187500000001
20
-2.6616125
30
0
0
VERTEX
8
0
10
-1.158315625
20
-2.66278125
30
0
0
VERTEX
8
0
10
-1.151575
20
-2.668990625
30
0
0
VERTEX
8
0
10
-0.8268468750000001
20
-2.928778125
30
0
0
VERTEX
8
0
10
-0.8220937500000001
20
-2.9316906250000003
30
0
0
VERTEX
8
0
10
-0.8177875
20
-2.9352343750000003
30
0
42
0.3233073820821304
0
VERTEX
8
0
10
-0.700928125
20
-2.92798125
30
0
0
VERTEX
8
0
10
-0.69093125
20
-2.918534375
30
0
0
VERTEX
8
0
10
-0.690840625
20
-2.91845625
30
0
0
VERTEX
8
0
10
-0.690821875
20
-2.918428125
30
0
0
VERTEX
8
0
10
-0.6907875
20
-2.918396875
30
0
0
VERTEX
8
0
10
-0.46106562500000003
20
-2.6687125000000003
30
0
0
VERTEX
8
0
10
-0.07659062500000001
20
-2.5
30
0
0
VERTEX
8
0
10
0.343265625
20
-2.5
30
0
0
VERTEX
8
0
10
0.727734375
20
-2.668709375
30
0
0
VERTEX
8
0
10
1.0120125
20
-2.9776875
30
0
0
VERTEX
8
0
10
1.02635625
20
-3.0195281250000003
30
0
42
0.37145490469542214
0
VERTEX
8
0
10
1.1390625
20
-3.08544375
30
0
0
VERTEX
8
0
10
1.144659375
20
-3.084003125
30
0
0
VERTEX
8
0
10
1.1467031250000002
20
-3.0837250000000003
30
0
0
VERTEX
8
0
10
1.148371875
20
-3.083046875
30
0
0
VERTEX
8
0
10
1.1525750000000001
20
-3.081965625
30
0
0
VERTEX
8
0
10
1.2259312500000001
20
-3.057509375
30
0
0
VERTEX
8
0
10
1.48480625
20
-3.075909375
30
0
0
VERTEX
8
0
10
1.6411125
20
-3.1540625
30
0
0
VERTEX
8
0
10
1.64288125
20
-3.154684375
30
0
0
VERTEX
8
0
10
1.6444687500000001
20
-3.1556625
30
0
42
0.18985244411246177
0
VERTEX
8
0
10
1.7176718750000002
20
-3.1594156250000003
30
0
0
VERTEX
8
0
10
1.73055625
20
-3.154059375
30
0
0
VERTEX
8
0
10
1.886853125
20
-3.075909375
30
0
0
VERTEX
8
0
10
2.1457375
20
-3.057509375
30
0
0
VERTEX
8
0
10
2.3919625
20
-3.139584375
30
0
0
VERTEX
8
0
10
2.5880312500000002
20
-3.3096343750000004
30
0
0
VERTEX
8
0
10
2.704103125
20
-3.54178125
30
0
0
VERTEX
8
0
10
2.7225031250000002
20
-3.8006593750000004
30
0
0
VERTEX
8
0
10
2.699878125
20
-3.868528125
30
0
0
VERTEX
8
0
10
2.699871875
20
-3.86854375
30
0
0
VERTEX
8
0
10
2.6998687500000003
20
-3.8685593750000002
30
0
0
VERTEX
8
0
10
2.6665468750000003
20
-3.968521875
30
0
0
VERTEX
8
0
10
2.6665375
20
-3.9685437500000003
30
0
0
VERTEX
8
0
10
2.6665343750000003
20
-3.968565625
30
0
0
VERTEX
8
0
10
2.599878125
20
-4.168528125
30
0
0
VERTEX
8
0
10
2.5998718750000003
20
-4.16854375
30
0
0
VERTEX
8
0
10
2.59986875
20
-4.168559375
30
0
0
VERTEX
8
0
10
2.5665468750000002
20
-4.268521875
30
0
0
VERTEX
8
0
10
2.5665375
20
-4.26854375
30
0
0
VERTEX
8
0
10
2.5665343750000003
20
-4.268565625
30
0
0
VERTEX
8
0
10
2.499878125
20
-4.468528125000001
30
0
0
VERTEX
8
0
10
2.499871875
20
-4.46854375
30
0
0
VERTEX
8
0
10
2.49986875
20
-4.468559375
30
0
0
VERTEX
8
0
10
2.466546875
20
-4.568521875
30
0
0
VERTEX
8
0
10
2.4665375000000003
20
-4.56854375
30
0
0
VERTEX
8
0
10
2.466534375
20
-4.568565625000001
30
0
0
VERTEX
8
0
10
2.3998781250000003
20
-4.7685281250000005
30
0
0
VERTEX
8
0
10
2.399871875
20
-4.76854375
30
0
0
VERTEX
8
0
10
2.39986875
20
-4.768559375000001
30
0
0
VERTEX
8
0
10
2.366546875
20
-4.868521875
30
0
0
VERTEX
8
0
10
2.3665375
20
-4.868543750000001
30
0
0
VERTEX
8
0
10
2.366534375
20
-4.8685656250000005
30
0
0
VERTEX
8
0
10
2.334746875
20
-4.963925000000001
30
0
0
VERTEX
8
0
10
2.33365625
20
-4.969396875
30
0
0
VERTEX
8
0
10
2.3318250000000003
20
-4.974646875
30
0
0
VERTEX
8
0
10
2.32988125
20
-4.988340625
30
0
0
VERTEX
8
0
10
2.3298718750000003
20
-4.98839375
30
0
0
VERTEX
8
0
10
2.3298718750000003
20
-4.988409375
30
0
0
VERTEX
8
0
10
2.329865625
20
-4.988459375000001
30
0
0
VERTEX
8
0
10
2.327390625
20
-5.023296875000001
30
0
0
VERTEX
8
0
10
2.293275
20
-5.091525
30
0
0
VERTEX
8
0
10
2.2932375
20
-5.091634375
30
0
0
VERTEX
8
0
10
2.293171875
20
-5.0917312500000005
30
0
0
VERTEX
8
0
10
2.287846875
20
-5.104625
30
0
0
VERTEX
8
0
10
2.2637187500000002
20
-5.177015625
30
0
0
VERTEX
8
0
10
2.2408375
20
-5.203396875
30
0
42
0.02105014563114277
0
VERTEX
8
0
10
2.23403125
20
-5.2121843750000005
30
0
0
VERTEX
8
0
10
2.227015625
20
-5.224065625000001
30
0
0
VERTEX
8
0
10
2.22696875
20
-5.2241375
30
0
0
VERTEX
8
0
10
2.2269593750000003
20
-5.2241625
30
0
0
VERTEX
8
0
10
2.2269375
20
-5.224200000000001
30
0
0
VERTEX
8
0
10
2.211325
20
-5.255425000000001
30
0
0
VERTEX
8
0
10
2.1536906250000003
20
-5.305409375
30
0
0
VERTEX
8
0
10
2.1536093750000003
20
-5.3055
30
0
0
VERTEX
8
0
10
2.1535156250000003
20
-5.305562500000001
30
0
0
VERTEX
8
0
10
2.1436625
20
-5.315440625
30
0
0
VERTEX
8
0
10
2.09366875
20
-5.3730875000000005
30
0
0
VERTEX
8
0
10
2.062434375
20
-5.388703125
30
0
0
VERTEX
8
0
10
2.0578000000000003
20
-5.391796875
30
0
0
VERTEX
8
0
10
2.052778125
20
-5.394221875
30
0
0
VERTEX
8
0
10
2.0417718750000002
20
-5.4024937500000005
30
0
0
VERTEX
8
0
10
2.04168125
20
-5.40255625
30
0
0
VERTEX
8
0
10
2.041659375
20
-5.40258125
30
0
0
VERTEX
8
0
10
2.0416250000000002
20
-5.40260625
30
0
0
VERTEX
8
0
10
2.015253125
20
-5.425481250000001
30
0
0
VERTEX
8
0
10
1.942871875
20
-5.44960625
30
0
0
VERTEX
8
0
10
1.9427750000000001
20
-5.449653125
30
0
0
VERTEX
8
0
10
1.94265
20
-5.449678125
30
0
0
VERTEX
8
0
10
1.9297656250000002
20
-5.455034375
30
0
0
VERTEX
8
0
10
1.86153125
20
-5.4891531250000005
30
0
0
VERTEX
8
0
10
1.8267
20
-5.491628125
30
0
0
VERTEX
8
0
10
1.82123125
20
-5.492715625000001
30
0
0
VERTEX
8
0
10
1.8156750000000001
20
-5.4930312500000005
30
0
0
VERTEX
8
0
10
1.8023125
20
-5.496471875
30
0
0
VERTEX
8
0
10
1.802228125
20
-5.496487500000001
30
0
0
VERTEX
8
0
10
1.80220625
20
-5.496496875
30
0
0
VERTEX
8
0
10
1.8021625000000001
20
-5.4965093750000005
30
0
0
VERTEX
8
0
10
1.7690281250000002
20
-5.50755625
30
0
0
SEQEND
0
CIRCLE
8
drills_NPTH
10
-63.5
20
0.635
30
0
40
4.5
0
CIRCLE
8
drills_NPTH
10
-41.275
20
0.635
30
0
40
4.5
0
CIRCLE
8
drills_NPTH
10
-19.05
20
0.635
30
0
40
4.5
0
CIRCLE
8
drills_NPTH
10
-75.532665625
20
29.25
30
0
40
1.7000000000000002
0
CIRCLE
8
drills_NPTH
10
75.567334375
20
29.25
30
0
40
1.7000000000000002
0
CIRCLE
8
drills_NPTH
10
75.567334375
20
-4.25
30
0
40
1.7000000000000002
0
CIRCLE
8
drills_NPTH
10
-75.532665625
20
-4.25
30
0
40
1.7000000000000002
0
CIRCLE
8
drills_via_1_16
10
0
20
17
30
0
40
0.15
0
ENDSEC
0
EOF